<?xml version="1.0" encoding="utf-8"?>
<!-- Generator: Adobe Illustrator 22.0.1, SVG Export Plug-In . SVG Version: 6.00 Build 0)  -->
<svg version="1.1" id="Layer_1" xmlns="http://www.w3.org/2000/svg" xmlns:xlink="http://www.w3.org/1999/xlink" x="0px" y="0px"
	 viewBox="0 0 750 500" style="enable-background:new 0 0 750 500;" xml:space="preserve">
<style type="text/css">
	.st0{fill:#A8A240;}
	.st1{fill:#F0AB00;}
	.st2{fill:#40875E;}
	.st3{enable-background:new    ;}
	.st4{fill:none;}
	.st5{fill:#2171B8;}
	.st6{fill:#609A7F;enable-background:new    ;}
	.st7{fill:#FFFFFF;}
	.st8{fill-rule:evenodd;clip-rule:evenodd;fill:#F0AB00;}
	.st9{fill:#231F20;}
	.st10{fill:#A69F3D;}
	.st11{stroke:#231F20;stroke-width:0.5;stroke-miterlimit:10;}
	.st12{fill:none;stroke:#000000;stroke-width:2;stroke-miterlimit:10;}
</style>
<path class="st2" d="M739.3,479c0,5.8-4.7,10.5-10.5,10.5H615.8c-5.8,0-10.5-4.7-10.5-10.5V324.5c0-5.8,4.7-10.5,10.5-10.5h112.9
	c5.8,0,10.5,4.7,10.5,10.5V479z M728.7,325.9H615.8v140.4h112.9V325.9z M649.3,472.3c-2.9,0-5.3,2.4-5.3,5.3c0,3,2.4,5.3,5.3,5.3
	c2.9,0,5.3-2.4,5.3-5.3C654.6,474.7,652.2,472.3,649.3,472.3z M672.3,472.3c-2.9,0-5.3,2.4-5.3,5.3c0,3,2.4,5.3,5.3,5.3
	c2.9,0,5.3-2.4,5.3-5.3C677.6,474.7,675.2,472.3,672.3,472.3z M695.2,472.3c-2.9,0-5.3,2.4-5.3,5.3c0,3,2.4,5.3,5.3,5.3
	c2.9,0,5.3-2.4,5.3-5.3C700.6,474.7,698.2,472.3,695.2,472.3z"/>
<g>
	<path class="st4" d="M451.8,87.2C451.8,87.2,451.8,87.2,451.8,87.2L451.8,87.2C451.8,87.2,451.8,87.2,451.8,87.2z"/>
	<path class="st4" d="M451.9,87.1c1.8-2,3.3-4.2,4.5-6.6C455,82.7,453.5,84.9,451.9,87.1z"/>
	<path class="st0" d="M502.2,43.3C502.2,43.3,502.2,43.3,502.2,43.3c0.2-1.3,0.3-2.6,0.2-3.9c-0.6-10.6-8.9-21-20.4-20.4
		c-6.8,0.4-12.4,3.4-16,8.1c2.1,13.3,2.3,33.5-9.7,53.3c-1.2,2.4-2.7,4.7-4.5,6.6c0,0-0.1,0.1-0.1,0.1h0.1
		C480.7,73.8,495.1,56.3,502.2,43.3z"/>
	<path class="st5" d="M451.8,87.2L451.8,87.2c0,0,0.1-0.1,0.1-0.1C451.9,87.1,451.8,87.2,451.8,87.2z"/>
	<path class="st2" d="M526.4,65.2c-0.6-11.5-9.6-22.7-22-22c-0.7,0.1-1.5,0.1-2.2,0.2c-7.1,13-21.5,30.4-50.3,43.8h54.6V87
		C517.1,85.5,527,76.9,526.4,65.2z"/>
	<path class="st1" d="M466,27.1C466,27.1,466,27.2,466,27.1c-3.7-5-9.3-8.5-16.1-8.1c-11.5,0.6-19.8,8.8-20.4,20.4
		c0,0.6,0.1,1.3,0.2,1.9c0.6,0,1.3-0.1,1.9-0.1c15.1,0,27.4,12.3,27.4,27.4c0,4.2-1,8.2-2.7,11.8C468.3,60.7,468.1,40.4,466,27.1z"
		/>
	<g>
		<path d="M432.4,89.1h-5.8c-0.8,0-1.5-0.7-1.5-1.5v-3.3c0-0.1-0.1-0.2-0.2-0.3c-1.2-0.4-2.4-0.9-3.6-1.5c-0.1-0.1-0.3-0.1-0.3,0
			l-2.4,2.4c-0.6,0.6-1.5,0.6-2.1,0l-4.1-4.1c-0.6-0.6-0.6-1.5,0-2.1l2.4-2.4c0.1-0.1,0.1-0.2,0-0.3c-0.6-1.1-1.1-2.3-1.5-3.6
			c0-0.1-0.1-0.2-0.3-0.2h-3.3c-0.8,0-1.5-0.7-1.5-1.5V65c0-0.8,0.7-1.5,1.5-1.5h3.3c0.1,0,0.2-0.1,0.3-0.2c0.4-1.2,0.9-2.5,1.5-3.6
			c0.1-0.1,0.1-0.3,0-0.3l-2.4-2.4c-0.3-0.3-0.4-0.6-0.4-1c0-0.4,0.2-0.8,0.4-1l4.1-4.1c0.6-0.6,1.5-0.6,2.1,0l2.4,2.4
			c0.1,0.1,0.2,0.1,0.3,0c1.1-0.6,2.3-1.1,3.6-1.5c0.1,0,0.2-0.1,0.2-0.3v-3.3c0-0.8,0.7-1.5,1.5-1.5h5.8c0.8,0,1.5,0.7,1.5,1.5v3.3
			c0,0.1,0.1,0.2,0.2,0.3c1.2,0.4,2.5,0.9,3.6,1.5c0.1,0.1,0.3,0,0.3,0l2.4-2.4c0.6-0.6,1.5-0.6,2.1,0l4.1,4.1
			c0.3,0.3,0.4,0.6,0.4,1c0,0.4-0.2,0.8-0.4,1l-2.4,2.4c-0.1,0.1-0.1,0.2,0,0.3c0.6,1.1,1.1,2.3,1.5,3.6c0,0.1,0.1,0.2,0.3,0.2h3.3
			c0.8,0,1.5,0.7,1.5,1.5v5.8c0,0.8-0.7,1.5-1.5,1.5h-3.3c-0.1,0-0.2,0.1-0.3,0.2c-0.4,1.2-0.9,2.5-1.5,3.6c-0.1,0.1-0.1,0.3,0,0.3
			l2.4,2.4c0.6,0.6,0.6,1.5,0,2.1l-4.1,4.1c-0.6,0.6-1.5,0.6-2.1,0l-2.4-2.4c-0.1-0.1-0.2-0.1-0.3,0c-1.1,0.6-2.3,1.1-3.6,1.5
			c-0.1,0-0.2,0.1-0.2,0.3v3.3C433.9,88.4,433.3,89.1,432.4,89.1z M421.2,81.3c0.2,0,0.5,0.1,0.7,0.2c1.1,0.6,2.2,1.1,3.3,1.4
			c0.6,0.2,1.1,0.8,1.1,1.4v3.3c0,0.1,0.1,0.3,0.3,0.3h5.8c0.1,0,0.3-0.1,0.3-0.3v-3.3c0-0.7,0.4-1.2,1.1-1.4
			c1.2-0.3,2.3-0.8,3.3-1.4c0.6-0.3,1.3-0.2,1.8,0.2l2.4,2.4c0.1,0.1,0.3,0.1,0.4,0l4.1-4.1c0.1-0.1,0.1-0.3,0-0.4l-2.4-2.4
			c-0.5-0.5-0.6-1.2-0.2-1.8c0.6-1,1.1-2.2,1.4-3.3c0.2-0.6,0.8-1.1,1.4-1.1h3.3c0.1,0,0.3-0.1,0.3-0.3V65c0-0.1-0.1-0.3-0.3-0.3
			h-3.3c-0.7,0-1.2-0.4-1.4-1.1c-0.3-1.2-0.8-2.3-1.4-3.3c-0.3-0.6-0.2-1.3,0.2-1.8l2.4-2.4c0.1-0.1,0.1-0.1,0.1-0.2
			c0,0,0-0.1-0.1-0.2l-4.1-4.1c-0.1-0.1-0.3-0.1-0.4,0l-2.4,2.4c-0.5,0.5-1.2,0.6-1.8,0.2c-1-0.6-2.2-1-3.3-1.4
			c-0.6-0.2-1.1-0.8-1.1-1.4v-3.3c0-0.1-0.1-0.3-0.3-0.3h-5.8c-0.1,0-0.3,0.1-0.3,0.3v3.3c0,0.7-0.4,1.2-1.1,1.4
			c-1.2,0.3-2.3,0.8-3.3,1.4c-0.6,0.3-1.3,0.2-1.8-0.2l-2.4-2.4c-0.1-0.1-0.3-0.1-0.4,0l-4.1,4.1c-0.1,0.1-0.1,0.1-0.1,0.2
			c0,0,0,0.1,0.1,0.2l2.4,2.4c0.5,0.5,0.6,1.2,0.2,1.8c-0.6,1-1,2.2-1.4,3.3c-0.2,0.6-0.8,1.1-1.4,1.1h-3.3c-0.1,0-0.3,0.1-0.3,0.3
			v5.8c0,0.1,0.1,0.3,0.3,0.3h3.3c0.7,0,1.2,0.4,1.4,1.1c0.3,1.2,0.8,2.3,1.4,3.3c0.3,0.6,0.2,1.3-0.2,1.8l-2.4,2.4
			c-0.1,0.1-0.1,0.3,0,0.4l4.1,4.1c0.1,0.1,0.1,0.1,0.2,0.1c0,0,0.1,0,0.2-0.1l2.4-2.4C420.5,81.5,420.9,81.3,421.2,81.3z
			 M429.6,76.9c-5,0-9-4-9-9c0-5,4-9,9-9c5,0,9,4,9,9C438.6,72.9,434.5,76.9,429.6,76.9z M429.6,60.1c-4.3,0-7.8,3.5-7.8,7.8
			s3.5,7.8,7.8,7.8c4.3,0,7.8-3.5,7.8-7.8S433.9,60.1,429.6,60.1z"/>
	</g>
</g>
<path class="st1" d="M303.5,28.1l-21-17.3c-1.8-1.5-5-2.7-7.4-2.7H242c-1.6,0-3,0.6-4.2,1.7c-1.1,1.1-1.7,2.6-1.7,4.2v14.8h5.2V14
	c0-0.4,0.3-0.7,0.7-0.7H275c0.4,0,1.1,0.2,1.1,1.2v15.8c0,3.2,2.6,5.9,5.9,5.9h19.5c0.1,0,0.3,0.1,0.3,0.4v48.8
	c0,0.4-0.3,0.7-0.7,0.7h-10.8l0.3,5.2h10.5c3.2,0,5.9-2.6,5.9-5.9V35.5C307,32.9,305.5,29.8,303.5,28.1z"/>
<g>
	<path class="st6" d="M265.7,35.8c0-1.3,1-0.3,1-0.3l16.7,14.3c0,0,1.1,1.1-0.8,1.1H267c-0.7,0-1.3-0.6-1.3-1.4V35.8z"/>
	<path class="st7" d="M265.6,34.5c-0.3,0.1-0.6,0.4-0.6,1.2v13.7c0,1.1,0.9,2,2,2h15.6c0.3,0,1.4,0,1.7-0.8c0.3-0.7-0.3-1.3-0.4-1.4
		L267.2,35C267,34.8,266.3,34.2,265.6,34.5z M266.3,49.4c0,0,0-12.8,0-13.4c0.2,0.1,16.1,13.7,16.4,14c-0.1,0-0.2,0-0.2,0H267
		C266.6,50.1,266.3,49.8,266.3,49.4z"/>
</g>
<path class="st2" d="M288.6,47.2l-21-17.3c-1.8-1.5-5.1-2.7-7.4-2.7H227c-3.2,0-5.9,2.6-5.9,5.9v71.2c0,5.9,5.6,6,5.9,6h59.2
	c3.2,0,5.9-2.6,5.9-5.9V54.6C292,52,290.6,48.9,288.6,47.2z M226.3,33.1c0-0.4,0.3-0.7,0.7-0.7h33.1c0.4,0,1.1,0.2,1.1,1.2v15.8
	c0,3.2,2.6,5.9,5.9,5.9h19.6c0.1,0,0.3,0.1,0.3,0.4l0,48.8c0,0.4-0.3,0.7-0.7,0.7h-59.6c-0.1,0-0.3,0-0.3-0.4V33.1z"/>
<path class="st8" d="M258.4,50c0,0.7-0.5,1.2-1.2,1.2h-27.4c-0.7,0-1.2-0.5-1.2-1.2l0,0c0-0.7,0.5-1.2,1.2-1.2h27.4
	C257.9,48.8,258.4,49.4,258.4,50L258.4,50z"/>
<path class="st8" d="M258.4,62.5c0,0.7-0.5,1.2-1.2,1.2h-27.4c-0.7,0-1.2-0.5-1.2-1.2l0,0c0-0.7,0.5-1.2,1.2-1.2h27.4
	C257.9,61.3,258.4,61.9,258.4,62.5L258.4,62.5z"/>
<path d="M266.3,101.2l-10.6-10.7c1.9-2,3.1-4.7,3.1-7.7c0-6.2-5-11.3-11.3-11.3c-6.2,0-11.3,5-11.3,11.3s5,11.3,11.3,11.3
	c2.9,0,5.6-1.1,7.6-2.9l10.6,10.7L266.3,101.2z M237.1,82.7c0-5.7,4.7-10.4,10.4-10.4c5.7,0,10.4,4.7,10.4,10.4
	c0,5.7-4.7,10.4-10.4,10.4C241.8,93.1,237.1,88.5,237.1,82.7z"/>
<g>
	<g>
		<g>
			<path d="M684.1,378.7l-2.7,8.2h-3.5l8.8-26h4l8.9,26h-3.6l-2.8-8.2H684.1z M692.6,376.1l-2.6-7.5c-0.5-1.7-0.9-3.2-1.3-4.7h-0.1
				c-0.3,1.5-0.8,3.1-1.3,4.7l-2.5,7.5H692.6z"/>
		</g>
	</g>
	<g>
		<path d="M644.9,382.4c0,0,17.6-1.3,20-2.3c0,0-15.3,20.4-25.8,24.2c0,0-3.7,0.6,1.1-2.3c0,0,15.1-10.6,19.6-19l-9.5,0.8
			C650.4,383.8,645.1,387.2,644.9,382.4z"/>
		<path d="M655.4,391.2l9.4,8.3c0,0,1.2,2.6-1.6,1.1C663.1,400.6,654.4,394.4,655.4,391.2z"/>
		<path d="M660.1,374.7c0,0-6.3,1.8-8.7-0.9c0,0-0.6,4.3,5.7,4.3C657,378.2,660.5,378.3,660.1,374.7z"/>
	</g>
	<path class="st0" d="M712.6,380.9v-23.2h-79v69.9h21.8l0.9,5.4H635c-4.3,0-7.8-3.5-7.8-7.8v-65.8c0-4.3,3.5-7.8,7.8-7.8h75.9
		c4.3,0,7.8,3.5,7.8,7.8v24.3L712.6,380.9z"/>
	<g>
		<path class="st1" d="M720.1,418.2c0,15.5-12.5,28-28,28c-15.5,0-28-12.5-28-28c0-15.5,12.5-28,28-28
			C707.5,390.2,720.1,402.7,720.1,418.2z M692.1,396.3c-12.1,0-21.9,9.8-21.9,21.9c0,12.1,9.8,21.9,21.9,21.9
			c12.1,0,21.9-9.8,21.9-21.9C714,406.1,704.2,396.3,692.1,396.3z"/>
	</g>
</g>
<path class="st2" d="M61.2,370.2c-1.3,1.3-2.8,1.9-4.3,2.2c-3,0.4-6.2-1.1-7.8-3.9c-1.7-3.2-1.1-6.9,1.7-9.3c2.4-1.9,5-2.2,7.8-1.3
	c3.2,1.1,5.4,5.2,4.5,8.6c0,0.2,0,0.4,0.2,0.6c1.9,1.1,3.7,2.2,5.6,3.2c0.2,0.2,0.6,0.2,0.9,0c3.2-1.9,6.5-3.7,9.7-5.6
	c1.7-1.1,3.4-1.9,5.2-3c2.6-1.5,5.4-3,8-4.5c0.2-0.2,0.4-0.2,0.4-0.6c0-2.2,0-4.3,0-6.7c0-0.2-0.2-0.4-0.4-0.4
	c-2.2-0.6-3.4-1.9-4.5-3.9c-1.5-2.8-0.9-6.2,1.3-8.4c1.5-1.5,3.4-2.4,5.6-2.4c3.4,0,6.2,2.4,7.1,5.8c0.9,3.2-1.1,7.1-4.1,8.6
	c-0.4,0.2-0.6,0.2-1.1,0.4c-0.2,0-0.4,0.2-0.4,0.4c0,2.2,0,4.5,0,6.7c0,0.2,0.2,0.4,0.2,0.4c4.7,2.8,9.7,5.6,14.4,8.4
	c2.8,1.5,5.6,3.2,8.4,4.7c0.2,0.2,0.4,0.2,0.9,0c1.9-1.1,3.7-2.2,5.6-3.2c0.4-0.2,0.4-0.4,0.4-0.9c-1.1-5,3-9.5,8.2-9
	c5.6,0.6,8.4,6.7,5.6,11.4c-2.4,4.1-7.3,4.3-10.3,2.6c-0.4-0.2-0.9-0.6-1.1-0.9c-0.2-0.2-0.4-0.2-0.6,0c-1.7,1.1-3.7,2.2-5.4,3.2
	c-0.4,0.2-0.4,0.4-0.4,0.9c0,7.5,0,14.9,0,22.4c0,1.3,0,2.6,0,3.9c0,0.2,0,0.4,0.4,0.6c1.9,1.1,3.9,2.4,6,3.4
	c0.2-0.2,0.4-0.4,0.6-0.6c2.4-1.9,5.8-2.4,8.2-0.9c2.8,1.5,4.1,4.1,3.9,7.3c-0.2,4.7-4.7,8-9.7,6.7c-3.4-0.9-5.8-4.7-5.4-8
	c0-0.4,0.2-0.9,0-1.3c-0.2-0.2-0.6-0.4-1.1-0.6c-1.5-0.9-3-1.7-4.7-2.6c-0.2,0-0.4,0-0.6,0c-2.6,1.5-5.2,2.8-7.8,4.3
	c-2.2,1.3-4.5,2.6-6.7,3.9c-3,1.7-5.8,3.4-8.8,5.2c-0.2,0-0.2,0.2-0.2,0.4c0,2.2,0,4.3,0,6.7c0,0.4,0.2,0.4,0.4,0.6
	c3.4,1.1,5.8,4.7,5.2,8.4c-0.6,3.7-4.1,6.5-7.8,6.5c-3.2-0.2-6-2.6-6.9-5.8c-1.1-3.4,1.5-8,5-9c0.4,0,0.4-0.2,0.4-0.6
	c0-2.2,0-4.3,0-6.5c0-0.2,0-0.4-0.4-0.6c-4.5-2.6-9-5.2-13.8-8c-1.9-1.1-4.1-2.4-6.2-3.4c-1.1-0.6-2.2-1.3-3.2-1.7
	c-0.2,0-0.4,0-0.4,0c-1.9,1.1-3.7,2.2-5.6,3.2c-0.2,0.2-0.4,0.4-0.2,0.6c0.6,3.2-0.4,5.8-3,7.8c-2.4,1.7-6,1.9-8.6,0.2
	c-2.8-1.9-4.1-5.2-3-8.2c1.9-6.2,8.6-6.9,12.3-3.7c0.2,0.2,0.4,0.2,0.9,0c1.7-1.1,3.4-2.2,5.2-3c0.2-0.2,0.4-0.4,0.4-0.9
	c0-7.1,0-14.2,0-21.3c0-1.7,0-3.4,0-5.2c0-0.2-0.2-0.4-0.2-0.4C65.3,372.6,63.2,371.3,61.2,370.2z M118.5,387.5L118.5,387.5
	c0-4.3,0-8.8,0-13.1c0-0.4,0-0.4-0.4-0.6c-1.7-0.9-3.2-1.9-4.7-2.8c-2.6-1.5-5.2-3-7.8-4.3c-3.4-1.9-6.9-3.9-10.3-6
	c-0.2-0.2-0.6-0.2-0.9,0c-1.1,0.6-2.4,1.3-3.4,1.9c-3.4,1.9-7.1,4.1-10.6,6c-2.8,1.7-5.6,3.2-8.4,5c-0.4,0.2-0.6,0.4-0.6,1.1
	c0,0.4,0,0.9,0,1.3c0,8.2,0,16.4,0,24.6c0,0.4,0.2,0.6,0.6,0.9c4.3,2.4,8.4,5,12.7,7.3c3.2,1.9,6.7,3.9,9.9,5.8
	c0.2,0.2,0.4,0.2,0.9,0c2.8-1.7,5.6-3.2,8.4-4.7c2.4-1.3,4.7-2.8,7.1-4.1c2.4-1.5,5-2.8,7.3-4.3c0.2-0.2,0.4-0.4,0.4-0.6
	C118.5,396.1,118.5,391.8,118.5,387.5z M98.7,432.3c0-2.2-1.5-3.7-3.7-3.7c-2.4,0-4.1,1.7-4.1,3.7c0,2.2,1.7,3.9,3.9,3.9
	C97.2,436.2,98.7,434.6,98.7,432.3z M55.8,413.8c2.2,0,3.9-1.7,3.9-3.7c0-2.2-1.9-4.1-3.9-4.1s-3.7,1.7-3.7,3.7
	C52.2,412,53.9,413.8,55.8,413.8z M91,342.2c0,2.2,1.5,3.7,3.9,3.7c2.2,0,4.1-1.7,4.1-3.7c0-2.2-1.7-3.9-4.1-3.9
	C92.5,338.6,91,340.1,91,342.2z M133.8,368.5c1.9,0,3.7-1.7,3.7-3.7c0-2.2-1.7-4.1-3.9-4.1c-1.9,0-3.9,1.7-3.9,3.7
	C129.9,366.8,131.9,368.5,133.8,368.5z M130.2,409.9c0,2.2,1.7,3.7,3.7,3.7c2.2,0,3.9-1.9,3.9-4.1c0-1.9-1.7-3.7-3.9-3.7
	C131.9,405.8,130.2,407.7,130.2,409.9z M59.5,364.9c0-2.2-1.7-3.7-3.7-3.7c-2.2,0-3.9,1.9-3.9,4.1c0,1.9,1.9,3.7,3.9,3.7
	C57.8,369,59.5,367,59.5,364.9z"/>
<path class="st1" d="M86.6,399.8c0,0.9-0.6,1.5-1.5,1.5h-5.4c-0.9,0-1.5-0.6-1.5-1.5V395c0-0.9,0.6-1.5,1.5-1.5h5.4
	c0.9,0,1.5,0.6,1.5,1.5V399.8z"/>
<path class="st1" d="M98.7,399.8c0,0.9-0.6,1.5-1.5,1.5h-5.4c-0.9,0-1.5-0.6-1.5-1.5V395c0-0.9,0.6-1.5,1.5-1.5h5.4
	c0.9,0,1.5,0.6,1.5,1.5V399.8z"/>
<path class="st1" d="M110.3,399.8c0,0.9-0.6,1.5-1.5,1.5h-5.4c-0.9,0-1.5-0.6-1.5-1.5V395c0-0.9,0.6-1.5,1.5-1.5h5.4
	c0.9,0,1.5,0.6,1.5,1.5V399.8z"/>
<g>
	<polygon points="84.5,390.3 84.5,390.3 89.4,384.7 99.6,384.7 99.6,384.7 104.3,390.3 104.1,390.3 99.6,384.9 89.4,384.9 	"/>
	<polygon class="st9" points="104.8,390.5 104,390.5 99.5,385.1 89.6,385.1 84.7,390.4 84.3,390.1 89.3,384.4 99.7,384.4 	"/>
</g>
<g>
	<rect x="94.2" y="384.7" width="0.2" height="6.5"/>
	<rect x="93.9" y="384.4" class="st9" width="0.7" height="7"/>
</g>
<rect x="88.4" y="371.8" class="st4" width="11.6" height="1.9"/>
<rect x="88.4" y="375.8" class="st4" width="11.6" height="1.9"/>
<path class="st0" d="M103.9,371.8c0-1.5-1.1-2.6-2.6-2.6H87.5c-1.5,0-2.6,1.1-2.6,2.6v3.2h19C103.9,375,103.9,371.8,103.9,371.8z
	 M100,373.9H88.4V372H100V373.9z"/>
<path class="st0" d="M84.9,375.2v3.2c0,1.5,1.1,2.6,2.6,2.6h13.8c1.5,0,2.6-1.1,2.6-2.6v-3.2H84.9z M100,378H88.4v-1.9H100V378z"/>
<path class="st2" d="M437.5,305.1l11.1-7c1.3-0.8,3-0.6,4.2,0.4c3.7,3.3,7.7,6.1,12,8.5c1.4,0.7,2.1,2.3,1.8,3.8l-2.9,12.8
	c-0.4,1.8,0.7,3.7,2.6,4.1l22.1,5c1.8,0.4,3.7-0.7,4.1-2.6l2.9-12.8c0.3-1.5,1.7-2.6,3.2-2.7c4.9-0.3,9.7-1.1,14.5-2.5
	c1.5-0.4,3.1,0.1,3.9,1.4l7,11.1c1,1.6,3.1,2.1,4.7,1.1l19.2-12.1c1.6-1,2.1-3.1,1.1-4.7l-7-11.1c-0.8-1.3-0.7-3,0.4-4.2
	c3.3-3.7,6.1-7.7,8.4-12c0.7-1.4,2.3-2.1,3.8-1.8l12.8,2.9c1.8,0.4,3.7-0.7,4.1-2.6l5-22.1c0.4-1.8-0.7-3.7-2.6-4.1l-12.8-2.9
	c-1.5-0.3-2.6-1.7-2.7-3.2c-0.3-4.9-1.1-9.7-2.5-14.5c-0.4-1.5,0.1-3.1,1.4-3.9l11.1-7c1.6-1,2.1-3.1,1.1-4.7l-12.2-19.2
	c-1-1.6-3.1-2.1-4.7-1.1l-11.1,7c-1.3,0.8-3,0.6-4.2-0.4c-3.7-3.3-7.7-6.1-12-8.4c-1.4-0.7-2.1-2.3-1.8-3.8l2.9-12.8
	c0.4-1.8-0.7-3.7-2.6-4.1l-22.2-5c-1.8-0.4-3.7,0.7-4.1,2.6l-2.9,12.8c-0.3,1.5-1.7,2.6-3.2,2.7c-4.9,0.3-9.7,1.1-14.5,2.5
	c-1.5,0.4-3.1-0.1-3.9-1.4l-7-11.1c-1-1.6-3.1-2.1-4.7-1.1L442.2,189c-1.6,1-2.1,3.1-1.1,4.7l7,11.1c0.8,1.3,0.6,3-0.4,4.2
	c-3.3,3.7-6.1,7.7-8.5,12c-0.7,1.4-2.3,2.1-3.8,1.8l-12.8-2.9c-1.8-0.4-3.7,0.7-4.1,2.6l-5,22.2c-0.4,1.8,0.7,3.7,2.6,4.1l12.8,2.9
	c1.5,0.3,2.6,1.7,2.7,3.2c0.3,4.9,1.1,9.7,2.5,14.5c0.4,1.5-0.1,3.1-1.4,3.9l-11.1,7c-1.6,1-2.1,3.1-1.1,4.7l12.2,19.2
	C433.8,305.7,435.9,306.1,437.5,305.1 M477.3,223.3c15.4-9.8,35.9-5.2,45.6,10.2c9.8,15.4,5.2,35.9-10.2,45.6
	c-15.4,9.8-35.9,5.2-45.6-10.2C457.3,253.5,461.9,233.1,477.3,223.3"/>
<path class="st1" d="M599.6,281.6l6.6-4.2c0.8-0.5,1.8-0.4,2.5,0.2c2.2,2,4.6,3.6,7.1,5c0.8,0.4,1.3,1.3,1.1,2.2l-1.7,7.6
	c-0.2,1.1,0.4,2.2,1.5,2.4l13.1,2.9c1.1,0.2,2.2-0.4,2.4-1.5l1.7-7.6c0.2-0.9,1-1.5,1.9-1.6c2.9-0.2,5.8-0.6,8.6-1.5
	c0.9-0.3,1.8,0.1,2.3,0.8l4.2,6.6c0.6,0.9,1.9,1.2,2.8,0.6l11.4-7.2c1-0.6,1.2-1.9,0.6-2.8l-4.2-6.6c-0.5-0.8-0.4-1.8,0.2-2.5
	c2-2.2,3.6-4.6,5-7.1c0.4-0.8,1.3-1.3,2.2-1l7.6,1.7c1.1,0.2,2.2-0.4,2.4-1.5l2.9-13.1c0.2-1.1-0.4-2.2-1.5-2.4l-7.6-1.7
	c-0.9-0.2-1.5-1-1.6-1.9c-0.2-2.9-0.6-5.8-1.5-8.6c-0.3-0.9,0.1-1.8,0.8-2.3l6.6-4.2c0.9-0.6,1.2-1.9,0.6-2.8l-7.2-11.4
	c-0.6-0.9-1.8-1.2-2.8-0.6l-6.6,4.2c-0.8,0.5-1.8,0.4-2.5-0.2c-2.2-2-4.6-3.6-7.1-5c-0.8-0.4-1.2-1.3-1.1-2.2l1.7-7.6
	c0.2-1.1-0.4-2.2-1.5-2.4l-13.1-3c-1.1-0.2-2.2,0.4-2.4,1.5l-1.7,7.6c-0.2,0.9-1,1.5-1.9,1.6c-2.9,0.2-5.8,0.6-8.6,1.5
	c-0.9,0.3-1.8-0.1-2.3-0.8l-4.2-6.6c-0.6-0.9-1.9-1.2-2.8-0.6l-11.4,7.2c-0.9,0.6-1.2,1.9-0.6,2.8l4.2,6.6c0.5,0.8,0.4,1.8-0.2,2.5
	c-2,2.2-3.6,4.6-5,7.1c-0.4,0.8-1.3,1.3-2.2,1.1l-7.6-1.7c-1.1-0.2-2.2,0.4-2.4,1.5l-3,13.1c-0.2,1.1,0.4,2.2,1.5,2.4l7.6,1.7
	c0.9,0.2,1.5,1,1.6,1.9c0.2,2.9,0.6,5.8,1.5,8.6c0.3,0.9-0.1,1.8-0.8,2.3l-6.6,4.2c-0.9,0.6-1.2,1.9-0.6,2.8l7.2,11.4
	C597.4,281.9,598.6,282.2,599.6,281.6 M623.2,233.1c9.2-5.8,21.3-3.1,27.1,6.1c5.8,9.2,3.1,21.3-6.1,27.1
	c-9.2,5.8-21.3,3.1-27.1-6.1C611.3,251,614,238.9,623.2,233.1"/>
<path class="st0" d="M550.9,183.9l8.4-5.3c1-0.6,2.3-0.5,3.2,0.3c2.8,2.5,5.9,4.7,9.1,6.4c1,0.6,1.6,1.7,1.3,2.9l-2.2,9.7
	c-0.3,1.4,0.6,2.8,2,3.1l16.8,3.8c1.4,0.3,2.8-0.6,3.1-2l2.2-9.7c0.3-1.2,1.3-2,2.4-2c3.7-0.2,7.4-0.8,11-1.9c1.1-0.3,2.3,0.1,3,1.1
	l5.3,8.4c0.8,1.2,2.4,1.6,3.6,0.8l14.6-9.2c1.2-0.8,1.6-2.4,0.8-3.6l-5.3-8.4c-0.6-1-0.5-2.3,0.3-3.2c2.5-2.8,4.7-5.9,6.4-9.1
	c0.6-1,1.7-1.6,2.9-1.3l9.7,2.2c1.4,0.3,2.8-0.6,3.1-2l3.8-16.8c0.3-1.4-0.6-2.8-2-3.1l-9.7-2.2c-1.2-0.3-2-1.3-2-2.5
	c-0.2-3.7-0.8-7.4-1.9-11c-0.3-1.1,0.1-2.3,1.1-3l8.4-5.3c1.2-0.8,1.6-2.4,0.8-3.6l-9.2-14.6c-0.8-1.2-2.4-1.6-3.6-0.8l-8.4,5.3
	c-1,0.6-2.3,0.5-3.2-0.3c-2.8-2.5-5.9-4.7-9.1-6.4c-1-0.6-1.6-1.7-1.3-2.9l2.2-9.7c0.3-1.4-0.6-2.8-2-3.1l-16.8-3.8
	c-1.4-0.3-2.8,0.6-3.1,2l-2.2,9.7c-0.3,1.1-1.3,2-2.4,2c-3.7,0.2-7.4,0.8-11,1.9c-1.1,0.3-2.3-0.1-3-1.1l-5.3-8.4
	c-0.8-1.2-2.4-1.6-3.6-0.8l-14.6,9.2c-1.2,0.8-1.6,2.4-0.8,3.6l5.3,8.4c0.6,1,0.5,2.3-0.3,3.2c-2.5,2.8-4.7,5.9-6.4,9.1
	c-0.6,1-1.7,1.6-2.9,1.3l-9.7-2.2c-1.4-0.3-2.8,0.6-3.1,2l-3.8,16.8c-0.3,1.4,0.6,2.8,2,3.1l9.7,2.2c1.2,0.3,2,1.3,2,2.4
	c0.2,3.7,0.8,7.4,1.9,11c0.3,1.1-0.1,2.3-1.1,3l-8.4,5.3c-1.2,0.8-1.6,2.4-0.8,3.6l9.2,14.6C548,184.3,549.7,184.7,550.9,183.9
	 M581.1,121.7c11.7-7.4,27.3-3.9,34.7,7.8c7.4,11.7,3.9,27.3-7.8,34.7c-11.7,7.4-27.3,3.9-34.7-7.8
	C565.9,144.7,569.4,129.2,581.1,121.7"/>
<polygon class="st1" points="160,299.6 208.5,252.9 208.5,305.8 160,305.8 "/>
<polygon class="st0" points="222.5,241.3 250.7,213.1 269.2,231.6 269.2,305.8 222.5,305.8 "/>
<polygon class="st0" points="286.2,238.9 336.5,192.8 336.5,305.8 286.2,305.8 "/>
<polygon class="st2" points="349.9,178.8 398.4,133.3 398.4,305.8 349.9,305.8 "/>
<path d="M151.9,282.2c-5.2,0-9.4-4.2-9.4-9.4c0-5.2,4.2-9.4,9.4-9.4c5.2,0,9.4,4.2,9.4,9.4C161.3,277.9,157.1,282.2,151.9,282.2z
	 M151.9,265.3c-4.1,0-7.4,3.3-7.4,7.4c0,4.1,3.3,7.4,7.4,7.4s7.4-3.3,7.4-7.4C159.3,268.6,156,265.3,151.9,265.3z M283.7,216.3
	c-5.2,0-9.4-4.2-9.4-9.4c0-5.2,4.2-9.4,9.4-9.4c5.2,0,9.4,4.2,9.4,9.4C293.2,212.1,288.9,216.3,283.7,216.3z M283.7,199.4
	c-4.1,0-7.4,3.3-7.4,7.4c0,4.1,3.3,7.4,7.4,7.4c4.1,0,7.4-3.3,7.4-7.4C291.2,202.8,287.8,199.4,283.7,199.4z M252.2,185
	c-5.2,0-9.4-4.2-9.4-9.4c0-5.2,4.2-9.4,9.4-9.4c5.2,0,9.4,4.2,9.4,9.4C261.6,180.8,257.4,185,252.2,185z M252.2,168.1
	c-4.1,0-7.4,3.3-7.4,7.4c0,4.1,3.3,7.4,7.4,7.4c4.1,0,7.4-3.3,7.4-7.4C259.6,171.5,256.3,168.1,252.2,168.1z M383,117.1
	c-5.2,0-9.4-4.2-9.4-9.4s4.2-9.4,9.4-9.4c5.2,0,9.4,4.2,9.4,9.4S388.2,117.1,383,117.1z M383,100.2c-4.1,0-7.4,3.3-7.4,7.4
	s3.3,7.4,7.4,7.4c4.1,0,7.4-3.3,7.4-7.4S387.1,100.2,383,100.2z"/>
<path d="M189.9,222.1h-2v-84.2c0-6.1,5-11.1,11.1-11.1h153.3v2H199c-5,0-9.1,4.1-9.1,9.1V222.1z"/>
<polygon points="593.9,371.8 281.9,371.8 281.9,369.8 591.9,369.8 591.9,323.9 593.9,323.9 "/>
<rect x="425.2" y="126.8" width="86.8" height="2"/>
<rect x="140.8" y="223.2" transform="matrix(0.7071 -0.7071 0.7071 0.7071 -99.3941 208.3745)" width="122.1" height="2"/>
<rect x="266.4" y="178.3" transform="matrix(0.7071 -0.7071 0.7071 0.7071 -57.0188 245.1359)" width="2" height="26.2"/>
<rect x="272.6" y="156.7" transform="matrix(0.7071 -0.7071 0.7071 0.7071 -13.5633 282.5888)" width="123.5" height="2"/>
<g>
	<path class="st2" d="M703.1,405.2c-0.7,0-1.6,0.1-2.6,0.3c-1.1,0.2-1.8,0.4-2.3,0.6c-0.4,0.2-1.1,0.8-2.1,1.8
		c-0.9,1-2.1,2.5-3.5,4.5c-1.4,2-2.6,4-3.7,5.8c-0.9,1.7-1.9,3.5-2.8,5.4c-0.7-0.8-1.4-1.5-2.1-2c-0.9-0.6-1.8-0.9-2.6-0.9
		c-0.8,0-1.7,0.4-2.7,1.1c-1,0.7-1.5,1.6-1.5,2.5c0,0.7,0.4,1.5,1.3,2.5c1.3,1.4,2.3,2.7,3.1,3.9c0.6,0.9,1,1.4,1.2,1.7
		c0.3,0.3,0.6,0.5,1,0.7c0.4,0.1,1,0.2,1.9,0.2c1.3,0,2.1-0.1,2.6-0.4c0.5-0.3,0.9-0.7,1.2-1.2c0.3-0.5,0.7-1.4,1.2-2.8
		c1.4-3.5,3.3-7.2,5.7-11c2.4-3.8,4.7-6.7,6.9-8.7c0.5-0.5,0.9-0.8,1-1.1c0.2-0.3,0.3-0.6,0.3-1c0-0.5-0.2-0.9-0.5-1.2
		C704.1,405.4,703.6,405.2,703.1,405.2z"/>
</g>
<path class="st2" d="M269,464.1c0,3.8-3.1,6.8-6.8,6.8H25.6c-3.8,0-6.8-3.1-6.8-6.8V310.4c0-3.8,3.1-6.8,6.8-6.8h236.5
	c3.8,0,6.8,3.1,6.8,6.8V464.1z M260.2,458.8V312.4H27.5v146.4H260.2z"/>
<path class="st0" d="M277.9,486.3c0,3.1-2.6,5.7-5.7,5.7H15.5c-3.1,0-5.7-2.6-5.7-5.7v-5.7c0-3.1,2.6-5.7,5.7-5.7h256.7
	c3.1,0,5.7,2.6,5.7,5.7V486.3z M75.6,479.6H20.9v7.7h54.7V479.6z M265.9,480.4c-1.7,0-3.1,1.4-3.1,3.1c0,1.7,1.4,3.1,3.1,3.1
	c1.7,0,3.1-1.4,3.1-3.1C269,481.8,267.6,480.4,265.9,480.4z M253.2,480.4c-1.7,0-3.1,1.4-3.1,3.1c0,1.7,1.4,3.1,3.1,3.1
	c1.7,0,3.1-1.4,3.1-3.1C256.3,481.8,254.9,480.4,253.2,480.4z"/>
<path class="st2" d="M282,378.3v38.9h57.4c-2.7,11-5.4,21.9-8,32.9h-7.6c-3.4,0-6.2,3.2-6.2,7.3v2.7h146.7v-2.7c0-4-2.8-7.3-6.2-7.3
	h-7.6c-2.7-11-5.4-21.9-8-32.9h140.4c5.6,0,10.1-4.5,10.1-10.1v-28.9H282z"/>
<g>
	<g>
		<path class="st10" d="M182.4,349v3c1.1,0.1,2,0.3,2.8,0.7c0.8,0.3,1.5,0.8,2,1.5c0.5,0.5,0.8,1.1,1.1,1.6c0.3,0.5,0.4,1.1,0.4,1.5
			c0,0.5-0.2,0.9-0.6,1.3c-0.4,0.4-0.8,0.6-1.3,0.6c-1,0-1.6-0.5-1.9-1.6c-0.3-1.3-1.1-2.1-2.4-2.5v6.3c1.3,0.3,2.3,0.7,3,0.9
			c0.7,0.3,1.4,0.7,2,1.2c0.6,0.6,1.1,1.2,1.5,2c0.3,0.8,0.5,1.6,0.5,2.6c0,1.2-0.3,2.2-0.8,3.3c-0.5,1-1.3,1.8-2.4,2.5
			c-1.1,0.6-2.3,1-3.8,1.1v2.4c0,0.6-0.1,1-0.2,1.3c-0.1,0.3-0.4,0.4-0.8,0.4c-0.4,0-0.6-0.1-0.8-0.3c-0.1-0.2-0.2-0.6-0.2-1V375
			c-1.2-0.1-2.2-0.4-3.1-0.8c-0.9-0.4-1.6-1-2.2-1.6c-0.6-0.6-1-1.3-1.3-2c-0.3-0.7-0.4-1.4-0.4-2c0-0.5,0.2-0.9,0.6-1.3
			c0.4-0.4,0.9-0.6,1.4-0.6c0.5,0,0.8,0.1,1.2,0.3c0.3,0.2,0.5,0.5,0.7,0.9c0.3,0.8,0.5,1.5,0.7,1.9c0.2,0.4,0.5,0.8,0.9,1.2
			c0.4,0.4,1,0.6,1.6,0.8v-7.1c-1.4-0.4-2.5-0.8-3.4-1.3c-0.9-0.5-1.7-1.1-2.2-2c-0.6-0.9-0.9-1.9-0.9-3.3c0-1.7,0.6-3.2,1.7-4.3
			c1.1-1.1,2.7-1.8,4.8-1.9v-3c0-0.9,0.3-1.3,1-1.3C182.1,347.8,182.4,348.2,182.4,349z M180.5,360.9V355c-0.9,0.3-1.5,0.6-2,1
			c-0.5,0.4-0.7,1-0.7,1.9c0,0.8,0.2,1.4,0.7,1.8C178.9,360.1,179.6,360.5,180.5,360.9z M182.4,365.4v6.7c1-0.2,1.8-0.6,2.4-1.2
			c0.6-0.6,0.8-1.3,0.8-2.2c0-0.9-0.3-1.6-0.8-2C184.3,366.1,183.5,365.7,182.4,365.4z"/>
	</g>
	<polygon class="st1" points="195.7,411.8 202,405.4 206.2,409.6 206.2,429 195.7,429 	"/>
	<polygon class="st1" points="181.4,424.1 191.9,414.3 191.9,429 181.4,429 	"/>
	<polygon class="st1" points="209.6,411.2 220.9,400.9 220.9,429 209.6,429 	"/>
	<polygon class="st1" points="224.1,397.7 235,387.5 235,429 224.1,429 	"/>
	<path class="st10" d="M232.2,379.6c-1.5,0-2.7,1.2-2.7,2.7c0,0.7,0.3,1.3,0.7,1.7l-19,18.3c-0.5-0.6-1.2-1-2-1
		c-0.6,0-1.2,0.2-1.7,0.6l-2.9-2.9c0.3-0.4,0.5-1,0.5-1.6c0-1.5-1.2-2.7-2.7-2.7c-1.5,0-2.7,1.2-2.7,2.7c0,0.6,0.2,1.2,0.5,1.6
		l-19.4,17.6c-0.4-0.3-0.9-0.5-1.5-0.5c-1.5,0-2.7,1.2-2.7,2.7c0,1.5,1.2,2.7,2.7,2.7c1.5,0,2.7-1.2,2.7-2.7c0-0.6-0.2-1.2-0.6-1.6
		l19.4-17.5c0.4,0.3,1,0.5,1.6,0.5c0.6,0,1.1-0.2,1.6-0.5l2.9,2.9c-0.3,0.4-0.5,0.9-0.5,1.5c0,1.5,1.2,2.7,2.7,2.7
		c1.5,0,2.7-1.2,2.7-2.7c0-0.4-0.1-0.7-0.2-1l19.1-18.5c0.4,0.3,0.9,0.4,1.4,0.4c1.5,0,2.7-1.2,2.7-2.7
		C234.9,380.8,233.7,379.6,232.2,379.6z"/>
	<path class="st2" d="M245.7,433.8l-19.2-15.5c1.8-2.5,2.9-5.6,2.9-8.9c0-8.5-6.9-15.4-15.4-15.4c-8.5,0-15.4,6.9-15.4,15.4
		c0,8.5,6.9,15.4,15.4,15.4c3.5,0,6.7-1.2,9.3-3.2l17,18.1c1.3,1.4,3.8,1.2,5.3-0.5C247.2,437.4,247.2,435,245.7,433.8z
		 M213.9,421.1c-6.5,0-11.8-5.3-11.8-11.8c0-6.5,5.3-11.8,11.8-11.8c6.5,0,11.8,5.3,11.8,11.8C225.7,415.8,220.4,421.1,213.9,421.1z
		"/>
	<path d="M168.6,417h-5.7v-76.5h34c0.8,0,1.5,0.3,2.1,0.7l16.6,12.8c0.9,0.7,1.4,1.8,1.4,2.9v25.3h-0.6V357c0-0.9-0.4-1.8-1.2-2.4
		l-16.6-12.8c-0.5-0.4-1.1-0.6-1.8-0.6h-33.4v75.2h5V417z"/>
	<rect x="173.7" y="384.9" width="33.5" height="0.6"/>
	<rect x="173.7" y="397.2" width="20.9" height="0.6"/>
</g>
<g>
	<path class="st2" d="M91.2,100.8c-24.2,0-43.8,7.7-43.8,17.3v25.4c0,9.6,19.6,17.3,43.8,17.3c24.2,0,43.8-7.7,43.8-17.3v-25.4
		C135,108.6,115.3,100.8,91.2,100.8z M91.2,137.3c-19.3,0-35-6.2-35-13.8c0-7.7,15.7-13.8,35-13.8c19.3,0,35,6.2,35,13.8
		C126.2,131.1,110.5,137.3,91.2,137.3z"/>
</g>
<g>
	<path d="M128.2,213.1c-4,0-7.3-3.3-7.3-7.3c0-4,3.3-7.3,7.3-7.3c4,0,7.3,3.3,7.3,7.3C135.5,209.8,132.2,213.1,128.2,213.1z
		 M128.2,199.1c-3.7,0-6.7,3-6.7,6.7c0,3.7,3,6.7,6.7,6.7c3.7,0,6.7-3,6.7-6.7C134.9,202.1,131.9,199.1,128.2,199.1z"/>
</g>
<g>
	<g>
		<path d="M128.2,230.6c-13.7,0-24.8-11.1-24.8-24.8c0-13.7,11.1-24.8,24.8-24.8c13.7,0,24.8,11.1,24.8,24.8
			C153,219.5,141.9,230.6,128.2,230.6z M128.2,181.6c-13.4,0-24.2,10.9-24.2,24.2c0,13.4,10.9,24.2,24.2,24.2
			c13.4,0,24.2-10.9,24.2-24.2C152.4,192.4,141.5,181.6,128.2,181.6z M130.3,221.6c-0.4,0-0.8-0.3-0.9-0.7l-1-2.6
			c-0.1-0.2-0.7-0.5-0.9-0.5c-0.1,0-0.4,0.2-0.5,0.4l-1.2,2.5c-0.1,0.2-0.3,0.4-0.6,0.5c-0.3,0.1-0.5,0.1-0.8,0l-5.7-2.6
			c-0.2-0.1-0.4-0.3-0.5-0.6c-0.1-0.2-0.1-0.5,0-0.7l1.2-2.5c0.1-0.2-0.2-0.8-0.3-1c-0.1-0.1-0.4-0.2-0.6,0l-2.6,1
			c-0.5,0.2-1.1-0.1-1.3-0.6l-2.2-5.9c-0.2-0.5,0.1-1.1,0.6-1.3l2.6-1c0.2-0.1,0.5-0.7,0.5-1c0-0.1-0.2-0.4-0.4-0.5l-2.5-1.2
			c-0.2-0.1-0.4-0.3-0.5-0.6c-0.1-0.3-0.1-0.5,0-0.8l2.6-5.7c0.1-0.2,0.3-0.4,0.6-0.5c0.2-0.1,0.5-0.1,0.8,0l2.5,1.2
			c0.2,0.1,0.8-0.2,1-0.3c0.1-0.1,0.1-0.4,0-0.6l-1-2.6c-0.2-0.5,0.1-1.1,0.6-1.3l5.9-2.2c0.5-0.2,1.1,0.1,1.3,0.6l1,2.6
			c0.1,0.2,0.7,0.5,1,0.5c0.1,0,0.4-0.1,0.5-0.4l1.2-2.5c0.1-0.2,0.3-0.4,0.6-0.5c0.3-0.1,0.5-0.1,0.8,0l5.7,2.6
			c0.5,0.2,0.7,0.8,0.5,1.3l-1.2,2.5c-0.1,0.2,0.2,0.8,0.3,1c0.1,0.1,0.4,0.2,0.6,0l2.6-1c0.5-0.2,1.1,0.1,1.3,0.6l2.2,5.9
			c0.2,0.5-0.1,1.1-0.6,1.3l0,0l-2.6,1c-0.3,0.1-0.5,0.3-0.5,0.4c0,0.3,0.2,0.9,0.4,1l2.5,1.2c0.2,0.1,0.4,0.3,0.5,0.6
			c0.1,0.2,0.1,0.5,0,0.8l-2.6,5.7c-0.2,0.5-0.8,0.7-1.3,0.5l-2.5-1.2c-0.2-0.1-0.8,0.2-1,0.3c-0.1,0.1-0.1,0.3,0,0.6l1,2.6
			c0.2,0.5-0.1,1.1-0.6,1.3l-5.9,2.2C130.6,221.6,130.4,221.6,130.3,221.6z M127.5,217.3C127.5,217.3,127.5,217.3,127.5,217.3
			c0.3,0,1.3,0.3,1.5,0.9l1,2.6c0.1,0.2,0.3,0.3,0.5,0.2l5.9-2.2c0.2-0.1,0.3-0.3,0.2-0.5l-1-2.6c-0.2-0.5-0.1-1,0.2-1.3
			c0.2-0.2,1.1-0.7,1.7-0.4l2.5,1.2c0.2,0.1,0.4,0,0.5-0.2l2.6-5.7c0-0.1,0-0.2,0-0.3c0-0.1-0.1-0.2-0.2-0.2l-2.5-1.2
			c-0.5-0.2-0.8-1.3-0.8-1.5c0-0.4,0.4-0.8,0.8-1l2.6-1c0.2-0.1,0.3-0.3,0.2-0.5l-2.2-5.9c-0.1-0.2-0.3-0.3-0.5-0.2l-2.6,1
			c-0.5,0.2-1.1,0.1-1.3-0.2c-0.2-0.2-0.7-1.1-0.4-1.7l1.2-2.5c0.1-0.2,0-0.4-0.2-0.5l-5.7-2.6c-0.1,0-0.2,0-0.3,0
			c-0.1,0-0.2,0.1-0.2,0.2l-1.2,2.5c-0.2,0.4-0.6,0.8-1.1,0.8c-0.3,0-1.3-0.3-1.5-0.9l-1-2.6c-0.1-0.2-0.3-0.3-0.5-0.2l-5.9,2.2
			c-0.2,0.1-0.3,0.3-0.2,0.5l1,2.6c0.2,0.5,0.1,1-0.2,1.3c-0.2,0.2-1.1,0.7-1.7,0.4l-2.5-1.2c-0.1,0-0.2,0-0.3,0
			c-0.1,0-0.2,0.1-0.2,0.2l-2.6,5.7c0,0.1-0.1,0.2,0,0.3c0,0.1,0.1,0.2,0.2,0.2l2.5,1.2c0.5,0.2,0.8,0.7,0.8,1.1
			c0,0.3-0.3,1.3-0.9,1.5l-2.6,1c-0.2,0.1-0.3,0.3-0.2,0.5l2.2,5.9c0.1,0.2,0.3,0.3,0.5,0.2l2.6-1c0.5-0.2,1.1-0.1,1.3,0.2
			c0.2,0.2,0.7,1.1,0.4,1.6l-1.2,2.5c0,0.1,0,0.2,0,0.3c0,0.1,0.1,0.2,0.2,0.2l5.7,2.6c0.1,0.1,0.2,0.1,0.3,0c0.1,0,0.2-0.1,0.2-0.2
			l1.2-2.5C126.6,217.6,127,217.3,127.5,217.3z"/>
	</g>
</g>
<g>
	<path class="st1" d="M99.5,206c0-0.8,0-1.5,0.1-2.3c-20.1,1.4-36.3-3.5-36.3-3.5c-8.9-2.9-14.9-7.2-15.8-12.1
		c-0.1,0.4-0.1,0.8-0.1,1.2v25.4c0,9.6,19.6,17.3,43.8,17.3c7.6,0,14.7-0.8,20.9-2.1C104.5,224.6,99.5,215.9,99.5,206z"/>
</g>
<g>
	<path class="st0" d="M128.6,176.9c2.2,0,4.3,0.3,6.4,0.7v-24.1c0-0.4-0.1-0.8-0.1-1.2c-1.6,9-20.5,16.1-43.6,16.1
		c-23.1,0-42-7.1-43.7-16.1c-0.1,0.4-0.1,0.8-0.1,1.2v25.4c0,5.5,6.3,10.3,16.3,13.5c0,0,16.4,5.2,37.8,3.1
		C105.7,184.6,116.2,176.9,128.6,176.9z"/>
</g>
</svg>
