<?xml version="1.0" encoding="utf-8"?>
<!-- Generator: Adobe Illustrator 22.0.1, SVG Export Plug-In . SVG Version: 6.00 Build 0)  -->
<svg version="1.1" id="Layer_1" xmlns="http://www.w3.org/2000/svg" xmlns:xlink="http://www.w3.org/1999/xlink" x="0px" y="0px"
	 viewBox="0 0 400 400" style="enable-background:new 0 0 400 400;" xml:space="preserve">
<style type="text/css">
	.st0{fill:#40875E;}
	.st1{fill:#A8A240;}
	.st2{fill:#F0AB00;}
	.st3{fill:#A8A240;stroke:#A8A240;stroke-miterlimit:10;}
	.st4{fill:none;stroke:#000000;stroke-width:2;stroke-miterlimit:10;}
	.st5{fill:none;stroke:#F0AB00;stroke-width:2;stroke-miterlimit:10;}
	.st6{fill:none;stroke:#40875E;stroke-width:5;stroke-miterlimit:10;}
	.st7{fill-rule:evenodd;clip-rule:evenodd;fill:#A8A240;}
	.st8{fill-rule:evenodd;clip-rule:evenodd;fill:#F0AB00;}
	.st9{fill-rule:evenodd;clip-rule:evenodd;fill:#40875E;}
</style>
<g>
	<g>
		<g>
			<path class="st0" d="M311,109.6c-24-29.7-58.2-48.3-96.2-52.2C136.4,49.3,66,106.6,57.9,185.2c-4,38.1,7.1,75.4,31.2,105.1
				c24,29.7,58.2,48.3,96.2,52.2c5,0.5,10,0.8,15,0.8c33,0,64.1-11.1,89.8-32.1c29.3-23.9,47.8-57.7,52-95.3l0,0l0.1-1.1
				c0,0,0,0,0,0l0.1-1.1l0,0C345.9,175.9,334.8,139.1,311,109.6z M337.2,214.3c-3.8,36.8-21.7,69.8-50.3,93.1
				c-28.6,23.3-64.6,34-101.2,30.2c-36.6-3.8-69.6-21.7-92.8-50.4C69.7,258.5,59,222.5,62.8,185.7C70.2,115,129.1,61.6,200,61.6
				c4.8,0,9.6,0.3,14.3,0.7c36.6,3.8,69.6,21.7,92.8,50.4C330.3,141.5,341,177.5,337.2,214.3z"/>
			<path class="st0" d="M379.1,192.7c-8.3-3-14.2-10.1-15.6-18.9c-1.4-8.8,1.9-17.4,8.9-22.9l15.9-12.5l-0.6-1.7
				c-4-12.1-9.3-23.8-15.6-34.9l-0.9-1.5l-19.8,3.5c-8.7,1.5-17.3-1.6-22.9-8.5c-5.6-6.9-7-16-3.7-24.3l7.5-18.7l-1.3-1.2
				c-9.5-8.5-19.9-16.1-30.8-22.5l-1.5-0.9l-15.5,13c-6.8,5.7-15.8,7.3-24.1,4.1c-8.3-3.2-14-10.3-15.3-19.2l-2.8-20l-1.7-0.3
				c-6.2-1.3-12.6-2.2-18.9-2.9c-6.3-0.7-12.7-1-19.1-1.1l-1.8,0l-6.9,18.9c-3,8.4-10.1,14.2-18.9,15.6c-8.8,1.4-17.3-2-22.7-9
				l-12.5-15.9l-1.7,0.6c-12,4.1-23.8,9.3-34.8,15.7l-1.5,0.9l3.5,19.9c1.5,8.8-1.7,17.4-8.6,23c-6.9,5.6-15.9,7-24.1,3.6l-18.7-7.5
				l-1.2,1.3c-8.5,9.6-16,20-22.4,31l-0.9,1.5l13,15.5c5.7,6.8,7.2,15.9,4,24.2c-3.2,8.3-10.3,14-19.1,15.3l-19.9,2.9L6,160.6
				c-1.3,6.3-2.2,12.7-2.9,18.9c-0.7,6.3-1,12.7-1.1,19.1l0,1.8l18.9,6.9c8.3,3,14.2,10.1,15.6,18.9c1.4,8.8-1.9,17.4-8.9,22.9
				l-15.9,12.5l0.6,1.7c4,12.1,9.3,23.8,15.6,34.9l0.9,1.5l19.8-3.5c8.7-1.5,17.3,1.6,22.9,8.5c5.6,6.9,7,16,3.7,24.3l-7.5,18.7
				l1.3,1.2c9.5,8.5,19.9,16,30.8,22.5l1.5,0.9l15.5-13c6.8-5.7,15.8-7.3,24.1-4.1c8.3,3.2,14,10.3,15.3,19.2l2.8,20l1.7,0.3
				c6.2,1.3,12.6,2.2,18.9,2.9c6.3,0.7,12.7,1,19.1,1.1l1.8,0l6.9-18.9c3-8.4,10.1-14.2,18.9-15.6c8.8-1.4,17.3,1.9,22.7,9
				l12.5,15.9l1.7-0.6c12-4.1,23.7-9.3,34.8-15.7l1.5-0.9l-3.5-19.9c-1.5-8.8,1.7-17.4,8.6-23c6.9-5.6,15.9-7,24.1-3.6l18.7,7.5
				l1.2-1.3c8.5-9.6,16-20,22.4-31l0.9-1.5l-13-15.5c-5.7-6.8-7.2-15.9-4-24.2c3.2-8.3,10.3-14,19.1-15.3l19.9-2.9l0.3-1.7
				c1.3-6.3,2.2-12.7,2.9-18.9c0.7-6.3,1-12.7,1.1-19.1l0-1.8L379.1,192.7z M354.9,286.7l10.7,12.8c-5.8,9.6-12.4,18.8-19.8,27.4
				l-15.4-6.2c-9.9-4-20.8-2.4-29.1,4.4c-8.4,6.8-12.2,17.1-10.4,27.8l2.9,16.4c-9.8,5.5-20.2,10.2-30.8,13.8l-10.3-13.1
				c-6.6-8.4-16.9-12.5-27.4-10.8c-10.6,1.7-19.1,8.7-22.8,18.8l-5.7,15.6c-5.6-0.1-11.3-0.4-16.8-1c-5.6-0.6-11.2-1.4-16.7-2.5
				l-2.3-16.5c-1.5-10.7-8.4-19.3-18.4-23.1c-10-3.8-20.9-2-29.1,4.9l-12.8,10.8c-9.6-5.8-18.8-12.5-27.3-19.9l6.2-15.5
				c4-10,2.3-21-4.4-29.3c-6.8-8.3-17.1-12.1-27.6-10.3l-16.4,2.9c-5.5-9.8-10.1-20.2-13.8-30.8L30.6,253c8.4-6.6,12.5-17,10.8-27.6
				c-1.7-10.6-8.7-19.1-18.8-22.8L7,197c0.1-5.7,0.4-11.4,1-16.9c0.6-5.5,1.4-11.2,2.5-16.8l16.4-2.4c10.6-1.5,19.2-8.4,23.1-18.4
				c3.8-10,2-21-4.9-29.2l-10.7-12.8c5.8-9.7,12.4-18.8,19.8-27.4l15.4,6.2c9.9,4,20.8,2.4,29.1-4.4c8.4-6.8,12.2-17.1,10.4-27.8
				l-2.9-16.4c9.8-5.5,20.2-10.2,30.8-13.8l10.3,13.1c6.6,8.4,16.9,12.5,27.4,10.8c10.6-1.7,19.1-8.7,22.8-18.8l5.7-15.6
				c5.6,0.1,11.3,0.4,16.8,1c5.6,0.6,11.2,1.4,16.7,2.5l2.3,16.5c1.5,10.7,8.4,19.3,18.4,23.1c10,3.8,20.9,2,29.1-4.9l12.8-10.8
				c9.6,5.8,18.8,12.5,27.3,19.9l-6.2,15.5c-4,10-2.3,21,4.4,29.3c6.8,8.3,17.1,12.2,27.6,10.3l16.4-2.9
				c5.5,9.9,10.1,20.2,13.8,30.8L369.4,147c-8.4,6.6-12.5,17-10.8,27.6c1.7,10.6,8.7,19.1,18.8,22.8L393,203
				c-0.1,5.6-0.4,11.3-1,16.9c-0.6,5.5-1.4,11.2-2.5,16.8l-16.4,2.4c-10.6,1.5-19.2,8.4-23,18.4C346.2,267.5,348,278.4,354.9,286.7z
				"/>
		</g>
	</g>
	<g>
		<path class="st7" d="M211.8,153.4c-11.4,0.5-27.8-0.2-35.3,5.1c-4.4,3.1-9.4,12.7-12.3,17c-4.2,6.1-9.8,11.1-8.9,19.6
			c13.6,1.7,21.6-5.8,27.2-12.8c3.8-4.6,4.1-5.3,10.2-7.2c7.4-2.4,10.5-0.3,17.4,3.4c25.5,13.5,47.5,30.6,68.9,46.3
			c6.3-3.7,11.4-8.4,15.7-14c-10.8-17.4-19.8-36.6-31-53.6C248,161.9,230.2,152.6,211.8,153.4z"/>
		<path class="st8" d="M139.5,157.6c-10.4,18.4-20.9,36.7-31,55.3c3.4,3.5,6.5,7.4,9.4,11.5c6.8-7.8,21.4-3.2,23.4,6
			c5-13.2,29-8.5,25.9,8.9c9.2,1.2,14.7,6.3,14.5,17c13.1-0.7,18.9,15.6,11.1,24.7c10.7,3.9,30.6,8.8,35.7-3.4
			c-4.6-1.8-8.2-3.9-13.2-6.4c-2.1-1.1-13.2-3.9-11.9-8.1c1.3-4.1,11.7,2.1,14.5,3.4c8.5,4.1,13.9,9.2,23.8,6.8c2.4-2.2,4-5,4.3-9.4
			c-5.5-3-10-6.2-16.2-9.8c-2-1.2-16.3-7.2-15.7-10.6c0.7-4.1,5.9-0.9,8.9,0.8c3.5,2.1,6.5,3.7,8.9,5.1c5.2,3,13.4,9.4,17.9,10.2
			c9.1,1.6,12.7-3.3,12.3-11.5c-9.5-5.7-20.3-12.6-29.8-18.3c-2.8-1.7-9.2-3-7.2-8.1c4.2-1.3,7.6,2.6,11.1,4.7c3.3,2,7.1,3.8,10.6,6
			c7,4.2,14.2,10.5,20.8,12.3c7.2,2,12.4-2.6,11.5-10.6c-10.5-12.1-24.5-21-37.8-30.2c-13.4-9.2-27.5-18.1-42.9-25.1
			c-2.8,0.9-5.4,2-8.5,2.5c-6.5,8.7-17.8,21.8-33.2,19.6c-17-2.5,1.6-26.3,4.7-30.6c1.2-1.7,3-3.6,2.6-5.1
			C154,164.3,145.5,162.2,139.5,157.6z"/>
		<path class="st7" d="M136.5,234.6c0-5.7-4.8-10-10.6-8.9c-3.7,0.7-9.7,9.4-9.8,13.2c-0.1,4.5,3.2,9.7,11.5,8.9
			C130.5,243.5,136.5,240.6,136.5,234.6z"/>
		<path class="st7" d="M139.5,241.8c-3.5,4.7-8.8,9.9-8.9,14c-0.1,4.5,4.2,9.8,9.8,9.4c4.9-0.4,8.8-8.8,12.3-13.6
			c4.1-5.6,9.3-10.2,9.4-14.9c0.1-4.7-3.8-10.2-11.5-8.5C146.5,231,143.7,236,139.5,241.8z"/>
		<path class="st7" d="M156.1,256.3c-2.9,4-7,8.1-7.2,11.5c-0.4,5.6,4.5,10.4,9.8,9.8c4.1-0.5,6.9-6.7,9.8-10.6
			c2.9-3.9,7.8-7.9,8.1-12.3c0.4-6.8-6.3-10.8-11.1-9.4C161.6,246.4,159.3,251.7,156.1,256.3z"/>
		<path class="st7" d="M168,278.4c-0.5,5.6,4.6,10.9,10.6,9.8c3.2-0.6,11.8-12.5,12.3-15.3c1.5-8.1-5.5-12.1-10.6-10.6
			C177.3,263.1,168.3,275,168,278.4z"/>
		<path class="st9" d="M139.5,146.1c-13,24-26.4,47.6-40,71c-6.7-3.6-13.3-7.4-19.1-11.9c12.7-24.3,26-48,40-71
			C127.1,137.9,133.7,141.5,139.5,146.1z M95.3,194.7c-3.1,0-5.5,2.5-5.5,5.5c0,3.1,2.5,5.5,5.5,5.5c3,0,5.5-2.5,5.5-5.5
			C100.8,197.1,98.3,194.7,95.3,194.7z"/>
		<path class="st9" d="M323.6,204.8c-5.3,5.2-12.5,8.5-19.1,12.3c-13.6-23.2-26.7-47-40-70.6c5.1-5.3,12.5-8.2,18.7-12.3
			c0.3,0,0.6,0,0.8,0C297.3,157.7,310.8,180.9,323.6,204.8z M279.8,144.1c-3.1,0-5.5,2.5-5.5,5.5c0,3.1,2.5,5.5,5.5,5.5
			c3,0,5.5-2.5,5.5-5.5C285.3,146.5,282.9,144.1,279.8,144.1z"/>
	</g>
</g>
</svg>
