<?xml version="1.0" encoding="utf-8"?>
<!-- Generator: Adobe Illustrator 22.0.1, SVG Export Plug-In . SVG Version: 6.00 Build 0)  -->
<svg version="1.1" id="Layer_1" xmlns="http://www.w3.org/2000/svg" xmlns:xlink="http://www.w3.org/1999/xlink" x="0px" y="0px"
	 viewBox="0 0 100 100" style="enable-background:new 0 0 100 100;" xml:space="preserve">
<style type="text/css">
	.st0{fill:#F0AB00;}
	.st1{fill:#558ED5;}
	.st2{fill:#05225F;}
	.st3{fill:#0B4A99;}
	.st4{fill:#CD1618;}
	.st5{fill:#2665AA;}
	.st6{fill:#3779BF;}
	.st7{fill:#002060;}
	.st8{fill:none;stroke:#000000;stroke-width:1.5;stroke-miterlimit:10;}
	.st9{fill:#40875E;}
	.st10{fill:#A8A240;}
	.st11{fill:none;stroke:#000102;stroke-width:1.5;stroke-miterlimit:10;}
	.st12{fill:none;stroke:#0B4A99;stroke-miterlimit:10;}
	.st13{fill:#0071C5;}
	.st14{fill:#26774B;}
	.st15{fill:#B91218;}
	.st16{fill:#BFBFBF;}
	.st17{fill:#A70000;}
	.st18{fill-rule:evenodd;clip-rule:evenodd;fill:#0B4A99;}
	.st19{fill-rule:evenodd;clip-rule:evenodd;fill:#002060;}
	.st20{fill-rule:evenodd;clip-rule:evenodd;fill:#40875E;}
	.st21{fill-rule:evenodd;clip-rule:evenodd;fill:#A8A240;}
	.st22{fill:#5E6D61;}
	.st23{opacity:0.65;fill:#558ED5;}
	.st24{opacity:0.55;fill:#CD1618;}
	.st25{opacity:0.65;fill:#002060;}
	.st26{opacity:0.65;}
	.st27{opacity:0.65;fill:#26774B;}
	.st28{opacity:0.23;fill:#26774B;}
	.st29{opacity:0.98;fill:#558ED5;}
	.st30{opacity:0.9;fill:#558ED5;}
	.st31{opacity:0.65;fill:#CD1618;}
	.st32{opacity:0.65;fill:#0B4A99;}
	.st33{opacity:0.65;fill:#F0AB00;}
	.st34{fill:#F0AB00;stroke:#000000;stroke-width:0.5;stroke-miterlimit:10;}
	.st35{fill:#26774B;stroke:#000000;stroke-width:0.5;stroke-miterlimit:10;}
	.st36{fill:#A8A240;stroke:#000000;stroke-width:0.5;stroke-miterlimit:10;}
	.st37{fill:#000102;}
	.st38{fill:#6D6E71;}
	.st39{fill:none;stroke:#07357A;stroke-width:0.8489;stroke-linejoin:round;stroke-miterlimit:10;}
	.st40{fill:#939598;}
	.st41{fill:#C2C3C9;}
	.st42{fill:#FFFFFF;}
	.st43{fill:none;stroke:#000000;stroke-width:2;stroke-miterlimit:10;}
	.st44{fill:none;stroke:#F0AB00;stroke-width:2;stroke-miterlimit:10;}
	.st45{fill:none;stroke:#40875E;stroke-width:3;stroke-miterlimit:10;}
</style>
<g>
	<rect x="27.5" y="45.9" class="st0" width="15.7" height="42.3"/>
	<rect x="58.5" y="37.3" class="st10" width="15.7" height="50.8"/>
	<polyline class="st45" points="11.1,69 11.1,38.3 27.1,38.3 27.1,60.3 	"/>
	<line class="st45" x1="27.5" y1="45.9" x2="43" y2="45.9"/>
	<polyline class="st45" points="43,67.8 43,30 59,30 59,59.5 	"/>
	<polyline class="st45" points="74.1,53.9 74.1,10.8 90.5,10.8 90.5,45.1 	"/>
	<line class="st45" x1="59.4" y1="37.5" x2="73.3" y2="37.5"/>
	<polyline class="st45" points="11.5,81 11.5,89 98.8,89 	"/>
	<line class="st45" x1="27.1" y1="73" x2="27.1" y2="88.6"/>
	<line class="st45" x1="43.2" y1="79.8" x2="43.2" y2="88.2"/>
	<line class="st45" x1="58.6" y1="74.6" x2="58.6" y2="89.2"/>
	<line class="st45" x1="74.9" y1="65.6" x2="74.9" y2="88.4"/>
	<line class="st45" x1="90.5" y1="56.3" x2="90.5" y2="88.8"/>
	<polyline class="st43" points="1.2,75.6 15.3,75.6 22.3,67 32.1,67 38,74 51.4,74 66.1,59.9 79.7,59.9 85.3,51.1 97.2,51.1 	"/>
</g>
</svg>
