<?xml version="1.0" encoding="utf-8"?>
<!-- Generator: Adobe Illustrator 22.0.1, SVG Export Plug-In . SVG Version: 6.00 Build 0)  -->
<svg version="1.1" id="Layer_1" xmlns="http://www.w3.org/2000/svg" xmlns:xlink="http://www.w3.org/1999/xlink" x="0px" y="0px"
	 viewBox="0 0 100 100" style="enable-background:new 0 0 100 100;" xml:space="preserve">
<style type="text/css">
	.st0{fill:none;stroke:#000102;stroke-width:1.5;stroke-miterlimit:10;}
	.st1{fill:#F0AB00;}
	.st2{fill:#558ED5;}
	.st3{fill:#05225F;}
	.st4{fill:#0B4A99;}
	.st5{fill:#CD1618;}
	.st6{fill:#2665AA;}
	.st7{fill:#3779BF;}
	.st8{fill:#002060;}
	.st9{fill:none;stroke:#000000;stroke-width:1.5;stroke-miterlimit:10;}
	.st10{fill:#40875E;}
	.st11{fill:#A8A240;}
	.st12{fill:#000102;}
	.st13{fill:none;stroke:#0B4A99;stroke-miterlimit:10;}
	.st14{fill:#0071C5;}
	.st15{fill:#26774B;}
	.st16{fill:#B91218;}
	.st17{fill:#BFBFBF;}
	.st18{fill:#A70000;}
	.st19{fill-rule:evenodd;clip-rule:evenodd;fill:#0B4A99;}
	.st20{fill-rule:evenodd;clip-rule:evenodd;fill:#002060;}
	.st21{fill-rule:evenodd;clip-rule:evenodd;fill:#40875E;}
	.st22{fill-rule:evenodd;clip-rule:evenodd;fill:#A8A240;}
	.st23{fill:#5E6D61;}
	.st24{opacity:0.65;fill:#558ED5;}
	.st25{opacity:0.55;fill:#CD1618;}
	.st26{opacity:0.65;fill:#002060;}
	.st27{opacity:0.65;}
	.st28{opacity:0.65;fill:#26774B;}
	.st29{opacity:0.23;fill:#26774B;}
	.st30{opacity:0.98;fill:#558ED5;}
	.st31{opacity:0.9;fill:#558ED5;}
	.st32{opacity:0.65;fill:#CD1618;}
	.st33{opacity:0.65;fill:#0B4A99;}
	.st34{opacity:0.65;fill:#F0AB00;}
	.st35{fill:#F0AB00;stroke:#000000;stroke-width:0.5;stroke-miterlimit:10;}
	.st36{fill:#26774B;stroke:#000000;stroke-width:0.5;stroke-miterlimit:10;}
	.st37{fill:#A8A240;stroke:#000000;stroke-width:0.5;stroke-miterlimit:10;}
</style>
<g>
	<g>
		<path d="M77.2,45.9l-1.3-0.7c8.4-16.1,4.3-31,4.1-31.7l-0.2-0.8l-0.8,0c-0.7,0-15.7,0.2-26.8-10.2L51.5,2l-0.7,0.6
			c-12,10.2-25.4,10.3-26.8,10.2l-0.9,0l-0.2,0.8c0,0-1.1,4.9-1.1,12.2c0,7.5,1.2,13.6,3.9,19l-1.4,0.7c-2.8-5.7-4-12-4-19.7
			c0-7.4,1.1-12.3,1.1-12.5l0.5-2l2.1,0.1c0.6,0,14.1,0.1,25.8-9.9L51.5,0l1.6,1.5c10.7,10,25.2,9.8,25.8,9.8l2-0.1l0.5,1.9
			C81.6,13.8,85.8,29.3,77.2,45.9z"/>
	</g>
</g>
<path class="st19" d="M19.8,43.3C16.6,50.2,13.4,57,10,64c-0.6,1.2-1.6,2.8-1.5,3.6c0.2,1.5,2.2,1.9,3.5,2.6
	c1.3,0.6,2.7,1.9,4.2,1.6c0.8-0.2,1.5-1.9,2.1-3c3.4-7.3,6.6-13.8,9.9-20.7c0.6-1.3,1.5-2.8,1.5-3.7c-0.1-1.4-2-1.8-3.2-2.5
	c-1.6-0.8-3-2-4.5-1.6C21,40.5,20.3,42.3,19.8,43.3z M70.3,44.1c-0.1,1.2,1,2.7,1.5,3.6c3.4,6.8,6.8,14.1,9.9,20.8
	c0.5,1,1.1,3,2.1,3.1c1.5,0.3,3-1,4.3-1.6c1.2-0.5,3.3-1.2,3.4-2.5c0.1-1-1-2.5-1.5-3.5c-3.4-7.2-6.4-13.4-9.8-20.7
	c-0.7-1.4-1.3-4-3.3-3.2C75.5,41.2,70.5,42.2,70.3,44.1z M51.2,46c-2.5,0.2-4.6,0.9-6.4,1.7c-0.6,0.3-1.2,0.8-1.8,0.9
	c-1.7,0.3-3.6,0-5.3,0c-1.8,0-3.5,0-5.3,0c-0.6,1.3-1.3,2.4-1.8,3.7c2.1,0.1,4.4-0.1,6.4,0.1c-0.4,1.4-1.5,2.1-1.9,3.4
	c-0.4,1.5-0.3,3.6-0.6,5.3c-0.3,1.7-1.5,3.2-1.4,4.6c0.2,1.8,2,2.6,4,2.6c4.5,0,7.2-3.4,8.1-6.6c0.2-0.6,0.1-1.4,0.4-2.1
	c0.7-1.7,4.1-3.4,6.9-1.9c0.9,0.5,1.8,1.8,2.8,2.8c6.1,5.4,12,10.5,18.1,15.8c1,0.9,2.5,2,2.8,2.9c0.9,2.4-1.3,4.6-3.9,3.9
	c-0.7-0.2-1.5-0.9-2.3-1.5c-3.6-2.6-7.2-5.3-10.9-7.9c-0.7-0.5-5.2-4.2-5.5-1.3c-0.2,1.5,2.3,2.7,3.7,3.7c3.3,2.4,5.5,4.1,8.7,6.4
	c1.3,1,3.8,2,4.1,3.4c0.4,2.2-1.4,3-1.8,3c-1.9,0.3-3.5-1.5-4.9-2.5c-2.7-2-4.8-3.6-7.5-5.5c-1.4-1-4.2-3.6-5.3-1.8
	c-1,1.6,1.7,2.9,2.9,3.8c2.3,1.7,4.5,3.3,6.6,4.8c1.3,0.9,2.8,1.5,3.2,2.6c0.6,1.3-0.3,3.2-1.8,3.4c-1.7,0.3-2.9-1.2-4.1-2.1
	c-2.1-1.5-4.2-2.8-6.2-4.2c-0.9-0.7-2.4-2.1-3.2-2c-0.4,0.1-1.3,0.5-1.2,1.7c0.1,0.8,1.1,1.2,1.9,1.8c1.7,1.2,2.6,2,4.1,3.1
	c0.6,0.4,1.8,1.1,1.9,1.8c0,1-1.5,1.8-2.4,1.9c-1.2,0-2.1-0.7-2.7-1.2c1.2-3.2-2.5-5.8-5.1-4.5c1.1-4-3.2-6.9-6.5-5
	c1.3-4-2.6-7.1-6.3-5.5c2.6-4-2.4-8.6-6.2-6c-1.2-1.6-2.5-3-3.8-4.5c-0.5,1-1,2-1.5,3c1,1.3,2.2,2.5,3.1,3.9c-0.9,1.6-2.5,2.4-3.1,4
	c-1.5,4.3,3.8,7.5,7,4.9c-1.8,4.1,3.6,7.5,6.7,5.2c-1.4,4.7,5.2,7.4,7.2,3.9c-0.6,2.6,2.2,5.4,4.8,4.4c0.8-0.3,0.9-1.3,1.9-1.8
	c1.2,0.7,2.3,1.7,3.9,1.9c2.9,0.3,4.5-1.6,5.7-3.3c1.2,0.7,2.5,1.4,4.1,1.4c3,0,4.2-2.6,5.1-4.8c3.6,0.2,6.5-1.8,6.5-5.9
	c4.8,0.1,7.4-4.6,5.5-8.6c-0.3-0.7-1.2-1.3-1.2-2c0-1.3,1.6-2.7,1.7-3.8c-3.7-7.7-7.3-15.5-11.1-23.1C61.7,48.8,57.5,45.5,51.2,46z"
	/>
<path class="st21" d="M22,40.2c1.5-0.4,2.9,0.8,4.5,1.6c1.2,0.6,3.1,1,3.2,2.5c0.1,1-0.9,2.5-1.5,3.7c-3.3,7-6.5,13.4-9.9,20.7
	c-0.5,1.2-1.2,2.9-2.1,3c-1.5,0.3-2.9-0.9-4.2-1.6c-1.3-0.6-3.4-1.1-3.5-2.6C8.5,66.8,9.5,65.2,10,64c3.4-7,6.5-13.8,9.8-20.6
	C20.3,42.3,21,40.5,22,40.2z"/>
<path class="st21" d="M76.8,40.2c2-0.8,2.7,1.8,3.3,3.2c3.4,7.3,6.4,13.5,9.8,20.7c0.5,1,1.6,2.5,1.5,3.5c-0.2,1.3-2.3,1.9-3.4,2.5
	c-1.3,0.6-2.8,1.9-4.3,1.6c-0.9-0.2-1.6-2.1-2.1-3.1c-3.1-6.7-6.5-14-9.9-20.8c-0.5-0.9-1.6-2.5-1.5-3.6
	C70.5,42.2,75.5,41.2,76.8,40.2z"/>
<path class="st22" d="M68.4,48.7c3.8,7.6,7.4,15.4,11.1,23.1c-0.1,1.2-1.7,2.5-1.7,3.8c0,0.6,0.8,1.3,1.2,2c1.9,4-0.7,8.6-5.5,8.6
	c0,4.1-2.9,6.1-6.5,5.9c-0.9,2.2-2.1,4.8-5.1,4.8c-1.6,0-2.9-0.7-4.1-1.4c-1.2,1.7-2.8,3.7-5.7,3.3c-1.6-0.2-2.7-1.1-3.9-1.9
	c-0.9,0.4-1,1.4-1.9,1.8c-2.6,1-5.3-1.8-4.8-4.4c-2.1,3.4-8.6,0.7-7.2-3.9c-3,2.3-8.4-1.1-6.7-5.2c-3.3,2.6-8.6-0.6-7-4.9
	c0.6-1.6,2.3-2.5,3.1-4c-1-1.4-2.1-2.6-3.1-3.9c0.4-1.1,1-2,1.5-3c1.3,1.5,2.6,3,3.8,4.5c3.7-2.6,8.7,2,6.2,6
	c3.6-1.6,7.6,1.5,6.3,5.5c3.3-1.9,7.5,1,6.5,5c2.6-1.3,6.3,1.3,5.1,4.5c0.7,0.5,1.6,1.2,2.7,1.2c1,0,2.5-0.9,2.4-1.9
	c0-0.7-1.3-1.3-1.9-1.8c-1.6-1.2-2.4-1.9-4.1-3.1c-0.8-0.6-1.8-1-1.9-1.8c-0.1-1.1,0.7-1.6,1.2-1.7c0.8-0.1,2.3,1.3,3.2,2
	c2,1.4,4.1,2.7,6.2,4.2c1.2,0.9,2.4,2.4,4.1,2.1c1.5-0.3,2.3-2.2,1.8-3.4c-0.5-1.1-1.9-1.6-3.2-2.6c-2.1-1.5-4.2-3.1-6.6-4.8
	c-1.3-0.9-3.9-2.2-2.9-3.8c1-1.8,3.9,0.8,5.3,1.8c2.8,2,4.8,3.5,7.5,5.5c1.4,1,3,2.8,4.9,2.5c0.4-0.1,2.2-0.8,1.8-3
	c-0.3-1.4-2.8-2.5-4.1-3.4c-3.2-2.3-5.4-4-8.7-6.4c-1.4-1-3.9-2.2-3.7-3.7c0.3-2.9,4.8,0.8,5.5,1.3c3.6,2.6,7.3,5.3,10.9,7.9
	c0.8,0.6,1.6,1.3,2.3,1.5c2.6,0.7,4.9-1.5,3.9-3.9c-0.3-0.9-1.9-2-2.8-2.9C67.5,71,61.6,66,55.5,60.5c-1.1-1-1.9-2.2-2.8-2.8
	c-2.8-1.6-6.2,0.2-6.9,1.9c-0.3,0.7-0.2,1.4-0.4,2.1c-0.9,3.2-3.7,6.6-8.1,6.6c-2,0-3.8-0.7-4-2.6c-0.1-1.4,1-2.9,1.4-4.6
	c0.3-1.7,0.2-3.8,0.6-5.3c0.4-1.3,1.4-2,1.9-3.4c-1.9-0.2-4.3,0-6.4-0.1c0.5-1.4,1.2-2.5,1.8-3.7c1.8,0,3.5,0,5.3,0
	c1.7,0,3.6,0.3,5.3,0c0.6-0.1,1.2-0.6,1.8-0.9c1.8-0.8,3.9-1.5,6.4-1.7C57.5,45.5,61.7,48.8,68.4,48.7z"/>
<g>
	<path class="st1" d="M60.7,17.5c-0.6,0-1.3,0.1-2.2,0.2c-0.9,0.2-1.6,0.3-1.9,0.5c-0.4,0.2-1,0.7-1.8,1.6c-0.8,0.8-1.8,2.1-3,3.8
		c-1.2,1.7-2.2,3.4-3.1,5c-0.8,1.4-1.6,3-2.4,4.6c-0.6-0.7-1.2-1.3-1.8-1.7c-0.8-0.5-1.5-0.8-2.2-0.8c-0.7,0-1.5,0.3-2.3,0.9
		c-0.8,0.6-1.3,1.4-1.3,2.1c0,0.6,0.4,1.3,1.1,2.1c1.1,1.2,2,2.3,2.6,3.3c0.5,0.7,0.8,1.2,1,1.4c0.2,0.3,0.5,0.4,0.8,0.6
		c0.3,0.1,0.9,0.2,1.7,0.2c1.1,0,1.8-0.1,2.3-0.4c0.4-0.2,0.8-0.6,1-1c0.2-0.4,0.6-1.2,1-2.4c1.2-3,2.8-6.2,4.9-9.4
		c2-3.2,4-5.7,5.9-7.5c0.5-0.4,0.7-0.7,0.9-0.9c0.2-0.3,0.2-0.5,0.2-0.9c0-0.4-0.1-0.8-0.4-1.1C61.5,17.7,61.1,17.5,60.7,17.5z"/>
</g>
</svg>
