<?xml version="1.0" encoding="utf-8"?>
<!-- Generator: Adobe Illustrator 22.0.1, SVG Export Plug-In . SVG Version: 6.00 Build 0)  -->
<svg version="1.1" id="Layer_1" xmlns="http://www.w3.org/2000/svg" xmlns:xlink="http://www.w3.org/1999/xlink" x="0px" y="0px"
	 viewBox="0 0 100 100" style="enable-background:new 0 0 100 100;" xml:space="preserve">
<style type="text/css">
	.st0{fill:#F0AB00;}
	.st1{fill:#558ED5;}
	.st2{fill:#05225F;}
	.st3{fill:#0B4A99;}
	.st4{fill:#CD1618;}
	.st5{fill:#2665AA;}
	.st6{fill:#3779BF;}
	.st7{fill:#002060;}
	.st8{fill:none;stroke:#000000;stroke-width:1.5;stroke-miterlimit:10;}
	.st9{fill:#40875E;}
	.st10{fill:#A8A240;}
	.st11{fill:none;stroke:#000102;stroke-width:1.5;stroke-miterlimit:10;}
	.st12{fill:none;stroke:#0B4A99;stroke-miterlimit:10;}
	.st13{fill:#0071C5;}
	.st14{fill:#26774B;}
	.st15{fill:#B91218;}
	.st16{fill:#BFBFBF;}
	.st17{fill:#A70000;}
	.st18{fill-rule:evenodd;clip-rule:evenodd;fill:#0B4A99;}
	.st19{fill-rule:evenodd;clip-rule:evenodd;fill:#002060;}
	.st20{fill-rule:evenodd;clip-rule:evenodd;fill:#40875E;}
	.st21{fill-rule:evenodd;clip-rule:evenodd;fill:#A8A240;}
	.st22{fill:#5E6D61;}
	.st23{opacity:0.65;fill:#558ED5;}
	.st24{opacity:0.55;fill:#CD1618;}
	.st25{opacity:0.65;fill:#002060;}
	.st26{opacity:0.65;}
	.st27{opacity:0.65;fill:#26774B;}
	.st28{opacity:0.23;fill:#26774B;}
	.st29{opacity:0.98;fill:#558ED5;}
	.st30{opacity:0.9;fill:#558ED5;}
	.st31{opacity:0.65;fill:#CD1618;}
	.st32{opacity:0.65;fill:#0B4A99;}
	.st33{opacity:0.65;fill:#F0AB00;}
	.st34{fill:#F0AB00;stroke:#000000;stroke-width:0.5;stroke-miterlimit:10;}
	.st35{fill:#26774B;stroke:#000000;stroke-width:0.5;stroke-miterlimit:10;}
	.st36{fill:#A8A240;stroke:#000000;stroke-width:0.5;stroke-miterlimit:10;}
	.st37{fill:#000102;}
	.st38{fill:#6D6E71;}
	.st39{fill:none;stroke:#07357A;stroke-width:0.8489;stroke-linejoin:round;stroke-miterlimit:10;}
	.st40{fill:#939598;}
	.st41{fill:#C2C3C9;}
	.st42{fill:#FFFFFF;}
	.st43{fill:none;stroke:#000000;stroke-width:2;stroke-miterlimit:10;}
	.st44{fill:none;stroke:#F0AB00;stroke-width:2;stroke-miterlimit:10;}
	.st45{fill:none;stroke:#40875E;stroke-width:3;stroke-miterlimit:10;}
</style>
<circle class="st43" cx="50" cy="50" r="49.3"/>
<g>
	<path class="st9" d="M41.4,84.5c-9.3-2.2-17.4-8.3-22.3-16.6l2.6-1.5c4.4,7.6,11.8,13.2,20.4,15.2L41.4,84.5z"/>
</g>
<g>
	<path class="st9" d="M55.7,85l-0.5-3c9.4-1.6,17.6-7.3,22.4-15.5l2.6,1.5C74.9,77.1,65.9,83.3,55.7,85z"/>
</g>
<g>
	<path class="st9" d="M77.1,33.3C72.6,26.1,65.3,20.8,57,18.9l0.7-2.9c9.1,2.1,17.1,7.9,22.1,15.8L77.1,33.3z"/>
</g>
<g>
	<path class="st9" d="M22.3,33.3l-2.6-1.6c5.5-8.8,14.5-14.8,24.7-16.3l0.4,3C35.5,19.8,27.3,25.3,22.3,33.3z"/>
</g>
<path class="st9" d="M86.9,48.9C75.2,35.4,63,28.4,50.7,28.3l-0.5,0c-12.5,0-25.2,6.9-37.9,20.6l-1,1l0.9,1
	c11.8,13.7,24,20.8,36.3,21l0.5,0c12.5,0,25.2-7,37.9-20.9l1-1L86.9,48.9z M83.4,49.8c-11.9,12.7-23.6,19-35,18.8
	c-11-0.2-22-6.4-32.8-18.6c11.9-12.5,23.7-18.7,35-18.5C61.6,31.7,72.6,37.8,83.4,49.8z"/>
<path class="st44" d="M35.4,37.2c-6,8.4-5.3,17.2,0,26.2"/>
<path class="st44" d="M64.2,63.3c6-8.4,5.3-17.2,0-26.2"/>
<path class="st10" d="M59.5,50.1c0,5.1-4.1,9.2-9.2,9.2s-9.2-4.1-9.2-9.2c0-1.1-0.5-3.3,0.5-3.1c3.3,0.6,5.2-0.6,3.9-4.8
	c-0.5-1.5,3-1.3,4.7-1.3C55.4,40.9,59.5,45.1,59.5,50.1z"/>
</svg>
