<svg id="Layer_1" data-name="Layer 1" xmlns="http://www.w3.org/2000/svg" viewBox="0 0 396.72 184.74"><defs><style>.cls-1{fill:#f0ab00;}.cls-2{fill:#40875e;}.cls-3{fill:#a8a240;}.cls-4{fill:#5e6d61;}.cls-26,.cls-5,.cls-8{isolation:isolate;}.cls-5{font-size:9.7px;}.cls-5,.cls-8{font-family:Nunito-SemiBold, Nunito;font-weight:600;}.cls-6{letter-spacing:0em;}.cls-7{letter-spacing:-0.01em;}.cls-8{font-size:7px;}.cls-9{letter-spacing:-0.01em;}.cls-10{letter-spacing:0.03em;}.cls-11{letter-spacing:-0.01em;}.cls-12{letter-spacing:-0.01em;}.cls-13{letter-spacing:0em;}.cls-14{letter-spacing:-0.02em;}.cls-15{letter-spacing:-0.02em;}.cls-16{letter-spacing:0.04em;}.cls-17{letter-spacing:0em;}.cls-18{letter-spacing:0.03em;}.cls-19{letter-spacing:0em;}.cls-20{letter-spacing:-0.01em;}.cls-21{letter-spacing:-0.01em;}.cls-22{letter-spacing:0em;}.cls-23{letter-spacing:-0.01em;}.cls-24{letter-spacing:-0.01em;}.cls-25{letter-spacing:0em;}.cls-27{letter-spacing:-0.01em;}.cls-28{letter-spacing:0.04em;}</style></defs><title>Business_Partner_Registration-Icons-05</title><rect class="cls-1" x="119.72" y="18.6" width="81.6" height="33.4"/><rect class="cls-2" x="203.72" y="18.6" width="81.6" height="33.4"/><rect class="cls-2" x="288.22" y="18.6" width="81.6" height="33.4"/><rect class="cls-1" x="119.72" y="54.5" width="81.6" height="33.4"/><rect class="cls-1" x="203.72" y="54.5" width="81.6" height="33.4"/><rect class="cls-2" x="288.22" y="54.5" width="81.6" height="33.4"/><rect class="cls-3" x="119.72" y="90.4" width="81.6" height="33.4"/><rect class="cls-3" x="203.72" y="90.4" width="81.6" height="33.4"/><rect class="cls-3" x="288.22" y="90.4" width="81.6" height="33.4"/><rect class="cls-1" x="119.72" width="10.4" height="10.5"/><rect class="cls-3" x="193.32" width="10.4" height="10.5"/><rect class="cls-2" x="286.52" width="10.4" height="10.5"/><polygon class="cls-4" points="71.12 39.4 91.42 18.6 111.02 38.3 102.52 38.3 102.52 121.9 79.32 121.9 79.32 39.7 71.12 39.4"/><polygon class="cls-4" points="119.72 139.8 350.02 139.8 350.02 130.7 369.62 150.4 349.72 170.4 349.72 162.7 119.72 162.7 119.72 139.8"/><text class="cls-5" transform="translate(80.55 10.5)">High</text><text class="cls-5" transform="translate(375.72 154.07)">High</text><text class="cls-5" transform="translate(81.59 155.27)"><tspan class="cls-6">L</tspan><tspan class="cls-7" x="5.28" y="0">o</tspan><tspan x="10.69" y="0">w</tspan></text><text class="cls-8" transform="translate(136.06 7.65)">O<tspan class="cls-9" x="5.4" y="0">r</tspan><tspan x="7.89" y="0">dina</tspan><tspan class="cls-10" x="21.5" y="0">r</tspan><tspan x="24.27" y="0">y (99%)</tspan></text><text class="cls-8" transform="translate(209.7 7.65)"><tspan class="cls-9">Pr</tspan><tspan x="6.99" y="0">oblem clu</tspan><tspan class="cls-11" x="37.41" y="0">s</tspan><tspan x="40.75" y="0">ter (&lt;1%)</tspan></text><text class="cls-8" transform="translate(304.48 7.65)">Critical clu<tspan class="cls-11" x="32.88" y="0">s</tspan><tspan x="36.22" y="0">ter (&lt;1%)</tspan></text><text class="cls-5" transform="translate(189.88 153.77)"><tspan class="cls-12">S</tspan><tspan x="6.03" y="0">t</tspan><tspan class="cls-13" x="9.45" y="0">r</tspan><tspan x="12.98" y="0">ategic </tspan><tspan class="cls-14" x="42.08" y="0">P</tspan><tspan class="cls-6" x="48.23" y="0">o</tspan><tspan x="53.68" y="0">tential</tspan></text><text class="cls-5" transform="translate(93.36 101.38) rotate(-90)"><tspan class="cls-15">P</tspan><tspan x="6.16" y="0">e</tspan><tspan class="cls-16" x="11.29" y="0">r</tspan><tspan class="cls-17" x="15.24" y="0">f</tspan><tspan x="18.51" y="0">omance</tspan></text><text class="cls-5" transform="translate(141.26 40.47)">Ha<tspan class="cls-18" x="12.58" y="0">r</tspan><tspan class="cls-7" x="16.42" y="0">v</tspan><tspan class="cls-19" x="21.39" y="0">e</tspan><tspan class="cls-17" x="26.52" y="0">s</tspan><tspan x="31.15" y="0">t</tspan></text><text class="cls-5" transform="translate(140.52 71.18)">Imp<tspan class="cls-20" x="16.68" y="0">r</tspan><tspan class="cls-21" x="20.13" y="0">ov</tspan><tspan class="cls-19" x="30.51" y="0">e</tspan></text><text class="cls-5" transform="translate(140.57 109.28)">Mitigate</text><text class="cls-5" transform="translate(224.67 40.47)">Influence</text><text class="cls-5" transform="translate(228.19 71.18)">Su<tspan class="cls-12" x="11.6" y="0">s</tspan><tspan x="16.22" y="0">tain</tspan></text><text class="cls-5" transform="translate(226.56 109.28)">D<tspan class="cls-7" x="7.23" y="0">ev</tspan><tspan x="17.27" y="0">elop</tspan></text><text class="cls-5" transform="translate(309.19 40.47)">Integ<tspan class="cls-22" x="22.5" y="0">r</tspan><tspan x="26.02" y="0">ate</tspan></text><text class="cls-5" transform="translate(315.83 71.18)">In<tspan class="cls-23" x="8.17" y="0">v</tspan><tspan x="13.15" y="0">e</tspan><tspan class="cls-24" x="18.28" y="0">s</tspan><tspan x="22.9" y="0">t</tspan></text><text class="cls-5" transform="translate(312.35 109.28)">Bail out</text><text class="cls-5" transform="translate(140.42 182.08)">What could business pa<tspan class="cls-16" x="105.59" y="0">r</tspan><tspan x="109.55" y="0">tner do to cu</tspan><tspan class="cls-17" x="165.21" y="0">s</tspan><tspan class="cls-25" x="169.83" y="0">tomer?</tspan></text><g class="cls-26"><text class="cls-5" transform="translate(0 68.7)">Business <tspan class="cls-27" x="41.74" y="0">P</tspan><tspan x="47.94" y="0">a</tspan><tspan class="cls-28" x="53.13" y="0">r</tspan><tspan class="cls-19" x="57.09" y="0">tner</tspan></text><text class="cls-5" transform="translate(20.52 80.3)"><tspan class="cls-20">C</tspan><tspan x="6.47" y="0">ur</tspan><tspan class="cls-20" x="15.53" y="0">r</tspan><tspan class="cls-19" x="18.99" y="0">ent</tspan></text><text class="cls-5" transform="translate(9.06 92)"><tspan class="cls-15">P</tspan><tspan x="6.16" y="0">e</tspan><tspan class="cls-16" x="11.29" y="0">r</tspan><tspan class="cls-17" x="15.24" y="0">f</tspan><tspan x="18.51" y="0">ormance</tspan></text></g></svg>