<?xml version="1.0" encoding="utf-8"?>
<!-- Generator: Adobe Illustrator 22.0.1, SVG Export Plug-In . SVG Version: 6.00 Build 0)  -->
<svg version="1.1" id="Layer_1" xmlns="http://www.w3.org/2000/svg" xmlns:xlink="http://www.w3.org/1999/xlink" x="0px" y="0px"
	 viewBox="0 0 100 100" style="enable-background:new 0 0 100 100;" xml:space="preserve">
<style type="text/css">
	.st0{fill:none;stroke:#000102;stroke-width:1.5;stroke-miterlimit:10;}
	.st1{fill:#F0AB00;}
	.st2{fill:#558ED5;}
	.st3{fill:#05225F;}
	.st4{fill:#0B4A99;}
	.st5{fill:#CD1618;}
	.st6{fill:#2665AA;}
	.st7{fill:#3779BF;}
	.st8{fill:#002060;}
	.st9{fill:none;stroke:#000000;stroke-width:1.5;stroke-miterlimit:10;}
	.st10{fill:#40875E;}
	.st11{fill:#A8A240;}
	.st12{fill:#000102;}
	.st13{fill:none;stroke:#0B4A99;stroke-miterlimit:10;}
	.st14{fill:#0071C5;}
	.st15{fill:#26774B;}
	.st16{fill:#B91218;}
	.st17{fill:#BFBFBF;}
	.st18{fill:#A70000;}
	.st19{fill-rule:evenodd;clip-rule:evenodd;fill:#0B4A99;}
	.st20{fill-rule:evenodd;clip-rule:evenodd;fill:#002060;}
	.st21{fill-rule:evenodd;clip-rule:evenodd;fill:#40875E;}
	.st22{fill-rule:evenodd;clip-rule:evenodd;fill:#A8A240;}
	.st23{fill:#5E6D61;}
	.st24{opacity:0.65;fill:#558ED5;}
	.st25{opacity:0.55;fill:#CD1618;}
	.st26{opacity:0.65;fill:#002060;}
	.st27{opacity:0.65;}
	.st28{opacity:0.65;fill:#26774B;}
	.st29{opacity:0.23;fill:#26774B;}
	.st30{opacity:0.98;fill:#558ED5;}
	.st31{opacity:0.9;fill:#558ED5;}
	.st32{opacity:0.65;fill:#CD1618;}
	.st33{opacity:0.65;fill:#0B4A99;}
	.st34{opacity:0.65;fill:#F0AB00;}
	.st35{fill:#F0AB00;stroke:#000000;stroke-width:0.5;stroke-miterlimit:10;}
	.st36{fill:#26774B;stroke:#000000;stroke-width:0.5;stroke-miterlimit:10;}
	.st37{fill:#A8A240;stroke:#000000;stroke-width:0.5;stroke-miterlimit:10;}
</style>
<g>
	<path class="st21" d="M16.8,22c1.7-0.5,3.4,0.9,5.3,1.9c1.4,0.7,3.7,1.2,3.8,2.9c0.1,1.1-1,2.9-1.7,4.4
		c-3.9,8.2-7.7,15.8-11.7,24.5c-0.6,1.4-1.5,3.4-2.4,3.6c-1.8,0.4-3.4-1.1-5-1.9c-1.5-0.7-4-1.3-4.2-3c-0.1-1,1-2.8,1.7-4.3
		c4-8.2,7.7-16.3,11.6-24.4C14.8,24.5,15.6,22.4,16.8,22z"/>
	<path class="st21" d="M81.8,22c2.4-0.9,3.2,2.1,4,3.8c4,8.6,7.6,16,11.6,24.5c0.6,1.2,1.9,3,1.7,4.2c-0.2,1.5-2.7,2.3-4.1,2.9
		c-1.6,0.7-3.3,2.2-5.1,1.9c-1.1-0.2-1.9-2.5-2.4-3.7c-3.7-7.9-7.7-16.5-11.7-24.6c-0.6-1.1-1.9-2.9-1.7-4.3
		C74.3,24.4,80.3,23.2,81.8,22z"/>
	<path class="st1" d="M53,76.7c-1,0.8-2.1,1.6-3.7,1.3c-2.5-0.5-3.6-3.2-2-5.2c1.1-1.4,2.4-2.8,3.6-4.2c0.2-0.2,0.5-0.4,0.5-0.6
		c0-0.5,0-1.1-0.3-1.4c-0.2-0.2-1-0.1-1.3,0.2c-0.7,0.6-1.2,1.3-1.8,2c-1.5,1.7-3,3.4-4.4,5.1c-0.9,1.1-2.1,1.6-3.5,1.2
		c-1.5-0.4-2.7-1.4-3.1-3c-0.1-0.6,0-1.3,0.3-1.8c0.3-0.6,0.7-1.1,1.2-1.6c1.7-2,3.5-4,5.3-6c0.1-0.2,0.3-0.3,0.4-0.5
		c0.4-0.5,0.6-1,0-1.4c-0.5-0.5-1-0.3-1.5,0.2c-2.5,2.7-5,5.4-7.4,8.1c-1.1,1.2-2.7,1.4-4,0.4c-0.5-0.4-1-0.9-1.4-1.5
		c-0.8-1.1-0.9-2.1,0-3.3c1.1-1.4,2.3-2.8,3.5-4.2c2-2.3,4-4.5,5.9-6.8c0.1-0.1,0.2-0.3,0.3-0.4c0.4-0.5,0.4-1-0.1-1.4
		c-0.5-0.5-1-0.3-1.4,0.2c-2.5,2.8-4.9,5.5-7.4,8.3c-1.2,1.3-2.3,2.6-3.5,3.9c-1,1.2-1.9,1.3-3.3,0.8c-1.5-0.6-2.2-1.7-2.6-3.1
		c-0.2-0.9-0.1-1.7,0.6-2.4c5.5-6.2,11-12.4,16.5-18.6c0.5-0.5,1-1,1.6-1.3c2-1.1,4-2.2,5.9-3.3c1-0.6,2.1-0.9,3.2-0.8
		c1.1,0.1,2.4-0.3,3.3,0.2c0.8,0.5,1,1.8,1.6,2.7c0.8,1.3,1.5,2.5,2.4,3.7c0.8,1.1,2,1.6,3.4,1.4c1.4-0.1,2.8-0.2,4.1-0.7
		c1-0.3,1.9-1.2,2.6-1.9c0.9-0.8,0.9-1.9,0.2-2.9c-0.7-1-1.2-2.1-1.9-3.4c3.1,0.1,7.5-1.5,10.1-3.1C79,39.3,80.7,45,85.8,54.2
		c-0.4,0.5-0.9,0.9-1.3,1.4c-0.5,0.4-0.9,0.9-1.3,1.2c-1.1-0.7-2.2-1.4-3.3-1.9c-3.3-1.5-5.7-0.5-6.8,3c-0.2,0.6-0.3,1.2-0.5,1.8
		c-3.5-0.9-6.2,0.1-7.5,3.7c-0.5-0.2-1-0.4-1.5-0.5c-3.4-1.1-5.9,0.2-6.6,3.8c-0.2,0.9-0.4,1.3-1.3,1.3c-0.7,0-1.4,0.3-2.1,0.6
		c-1.9,0.9-2.6,2.4-2.1,4.4C51.8,74.3,52.4,75.4,53,76.7z"/>
	<path class="st11" d="M23.9,34.2c3.9,1.1,8.3-0.3,11.4-2.4c2.4-1.6,4.8-3.2,7.3-4.8c1.1-0.7,2.2-1.1,3.5-1.1c3.4,0,6.8,0,10.2,0
		c1.5,0,2.5,0.6,3.2,1.8c1.9,3.6,3.8,7.2,5.7,10.8c0.6,1.1,0.3,2-0.7,2.7c-2.5,1.8-6.5,0.9-8-1.8c-0.9-1.6-1.7-3.2-2.6-4.8
		c-0.2-0.3-0.6-0.6-1-0.6c-1.9-0.1-3.8,0-5.8,0c-0.4,0-0.8,0.1-1.1,0.3c-2.7,1.6-5.4,3.1-8,4.8c-0.9,0.6-1.6,1.5-2.4,2.3
		c-4.7,5.4-9.4,10.9-14.2,16.3c-0.3,0.3-0.5,0.6-0.8,1c-2.1-1.3-4.2-2.6-6.4-3.9C17.9,47.7,20.7,41.4,23.9,34.2z"/>
	<path class="st11" d="M69.1,71.1c-0.2,2.5-2.6,4.4-4.8,3.7c-0.4-0.1-0.8-0.4-1.1-0.8c-1.4-1.7-2.8-3.4-4.1-5.1
		c-1.1-1.3-0.8-2.9,0.7-4.2c1.4-1.2,3-1.2,4.1,0c1.5,1.6,3,3.1,4.4,4.7C68.6,70,68.8,70.6,69.1,71.1z"/>
	<path class="st11" d="M76.6,66.2c-0.2,2-2.3,4-4.1,3.9c-0.6-0.1-1.4-0.4-1.8-0.9c-1.1-1-2.2-2.2-3.2-3.3c-0.9-1-1-2-0.2-3.1
		c1.4-2.1,3.2-2.4,5.2-0.8c1.1,0.9,2.2,1.7,3.2,2.6C76,65,76.2,65.6,76.6,66.2z"/>
	<path class="st11" d="M77.5,56.9c2.7,0,5,2.5,4.5,4.8c-0.5,2.3-2.8,3.5-4.9,2.4c-1.5-0.8-2.5-1.9-2.8-3.6
		C74,58.3,75.2,56.9,77.5,56.9z"/>
	<path class="st11" d="M57,77.8c-0.5-0.4-1.1-0.6-1.5-1.1c-0.8-1-1.4-2-2.1-3.1c-0.7-1-0.6-2,0-2.8c0.9-1,2.6-1.7,3.4-1
		c1.3,1.1,2.6,2.3,3.5,3.8C61.4,75.5,59.6,77.6,57,77.8z"/>
</g>
</svg>
