<?xml version="1.0" encoding="utf-8"?>
<!-- Generator: Adobe Illustrator 22.0.1, SVG Export Plug-In . SVG Version: 6.00 Build 0)  -->
<svg version="1.1" id="Layer_1" xmlns="http://www.w3.org/2000/svg" xmlns:xlink="http://www.w3.org/1999/xlink" x="0px" y="0px"
	 viewBox="0 0 200 200" style="enable-background:new 0 0 200 200;" xml:space="preserve">
<style type="text/css">
	.st0{fill:none;stroke:#000102;stroke-width:1.5;stroke-miterlimit:10;}
	.st1{fill:#F0AB00;}
	.st2{fill:#558ED5;}
	.st3{fill:#05225F;}
	.st4{fill:#0B4A99;}
	.st5{fill:#CD1618;}
	.st6{fill:#2665AA;}
	.st7{fill:#3779BF;}
	.st8{fill:#002060;}
	.st9{fill:none;stroke:#000000;stroke-width:1.5;stroke-miterlimit:10;}
	.st10{fill:#40875E;}
	.st11{fill:#A8A240;}
	.st12{fill:#000102;}
	.st13{fill:none;stroke:#0B4A99;stroke-miterlimit:10;}
	.st14{fill:#0071C5;}
	.st15{fill:#26774B;}
	.st16{fill:#B91218;}
	.st17{fill:#BFBFBF;}
	.st18{fill:#A70000;}
	.st19{fill-rule:evenodd;clip-rule:evenodd;fill:#0B4A99;}
	.st20{fill-rule:evenodd;clip-rule:evenodd;fill:#002060;}
	.st21{fill-rule:evenodd;clip-rule:evenodd;fill:#40875E;}
	.st22{fill-rule:evenodd;clip-rule:evenodd;fill:#A8A240;}
	.st23{fill:#5E6D61;}
	.st24{opacity:0.65;fill:#558ED5;}
	.st25{opacity:0.55;fill:#CD1618;}
	.st26{opacity:0.65;fill:#002060;}
	.st27{opacity:0.65;}
	.st28{opacity:0.65;fill:#26774B;}
	.st29{opacity:0.23;fill:#26774B;}
	.st30{opacity:0.98;fill:#558ED5;}
	.st31{opacity:0.9;fill:#558ED5;}
	.st32{opacity:0.65;fill:#CD1618;}
	.st33{opacity:0.65;fill:#0B4A99;}
	.st34{opacity:0.65;fill:#F0AB00;}
	.st35{fill:#F0AB00;stroke:#000000;stroke-width:0.5;stroke-miterlimit:10;}
	.st36{fill:#26774B;stroke:#000000;stroke-width:0.5;stroke-miterlimit:10;}
	.st37{fill:#A8A240;stroke:#000000;stroke-width:0.5;stroke-miterlimit:10;}
</style>
<path class="st1" d="M16.9,59.1c-0.8,0-0.8,1.3,0,1.3h9.8c0.8,0,0.8-1.3,0-1.3H16.9z"/>
<path class="st1" d="M26.6,62.2h-9.8c-0.8,0-0.8,1.3,0,1.3h9.8C27.5,63.4,27.5,62.2,26.6,62.2L26.6,62.2z"/>
<path class="st1" d="M26.6,64.9h-9.8c-0.8,0-0.8,1.3,0,1.3h9.8C27.5,66.2,27.5,64.9,26.6,64.9L26.6,64.9z"/>
<path class="st1" d="M26.6,68h-9.8c-0.8,0-0.8,1.3,0,1.3h9.8C27.5,69.2,27.5,68,26.6,68L26.6,68z"/>
<path class="st1" d="M26.5,70.8h-9.8c-0.8,0-0.8,1.3,0,1.3h9.8C27.3,72.1,27.3,70.8,26.5,70.8L26.5,70.8z"/>
<path class="st10" d="M12.7,52.6v23.8h18.2V55.9l-3.4-3.3H12.7z M29.3,74.8H14.2V54.2h12.4v2.5h2.6V74.8z"/>
<path class="st11" d="M15.7,49v2.8h1.6v-1.2h12.4v2.5h2.6v18.1h-0.7v1.6H34V52.3L30.6,49H15.7z"/>
<path class="st11" d="M33.8,45.7H19v2.7h1.6v-1.2H33v2.5h2.6v18.1h-0.7v1.6h2.3V49L33.8,45.7z"/>
<path class="st15" d="M100.3,9.6H90.2v3.3h3.3v2.2h-3.3v2.2h3.3v2.2h-3.3v2.2h3.3v2.2h-3.3v2.2h3.3v2.2h-3.3v3.3h10.1
	c0.5,0,0.9-0.4,0.9-1V10.5C101.2,10,100.8,9.6,100.3,9.6L100.3,9.6z M99,28.3h-4.4v-2.2H99V28.3z M99,23.9h-4.4v-2.2H99V23.9z
	 M99,19.5h-4.4v-2.2H99V19.5z M99,15.1h-4.4v-2.2H99V15.1z"/>
<path class="st15" d="M72.6,9.4v22.3L89.1,35V6.2L72.6,9.4z M83.1,26.2l-1.9-3.6c-0.1-0.1-0.1-0.4-0.2-0.8h0c0,0.2-0.1,0.4-0.3,0.8
	l-1.9,3.6h-3l3.5-5.6L76,15h3.1l1.6,3.4c0.1,0.3,0.2,0.6,0.3,0.9h0c0.1-0.2,0.2-0.5,0.3-1l1.8-3.3H86l-3.3,5.5l3.4,5.6H83.1z"/>
<path class="st10" d="M1.5,142.9c0-7,0-13.9,0-20.9c1.7-0.3,3.4-0.6,5.1-0.9c3.6-0.6,7.2-1.3,10.8-1.9c0,8.8,0,17.6,0,26.5
	c-2.8-0.5-5.5-1-8.2-1.4C6.6,143.7,4,143.3,1.5,142.9z M13.4,137.7c-0.1-0.3-0.1-0.5-0.2-0.7c-0.8-2.8-1.6-5.6-2.4-8.4
	c-0.2-0.5-0.2-1.3-0.5-1.5c-0.4-0.3-1.1,0-1.6,0c-0.5,0-0.6,0.2-0.7,0.6c-0.5,2-1.1,4-1.7,6c-0.3,1.2-0.7,2.3-1,3.5
	c0.5,0,1,0.1,1.4,0.1c0.4,0.1,0.6,0,0.6-0.4c0.1-0.6,0.3-1.2,0.5-1.8c1,0,1.9,0.1,2.9,0.1c0.2,0.7,0.3,1.3,0.5,2
	c0,0.2,0.2,0.4,0.3,0.4C12.1,137.6,12.7,137.7,13.4,137.7z"/>
<path class="st10" d="M29.8,130.2c-0.7,0.6-1.4,1.1-2.3,1.3c-1.9,0.3-3.8,0.5-5.7,0.7c-0.9,0.1-1.9,0-2.8,0c0-1.3,0-2.6,0-3.9
	c0.7,0,1.4,0,2.1,0c2.2,0,4.3-0.1,6.4-0.6c0.8-0.2,1.7-0.4,2.2-1.2c0,0,0.1,0,0.2,0C29.8,127.8,29.8,129,29.8,130.2z"/>
<path class="st11" d="M29.8,135c-1.2,1.4-2.9,1.6-4.6,1.8c-1.4,0.2-2.8,0.2-4.2,0.3c-0.7,0-1.3,0-2,0c0-1.4,0-2.6,0-4
	c1.7,0,3.4,0.1,5,0c1.3-0.1,2.6-0.3,3.9-0.7c0.7-0.2,1.3-0.7,1.9-1.1C29.8,132.5,29.8,133.7,29.8,135z"/>
<path class="st1" d="M29.8,139.9c-2.2,1.9-4.9,1.8-7.5,2c-1.1,0.1-2.2,0-3.3,0c0-1.3,0-2.5,0-3.9c1.5,0,2.9,0.1,4.3,0
	c1.4-0.1,2.8-0.3,4.1-0.6c0.9-0.1,1.7-0.6,2.4-1.2C29.8,137.4,29.8,138.6,29.8,139.9z"/>
<path class="st10" d="M29.8,125.3c-1.7,1.6-3.8,1.7-5.9,1.9c-1.6,0.1-3.3,0-5,0c0-1.3,0-2.7,0-4.2c1.4,0,2.7-0.1,4,0
	c1.6,0.1,3.2,0.4,4.7,0.8c0.7,0.2,1.5,0.5,1.9,1.2c0,0,0.1,0,0.2,0C29.8,125,29.8,125.2,29.8,125.3z"/>
<path class="st10" d="M9.2,129.3c0.3,1.3,0.6,2.6,0.9,4c-0.7,0-1.3,0-2,0c0.3-1.4,0.6-2.7,0.9-4C9.1,129.3,9.2,129.3,9.2,129.3z"/>
<path class="st4" d="M153.9,58.8c0,0.6,0,1.2,0,1.8c0,1.2,0.3,1.5,1.5,1.5c6.6,0,13.1,0,19.7,0c1.2,0,1.6-0.3,1.6-1.6
	c0-6.7,0-13.4,0-20.1c0-1.3-0.3-1.6-1.6-1.6c-6.5,0-13.1,0-19.6,0c-0.2,0-0.5-0.1-0.6,0c-0.3,0.2-0.8,0.5-0.9,0.8
	c-0.1,0.8,0,1.6,0,2.4c0.5,0,0.9,0,1.4,0c0-0.6,0-1.2,0-1.8c6.7,0,13.3,0,19.9,0c0,6.8,0,13.6,0,20.3c-6.6,0-13.2,0-19.9,0
	c0-0.6,0-1.2,0-1.8C154.8,58.8,154.4,58.8,153.9,58.8z M154.8,55.1c-0.8,0-1.6,0-2.4,0c-0.8,0-1.4,0.6-1.5,1.4
	c0,0.8,0.6,1.5,1.4,1.5c1.6,0,3.2,0,4.8,0c0.9,0,1.4-0.7,1.4-1.5c0-0.8-0.6-1.4-1.4-1.4C156.3,55.1,155.5,55.1,154.8,55.1z
	 M154.9,45.9c0.7,0,1.4,0,2.1,0c0,0,0.1,0,0.1,0c0.8,0,1.4-0.6,1.4-1.4c0-0.8-0.6-1.3-1.4-1.3c-1.5,0-3.1,0-4.6,0
	c-0.9,0-1.4,0.6-1.4,1.4c0,0.8,0.6,1.4,1.4,1.4C153.3,45.9,154.1,45.9,154.9,45.9z M155.3,54.1c0-2.4,0-4.8,0-7.2
	c-0.5,0-0.9,0-1.3,0c0,2.4,0,4.8,0,7.2C154.4,54.1,154.8,54.1,155.3,54.1z M172.1,45.2c-3,0-5.9,0-8.9,0c0,0.3,0,0.6,0,0.9
	c3,0,5.9,0,8.9,0C172.1,45.9,172.1,45.6,172.1,45.2z M172.1,51.4c-3,0-5.9,0-8.9,0c0,0.3,0,0.6,0,0.9c3,0,5.9,0,8.9,0
	C172.1,52,172.1,51.7,172.1,51.4z M172.1,49.3c0-0.4,0-0.7,0-0.9c-3,0-5.9,0-8.9,0c0,0.3,0,0.6,0,0.9
	C166.2,49.3,169.1,49.3,172.1,49.3z"/>
<path class="st10" d="M153.9,58.8c0.5,0,0.9,0,1.4,0c0,0.6,0,1.2,0,1.8c6.7,0,13.3,0,19.9,0c0-6.7,0-13.5,0-20.3
	c-6.6,0-13.2,0-19.9,0c0,0.6,0,1.1,0,1.8c-0.5,0-0.9,0-1.4,0c0-0.8-0.1-1.6,0-2.4c0-0.3,0.5-0.6,0.9-0.8c0.2-0.1,0.4,0,0.6,0
	c6.5,0,13.1,0,19.6,0c1.3,0,1.6,0.3,1.6,1.6c0,6.7,0,13.4,0,20.1c0,1.2-0.3,1.6-1.6,1.6c-6.6,0-13.1,0-19.7,0
	c-1.2,0-1.5-0.3-1.5-1.5C153.9,60,153.9,59.5,153.9,58.8z"/>
<path class="st11" d="M154.8,55.1c0.8,0,1.6,0,2.4,0c0.8,0,1.4,0.6,1.4,1.4c0,0.8-0.5,1.5-1.4,1.5c-1.6,0-3.2,0-4.8,0
	c-0.9,0-1.4-0.7-1.4-1.5c0-0.8,0.6-1.3,1.5-1.4C153.2,55.1,154,55.1,154.8,55.1z"/>
<path class="st11" d="M154.9,45.9c-0.8,0-1.6,0-2.4,0c-0.8,0-1.4-0.6-1.4-1.4c0-0.8,0.6-1.4,1.4-1.4c1.5,0,3.1,0,4.6,0
	c0.8,0,1.4,0.6,1.4,1.3c0,0.8-0.5,1.4-1.4,1.4c0,0-0.1,0-0.1,0C156.3,45.9,155.6,45.9,154.9,45.9z"/>
<path class="st10" d="M155.3,54.1c-0.5,0-0.9,0-1.3,0c0-2.4,0-4.8,0-7.2c0.4,0,0.9,0,1.3,0C155.3,49.3,155.3,51.7,155.3,54.1z"/>
<path class="st1" d="M172.1,45.2c0,0.3,0,0.6,0,0.9c-3,0-5.9,0-8.9,0c0-0.3,0-0.6,0-0.9C166.2,45.2,169.1,45.2,172.1,45.2z"/>
<path class="st1" d="M172.1,51.4c0,0.3,0,0.6,0,0.9c-3,0-5.9,0-8.9,0c0-0.3,0-0.6,0-0.9C166.1,51.4,169.1,51.4,172.1,51.4z"/>
<path class="st1" d="M172.1,49.3c-3,0-5.9,0-8.9,0c0-0.3,0-0.6,0-0.9c2.9,0,5.9,0,8.9,0C172.1,48.6,172.1,48.9,172.1,49.3z"/>
<g>
	<path class="st1" d="M189.4,98.4c0,0,0.1-0.9,0.3,6.8c0,0,3.9-0.4,6.6,0.3l0.5,0.3C196.7,105.8,194.2,100.6,189.4,98.4z"/>
	<path class="st11" d="M189.7,105.2c1-0.1,1.9-0.2,2.8-0.2c1.3,0,2.5,0.1,3.8,0.3c0.2,0,0.3,0.3,0.4,0.4c0.1,0.1,0,0.3,0,0.4
		c0,7.7,0,15.5,0,23.2c0,0.9,0,0.9-0.9,0.9c-7.3,0-14.6,0-21.9,0c-0.9,0-0.9,0-0.9-0.8c0-10.1,0-20.2,0-30.2c0-0.8,0-0.8,0.9-0.8
		c5,0,10,0,15,0c0.6,0,0.9,0.1,1,0.8C190.1,101.1,190.1,103.2,189.7,105.2z M173.5,119.3c7.6,0,15.2,0,22.7,0c0-3.4,0-6.7,0-10
		c-7.6,0-15.1,0-22.7,0C173.5,112.6,173.5,115.9,173.5,119.3z"/>
	<path class="st10" d="M173.5,119.3c0-3.3,0-6.6,0-10c7.6,0,15.1,0,22.7,0c0,3.3,0,6.6,0,10C188.7,119.3,181.1,119.3,173.5,119.3z
		 M182.6,111.3c0,2,0,3.9,0,5.9c0.8,0,1.5,0.1,2.3,0c1.5-0.1,2.3-0.8,2.5-2.1c0.1-0.5,0.1-1.1,0-1.6c-0.2-1.1-0.9-1.8-2-2
		C184.4,111.4,183.5,111.4,182.6,111.3z M178.5,114.8c0.6,0,1,0,1.5,0c0.9-0.1,1.5-0.6,1.5-1.5c0.1-1-0.3-1.7-1.2-1.9
		c-0.8-0.1-1.7-0.1-2.6-0.1c0,2,0,3.9,0,5.9c0.3,0,0.5,0,0.8,0C178.5,116.4,178.5,115.7,178.5,114.8z M188.6,117.2
		c0.3,0,0.5,0,0.8,0c0-0.9,0-1.8,0-2.7c0.8,0,1.6,0,2.3,0c0-0.3,0-0.5,0-0.7c-0.8,0-1.5,0-2.3,0c0-0.6,0-1.1,0-1.6
		c0.9,0,1.7,0,2.6,0c0-0.3,0-0.5,0-0.7c-1.1,0-2.3,0-3.4,0C188.6,113.3,188.6,115.2,188.6,117.2z"/>
	<path class="st10" d="M183.4,116.5c0-1.5,0-2.9,0-4.4c1,0,2.1-0.2,2.8,0.8c0.5,0.6,0.5,2.2,0,2.8
		C185.5,116.7,184.4,116.5,183.4,116.5z"/>
	<path class="st10" d="M178.5,114.2c0-0.7,0-1.4,0-2.1c0.7,0,1.5-0.3,1.9,0.4c0.2,0.3,0.2,0.9,0,1.2
		C180.1,114.5,179.2,114.2,178.5,114.2z"/>
</g>
<path class="st11" d="M108.7,193.8c-6.8,0-13.5,0-20.3,0c-0.7-0.4-0.9-0.9-0.8-1.7c0-0.6,0-1.2,0-1.8c0-1.2,0-2.5,0-3.8
	c-0.3,0-0.6,0-0.8,0c-0.9,0-1.6-0.7-1.6-1.6c0-3,0-6,0-9c0-0.9,0.7-1.5,1.6-1.6c0.3,0,0.5,0,0.8,0c0-3.1,0-6.2,0-9.3
	c0-1.2,0.4-1.6,1.6-1.6c4.5,0,9,0,13.4,0c0.5,0,0.9,0.2,1.2,0.6c1.7,1.9,3.3,3.9,5,5.8c0.4,0.5,0.7,1,0.6,1.7c-0.1,0.9,0,1.9,0,2.8
	c0.2,0,0.2,0,0.3,0.1c1.6,0.1,2.1,0.6,2.1,2.2c0,2.5,0,4.9,0,7.4c0,2.1-0.2,2.4-2.3,2.6c0,0,0,0-0.1,0.1c0,0.2,0,0.4,0,0.6
	c0,1.6,0,3.2,0,4.9C109.6,192.8,109.4,193.4,108.7,193.8z M88.8,174.3c6.5,0,13,0,19.5,0c0-1,0-2,0-3c-1.7,0-3.3,0-4.9,0
	c-0.8,0-0.9-0.1-0.9-0.9c0-1.3,0-2.6,0-3.9c0-0.6,0-1.2,0-1.8c-4.6,0-9.2,0-13.7,0C88.8,167.9,88.8,171,88.8,174.3z M108.3,192.2
	c0-1.9,0-3.8,0-5.7c-6.5,0-13,0-19.5,0c0,1.9,0,3.8,0,5.7C95.4,192.2,101.8,192.2,108.3,192.2z M103.8,184c-0.2-2.7-0.3-5.3-0.4-8
	c-0.6,0-1.2,0-1.8,0c-0.4,0-0.6,0.1-0.7,0.5c-0.5,1.6-0.9,3.2-1.4,4.8c-0.1-0.2-0.1-0.4-0.2-0.6c-0.4-1.4-0.8-2.9-1.2-4.3
	c-0.1-0.2-0.2-0.5-0.4-0.5c-0.7,0-1.4,0-2.2,0c-0.2,2.7-0.3,5.3-0.5,8c0.6,0,1.1,0,1.7,0c0.1-2,0.2-3.9,0.3-6
	c0.5,1.8,0.9,3.5,1.4,5.2c0.1,0.4,0.2,0.8,0.8,0.7c0.5-0.1,0.9,0,1.1-0.7c0.4-1.7,1-3.3,1.5-5c0,0,0.1,0,0.1,0
	c0.1,1.9,0.1,3.8,0.2,5.8C102.6,184,103.1,184,103.8,184z M87.3,184.1c0.6,0,1,0,1.5,0c0.4,0,0.6-0.1,0.8-0.5
	c0.3-0.8,0.7-1.5,1.1-2.4c0.4,0.9,0.8,1.6,1.2,2.4c0.1,0.2,0.2,0.4,0.4,0.4c0.6,0,1.2,0,1.9,0c-0.7-1.3-1.4-2.4-2.1-3.5
	c-0.2-0.4-0.2-0.7,0-1.1c0.6-1.1,1.2-2.2,1.9-3.4c-0.6,0-1,0-1.4,0c-0.5-0.1-0.7,0.2-0.9,0.6c-0.3,0.7-0.6,1.4-0.9,2.2
	c-0.4-0.8-0.7-1.6-1.1-2.3c-0.1-0.2-0.3-0.4-0.4-0.4c-0.6-0.1-1.1,0-1.8,0c0.7,1.2,1.2,2.3,1.9,3.3c0.3,0.4,0.3,0.8,0,1.2
	C88.6,181.7,88,182.8,87.3,184.1z M105.1,176.1c0,2.7,0,5.3,0,7.9c1.7,0,3.3,0,4.9,0c0-0.5,0-1,0-1.5c-1.1,0-2,0-3.1,0
	c0-2.2,0-4.3,0-6.4C106.3,176.1,105.7,176.1,105.1,176.1z"/>
<g>
	<path d="M119.3,94.6c-1.2-0.3-2.5-0.2-3.6,0.5c-2.2,1.3-3,4.2-1.7,6.4c0.6,1.1,1.6,1.9,2.9,2.2c0.1,0,0.2,0,0.3,0.1v11.9
		l-11.7,15.8v27.2h1.5V132l11.7-15.8v-12.3c0.6-0.1,1.2-0.3,1.7-0.6c2.2-1.3,3-4.2,1.7-6.4C121.5,95.7,120.5,94.9,119.3,94.6z
		 M119.7,101.9c-0.7,0.4-1.6,0.5-2.4,0.3c-0.8-0.2-1.5-0.8-1.9-1.5c-0.9-1.5-0.4-3.5,1.2-4.4c0.5-0.3,1-0.4,1.6-0.4
		c0.3,0,0.6,0,0.8,0.1c0.8,0.2,1.5,0.8,1.9,1.5v0C121.7,99.1,121.2,101,119.7,101.9z"/>
	<path d="M163.7,112.1c-1.2-0.3-2.5-0.2-3.6,0.5c-1.1,0.6-1.9,1.6-2.2,2.9c-0.1,0.2-0.1,0.4-0.1,0.6h-12.4c-0.2-7.4-5-14-12.5-17.2
		c0-0.6,0.1-1.1,0.1-1.6c0-0.6,0-1.1-0.1-1.6h11.6c0.5,1.4,1.6,2.5,3.2,2.9c0.4,0.1,0.8,0.2,1.2,0.2c0.8,0,1.6-0.2,2.3-0.6
		c1.1-0.6,1.9-1.6,2.2-2.9c0.7-2.5-0.8-5.1-3.3-5.8c-1.2-0.3-2.5-0.2-3.6,0.5c-1.1,0.6-1.9,1.6-2.2,2.9c-0.1,0.5-0.2,0.9-0.1,1.4
		h-11.5c-1.5-10.6-10.7-19.2-22.6-21.3V62.8h20.6c0.3,1.7,1.6,3.1,3.4,3.6c0.4,0.1,0.8,0.2,1.2,0.2c0.8,0,1.6-0.2,2.3-0.6
		c1.1-0.6,1.9-1.6,2.2-2.9c0.7-2.5-0.8-5.1-3.3-5.8c-1.2-0.3-2.5-0.2-3.6,0.5c-1.1,0.6-1.9,1.6-2.2,2.9c-0.1,0.2-0.1,0.4-0.1,0.7
		h-22v11.4c-1.4-0.2-2.7-0.3-4.1-0.3c-1.8,0-3.5,0.2-5.2,0.4v-21c0.5-0.1,1.1-0.3,1.5-0.6c2.2-1.3,3-4.2,1.7-6.4v0
		c-0.6-1.1-1.6-1.9-2.9-2.2c-1.2-0.3-2.5-0.2-3.6,0.5c-2.2,1.3-3,4.2-1.7,6.4c0.6,1.1,1.6,1.9,2.9,2.2c0.2,0,0.3,0.1,0.5,0.1V73
		c-3,0.6-5.8,1.7-8.4,3.1v-6.3H63.4c-0.3-1.8-1.6-3.3-3.4-3.8c-1.2-0.3-2.5-0.2-3.6,0.5c-1.1,0.6-1.9,1.6-2.2,2.9
		c-0.7,2.5,0.8,5.1,3.3,5.8c0.4,0.1,0.8,0.2,1.2,0.2c0.8,0,1.6-0.2,2.3-0.6c1.1-0.6,1.9-1.6,2.2-2.9c0-0.1,0-0.3,0.1-0.4H88V77
		c-3.5,2.2-6.4,5.1-8.5,8.5c-1.4-0.6-2.8-0.9-4.3-0.9c-5.2,0-9.7,3.4-12.4,9H49.7c-0.1-2-1.4-3.7-3.4-4.3c-1.2-0.3-2.5-0.2-3.6,0.5
		c-1.1,0.6-1.9,1.6-2.2,2.9c-0.7,2.5,0.8,5.1,3.3,5.8c0.4,0.1,0.8,0.2,1.2,0.2c0.8,0,1.6-0.2,2.3-0.6c1.1-0.6,1.9-1.6,2.2-2.9h12.6
		c-0.1,0.1-0.1,0.3-0.2,0.4c-8.5,2.9-14.2,10.3-14.2,18.5c0,0.7,0,1.4,0.1,2H34.4c-0.2-1.8-1.5-3.5-3.4-4c-1.2-0.3-2.5-0.2-3.6,0.5
		c-1.1,0.6-1.9,1.6-2.2,2.9c-0.7,2.5,0.8,5.1,3.3,5.8c0.4,0.1,0.8,0.2,1.2,0.2c0.8,0,1.6-0.2,2.3-0.6c1.1-0.6,1.9-1.6,2.2-2.9
		c0-0.1,0-0.2,0-0.3h13.7c1.9,9.2,10.8,16.2,21.5,16.2c0.5,0,1,0,1.6,0l-0.1-1.5c-0.5,0-1,0-1.4,0c-11.3,0-20.4-8.2-20.4-18.3
		c0-7.7,5.4-14.6,13.5-17.2l0.4-0.1l0.1-0.4c2.2-6.3,6.8-10.2,11.9-10.2c1.5,0,2.9,0.3,4.3,1l0.6,0.3l0.3-0.6c4.6-8,13.8-13,24.1-13
		c14.9,0,27,10.5,27,23.4c0,0.6,0,1.3-0.1,2l-0.1,0.6l0.5,0.2c7.3,2.9,12.1,9.5,12.1,16.6c0,10.1-9.2,18.3-20.4,18.3v1.5
		c11.7,0,21.3-8.4,21.9-18.8h12.5c0.3,1.7,1.6,3.1,3.4,3.6c0.4,0.1,0.8,0.2,1.2,0.2c0.8,0,1.6-0.2,2.3-0.6c1.1-0.6,1.9-1.6,2.2-2.9
		C167.7,115.4,166.2,112.8,163.7,112.1z M145.9,93.1c0.2-0.8,0.8-1.5,1.5-2c0.5-0.3,1-0.4,1.6-0.4c0.3,0,0.6,0,0.8,0.1
		c1.7,0.5,2.7,2.2,2.3,3.9c-0.2,0.8-0.8,1.5-1.5,2c-0.7,0.4-1.6,0.5-2.4,0.3C146.4,96.6,145.4,94.8,145.9,93.1z M132.3,61L132.3,61
		c0.2-0.8,0.8-1.5,1.5-2c0.5-0.3,1-0.4,1.6-0.4c0.3,0,0.6,0,0.8,0.1c1.7,0.5,2.7,2.2,2.3,3.9c-0.2,0.8-0.8,1.5-1.5,1.9
		c-0.7,0.4-1.6,0.5-2.4,0.3C132.8,64.5,131.8,62.7,132.3,61z M61.8,71.3c-0.2,0.8-0.8,1.5-1.5,2c-0.7,0.4-1.6,0.5-2.4,0.3
		c-1.7-0.5-2.7-2.2-2.3-3.9c0.2-0.8,0.8-1.5,1.5-2c0.5-0.3,1-0.4,1.6-0.4c0.3,0,0.6,0,0.8,0.1C61.3,67.8,62.3,69.6,61.8,71.3z
		 M48.1,94.8c-0.2,0.8-0.8,1.5-1.5,2c-0.7,0.4-1.6,0.5-2.4,0.3c-1.7-0.5-2.7-2.2-2.3-3.9c0.2-0.8,0.8-1.5,1.5-2
		c0.5-0.3,1-0.4,1.6-0.4c0.3,0,0.6,0,0.8,0.1C47.5,91.3,48.6,93,48.1,94.8z M32.9,117.5c-0.2,0.8-0.8,1.5-1.5,2
		c-0.7,0.4-1.6,0.5-2.4,0.3c-1.7-0.5-2.7-2.2-2.3-3.9c0.2-0.8,0.8-1.5,1.5-1.9c0.7-0.4,1.6-0.5,2.4-0.3
		C32.3,114,33.3,115.8,32.9,117.5z M97.7,50.3c-0.8-0.2-1.5-0.8-1.9-1.5c-0.9-1.5-0.4-3.5,1.2-4.4c0.5-0.3,1-0.4,1.6-0.4
		c0.3,0,0.6,0,0.8,0.1c0.8,0.2,1.5,0.8,1.9,1.5c0.9,1.5,0.4,3.5-1.2,4.4C99.4,50.4,98.6,50.5,97.7,50.3z M165.6,117.5
		c-0.2,0.8-0.8,1.5-1.5,2c-0.7,0.4-1.6,0.5-2.4,0.3c-1.3-0.3-2.1-1.4-2.3-2.6v-0.9c0-0.1,0-0.3,0.1-0.4c0.2-0.8,0.8-1.5,1.5-1.9
		c0.7-0.4,1.6-0.5,2.4-0.3C165,114,166,115.8,165.6,117.5z"/>
	<path d="M94.8,113.2c-0.2,0-0.4-0.1-0.5-0.1v-9.3c0.6-0.1,1.1-0.3,1.7-0.6c2.2-1.3,3-4.2,1.7-6.4v0c-0.6-1.1-1.6-1.9-2.9-2.2
		c-1.2-0.3-2.5-0.2-3.6,0.5c-2.2,1.3-3,4.2-1.7,6.4c0.6,1.1,1.6,1.9,2.9,2.2c0.1,0,0.3,0.1,0.4,0.1v9.4c-0.5,0.1-1,0.3-1.5,0.5
		c-2.2,1.3-3,4.2-1.7,6.4c0.6,1.1,1.6,1.9,2.9,2.2c0.4,0.1,0.8,0.2,1.2,0.2c0.8,0,1.6-0.2,2.3-0.6c2.2-1.3,3-4.2,1.7-6.4
		C97,114.3,96,113.5,94.8,113.2z M90.8,100.7c-0.9-1.5-0.4-3.5,1.2-4.4c0.5-0.3,1-0.4,1.6-0.4c0.3,0,0.6,0,0.8,0.1
		c0.8,0.2,1.5,0.8,1.9,1.5c0.9,1.5,0.4,3.5-1.2,4.4c-0.7,0.4-1.6,0.5-2.4,0.3C91.9,102,91.2,101.5,90.8,100.7z M95.2,120.5
		c-0.7,0.4-1.6,0.5-2.4,0.3c-0.8-0.2-1.5-0.8-1.9-1.5c-0.9-1.5-0.4-3.5,1.2-4.4c0.5-0.3,1-0.4,1.6-0.4c0.3,0,0.6,0,0.8,0.1
		c0.8,0.2,1.5,0.8,1.9,1.5C97.2,117.7,96.7,119.6,95.2,120.5z"/>
	<path d="M108.7,113.3c2.2-1.3,3-4.2,1.7-6.4c-0.6-1.1-1.6-1.9-2.9-2.2c-1.2-0.3-2.5-0.2-3.6,0.5c-2.2,1.3-3,4.2-1.7,6.4
		c0.6,1.1,1.6,1.9,2.9,2.2c0.4,0.1,0.8,0.2,1.2,0.2C107.2,113.9,108,113.7,108.7,113.3z M105.6,112.3c-0.8-0.2-1.5-0.8-1.9-1.5
		c-0.9-1.5-0.4-3.5,1.2-4.4c0.5-0.3,1-0.4,1.6-0.4c0.3,0,0.6,0,0.8,0.1c0.8,0.2,1.5,0.8,1.9,1.5c0.9,1.5,0.4,3.5-1.2,4.4
		C107.2,112.4,106.4,112.6,105.6,112.3z"/>
	<path d="M78.8,122.4c0.6-0.1,1.1-0.3,1.6-0.6c2.2-1.3,3-4.2,1.7-6.4c-0.6-1.1-1.6-1.9-2.9-2.2c-1.2-0.3-2.5-0.2-3.6,0.5
		c-2.2,1.3-3,4.2-1.7,6.4c0.6,1.1,1.6,1.9,2.9,2.2c0.1,0,0.3,0.1,0.4,0.1v5.5l8.9,10.2v20h1.5v-20.5l-8.9-10.2V122.4z M77.3,120.9
		c-0.8-0.2-1.5-0.8-1.9-1.5c-0.9-1.5-0.4-3.5,1.2-4.4c0.5-0.3,1-0.4,1.6-0.4c0.3,0,0.6,0,0.8,0.1c0.8,0.2,1.5,0.8,1.9,1.5
		c0.9,1.5,0.4,3.5-1.2,4.4C78.9,121,78.1,121.1,77.3,120.9z"/>
</g>
</svg>
