<?xml version="1.0" encoding="utf-8"?>
<!-- Generator: Adobe Illustrator 22.0.1, SVG Export Plug-In . SVG Version: 6.00 Build 0)  -->
<svg version="1.1" id="Layer_1" xmlns="http://www.w3.org/2000/svg" xmlns:xlink="http://www.w3.org/1999/xlink" x="0px" y="0px"
	 viewBox="0 0 100 100" style="enable-background:new 0 0 100 100;" xml:space="preserve">
<style type="text/css">
	.st0{fill:none;stroke:#000102;stroke-width:1.5;stroke-miterlimit:10;}
	.st1{fill:#F0AB00;}
	.st2{fill:#558ED5;}
	.st3{fill:#05225F;}
	.st4{fill:#0B4A99;}
	.st5{fill:#CD1618;}
	.st6{fill:#2665AA;}
	.st7{fill:#3779BF;}
	.st8{fill:#002060;}
	.st9{fill:none;stroke:#000000;stroke-width:1.5;stroke-miterlimit:10;}
	.st10{fill:#40875E;}
	.st11{fill:#A8A240;}
	.st12{fill:#000102;}
	.st13{fill:none;stroke:#0B4A99;stroke-miterlimit:10;}
	.st14{fill:#0071C5;}
	.st15{fill:#26774B;}
	.st16{fill:#B91218;}
	.st17{fill:#BFBFBF;}
	.st18{fill:#A70000;}
	.st19{fill-rule:evenodd;clip-rule:evenodd;fill:#0B4A99;}
	.st20{fill-rule:evenodd;clip-rule:evenodd;fill:#002060;}
	.st21{fill-rule:evenodd;clip-rule:evenodd;fill:#40875E;}
	.st22{fill-rule:evenodd;clip-rule:evenodd;fill:#A8A240;}
	.st23{fill:#5E6D61;}
	.st24{opacity:0.65;fill:#558ED5;}
	.st25{opacity:0.55;fill:#CD1618;}
	.st26{opacity:0.65;fill:#002060;}
	.st27{opacity:0.65;}
	.st28{opacity:0.65;fill:#26774B;}
	.st29{opacity:0.23;fill:#26774B;}
	.st30{opacity:0.98;fill:#558ED5;}
	.st31{opacity:0.9;fill:#558ED5;}
	.st32{opacity:0.65;fill:#CD1618;}
	.st33{opacity:0.65;fill:#0B4A99;}
	.st34{opacity:0.65;fill:#F0AB00;}
	.st35{fill:#F0AB00;stroke:#000000;stroke-width:0.5;stroke-miterlimit:10;}
	.st36{fill:#26774B;stroke:#000000;stroke-width:0.5;stroke-miterlimit:10;}
	.st37{fill:#A8A240;stroke:#000000;stroke-width:0.5;stroke-miterlimit:10;}
</style>
<path class="st10" d="M12.7,14.3v82.8h67.6V25.8L68.4,14.3H12.7z M74.7,91.6H18.2V19.8h47.3v8.8h9.2V91.6z M74.7,91.6"/>
<polygon class="st12" points="91.8,85.2 83.1,85.2 83.1,83.7 90.3,83.7 90.3,13.4 78.8,2.4 28,2.4 28,11.2 26.5,11.2 26.5,0.9 
	79.4,0.9 91.8,12.8 "/>
<rect x="22.8" y="24.5" class="st11" width="30.8" height="15"/>
<rect x="22.8" y="47.3" class="st1" width="47.1" height="2.7"/>
<rect x="22.8" y="56.5" class="st1" width="47.1" height="2.7"/>
<rect x="22.8" y="65.6" class="st1" width="47.1" height="2.7"/>
<rect x="22.8" y="74.8" class="st1" width="47.1" height="2.7"/>
</svg>
