<?xml version="1.0" encoding="utf-8"?>
<!-- Generator: Adobe Illustrator 22.0.1, SVG Export Plug-In . SVG Version: 6.00 Build 0)  -->
<svg version="1.1" id="Layer_1" xmlns="http://www.w3.org/2000/svg" xmlns:xlink="http://www.w3.org/1999/xlink" x="0px" y="0px"
	 viewBox="0 0 100 100" style="enable-background:new 0 0 100 100;" xml:space="preserve">
<style type="text/css">
	.st0{fill:none;stroke:#000102;stroke-width:1.5;stroke-miterlimit:10;}
	.st1{fill:#F0AB00;}
	.st2{fill:#558ED5;}
	.st3{fill:#05225F;}
	.st4{fill:#0B4A99;}
	.st5{fill:#CD1618;}
	.st6{fill:#2665AA;}
	.st7{fill:#3779BF;}
	.st8{fill:#002060;}
	.st9{fill:none;stroke:#000000;stroke-width:1.5;stroke-miterlimit:10;}
	.st10{fill:#40875E;}
	.st11{fill:#A8A240;}
	.st12{fill:#000102;}
	.st13{fill:none;stroke:#0B4A99;stroke-miterlimit:10;}
	.st14{fill:#0071C5;}
	.st15{fill:#26774B;}
	.st16{fill:#B91218;}
	.st17{fill:#BFBFBF;}
	.st18{fill:#A70000;}
	.st19{fill-rule:evenodd;clip-rule:evenodd;fill:#0B4A99;}
	.st20{fill-rule:evenodd;clip-rule:evenodd;fill:#002060;}
	.st21{fill-rule:evenodd;clip-rule:evenodd;fill:#40875E;}
	.st22{fill-rule:evenodd;clip-rule:evenodd;fill:#A8A240;}
	.st23{fill:#5E6D61;}
	.st24{opacity:0.65;fill:#558ED5;}
	.st25{opacity:0.55;fill:#CD1618;}
	.st26{opacity:0.65;fill:#002060;}
	.st27{opacity:0.65;}
	.st28{opacity:0.65;fill:#26774B;}
	.st29{opacity:0.23;fill:#26774B;}
	.st30{opacity:0.98;fill:#558ED5;}
	.st31{opacity:0.9;fill:#558ED5;}
	.st32{opacity:0.65;fill:#CD1618;}
	.st33{opacity:0.65;fill:#0B4A99;}
	.st34{opacity:0.65;fill:#F0AB00;}
	.st35{fill:#F0AB00;stroke:#000000;stroke-width:0.5;stroke-miterlimit:10;}
	.st36{fill:#26774B;stroke:#000000;stroke-width:0.5;stroke-miterlimit:10;}
	.st37{fill:#A8A240;stroke:#000000;stroke-width:0.5;stroke-miterlimit:10;}
</style>
<path class="st9" d="M68.2,87H15.7c-2.9,0-5.5-1.3-7.3-3.6c-1.7-2.3-2.3-5.2-1.5-8l18.3-63c0.2-0.8,0.9-1.3,1.7-1.3h67.8
	c0.6,0,1.1,0.3,1.4,0.7c0.3,0.5,0.4,1,0.3,1.6L77,80.4C75.8,84.3,72.3,87,68.2,87z"/>
<path class="st10" d="M2.3,73.8L2.3,73.8L16.5,28c-2.7-0.1-5.4,0.5-7.7,1.7c-5.4,2.7-8.4,8.6-8.1,14.6L2.3,73.8z"/>
<polygon class="st11" points="87.5,20.4 30.2,20.4 32.3,14 89.6,14 "/>
<rect x="30" y="31" class="st1" width="35.3" height="1.2"/>
<rect x="26.7" y="35" class="st1" width="22.3" height="1.2"/>
<rect x="30.1" y="23.4" class="st1" width="27.4" height="1.2"/>
<rect x="52.8" y="35" class="st1" width="6.4" height="1.2"/>
<rect x="62.6" y="35" class="st1" width="10" height="1.2"/>
<path class="st10" d="M6.4,88.9h75c1.4,0,2.7-0.9,3.2-2.3l14.4-42c1-3-1.2-6.2-4.4-6.2h-2.1l2-5.3c1.1-3.1-1.1-6.3-4.4-6.3h-6.6
	c-2.8,0-5.6,1-7.8,2.8L65,38.5H26.3c-4.3,0-8.2,2.7-9.6,6.8L3.2,84.4C2.4,86.6,4.1,88.9,6.4,88.9"/>
<rect x="37.8" y="27.1" class="st1" width="4.5" height="1.2"/>
<rect x="49" y="27.1" class="st1" width="21.9" height="1.2"/>
<rect x="59.2" y="23.4" class="st1" width="7.5" height="1.2"/>
<rect x="70.9" y="23.4" class="st1" width="11.5" height="1.2"/>
</svg>
