<?xml version="1.0" encoding="utf-8"?>
<!-- Generator: Adobe Illustrator 22.0.1, SVG Export Plug-In . SVG Version: 6.00 Build 0)  -->
<svg version="1.1" id="Layer_1" xmlns="http://www.w3.org/2000/svg" xmlns:xlink="http://www.w3.org/1999/xlink" x="0px" y="0px"
	 viewBox="0 0 409 311.5" style="enable-background:new 0 0 409 311.5;" xml:space="preserve">
<style type="text/css">
	.st0{fill:#F0AB00;}
	.st1{fill:#558ED5;}
	.st2{fill:#05225F;}
	.st3{fill:#0B4A99;}
	.st4{fill:#CD1618;}
	.st5{fill:#2665AA;}
	.st6{fill:#3779BF;}
	.st7{fill:#002060;}
	.st8{fill:none;stroke:#000000;stroke-width:1.5;stroke-miterlimit:10;}
	.st9{fill:#40875E;}
	.st10{fill:#A8A240;}
	.st11{fill:#000102;}
	.st12{fill:none;stroke:#000102;stroke-width:1.5;stroke-miterlimit:10;}
	.st13{fill:none;stroke:#0B4A99;stroke-miterlimit:10;}
	.st14{fill:#0071C5;}
	.st15{fill:#26774B;}
	.st16{fill:#B91218;}
	.st17{fill:#BFBFBF;}
	.st18{fill:#A70000;}
	.st19{fill-rule:evenodd;clip-rule:evenodd;fill:#0B4A99;}
	.st20{fill-rule:evenodd;clip-rule:evenodd;fill:#002060;}
	.st21{fill-rule:evenodd;clip-rule:evenodd;fill:#40875E;}
	.st22{fill-rule:evenodd;clip-rule:evenodd;fill:#A8A240;}
	.st23{fill:#5E6D61;}
	.st24{opacity:0.65;fill:#558ED5;}
	.st25{opacity:0.55;fill:#CD1618;}
	.st26{opacity:0.65;fill:#002060;}
	.st27{opacity:0.65;}
	.st28{opacity:0.65;fill:#26774B;}
	.st29{opacity:0.23;fill:#26774B;}
	.st30{opacity:0.98;fill:#558ED5;}
	.st31{opacity:0.9;fill:#558ED5;}
	.st32{opacity:0.65;fill:#CD1618;}
	.st33{opacity:0.65;fill:#0B4A99;}
	.st34{opacity:0.65;fill:#F0AB00;}
	.st35{fill:#F0AB00;stroke:#000000;stroke-width:0.5;stroke-miterlimit:10;}
	.st36{fill:#26774B;stroke:#000000;stroke-width:0.5;stroke-miterlimit:10;}
	.st37{fill:#A8A240;stroke:#000000;stroke-width:0.5;stroke-miterlimit:10;}
	.st38{fill:#6D6E71;}
	.st39{fill:none;stroke:#07357A;stroke-width:0.8489;stroke-linejoin:round;stroke-miterlimit:10;}
	.st40{fill:#939598;}
	.st41{fill:#C2C3C9;}
	.st42{fill:#FFFFFF;}
</style>
<path class="st40" d="M310.9,155.8c-0.6-2.4-2.5-4.4-4.9-5c-1.1-23.9-10.5-45.6-25.3-62.3c1.3-2.2,1.2-4.9-0.1-7l24.3-24.3l-2.4-2.4
	L278.3,79c-2.2-1.3-4.9-1.3-7.1,0C253.3,63.4,230,54,204.5,54c-25.7,0-49.2,9.6-67.1,25.4c-2.1-1-4.6-0.9-6.6,0.3l-24.3-24.3
	l-2.4,2.4l24.3,24.3c-1.2,2-1.3,4.5-0.3,6.6c-14.7,16.8-24,38.4-25.1,62.2c-2.3,0.7-4.1,2.6-4.7,5H64.1v3.3h34.3
	c0.6,2.4,2.5,4.4,4.9,5c1.8,22.4,10.9,42.6,24.9,58.5c-1.2,2.2-1.2,4.8,0.1,7L104,253.9l2.4,2.4l24.3-24.3c2.1,1.3,4.8,1.3,7,0.1
	c17.9,15.6,41.3,25.1,66.9,25.1c25.7,0,49.1-9.5,67-25.2c2.2,1.2,4.8,1.1,6.9-0.2l24.3,24.3l2.4-2.4l-24.3-24.3
	c1.3-2.1,1.3-4.7,0.2-6.9c13.9-15.9,23-36.1,24.9-58.5c2.5-0.6,4.5-2.6,5.1-5.1h34.3v-3.3H310.9z M301.5,163.8
	c-1.7,20.8-10,40.2-23.7,55.9c-2.6-1.2-5.8-0.8-7.9,1.3c-2.1,2.1-2.6,5.3-1.3,7.9c-17.7,15.5-40.2,24-64,24c-23.8,0-46.3-8.5-64-24
	c1.2-2.6,0.7-5.7-1.4-7.8c-2.1-2.1-5.2-2.6-7.8-1.4c-13.8-15.7-22-35.1-23.8-55.9c2.6-1,4.5-3.5,4.5-6.5c0-3.1-2-5.6-4.7-6.6
	c1.1-22,9.4-42.6,23.8-59.1c2.6,1.4,6,1,8.2-1.2c2.2-2.2,2.6-5.6,1.2-8.2c17.7-15.5,40.2-24,64-24c23.7,0,46.1,8.4,63.8,23.9
	c-1.1,2.5-0.6,5.6,1.4,7.7c2.1,2.1,5.2,2.6,7.7,1.4c14.7,16.6,23.2,37.5,24.2,59.7c-2.6,1-4.5,3.5-4.5,6.5
	C297.2,160.3,299,162.8,301.5,163.8z"/>
<g>
	<path class="st41" d="M284.9,154.5c0-20.7-7.7-39.6-20.5-54c-14.8-15.5-35.7-25.2-58.9-25.2c-45,0-81.5,36.5-81.5,81.5
		c0,20.7,7.7,39.6,20.5,54c14.8,15.5,35.7,25.2,58.9,25.2C248.4,235.9,284.9,199.5,284.9,154.5z"/>
</g>
<g>
	<path class="st42" d="M274,154.6c0-17.9-6.7-34.2-17.7-46.7c-12.8-13.4-30.9-21.8-50.9-21.8c-38.9,0-70.4,31.5-70.4,70.4
		c0,17.9,6.7,34.2,17.7,46.7c12.8,13.4,30.9,21.8,50.9,21.8C242.5,225.1,274,193.5,274,154.6z"/>
</g>
<g>
	<path class="st41" d="M130.2,41.9c0-10-3.7-19.1-9.9-26.1C113.1,8.3,103,3.7,91.8,3.7C70.1,3.7,52.4,21.3,52.4,43
		c0,10,3.7,19.1,9.9,26.1c7.2,7.5,17.3,12.2,28.5,12.2C112.5,81.3,130.2,63.7,130.2,41.9z"/>
</g>
<g>
	<g>
		<g>
			<g>
				<path class="st42" d="M121,42c0,16.6-13.5,30.1-30.1,30.1c-16.6,0-30.1-13.5-30.1-30.1C60.9,25.4,74.3,12,90.9,12
					C107.5,12,121,25.4,121,42z"/>
			</g>
		</g>
	</g>
	<g>
		<path class="st42" d="M121,42c0-7.6-2.9-14.6-7.5-19.9c-5.5-5.7-13.2-9.3-21.7-9.3c-16.6,0-30.1,13.5-30.1,30.1
			c0,7.6,2.9,14.6,7.5,19.9c5.5,5.7,13.2,9.3,21.7,9.3C107.5,72.1,121,58.6,121,42z"/>
	</g>
	<g>
		<g>
			<path class="st42" d="M117.9,28.9c1.7,3.7,2.6,7.9,2.6,12.2c0,16.6-13.5,30.1-30.1,30.1c-10,0-18.8-4.9-24.3-12.3
				c0.9,1.4,1.9,2.8,3,4c5.5,5.7,13.2,9.3,21.7,9.3c16.6,0,30.1-13.5,30.1-30.1C121,37.3,119.9,32.8,117.9,28.9z"/>
		</g>
	</g>
</g>
<g>
	<path class="st41" d="M129.8,268.5c0-10-3.7-19.1-9.9-26.1c-7.2-7.5-17.3-12.2-28.5-12.2c-21.7,0-39.4,17.6-39.4,39.4
		c0,10,3.7,19.1,9.9,26.1c7.2,7.5,17.3,12.2,28.5,12.2C112.2,307.8,129.8,290.2,129.8,268.5z"/>
</g>
<g>
	<g>
		<g>
			<g>
				<path class="st42" d="M120.6,268.6c0,16.6-13.5,30.1-30.1,30.1c-16.6,0-30.1-13.5-30.1-30.1c0-16.6,13.5-30.1,30.1-30.1
					C107.1,238.6,120.6,252,120.6,268.6z"/>
			</g>
		</g>
	</g>
	<g>
		<path class="st42" d="M120.6,268.6c0-7.6-2.9-14.6-7.5-19.9c-5.5-5.7-13.2-9.3-21.7-9.3c-16.6,0-30.1,13.5-30.1,30.1
			c0,7.6,2.9,14.6,7.5,19.9c5.5,5.7,13.2,9.3,21.7,9.3C107.1,298.7,120.6,285.2,120.6,268.6z"/>
	</g>
	<g>
		<g>
			<path class="st42" d="M117.5,255.4c1.7,3.7,2.6,7.9,2.6,12.2c0,16.6-13.5,30.1-30.1,30.1c-10,0-18.8-4.9-24.3-12.3
				c0.9,1.4,1.9,2.8,3,4c5.5,5.7,13.2,9.3,21.7,9.3c16.6,0,30.1-13.5,30.1-30.1C120.6,263.9,119.5,259.4,117.5,255.4z"/>
		</g>
	</g>
</g>
<g>
	<path class="st41" d="M403.9,155.1c0-10-3.7-19.1-9.9-26.1c-7.2-7.5-17.3-12.2-28.5-12.2c-21.7,0-39.4,17.6-39.4,39.4
		c0,10,3.7,19.1,9.9,26.1c7.2,7.5,17.3,12.2,28.5,12.2C386.3,194.4,403.9,176.8,403.9,155.1z"/>
</g>
<g>
	<g>
		<g>
			<g>
				<path class="st42" d="M394.7,155.2c0,16.6-13.5,30.1-30.1,30.1c-16.6,0-30.1-13.5-30.1-30.1c0-16.6,13.5-30.1,30.1-30.1
					C381.2,125.2,394.7,138.6,394.7,155.2z"/>
			</g>
		</g>
	</g>
	<g>
		<path class="st42" d="M394.7,155.2c0-7.6-2.9-14.6-7.5-19.9c-5.5-5.7-13.2-9.3-21.7-9.3c-16.6,0-30.1,13.5-30.1,30.1
			c0,7.6,2.9,14.6,7.5,19.9c5.5,5.7,13.2,9.3,21.7,9.3C381.2,185.3,394.7,171.8,394.7,155.2z"/>
	</g>
	<g>
		<g>
			<path class="st42" d="M391.7,142c1.7,3.7,2.6,7.9,2.6,12.2c0,16.6-13.5,30.1-30.1,30.1c-10,0-18.8-4.9-24.3-12.3
				c0.9,1.4,1.9,2.8,3,4c5.5,5.7,13.2,9.3,21.7,9.3c16.6,0,30.1-13.5,30.1-30.1C394.7,150.5,393.6,146,391.7,142z"/>
		</g>
	</g>
</g>
<g>
	<path class="st41" d="M356.7,41.5c0-10-3.7-19.1-9.9-26.1c-7.2-7.5-17.3-12.2-28.5-12.2c-21.7,0-39.4,17.6-39.4,39.4
		c0,10,3.7,19.1,9.9,26.1c7.2,7.5,17.3,12.2,28.5,12.2C339,80.9,356.7,63.2,356.7,41.5z"/>
</g>
<g>
	<g>
		<g>
			<g>
				<path class="st42" d="M347.5,41.6c0,16.6-13.5,30.1-30.1,30.1s-30.1-13.5-30.1-30.1c0-16.6,13.5-30.1,30.1-30.1
					S347.5,25,347.5,41.6z"/>
			</g>
		</g>
	</g>
	<g>
		<path class="st42" d="M347.5,41.6c0-7.6-2.9-14.6-7.5-19.9c-5.5-5.7-13.2-9.3-21.7-9.3c-16.6,0-30.1,13.5-30.1,30.1
			c0,7.6,2.9,14.6,7.5,19.9c5.5,5.7,13.2,9.3,21.7,9.3C334,71.7,347.5,58.2,347.5,41.6z"/>
	</g>
	<g>
		<g>
			<path class="st42" d="M344.4,28.4c1.7,3.7,2.6,7.9,2.6,12.2c0,16.6-13.5,30.1-30.1,30.1c-10,0-18.8-4.9-24.3-12.3
				c0.9,1.4,1.9,2.8,3,4c5.5,5.7,13.2,9.3,21.7,9.3c16.6,0,30.1-13.5,30.1-30.1C347.5,36.9,346.4,32.4,344.4,28.4z"/>
		</g>
	</g>
</g>
<g>
	<path class="st41" d="M357.5,268.9c0-10-3.7-19.1-9.9-26.1c-7.2-7.5-17.3-12.2-28.5-12.2c-21.7,0-39.4,17.6-39.4,39.4
		c0,10,3.7,19.1,9.9,26.1c7.2,7.5,17.3,12.2,28.5,12.2C339.8,308.3,357.5,290.6,357.5,268.9z"/>
</g>
<g>
	<g>
		<g>
			<g>
				<path class="st42" d="M348.3,269c0,16.6-13.5,30.1-30.1,30.1c-16.6,0-30.1-13.5-30.1-30.1c0-16.6,13.5-30.1,30.1-30.1
					C334.8,239,348.3,252.4,348.3,269z"/>
			</g>
		</g>
	</g>
	<g>
		<path class="st42" d="M348.3,269c0-7.6-2.9-14.6-7.5-19.9c-5.5-5.7-13.2-9.3-21.7-9.3c-16.6,0-30.1,13.5-30.1,30.1
			c0,7.6,2.9,14.6,7.5,19.9c5.5,5.7,13.2,9.3,21.7,9.3C334.8,299.1,348.3,285.6,348.3,269z"/>
	</g>
	<g>
		<g>
			<path class="st42" d="M345.2,255.9c1.7,3.7,2.6,7.9,2.6,12.2c0,16.6-13.5,30.1-30.1,30.1c-10,0-18.8-4.9-24.3-12.3
				c0.9,1.4,1.9,2.8,3,4c5.5,5.7,13.2,9.3,21.7,9.3c16.6,0,30.1-13.5,30.1-30.1C348.3,264.3,347.2,259.8,345.2,255.9z"/>
		</g>
	</g>
</g>
<g>
	<path class="st41" d="M82.8,155.1c0-10-3.7-19.1-9.9-26.1c-7.2-7.5-17.3-12.2-28.5-12.2c-21.7,0-39.4,17.6-39.4,39.4
		c0,10,3.7,19.1,9.9,26.1c7.2,7.5,17.3,12.2,28.5,12.2C65.2,194.4,82.8,176.8,82.8,155.1z"/>
</g>
<g>
	<g>
		<g>
			<g>
				<path class="st42" d="M73.6,155.2c0,16.6-13.5,30.1-30.1,30.1c-16.6,0-30.1-13.5-30.1-30.1c0-16.6,13.5-30.1,30.1-30.1
					C60.2,125.2,73.6,138.6,73.6,155.2z"/>
			</g>
		</g>
	</g>
	<g>
		<path class="st42" d="M73.6,155.2c0-7.6-2.9-14.6-7.5-19.9c-5.5-5.7-13.2-9.3-21.7-9.3c-16.6,0-30.1,13.5-30.1,30.1
			c0,7.6,2.9,14.6,7.5,19.9c5.5,5.7,13.2,9.3,21.7,9.3C60.2,185.3,73.6,171.8,73.6,155.2z"/>
	</g>
	<g>
		<g>
			<path class="st42" d="M70.6,142c1.7,3.7,2.6,7.9,2.6,12.2c0,16.6-13.5,30.1-30.1,30.1c-10,0-18.8-4.9-24.3-12.3
				c0.9,1.4,1.9,2.8,3,4c5.5,5.7,13.2,9.3,21.7,9.3c16.6,0,30.1-13.5,30.1-30.1C73.6,150.5,72.5,146,70.6,142z"/>
		</g>
	</g>
</g>
<path class="st0" d="M212,164.3c0-1.5-0.6-2.8-1.5-3.7l21.4-34.8l-2.2-1.3l-21.4,34.8c-0.5-0.2-1.1-0.3-1.6-0.3c-0.1,0-0.2,0-0.4,0
	l-6.3-19.9l-2.4,0.8l6.3,19.9c-1.5,0.9-2.6,2.6-2.6,4.6c0,1,0.3,1.9,0.8,2.7l-21.9,21.6l1.8,1.8l21.9-21.6c0.8,0.5,1.8,0.8,2.8,0.8
	c1.5,0,2.9-0.6,3.9-1.7l16.7,9.6l1.3-2.2l-16.7-9.6C212,165.3,212,164.8,212,164.3z"/>
<g>
	<path class="st10" d="M188.2,122.5c0-3.9,2.9-7.1,6.5-7.1c3.6,0,6.5,3.2,6.5,7.1c0,3.9-2.9,7.1-6.5,7.1
		C191.1,129.6,188.2,126.4,188.2,122.5z"/>
	<path class="st9" d="M207,138.3c0-4.4-3-8.2-7.1-9.3l-5.2,4.1l-5.2-4.1c-4.1,1.2-7.1,4.9-7.1,9.3v5.9h10.8l1.1-10.4h0.8l1.1,10.4
		H207V138.3z"/>
	<ellipse class="st10" cx="173" cy="166.2" rx="8.8" ry="9.5"/>
	<path class="st9" d="M189.4,187.4c0-5.9-4-10.9-9.4-12.5l-7,5.5l-7-5.5c-5.4,1.6-9.4,6.6-9.4,12.5v7.9H171l1.4-13.9h1.1l1.4,13.9
		h14.4V187.4z"/>
	<path class="st10" d="M227.5,115.2c0-2.9,2.2-5.2,4.8-5.2s4.8,2.3,4.8,5.2c0,2.9-2.2,5.2-4.8,5.2S227.5,118,227.5,115.2z"/>
	<path class="st9" d="M241.3,126.8c0-3.2-2.2-6-5.2-6.9l-3.8,3l-3.8-3c-3,0.9-5.2,3.6-5.2,6.9v4.3h7.9l0.8-7.6h0.6l0.8,7.6h7.9
		V126.8z"/>
	<path class="st10" d="M224.3,158c0-4.5,3.3-8.1,7.5-8.1s7.5,3.6,7.5,8.1c0,4.5-3.3,8.1-7.5,8.1S224.3,162.4,224.3,158z"/>
	<path class="st9" d="M245.7,176c0-5-3.4-9.3-8-10.7l-5.9,4.7l-5.9-4.7c-4.6,1.3-8,5.6-8,10.7v6.7h12.3l1.2-11.8h0.9l1.2,11.8h12.3
		V176z"/>
</g>
<path class="st10" d="M330.9,52.4l-4.2-4.2c2.2-2.6,3.5-6,3.5-9.7c0-8.3-6.7-15-15-15s-15,6.7-15,15s6.7,15,15,15
	c3.6,0,7-1.3,9.5-3.4l4.1,4L330.9,52.4z M328.2,38.6c0,7.1-5.8,12.9-12.9,12.9s-12.9-5.8-12.9-12.9s5.8-12.9,12.9-12.9
	S328.2,31.5,328.2,38.6z"/>
<g>
	<path class="st0" d="M308,35.4h15.7c0.3,0,0.5-0.2,0.5-0.5c0-0.3-0.2-0.5-0.5-0.5H308c-0.3,0-0.5,0.2-0.5,0.5
		C307.5,35.1,307.7,35.4,308,35.4z"/>
	<path class="st0" d="M323.7,38.5H308c-0.3,0-0.5,0.2-0.5,0.5s0.2,0.5,0.5,0.5h15.7c0.3,0,0.5-0.2,0.5-0.5S324,38.5,323.7,38.5z"/>
	<path class="st0" d="M318,42.8h-10c-0.3,0-0.5,0.2-0.5,0.5c0,0.3,0.2,0.5,0.5,0.5h10c0.3,0,0.5-0.2,0.5-0.5
		C318.6,43.1,318.3,42.8,318,42.8z"/>
</g>
<polygon class="st10" points="368.2,158.5 371.6,161.8 375.4,158.1 375.4,158.1 378.2,155.4 378.2,155.4 379.1,154.5 388.7,145.3 
	387.1,143.6 385.4,141.9 375.8,151.1 "/>
<polygon class="st0" points="370.6,162.9 367.2,159.5 365.4,164.7 370.5,162.9 "/>
<path class="st9" d="M374.5,141.5c0.6,0.1,0.9,0.5,0.9,1v5.1c0.2-0.2,0.4-0.4,0.6-0.6l2.1-2.1v-2.8c0,0,0-0.2-0.1-0.4
	c-0.1-0.6-0.4-1.3-0.9-1.9c-0.6-0.6-1.2-1-1.8-1.1c-0.3-0.1-0.5-0.1-0.8-0.1h-22.5c-0.1,0-0.3,0-0.4,0c-0.2,0-0.4,0.1-0.5,0.1
	c-0.1,0-0.3,0.1-0.4,0.1c-0.1,0-0.3,0.1-0.4,0.2c-1,0.5-1.7,1.6-1.8,2.4c0,0.2-0.1,0.4-0.1,0.6v30.7c0,0,0,0.4,0.1,0.6
	c0,0.2,0.1,0.4,0.2,0.5c0,0.1,0.1,0.2,0.1,0.3c0.5,1,1.7,1.8,2.6,2c0.2,0,0.4,0.1,0.6,0.1h22.5c0,0,0.4,0,0.5-0.1
	c0.2,0,0.4-0.1,0.6-0.2c0.5-0.2,1-0.5,1.5-1c0.5-0.5,0.7-1.1,0.9-1.6c0-0.2,0.1-0.4,0.1-0.6v-13.7l-2.8,2.7v10.7c0,0.6-0.5,1-0.9,1
	h-22.4c-0.6-0.1-0.9-0.6-0.9-1v-30c0-0.1,0-0.2,0-0.2c0.1-0.5,0.6-0.8,0.9-0.8H374.5z"/>
<rect x="354.2" y="144.9" class="st0" width="17.4" height="4"/>
<rect x="354.2" y="167" class="st0" width="17.4" height="4"/>
<rect x="354.2" y="152.3" class="st0" width="8.7" height="4"/>
<rect x="354.2" y="160.2" class="st0" width="8.7" height="4"/>
<path class="st9" d="M326.1,51c0.1-0.1,1.7-1.7,2.4-2.6c0.2-0.3,0.7-0.3,0.9,0l7.4,7.5c0.2,0.2,0.2,0.6,0,0.9l-3.5,3.9
	c-0.2,0.3-0.7,0.3-0.9,0L325,53c-0.2-0.2-0.2-0.6,0-0.9L326.1,51z"/>
<path class="st9" d="M341.5,267.6h-2.2c-0.3,0-0.5-0.2-0.5-0.4c-0.2-0.8-0.5-1.5-0.9-2.2c-0.1-0.2-0.1-0.5,0.1-0.7l1.5-1.5
	c0.2-0.2,0.2-0.6,0-0.8l-2.7-2.7c-0.2-0.2-0.6-0.2-0.8,0l-1.5,1.5c-0.2,0.2-0.5,0.2-0.7,0.1c-0.7-0.4-1.5-0.7-2.2-0.9
	c-0.2-0.1-0.4-0.3-0.4-0.5v-2.2c0-0.3-0.3-0.6-0.6-0.6h-3.8c-0.3,0-0.6,0.3-0.6,0.6v2.2c0,0.3-0.2,0.5-0.4,0.5
	c-0.8,0.2-1.5,0.5-2.2,0.9c-0.2,0.1-0.5,0.1-0.7-0.1l-1.5-1.5c-0.2-0.2-0.6-0.2-0.8,0l-2.7,2.7c-0.2,0.2-0.2,0.6,0,0.8l1.5,1.5
	c0.2,0.2,0.2,0.5,0.1,0.7c-0.4,0.7-0.7,1.5-0.9,2.2c-0.1,0.2-0.3,0.4-0.5,0.4h-2.2c-0.3,0-0.6,0.3-0.6,0.6v3.8
	c0,0.3,0.3,0.6,0.6,0.6h2.2c0.3,0,0.5,0.2,0.5,0.4c0.2,0.8,0.5,1.5,0.9,2.2c0.1,0.2,0.1,0.5-0.1,0.7l-1.5,1.5
	c-0.2,0.2-0.2,0.6,0,0.8l2.7,2.7c0.2,0.2,0.6,0.2,0.8,0l1.5-1.5c0.2-0.2,0.5-0.2,0.7-0.1c0.7,0.4,1.5,0.7,2.2,0.9
	c0.2,0.1,0.4,0.3,0.4,0.5v2.2c0,0.3,0.3,0.6,0.6,0.6h3.8c0.3,0,0.6-0.3,0.6-0.6v-2.2c0-0.3,0.2-0.5,0.4-0.5c0.8-0.2,1.5-0.5,2.2-0.9
	c0.2-0.1,0.5-0.1,0.7,0.1l1.5,1.5c0.2,0.2,0.6,0.2,0.8,0l2.7-2.7c0.2-0.2,0.2-0.6,0-0.8l-1.5-1.5c-0.2-0.2-0.2-0.5-0.1-0.7
	c0.4-0.7,0.7-1.5,0.9-2.2c0.1-0.2,0.3-0.4,0.5-0.4h2.2c0.3,0,0.6-0.3,0.6-0.6v-3.8C342.1,267.8,341.9,267.6,341.5,267.6
	 M328.7,275.5c-3,0-5.5-2.4-5.5-5.5c0-3,2.4-5.5,5.5-5.5c3,0,5.5,2.4,5.5,5.5C334.2,273,331.8,275.5,328.7,275.5"/>
<path class="st0" d="M316.8,256.5h-1.3c-0.2,0-0.3-0.1-0.3-0.3c-0.1-0.5-0.3-0.9-0.6-1.3c-0.1-0.1-0.1-0.3,0.1-0.4l0.9-0.9
	c0.1-0.1,0.1-0.3,0-0.5l-1.6-1.6c-0.1-0.1-0.3-0.1-0.5,0l-0.9,0.9c-0.1,0.1-0.3,0.1-0.4,0.1c-0.4-0.2-0.9-0.4-1.3-0.6
	c-0.1,0-0.3-0.2-0.3-0.3v-1.3c0-0.2-0.2-0.3-0.3-0.3h-2.2c-0.2,0-0.3,0.2-0.3,0.3v1.3c0,0.2-0.1,0.3-0.3,0.3
	c-0.5,0.1-0.9,0.3-1.3,0.6c-0.1,0.1-0.3,0.1-0.4-0.1l-0.9-0.9c-0.1-0.1-0.3-0.1-0.5,0l-1.6,1.6c-0.1,0.1-0.1,0.3,0,0.5l0.9,0.9
	c0.1,0.1,0.1,0.3,0.1,0.4c-0.2,0.4-0.4,0.9-0.6,1.3c0,0.1-0.2,0.3-0.3,0.3h-1.3c-0.2,0-0.3,0.2-0.3,0.3v2.2c0,0.2,0.1,0.3,0.3,0.3
	h1.3c0.2,0,0.3,0.1,0.3,0.3c0.1,0.5,0.3,0.9,0.5,1.3c0.1,0.1,0.1,0.3-0.1,0.4l-0.9,0.9c-0.1,0.1-0.1,0.3,0,0.5l1.6,1.6
	c0.1,0.1,0.3,0.1,0.5,0l0.9-0.9c0.1-0.1,0.3-0.1,0.4-0.1c0.4,0.2,0.9,0.4,1.3,0.6c0.1,0,0.3,0.2,0.3,0.3v1.3c0,0.2,0.2,0.3,0.3,0.3
	h2.2c0.2,0,0.3-0.2,0.3-0.3v-1.3c0-0.2,0.1-0.3,0.3-0.3c0.5-0.1,0.9-0.3,1.3-0.6c0.1-0.1,0.3-0.1,0.4,0.1l0.9,0.9
	c0.1,0.1,0.3,0.1,0.5,0l1.6-1.6c0.1-0.1,0.1-0.3,0-0.5l-0.9-0.9c-0.1-0.1-0.1-0.3-0.1-0.4c0.2-0.4,0.4-0.9,0.6-1.3
	c0-0.1,0.2-0.3,0.3-0.3h1.3c0.2,0,0.3-0.2,0.3-0.3v-2.2C317.2,256.7,317,256.5,316.8,256.5 M309.2,261.2c-1.8,0-3.2-1.5-3.2-3.2
	c0-1.8,1.5-3.2,3.2-3.2c1.8,0,3.2,1.5,3.2,3.2C312.5,259.8,311,261.2,309.2,261.2"/>
<path class="st10" d="M315,274.5h-1.6c-0.2,0-0.4-0.1-0.4-0.3c-0.2-0.6-0.4-1.2-0.7-1.7c-0.1-0.2-0.1-0.4,0.1-0.5l1.2-1.2
	c0.2-0.2,0.2-0.4,0-0.6l-2-2c-0.2-0.2-0.4-0.2-0.6,0l-1.2,1.2c-0.1,0.1-0.3,0.2-0.5,0.1c-0.5-0.3-1.1-0.5-1.7-0.7
	c-0.2-0.1-0.3-0.2-0.3-0.4v-1.6c0-0.2-0.2-0.4-0.4-0.4h-2.9c-0.2,0-0.4,0.2-0.4,0.4v1.6c0,0.2-0.1,0.4-0.3,0.4
	c-0.6,0.2-1.2,0.4-1.7,0.7c-0.2,0.1-0.4,0.1-0.5-0.1l-1.2-1.2c-0.2-0.2-0.4-0.2-0.6,0l-2,2c-0.2,0.2-0.2,0.4,0,0.6l1.2,1.2
	c0.1,0.1,0.2,0.4,0.1,0.5c-0.3,0.5-0.5,1.1-0.7,1.7c-0.1,0.2-0.2,0.3-0.4,0.3h-1.6c-0.2,0-0.4,0.2-0.4,0.4v2.9
	c0,0.2,0.2,0.4,0.4,0.4h1.6c0.2,0,0.4,0.1,0.4,0.3c0.2,0.6,0.4,1.2,0.7,1.7c0.1,0.2,0.1,0.4-0.1,0.5l-1.2,1.2
	c-0.2,0.2-0.2,0.4,0,0.6l2,2c0.2,0.2,0.4,0.2,0.6,0l1.2-1.2c0.1-0.1,0.3-0.2,0.5-0.1c0.5,0.3,1.1,0.5,1.7,0.7
	c0.2,0.1,0.3,0.2,0.3,0.4v1.6c0,0.2,0.2,0.4,0.4,0.4h2.9c0.2,0,0.4-0.2,0.4-0.4v-1.6c0-0.2,0.1-0.4,0.3-0.4c0.6-0.2,1.2-0.4,1.7-0.7
	c0.2-0.1,0.4-0.1,0.5,0.1l1.2,1.2c0.2,0.2,0.4,0.2,0.6,0l2-2c0.2-0.2,0.2-0.4,0-0.6l-1.2-1.2c-0.1-0.1-0.2-0.4-0.1-0.5
	c0.3-0.5,0.5-1.1,0.7-1.7c0.1-0.2,0.2-0.3,0.4-0.3h1.6c0.2,0,0.4-0.2,0.4-0.4v-2.9C315.4,274.7,315.2,274.5,315,274.5 M305.3,280.5
	c-2.3,0-4.2-1.9-4.2-4.2s1.9-4.2,4.2-4.2c2.3,0,4.2,1.9,4.2,4.2S307.6,280.5,305.3,280.5"/>
<g>
	<path class="st9" d="M100.5,267.6c0-0.2,0.1-0.5,0.1-0.7c0-2.4-1.9-4.3-4.3-4.3c-0.5,0-1,0.1-1.5,0.3c-1.4-2.1-3.8-3.6-6.5-3.6
		c-4.3,0-7.8,3.5-7.8,7.8c0,0.2,0,0.4,0,0.6c-2.1,0.5-3.6,2.4-3.6,4.6c0,2.6,2.1,4.8,4.8,4.8h18c2.6,0,4.8-2.1,4.8-4.8
		C104.5,270,102.7,268,100.5,267.6z"/>
	<g>
		<g>
			<path class="st10" d="M68.2,277.5c-0.9-2.5-1.3-5.1-1.3-7.7c0-13,10.6-23.5,23.5-23.5c1.6,0,3.3,0.2,4.9,0.5l-0.7,3.2
				c-1.4-0.3-2.8-0.4-4.2-0.4c-11.2,0-20.3,9.1-20.3,20.3c0,2.3,0.4,4.5,1.1,6.7L68.2,277.5z"/>
			<g>
				<polygon class="st10" points="91.9,252.6 101.5,250.8 95.2,243.4 				"/>
			</g>
		</g>
	</g>
	<g>
		<g>
			<path class="st10" d="M90.5,293.3c-1.8,0-3.6-0.2-5.4-0.6l0.7-3.2c1.5,0.4,3.1,0.5,4.6,0.5c11.2,0,20.3-9.1,20.3-20.3
				c0-2.4-0.4-4.8-1.2-7l3.1-1.1c1,2.6,1.4,5.3,1.4,8.1C114,282.7,103.4,293.3,90.5,293.3z"/>
			<g>
				<polygon class="st10" points="88.6,286.8 79,288.4 85.1,295.9 				"/>
			</g>
		</g>
	</g>
</g>
<rect x="47.7" y="148.2" class="st9" width="9.6" height="22.1"/>
<rect x="36.4" y="154.5" class="st10" width="9.6" height="15.8"/>
<rect x="25.1" y="159.8" class="st0" width="9.6" height="10.5"/>
<path class="st0" d="M44,134.9l3.1,1.5c-6.7,15.8-23.8,14.4-23.8,14.4c16.7,3.6,23.2-5.1,27.4-12.1l3,1.8l-1.5-9.1L44,134.9z"/>
<polygon class="st9" points="60.4,140.1 60.4,170.1 21.1,170.1 21.1,171.8 60.4,171.8 62,171.8 62.2,171.8 62.2,140.1 "/>
<g>
	<path class="st9" d="M110.4,62.6L110.4,62.6c-0.9,0.8-2.1,0.8-2.8,0l-7.9-10.1l1.7-1.5l9.2,8.9C111.4,60.5,111.3,61.8,110.4,62.6z"
		/>
	<path class="st9" d="M99.9,57.2l1.4-0.1v0.4c0,0.9-0.8,1.7-1.7,1.7H74.1c-0.9,0-1.7-0.8-1.7-1.7V23.7c0-0.9,0.8-1.7,1.7-1.7h5.4
		l-0.2,0.9c0,0.1,0,0.1,0,0.2v3.9c0,0.5,0.4,1,1,1h13.3c0.5,0,1-0.4,1-1V23c0-0.1,0-0.1,0-0.2L94.3,22h5.4c0.9,0,1.7,0.8,1.7,1.7
		l0,13l-1.5-0.1V23.7c0-0.1-0.1-0.2-0.2-0.2h-3.7v3.5c0,1.3-1.1,2.4-2.4,2.4H80.2c-1.3,0-2.4-1.1-2.4-2.4v-3.5h-3.7
		c-0.1,0-0.2,0.1-0.2,0.2v33.8c0,0.1,0.1,0.2,0.2,0.2h25.6c0.1,0,0.2-0.1,0.2-0.2V57.2z"/>
	<path class="st10" d="M81,27h11.7c0.5,0,0.8-0.4,0.8-0.8v-3.4c0-0.5-0.4-0.9-0.8-0.9h-3.2c0-1.4-1.2-2.6-2.7-2.6
		c-1.5,0-2.7,1.1-2.7,2.6H81c-0.5,0-0.9,0.4-0.9,0.9v3.4C80.2,26.6,80.6,27,81,27L81,27z"/>
	<path class="st9" d="M84.1,33.3L83.8,33c-0.1-0.1-0.3-0.1-0.5,0l-3.2,3.2l-1.7-1.7c-0.1-0.1-0.3-0.1-0.5,0l-0.3,0.3
		c-0.1,0.1-0.1,0.3,0,0.5l2.2,2.2c0.1,0.1,0.1,0.1,0.2,0.1c0.1,0,0.2,0,0.2-0.1l3.7-3.7C84.2,33.7,84.2,33.5,84.1,33.3L84.1,33.3z"
		/>
	<path class="st0" d="M84.4,37.6c0,0.6-0.5,1.1-1.1,1.1h-4.7c-0.6,0-1.1-0.5-1.1-1.1v-4.7c0-0.6,0.5-1.1,1.1-1.1h4.7
		c0.6,0,1.1,0.5,1.1,1.1V37.6z M85,32.5c0-0.7-0.6-1.3-1.3-1.3h-5.5c-0.7,0-1.3,0.6-1.3,1.3V38c0,0.7,0.6,1.2,1.3,1.2h5.5
		c0.7,0,1.3-0.6,1.3-1.2V32.5z"/>
	<path class="st9" d="M84.1,46.8l-0.3-0.3c-0.1-0.1-0.3-0.1-0.5,0l-3.2,3.2l-1.7-1.7c-0.1-0.1-0.3-0.1-0.5,0l-0.3,0.3
		c-0.1,0.1-0.1,0.3,0,0.5L80,51c0.1,0.1,0.1,0.1,0.2,0.1c0.1,0,0.2,0,0.2-0.1l3.7-3.7C84.2,47.2,84.2,47,84.1,46.8L84.1,46.8z"/>
	<path class="st0" d="M84.4,51.1c0,0.6-0.5,1.1-1.1,1.1h-4.7c-0.6,0-1.1-0.5-1.1-1.1v-4.7c0-0.6,0.5-1.1,1.1-1.1h4.7
		c0.6,0,1.1,0.5,1.1,1.1V51.1z M85,46c0-0.7-0.6-1.3-1.3-1.3h-5.5c-0.7,0-1.3,0.6-1.3,1.3v5.5c0,0.7,0.6,1.3,1.3,1.3h5.5
		c0.7,0,1.3-0.6,1.3-1.3V46z"/>
	<path class="st0" d="M97.2,34.6c0,0.5-0.3,0.9-0.8,0.9h-8.5c-0.4,0-0.8-0.4-0.8-0.9l0,0c0-0.5,0.3-0.9,0.8-0.9h8.5
		C96.9,33.7,97.2,34.1,97.2,34.6L97.2,34.6z"/>
	<path class="st0" d="M86.9,41.7c0,0.5-0.3,0.9-0.8,0.9h-8.5c-0.4,0-0.8-0.4-0.8-0.9l0,0c0-0.5,0.3-0.9,0.8-0.9h8.5
		C86.6,40.9,86.9,41.3,86.9,41.7L86.9,41.7z"/>
	<path class="st10" d="M96.5,38.1c-4.3-0.4-8.2,2.8-8.6,7.1c-0.4,4.3,2.8,8.2,7.1,8.6c4.3,0.4,8.2-2.8,8.6-7.1
		C104,42.3,100.8,38.5,96.5,38.1z M95.2,51.9c-3.3-0.3-5.7-3.2-5.4-6.5c0.3-3.3,3.2-5.7,6.5-5.4c3.3,0.3,5.7,3.2,5.4,6.5
		C101.4,49.8,98.5,52.2,95.2,51.9z"/>
</g>
</svg>
