<svg id="Layer_1" data-name="Layer 1" xmlns="http://www.w3.org/2000/svg" viewBox="0 0 262.6 198.01"><defs><style>.cls-1,.cls-9{fill:#a8a240;}.cls-2,.cls-4,.cls-8{fill:#26774b;}.cls-3,.cls-4,.cls-5,.cls-6{opacity:0.65;}.cls-4,.cls-5,.cls-6{isolation:isolate;}.cls-5{fill:#558ed5;}.cls-6,.cls-7{fill:#f0ab00;}.cls-7,.cls-8,.cls-9{stroke:#000;stroke-miterlimit:10;stroke-width:0.5px;}</style></defs><title>Business_Partner_Registration-Icons-06</title><polygon class="cls-1" points="25.6 52.1 12.9 52.1 9.3 162.9 29.2 162.9 25.6 52.1"/><polygon class="cls-2" points="19.2 52.1 12.9 52.1 9.3 162.9 19.2 162.9 19.2 52.1"/><path class="cls-2" d="M115.8,84h-4.4V69.8a6.6,6.6,0,0,0-6.5-6.7H83.2a6.6,6.6,0,0,0-6.5,6.7V84H72.3V69.8A11.06,11.06,0,0,1,83.2,58.6h21.7a11.06,11.06,0,0,1,10.9,11.2Z" transform="translate(-4 -7.5)"/><rect class="cls-2" x="9.3" y="89.3" width="19.9" height="5.1"/><rect class="cls-2" x="7.8" y="126.3" width="22.9" height="5.1"/><g class="cls-3"><polygon class="cls-2" points="55 183.6 54.2 181.3 68.8 163.9 69.6 166.2 55 183.6"/><polygon class="cls-2" points="55 160.1 54.2 157.7 68.8 140.3 69.6 142.6 55 160.1"/><polygon class="cls-2" points="55 136.5 54.2 134.2 68.8 116.8 69.6 119.1 55 136.5"/><polygon class="cls-2" points="68.8 183.6 54.2 166.2 55 163.9 69.6 181.3 68.8 183.6"/><polygon class="cls-2" points="68.8 160.1 54.2 142.6 55 140.3 69.6 157.7 68.8 160.1"/><polygon class="cls-2" points="68.8 136.5 54.2 119.1 55 116.8 69.6 134.2 68.8 136.5"/><polygon class="cls-2" points="71.9 183.6 71.1 181.3 85.6 163.9 86.4 166.2 71.9 183.6"/><polygon class="cls-2" points="71.9 160.1 71.1 157.7 85.6 140.3 86.4 142.6 71.9 160.1"/><polygon class="cls-2" points="71.9 136.5 71.1 134.2 85.6 116.8 86.4 119.1 71.9 136.5"/><polygon class="cls-2" points="85.6 183.6 71.1 166.2 71.9 163.9 86.4 181.3 85.6 183.6"/><polygon class="cls-2" points="85.6 160.1 71.1 142.6 71.9 140.3 86.4 157.7 85.6 160.1"/><polygon class="cls-2" points="85.6 136.5 71.1 119.1 71.9 116.8 86.4 134.2 85.6 136.5"/><rect class="cls-2" x="52.2" y="110.9" width="3.6" height="79.8"/><rect class="cls-2" x="68.7" y="110.9" width="3.6" height="79.8"/><rect class="cls-2" x="85.1" y="110.9" width="3.6" height="79.8"/></g><rect class="cls-4" x="45.7" y="107.5" width="49.7" height="3.4"/><rect class="cls-2" x="45.7" y="96.7" width="49.7" height="1.7"/><rect class="cls-4" x="45.7" y="96.7" width="2.1" height="10.8"/><rect class="cls-5" x="61.5" y="96.7" width="2.1" height="10.8"/><rect class="cls-5" x="77.4" y="96.7" width="2.1" height="10.8"/><g class="cls-3"><polygon class="cls-2" points="94.5 183.6 93.7 181.3 108.3 163.9 109.1 166.2 94.5 183.6"/><polygon class="cls-2" points="94.5 160.1 93.7 157.7 108.3 140.3 109.1 142.6 94.5 160.1"/><polygon class="cls-2" points="94.5 136.5 93.7 134.2 108.3 116.8 109.1 119.1 94.5 136.5"/><polygon class="cls-2" points="108.3 183.6 93.7 166.2 94.5 163.9 109.1 181.3 108.3 183.6"/><polygon class="cls-2" points="108.3 160.1 93.7 142.6 94.5 140.3 109.1 157.7 108.3 160.1"/><polygon class="cls-2" points="108.3 136.5 93.7 119.1 94.5 116.8 109.1 134.2 108.3 136.5"/><polygon class="cls-2" points="111.3 183.6 110.5 181.3 125.1 163.9 125.9 166.2 111.3 183.6"/><polygon class="cls-2" points="111.3 160.1 110.5 157.7 125.1 140.3 125.9 142.6 111.3 160.1"/><polygon class="cls-2" points="111.3 136.5 110.5 134.2 125.1 116.8 125.9 119.1 111.3 136.5"/><polygon class="cls-2" points="125.1 183.6 110.5 166.2 111.3 163.9 125.9 181.3 125.1 183.6"/><polygon class="cls-2" points="125.1 160.1 110.5 142.6 111.3 140.3 125.9 157.7 125.1 160.1"/><polygon class="cls-2" points="125.1 136.5 110.5 119.1 111.3 116.8 125.9 134.2 125.1 136.5"/><rect class="cls-2" x="91.7" y="110.9" width="3.6" height="79.8"/><rect class="cls-2" x="108.2" y="110.9" width="3.6" height="79.8"/><rect class="cls-2" x="124.6" y="110.9" width="3.6" height="79.8"/></g><rect class="cls-4" x="85.1" y="107.5" width="49.7" height="3.4"/><rect class="cls-4" x="85.1" y="96.7" width="49.7" height="1.7"/><rect class="cls-5" x="101" y="96.7" width="2.1" height="10.8"/><rect class="cls-5" x="116.8" y="96.7" width="2.1" height="10.8"/><path class="cls-1" d="M114,79.6A16.22,16.22,0,0,0,97.8,95.9v71.7a16.2,16.2,0,1,0,32.4,0V95.9A16.28,16.28,0,0,0,114,79.6Z" transform="translate(-4 -7.5)"/><path class="cls-2" d="M113.8,79.6a16.24,16.24,0,0,0-16,16.3v71.7a16.31,16.31,0,0,0,16,16.3Z" transform="translate(-4 -7.5)"/><rect class="cls-4" x="132.7" y="96.7" width="2.1" height="10.8"/><rect class="cls-1" x="37.6" y="160" width="57.7" height="30.7"/><rect class="cls-1" y="160" width="37.6" height="30.7"/><rect class="cls-1" x="106.9" y="135.1" width="42.2" height="55.6"/><rect class="cls-1" x="79.5" y="135.1" width="27.4" height="55.6"/><rect class="cls-2" x="40.8" y="128.3" width="7" height="31.7"/><rect class="cls-2" x="44.3" y="164.1" width="30" height="2.7"/><rect class="cls-2" x="44.3" y="170.4" width="30" height="2.7"/><rect class="cls-6" x="44.3" y="176.6" width="30" height="2.7"/><rect class="cls-2" x="44.3" y="182.9" width="30" height="2.7"/><rect class="cls-2" x="4.7" y="164.1" width="4.6" height="5.4"/><rect class="cls-2" x="12.8" y="164.1" width="4.6" height="5.4"/><rect class="cls-2" x="20.9" y="164.1" width="4.6" height="5.4"/><rect class="cls-2" x="29" y="164.1" width="4.6" height="5.4"/><rect class="cls-2" x="4.7" y="172.3" width="4.6" height="5.4"/><rect class="cls-2" x="12.8" y="172.3" width="4.6" height="5.4"/><rect class="cls-2" x="20.9" y="172.3" width="4.6" height="5.4"/><rect class="cls-2" x="29" y="172.3" width="4.6" height="5.4"/><rect class="cls-2" x="4.7" y="180.5" width="4.6" height="5.4"/><rect class="cls-2" x="12.8" y="180.5" width="4.6" height="5.4"/><rect class="cls-2" x="20.9" y="180.5" width="4.6" height="5.4"/><rect class="cls-2" x="29" y="180.5" width="4.6" height="5.4"/><path class="cls-2" d="M139.7,183.6a7.7,7.7,0,1,0-15.4,0h0v14.5h15.3l.1-14.5Z" transform="translate(-4 -7.5)"/><rect class="cls-2" x="86.3" y="140.3" width="13.9" height="7.3"/><rect class="cls-1" x="86.3" y="152.2" width="13.9" height="7.3"/><rect class="cls-2" x="86.3" y="164" width="13.9" height="7.3"/><rect class="cls-2" x="86.3" y="175.9" width="13.9" height="7.3"/><rect class="cls-2" x="111.8" y="140.3" width="7.7" height="7.3"/><rect class="cls-2" x="124" y="140.3" width="7.7" height="7.3"/><rect class="cls-2" x="136.1" y="140.3" width="7.7" height="7.3"/><rect class="cls-2" x="111.8" y="152.2" width="7.7" height="7.3"/><rect class="cls-2" x="111.8" y="164" width="7.7" height="7.3"/><rect class="cls-2" x="136.1" y="164" width="7.7" height="7.3"/><rect class="cls-2" x="124" y="152.2" width="7.7" height="7.3"/><rect class="cls-2" x="136.1" y="152.2" width="7.7" height="7.3"/><polygon class="cls-1" points="172.5 50.9 182.9 50.9 185.8 141.3 169.6 141.3 172.5 50.9"/><polygon class="cls-2" points="178.2 50.9 182.9 50.9 185.8 141.3 178.2 141.3 178.2 50.9"/><rect class="cls-1" x="160.7" y="138.3" width="23" height="27.9"/><rect class="cls-1" x="177.1" y="138.3" width="17.9" height="27.9"/><rect class="cls-1" x="147.9" y="162.2" width="59.6" height="27.9"/><rect class="cls-2" x="181.3" y="142.5" width="9.8" height="3.2"/><rect class="cls-2" x="163.1" y="142.5" width="9.8" height="3.2"/><rect class="cls-2" x="163.1" y="148.3" width="9.8" height="3.2"/><rect class="cls-2" x="163.1" y="154.2" width="9.8" height="3.2"/><rect class="cls-2" x="181.3" y="148.3" width="9.8" height="3.2"/><rect class="cls-2" x="181.3" y="154.2" width="9.8" height="3.2"/><rect class="cls-2" x="183.7" y="173.2" width="18" height="16.7"/><rect class="cls-2" x="193.1" y="173.6" width="8" height="16.3"/><rect class="cls-2" x="184.4" y="173.6" width="8" height="16.3"/><rect class="cls-2" x="152.9" y="173.4" width="18" height="16.7"/><rect class="cls-2" x="162.3" y="173.8" width="8" height="16.3"/><rect class="cls-2" x="153.6" y="173.8" width="8" height="16.3"/><path class="cls-2" d="M178.8,177.4a2.4,2.4,0,1,0,2.4-2.4A2.37,2.37,0,0,0,178.8,177.4Z" transform="translate(-4 -7.5)"/><rect class="cls-2" x="169.6" y="81.2" width="16.2" height="4.2"/><rect class="cls-2" x="168.3" y="111.4" width="18.7" height="4.2"/><path class="cls-6" d="M184.6,38.5a5.16,5.16,0,0,0-5.2-5.2,5.23,5.23,0,0,0-5.2,5.2,5.16,5.16,0,0,0,5.2,5.2A5.29,5.29,0,0,0,184.6,38.5Z" transform="translate(-4 -7.5)"/><path class="cls-6" d="M235.6,65.2a6.7,6.7,0,1,0,6.7,6.7A6.7,6.7,0,0,0,235.6,65.2Z" transform="translate(-4 -7.5)"/><path class="cls-6" d="M222.3,57.6a4.1,4.1,0,1,0,4.1,4.1A4.06,4.06,0,0,0,222.3,57.6Z" transform="translate(-4 -7.5)"/><path class="cls-6" d="M248.3,7.5a18.32,18.32,0,0,0-18.2,16.3,19.19,19.19,0,0,0-6,3.6,13.69,13.69,0,0,0-10.4-4.8,14,14,0,0,0-10,4.3,3.41,3.41,0,0,0-2.4-.9,3.61,3.61,0,0,0-3.6,3.7,3.66,3.66,0,0,0,2.6,3.5,13.45,13.45,0,0,0-.5,3.5c0,.4.1.8.1,1.3a7.79,7.79,0,0,0-4.3-1.3,8.07,8.07,0,0,0-8.1,8.1c0,.4.1.9.1,1.3-.2,0-.5-.1-.7-.1a5.1,5.1,0,1,0,0,10.2,5.06,5.06,0,0,0,5-4.2,18,18,0,0,0,2.1.8,6,6,0,0,0,5.7,4.4,5.83,5.83,0,0,0,2.6-.6,5.54,5.54,0,0,0,2.6.6,6,6,0,0,0,6-6,2.2,2.2,0,0,0-.1-.8,11.08,11.08,0,0,0,1.9.2v.1a4.1,4.1,0,1,0,8.2,0,2.35,2.35,0,0,0-.2-.8,18.33,18.33,0,0,0,34-7.3,18.1,18.1,0,0,0-6.4-35.1Z" transform="translate(-4 -7.5)"/><path class="cls-1" d="M74.5,79.6A16.22,16.22,0,0,0,58.3,95.9v71.7a16.2,16.2,0,1,0,32.4,0V95.9A16.22,16.22,0,0,0,74.5,79.6Z" transform="translate(-4 -7.5)"/><path class="cls-2" d="M74.3,79.6a16.24,16.24,0,0,0-16,16.3v71.7a16.31,16.31,0,0,0,16,16.3Z" transform="translate(-4 -7.5)"/><path class="cls-7" d="M111.4,151.8c-.2,1,.3,2.2-.8,3.1-.1.1,0,.6.1.9s.3,1,.1,1.3c-1,1.9.1,3.7.4,5.4a106.24,106.24,0,0,1,1.1,15.9,24.77,24.77,0,0,1-.3,2.7.55.55,0,0,1-.4.6,4.74,4.74,0,0,1-3.5.6,1.89,1.89,0,0,1-1.5-2c-.3-2.4.5-4.7-.3-7.1a5.13,5.13,0,0,1,.3-3.2c.7-2.1.2-4.2.6-6.3a2.09,2.09,0,0,0-.4-1.7,1.33,1.33,0,0,1-.3-.8c.1-4-.9-8-.4-12s.8-8.1,1.2-12.1a95,95,0,0,0,.7-11.9,16.45,16.45,0,0,1,1.2-6.6,1.67,1.67,0,0,1,1.2-1.1,25.54,25.54,0,0,1,5.5-1.9,12.78,12.78,0,0,0,3.8-1.6c.8-.4.9-1.7.2-2.7a8.21,8.21,0,0,1,.2-8.9c1.5-2.2,3.8-2,6-1.8a4.13,4.13,0,0,1,3.8,3.2,10.84,10.84,0,0,0,.8,1.9,1.92,1.92,0,0,1,.1,1.8.66.66,0,0,0-.1.6c.5,1.9-.3,3.7-.6,5.5-.2,1.2.1,1.8,1.3,2.1a22.43,22.43,0,0,1,5.5,1.9,7.36,7.36,0,0,1,3.1,2.7c.3.6.5.4.8,0a9.19,9.19,0,0,0,1.6-2.7,1.86,1.86,0,0,1,.9-1.2.9.9,0,0,1,1.1,0c.3.3.4.6.2.9-.3.5-.5,1-.8,1.5-.2.3-.5.6-.2.9s.7.2,1.1.1a15.11,15.11,0,0,1,1.8-.9c.6-.2,1.3-.9,1.7-.2a2.49,2.49,0,0,1-.5,1.9,29.56,29.56,0,0,1-2.4,2.6,1.54,1.54,0,0,0-.6,1.4,34.74,34.74,0,0,1-.8,7.9,7,7,0,0,1-2.4,3.9c-.9.8-1.8.3-2.7,0s-1.1.1-.7.7c1.2,1.6.8,3.3.8,5.1a.75.75,0,0,0,.1.5c2,4.2,1.7,8.9,3,13.3a4.68,4.68,0,0,1,.2,1.7c.1,3-1.1,4.4-4,5.2-1.4.4-1.8-.8-2.7-1.6-.2.8-.3,1.5-.5,2.2-1.1,5.3-2.2,10.5-1.7,16,.2,2.7-.3,5.4-.2,8.1,0,1.4-1.1,2.4-1.7,3.6a2.76,2.76,0,0,0-.2,2.9c.8,1.5.1,2.6-1.5,2.9a6.28,6.28,0,0,1-3.8-.3c.1,2.3-1.3,4.4-.5,6.8.2.7-.2,1-.8,1a9.7,9.7,0,0,1-1.7-.1c-1.3-.2-2.7-.6-4-.8-.9-.2-1.6-.6-1.7-1.6a2.09,2.09,0,0,1,1.1-2.4c.9-.4.9-.8.8-1.7a18.66,18.66,0,0,0-1.8-6.1c-1.8-3.1-1.8-6.3-1.3-9.7a54.67,54.67,0,0,0,0-14,4.38,4.38,0,0,0-.7-1.9,9.68,9.68,0,0,1-1.4-3.3c0-.2,0-.5-.2-.6-1.3-.4-1.1-1.4-1.1-2.3-.1-2.2-.3-4.5-.4-6.7a5.44,5.44,0,0,0,0-1.8A1.58,1.58,0,0,0,111.4,151.8Z" transform="translate(-4 -7.5)"/><path class="cls-7" d="M91.9,138.8a12,12,0,0,0,.6,3.3c1,2.2.7,4.6.8,6.8a25.58,25.58,0,0,1-.4,4.7c-.2,1.3.1,2.7-1.2,3.6-.3.2-.3.8-.3,1.2a47.7,47.7,0,0,1-1.5,8.4,6.15,6.15,0,0,0,.2,3.8,7,7,0,0,1,.3,3.8c-.4,1.7.2,3.3.5,4.9a42,42,0,0,1,.4,13.7,20.44,20.44,0,0,1-1.3,4.2c-.2.5-.2.5-1.4.2-.3.7.1,1.3.3,1.9a10.42,10.42,0,0,1,1.1,3.4,1.35,1.35,0,0,1-1.2,1.7,9.48,9.48,0,0,1-4.1-.2c-1-.2-.9-1.1-.8-1.8a4.14,4.14,0,0,0-.7-3.2c-.6-.6-.2-1.5-.2-2.3,0-.5.1-1.3-.4-1.3a1.58,1.58,0,0,0-1.6,1.3,3.84,3.84,0,0,1-4.6,3,1.51,1.51,0,0,1-1.2-1.5,4.76,4.76,0,0,1,1.4-3.9,1,1,0,0,0,.2-1.4,6.1,6.1,0,0,1-.4-4.4,1.69,1.69,0,0,0-.1-1.4c-1.6-2.4-1.9-5.1-2.6-7.8-1.8-7.1-2.1-14.4-3.6-21.5-.2-.7-.4-1.1-1.1-1.3-1.2-.2-2.4-.6-2-2.3.1-.7-.4-.6-.8-.6-2.1.3-3.4-.5-3.7-2.6a3.39,3.39,0,0,0-.6-1.5,12.76,12.76,0,0,1-1.6-5c-.5-4-.1-8.1-.1-12.1,0-2.5.9-5,1.4-7.5a12.13,12.13,0,0,1,1.1-3.7c.7-1.4.8-3.1,1.5-4.6a4,4,0,0,1,2.5-2.4c2.1-.6,4.1-1.3,6.2-2,1.9-.6,3-2.4,4.3-3.7.4-.4-.2-1.1-.4-1.5a8.79,8.79,0,0,1,0-7.9c1-2,4.1-3.9,6.3-3.5,1.5.2,2.6,1.4,4,1.9.2.1.3.5.3.8a33.1,33.1,0,0,1,.6,5.3c-.2,2,.4,4.2-1.1,5.9a2.62,2.62,0,0,0-.5.9c-.6,1.2-.3,1.9.9,2.5s2.6,1.3,4,1.8c2.1.7,2.8,2.2,3.1,4.2.3,1.8.3,3.7.7,5.5.7,3.1,1.3,6.3,2.3,9.3a58.93,58.93,0,0,1,2.9,15.5,17.61,17.61,0,0,1-.3,5.6c-.3,1.1-1.2,1.1-2,1.2s-1-.5-1.2-1.3a31,31,0,0,0-1.3-4,6.9,6.9,0,0,1-.4-2.5,49.84,49.84,0,0,0-2.9-10.7c-.4-.3-.2-.8-.5-1.2-.1-.5,0-1-.3-1.4a.76.76,0,0,0-.1-.4.76.76,0,0,0,.1.4c.3.5,0,1.1.4,1.6C91.9,137.6,91.6,138.3,91.9,138.8Z" transform="translate(-4 -7.5)"/><path class="cls-8" d="M46.6,108.7c.2.7,1,1.4-.2,1.9a10.86,10.86,0,0,0,0,3.6c.2.3.5.2.7.3l5.2,1.5a2.48,2.48,0,0,1,1.7,1.6c.7,2.1,1.7,4,1,6.4-.3,1,.1,2.2.2,3.4a31.58,31.58,0,0,1-1.7,11.4,6.47,6.47,0,0,0-.1,2.4c.6,4.9,2.2,9.6,1.8,14.6-.1.8-.1,1.6-.9,2.1-.4.3-.4.7-.5,1.1-.6,2.9-.1,5.7.1,8.5a36.37,36.37,0,0,1,0,6.6c-.2,2.8.4,5.6.4,8.4,0,3.9.1,7.9-.8,11.8-.3,1.3-.8,2.6-1.2,4a2.38,2.38,0,0,0,.3,2.3,6.39,6.39,0,0,1,.8,1.9c.4,1.5.2,1.9-1.2,2.4a10.32,10.32,0,0,1-3.9.3.89.89,0,0,1-1-.8c-.1-1,.5-2.1-.1-3s-.5-1.9-.7-2.9c-.8.2-1.2,1.2-2.2.7a1.63,1.63,0,0,0-.3.6c-.6,2.5-2.2,3.6-4.8,3.5-1.7-.1-2.1-.6-1.5-2.3a9.15,9.15,0,0,1,.9-1.7c1.6-2.4,1.6-3.8-.3-5.9a3.86,3.86,0,0,1-.8-2c-.2-2.5-.5-4.9-.7-7.4a19.24,19.24,0,0,0-1.4-6.2,71,71,0,0,1-3.3-16.5,4.29,4.29,0,0,0-1.8-3.1,2.56,2.56,0,0,1-1-2.9c.7-3.6.5-7.3.6-11a1.39,1.39,0,0,0-.5-1c-4.4-4.5-5.2-10.1-5-16,.1-2.4.4-4.7.6-7.1a1.52,1.52,0,0,1,1.1-1.4,32.75,32.75,0,0,1,5.8-2.5c2.1-.5,3.1-2,4.2-3.7-1.7-.1-1.8-1.6-2.2-2.7-1.1-2.9.3-7.2,2.8-9a4.59,4.59,0,0,1,3.6-.7,10.87,10.87,0,0,1,5.4,2.3c1.2.9,1.2,1.8.2,2.8-.5.5.3.8.3,1.2A2.44,2.44,0,0,1,46.6,108.7Z" transform="translate(-4 -7.5)"/><path class="cls-9" d="M176.6,137.6a18.35,18.35,0,0,0-.1,9.3,50.54,50.54,0,0,0,1.2,5.6c.2.6.2,1.1-.6,1.3s-1,.8-1.2,1.6a62.22,62.22,0,0,1-3.1,10.4,14.27,14.27,0,0,0-.8,2.2c-.5,2.4-1.5,4.7-1.8,7.1-.2,2-1.3,3.7-2.2,5.4-2.4,4.5-2.5,4.5-.6,9.2.5,1.2.1,2.2,0,3.3,0,.4-.4.5-.7.6a3,3,0,0,1-2.4-.7,1.79,1.79,0,0,0,0,1.6,11.42,11.42,0,0,1,.3,5.5l-.6,3.6c-.2,1.1-1.3,1.4-2.3,1.5-2.2.4-3.3-1-2.6-3.1a4.18,4.18,0,0,1,.4-1c2-4,1.5-8,.4-12.1a45,45,0,0,1-.9-13.7,38.23,38.23,0,0,0-.3-5.9c-.5-4.1-1.4-8.1-2.2-12.1a19.27,19.27,0,0,1-.1-2.4c-.6,1.5-1.5,2.9-1.3,4.6,0,.4-.2.6-.5.5-1.1-.2-2.1-.4-2.5-1.7a9.48,9.48,0,0,1-.5-3.8c.6-6.8,1.7-13.5,2.8-20.2.5-2.9.4-5.9.9-8.8a2.81,2.81,0,0,1,1.6-2.3,20.94,20.94,0,0,1,3.5-1.3,7.71,7.71,0,0,0,2.5-1c.3-.2.8-.6.1-.8s-.7-.8-.7-1.4a5.1,5.1,0,0,0-.6-2.7c-.1-.3-.2-.5,0-.7.9-1.3.2-2.2-.7-3.1a2,2,0,0,1,.1-3.3,6,6,0,0,1,2.6-1.4c1.5-.4,3-.7,4.5-1.1a3.1,3.1,0,0,1,2.9.7,19.48,19.48,0,0,1,3.9,4.2,3.31,3.31,0,0,1,.5,2.4c-.4,2.6-2.1,4.8-2.1,7.6,1.6.5,3.5,1.2,5.4,1.8a2.6,2.6,0,0,1,1.8,2.1c.9,4.2,1.4,8.4,2,12.7a4.22,4.22,0,0,0,.3,1.2c1.4,2,1.7,4.3,2.2,6.6.7,3.2,1.6,6.5,1.1,9.7-.3,2,.4,3.4,1.1,5,.9,2.1,1.8,4.2,2.5,6.4,1,3.2,2.6,6,3.8,9.1.1.3.3.5.4.8,1.1,2.4.8,3.2-1.5,4.4-1.8.9-3.6.2-4.7-1.6a23.66,23.66,0,0,0-4.1-4.8,30.87,30.87,0,0,1-2.6-3.7,1.06,1.06,0,0,1,.2-1.3,22.47,22.47,0,0,0,2.1-10.5c0-.8-.2-2-1.6-2.1-.7,0-.8-.5-.9-1.1a25.69,25.69,0,0,1-.7-4c-.4-3.2-2.1-5.9-2.8-9A42.09,42.09,0,0,1,176.6,137.6Z" transform="translate(-4 -7.5)"/></svg>