<?xml version="1.0" encoding="utf-8"?>
<!-- Generator: Adobe Illustrator 22.0.1, SVG Export Plug-In . SVG Version: 6.00 Build 0)  -->
<svg version="1.1" id="Layer_1" xmlns="http://www.w3.org/2000/svg" xmlns:xlink="http://www.w3.org/1999/xlink" x="0px" y="0px"
	 viewBox="0 0 1394 450" style="enable-background:new 0 0 1394 450;" xml:space="preserve">
<style type="text/css">
	.st0{fill:#FFFFFF;}
	.st1{fill:#939598;}
	.st2{fill:#C2C3C9;}
	.st3{fill:#F0AB00;}
	.st4{fill:#A8A240;}
	.st5{fill:#40875E;}
	.st6{fill:#000102;}
	.st7{font-family:'Nunito-Regular';}
	.st8{font-size:17px;}
	.st9{font-family:'Nunito-Light';}
	.st10{font-size:15px;}
</style>
<g>
	<path class="st1" d="M792.5,225c-0.5-2.2-2.2-3.9-4.4-4.5c-1-21.4-9.4-40.9-22.7-56c1.1-2,1.1-4.4-0.1-6.3l21.8-21.8l-2.1-2.1
		l-21.8,21.8c-1.9-1.2-4.4-1.2-6.4,0c-16-14-37-22.4-59.9-22.4c-23.1,0-44.2,8.6-60.3,22.8c-1.9-0.9-4.1-0.8-5.9,0.3L609,134.9
		l-2.1,2.1l21.8,21.8c-1.1,1.8-1.2,4-0.3,5.9c-13.2,15.1-21.6,34.5-22.6,55.9c-2.1,0.6-3.7,2.3-4.2,4.4h-30.8v3h30.8
		c0.5,2.2,2.2,3.9,4.4,4.5c1.7,20.1,9.8,38.3,22.4,52.6c-1.1,1.9-1.1,4.4,0.1,6.3l-21.8,21.8l2.1,2.1l21.8-21.8
		c1.9,1.2,4.3,1.2,6.3,0.1c16.1,14.1,37.1,22.6,60.1,22.6c23,0,44.1-8.5,60.2-22.6c1.9,1.1,4.3,1,6.2-0.1l21.8,21.8l2.1-2.1
		l-21.8-21.8c1.1-1.9,1.2-4.3,0.1-6.2c12.5-14.3,20.7-32.5,22.3-52.5c2.3-0.5,4.1-2.3,4.6-4.6h30.8v-3H792.5z M784.1,232.3
		c-1.5,18.6-8.9,36.1-21.3,50.2c-2.3-1.1-5.2-0.7-7.1,1.2c-1.9,1.9-2.3,4.8-1.2,7.1c-15.9,14-36.1,21.6-57.5,21.6
		c-21.4,0-41.6-7.6-57.5-21.6c1-2.3,0.6-5.1-1.3-7c-1.9-1.9-4.7-2.3-7-1.2c-12.4-14.1-19.8-31.5-21.4-50.2c2.4-0.9,4-3.2,4-5.8
		c0-2.7-1.8-5.1-4.2-5.9c0.9-19.7,8.4-38.3,21.4-53.1c2.4,1.3,5.4,0.9,7.4-1.1c2-2,2.3-5,1.1-7.4c15.9-14,36.1-21.6,57.5-21.6
		c21.3,0,41.4,7.6,57.3,21.4c-1,2.3-0.6,5,1.3,6.9c1.9,1.9,4.7,2.3,6.9,1.3c13.2,14.9,20.8,33.7,21.7,53.6c-2.4,0.9-4,3.2-4,5.8
		C780.3,229.1,781.9,231.3,784.1,232.3z"/>
	<g>
		<path class="st2" d="M769.2,223.9c0-18.6-6.9-35.6-18.4-48.5c-13.3-14-32.1-22.6-52.9-22.6c-40.4,0-73.2,32.8-73.2,73.2
			c0,18.6,6.9,35.6,18.4,48.5c13.3,14,32.1,22.6,52.9,22.6C736.5,297,769.2,264.3,769.2,223.9z"/>
	</g>
	<g>
		<path class="st0" d="M759.5,224c0-16.1-6-30.8-15.9-41.9c-11.5-12.1-27.8-19.6-45.8-19.6c-34.9,0-63.3,28.3-63.3,63.3
			c0,16.1,6,30.8,15.9,41.9c11.5,12.1,27.8,19.6,45.8,19.6C731.1,287.3,759.5,259,759.5,224z"/>
	</g>
	<g>
		<path class="st2" d="M630.2,122.7c0-9-3.4-17.2-8.9-23.4c-6.4-6.7-15.5-10.9-25.6-10.9c-19.5,0-35.4,15.8-35.4,35.4
			c0,9,3.4,17.2,8.9,23.4c6.4,6.7,15.5,10.9,25.6,10.9C614.4,158.1,630.2,142.3,630.2,122.7z"/>
	</g>
	<g>
		<path class="st0" d="M622,122.9c0,14.9-12.1,27-27,27c-14.9,0-27-12.1-27-27c0-14.9,12.1-27,27-27C609.9,95.9,622,108,622,122.9z"
			/>
	</g>
	<g>
		<path class="st0" d="M622,122.9c0-6.9-2.6-13.1-6.8-17.9c-4.9-5.1-11.8-8.4-19.5-8.4c-14.9,0-27,12.1-27,27
			c0,6.9,2.6,13.1,6.8,17.9c4.9,5.1,11.8,8.4,19.5,8.4C609.9,149.9,622,137.8,622,122.9z"/>
	</g>
	<g>
		<path class="st0" d="M619.2,111c1.5,3.4,2.3,7.1,2.3,11c0,14.9-12.1,27-27,27c-9,0-16.9-4.4-21.8-11.1c0.8,1.3,1.7,2.5,2.7,3.6
			c4.9,5.1,11.8,8.4,19.5,8.4c14.9,0,27-12.1,27-27C622,118.6,621,114.6,619.2,111z"/>
	</g>
	<g>
		<path class="st2" d="M629.9,326.3c0-9-3.4-17.2-8.9-23.4c-6.4-6.7-15.5-10.9-25.6-10.9c-19.5,0-35.4,15.8-35.4,35.4
			c0,9,3.4,17.2,8.9,23.4c6.4,6.7,15.5,10.9,25.6,10.9C614,361.6,629.9,345.8,629.9,326.3z"/>
	</g>
	<g>
		<path class="st0" d="M621.6,326.4c0,14.9-12.1,27-27,27c-14.9,0-27-12.1-27-27c0-14.9,12.1-27,27-27
			C609.5,299.4,621.6,311.5,621.6,326.4z"/>
	</g>
	<g>
		<path class="st0" d="M621.6,326.4c0-6.9-2.6-13.1-6.8-17.9c-4.9-5.1-11.8-8.4-19.5-8.4c-14.9,0-27,12.1-27,27
			c0,6.9,2.6,13.1,6.8,17.9c4.9,5.1,11.8,8.4,19.5,8.4C609.5,353.4,621.6,341.3,621.6,326.4z"/>
	</g>
	<g>
		<path class="st0" d="M618.9,314.5c1.5,3.4,2.3,7.1,2.3,11c0,14.9-12.1,27-27,27c-9,0-16.9-4.4-21.8-11.1c0.8,1.3,1.7,2.5,2.7,3.6
			c4.9,5.1,11.8,8.4,19.5,8.4c14.9,0,27-12.1,27-27C621.6,322.1,620.6,318.1,618.9,314.5z"/>
	</g>
	<g>
		<path class="st2" d="M876.1,224.4c0-9-3.4-17.2-8.9-23.4c-6.4-6.7-15.5-10.9-25.6-10.9c-19.5,0-35.4,15.8-35.4,35.4
			c0,9,3.4,17.2,8.9,23.4c6.4,6.7,15.5,10.9,25.6,10.9C860.3,259.8,876.1,243.9,876.1,224.4z"/>
	</g>
	<g>
		<path class="st0" d="M867.9,224.5c0,14.9-12.1,27-27,27c-14.9,0-27-12.1-27-27c0-14.9,12.1-27,27-27
			C855.8,197.5,867.9,209.6,867.9,224.5z"/>
	</g>
	<g>
		<path class="st0" d="M867.9,224.5c0-6.9-2.6-13.1-6.8-17.9c-4.9-5.1-11.8-8.4-19.5-8.4c-14.9,0-27,12.1-27,27
			c0,6.9,2.6,13.1,6.8,17.9c4.9,5.1,11.8,8.4,19.5,8.4C855.8,251.5,867.9,239.4,867.9,224.5z"/>
	</g>
	<g>
		<path class="st0" d="M865.1,212.7c1.5,3.4,2.3,7.1,2.3,11c0,14.9-12.1,27-27,27c-9,0-16.9-4.4-21.8-11.1c0.8,1.3,1.7,2.5,2.7,3.6
			c4.9,5.1,11.8,8.4,19.5,8.4c14.9,0,27-12.1,27-27C867.9,220.3,866.9,216.2,865.1,212.7z"/>
	</g>
	<g>
		<path class="st2" d="M833.7,122.4c0-9-3.4-17.2-8.9-23.4c-6.4-6.7-15.5-10.9-25.6-10.9c-19.5,0-35.4,15.8-35.4,35.4
			c0,9,3.4,17.2,8.9,23.4c6.4,6.7,15.5,10.9,25.6,10.9C817.8,157.7,833.7,141.9,833.7,122.4z"/>
	</g>
	<g>
		<path class="st0" d="M825.4,122.5c0,14.9-12.1,27-27,27c-14.9,0-27-12.1-27-27c0-14.9,12.1-27,27-27
			C813.3,95.5,825.4,107.6,825.4,122.5z"/>
	</g>
	<g>
		<path class="st0" d="M825.4,122.5c0-6.9-2.6-13.1-6.8-17.9c-4.9-5.1-11.8-8.4-19.5-8.4c-14.9,0-27,12.1-27,27
			c0,6.9,2.6,13.1,6.8,17.9c4.9,5.1,11.8,8.4,19.5,8.4C813.3,149.5,825.4,137.4,825.4,122.5z"/>
	</g>
	<g>
		<path class="st0" d="M822.7,110.6c1.5,3.4,2.3,7.1,2.3,11c0,14.9-12.1,27-27,27c-9,0-16.9-4.4-21.8-11.1c0.8,1.3,1.7,2.5,2.7,3.6
			c4.9,5.1,11.8,8.4,19.5,8.4c14.9,0,27-12.1,27-27C825.4,118.2,824.4,114.2,822.7,110.6z"/>
	</g>
	<g>
		<path class="st2" d="M834.4,326.6c0-9-3.4-17.2-8.9-23.4c-6.4-6.7-15.5-10.9-25.6-10.9c-19.5,0-35.4,15.8-35.4,35.4
			c0,9,3.4,17.2,8.9,23.4c6.4,6.7,15.5,10.9,25.6,10.9C818.6,362,834.4,346.2,834.4,326.6z"/>
	</g>
	<g>
		<path class="st0" d="M826.1,326.8c0,14.9-12.1,27-27,27c-14.9,0-27-12.1-27-27c0-14.9,12.1-27,27-27
			C814.1,299.8,826.1,311.8,826.1,326.8z"/>
	</g>
	<g>
		<path class="st0" d="M826.1,326.8c0-6.9-2.6-13.1-6.8-17.9c-4.9-5.1-11.8-8.4-19.5-8.4c-14.9,0-27,12.1-27,27
			c0,6.9,2.6,13.1,6.8,17.9c4.9,5.1,11.8,8.4,19.5,8.4C814.1,353.8,826.1,341.7,826.1,326.8z"/>
	</g>
	<g>
		<path class="st0" d="M823.4,314.9c1.5,3.4,2.3,7.1,2.3,11c0,14.9-12.1,27-27,27c-9,0-16.9-4.4-21.8-11.1c0.8,1.3,1.7,2.5,2.7,3.6
			c4.9,5.1,11.8,8.4,19.5,8.4c14.9,0,27-12.1,27-27C826.1,322.5,825.2,318.5,823.4,314.9z"/>
	</g>
	<g>
		<path class="st2" d="M587.7,224.4c0-9-3.4-17.2-8.9-23.4c-6.4-6.7-15.5-10.9-25.6-10.9c-19.5,0-35.4,15.8-35.4,35.4
			c0,9,3.4,17.2,8.9,23.4c6.4,6.7,15.5,10.9,25.6,10.9C571.9,259.8,587.7,243.9,587.7,224.4z"/>
	</g>
	<g>
		<path class="st0" d="M579.5,224.5c0,14.9-12.1,27-27,27c-14.9,0-27-12.1-27-27c0-14.9,12.1-27,27-27
			C567.4,197.5,579.5,209.6,579.5,224.5z"/>
	</g>
	<g>
		<path class="st0" d="M579.5,224.5c0-6.9-2.6-13.1-6.8-17.9c-4.9-5.1-11.8-8.4-19.5-8.4c-14.9,0-27,12.1-27,27
			c0,6.9,2.6,13.1,6.8,17.9c4.9,5.1,11.8,8.4,19.5,8.4C567.4,251.5,579.5,239.4,579.5,224.5z"/>
	</g>
	<g>
		<path class="st0" d="M576.7,212.7c1.5,3.4,2.3,7.1,2.3,11c0,14.9-12.1,27-27,27c-9,0-16.9-4.4-21.8-11.1c0.8,1.3,1.7,2.5,2.7,3.6
			c4.9,5.1,11.8,8.4,19.5,8.4c14.9,0,27-12.1,27-27C579.5,220.3,578.5,216.2,576.7,212.7z"/>
	</g>
	<path class="st3" d="M703.8,232.7c0-1.3-0.5-2.5-1.4-3.4l19.2-31.2l-1.9-1.2l-19.2,31.2c-0.5-0.2-1-0.2-1.5-0.2c-0.1,0-0.2,0-0.3,0
		L693,210l-2.2,0.7l5.7,17.9c-1.4,0.8-2.3,2.4-2.3,4.1c0,0.9,0.3,1.7,0.7,2.5l-19.6,19.4l1.6,1.6l19.6-19.4c0.7,0.5,1.6,0.7,2.5,0.7
		c1.4,0,2.6-0.6,3.5-1.5l15,8.6l1.1-2l-15-8.6C703.7,233.6,703.8,233.1,703.8,232.7z"/>
	<path class="st4" d="M682.4,195.1c0-3.5,2.6-6.4,5.9-6.4s5.9,2.9,5.9,6.4c0,3.5-2.6,6.4-5.9,6.4S682.4,198.6,682.4,195.1z"/>
	<path class="st5" d="M699.3,209.3c0-4-2.7-7.3-6.3-8.4l-4.7,3.7l-4.7-3.7c-3.6,1-6.3,4.4-6.3,8.4v5.3h9.7l1-9.3h0.7l1,9.3h9.7
		V209.3z"/>
	<ellipse class="st4" cx="668.7" cy="234.4" rx="7.9" ry="8.5"/>
	<path class="st5" d="M683.4,253.4c0-5.3-3.6-9.8-8.5-11.2l-6.3,5l-6.3-5c-4.9,1.4-8.5,5.9-8.5,11.2v7.1h13l1.3-12.5h1l1.3,12.5h13
		V253.4z"/>
	<path class="st4" d="M717.6,188.5c0-2.6,1.9-4.7,4.3-4.7s4.3,2.1,4.3,4.7c0,2.6-1.9,4.7-4.3,4.7S717.6,191.1,717.6,188.5z"/>
	<path class="st5" d="M730,199c0-2.9-2-5.4-4.7-6.2l-3.4,2.7l-3.4-2.7c-2.7,0.8-4.7,3.2-4.7,6.2v3.9h7.1l0.7-6.8h0.5l0.7,6.8h7.1
		V199z"/>
	<path class="st4" d="M714.8,227c0-4,3-7.3,6.7-7.3s6.7,3.3,6.7,7.3c0,4-3,7.3-6.7,7.3S714.8,231,714.8,227z"/>
	<path class="st5" d="M734,243.2c0-4.5-3.1-8.4-7.2-9.6l-5.3,4.2l-5.3-4.2c-4.2,1.2-7.2,5-7.2,9.6v6H720l1.1-10.6h0.8l1.1,10.6H734
		V243.2z"/>
	<g>
		<polygon class="st4" points="554.2,225.8 557.2,228.9 560.7,225.5 560.7,225.5 563.2,223.1 563.2,223.1 564,222.3 572.6,214 
			571.2,212.5 569.7,210.9 561.1,219.2 		"/>
		<polygon class="st3" points="556.3,229.8 553.3,226.8 551.7,231.4 556.3,229.9 		"/>
		<path class="st5" d="M559.9,210.6c0.6,0.1,0.8,0.5,0.8,0.9v4.6c0.2-0.2,0.4-0.4,0.6-0.6l1.9-1.8v-2.5c0,0,0-0.2-0.1-0.3
			c-0.1-0.6-0.3-1.2-0.8-1.7c-0.5-0.6-1.1-0.9-1.6-1c-0.3-0.1-0.5-0.1-0.7-0.1h-20.2c-0.1,0-0.2,0-0.3,0c-0.2,0-0.3,0.1-0.5,0.1
			c-0.1,0-0.2,0.1-0.3,0.1c-0.1,0-0.2,0.1-0.3,0.2c-0.9,0.4-1.5,1.5-1.7,2.2c0,0.2-0.1,0.3-0.1,0.5v27.5c0,0,0,0.4,0.1,0.5
			c0,0.2,0.1,0.3,0.2,0.5c0,0.1,0.1,0.2,0.1,0.3c0.4,0.9,1.6,1.7,2.3,1.8c0.2,0,0.4,0.1,0.5,0.1H560c0,0,0.3,0,0.5-0.1
			c0.2,0,0.4-0.1,0.6-0.2c0.4-0.2,0.9-0.4,1.3-0.9c0.4-0.5,0.7-1,0.8-1.4c0-0.2,0.1-0.4,0.1-0.6v-12.3l-2.5,2.4v9.6
			c0,0.5-0.4,0.9-0.8,0.9h-20.1c-0.6-0.1-0.8-0.5-0.8-0.9v-26.9c0-0.1,0-0.2,0-0.2c0.1-0.4,0.5-0.8,0.8-0.7H559.9z"/>
		<rect x="541.7" y="213.7" class="st3" width="15.6" height="3.6"/>
		<rect x="541.7" y="233.5" class="st3" width="15.6" height="3.6"/>
		<rect x="541.7" y="220.3" class="st3" width="7.8" height="3.6"/>
		<rect x="541.7" y="227.4" class="st3" width="7.8" height="3.6"/>
	</g>
	<g>
		<path class="st4" d="M605.5,132.2l-3.8-3.7c2-2.3,3.2-5.4,3.2-8.7c0-7.4-6-13.5-13.5-13.5c-7.4,0-13.5,6-13.5,13.5
			s6,13.5,13.5,13.5c3.3,0,6.2-1.2,8.6-3.1l3.7,3.6L605.5,132.2z M603.1,119.8c0,6.4-5.2,11.6-11.6,11.6s-11.6-5.2-11.6-11.6
			s5.2-11.6,11.6-11.6S603.1,113.4,603.1,119.8z"/>
		<path class="st3" d="M585,116.9h14.1c0.3,0,0.5-0.2,0.5-0.5c0-0.3-0.2-0.5-0.5-0.5H585c-0.3,0-0.5,0.2-0.5,0.5
			C584.5,116.6,584.7,116.9,585,116.9z"/>
		<path class="st3" d="M599.1,119.7H585c-0.3,0-0.5,0.2-0.5,0.5c0,0.3,0.2,0.5,0.5,0.5h14.1c0.3,0,0.5-0.2,0.5-0.5
			C599.6,119.9,599.4,119.7,599.1,119.7z"/>
		<path class="st3" d="M594,123.6h-9c-0.3,0-0.5,0.2-0.5,0.5c0,0.3,0.2,0.5,0.5,0.5h9c0.3,0,0.5-0.2,0.5-0.5
			C594.5,123.8,594.3,123.6,594,123.6z"/>
		<path class="st5" d="M601.3,130.9c0.1-0.1,1.5-1.6,2.2-2.3c0.2-0.2,0.6-0.2,0.8,0l6.6,6.7c0.2,0.2,0.2,0.5,0,0.8l-3.1,3.5
			c-0.2,0.2-0.6,0.2-0.8,0l-6.7-6.8c-0.2-0.2-0.2-0.6,0-0.8L601.3,130.9z"/>
	</g>
	<path class="st5" d="M616.1,326.5h-1.9c-0.2,0-0.4-0.2-0.5-0.4c-0.2-0.7-0.5-1.4-0.8-2c-0.1-0.2-0.1-0.5,0.1-0.6l1.4-1.4
		c0.2-0.2,0.2-0.5,0-0.7l-2.4-2.4c-0.2-0.2-0.5-0.2-0.7,0l-1.4,1.4c-0.2,0.2-0.4,0.2-0.6,0.1c-0.6-0.4-1.3-0.6-2-0.8
		c-0.2-0.1-0.4-0.3-0.4-0.5v-1.9c0-0.3-0.2-0.5-0.5-0.5h-3.4c-0.3,0-0.5,0.2-0.5,0.5v1.9c0,0.2-0.2,0.4-0.4,0.5
		c-0.7,0.2-1.4,0.5-2,0.8c-0.2,0.1-0.5,0.1-0.6-0.1L598,319c-0.2-0.2-0.5-0.2-0.7,0l-2.4,2.4c-0.2,0.2-0.2,0.5,0,0.7l1.4,1.4
		c0.2,0.2,0.2,0.4,0.1,0.6c-0.4,0.6-0.6,1.3-0.8,2c-0.1,0.2-0.3,0.4-0.5,0.4h-1.9c-0.3,0-0.5,0.2-0.5,0.5v3.4c0,0.3,0.2,0.5,0.5,0.5
		h1.9c0.2,0,0.4,0.2,0.5,0.4c0.2,0.7,0.5,1.4,0.8,2c0.1,0.2,0.1,0.5-0.1,0.6l-1.4,1.4c-0.2,0.2-0.2,0.5,0,0.7l2.4,2.4
		c0.2,0.2,0.5,0.2,0.7,0l1.4-1.4c0.2-0.2,0.4-0.2,0.6-0.1c0.6,0.4,1.3,0.6,2,0.8c0.2,0.1,0.4,0.3,0.4,0.5v1.9c0,0.3,0.2,0.5,0.5,0.5
		h3.4c0.3,0,0.5-0.2,0.5-0.5v-1.9c0-0.2,0.2-0.4,0.4-0.5c0.7-0.2,1.4-0.5,2-0.8c0.2-0.1,0.5-0.1,0.6,0.1l1.4,1.4
		c0.2,0.2,0.5,0.2,0.7,0l2.4-2.4c0.2-0.2,0.2-0.5,0-0.7l-1.4-1.4c-0.2-0.2-0.2-0.4-0.1-0.6c0.4-0.6,0.6-1.3,0.8-2
		c0.1-0.2,0.3-0.4,0.5-0.4h1.9c0.3,0,0.5-0.2,0.5-0.5V327C616.6,326.7,616.4,326.5,616.1,326.5 M604.6,333.6c-2.7,0-4.9-2.2-4.9-4.9
		c0-2.7,2.2-4.9,4.9-4.9c2.7,0,4.9,2.2,4.9,4.9C609.5,331.4,607.3,333.6,604.6,333.6"/>
	<path class="st3" d="M593.9,316.5h-1.2c-0.1,0-0.3-0.1-0.3-0.2c-0.1-0.4-0.3-0.8-0.5-1.2c-0.1-0.1-0.1-0.3,0-0.4l0.8-0.8
		c0.1-0.1,0.1-0.3,0-0.4l-1.4-1.4c-0.1-0.1-0.3-0.1-0.4,0l-0.8,0.8c-0.1,0.1-0.2,0.1-0.4,0c-0.4-0.2-0.8-0.4-1.2-0.5
		c-0.1,0-0.2-0.2-0.2-0.3V311c0-0.2-0.1-0.3-0.3-0.3h-2c-0.2,0-0.3,0.1-0.3,0.3v1.2c0,0.1-0.1,0.3-0.2,0.3c-0.4,0.1-0.8,0.3-1.2,0.5
		c-0.1,0.1-0.3,0.1-0.4,0l-0.8-0.8c-0.1-0.1-0.3-0.1-0.4,0l-1.4,1.4c-0.1,0.1-0.1,0.3,0,0.4l0.8,0.8c0.1,0.1,0.1,0.2,0,0.4
		c-0.2,0.4-0.4,0.8-0.5,1.2c0,0.1-0.2,0.2-0.3,0.2h-1.2c-0.2,0-0.3,0.1-0.3,0.3v2c0,0.2,0.1,0.3,0.3,0.3h1.2c0.1,0,0.3,0.1,0.3,0.2
		c0.1,0.4,0.3,0.8,0.5,1.2c0.1,0.1,0,0.3,0,0.4l-0.8,0.8c-0.1,0.1-0.1,0.3,0,0.4l1.4,1.4c0.1,0.1,0.3,0.1,0.4,0l0.8-0.8
		c0.1-0.1,0.2-0.1,0.4,0c0.4,0.2,0.8,0.4,1.2,0.5c0.1,0,0.2,0.2,0.2,0.3v1.2c0,0.2,0.1,0.3,0.3,0.3h2c0.2,0,0.3-0.1,0.3-0.3v-1.2
		c0-0.1,0.1-0.3,0.2-0.3c0.4-0.1,0.8-0.3,1.2-0.5c0.1-0.1,0.3-0.1,0.4,0l0.8,0.8c0.1,0.1,0.3,0.1,0.4,0l1.4-1.4
		c0.1-0.1,0.1-0.3,0-0.4l-0.8-0.8c-0.1-0.1-0.1-0.2,0-0.4c0.2-0.4,0.4-0.8,0.5-1.2c0-0.1,0.2-0.2,0.3-0.2h1.2c0.2,0,0.3-0.1,0.3-0.3
		v-2C594.2,316.7,594.1,316.5,593.9,316.5 M587.1,320.7c-1.6,0-2.9-1.3-2.9-2.9c0-1.6,1.3-2.9,2.9-2.9c1.6,0,2.9,1.3,2.9,2.9
		C590,319.4,588.7,320.7,587.1,320.7"/>
	<path class="st4" d="M592.2,332.6h-1.5c-0.2,0-0.3-0.1-0.4-0.3c-0.2-0.5-0.4-1.1-0.6-1.5c-0.1-0.2-0.1-0.3,0.1-0.5l1-1
		c0.2-0.2,0.2-0.4,0-0.5l-1.8-1.8c-0.2-0.2-0.4-0.2-0.5,0l-1,1c-0.1,0.1-0.3,0.1-0.5,0.1c-0.5-0.3-1-0.5-1.5-0.6
		c-0.2,0-0.3-0.2-0.3-0.4v-1.5c0-0.2-0.2-0.4-0.4-0.4h-2.6c-0.2,0-0.4,0.2-0.4,0.4v1.5c0,0.2-0.1,0.3-0.3,0.4
		c-0.5,0.2-1.1,0.4-1.5,0.6c-0.2,0.1-0.3,0.1-0.5-0.1l-1-1c-0.2-0.2-0.4-0.2-0.5,0l-1.8,1.8c-0.2,0.1-0.2,0.4,0,0.5l1,1
		c0.1,0.1,0.1,0.3,0.1,0.5c-0.3,0.5-0.5,1-0.6,1.5c0,0.2-0.2,0.3-0.4,0.3h-1.5c-0.2,0-0.4,0.2-0.4,0.4v2.6c0,0.2,0.2,0.4,0.4,0.4
		h1.5c0.2,0,0.3,0.1,0.4,0.3c0.2,0.5,0.4,1.1,0.6,1.5c0.1,0.2,0.1,0.3-0.1,0.5l-1,1c-0.2,0.2-0.2,0.4,0,0.5l1.8,1.8
		c0.2,0.2,0.4,0.2,0.5,0l1-1c0.1-0.1,0.3-0.1,0.5-0.1c0.5,0.3,1,0.5,1.5,0.6c0.2,0,0.3,0.2,0.3,0.4v1.5c0,0.2,0.2,0.4,0.4,0.4h2.6
		c0.2,0,0.4-0.2,0.4-0.4v-1.5c0-0.2,0.1-0.3,0.3-0.4c0.5-0.2,1.1-0.4,1.5-0.6c0.2-0.1,0.3-0.1,0.5,0.1l1,1c0.2,0.2,0.4,0.2,0.5,0
		l1.8-1.8c0.2-0.2,0.2-0.4,0-0.5l-1-1c-0.1-0.1-0.1-0.3-0.1-0.5c0.3-0.5,0.5-1,0.6-1.5c0-0.2,0.2-0.3,0.4-0.3h1.5
		c0.2,0,0.4-0.2,0.4-0.4V333C592.6,332.8,592.5,332.6,592.2,332.6 M583.5,338c-2.1,0-3.7-1.7-3.7-3.7c0-2.1,1.7-3.7,3.7-3.7
		c2.1,0,3.7,1.7,3.7,3.7C587.2,336.4,585.6,338,583.5,338"/>
	<g>
		<path class="st5" d="M808.6,326c0-0.2,0.1-0.4,0.1-0.7c0-2.1-1.7-3.8-3.8-3.8c-0.5,0-0.9,0.1-1.3,0.2c-1.2-1.9-3.4-3.2-5.9-3.2
			c-3.9,0-7,3.1-7,7c0,0.2,0,0.4,0,0.5c-1.9,0.5-3.3,2.2-3.3,4.2c0,2.4,1.9,4.3,4.3,4.3h16.1c2.4,0,4.3-1.9,4.3-4.3
			C812.1,328.1,810.6,326.3,808.6,326z"/>
		<path class="st4" d="M779.6,334.8c-0.8-2.2-1.2-4.6-1.2-7c0-11.7,9.5-21.1,21.1-21.1c1.5,0,2.9,0.2,4.4,0.5l-0.6,2.9
			c-1.2-0.3-2.5-0.4-3.8-0.4c-10,0-18.2,8.2-18.2,18.2c0,2.1,0.3,4.1,1,6L779.6,334.8z"/>
		<g>
			<polygon class="st4" points="800.9,312.5 809.5,310.9 803.8,304.2 			"/>
		</g>
		<path class="st4" d="M799.6,349c-1.6,0-3.3-0.2-4.8-0.6l0.7-2.9c1.4,0.3,2.8,0.5,4.2,0.5c10,0,18.2-8.2,18.2-18.2
			c0-2.2-0.4-4.3-1.1-6.3l2.8-1c0.9,2.3,1.3,4.8,1.3,7.3C820.7,339.5,811.2,349,799.6,349z"/>
		<g>
			<polygon class="st4" points="797.9,343.2 789.2,344.6 794.8,351.4 			"/>
		</g>
	</g>
	<g>
		<rect x="845.7" y="218.7" class="st5" width="8.7" height="19.8"/>
		<rect x="835.5" y="224.4" class="st4" width="8.7" height="14.2"/>
		<rect x="825.4" y="229.1" class="st3" width="8.7" height="9.4"/>
		<path class="st3" d="M842.3,206.8l2.8,1.4c-6,14.2-21.4,12.9-21.4,12.9c15,3.3,20.9-4.5,24.6-10.9l2.7,1.6l-1.4-8.2L842.3,206.8z"
			/>
		<polygon class="st5" points="857.1,211.4 857.1,238.4 821.8,238.4 821.8,239.9 857.1,239.9 858.5,239.9 858.7,239.9 858.7,211.4 
					"/>
	</g>
	<g>
		<path class="st5" d="M817,138.4L817,138.4c-0.8,0.7-1.9,0.7-2.5,0l-7.1-9.1l1.5-1.4l8.2,8C817.9,136.6,817.8,137.7,817,138.4z"/>
		<path class="st5" d="M807.6,133.6l1.3-0.1v0.3c0,0.8-0.7,1.5-1.5,1.5h-23c-0.8,0-1.5-0.7-1.5-1.5v-30.4c0-0.8,0.7-1.5,1.5-1.5h4.9
			l-0.2,0.8c0,0.1,0,0.1,0,0.2v3.5c0,0.5,0.4,0.9,0.9,0.9h11.9c0.5,0,0.9-0.4,0.9-0.9v-3.5c0-0.1,0-0.1,0-0.2l-0.2-0.8h4.9
			c0.8,0,1.5,0.7,1.5,1.5l0,11.7l-1.3-0.1v-11.6c0-0.1-0.1-0.2-0.2-0.2H804v3.1c0,1.2-1,2.2-2.2,2.2h-11.9c-1.2,0-2.2-1-2.2-2.2
			v-3.1h-3.4c-0.1,0-0.2,0.1-0.2,0.2v30.4c0,0.1,0.1,0.2,0.2,0.2h23c0.1,0,0.2-0.1,0.2-0.2V133.6z"/>
		<path class="st4" d="M790.6,106.4h10.5c0.4,0,0.8-0.3,0.8-0.8v-3.1c0-0.4-0.3-0.8-0.8-0.8h-2.9c0-1.3-1.1-2.3-2.4-2.3
			c-1.3,0-2.4,1-2.4,2.3h-2.8c-0.4,0-0.8,0.3-0.8,0.8v3.1C789.9,106.1,790.2,106.4,790.6,106.4L790.6,106.4z"/>
		<path class="st5" d="M793.4,112.2l-0.3-0.3c-0.1-0.1-0.3-0.1-0.4,0l-2.8,2.8l-1.5-1.5c-0.1-0.1-0.3-0.1-0.4,0l-0.3,0.3
			c-0.1,0.1-0.1,0.3,0,0.4l2,2c0.1,0.1,0.1,0.1,0.2,0.1c0.1,0,0.1,0,0.2-0.1l3.3-3.3C793.5,112.5,793.5,112.3,793.4,112.2
			L793.4,112.2z"/>
		<path class="st3" d="M793.6,116c0,0.5-0.4,1-1,1h-4.2c-0.5,0-1-0.4-1-1v-4.3c0-0.5,0.4-1,1-1h4.2c0.5,0,1,0.4,1,1V116z
			 M794.1,111.4c0-0.6-0.5-1.1-1.1-1.1h-5c-0.6,0-1.1,0.5-1.1,1.1v5c0,0.6,0.5,1.1,1.1,1.1h5c0.6,0,1.1-0.5,1.1-1.1V111.4z"/>
		<path class="st5" d="M793.4,124.3l-0.3-0.3c-0.1-0.1-0.3-0.1-0.4,0l-2.8,2.8l-1.5-1.5c-0.1-0.1-0.3-0.1-0.4,0l-0.3,0.3
			c-0.1,0.1-0.1,0.3,0,0.4l2,2c0.1,0.1,0.1,0.1,0.2,0.1c0.1,0,0.1,0,0.2-0.1l3.3-3.3C793.5,124.6,793.5,124.4,793.4,124.3
			L793.4,124.3z"/>
		<path class="st3" d="M793.6,128.1c0,0.5-0.4,1-1,1h-4.2c-0.5,0-1-0.4-1-1v-4.2c0-0.5,0.4-1,1-1h4.2c0.5,0,1,0.4,1,1V128.1z
			 M794.1,123.5c0-0.6-0.5-1.1-1.1-1.1h-5c-0.6,0-1.1,0.5-1.1,1.1v5c0,0.6,0.5,1.1,1.1,1.1h5c0.6,0,1.1-0.5,1.1-1.1V123.5z"/>
		<path class="st3" d="M805.1,113.3c0,0.4-0.3,0.8-0.7,0.8h-7.7c-0.4,0-0.7-0.3-0.7-0.8l0,0c0-0.4,0.3-0.8,0.7-0.8h7.7
			C804.8,112.5,805.1,112.8,805.1,113.3L805.1,113.3z"/>
		<path class="st3" d="M795.9,119.7c0,0.4-0.3,0.8-0.7,0.8h-7.7c-0.4,0-0.7-0.3-0.7-0.8l0,0c0-0.4,0.3-0.8,0.7-0.8h7.7
			C795.6,118.9,795.9,119.3,795.9,119.7L795.9,119.7z"/>
		<path class="st4" d="M804.5,116.4c-3.9-0.4-7.3,2.5-7.7,6.4c-0.4,3.9,2.5,7.3,6.4,7.7c3.9,0.4,7.3-2.5,7.7-6.4
			C811.2,120.2,808.3,116.8,804.5,116.4z M803.3,128.8c-3-0.3-5.1-2.9-4.9-5.9c0.3-3,2.9-5.1,5.9-4.9c3,0.3,5.1,2.9,4.9,5.9
			C808.9,126.9,806.3,129.1,803.3,128.8z"/>
	</g>
</g>
<text transform="matrix(1 0 0 1 926.484 92.4882)" class="st6 st7 st8">6. End of contract, relationship and renewable</text>
<g>
	<text transform="matrix(1 0 0 1 927.4839 214.976)" class="st6 st7 st8">5. Performance monitoring and reporting</text>
</g>
<text transform="matrix(1 0 0 1 925.9837 339.189)" class="st6 st7 st8">4. Ongoing operations and operational problems</text>
<text transform="matrix(1 0 0 1 964.8212 118.8952)"><tspan x="0" y="0" class="st6 st9 st10">Optimization of standards, procedures, policies of sourcing,</tspan><tspan x="0" y="18" class="st6 st9 st10">procurement and inventory management processes</tspan><tspan x="0" y="36" class="st6 st9 st10">Revisit, KPI’s. KRA’s and SLA’s etc.</tspan></text>
<polygon class="st6" points="952.7,113.5 946,108.9 950.1,113.6 946,118.1 "/>
<polygon class="st6" points="956.6,113.5 949.8,108.9 954,113.6 949.8,118.1 "/>
<polygon class="st6" points="952.7,149 946,144.4 950.1,149.1 946,153.6 "/>
<polygon class="st6" points="956.6,149 949.8,144.4 954,149.1 949.8,153.6 "/>
<polygon class="st6" points="953.7,236.9 947,232.3 951.1,237 947,241.6 "/>
<polygon class="st6" points="957.6,236.9 950.8,232.3 955,237 950.8,241.6 "/>
<polygon class="st6" points="953.7,254.4 947,249.8 951.1,254.5 947,259.1 "/>
<polygon class="st6" points="957.6,254.4 950.8,249.8 955,254.5 950.8,259.1 "/>
<text transform="matrix(1 0 0 1 965.4838 242.1892)"><tspan x="0" y="0" class="st6 st9 st10">KPI’s and KRA’s measurement</tspan><tspan x="0" y="18" class="st6 st9 st10">Insights for effective decision making</tspan></text>
<polygon class="st6" points="953.7,360.4 947,355.8 951.1,360.5 947,365.1 "/>
<polygon class="st6" points="957.6,360.4 950.8,355.8 955,360.5 950.8,365.1 "/>
<polygon class="st6" points="953.7,377.9 947,373.3 951.1,378 947,382.6 "/>
<polygon class="st6" points="957.6,377.9 950.8,373.3 955,378 950.8,382.6 "/>
<text transform="matrix(1 0 0 1 965.4838 364.6892)"><tspan x="0" y="0" class="st6 st9 st10">Performance management</tspan><tspan x="0" y="18" class="st6 st9 st10">RCA, 360 Feedback, Site Visits etc..</tspan></text>
<text transform="matrix(1 0 0 1 43.5706 93.4882)"><tspan x="0" y="0" class="st6 st7 st8">1. Determine and define needs through market research</tspan><tspan x="0" y="20.4" class="st6 st7 st8">    and past contracts</tspan></text>
<g>
	<text transform="matrix(1 0 0 1 44.5704 193.976)" class="st6 st7 st8">5. Execute contract terms and SLA</text>
</g>
<text transform="matrix(1 0 0 1 43.0702 288.189)"><tspan x="0" y="0" class="st6 st7 st8">4. Implementation of service or product sourcing and</tspan><tspan x="0" y="20.4" class="st6 st7 st8">    procurement procedures</tspan></text>
<text transform="matrix(1 0 0 1 81.9077 135.8952)"><tspan x="0" y="0" class="st6 st9 st10">Governance model including definition of key committees,</tspan><tspan x="0" y="18" class="st6 st9 st10">their roles and charters as well as meeting cadence</tspan></text>
<polygon class="st6" points="69.8,130.5 63.1,125.9 67.2,130.6 63.1,135.1 "/>
<polygon class="st6" points="73.7,130.5 66.9,125.9 71.1,130.6 66.9,135.1 "/>
<g>
	<polygon class="st6" points="70.8,208.9 64.1,204.3 68.2,209 64.1,213.6 	"/>
	<polygon class="st6" points="74.7,208.9 67.9,204.3 72.1,209 67.9,213.6 	"/>
</g>
<g>
	<polygon class="st6" points="70.8,227.4 64.1,222.7 68.2,227.4 64.1,232 	"/>
	<polygon class="st6" points="74.7,227.4 67.9,222.7 72.1,227.4 67.9,232 	"/>
</g>
<g>
	<polygon class="st6" points="70.8,245.8 64.1,241.2 68.2,245.8 64.1,250.4 	"/>
	<polygon class="st6" points="74.7,245.8 67.9,241.2 72.1,245.8 67.9,250.4 	"/>
</g>
<text transform="matrix(1 0 0 1 82.5703 214.1891)"><tspan x="0" y="0" class="st6 st9 st10">Operational excellence</tspan><tspan x="0" y="18" class="st6 st9 st10">KPI’s and KRA’s Definition</tspan><tspan x="0" y="36" class="st6 st9 st10">SLA’s Definition</tspan></text>
<polygon class="st6" points="68.8,326.4 62.1,321.8 66.2,326.5 62.1,331.1 "/>
<polygon class="st6" points="72.7,326.4 65.9,321.8 70.1,326.5 65.9,331.1 "/>
<polygon class="st6" points="68.8,378.9 62.1,374.3 66.2,379 62.1,383.6 "/>
<polygon class="st6" points="72.7,378.9 65.9,374.3 70.1,379 65.9,383.6 "/>
<text transform="matrix(1 0 0 1 80.5703 330.6892)"><tspan x="0" y="0" class="st6 st9 st10">Business Partner management policies covering performance,</tspan><tspan x="0" y="18" class="st6 st9 st10">reporting, penalties and other critical requirements to align with</tspan><tspan x="0" y="36" class="st6 st9 st10">Customer’s corporate and procurement</tspan><tspan x="0" y="54" class="st6 st9 st10">Roles, responsibilities, job descriptions, templates and forms for</tspan><tspan x="0" y="72" class="st6 st9 st10">each procedure</tspan></text>
</svg>
