<?xml version="1.0" encoding="utf-8"?>
<!-- Generator: Adobe Illustrator 22.0.1, SVG Export Plug-In . SVG Version: 6.00 Build 0)  -->
<svg version="1.1" id="Layer_1" xmlns="http://www.w3.org/2000/svg" xmlns:xlink="http://www.w3.org/1999/xlink" x="0px" y="0px"
	 viewBox="0 0 100 100" style="enable-background:new 0 0 100 100;" xml:space="preserve">
<style type="text/css">
	.st0{fill:none;stroke:#000102;stroke-width:1.5;stroke-miterlimit:10;}
	.st1{fill:#F0AB00;}
	.st2{fill:#558ED5;}
	.st3{fill:#05225F;}
	.st4{fill:#0B4A99;}
	.st5{fill:#CD1618;}
	.st6{fill:#2665AA;}
	.st7{fill:#3779BF;}
	.st8{fill:#002060;}
	.st9{fill:none;stroke:#000000;stroke-width:1.5;stroke-miterlimit:10;}
	.st10{fill:#40875E;}
	.st11{fill:#A8A240;}
	.st12{fill:#000102;}
	.st13{fill:none;stroke:#0B4A99;stroke-miterlimit:10;}
	.st14{fill:#0071C5;}
	.st15{fill:#26774B;}
	.st16{fill:#B91218;}
	.st17{fill:#BFBFBF;}
	.st18{fill:#A70000;}
	.st19{fill-rule:evenodd;clip-rule:evenodd;fill:#0B4A99;}
	.st20{fill-rule:evenodd;clip-rule:evenodd;fill:#002060;}
	.st21{fill-rule:evenodd;clip-rule:evenodd;fill:#40875E;}
	.st22{fill-rule:evenodd;clip-rule:evenodd;fill:#A8A240;}
	.st23{fill:#5E6D61;}
	.st24{opacity:0.65;fill:#558ED5;}
	.st25{opacity:0.55;fill:#CD1618;}
	.st26{opacity:0.65;fill:#002060;}
	.st27{opacity:0.65;}
	.st28{opacity:0.65;fill:#26774B;}
	.st29{opacity:0.23;fill:#26774B;}
	.st30{opacity:0.98;fill:#558ED5;}
	.st31{opacity:0.9;fill:#558ED5;}
	.st32{opacity:0.65;fill:#CD1618;}
	.st33{opacity:0.65;fill:#0B4A99;}
	.st34{opacity:0.65;fill:#F0AB00;}
	.st35{fill:#F0AB00;stroke:#000000;stroke-width:0.5;stroke-miterlimit:10;}
	.st36{fill:#26774B;stroke:#000000;stroke-width:0.5;stroke-miterlimit:10;}
	.st37{fill:#A8A240;stroke:#000000;stroke-width:0.5;stroke-miterlimit:10;}
</style>
<g>
	<polygon class="st1" points="9.8,84.4 27.7,67.1 27.7,91.1 9.8,91.1 	"/>
	<polygon class="st11" points="32.8,62.9 43.3,52.5 50.1,59.3 50.1,91.1 32.8,91.1 	"/>
	<polygon class="st11" points="56.4,62 74.9,45 74.9,91.1 56.4,91.1 	"/>
	<polygon class="st10" points="79.9,39.8 97.8,23 97.8,91.1 79.9,91.1 	"/>
	<path class="st12" d="M6.6,79.7c-3,0-5.4-2.4-5.4-5.4c0-3,2.4-5.4,5.4-5.4c3,0,5.4,2.4,5.4,5.4C12,77.3,9.6,79.7,6.6,79.7z
		 M6.6,70.6c-2.1,0-3.8,1.7-3.8,3.8c0,2.1,1.7,3.8,3.8,3.8c2.1,0,3.8-1.7,3.8-3.8C10.4,72.3,8.7,70.6,6.6,70.6z"/>
	<path class="st12" d="M44.6,44.9c-3,0-5.4-2.4-5.4-5.4c0-3,2.4-5.4,5.4-5.4c3,0,5.4,2.4,5.4,5.4C50,42.5,47.6,44.9,44.6,44.9z
		 M44.6,35.8c-2.1,0-3.8,1.7-3.8,3.8c0,2.1,1.7,3.8,3.8,3.8c2.1,0,3.8-1.7,3.8-3.8C48.4,37.5,46.7,35.8,44.6,35.8z"/>
	<path class="st12" d="M55.4,55.5c-3,0-5.4-2.4-5.4-5.4c0-3,2.4-5.4,5.4-5.4c3,0,5.4,2.4,5.4,5.4C60.8,53.1,58.4,55.5,55.4,55.5z
		 M55.4,46.4c-2.1,0-3.8,1.7-3.8,3.8c0,2.1,1.7,3.8,3.8,3.8c2.1,0,3.8-1.7,3.8-3.8C59.2,48.1,57.5,46.4,55.4,46.4z"/>
	<path class="st12" d="M93.4,19.7c-3,0-5.4-2.4-5.4-5.4s2.4-5.4,5.4-5.4c3,0,5.4,2.4,5.4,5.4S96.3,19.7,93.4,19.7z M93.4,10.5
		c-2.1,0-3.8,1.7-3.8,3.8s1.7,3.8,3.8,3.8c2.1,0,3.8-1.7,3.8-3.8S95.5,10.5,93.4,10.5z"/>
	
		<rect x="4.3" y="56.1" transform="matrix(0.7376 -0.6752 0.6752 0.7376 -31.7209 32.1031)" class="st12" width="42.4" height="1.6"/>
	
		<rect x="49.3" y="41.9" transform="matrix(0.7214 -0.6925 0.6925 0.7214 -17.1711 47.2081)" class="st12" width="1.6" height="6.1"/>
	
		<rect x="53.3" y="31.9" transform="matrix(0.7213 -0.6926 0.6926 0.7213 -1.8003 60.8657)" class="st12" width="42.8" height="1.6"/>
</g>
</svg>
