<?xml version="1.0" encoding="utf-8"?>
<!-- Generator: Adobe Illustrator 22.0.1, SVG Export Plug-In . SVG Version: 6.00 Build 0)  -->
<svg version="1.1" id="Layer_1" xmlns="http://www.w3.org/2000/svg" xmlns:xlink="http://www.w3.org/1999/xlink" x="0px" y="0px"
	 viewBox="0 0 100 100" style="enable-background:new 0 0 100 100;" xml:space="preserve">
<style type="text/css">
	.st0{fill:none;stroke:#000102;stroke-width:1.5;stroke-miterlimit:10;}
	.st1{fill:#F0AB00;}
	.st2{fill:#558ED5;}
	.st3{fill:#05225F;}
	.st4{fill:#0B4A99;}
	.st5{fill:#CD1618;}
	.st6{fill:#2665AA;}
	.st7{fill:#3779BF;}
	.st8{fill:#002060;}
	.st9{fill:none;stroke:#000000;stroke-width:1.5;stroke-miterlimit:10;}
	.st10{fill:#40875E;}
	.st11{fill:#A8A240;}
	.st12{fill:#000102;}
	.st13{fill:none;stroke:#0B4A99;stroke-miterlimit:10;}
	.st14{fill:#0071C5;}
	.st15{fill:#26774B;}
	.st16{fill:#B91218;}
	.st17{fill:#BFBFBF;}
	.st18{fill:#A70000;}
	.st19{fill-rule:evenodd;clip-rule:evenodd;fill:#0B4A99;}
	.st20{fill-rule:evenodd;clip-rule:evenodd;fill:#002060;}
	.st21{fill-rule:evenodd;clip-rule:evenodd;fill:#40875E;}
	.st22{fill-rule:evenodd;clip-rule:evenodd;fill:#A8A240;}
	.st23{fill:#5E6D61;}
	.st24{opacity:0.65;fill:#558ED5;}
	.st25{opacity:0.55;fill:#CD1618;}
	.st26{opacity:0.65;fill:#002060;}
	.st27{opacity:0.65;}
	.st28{opacity:0.65;fill:#26774B;}
	.st29{opacity:0.23;fill:#26774B;}
	.st30{opacity:0.98;fill:#558ED5;}
	.st31{opacity:0.9;fill:#558ED5;}
	.st32{opacity:0.65;fill:#CD1618;}
	.st33{opacity:0.65;fill:#0B4A99;}
	.st34{opacity:0.65;fill:#F0AB00;}
	.st35{fill:#F0AB00;stroke:#000000;stroke-width:0.5;stroke-miterlimit:10;}
	.st36{fill:#26774B;stroke:#000000;stroke-width:0.5;stroke-miterlimit:10;}
	.st37{fill:#A8A240;stroke:#000000;stroke-width:0.5;stroke-miterlimit:10;}
</style>
<line class="st0" x1="73.7" y1="5.8" x2="86.3" y2="58.8"/>
<line class="st0" x1="20.7" y1="5.3" x2="9" y2="58.9"/>
<path class="st10" d="M65,58.6L59,65.3H37.4l-5.5-6.8H8.2v38.6H87V58.6H65z M56,82.4c0,1.9-1.5,3.4-3.4,3.4h-8.2
	c-1.9,0-3.4-1.5-3.4-3.4v-4h15V82.4z"/>
<g>
	<g>
		<polygon class="st11" points="76.1,54.7 72.7,54.7 72.7,44.7 21.9,44.7 21.9,54.7 18.5,54.7 18.5,41.3 76.1,41.3 		"/>
	</g>
</g>
<g>
	<g>
		<polygon class="st11" points="71.5,39.2 68.1,39.2 68.1,31.2 26.5,31.2 26.5,39.2 23.1,39.2 23.1,27.8 71.5,27.8 		"/>
	</g>
</g>
<g>
	<polygon class="st1" points="68.5,25.1 65.1,25.1 65.1,18.4 29.5,18.4 29.5,25.1 26.1,25.1 26.1,15 68.5,15 	"/>
</g>
<g>
	<polygon class="st1" points="65.2,12.3 61.8,12.3 61.8,7.1 32.8,7.1 32.8,12.3 29.4,12.3 29.4,3.7 65.2,3.7 	"/>
</g>
</svg>
