<?xml version="1.0" encoding="utf-8"?>
<!-- Generator: Adobe Illustrator 22.0.1, SVG Export Plug-In . SVG Version: 6.00 Build 0)  -->
<svg version="1.1" id="Layer_1" xmlns="http://www.w3.org/2000/svg" xmlns:xlink="http://www.w3.org/1999/xlink" x="0px" y="0px"
	 viewBox="0 0 100 100" style="enable-background:new 0 0 100 100;" xml:space="preserve">
<style type="text/css">
	.st0{fill:none;stroke:#000102;stroke-width:1.5;stroke-miterlimit:10;}
	.st1{fill:#40875E;}
	.st2{fill:#A8A240;}
	.st3{fill:#F0AB00;}
	.st4{fill:none;}
	.st5{fill:none;stroke:#000201;stroke-width:1.5;stroke-miterlimit:10;}
	.st6{fill:#000201;}
	.st7{fill:#FFFFFF;}
</style>
<g>
	<g>
		<path class="st6" d="M77.7,96.7c-11.9,0-21.6-9.7-21.6-21.6s9.7-21.6,21.6-21.6s21.6,9.7,21.6,21.6S89.6,96.7,77.7,96.7z
			 M77.7,54.9c-11.1,0-20.2,9.1-20.2,20.2s9.1,20.2,20.2,20.2s20.2-9.1,20.2-20.2S88.8,54.9,77.7,54.9z"/>
	</g>
	<g>
		<path class="st2" d="M88,62.4c-0.6,0-1.4,0.1-2.4,0.2c-1,0.2-1.7,0.3-2.1,0.6c-0.4,0.2-1,0.8-1.9,1.7c-0.8,0.9-1.9,2.2-3.2,4.1
			c-1.3,1.8-2.4,3.6-3.3,5.3c-0.8,1.5-1.7,3.1-2.5,4.9c-0.6-0.8-1.2-1.4-1.9-1.8c-0.8-0.6-1.6-0.8-2.3-0.8c-0.7,0-1.6,0.3-2.4,1
			c-0.9,0.7-1.3,1.4-1.3,2.3c0,0.6,0.4,1.4,1.2,2.2c1.2,1.3,2.1,2.5,2.8,3.5c0.5,0.8,0.9,1.3,1.1,1.5c0.2,0.3,0.5,0.5,0.9,0.6
			c0.3,0.1,0.9,0.2,1.8,0.2c1.1,0,1.9-0.1,2.4-0.4c0.5-0.3,0.8-0.6,1.1-1.1c0.2-0.4,0.6-1.2,1.1-2.5c1.3-3.2,3-6.5,5.2-9.9
			c2.1-3.4,4.2-6,6.2-7.9c0.5-0.4,0.8-0.8,0.9-1c0.2-0.3,0.3-0.6,0.3-0.9c0-0.4-0.2-0.8-0.5-1.1C88.9,62.6,88.5,62.4,88,62.4z"/>
	</g>
	<path class="st4" d="M50.3,41.4V29.1c1.3,1.1,2.2,2.3,2.7,3.7l0.7,1.7h4.9l0.5-2c0.6-2.4,1.4-4.8,2.4-7l1-2.2l-2-1.2
		c-1.3-0.8-3.1-1.5-5.6-2.1c-1.4-0.4-3-0.7-4.5-0.8v-5.7h-8.9v6.2c-3.2,0.7-6,2.1-8.3,4.1c-3.8,3.3-5.8,7.8-5.8,13.5
		c0,5.3,2.5,12.3,14.1,15.8v13.9c-0.8-0.3-1.5-0.7-2.2-1.2c-1.8-1.2-3.3-2.8-4.5-4.7l-0.8-1.3h-4.6L28.9,62
		c-0.2,1.1-0.5,2.3-0.9,3.5c-0.4,1.3-0.8,2.6-1.3,3.8l-0.7,2l1.8,1.1c2,1.2,4.3,2.1,7,2.8c2.2,0.5,4.4,0.9,6.4,1v6.7h8.9V75
		c1.4-0.4,2.7-1,3.9-1.6c0.1-1.1,0.2-2.3,0.4-3.4c-2.1,1.4-4.4,2.4-7,2.9v7.2H44v-6.7c-0.5,0-1,0.1-1.6,0.1c-2.2,0-4.5-0.3-6.9-0.9
		s-4.5-1.4-6.3-2.5c0.4-1.3,0.8-2.5,1.3-3.8c0.4-1.3,0.7-2.6,0.9-3.8h0.8c1.3,2.2,3.1,4.1,5.3,5.6c2,1.4,4.2,2.1,6.4,2.2V51
		c-0.5-0.2-1.1-0.4-1.7-0.5c-8.3-2.4-12.4-6.8-12.4-13.3c0-4.9,1.6-8.7,4.8-11.5c2.5-2.2,5.6-3.4,9.3-3.9v-5.7h3.6v5.6
		c2.3,0,4.4,0.3,6.5,0.9c2.2,0.6,3.8,1.2,4.9,1.8c-1.1,2.4-1.9,4.9-2.5,7.5h-0.9c-0.7-1.8-1.9-3.4-3.6-4.8c-1.4-1.1-2.8-1.8-4.3-2
		v18.3c0.6,0.2,1.2,0.4,1.8,0.6c8.3,2.7,12.4,7,12.4,12.9c0,0.3,0,0.5,0,0.7c0.8-0.8,1.7-1.5,2.7-2.1C63.9,49,59.1,44.3,50.3,41.4z"
		/>
	<path class="st4" d="M47.6,52.4v17.3c1.4-0.4,2.8-1.2,4-2.2c2.1-1.8,3.2-4.1,3.2-6.8C54.8,57.3,52.4,54.6,47.6,52.4z M50.3,65.1
		v-7.9c1.2,1.1,1.8,2.2,1.8,3.5C52.1,62.4,51.5,63.8,50.3,65.1z"/>
	<path class="st4" d="M37,33.6c0,3.2,2.4,5.9,7.1,8.2V25.2c-1.6,0.3-3.1,1-4.3,2C37.9,28.8,37,30.9,37,33.6z M41.4,36.9
		c-1.1-1.1-1.7-2.2-1.7-3.3c0-1.9,0.5-3.3,1.7-4.3V36.9z"/>
	<path class="st1" d="M50.3,65.1c1.2-1.2,1.8-2.7,1.8-4.4c0-1.2-0.6-2.4-1.8-3.5V65.1z"/>
	<path class="st1" d="M41.4,36.9v-7.6c-1.2,1-1.7,2.4-1.7,4.3C39.7,34.8,40.2,35.9,41.4,36.9z"/>
	<path class="st1" d="M54.2,73.4c-1.2,0.6-2.5,1.2-3.9,1.6v7.8h-8.9v-6.7c-2.1-0.1-4.2-0.4-6.4-1c-2.7-0.7-5-1.6-7-2.8l-1.8-1.1
		l0.7-2c0.4-1.3,0.8-2.5,1.3-3.8c0.4-1.2,0.7-2.3,0.9-3.5l0.4-2.2h4.6l0.8,1.3c1.1,1.9,2.6,3.5,4.5,4.7c0.7,0.5,1.5,0.9,2.2,1.2V53
		c-11.7-3.4-14.1-10.5-14.1-15.8c0-5.7,1.9-10.3,5.8-13.5c2.4-2,5.1-3.4,8.3-4.1v-6.2h8.9v5.7c1.6,0.2,3.1,0.4,4.5,0.8
		c2.5,0.7,4.3,1.4,5.6,2.1l2,1.2l-1,2.2c-1,2.2-1.8,4.6-2.4,7l-0.5,2h-4.9L53,32.8c-0.5-1.4-1.4-2.6-2.7-3.7v12.3
		c8.8,2.9,13.6,7.6,14.2,14c3.7-2.5,8.1-3.9,12.9-3.9c4.6,0,8.8,1.3,12.4,3.6c0.4-2.3,0.6-4.6,0.6-7c0-24.7-20.1-44.8-44.8-44.8
		S0.8,23.4,0.8,48.1s20.1,44.8,44.8,44.8c5.1,0,10-0.9,14.6-2.4c-3.8-4.1-6.1-9.6-6.1-15.6C54.1,74.4,54.1,73.9,54.2,73.4z"/>
	<path class="st3" d="M61.8,57.6c0-0.2,0-0.5,0-0.7c0-5.9-4.1-10.2-12.4-12.9c-0.6-0.2-1.2-0.4-1.8-0.6V25c1.5,0.2,3,0.9,4.3,2
		c1.7,1.4,2.9,3,3.6,4.8h0.9c0.6-2.6,1.5-5.1,2.5-7.5c-1.1-0.6-2.7-1.2-4.9-1.8c-2.1-0.6-4.2-0.8-6.5-0.9v-5.6H44v5.7
		c-3.6,0.5-6.7,1.8-9.3,3.9c-3.2,2.7-4.8,6.6-4.8,11.5c0,6.5,4.1,10.9,12.4,13.3c0.6,0.2,1.1,0.3,1.7,0.5v19.1
		c-2.2-0.1-4.4-0.8-6.4-2.2c-2.2-1.5-3.9-3.3-5.3-5.6h-0.8c-0.2,1.3-0.5,2.5-0.9,3.8c-0.4,1.3-0.8,2.6-1.3,3.8
		c1.8,1.1,3.8,1.9,6.3,2.5s4.7,0.9,6.9,0.9c0.5,0,1.1,0,1.6-0.1v6.7h3.6v-7.2c2.6-0.5,4.9-1.5,7-2.9C55.6,65.1,58.2,60.8,61.8,57.6z
		 M44,41.9c-4.7-2.3-7.1-5-7.1-8.2c0-2.7,0.9-4.9,2.7-6.4c1.2-1,2.7-1.7,4.3-2V41.9z M51.6,67.5c-1.2,1.1-2.6,1.8-4,2.2V52.4
		c4.8,2.2,7.2,4.9,7.2,8.2C54.8,63.4,53.7,65.6,51.6,67.5z"/>
</g>
</svg>
