<svg id="Layer_1" data-name="Layer 1" xmlns="http://www.w3.org/2000/svg" viewBox="0 0 150 150"><defs><style>.cls-1{fill:#0b4a99;}.cls-2{fill:none;stroke:#0b4a99;stroke-linecap:round;stroke-linejoin:round;stroke-width:4.51px;}</style></defs><rect class="cls-1" x="15.18" y="15.43" width="5.67" height="5.67"/><rect class="cls-1" x="20.85" y="15.43" width="5.67" height="5.67"/><rect class="cls-1" x="26.53" y="15.43" width="5.67" height="5.67"/><rect class="cls-1" x="32.2" y="15.43" width="5.67" height="5.67"/><rect class="cls-1" x="37.87" y="15.43" width="5.67" height="5.67"/><rect class="cls-1" x="43.55" y="15.43" width="5.67" height="5.67"/><rect class="cls-1" x="49.22" y="15.43" width="5.67" height="5.67"/><rect class="cls-1" x="66.24" y="15.43" width="5.67" height="5.67"/><rect class="cls-1" x="77.58" y="15.43" width="5.67" height="5.67"/><rect class="cls-1" x="83.26" y="15.43" width="5.67" height="5.67"/><rect class="cls-1" x="94.6" y="15.43" width="5.67" height="5.67"/><rect class="cls-1" x="100.28" y="15.43" width="5.67" height="5.67"/><rect class="cls-1" x="105.95" y="15.43" width="5.67" height="5.67"/><rect class="cls-1" x="111.62" y="15.43" width="5.67" height="5.67"/><rect class="cls-1" x="117.3" y="15.43" width="5.67" height="5.67"/><rect class="cls-1" x="122.97" y="15.43" width="5.67" height="5.67"/><rect class="cls-1" x="128.64" y="15.43" width="5.67" height="5.67"/><rect class="cls-1" x="15.18" y="21.11" width="5.67" height="5.67"/><rect class="cls-1" x="49.22" y="21.11" width="5.67" height="5.67"/><rect class="cls-1" x="66.24" y="21.11" width="5.67" height="5.67"/><rect class="cls-1" x="71.91" y="21.11" width="5.67" height="5.67"/><rect class="cls-1" x="77.58" y="21.11" width="5.67" height="5.67"/><rect class="cls-1" x="94.6" y="21.11" width="5.67" height="5.67"/><rect class="cls-1" x="128.64" y="21.11" width="5.67" height="5.67"/><rect class="cls-1" x="15.18" y="26.78" width="5.67" height="5.67"/><rect class="cls-1" x="26.53" y="26.78" width="5.67" height="5.67"/><rect class="cls-1" x="32.2" y="26.78" width="5.67" height="5.67"/><rect class="cls-1" x="37.87" y="26.78" width="5.67" height="5.67"/><rect class="cls-1" x="49.22" y="26.78" width="5.67" height="5.67"/><rect class="cls-1" x="60.56" y="26.78" width="5.67" height="5.67"/><rect class="cls-1" x="66.24" y="26.78" width="5.67" height="5.67"/><rect class="cls-1" x="77.58" y="26.78" width="5.67" height="5.67"/><rect class="cls-1" x="83.26" y="26.78" width="5.67" height="5.67"/><rect class="cls-1" x="94.6" y="26.78" width="5.67" height="5.67"/><rect class="cls-1" x="105.95" y="26.78" width="5.67" height="5.67"/><rect class="cls-1" x="111.62" y="26.78" width="5.67" height="5.67"/><rect class="cls-1" x="117.3" y="26.78" width="5.67" height="5.67"/><rect class="cls-1" x="128.64" y="26.78" width="5.67" height="5.67"/><rect class="cls-1" x="15.18" y="32.45" width="5.67" height="5.67"/><rect class="cls-1" x="26.53" y="32.45" width="5.67" height="5.67"/><rect class="cls-1" x="32.2" y="32.45" width="5.67" height="5.67"/><rect class="cls-1" x="37.87" y="32.45" width="5.67" height="5.67"/><rect class="cls-1" x="49.22" y="32.45" width="5.67" height="5.67"/><rect class="cls-1" x="66.24" y="32.45" width="5.67" height="5.67"/><rect class="cls-1" x="77.58" y="32.45" width="5.67" height="5.67"/><rect class="cls-1" x="94.6" y="32.45" width="5.67" height="5.67"/><rect class="cls-1" x="105.95" y="32.45" width="5.67" height="5.67"/><rect class="cls-1" x="111.62" y="32.45" width="5.67" height="5.67"/><rect class="cls-1" x="117.3" y="32.45" width="5.67" height="5.67"/><rect class="cls-1" x="128.64" y="32.45" width="5.67" height="5.67"/><rect class="cls-1" x="15.18" y="38.12" width="5.67" height="5.67"/><rect class="cls-1" x="26.53" y="38.12" width="5.67" height="5.67"/><rect class="cls-1" x="32.2" y="38.12" width="5.67" height="5.67"/><rect class="cls-1" x="37.87" y="38.12" width="5.67" height="5.67"/><rect class="cls-1" x="49.22" y="38.12" width="5.67" height="5.67"/><rect class="cls-1" x="71.91" y="38.12" width="5.67" height="5.67"/><rect class="cls-1" x="83.26" y="38.12" width="5.67" height="5.67"/><rect class="cls-1" x="94.6" y="38.12" width="5.67" height="5.67"/><rect class="cls-1" x="105.95" y="38.12" width="5.67" height="5.67"/><rect class="cls-1" x="111.62" y="38.12" width="5.67" height="5.67"/><rect class="cls-1" x="117.3" y="38.12" width="5.67" height="5.67"/><rect class="cls-1" x="128.64" y="38.12" width="5.67" height="5.67"/><rect class="cls-1" x="15.18" y="43.8" width="5.67" height="5.67"/><rect class="cls-1" x="49.22" y="43.8" width="5.67" height="5.67"/><rect class="cls-1" x="83.26" y="43.8" width="5.67" height="5.67"/><rect class="cls-1" x="94.6" y="43.8" width="5.67" height="5.67"/><rect class="cls-1" x="128.64" y="43.8" width="5.67" height="5.67"/><rect class="cls-1" x="15.18" y="49.47" width="5.67" height="5.67"/><rect class="cls-1" x="20.85" y="49.47" width="5.67" height="5.67"/><rect class="cls-1" x="26.53" y="49.47" width="5.67" height="5.67"/><rect class="cls-1" x="32.2" y="49.47" width="5.67" height="5.67"/><rect class="cls-1" x="37.87" y="49.47" width="5.67" height="5.67"/><rect class="cls-1" x="43.55" y="49.47" width="5.67" height="5.67"/><rect class="cls-1" x="49.22" y="49.47" width="5.67" height="5.67"/><rect class="cls-1" x="60.56" y="49.47" width="5.67" height="5.67"/><rect class="cls-1" x="71.91" y="49.47" width="5.67" height="5.67"/><rect class="cls-1" x="83.26" y="49.47" width="5.67" height="5.67"/><rect class="cls-1" x="94.6" y="49.47" width="5.67" height="5.67"/><rect class="cls-1" x="100.28" y="49.47" width="5.67" height="5.67"/><rect class="cls-1" x="105.95" y="49.47" width="5.67" height="5.67"/><rect class="cls-1" x="111.62" y="49.47" width="5.67" height="5.67"/><rect class="cls-1" x="117.3" y="49.47" width="5.67" height="5.67"/><rect class="cls-1" x="122.97" y="49.47" width="5.67" height="5.67"/><rect class="cls-1" x="128.64" y="49.47" width="5.67" height="5.67"/><rect class="cls-1" x="60.56" y="55.14" width="5.67" height="5.67"/><rect class="cls-1" x="66.24" y="55.14" width="5.67" height="5.67"/><rect class="cls-1" x="77.58" y="55.14" width="5.67" height="5.67"/><rect class="cls-1" x="83.26" y="55.14" width="5.67" height="5.67"/><rect class="cls-1" x="15.18" y="60.82" width="5.67" height="5.67"/><rect class="cls-1" x="20.85" y="60.82" width="5.67" height="5.67"/><rect class="cls-1" x="26.53" y="60.82" width="5.67" height="5.67"/><rect class="cls-1" x="37.87" y="60.82" width="5.67" height="5.67"/><rect class="cls-1" x="43.55" y="60.82" width="5.67" height="5.67"/><rect class="cls-1" x="49.22" y="60.82" width="5.67" height="5.67"/><rect class="cls-1" x="54.89" y="60.82" width="5.67" height="5.67"/><rect class="cls-1" x="60.56" y="60.82" width="5.67" height="5.67"/><rect class="cls-1" x="66.24" y="60.82" width="5.67" height="5.67"/><rect class="cls-1" x="71.91" y="60.82" width="5.67" height="5.67"/><rect class="cls-1" x="77.58" y="60.82" width="5.67" height="5.67"/><rect class="cls-1" x="88.93" y="60.82" width="5.67" height="5.67"/><rect class="cls-1" x="94.6" y="60.82" width="5.67" height="5.67"/><rect class="cls-1" x="117.3" y="60.82" width="5.67" height="5.67"/><rect class="cls-1" x="15.18" y="66.49" width="5.67" height="5.67"/><rect class="cls-1" x="26.53" y="66.49" width="5.67" height="5.67"/><rect class="cls-1" x="32.2" y="66.49" width="5.67" height="5.67"/><rect class="cls-1" x="37.87" y="66.49" width="5.67" height="5.67"/><rect class="cls-1" x="66.24" y="66.49" width="5.67" height="5.67"/><rect class="cls-1" x="94.6" y="66.49" width="5.67" height="5.67"/><rect class="cls-1" x="100.28" y="66.49" width="5.67" height="5.67"/><rect class="cls-1" x="128.64" y="66.49" width="5.67" height="5.67"/><rect class="cls-1" x="15.18" y="72.16" width="5.67" height="5.67"/><rect class="cls-1" x="20.85" y="72.16" width="5.67" height="5.67"/><rect class="cls-1" x="37.87" y="72.16" width="5.67" height="5.67"/><rect class="cls-1" x="49.22" y="72.16" width="5.67" height="5.67"/><rect class="cls-1" x="54.89" y="72.16" width="5.67" height="5.67"/><rect class="cls-1" x="60.56" y="72.16" width="5.67" height="5.67"/><rect class="cls-1" x="66.24" y="72.16" width="5.67" height="5.67"/><rect class="cls-1" x="71.91" y="72.16" width="5.67" height="5.67"/><rect class="cls-1" x="83.26" y="72.16" width="5.67" height="5.67"/><rect class="cls-1" x="105.95" y="72.16" width="5.67" height="5.67"/><rect class="cls-1" x="117.3" y="72.16" width="5.67" height="5.67"/><rect class="cls-1" x="122.97" y="72.16" width="5.67" height="5.67"/><rect class="cls-1" x="128.64" y="72.16" width="5.67" height="5.67"/><rect class="cls-1" x="32.2" y="77.84" width="5.67" height="5.67"/><rect class="cls-1" x="37.87" y="77.84" width="5.67" height="5.67"/><rect class="cls-1" x="43.55" y="77.84" width="5.67" height="5.67"/><rect class="cls-1" x="66.24" y="77.84" width="5.67" height="5.67"/><rect class="cls-1" x="71.91" y="77.84" width="5.67" height="5.67"/><rect class="cls-1" x="94.6" y="77.84" width="5.67" height="5.67"/><rect class="cls-1" x="105.95" y="77.84" width="5.67" height="5.67"/><rect class="cls-1" x="122.97" y="77.84" width="5.67" height="5.67"/><rect class="cls-1" x="15.18" y="83.51" width="5.67" height="5.67"/><rect class="cls-1" x="32.2" y="83.51" width="5.67" height="5.67"/><rect class="cls-1" x="43.55" y="83.51" width="5.67" height="5.67"/><rect class="cls-1" x="49.22" y="83.51" width="5.67" height="5.67"/><rect class="cls-1" x="54.89" y="83.51" width="5.67" height="5.67"/><rect class="cls-1" x="83.26" y="83.51" width="5.67" height="5.67"/><rect class="cls-1" x="94.6" y="83.51" width="5.67" height="5.67"/><rect class="cls-1" x="100.28" y="83.51" width="5.67" height="5.67"/><rect class="cls-1" x="111.62" y="83.51" width="5.67" height="5.67"/><rect class="cls-1" x="60.56" y="89.18" width="5.67" height="5.67"/><rect class="cls-1" x="77.58" y="89.18" width="5.67" height="5.67"/><rect class="cls-1" x="88.93" y="89.18" width="5.67" height="5.67"/><rect class="cls-1" x="100.28" y="89.18" width="5.67" height="5.67"/><rect class="cls-1" x="105.95" y="89.18" width="5.67" height="5.67"/><rect class="cls-1" x="122.97" y="89.18" width="5.67" height="5.67"/><rect class="cls-1" x="128.64" y="89.18" width="5.67" height="5.67"/><rect class="cls-1" x="15.18" y="94.86" width="5.67" height="5.67"/><rect class="cls-1" x="20.85" y="94.86" width="5.67" height="5.67"/><rect class="cls-1" x="26.53" y="94.86" width="5.67" height="5.67"/><rect class="cls-1" x="32.2" y="94.86" width="5.67" height="5.67"/><rect class="cls-1" x="37.87" y="94.86" width="5.67" height="5.67"/><rect class="cls-1" x="43.55" y="94.86" width="5.67" height="5.67"/><rect class="cls-1" x="49.22" y="94.86" width="5.67" height="5.67"/><rect class="cls-1" x="60.56" y="94.86" width="5.67" height="5.67"/><rect class="cls-1" x="71.91" y="94.86" width="5.67" height="5.67"/><rect class="cls-1" x="77.58" y="94.86" width="5.67" height="5.67"/><rect class="cls-1" x="88.93" y="94.86" width="5.67" height="5.67"/><rect class="cls-1" x="94.6" y="94.86" width="5.67" height="5.67"/><rect class="cls-1" x="105.95" y="94.86" width="5.67" height="5.67"/><rect class="cls-1" x="117.3" y="94.86" width="5.67" height="5.67"/><rect class="cls-1" x="122.97" y="94.86" width="5.67" height="5.67"/><rect class="cls-1" x="128.64" y="94.86" width="5.67" height="5.67"/><rect class="cls-1" x="15.18" y="100.53" width="5.67" height="5.67"/><rect class="cls-1" x="49.22" y="100.53" width="5.67" height="5.67"/><rect class="cls-1" x="60.56" y="100.53" width="5.67" height="5.67"/><rect class="cls-1" x="66.24" y="100.53" width="5.67" height="5.67"/><rect class="cls-1" x="77.58" y="100.53" width="5.67" height="5.67"/><rect class="cls-1" x="83.26" y="100.53" width="5.67" height="5.67"/><rect class="cls-1" x="88.93" y="100.53" width="5.67" height="5.67"/><rect class="cls-1" x="105.95" y="100.53" width="5.67" height="5.67"/><rect class="cls-1" x="128.64" y="100.53" width="5.67" height="5.67"/><rect class="cls-1" x="15.18" y="106.2" width="5.67" height="5.67"/><rect class="cls-1" x="26.53" y="106.2" width="5.67" height="5.67"/><rect class="cls-1" x="32.2" y="106.2" width="5.67" height="5.67"/><rect class="cls-1" x="37.87" y="106.2" width="5.67" height="5.67"/><rect class="cls-1" x="49.22" y="106.2" width="5.67" height="5.67"/><rect class="cls-1" x="60.56" y="106.2" width="5.67" height="5.67"/><rect class="cls-1" x="71.91" y="106.2" width="5.67" height="5.67"/><rect class="cls-1" x="77.58" y="106.2" width="5.67" height="5.67"/><rect class="cls-1" x="88.93" y="106.2" width="5.67" height="5.67"/><rect class="cls-1" x="94.6" y="106.2" width="5.67" height="5.67"/><rect class="cls-1" x="100.28" y="106.2" width="5.67" height="5.67"/><rect class="cls-1" x="111.62" y="106.2" width="5.67" height="5.67"/><rect class="cls-1" x="122.97" y="106.2" width="5.67" height="5.67"/><rect class="cls-1" x="128.64" y="106.2" width="5.67" height="5.67"/><rect class="cls-1" x="15.18" y="111.88" width="5.67" height="5.67"/><rect class="cls-1" x="26.53" y="111.88" width="5.67" height="5.67"/><rect class="cls-1" x="32.2" y="111.88" width="5.67" height="5.67"/><rect class="cls-1" x="37.87" y="111.88" width="5.67" height="5.67"/><rect class="cls-1" x="49.22" y="111.88" width="5.67" height="5.67"/><rect class="cls-1" x="66.24" y="111.88" width="5.67" height="5.67"/><rect class="cls-1" x="71.91" y="111.88" width="5.67" height="5.67"/><rect class="cls-1" x="94.6" y="111.88" width="5.67" height="5.67"/><rect class="cls-1" x="100.28" y="111.88" width="5.67" height="5.67"/><rect class="cls-1" x="105.95" y="111.88" width="5.67" height="5.67"/><rect class="cls-1" x="111.62" y="111.88" width="5.67" height="5.67"/><rect class="cls-1" x="122.97" y="111.88" width="5.67" height="5.67"/><rect class="cls-1" x="15.18" y="117.55" width="5.67" height="5.67"/><rect class="cls-1" x="26.53" y="117.55" width="5.67" height="5.67"/><rect class="cls-1" x="32.2" y="117.55" width="5.67" height="5.67"/><rect class="cls-1" x="37.87" y="117.55" width="5.67" height="5.67"/><rect class="cls-1" x="49.22" y="117.55" width="5.67" height="5.67"/><rect class="cls-1" x="60.56" y="117.55" width="5.67" height="5.67"/><rect class="cls-1" x="71.91" y="117.55" width="5.67" height="5.67"/><rect class="cls-1" x="83.26" y="117.55" width="5.67" height="5.67"/><rect class="cls-1" x="105.95" y="117.55" width="5.67" height="5.67"/><rect class="cls-1" x="117.3" y="117.55" width="5.67" height="5.67"/><rect class="cls-1" x="128.64" y="117.55" width="5.67" height="5.67"/><rect class="cls-1" x="15.18" y="123.22" width="5.67" height="5.67"/><rect class="cls-1" x="49.22" y="123.22" width="5.67" height="5.67"/><rect class="cls-1" x="60.56" y="123.22" width="5.67" height="5.67"/><rect class="cls-1" x="66.24" y="123.22" width="5.67" height="5.67"/><rect class="cls-1" x="71.91" y="123.22" width="5.67" height="5.67"/><rect class="cls-1" x="94.6" y="123.22" width="5.67" height="5.67"/><rect class="cls-1" x="100.28" y="123.22" width="5.67" height="5.67"/><rect class="cls-1" x="105.95" y="123.22" width="5.67" height="5.67"/><rect class="cls-1" x="111.62" y="123.22" width="5.67" height="5.67"/><rect class="cls-1" x="122.97" y="123.22" width="5.67" height="5.67"/><rect class="cls-1" x="15.18" y="128.89" width="5.67" height="5.67"/><rect class="cls-1" x="20.85" y="128.89" width="5.67" height="5.67"/><rect class="cls-1" x="26.53" y="128.89" width="5.67" height="5.67"/><rect class="cls-1" x="32.2" y="128.89" width="5.67" height="5.67"/><rect class="cls-1" x="37.87" y="128.89" width="5.67" height="5.67"/><rect class="cls-1" x="43.55" y="128.89" width="5.67" height="5.67"/><rect class="cls-1" x="49.22" y="128.89" width="5.67" height="5.67"/><rect class="cls-1" x="60.56" y="128.89" width="5.67" height="5.67"/><rect class="cls-1" x="83.26" y="128.89" width="5.67" height="5.67"/><rect class="cls-1" x="94.6" y="128.89" width="5.67" height="5.67"/><rect class="cls-1" x="111.62" y="128.89" width="5.67" height="5.67"/><rect class="cls-1" x="122.97" y="128.89" width="5.67" height="5.67"/><rect class="cls-1" x="128.64" y="128.89" width="5.67" height="5.67"/><path class="cls-2" d="M2.13,34.86V20.76A17.08,17.08,0,0,1,19.21,3.68l15.4-.39"/><path class="cls-2" d="M147.36,34.86V20.76A17.07,17.07,0,0,0,130.29,3.68l-15.4-.39"/><path class="cls-2" d="M2.13,115.14v14.1a17.08,17.08,0,0,0,17.08,17.08l15.4.39"/><path class="cls-2" d="M147.36,115.14v14.1a17.07,17.07,0,0,1-17.07,17.08l-15.4.39"/></svg>