<?xml version="1.0" encoding="utf-8"?>
<!-- Generator: Adobe Illustrator 25.0.0, SVG Export Plug-In . SVG Version: 6.00 Build 0)  -->
<svg version="1.1" id="Layer_1" xmlns="http://www.w3.org/2000/svg" xmlns:xlink="http://www.w3.org/1999/xlink" x="0px" y="0px"
	 viewBox="0 0 75 75" style="enable-background:new 0 0 75 75;" xml:space="preserve">
<style type="text/css">
	.st0{fill:#0B4A99;}
	.st1{fill:none;stroke:#0B4A99;stroke-width:2;stroke-linecap:round;stroke-miterlimit:10;}
	.st2{fill:none;stroke:#0B4A99;stroke-width:2;stroke-miterlimit:10;}
	.st3{clip-path:url(#SVGID_2_);}
</style>
<g>
	<g>
		<g>
			<path class="st0" d="M16.9,75H4.6C2.1,75,0,73,0,70.4V59.9c0-2.5,2.1-4.6,4.6-4.6h12.3c2.5,0,4.6,2.1,4.6,4.6v10.5
				C21.5,73,19.4,75,16.9,75z M4.6,57.3c-1.5,0-2.6,1.2-2.6,2.6v10.5c0,1.5,1.2,2.6,2.6,2.6h12.3c1.5,0,2.6-1.2,2.6-2.6V59.9
				c0-1.5-1.2-2.6-2.6-2.6H4.6z"/>
		</g>
		<g>
			<path class="st0" d="M44.1,75H31.8c-2.5,0-4.6-2.1-4.6-4.6V59.9c0-2.5,2.1-4.6,4.6-4.6h12.3c2.5,0,4.6,2.1,4.6,4.6v10.5
				C48.7,73,46.7,75,44.1,75z M31.8,57.3c-1.4,0-2.6,1.2-2.6,2.6v10.5c0,1.5,1.2,2.6,2.6,2.6h12.3c1.5,0,2.6-1.2,2.6-2.6V59.9
				c0-1.5-1.2-2.6-2.6-2.6H31.8z"/>
		</g>
		<g>
			<path class="st0" d="M70.4,75H58.1c-2.5,0-4.6-2.1-4.6-4.6V59.9c0-2.5,2.1-4.6,4.6-4.6h12.3c2.5,0,4.6,2.1,4.6,4.6v10.5
				C75,73,72.9,75,70.4,75z M58.1,57.3c-1.5,0-2.6,1.2-2.6,2.6v10.5c0,1.5,1.2,2.6,2.6,2.6h12.3c1.5,0,2.6-1.2,2.6-2.6V59.9
				c0-1.5-1.2-2.6-2.6-2.6H58.1z"/>
		</g>
	</g>
	<g>
		<path class="st0" d="M59.9,49.8c-0.3,0-0.6-0.1-0.8-0.4l-9.7-12.1H25.7L15.4,49.4c-0.3,0.4-1,0.5-1.4,0.1s-0.5-1-0.1-1.4
			l10.8-12.8h25.6l10.3,12.9c0.3,0.4,0.3,1-0.2,1.4C60.3,49.7,60.1,49.8,59.9,49.8z"/>
	</g>
	<g>
		<path class="st0" d="M37.3,51.6c-0.5,0-1-0.4-1-1V36.4c0-0.5,0.4-1,1-1c0.5,0,1,0.4,1,1v14.2C38.3,51.2,37.8,51.6,37.3,51.6z"/>
	</g>
	<g>
		<g>
			<path class="st0" d="M53.2,28.5H21.8c-3.7,0-6.7-3-6.7-6.7V6.7c0-3.7,3-6.7,6.7-6.7h31.4c3.7,0,6.7,3,6.7,6.7v15.1
				C59.9,25.5,56.9,28.5,53.2,28.5z M21.8,1.9c-2.6,0-4.8,2.1-4.8,4.8v15.1c0,2.6,2.1,4.8,4.8,4.8h31.4c2.6,0,4.8-2.2,4.8-4.8V6.7
				c0-2.6-2.1-4.8-4.8-4.8H21.8z"/>
		</g>
		<g>
			<g>
				<path class="st0" d="M49.4,11.3H25.6c-0.5,0-1-0.4-1-1s0.4-1,1-1h23.7c0.5,0,1,0.4,1,1S49.9,11.3,49.4,11.3z"/>
			</g>
			<g>
				<path class="st0" d="M49.4,19.2H25.6c-0.5,0-1-0.4-1-1s0.4-1,1-1h23.7c0.5,0,1,0.4,1,1S49.9,19.2,49.4,19.2z"/>
			</g>
		</g>
	</g>
</g>
</svg>
