<?xml version="1.0" encoding="utf-8"?>
<!-- Generator: Adobe Illustrator 25.0.0, SVG Export Plug-In . SVG Version: 6.00 Build 0)  -->
<svg version="1.1" id="Layer_1" xmlns="http://www.w3.org/2000/svg" xmlns:xlink="http://www.w3.org/1999/xlink" x="0px" y="0px"
	 viewBox="0 0 75 75" style="enable-background:new 0 0 75 75;" xml:space="preserve">
<style type="text/css">
	.st0{fill:#0B4A99;}
	.st1{fill:none;stroke:#0B4A99;stroke-width:2;stroke-linecap:round;stroke-miterlimit:10;}
	.st2{fill:none;stroke:#0B4A99;stroke-width:2;stroke-miterlimit:10;}
	.st3{clip-path:url(#SVGID_2_);}
</style>
<g>
	<g>
		<path class="st0" d="M37.1,66.1l-0.5,0l-0.3-0.4C34.1,62.6,14.5,34.9,14.5,23c0-12.7,10.3-23,23-23s23,10.3,23,23
			c0,12.2-21.6,41.5-22.5,42.8l-0.3,0.4L37.1,66.1z M37.5,1.9c-11.6,0-21,9.4-21,21c0,10.5,16.8,35,20.7,40.5
			C45,52.8,58.5,31.9,58.5,23C58.5,11.4,49.1,1.9,37.5,1.9z"/>
	</g>
	<g>
		<path class="st0" d="M36.8,30.7c-4.3,0-7.7-3.5-7.7-7.7s3.5-7.7,7.7-7.7c4.3,0,7.7,3.5,7.7,7.7S41,30.7,36.8,30.7z M36.8,17.2
			c-3.2,0-5.8,2.6-5.8,5.8s2.6,5.8,5.8,5.8c3.2,0,5.8-2.6,5.8-5.8S40,17.2,36.8,17.2z"/>
	</g>
	<g>
		<path class="st0" d="M36.6,75c-10.7,0-22.1-3-22.1-8.6c0-4.3,7.5-7.8,18.2-8.5l0.1,1.9c-10.2,0.7-16.3,3.9-16.3,6.5
			c0,3.1,8.3,6.7,20.1,6.7s20.1-3.5,20.1-6.7c0-2.5-5.3-5.6-15.2-6.4l0.2-1.9c8.4,0.7,16.9,3.6,16.9,8.4C58.7,72,47.3,75,36.6,75z"
			/>
	</g>
</g>
</svg>
