<?xml version="1.0" encoding="utf-8"?>
<!-- Generator: Adobe Illustrator 25.0.0, SVG Export Plug-In . SVG Version: 6.00 Build 0)  -->
<svg version="1.1" id="Layer_1" xmlns="http://www.w3.org/2000/svg" xmlns:xlink="http://www.w3.org/1999/xlink" x="0px" y="0px"
	 viewBox="0 0 75 75" style="enable-background:new 0 0 75 75;" xml:space="preserve">
<style type="text/css">
	.st0{fill:#0B4A99;}
	.st1{fill:none;stroke:#0B4A99;stroke-width:2;stroke-linecap:round;stroke-miterlimit:10;}
	.st2{fill:none;stroke:#0B4A99;stroke-width:2;stroke-miterlimit:10;}
	.st3{clip-path:url(#SVGID_2_);}
</style>
<g>
	<g>
		<path class="st0" d="M49.9,73.9H3c-1.7,0-3-1.4-3-3V12.3L10.2,1.1h39.7c1.7,0,3,1.4,3,3v27.4H51V4.2c0-0.6-0.5-1.1-1.1-1.1H11.1
			L1.9,13v57.8c0,0.6,0.5,1.1,1.1,1.1h46.9c0.6,0,1.1-0.5,1.1-1.1v-5.9H53v5.9C53,72.5,51.6,73.9,49.9,73.9z"/>
	</g>
	<g>
		<path class="st0" d="M43.6,23.1H10.1c-0.5,0-1-0.4-1-1c0-0.5,0.4-1,1-1h33.5c0.5,0,1,0.4,1,1C44.5,22.6,44.1,23.1,43.6,23.1z"/>
	</g>
	<g>
		<path class="st0" d="M43.6,39.2H10.1c-0.5,0-1-0.4-1-1c0-0.5,0.4-1,1-1h33.5c0.5,0,1,0.4,1,1C44.5,38.7,44.1,39.2,43.6,39.2z"/>
	</g>
	<g>
		<path class="st0" d="M33.5,55.3H10.1c-0.5,0-1-0.4-1-1c0-0.5,0.4-1,1-1h23.4c0.5,0,1,0.4,1,1C34.5,54.9,34.1,55.3,33.5,55.3z"/>
	</g>
	<g>
		<path class="st0" d="M34.4,68.1c-0.6,0-1.1-0.2-1.6-0.6c-0.6-0.6-0.8-1.6-0.5-2.4c0.3-0.8,1.6-3.5,3-6.4c0.9-1.8,2-4.2,2.2-4.7
			c0.1-0.2,0.1-0.3,0.3-0.5c0.1-0.1,0.2-0.2,0.3-0.3l27.5-26.7c0.7-0.7,1.6-1.1,2.6-1.1c0,0,0,0,0,0c1,0,1.9,0.4,2.6,1.1l0,0
			l3.7,3.7c0.9,1.6,0.7,3.5-0.5,4.7l-27.3,27L46.5,62c-0.1,0.1-0.3,0.2-0.4,0.3l-10.9,5.7C34.9,68,34.6,68.1,34.4,68.1z M68.1,27.3
			c-0.5,0-0.9,0.2-1.2,0.5L39.3,54.7c-0.2,0.5-1.1,2.4-2.3,4.8c-1.2,2.6-2.6,5.6-2.9,6.3c0,0.1,0,0.2,0.1,0.3c0,0,0.1,0.1,0.2,0.1
			l0.1,0l10.9-5.8l27.1-26.8c0.6-0.6,0.7-1.5,0.3-2.3l-3.4-3.4C69,27.5,68.6,27.3,68.1,27.3C68.1,27.3,68.1,27.3,68.1,27.3z
			 M45.5,60.3C45.5,60.3,45.5,60.3,45.5,60.3L45.5,60.3z"/>
	</g>
	<g>
		
			<rect x="65.4" y="29.2" transform="matrix(0.6862 -0.7274 0.7274 0.6862 -3.6957 58.8641)" class="st0" width="1.9" height="9.1"/>
	</g>
	<g>
		
			<rect x="41.2" y="52.1" transform="matrix(0.6965 -0.7176 0.7176 0.6965 -28.1661 47.6004)" class="st0" width="1.9" height="10"/>
	</g>
</g>
</svg>
