<?xml version="1.0" encoding="utf-8"?>
<!-- Generator: Adobe Illustrator 25.0.0, SVG Export Plug-In . SVG Version: 6.00 Build 0)  -->
<svg version="1.1" id="Layer_1" xmlns="http://www.w3.org/2000/svg" xmlns:xlink="http://www.w3.org/1999/xlink" x="0px" y="0px"
	 viewBox="0 0 75 75" style="enable-background:new 0 0 75 75;" xml:space="preserve">
<style type="text/css">
	.st0{fill:#0B4A99;}
	.st1{fill:none;stroke:#0B4A99;stroke-width:2;stroke-linecap:round;stroke-miterlimit:10;}
	.st2{fill:none;stroke:#0B4A99;stroke-width:2;stroke-miterlimit:10;}
	.st3{clip-path:url(#SVGID_2_);}
</style>
<g>
	<g>
		<path class="st0" d="M23.6,36.5c-0.3,0-0.6-0.1-0.7-0.3L9.3,19.8l-3.4-1.1l-6.1-11l4.6-3.9l9.8,7.8l0.5,3.5l13.6,16.3
			c0.3,0.4,0.3,1-0.1,1.4c-0.4,0.3-1,0.3-1.4-0.1L12.9,16l-0.5-3.3l-8-6.3L2.3,8.3l4.9,8.9l3.2,1l13.9,16.7c0.3,0.4,0.3,1-0.1,1.4
			C24,36.4,23.8,36.5,23.6,36.5z"/>
	</g>
	<g>
		<path class="st0" d="M17.9,71.8c-1.7,0-3.3-0.6-4.6-1.8c-1.4-1.3-2.2-3-2.3-4.9c-0.1-1.9,0.6-3.7,1.8-5.1l12.1-12.8
			c0.4-0.4,1-0.4,1.4,0c0.4,0.4,0.4,1,0,1.4L14.2,61.4c-0.9,1-1.4,2.3-1.3,3.6c0.1,1.4,0.7,2.6,1.7,3.5c1,0.9,2.4,1.4,3.7,1.3
			c1.4-0.1,2.6-0.8,3.5-1.8l13.1-15.5c0.3-0.4,1-0.5,1.4-0.1c0.4,0.3,0.5,1,0.1,1.4L23.3,69.2c-1.2,1.5-2.9,2.4-4.8,2.5
			C18.2,71.8,18.1,71.8,17.9,71.8z"/>
	</g>
	<g>
		<path class="st0" d="M46.5,41.1c-0.2,0-0.4-0.1-0.6-0.2c-0.4-0.3-0.5-1-0.1-1.4l8.7-10.3l9.4,2l8.8-8.8l-1-5.5l-7.2,7.5l-8.3-2
			l-0.9-7.8l7-7.3L57.2,6L48,15.3l1.9,8.3L36.7,37.8c-0.4,0.4-1,0.4-1.4,0c-0.4-0.4-0.4-1,0-1.4l12.5-13.4l-1.9-8.4L56.6,3.8
			l9.4,2.5l-8.6,9l0.6,5.5l5.9,1.4l9-9.4L74.8,23L64.5,33.3l-9.3-2l-7.9,9.4C47.1,41,46.8,41.1,46.5,41.1z"/>
	</g>
	<g>
		<path class="st0" d="M52.8,71.8c-0.3,0-0.6,0-0.9,0c-2.1-0.2-4-1.3-5.4-3L26.1,42.5c-0.3-0.4-0.3-1,0.2-1.4c0.4-0.3,1-0.3,1.4,0.2
			l20.5,26.3c1,1.3,2.4,2.1,4,2.3c1.6,0.2,3.2-0.3,4.4-1.3c1.3-1.1,2.1-2.6,2.1-4.3c0.1-1.7-0.6-3.3-1.8-4.5L31,34.3
			c-0.4-0.4-0.4-1,0-1.4c0.4-0.4,1-0.4,1.4,0l25.9,25.4c1.6,1.6,2.4,3.7,2.3,5.9c-0.1,2.2-1.1,4.3-2.8,5.7
			C56.4,71.2,54.6,71.8,52.8,71.8z"/>
	</g>
	<g>
		<path class="st0" d="M24.1,41.5c-0.4,0-0.9-0.2-1.2-0.5l-1.6-1.7c-0.3-0.3-0.5-0.8-0.5-1.2c0-0.5,0.2-0.9,0.5-1.2l7.2-7
			c0.7-0.7,1.8-0.6,2.4,0l1.6,1.7c0.7,0.7,0.6,1.8,0,2.4l-7.2,7C25,41.4,24.6,41.5,24.1,41.5z M22.8,38.2l1.3,1.4l6.9-6.7l-1.3-1.4
			L22.8,38.2z"/>
	</g>
</g>
</svg>
