<?xml version="1.0" encoding="utf-8"?>
<!-- Generator: Adobe Illustrator 25.0.0, SVG Export Plug-In . SVG Version: 6.00 Build 0)  -->
<svg version="1.1" id="Layer_1" xmlns="http://www.w3.org/2000/svg" xmlns:xlink="http://www.w3.org/1999/xlink" x="0px" y="0px"
	 viewBox="0 0 75 75" style="enable-background:new 0 0 75 75;" xml:space="preserve">
<style type="text/css">
	.st0{fill:#0B4A99;}
	.st1{fill:none;stroke:#0B4A99;stroke-width:2;stroke-linecap:round;stroke-miterlimit:10;}
	.st2{fill:none;stroke:#0B4A99;stroke-width:2;stroke-miterlimit:10;}
	.st3{clip-path:url(#SVGID_2_);}
</style>
<g>
	<g>
		<path class="st0" d="M37.5,75C16.8,75,0,58.2,0,37.5C0,16.8,16.8,0,37.5,0S75,16.8,75,37.5C75,58.2,58.2,75,37.5,75z M37.5,1.9
			C17.9,1.9,1.9,17.9,1.9,37.5s15.9,35.6,35.6,35.6s35.6-15.9,35.6-35.6S57.1,1.9,37.5,1.9z"/>
	</g>
	<g>
		<path class="st0" d="M18.4,38.2H9.3c-0.5,0-1-0.4-1-1c0-0.5,0.4-1,1-1h9.1c0.5,0,1,0.4,1,1C19.4,37.8,18.9,38.2,18.4,38.2z"/>
	</g>
	<g>
		<path class="st0" d="M24.4,24.1c-0.2,0-0.5-0.1-0.7-0.3l-6.3-6.3c-0.4-0.4-0.4-1,0-1.4c0.4-0.4,1-0.4,1.4,0l6.3,6.3
			c0.4,0.4,0.4,1,0,1.4C24.9,24,24.6,24.1,24.4,24.1z"/>
	</g>
	<g>
		<path class="st0" d="M37.4,19.2c-0.5,0-1-0.4-1-1l-0.1-8.9c0-0.5,0.4-1,1-1c0.5,0,1,0.4,1,1l0.1,8.9
			C38.3,18.8,37.9,19.2,37.4,19.2C37.4,19.2,37.4,19.2,37.4,19.2z"/>
	</g>
	<g>
		<path class="st0" d="M50.8,24.3c-0.2,0-0.4-0.1-0.6-0.2c-0.4-0.3-0.5-1-0.1-1.4l5.7-6.9c0.3-0.4,1-0.5,1.4-0.1
			c0.4,0.3,0.5,1,0.1,1.4l-5.7,6.9C51.3,24.1,51.1,24.3,50.8,24.3z"/>
	</g>
	<g>
		<path class="st0" d="M65.5,38.7h-9.3c-0.5,0-1-0.4-1-1s0.4-1,1-1h9.3c0.5,0,1,0.4,1,1S66,38.7,65.5,38.7z"/>
	</g>
	<g>
		<path class="st0" d="M28.8,16.6c-0.4,0-0.8-0.3-0.9-0.7l-1.5-4.4c-0.2-0.5,0.1-1.1,0.6-1.2c0.5-0.2,1.1,0.1,1.2,0.6l1.5,4.4
			c0.2,0.5-0.1,1.1-0.6,1.2C29,16.6,28.9,16.6,28.8,16.6z"/>
	</g>
	<g>
		<path class="st0" d="M46.4,16.6c-0.1,0-0.2,0-0.3-0.1c-0.5-0.2-0.8-0.7-0.6-1.2l1.5-4.4c0.2-0.5,0.7-0.8,1.2-0.6
			c0.5,0.2,0.8,0.7,0.6,1.2L47.3,16C47.1,16.4,46.8,16.6,46.4,16.6z"/>
	</g>
	<g>
		<path class="st0" d="M16.1,28.8c-0.1,0-0.2,0-0.3-0.1L12,27.4c-0.5-0.2-0.8-0.7-0.6-1.2c0.2-0.5,0.7-0.8,1.2-0.6l3.8,1.3
			c0.5,0.2,0.8,0.7,0.6,1.2C16.9,28.5,16.5,28.8,16.1,28.8z"/>
	</g>
	<g>
		<path class="st0" d="M16.1,28.8c-0.1,0-0.2,0-0.3-0.1L12,27.4c-0.5-0.2-0.8-0.7-0.6-1.2c0.2-0.5,0.7-0.8,1.2-0.6l3.8,1.3
			c0.5,0.2,0.8,0.7,0.6,1.2C16.9,28.5,16.5,28.8,16.1,28.8z"/>
	</g>
	<g>
		<path class="st0" d="M58.2,28.8c-0.4,0-0.8-0.3-0.9-0.7c-0.2-0.5,0.1-1.1,0.6-1.2l3.8-1.3c0.5-0.2,1.1,0.1,1.2,0.6
			c0.2,0.5-0.1,1.1-0.6,1.2l-3.8,1.3C58.4,28.8,58.3,28.8,58.2,28.8z"/>
	</g>
	<g>
		<path class="st0" d="M65.6,38.3c-0.5,0-1-0.4-1-1c0-15-12.2-27.2-27.2-27.2c-15,0-27.2,12.2-27.2,27.2c0,0.5-0.4,1-1,1s-1-0.4-1-1
			c0-16.1,13.1-29.1,29.1-29.1s29.1,13.1,29.1,29.1C66.5,37.9,66.1,38.3,65.6,38.3z"/>
	</g>
	<g>
		<path class="st0" d="M73.2,45.8H1.7c-0.5,0-1-0.4-1-1s0.4-1,1-1h71.5c0.5,0,1,0.4,1,1S73.7,45.8,73.2,45.8z"/>
	</g>
	<g>
		<path class="st0" d="M27.6,59.4H19c-0.5,0-1-0.4-1-1c0-0.5,0.4-1,1-1h8.6c0.5,0,1,0.4,1,1C28.6,58.9,28.1,59.4,27.6,59.4z"/>
	</g>
	<g>
		<path class="st0" d="M52,59.4h-8.6c-0.5,0-1-0.4-1-1c0-0.5,0.4-1,1-1H52c0.5,0,1,0.4,1,1C53,58.9,52.6,59.4,52,59.4z"/>
	</g>
	<g>
		<path class="st0" d="M35.6,65.9c-0.1,0-0.3,0-0.4-0.1c-0.5-0.2-0.7-0.8-0.5-1.3l2.6-5.4h-3.8c-0.4,0-0.8-0.2-1-0.6
			c-0.2-0.3-0.3-0.8-0.1-1.1l3.4-7.3c0.2-0.5,0.8-0.7,1.3-0.5c0.5,0.2,0.7,0.8,0.5,1.3l-2.9,6.2h3.8c0.4,0,0.8,0.2,1,0.6
			c0.2,0.4,0.2,0.8,0.1,1.2l-3.1,6.5C36.3,65.7,36,65.9,35.6,65.9z"/>
	</g>
	<g>
		<path class="st0" d="M35.2,37.5c-0.1,0-0.3,0-0.4-0.1c-0.5-0.2-0.7-0.8-0.5-1.3l5.1-10.8c0.2-0.5,0.8-0.7,1.3-0.5
			c0.5,0.2,0.7,0.8,0.5,1.3L36.1,37C36,37.3,35.6,37.5,35.2,37.5z"/>
	</g>
</g>
</svg>
