<?xml version="1.0" encoding="utf-8"?>
<!-- Generator: Adobe Illustrator 25.0.0, SVG Export Plug-In . SVG Version: 6.00 Build 0)  -->
<svg version="1.1" id="Layer_1" xmlns="http://www.w3.org/2000/svg" xmlns:xlink="http://www.w3.org/1999/xlink" x="0px" y="0px"
	 viewBox="0 0 75 75" style="enable-background:new 0 0 75 75;" xml:space="preserve">
<style type="text/css">
	.st0{fill:#0B4A99;}
	.st1{fill:none;stroke:#0B4A99;stroke-width:2;stroke-linecap:round;stroke-miterlimit:10;}
	.st2{fill:none;stroke:#0B4A99;stroke-width:2;stroke-miterlimit:10;}
	.st3{clip-path:url(#SVGID_2_);}
</style>
<g>
	<g>
		<path class="st0" d="M62.8,67.6H12.2L35.4,1.5C35.7,0.6,36.6,0,37.5,0c0.9,0,1.8,0.6,2.1,1.5L62.8,67.6z M15,65.7h45L37.7,2.1
			c-0.1-0.2-0.4-0.2-0.5,0L15,65.7z M36.3,1.8L36.3,1.8L36.3,1.8z"/>
	</g>
	<g>
		<path class="st0" d="M52.1,75h-2.5c-0.5,0-1-0.4-1-1s0.4-1,1-1h2.5c0.5,0,1,0.4,1,1S52.6,75,52.1,75z"/>
	</g>
	<g>
		<path class="st0" d="M68.8,75H55.9c-0.5,0-1-0.4-1-1s0.4-1,1-1h12.8c1.5,0,2.7-1.2,2.7-2.7s-1.2-2.7-2.7-2.7H6.2
			c-1.5,0-2.7,1.2-2.7,2.7s1.2,2.7,2.7,2.7h39.7c0.5,0,1,0.4,1,1s-0.4,1-1,1H6.2c-2.6,0-4.7-2.1-4.7-4.7s2.1-4.7,4.7-4.7h62.5
			c2.6,0,4.7,2.1,4.7,4.7S71.3,75,68.8,75z"/>
	</g>
	<g>
		<path class="st0" d="M44.7,20.5H30.5c-0.5,0-1-0.4-1-1c0-0.5,0.4-1,1-1h14.2c0.5,0,1,0.4,1,1C45.7,20.1,45.2,20.5,44.7,20.5z"/>
	</g>
	<g>
		<path class="st0" d="M48,29.8H26.8c-0.5,0-1-0.4-1-1c0-0.5,0.4-1,1-1H48c0.5,0,1,0.4,1,1C49,29.4,48.6,29.8,48,29.8z"/>
	</g>
	<g>
		<path class="st0" d="M53.5,45.1H28.7c-0.5,0-1-0.4-1-1s0.4-1,1-1h24.8c0.5,0,1,0.4,1,1S54,45.1,53.5,45.1z"/>
	</g>
	<g>
		<path class="st0" d="M43.5,54.6H18.7c-0.5,0-1-0.4-1-1s0.4-1,1-1h24.8c0.5,0,1,0.4,1,1S44,54.6,43.5,54.6z"/>
	</g>
</g>
</svg>
