<?xml version="1.0" encoding="utf-8"?>
<!-- Generator: Adobe Illustrator 25.0.0, SVG Export Plug-In . SVG Version: 6.00 Build 0)  -->
<svg version="1.1" id="Layer_1" xmlns="http://www.w3.org/2000/svg" xmlns:xlink="http://www.w3.org/1999/xlink" x="0px" y="0px"
	 viewBox="0 0 75 75" style="enable-background:new 0 0 75 75;" xml:space="preserve">
<style type="text/css">
	.st0{fill:#0B4A99;}
	.st1{fill:none;stroke:#0B4A99;stroke-width:2;stroke-linecap:round;stroke-miterlimit:10;}
	.st2{fill:none;stroke:#0B4A99;stroke-width:2;stroke-miterlimit:10;}
	.st3{clip-path:url(#SVGID_2_);}
</style>
<g>
	<g>
		<path class="st0" d="M75,28.8H0V18.1l11.8-5.5c0.5-0.2,1.1,0,1.3,0.5c0.2,0.5,0,1.1-0.5,1.3l-10.7,5v7.4h71.1v-7.4L37.4,2.9
			l-16.1,7.5c-0.5,0.2-1.1,0-1.3-0.5s0-1.1,0.5-1.3l16.9-7.8L75,18.1V28.8z"/>
	</g>
	<g>
		<path class="st0" d="M15.4,13c-0.4,0-0.7-0.2-0.9-0.6c-0.2-0.5,0-1.1,0.5-1.3l2.1-1c0.5-0.2,1.1,0,1.3,0.5c0.2,0.5,0,1.1-0.5,1.3
			l-2.1,1C15.7,12.9,15.6,13,15.4,13z"/>
	</g>
	<g>
		<path class="st0" d="M6.5,74.2c-0.5,0-1-0.4-1-1V28.4c0-0.5,0.4-1,1-1s1,0.4,1,1v44.8C7.5,73.7,7.1,74.2,6.5,74.2z"/>
	</g>
	<g>
		<path class="st0" d="M68.2,74.2c-0.5,0-1-0.4-1-1V28.4c0-0.5,0.4-1,1-1c0.5,0,1,0.4,1,1v44.8C69.1,73.7,68.7,74.2,68.2,74.2z"/>
	</g>
	<g>
		<path class="st0" d="M21.4,22h-7.6c-0.5,0-1-0.4-1-1c0-0.5,0.4-1,1-1h7.6c0.5,0,1,0.4,1,1C22.4,21.5,22,22,21.4,22z"/>
	</g>
	<g>
		<path class="st0" d="M41.6,22H34c-0.5,0-1-0.4-1-1c0-0.5,0.4-1,1-1h7.6c0.5,0,1,0.4,1,1C42.5,21.5,42.1,22,41.6,22z"/>
	</g>
	<g>
		<path class="st0" d="M61.3,22h-7.6c-0.5,0-1-0.4-1-1c0-0.5,0.4-1,1-1h7.6c0.5,0,1,0.4,1,1C62.3,21.5,61.8,22,61.3,22z"/>
	</g>
	<g>
		<g>
			<g>
				<path class="st0" d="M36.1,55.2H21.3V42h14.8V55.2z M23.2,53.2h10.9V44H23.2V53.2z"/>
			</g>
			<g>
				<path class="st0" d="M28.7,48.3c-0.5,0-1-0.4-1-1v-4.1c0-0.5,0.4-1,1-1s1,0.4,1,1v4.1C29.6,47.8,29.2,48.3,28.7,48.3z"/>
			</g>
		</g>
		<g>
			<g>
				<path class="st0" d="M53.7,55.2H38.9V42h14.8V55.2z M40.9,53.2h10.9V44H40.9V53.2z"/>
			</g>
			<g>
				<path class="st0" d="M46.3,48.3c-0.5,0-1-0.4-1-1v-4.1c0-0.5,0.4-1,1-1c0.5,0,1,0.4,1,1v4.1C47.3,47.8,46.9,48.3,46.3,48.3z"/>
			</g>
		</g>
	</g>
	<g>
		<g>
			<g>
				<path class="st0" d="M26.8,71.6H12V58.5h14.8V71.6z M13.9,69.7h10.9v-9.3H13.9V69.7z"/>
			</g>
			<g>
				<path class="st0" d="M19.4,64.7c-0.5,0-1-0.4-1-1v-4.1c0-0.5,0.4-1,1-1s1,0.4,1,1v4.1C20.3,64.3,19.9,64.7,19.4,64.7z"/>
			</g>
		</g>
		<g>
			<g>
				<path class="st0" d="M44.9,71.6H30.1V58.5h14.8V71.6z M32.1,69.7h10.9v-9.3H32.1V69.7z"/>
			</g>
			<g>
				<path class="st0" d="M37.5,64.7c-0.5,0-1-0.4-1-1v-4.1c0-0.5,0.4-1,1-1s1,0.4,1,1v4.1C38.5,64.3,38,64.7,37.5,64.7z"/>
			</g>
		</g>
		<g>
			<g>
				<path class="st0" d="M63,71.6H48.2V58.5H63V71.6z M50.2,69.7h10.9v-9.3H50.2V69.7z"/>
			</g>
			<g>
				<path class="st0" d="M55.6,64.7c-0.5,0-1-0.4-1-1v-4.1c0-0.5,0.4-1,1-1c0.5,0,1,0.4,1,1v4.1C56.6,64.3,56.2,64.7,55.6,64.7z"/>
			</g>
		</g>
	</g>
</g>
</svg>
