<?xml version="1.0" encoding="utf-8"?>
<!-- Generator: Adobe Illustrator 22.0.1, SVG Export Plug-In . SVG Version: 6.00 Build 0)  -->
<svg version="1.1" id="Layer_1" xmlns="http://www.w3.org/2000/svg" xmlns:xlink="http://www.w3.org/1999/xlink" x="0px" y="0px"
	 viewBox="0 0 100 100" style="enable-background:new 0 0 100 100;" xml:space="preserve">
<style type="text/css">
	.st0{fill:none;stroke:#000102;stroke-width:1.5;stroke-miterlimit:10;}
	.st1{fill:#F0AB00;}
	.st2{fill:#558ED5;}
	.st3{fill:#05225F;}
	.st4{fill:#0B4A99;}
	.st5{fill:#CD1618;}
	.st6{fill:#2665AA;}
	.st7{fill:#3779BF;}
	.st8{fill:#002060;}
	.st9{fill:none;stroke:#000000;stroke-width:1.5;stroke-miterlimit:10;}
	.st10{fill:#40875E;}
	.st11{fill:#A8A240;}
	.st12{fill:#000102;}
	.st13{fill:none;stroke:#0B4A99;stroke-miterlimit:10;}
	.st14{fill:#0071C5;}
	.st15{fill:#26774B;}
	.st16{fill:#B91218;}
	.st17{fill:#BFBFBF;}
	.st18{fill:#A70000;}
	.st19{fill-rule:evenodd;clip-rule:evenodd;fill:#0B4A99;}
	.st20{fill-rule:evenodd;clip-rule:evenodd;fill:#002060;}
	.st21{fill-rule:evenodd;clip-rule:evenodd;fill:#40875E;}
	.st22{fill-rule:evenodd;clip-rule:evenodd;fill:#A8A240;}
	.st23{fill:#5E6D61;}
	.st24{opacity:0.65;fill:#558ED5;}
	.st25{opacity:0.55;fill:#CD1618;}
	.st26{opacity:0.65;fill:#002060;}
	.st27{opacity:0.65;}
	.st28{opacity:0.65;fill:#26774B;}
	.st29{opacity:0.23;fill:#26774B;}
	.st30{opacity:0.98;fill:#558ED5;}
	.st31{opacity:0.9;fill:#558ED5;}
	.st32{opacity:0.65;fill:#CD1618;}
	.st33{opacity:0.65;fill:#0B4A99;}
	.st34{opacity:0.65;fill:#F0AB00;}
	.st35{fill:#F0AB00;stroke:#000000;stroke-width:0.5;stroke-miterlimit:10;}
	.st36{fill:#26774B;stroke:#000000;stroke-width:0.5;stroke-miterlimit:10;}
	.st37{fill:#A8A240;stroke:#000000;stroke-width:0.5;stroke-miterlimit:10;}
</style>
<polygon class="st1" points="51.2,49.9 49,49.9 49.3,42.4 50.1,41.7 50.9,42.4 "/>
<path class="st10" d="M54.8,32.1c0,2.5-2,7.5-4.6,7.5c-2.5,0-4.6-4.9-4.6-7.5c0-2.5,2-4.6,4.6-4.6C52.7,27.5,54.8,29.6,54.8,32.1"/>
<path class="st10" d="M47.1,40.7l-5.2,1.5c-1,0.3-1.8,0.9-2.3,1.8c-1.4,2.6-4.5,8.3-5.1,10.9c-0.8,3.4,3.1,13.6,3.1,13.6
	c1,0.5,2.3,0.4,3.2-0.2l0.2-0.1v1.9h17.6v-1.9l0.3,0.2c0.9,0.6,2,0.7,3.1,0.3l0.1,0l2.7-9.9c0.3-1.2,0.5-2.5,0.3-3.8
	c0-0.4-0.1-0.8-0.2-1.2c0,0-2.4-6.5-4.3-9.7c-0.5-0.8-1.3-1.4-2.2-1.7L53,40.7c0,0-1.5,8.9-3.2,8.2C48.2,48.2,47.1,40.7,47.1,40.7"
	/>
<path class="st11" d="M69.5,38.3c0,2.1-1.7,6.3-3.8,6.3c-2.1,0-3.8-4.1-3.8-6.3c0-2.1,1.7-3.8,3.8-3.8
	C67.8,34.5,69.5,36.2,69.5,38.3"/>
<path class="st11" d="M77.9,60.7L75.7,69l-0.1,0c-0.8,0.3-1.8,0.2-2.6-0.2l-0.3-0.2v1.6h-9.7l5.1-16.4c0.6-1.9,0.3-4-0.8-5.7
	c0.3-1.4,0.6-2.7,0.6-2.7l4.5,1.4c0.8,0.2,1.4,0.7,1.8,1.4c1.6,2.7,3.6,8.2,3.6,8.2c0.1,0.3,0.2,0.6,0.2,1
	C78.3,58.6,78.2,59.7,77.9,60.7"/>
<path class="st11" d="M30,38.3c0,2.1,1.7,6.3,3.8,6.3c2.1,0,3.8-4.1,3.8-6.3c0-2.1-1.7-3.8-3.8-3.8C31.7,34.5,30,36.2,30,38.3"/>
<path class="st11" d="M21.6,60.7l2.2,8.3l0.1,0c0.8,0.3,1.8,0.2,2.6-0.2l0.3-0.2v1.6h9.7l-5.1-16.4c-0.6-1.9-0.3-4,0.8-5.7
	c-0.3-1.4-0.6-2.7-0.6-2.7L27,46.9c-0.8,0.2-1.4,0.7-1.8,1.4c-1.6,2.7-3.6,8.2-3.6,8.2c-0.1,0.3-0.2,0.6-0.2,1
	C21.2,58.6,21.3,59.7,21.6,60.7"/>
<g>
	<path d="M50,99.7l-0.3,0c-1.6,0-3.2-0.1-4.8-0.3c-1.6-0.2-3.2-0.4-4.7-0.7l-0.3-0.1l-0.7-4.9c-0.3-2.3-1.8-4.1-3.9-4.9
		c-2.1-0.8-4.5-0.4-6.2,1.1L25.2,93l-0.3-0.2c-2.7-1.6-5.3-3.5-7.7-5.6L17,87l1.8-4.6c0.9-2.1,0.5-4.5-0.9-6.3
		c-1.4-1.8-3.6-2.6-5.9-2.2l-4.9,0.9l-0.2-0.3c-1.6-2.8-2.9-5.7-3.9-8.7l-0.1-0.3l3.9-3.1c1.8-1.4,2.7-3.6,2.3-5.9
		c-0.4-2.3-1.9-4.1-4-4.9L0.5,50l0-0.3c0-1.6,0.1-3.2,0.3-4.8c0.2-1.6,0.4-3.2,0.7-4.7l0.1-0.3l4.9-0.7c2.3-0.3,4.1-1.8,4.9-3.9
		c0.8-2.1,0.4-4.5-1-6.2l-3.2-3.8l0.2-0.3c1.6-2.7,3.5-5.3,5.6-7.7l0.2-0.2l4.6,1.8c2.1,0.9,4.4,0.5,6.2-0.9
		c1.8-1.4,2.6-3.7,2.2-5.9L25.3,7l0.3-0.2c2.8-1.6,5.7-2.9,8.7-3.9l0.3-0.1l3.1,3.9C39,8.5,41.2,9.4,43.5,9c2.3-0.4,4.1-1.9,4.9-4
		L50,0.3l0.3,0c1.6,0,3.2,0.1,4.8,0.3c1.6,0.2,3.2,0.4,4.7,0.7l0.3,0.1l0.7,4.9c0.3,2.3,1.8,4.1,3.9,4.9c2.1,0.8,4.5,0.4,6.2-1.1
		L74.8,7l0.3,0.2c2.7,1.6,5.3,3.5,7.7,5.6L83,13l-1.8,4.6c-0.9,2.1-0.5,4.5,0.9,6.3c1.4,1.8,3.6,2.6,5.9,2.2l4.9-0.9l0.2,0.3
		c1.6,2.8,2.9,5.7,3.9,8.7l0.1,0.3l-3.9,3.1c-1.8,1.4-2.7,3.6-2.3,5.9c0.4,2.3,1.9,4.1,4,4.9l4.6,1.7l0,0.3c0,1.6-0.1,3.2-0.3,4.8
		c-0.2,1.6-0.4,3.2-0.7,4.7l-0.1,0.3l-4.9,0.7c-2.3,0.3-4.1,1.8-4.9,3.9c-0.8,2.1-0.4,4.5,1,6.2l3.2,3.8l-0.2,0.3
		c-1.6,2.7-3.5,5.3-5.6,7.7l-0.2,0.2l-4.6-1.8c-2.1-0.9-4.4-0.5-6.2,0.9c-1.8,1.4-2.6,3.7-2.2,5.9l0.9,4.9l-0.3,0.2
		c-2.8,1.6-5.7,2.9-8.7,3.9l-0.3,0.1l-3.1-3.9c-1.4-1.8-3.6-2.7-5.9-2.3c-2.3,0.4-4.1,1.9-4.9,4L50,99.7z M40.6,97.8
		c1.4,0.3,2.9,0.5,4.3,0.6c1.4,0.1,2.9,0.2,4.4,0.3l1.5-4c0.9-2.5,3-4.2,5.6-4.6c2.6-0.4,5.1,0.6,6.7,2.6l2.7,3.4
		c2.7-0.9,5.4-2.1,8-3.6L73,88.3c-0.5-2.6,0.5-5.1,2.5-6.8c2-1.7,4.7-2.1,7.1-1.1l4,1.6c1.9-2.2,3.6-4.6,5.1-7.1L89,71.6
		c-1.7-2-2.1-4.7-1.2-7.2c0.9-2.5,3.1-4.1,5.7-4.5l4.2-0.6c0.3-1.4,0.5-2.9,0.6-4.3c0.1-1.4,0.2-2.9,0.3-4.4l-4-1.5
		c-2.5-0.9-4.2-3-4.6-5.6c-0.4-2.6,0.6-5.1,2.6-6.8l3.4-2.7c-0.9-2.7-2.1-5.4-3.6-8l-4.2,0.7c-2.6,0.5-5.1-0.5-6.8-2.5
		c-1.7-2-2.1-4.7-1.1-7.2l1.6-4c-2.2-1.9-4.6-3.6-7-5.1l-3.3,2.8c-2,1.7-4.7,2.1-7.1,1.2C62,11.2,60.3,9,60,6.4l-0.6-4.2
		c-1.4-0.3-2.9-0.5-4.3-0.6c-1.4-0.1-2.9-0.2-4.4-0.3l-1.5,4c-0.9,2.5-3,4.2-5.6,4.6c-2.6,0.4-5.1-0.6-6.7-2.6l-2.7-3.4
		c-2.7,0.9-5.4,2.1-8,3.6l0.7,4.2c0.5,2.6-0.5,5.1-2.5,6.8c-2,1.7-4.7,2.1-7.1,1.1l-4-1.6c-1.9,2.2-3.6,4.6-5.1,7.1l2.8,3.3
		c1.7,2,2.1,4.7,1.2,7.2C11.3,38,9.2,39.7,6.6,40l-4.2,0.6C2,42.1,1.8,43.5,1.7,45c-0.2,1.4-0.2,2.9-0.3,4.4l4,1.5
		c2.5,0.9,4.2,3,4.6,5.6c0.4,2.6-0.6,5.1-2.6,6.8L4,65.8c0.9,2.8,2.1,5.4,3.6,8l4.2-0.7c2.6-0.5,5.1,0.5,6.8,2.5
		c1.7,2,2.1,4.7,1.1,7.2l-1.6,4c2.2,1.9,4.6,3.7,7,5.1l3.3-2.8c2-1.7,4.7-2.1,7.1-1.2c2.5,0.9,4.1,3.1,4.5,5.7L40.6,97.8z M50,85.8
		c-1.2,0-2.5-0.1-3.7-0.2c-9.5-1-18-5.6-24-13c-6-7.4-8.8-16.7-7.8-26.3c1-9.5,5.6-18.1,13-24.1c7.4-6,16.7-8.8,26.2-7.8
		c19.6,2,33.8,19.7,31.8,39.3l0,0c-1,9.5-5.6,18.1-13,24.1C66.1,83,58.2,85.8,50,85.8z M50,15.1c-8,0-15.6,2.7-21.9,7.8
		c-7.2,5.9-11.7,14.2-12.7,23.5c-1,9.3,1.7,18.3,7.6,25.6c5.9,7.2,14.2,11.7,23.4,12.7c9.2,1,18.3-1.7,25.5-7.6
		c7.2-5.9,11.7-14.2,12.7-23.5l0.5,0l-0.5,0c2-19.1-11.9-36.3-31-38.3C52.4,15.2,51.2,15.1,50,15.1z"/>
</g>
</svg>
