<?xml version="1.0" encoding="utf-8"?>
<!-- Generator: Adobe Illustrator 22.0.1, SVG Export Plug-In . SVG Version: 6.00 Build 0)  -->
<svg version="1.1" id="Layer_1" xmlns="http://www.w3.org/2000/svg" xmlns:xlink="http://www.w3.org/1999/xlink" x="0px" y="0px"
	 viewBox="0 0 200 200" style="enable-background:new 0 0 200 200;" xml:space="preserve">
<style type="text/css">
	.st0{fill:#40875E;}
	.st1{fill:#A8A240;}
	.st2{fill:#F0AB00;}
	.st3{fill:none;stroke:#000000;stroke-width:2;}
	.st4{fill:#F1AB1C;}
	.st5{fill:none;stroke:#000000;stroke-width:2;stroke-miterlimit:10;}
	.st6{fill:none;}
	.st7{fill:none;stroke:#EC1C24;stroke-width:0.25;}
	.st8{fill:#A69F3D;}
	.st9{fill:#EFAA1E;}
	.st10{fill-rule:evenodd;clip-rule:evenodd;fill:#F0AB00;}
	.st11{fill-rule:evenodd;clip-rule:evenodd;fill:#A69F3D;}
	.st12{fill:#A69F3D;stroke:#A69F3D;stroke-width:2;stroke-miterlimit:10;}
	.st13{fill:#EFAA1E;stroke:#EFAA1E;stroke-width:2;stroke-miterlimit:10;}
	.st14{fill:none;stroke:#A69F3D;stroke-width:2;stroke-miterlimit:10;}
</style>
<g>
	<path class="st1" d="M130.7,171.3l2.2,0.2l1.9,0.2c0.8,0.2,1.5,0.3,2.3,0.3c0.2,0,0.4,0,0.5,0c0.3,0,0.6,0,0.9-0.1
		c1.3-0.2,2.5-0.8,3.5-1.6l22.5-17.7c0.3-0.2,0.5-0.5,0.7-0.8c1.1-2.1,1-4.5-0.1-6.4c-0.1-0.2-0.3-0.3-0.4-0.5
		c-0.7-1-1.7-1.7-2.8-2.2c-0.8-0.3-1.6-0.5-2.4-0.5c-0.6,0-1.3,0.1-1.9,0.3l-2.3,0.7c-0.1,0-0.3,0.1-0.4,0.2l-1.7,0.9l-1.5,0.8
		l-12.8,6.5c-0.1,0-0.2,0.1-0.3,0.1c-0.5,0.3-1.1,0.5-1.7,0.5c-0.4,0-0.7-0.1-1.1-0.2c-0.3-0.1-0.5-0.2-0.8-0.4l-2.8-2l20.8-19.2
		l0.3-0.3c1-0.8,2.2-1.1,3.3-1c1.1-0.5,2.4-0.4,3.5,0.4l5.2-4.8l0.3-0.3c0.9-0.7,1.9-1,2.8-1c1.3-0.7,2.9-0.6,4,0.4l0.3,0.3
		c0.2,0.2,0.4,0.5,0.5,0.8l6.1-5.6l0.4-0.3c1.3-1,2.7-1.3,4.1-1.2c1.4-0.8,3.2-0.8,4.4,0.4l0.4,0.3c1.1,1,1.4,2.6,1,3.9
		c1.3-0.8,2.8-0.9,4.1-0.6c1.2-0.3,2.5-0.1,3.5,0.8l0.4,0.3c1.5,1.4,1.6,3.7,0.2,5.2l-0.3,0.3c-0.2,0.7-0.5,1.3-1,1.8l-45.2,54.4
		c-1,1.2-2.5,1.9-4.1,1.9H105c-1.1,0-2.1-0.3-3-0.9l-28.8-19.5l45.1,4L130.7,171.3z"/>
	<path class="st1" d="M26.4,140.1l21.1-15.4c0.4-0.3,0.8-0.4,1.2-0.6c0.3-0.1,0.7-0.2,1.1-0.3c0.2,0,0.4-0.1,0.6-0.1
		c0.3,0,0.7-0.1,1.1-0.1h38h1.2c1.2,0,2.3,0.4,3.3,1.1l36.6,26.5l3.2,2.3c0.1,0.1,0.2,0.1,0.3,0.1c0.9,0.6,2,0.9,3,0.9
		c1.1,0,2.2-0.3,3.1-0.9l4.9-2.5l4.3-2.2l6.9-3.5l2.3-0.7c0.4-0.1,0.8-0.2,1.2-0.2c0.3,0,0.5,0.1,0.7,0.1c0.7,0.1,1.3,0.4,1.8,0.9
		c0.3,0.3,0.6,0.6,0.9,1c0.7,1.1,0.9,2.6,0.1,4.1l-2.6,2L141,168l-0.4,0.3c-0.8,0.6-1.8,1-2.8,1.1c-0.2,0-0.4,0.1-0.6,0.1
		c-0.6,0-1.2-0.1-1.8-0.3l-2.7-0.2l-0.6-0.1l-14.6-1.3l-45.3-4c-0.6-0.2-1.2-0.3-1.8-0.3c-0.4,0-0.9,0.1-1.3,0.2
		c-0.4,0.1-0.7,0.2-1.1,0.4l-31.6,12.5l-0.2-0.9l-9.5-34.9L26.4,140.1z"/>
	<path class="st0" d="M1.9,140.7c0.9-1.5,2.2-2.6,3.9-3l10-2.7c0.6-0.1,1.1-0.2,1.7-0.2c2.7,0,5.2,1.8,6.1,4.3
		c0,0.1,0.1,0.3,0.1,0.4l0.2,0.9l0.4,1.3l0.1,0.4l9.3,34.2l0.2,0.8l0,0.2c0.1,0.4,0.1,0.7,0.2,1.1c0,0.5,0,0.9,0,1.4
		c-0.3,2.5-2.1,4.7-4.7,5.5l-10,2.7c-3.4,0.9-7-1.2-7.9-4.5L1.3,145.6C0.8,144,1,142.2,1.9,140.7"/>
	<path class="st2" d="M145.8,121.4c-1.1,0.5-2.2,0.9-3.2,1.1c-1.1,0.3-2.2,0.4-3.4,0.4c-2.2,0.1-4.3-0.2-6.4-1
		c-2.1-0.7-4-1.9-5.7-3.5c-1.7-1.6-3-3.4-3.9-5.3c-0.9-2-1.4-4-1.4-6.2c-0.1-2,0.2-3.9,0.8-5.8L98.3,77c-1.8,0.7-3.7,1.1-5.7,1.2
		c-2.2,0.1-4.3-0.2-6.4-1c-2.1-0.7-4-1.9-5.7-3.5c-1.7-1.5-3-3.3-3.9-5.3c-0.9-2-1.4-4-1.4-6.1c-0.1-2.2,0.3-4.4,1.1-6.6l6.9,6.3
		c2.5,2.3,6.4,2.1,8.7-0.3c2.4-2.5,2.3-6.6-0.3-8.9l-6.7-6.1c1.1-0.5,2.2-0.9,3.3-1.1c1.1-0.3,2.2-0.4,3.4-0.5
		c2.2-0.1,4.3,0.2,6.4,1c2.1,0.7,3.9,1.9,5.6,3.5c1.7,1.6,3,3.4,3.9,5.3c0.9,2,1.4,4.1,1.4,6.2c0.1,2.2-0.3,4.3-1,6.3l23.9,23.9
		c1-0.4,2-0.8,3.1-1c1.1-0.2,2.2-0.4,3.3-0.4c2.2-0.1,4.3,0.3,6.4,1c2.1,0.7,4,1.9,5.7,3.5c1.7,1.6,3,3.4,3.9,5.4
		c0.9,2,1.4,4.1,1.5,6.2c0.1,2.2-0.3,4.3-1.1,6.4l-7.8-7.1c-2-1.8-5.2-1.7-7.1,0.3l-1.6,1.7c-2,2.1-1.8,5.3,0.2,7.2L145.8,121.4z"/>
	<path class="st5" d="M139.8,52.3h-8c-0.9,0-1.8-0.6-2-1.6c-0.8-2.9-2-5.7-3.4-8.3c-0.5-0.8-0.3-1.9,0.3-2.5l5.7-5.7
		c0.8-0.8,0.8-2.1,0-3l-9.8-9.8c-0.8-0.8-2.1-0.8-3,0l-5.7,5.7c-0.7,0.7-1.7,0.8-2.5,0.3c-2.6-1.5-5.4-2.6-8.3-3.4
		c-0.9-0.3-1.6-1.1-1.6-2v-8c0-1.2-0.9-2.1-2.1-2.1H85.5c-1.2,0-2.1,0.9-2.1,2.1v8c0,1-0.6,1.8-1.6,2c-2.9,0.8-5.7,2-8.3,3.4
		c-0.8,0.5-1.9,0.3-2.5-0.3l-5.7-5.7c-0.8-0.8-2.1-0.8-3,0l-9.8,9.8c-0.8,0.8-0.8,2.1,0,3l5.7,5.7c0.7,0.7,0.8,1.7,0.3,2.5
		c-1.5,2.6-2.6,5.4-3.4,8.3c-0.3,0.9-1.1,1.6-2,1.6h-8c-1.2,0-2.1,0.9-2.1,2.1v13.9c0,1.2,0.9,2.1,2.1,2.1h8c1,0,1.8,0.6,2,1.6
		c0.8,2.9,2,5.7,3.4,8.3c0.5,0.8,0.3,1.9-0.3,2.5l-5.7,5.7c-0.8,0.8-0.8,2.1,0,3l9.8,9.8c0.8,0.8,2.1,0.8,3,0l5.7-5.7
		c0.7-0.7,1.7-0.8,2.5-0.3c2.6,1.5,5.4,2.6,8.3,3.4c0.9,0.3,1.6,1.1,1.6,2v8c0,1.2,0.9,2.1,2.1,2.1h13.9c1.2,0,2.1-0.9,2.1-2.1v-8
		c0-1,0.6-1.8,1.6-2c2.4-0.7,4.6-1.6,6.8-2.7L95.2,81.3c-0.9,0.1-1.8,0.2-2.8,0.2c-11.2,0-20.2-9.1-20.2-20.2
		c0-11.2,9.1-20.2,20.2-20.2c11.2,0,20.2,9.1,20.2,20.2c0,0.7,0,1.4-0.1,2.1l14.8,14.8c1-2,1.8-4.1,2.4-6.3c0.3-0.9,1.1-1.6,2-1.6h8
		c1.2,0,2.1-0.9,2.1-2.1V54.4C141.9,53.2,141,52.3,139.8,52.3z"/>
</g>
</svg>
