<?xml version="1.0" encoding="utf-8"?>
<!-- Generator: Adobe Illustrator 22.0.1, SVG Export Plug-In . SVG Version: 6.00 Build 0)  -->
<svg version="1.1" id="Layer_1" xmlns="http://www.w3.org/2000/svg" xmlns:xlink="http://www.w3.org/1999/xlink" x="0px" y="0px"
	 viewBox="0 0 200 200" style="enable-background:new 0 0 200 200;" xml:space="preserve">
<style type="text/css">
	.st0{fill:#40875E;}
	.st1{fill:#A8A240;}
	.st2{fill:#F0AB00;}
	.st3{fill:none;stroke:#000000;stroke-width:2;}
	.st4{fill:#F1AB1C;}
	.st5{fill:none;stroke:#000000;stroke-width:2;stroke-miterlimit:10;}
	.st6{fill:none;}
	.st7{fill:none;stroke:#EC1C24;stroke-width:0.25;}
	.st8{fill:#A69F3D;}
	.st9{fill:#EFAA1E;}
	.st10{fill-rule:evenodd;clip-rule:evenodd;fill:#F0AB00;}
	.st11{fill-rule:evenodd;clip-rule:evenodd;fill:#A69F3D;}
	.st12{fill:#A69F3D;stroke:#A69F3D;stroke-width:2;stroke-miterlimit:10;}
	.st13{fill:#EFAA1E;stroke:#EFAA1E;stroke-width:2;stroke-miterlimit:10;}
	.st14{fill:none;stroke:#A69F3D;stroke-width:2;stroke-miterlimit:10;}
</style>
<g>
	<polygon class="st1" points="45.7,113.1 30.8,121.7 37.4,125 37.4,124.9 50,117.4 53.6,119.5 40.7,126.7 46,129.3 46,129.3 
		40.7,126.7 40.5,126.8 40.3,131.6 37.4,130.2 37.4,125 30.8,121.7 30.8,140.6 46,149.5 60.6,141.2 60.6,121.6 	"/>
	<polygon class="st1" points="75.5,113.7 60.6,121.7 67.3,125 67.3,124.9 80.4,117.6 83.8,119.3 70.5,126.7 75.8,129.3 75.8,129.3 
		70.5,126.7 70.3,126.8 70.1,131.6 67.3,130.2 67.3,125 60.6,121.7 60.6,140.6 75.8,149.5 90.4,141.2 90.6,121.1 	"/>
	<polygon class="st1" points="60.2,87.3 45.7,94.3 52.3,97.6 52.3,97.5 65,90.4 68.4,92 55.6,99.2 60.9,101.9 60.9,101.9 55.6,99.2 
		55.4,99.3 55.2,104.2 52.3,102.8 52.3,97.6 45.7,94.3 45.7,113.1 60.9,122.1 75.5,113.7 75.5,94.7 	"/>
	<rect x="71.9" y="46.7" class="st2" width="68" height="15.7"/>
	<rect x="112.6" y="132.4" class="st2" width="27.3" height="15.7"/>
	<rect x="86.7" y="75.2" class="st2" width="33" height="15.7"/>
	<polygon class="st5" points="190.9,49.6 184.5,43 156.4,70.8 126.6,99.5 139.7,112.7 154.9,98 154.9,98.1 165.7,87.6 165.7,87.6 
		169.2,84.2 197.3,56.2 	"/>
	<polygon class="st5" points="135.8,116.8 122.7,103.7 115.6,123.8 135.6,117 	"/>
	<path class="st0" d="M91,152.7L91,152.7c2.7,0,5-1.8,5.6-4.4l7.6-33.2c0.7-3.1-1.2-6.1-4.3-6.8c-3.1-0.7-6.1,1.2-6.8,4.3l-6.6,28.7
		l-49.7-0.5l-12-47.9c-0.4-1.5-1.4-2.9-2.8-3.6l-10.9-6c-2.8-1.5-6.2-0.5-7.8,2.3c-1.5,2.8-0.5,6.2,2.3,7.8l8.7,4.8l12.2,48.8
		l-6.6,5.2c-0.8,0.6-1.2,1.6-1.2,2.6v8.2c0,1.8,1.4,3.2,3.2,3.3l9.2,0.1c-1.3,1.2-2.1,2.9-2.1,4.8c0,3.6,2.9,6.5,6.5,6.5
		c3.6,0,6.5-2.9,6.5-6.5c0-1.8-0.7-3.5-1.9-4.6l43.1,0.6c-0.9,1.1-1.4,2.5-1.4,4c0,3.6,2.9,6.5,6.5,6.5c3.6,0,6.5-2.9,6.5-6.5
		c0-1.5-0.5-2.8-1.3-3.9l5.6,0.1h0c1.8,0,3.2-1.4,3.3-3.2c0-1.8-1.4-3.3-3.2-3.3l-28.2-0.4l10.8-7.6L91,152.7z M58.6,160.1
		l-33.4-0.5v-3.4l5.4-4.3c0.5,0.2,1,0.3,1.6,0.3l37.1,0.3L58.6,160.1z"/>
	<path class="st0" d="M151.6,169.5c0.2,0,1.5-0.2,2.1-0.3c0.7-0.1,1.7-0.4,2.4-0.7c1.9-0.7,3.8-1.8,5.7-3.8c1.9-2,2.9-4.3,3.4-6.3
		c0.2-0.8,0.3-1.7,0.4-2.5v-53.4l-10.8,10.5v41.6c0.1,2.3-1.9,4.1-3.5,4.1h-47.8v10.9H151.6z"/>
	<path class="st0" d="M157.4,55.1l8.3-8v-11c0-0.2-0.2-1-0.2-1.4c-0.5-2.5-1.5-5.1-3.6-7.4c-2.2-2.5-4.8-3.7-7.1-4.3
		c-1.1-0.3-2.1-0.3-3.3-0.4H63.7c-0.5,0.1-1.1,0.1-1.5,0.1c-0.7,0.1-1.5,0.3-2.1,0.4c-0.5,0.2-1.1,0.4-1.5,0.5
		c-0.5,0.2-1,0.5-1.5,0.7c-3.9,1.9-6.6,6.4-7.2,9.5c-0.1,0.7-0.2,1.5-0.3,2.2v31.3h10.8V37.4c0.1-0.3,0.1-0.7,0.1-0.9
		c0.2-1.8,2.2-3.3,3.5-3.1h87.2c2.5,0.2,3.7,2.1,3.7,4v20.1C155.7,56.7,156.6,55.9,157.4,55.1z"/>
</g>
</svg>
