<?xml version="1.0" encoding="utf-8"?>
<!-- Generator: Adobe Illustrator 22.0.1, SVG Export Plug-In . SVG Version: 6.00 Build 0)  -->
<svg version="1.1" id="Layer_1" xmlns="http://www.w3.org/2000/svg" xmlns:xlink="http://www.w3.org/1999/xlink" x="0px" y="0px"
	 viewBox="0 0 200 200" style="enable-background:new 0 0 200 200;" xml:space="preserve">
<style type="text/css">
	.st0{fill:#40875E;}
	.st1{fill:#A8A240;}
	.st2{fill:#F0AB00;}
	.st3{fill:none;stroke:#000000;stroke-width:2;}
	.st4{fill:#F1AB1C;}
	.st5{fill:none;stroke:#000000;stroke-width:2;stroke-miterlimit:10;}
	.st6{fill:none;}
	.st7{fill:none;stroke:#EC1C24;stroke-width:0.25;}
	.st8{fill:#A69F3D;}
	.st9{fill:#EFAA1E;}
	.st10{fill-rule:evenodd;clip-rule:evenodd;fill:#F0AB00;}
	.st11{fill-rule:evenodd;clip-rule:evenodd;fill:#A69F3D;}
	.st12{fill:#A69F3D;stroke:#A69F3D;stroke-width:2;stroke-miterlimit:10;}
	.st13{fill:#EFAA1E;stroke:#EFAA1E;stroke-width:2;stroke-miterlimit:10;}
	.st14{fill:none;stroke:#A69F3D;stroke-width:2;stroke-miterlimit:10;}
</style>
<g>
	<polygon class="st2" points="27.6,37.8 67.2,37.8 67.2,82.2 27.6,82.2 	"/>
	<rect x="79.3" y="39.4" class="st1" width="48.6" height="4.9"/>
	<rect x="79.3" y="58.1" class="st1" width="48.6" height="4.8"/>
	<rect x="78.7" y="77.3" class="st1" width="48.6" height="4.9"/>
	<rect x="27.6" y="103.3" class="st1" width="100.3" height="4.9"/>
	<rect x="27.6" y="129.4" class="st1" width="60.4" height="4.9"/>
	<rect x="27.6" y="155.2" class="st1" width="60.4" height="4.9"/>
	<path class="st5" d="M158.9,123.1c0.4-1.4-0.3-2.9-1.6-3.6l-3.6-1.6l-3.6-1.6c-1.4-0.7-3-0.2-3.8,1l-4.5,6.6
		c-3.1-0.6-6.2-0.7-9.2-0.4l-4-6.9c-0.7-1.3-2.3-1.8-3.6-1.3l-3.7,1.3l-3.7,1.3c-0.8,0.3-1.3,0.9-1.7,1.6c-0.3,0.6-0.4,1.2-0.2,1.9
		l1.4,7.9c-2.5,1.7-4.8,3.8-6.8,6.2l-7.7-2.1c-1.4-0.4-2.9,0.3-3.6,1.7l-1.7,3.6l-1.6,3.6c-0.6,1.4-0.2,3,1,3.8l6.6,4.5
		c-0.5,3-0.7,6-0.4,9l-7,4c-0.6,0.3-1,0.8-1.2,1.3c-0.3,0.7-0.4,1.5-0.1,2.3l1.4,3.7l1.3,3.7c0.5,1.4,1.9,2.2,3.4,1.9l7.8-1.5
		c1.7,2.5,3.8,4.8,6.2,6.8l-2.1,7.8c-0.4,1.5,0.3,2.9,1.7,3.6l3.6,1.7l3.6,1.6c1.4,0.6,3,0.2,3.8-1l4.5-6.5c3,0.6,6.2,0.7,9.2,0.5
		l4,7c0.7,1.3,2.3,1.8,3.7,1.4l3.7-1.4l3.7-1.3c0.8-0.3,1.3-0.9,1.7-1.6c0.3-0.5,0.4-1.2,0.2-1.8l-1.5-7.8c2.5-1.7,4.8-3.8,6.9-6.2
		l7.7,2.1c1.5,0.4,2.9-0.3,3.6-1.7l1.7-3.6l1.6-3.6c0.7-1.4,0.2-3-1-3.8l-6.5-4.5c0.7-3.1,0.8-6.3,0.4-9.4l7-4
		c0.5-0.3,1-0.8,1.2-1.3c0.3-0.7,0.4-1.5,0.1-2.3l-1.3-3.7l-1.4-3.7c-0.5-1.4-1.9-2.2-3.4-1.9l-7.9,1.5c-1.7-2.6-3.8-4.8-6.3-6.8
		L158.9,123.1L158.9,123.1z M114.9,139.9c9-11.6,25.8-13.6,37.4-4.5c9.9,7.8,12.8,21.3,7.7,32.2c-0.8,1.8-1.9,3.5-3.2,5.1
		c-9.1,11.6-25.8,13.6-37.4,4.5c-10-7.8-12.9-21.3-7.7-32.2C112.6,143.3,113.6,141.5,114.9,139.9L114.9,139.9z M114.9,139.9"/>
	<path class="st2" d="M148.7,166.6l7.6-10.1h-5c0-8.3-6.8-15.2-15.2-15.2c-3,0-5.8,0.9-8.3,2.4l3.1,4.1c1.5-0.9,3.3-1.5,5.2-1.5
		c5.6,0,10.1,4.5,10.1,10.1h-5.1L148.7,166.6z"/>
	<path class="st2" d="M131,156.5l-7.6-10.1l-7.5,10.1h5c0,8.3,6.8,15.1,15.2,15.1c3,0,5.8-0.9,8.3-2.5l-3.1-4.1
		c-1.6,0.9-3.3,1.5-5.2,1.5c-5.5,0-10.1-4.5-10.1-10.1H131z"/>
	<path class="st6" d="M186.1,34.3h-16.8l-10.5,78c1.4,0.7,2.7,1.4,4,2.2L186.1,34.3z"/>
	<path class="st0" d="M192.3,29.7c-0.5-0.7-1.4-1.1-2.3-1.1h-20l1.1-8.4c0.1-0.9-0.1-1.7-0.7-2.3c-0.6-0.6-1.3-1-2.2-1h-21.7V5.1
		c0-1.7-1.3-2.9-2.9-2.9H34.2L7.1,27.4v156.5c0,1.6,1.3,2.9,2.9,2.9h89.6c-2.3-2.8-4.3-5.9-5.9-9.2H16.4V33.7L41,11.5h96.3v96
		c0,0,0.1,0,0.1,0c3.1,0,6.2,0.3,9.2,0.9V22.7h18.3L153.1,110c1.9,0.7,3.8,1.4,5.6,2.3l10.5-78h16.8l-23.4,80.2
		c1.8,1.1,3.4,2.3,5,3.5l25-85.8C193,31.3,192.9,30.4,192.3,29.7z"/>
</g>
</svg>
