<?xml version="1.0" encoding="utf-8"?>
<!-- Generator: Adobe Illustrator 22.0.1, SVG Export Plug-In . SVG Version: 6.00 Build 0)  -->
<svg version="1.1" id="Layer_1" xmlns="http://www.w3.org/2000/svg" xmlns:xlink="http://www.w3.org/1999/xlink" x="0px" y="0px"
	 viewBox="0 0 200 200" style="enable-background:new 0 0 200 200;" xml:space="preserve">
<style type="text/css">
	.st0{fill:#40875E;}
	.st1{fill:#A8A240;}
	.st2{fill:#F0AB00;}
	.st3{fill:none;stroke:#000000;stroke-width:2;}
	.st4{fill:#F1AB1C;}
	.st5{fill:none;stroke:#000000;stroke-width:2;stroke-miterlimit:10;}
	.st6{fill:none;}
	.st7{fill:none;stroke:#EC1C24;stroke-width:0.25;}
	.st8{fill:#A69F3D;}
	.st9{fill:#EFAA1E;}
	.st10{fill-rule:evenodd;clip-rule:evenodd;fill:#F0AB00;}
	.st11{fill-rule:evenodd;clip-rule:evenodd;fill:#A69F3D;}
	.st12{fill:#A69F3D;stroke:#A69F3D;stroke-width:2;stroke-miterlimit:10;}
	.st13{fill:#EFAA1E;stroke:#EFAA1E;stroke-width:2;stroke-miterlimit:10;}
	.st14{fill:none;stroke:#A69F3D;stroke-width:2;stroke-miterlimit:10;}
</style>
<path class="st5" d="M84.5,84.2c-5.5,0-5.5,8.5,0,8.5h65.2c5.5,0,5.5-8.5,0-8.5H84.5z"/>
<path class="st5" d="M84.5,104.3c-5.5,0-5.5,8.5,0,8.5h65.2c5.5,0,5.5-8.5,0-8.5H84.5L84.5,104.3z"/>
<path class="st5" d="M84.5,122.8c-5.5,0-5.5,8.5,0,8.5h65.2c5.5,0,5.5-8.5,0-8.5H84.5L84.5,122.8z"/>
<path class="st5" d="M84.5,142.9c-5.5,0-5.5,8.5,0,8.5h65.2c5.5,0,5.5-8.5,0-8.5H84.5L84.5,142.9z"/>
<path class="st5" d="M85.7,161.8c-5.5,0-5.5,8.5,0,8.5H151c5.5,0,5.5-8.5,0-8.5H85.7L85.7,161.8z"/>
<path class="st0" d="M78.8,40.8L56.2,62.8V199H178V40.8H78.8z M66.7,68.1h17.5V51.4h83.2v137.1H66.7V68.1z"/>
<path class="st1" d="M61.8,20.9L39.2,42.8v136.2h15.2v-10.5h-4.6V48.1h17.5V31.4h83.2v7.8H161V20.9H61.8z"/>
<path class="st2" d="M22,22.9v136.2h15.2v-10.5h-4.6V28.2h17.5V11.5h83.2v7.8h10.5V1H44.7L22,22.9z"/>
</svg>
