<?xml version="1.0" encoding="utf-8"?>
<!-- Generator: Adobe Illustrator 22.0.1, SVG Export Plug-In . SVG Version: 6.00 Build 0)  -->
<svg version="1.1" id="Layer_1" xmlns="http://www.w3.org/2000/svg" xmlns:xlink="http://www.w3.org/1999/xlink" x="0px" y="0px"
	 viewBox="0 0 200 200" style="enable-background:new 0 0 200 200;" xml:space="preserve">
<style type="text/css">
	.st0{fill:#40875E;}
	.st1{fill:#A8A240;}
	.st2{fill:#F0AB00;}
	.st3{fill:none;stroke:#000000;stroke-width:2;}
	.st4{fill:#F1AB1C;}
	.st5{fill:none;stroke:#000000;stroke-width:2;stroke-miterlimit:10;}
	.st6{fill:none;}
	.st7{fill:none;stroke:#EC1C24;stroke-width:0.25;}
	.st8{fill:#A69F3D;}
	.st9{fill:#EFAA1E;}
	.st10{fill-rule:evenodd;clip-rule:evenodd;fill:#F0AB00;}
	.st11{fill-rule:evenodd;clip-rule:evenodd;fill:#A69F3D;}
	.st12{fill:#A69F3D;stroke:#A69F3D;stroke-width:2;stroke-miterlimit:10;}
	.st13{fill:#EFAA1E;stroke:#EFAA1E;stroke-width:2;stroke-miterlimit:10;}
	.st14{fill:none;stroke:#A69F3D;stroke-width:2;stroke-miterlimit:10;}
</style>
<g>
	<polygon class="st2" points="49.8,6.4 1.6,54 1.6,61.8 13.7,61.5 56.9,17.3 	"/>
	<path class="st0" d="M49.8,6.4h94.4c14.5,1.9,12.6,14.8,12.6,14.8v20.7L145,50.2V23c0,0,0.7-6.5-8.2-5.7H70.4c0,0-6.3,1.4-6.3,6.6
		v31.2c0,0,1.3,12-14.5,12.9H20.7c0,0-7-1.1-6.8,6.8v100.9c0,0-0.7,6.5,7,6.6h118c6.1,0.2,5.6-6.1,5.6-6.1v-36l12.4-11.1v50.6
		c-0.4,15.2-15.1,13.9-15.1,13.9h-128c-11.8-1.1-12.1-14-12.1-14V60.7h46.3c0,0,8.3-1.6,8.9-11.8V17.4L49.8,6.4z"/>
	<path class="st5" d="M96.2,126.9c0,0,10.8,6.2,15.7,13.3L91.6,150L96.2,126.9z"/>
	<path class="st5" d="M101.9,110.6c0,0,24.2,2.4,28.2,26.9l68-69.4c0,0,4-12.6-17.5-25.3c0,0-4.6-3.2-10.5-0.8L101.9,110.6z"/>
	<rect x="73.2" y="46.7" class="st2" width="58.6" height="9.4"/>
	<polygon class="st2" points="123.2,76.5 73.2,76.5 73.2,67 131.8,67 	"/>
	<polygon class="st2" points="106,94.7 73.2,94.7 73.2,85.3 114.6,85.3 	"/>
	<path class="st0" d="M57.7,123.6l2.2,6.3l0.6,18.2l-4.2,11.2l-4.1,6.8l-0.8,2.7l-0.7,0.5l-3.3-1.3l-4.2-9.3L38,136.9l3.1-10.4
		l1.7-2.4l0.9-0.7l5.8,4.2l3.4-1.7l1.9-1.2C54.8,124.7,56.6,122.8,57.7,123.6z"/>
	<path class="st2" d="M50.1,130.8l-3,2.8l1.4,1.2l0,2c0,0-3.4,12.1-2.6,19.8c0,0,0.6,7.9,4,12.3c0,0,3.7-7.2,4.2-12
		c0,0-0.1-13.6-2.2-20.2l0.1-1.5l1.1-1.7L50.1,130.8z"/>
	<path class="st2" d="M38.3,107.4c0,0-1,2.4,0.9,4.7c0,0,2.2,7.1,7,11.4c0,0,5.7,3.6,10.2-1.9c0,0,3.4-3.9,5.1-9.8l0.9-0.8
		c0,0,1.4-1.5,0.5-4l-0.6-0.9l-0.1-4.6l-13.3-5.3l-7.4,1.4l-3,2.8L38.3,107.4z"/>
	<path class="st2" d="M43.6,120.6l-0.5,2.8c0,0,3.2,5,6.9,7.3c0,0,3.8-1.1,7.4-7.3v-3.2c0,0-4,7.1-11.2,3.2
		C46.2,123.4,44.6,122.1,43.6,120.6z"/>
	<path class="st0" d="M65.6,129.6c0,0,10.1,3.5,12.7,6.2c0,0,4.4,6.7,4.4,18.2l0.1,9.1c0,0-14.7,7.5-32.5,6.7v-1.3
		c0,0,8.8-9.9,15.2-22.5c0,0,4.4-8.9,1-9.9c0,0-2.9-0.8-1.5-2.4C64.8,133.8,68.2,131.8,65.6,129.6z"/>
	<path class="st1" d="M65.8,129.6c0,0-4.2-1.8-8.3-6.2c0,0,1.3,15.4-0.2,24c0,0-2.6,11.7-5,15.6c0,0-2.1,5.2-2.2,5.6
		c0,0,7.1-7.2,9.1-10.2c0,0,3.9-5.5,5.6-9c0,0,2.8-5.9,3.2-7.6c0,0,1.1-3,0.5-4.8c0,0-0.3-0.9-1.5-1.2c0,0-2.8-0.9-0.8-2.4
		C66.1,133.5,67.8,131.6,65.8,129.6z"/>
	<path class="st0" d="M34.6,129.6c0,0-10.1,3.5-12.7,6.2c0,0-4.4,6.7-4.4,18.2l-0.1,9.1c0,0,14.7,7.5,32.6,6.7v-1.3
		c0,0-7.6-9.2-15.2-22.5c0,0-4.4-8.9-1-9.9c0,0,2.9-0.8,1.5-2.4C35.4,133.8,32,131.8,34.6,129.6z"/>
	<path class="st1" d="M34.4,129.6c0,0,4.2-1.8,8.3-6.2c0,0-1.3,15.4,0.2,24c0,0,2.6,11.7,5,15.6c0,0,2.1,5.2,2.2,5.6
		c0,0-7.1-7.2-9.1-10.2c0,0-3.9-5.5-5.6-9c0,0-2.8-5.9-3.2-7.6c0,0-1.1-3-0.5-4.8c0,0,0.2-0.9,1.5-1.2c0,0,2.8-0.9,0.8-2.4
		C34.1,133.5,32.4,131.6,34.4,129.6z"/>
	<polygon class="st1" points="68.4,152.4 65.1,156.3 71.9,156.3 	"/>
	<path class="st0" d="M38.4,107.3c0,0-0.5-7.4,3.7-9c0,0,3.9-1.1,7.6-0.3c0,0,5.2,2.2,7,3.5c0,0,3.4,1.5,4.8,1.1l0.8,3.4l0.3,0.5
		l0.3,0.3l-0.1-10c0,0-1.7-7.6-13-7.7c0,0-9.8-0.2-11.8,8.9C38.1,98,37.8,104.5,38.4,107.3z"/>
</g>
</svg>
