<?xml version="1.0" encoding="utf-8"?>
<!-- Generator: Adobe Illustrator 22.0.1, SVG Export Plug-In . SVG Version: 6.00 Build 0)  -->
<svg version="1.1" id="Layer_1" xmlns="http://www.w3.org/2000/svg" xmlns:xlink="http://www.w3.org/1999/xlink" x="0px" y="0px"
	 viewBox="0 0 200 200" style="enable-background:new 0 0 200 200;" xml:space="preserve">
<style type="text/css">
	.st0{fill:#40875E;}
	.st1{fill:#A8A240;}
	.st2{fill:#F0AB00;}
	.st3{fill:none;stroke:#000000;stroke-width:2;}
	.st4{fill:#F1AB1C;}
	.st5{fill:none;stroke:#000000;stroke-width:2;stroke-miterlimit:10;}
	.st6{fill:none;}
	.st7{fill:none;stroke:#EC1C24;stroke-width:0.25;}
	.st8{fill:#A69F3D;}
	.st9{fill:#EFAA1E;}
	.st10{fill-rule:evenodd;clip-rule:evenodd;fill:#F0AB00;}
	.st11{fill-rule:evenodd;clip-rule:evenodd;fill:#A69F3D;}
	.st12{fill:#A69F3D;stroke:#A69F3D;stroke-width:2;stroke-miterlimit:10;}
	.st13{fill:#EFAA1E;stroke:#EFAA1E;stroke-width:2;stroke-miterlimit:10;}
	.st14{fill:none;stroke:#A69F3D;stroke-width:2;stroke-miterlimit:10;}
</style>
<g>
	<path class="st1" d="M50.6,182.9c0,5-4.1,9.1-9.1,9.1H10.3c-5,0-9.1-4.1-9.1-9.1v-26.6c0-5.1,4.1-9.1,9.1-9.1h31.1
		c5,0,9.1,4.1,9.1,9.1V182.9z"/>
	<path class="st1" d="M119.4,182.9c0,5-4.1,9.1-9.1,9.1H79.1c-5,0-9.1-4.1-9.1-9.1v-26.6c0-5.1,4.1-9.1,9.1-9.1h31.2
		c5,0,9.1,4.1,9.1,9.1V182.9z"/>
	<path class="st0" d="M149.3,60.6c0,8.1-6.5,14.6-14.6,14.6H55.4c-8,0-14.6-6.5-14.6-14.6V22.6C40.9,14.5,47.4,8,55.4,8h79.4
		c8.1,0,14.6,6.5,14.6,14.6V60.6z M127.5,22.6H60.3v11.3h67.2V22.6z M127.5,46.1H60.3v11.3h67.2V46.1z"/>
	<path class="st1" d="M136.4,168.7v14.2c0,5,4.1,9.1,9.1,9.1h31.2c5,0,9.1-4.1,9.1-9.1v-10.2c-6.4,3.9-13.9,6.2-22,6.2
		C153.3,178.9,143.8,175,136.4,168.7z"/>
	<path class="st2" d="M137,104.2l-8.3-9.9v-0.1H62.7v0l0,0l-27.1,32.4l5.7,3.2l25.5-30.7h24.1v34H98v-34h26.7l7.8,9.4
		C133.9,107,135.4,105.6,137,104.2z"/>
	<path d="M162.2,171.7c-20.2,0-36.7-16.4-36.7-36.7s16.4-36.7,36.7-36.7s36.7,16.4,36.7,36.7S182.4,171.7,162.2,171.7z M162.2,100.6
		c-19,0-34.5,15.5-34.5,34.5s15.5,34.5,34.5,34.5s34.5-15.5,34.5-34.5S181.2,100.6,162.2,100.6z"/>
	<g>
		<path class="st0" d="M176.4,116.3c-0.9,0-2.1,0.1-3.6,0.3c-1.5,0.2-2.5,0.5-3.1,0.8c-0.6,0.3-1.5,1.1-2.8,2.5
			c-1.2,1.3-2.8,3.4-4.8,6.1c-1.9,2.7-3.6,5.4-5,7.9c-1.3,2.3-2.5,4.7-3.8,7.4c-0.9-1.1-1.8-2.1-2.8-2.7c-1.2-0.8-2.4-1.3-3.5-1.3
			c-1.1,0-2.3,0.5-3.6,1.5c-1.3,1-2,2.2-2,3.4c0,0.9,0.6,2,1.8,3.4c1.8,1.9,3.2,3.7,4.2,5.3c0.8,1.2,1.3,1.9,1.6,2.3
			c0.4,0.4,0.8,0.7,1.4,0.9c0.5,0.2,1.4,0.3,2.6,0.3c1.7,0,2.9-0.2,3.6-0.6c0.7-0.4,1.2-0.9,1.6-1.6c0.4-0.6,0.9-1.9,1.7-3.8
			c1.9-4.8,4.6-9.8,7.8-15c3.2-5.1,6.4-9.1,9.4-11.9c0.7-0.7,1.2-1.1,1.4-1.5c0.3-0.4,0.4-0.9,0.4-1.4c0-0.7-0.2-1.2-0.7-1.7
			C177.7,116.6,177.1,116.3,176.4,116.3z"/>
	</g>
</g>
</svg>
