<?xml version="1.0" encoding="utf-8"?>
<!-- Generator: Adobe Illustrator 22.0.1, SVG Export Plug-In . SVG Version: 6.00 Build 0)  -->
<svg version="1.1" id="Layer_1" xmlns="http://www.w3.org/2000/svg" xmlns:xlink="http://www.w3.org/1999/xlink" x="0px" y="0px"
	 viewBox="0 0 200 200" style="enable-background:new 0 0 200 200;" xml:space="preserve">
<style type="text/css">
	.st0{fill:#40875E;}
	.st1{fill:#A8A240;}
	.st2{fill:#F0AB00;}
	.st3{fill:none;stroke:#000000;stroke-width:2;}
	.st4{fill:#F1AB1C;}
	.st5{fill:none;stroke:#000000;stroke-width:2;stroke-miterlimit:10;}
	.st6{fill:none;}
	.st7{fill:none;stroke:#EC1C24;stroke-width:0.25;}
	.st8{fill:#A69F3D;}
	.st9{fill:#EFAA1E;}
	.st10{fill-rule:evenodd;clip-rule:evenodd;fill:#F0AB00;}
	.st11{fill-rule:evenodd;clip-rule:evenodd;fill:#A69F3D;}
	.st12{fill:#A69F3D;stroke:#A69F3D;stroke-width:2;stroke-miterlimit:10;}
	.st13{fill:#EFAA1E;stroke:#EFAA1E;stroke-width:2;stroke-miterlimit:10;}
	.st14{fill:none;stroke:#A69F3D;stroke-width:2;stroke-miterlimit:10;}
</style>
<path class="st8" d="M51,21.8V4.7L21.4,32.6h18.8C46.1,32.6,51,27.7,51,21.8z"/>
<path class="st9" d="M41.7,147.2c0,0,1.1-0.1,1.9-0.6c0.4-0.3,0.5-0.8,0.2-1.1c-0.7-1-1.6-2.6-1.6-2.6l-1.7,0.2L41.7,147.2z"/>
<path class="st9" d="M45.7,151.5c0.5,0.8,0.2,1.9-0.7,2.1l-3.1,1c-0.7,0.2-1.6,0.2-2.3-0.2c-0.8-0.4-1.4-1.2-1.5-2.1l-1.1-7.8
	c0-0.2,0.1-0.4,0.3-0.5l4-1.2c0.2-0.1,0.4,0.1,0.4,0.3l1.1,7.3l0.8-0.2c0.6-0.2,1.3,0,1.7,0.6L45.7,151.5 M40.2,143.3l-0.6,0.2
	l0.6,5c0.2,1.1,0,2.2,1,1.9l0,0L40.2,143.3z"/>
<rect x="55.8" y="133.6" transform="matrix(0.9549 -0.2968 0.2968 0.9549 -37.4032 22.6916)" class="st9" width="0.5" height="1.8"/>
<polygon class="st9" points="56.4,135.6 55.4,137 54.1,132.9 55.7,133.5 "/>
<path class="st9" d="M55.6,137.2l-3.4,1.1l-1.4-4.5l3.4-1.1L55.6,137.2z M54.4,133.1l-3.4,1.1l0.1,0.4l3.4-1.1L54.4,133.1z
	 M54.7,134.1l-3.4,1.1l0.1,0.4l3.4-1.1L54.7,134.1z M55,135.1l-3.4,1.1l0.1,0.4l3.4-1.1L55,135.1z M55.3,136.1l-3.4,1.1l0.1,0.4
	l3.4-1.1L55.3,136.1z"/>
<rect x="46.5" y="134.4" transform="matrix(0.9549 -0.2968 0.2968 0.9549 -38.5692 20.4644)" class="st9" width="3.2" height="5.8"/>
<polygon class="st9" points="53.8,138.1 50.2,140.5 47.9,132.9 52.1,132.9 "/>
<path class="st9" d="M49.2,140.9l-12.6,3.9c-1,0.3-2-0.2-2.3-1.2l-1.3-4.3c-0.3-1,0.2-2,1.2-2.3l12.6-3.9L49.2,140.9z M45.8,139.9
	c0.4-0.1,0.6-0.6,0.5-1l-0.3-1.1c-0.3-0.8-1.1-1.3-2-1l-5,1.6c-0.8,0.3-1.3,1.1-1,2l0.3,1.1c0.1,0.4,0.6,0.6,1,0.5L45.8,139.9"/>
<path class="st9" d="M60.6,133.4l-5.2,1.6l-0.2-0.7l5.2-1.6c0.2-0.1,0.4,0,0.5,0.2S60.8,133.4,60.6,133.4 M59.3,133.3
	c-0.1,0.1,0,0.2,0.1,0.3l0.2,0.1l0.6-0.2l-0.6-0.3C59.5,133.2,59.4,133.2,59.3,133.3 M60.5,133.1c0.1-0.1,0-0.2-0.1-0.3l0,0
	l-0.6,0.2l0.4,0.2C60.3,133.2,60.4,133.2,60.5,133.1"/>
<path class="st9" d="M52.6,144.6l-0.5-1.5l0,0c0.1,0,0.2-0.2,0.2-0.3l-0.4-1.4c0-0.1-0.2-0.2-0.3-0.2l0,0l-0.7-2.2l-1.9,0.6l1.8,5.9
	c0.3,0.8,1.1,1.3,1.9,1.2c0.1,0,0.1,0,0.2,0l0.3-0.1c0.4-0.1,0.6-0.5,0.5-0.9l-0.2-0.6C53.3,144.7,53,144.5,52.6,144.6z"/>
<path class="st10" d="M70.2,165.9l-10.1,0.3c-0.2,0-0.3-0.1-0.3-0.3l0-0.9c0-0.2,0.1-0.4,0.3-0.3l10.1-0.4c0.2,0,0.4,0.1,0.3,0.3
	l0,0.9C70.5,165.7,70.4,165.9,70.2,165.9L70.2,165.9z"/>
<path class="st11" d="M62.8,144.7c0,0.9,0.7,1.6,1.6,1.5c0.9,0,1.5-0.7,1.5-1.6c0-0.9-0.7-1.5-1.6-1.5
	C63.5,143.1,62.8,143.8,62.8,144.7L62.8,144.7z M66.2,142.1c0.4,0,0.6,0.2,0.6,0.6l0.1,3.8c0,0.4-0.2,0.6-0.6,0.6l-0.7,0l0.3,7.5
	l-2.4,0l-0.2-7.5l-0.7,0c-0.4,0-0.6-0.2-0.6-0.6l-0.2-3.8c0-0.3,0.3-0.6,0.6-0.6L66.2,142.1z"/>
<path class="st11" d="M64,158.8c0,0.5,0.4,0.9,0.9,0.9c0.5,0,0.9-0.4,0.9-0.9c0-0.5-0.4-0.9-0.9-0.9C64.3,157.9,64,158.3,64,158.8
	L64,158.8z M70.1,155l0.2,5.8c0,0.2-0.1,0.4-0.3,0.3l-10,0.4c-0.1,0-0.2,0-0.3-0.1c-0.1-0.1-0.1-0.1-0.1-0.2l-0.2-5.9L70.1,155z"/>
<path class="st10" d="M70.1,162c0.1,0,0.3,0.1,0.3,0.3l0,0.9c0,0.2-0.1,0.3-0.3,0.3L60,163.9c-0.2,0-0.3-0.2-0.3-0.3l0-0.9
	c0-0.2,0.1-0.4,0.3-0.3L70.1,162z"/>
<polygon class="st12" points="193.3,157.8 172.2,157.8 182.7,179.6 193.3,158.1 "/>
<rect x="171.4" y="28.1" class="st13" width="22.7" height="125.5"/>
<path class="st12" d="M194.1,24.5h-22.7V14c0-2.8,2.2-5,5-5h12.7c2.8,0,5,2.2,5,5V24.5z"/>
<rect x="39.2" y="86.4" class="st6" width="102.2" height="8.9"/>
<rect x="39.2" y="59.9" class="st6" width="102.2" height="8.9"/>
<path class="st0" d="M153.1,0.7h-96v21.1c0,9.3-7.6,16.9-16.9,16.9H16.8v85.9c0.3,0.1,0.6,0.2,0.9,0.4l2.7,1.5
	c0.6-0.6,1.2-1.2,1.8-1.8l-1.5-2.7c-1.9-3.2-0.7-7.3,2.5-9.2l4.9-2.8c3.2-1.9,7.3-0.7,9.2,2.5l1.5,2.7c0.8-0.2,1.7-0.5,2.5-0.7v-3.1
	c0-3.7,3-6.7,6.7-6.7h5.6c3.7,0,6.7,3,6.7,6.7v3.1c0.8,0.2,1.7,0.4,2.5,0.7l1.5-2.7c0.9-1.6,2.4-2.7,4.1-3.1
	c1.7-0.5,3.6-0.2,5.1,0.7l4.9,2.8c3.2,1.9,4.3,6,2.5,9.2l-1.5,2.7c0.6,0.6,1.2,1.2,1.8,1.8l2.7-1.5c1.6-0.9,3.4-1.1,5.1-0.7
	c1.7,0.5,3.2,1.6,4.1,3.1l2.8,4.9c0.9,1.6,1.1,3.4,0.7,5.1c-0.5,1.7-1.6,3.2-3.1,4.1l-2.7,1.5c0.2,0.8,0.5,1.6,0.7,2.5h3.1
	c3.7,0,6.7,3,6.7,6.7v5.6c0,3.7-3,6.7-6.7,6.7h-3.1c-0.2,0.8-0.4,1.7-0.7,2.5l2.7,1.5c1.6,0.9,2.7,2.4,3.1,4.1
	c0.5,1.7,0.2,3.6-0.7,5.1l-1.9,3.3h59.3c5.9,0,10.8-4.8,10.8-10.8v-159C163.9,5.5,159.1,0.7,153.1,0.7z M141.4,95.3H39.2v-8.9h102.2
	V95.3z M141.4,68.8H39.2v-8.9h102.2V68.8z"/>
<path class="st5" d="M95,149.4h-5.8c-0.8,0-1.5-0.6-1.7-1.5c-0.4-2.4-1-4.7-1.9-7c-0.3-0.8,0-1.7,0.8-2.1l5-2.9
	c0.8-0.5,1.1-1.5,0.6-2.4l-2.8-4.9c-0.5-0.8-1.5-1.1-2.4-0.6l-5,2.9c-0.7,0.4-1.7,0.3-2.2-0.4c-1.5-1.9-3.2-3.6-5.1-5.1
	c-0.7-0.5-0.8-1.5-0.4-2.2l2.9-5c0.5-0.8,0.2-1.9-0.6-2.4l-4.9-2.8c-0.8-0.5-1.9-0.2-2.4,0.6l-2.9,5c-0.4,0.7-1.3,1.1-2.1,0.8
	c-2.2-0.8-4.6-1.5-7-1.9c-0.8-0.1-1.5-0.8-1.5-1.7v-5.8c0-1-0.8-1.7-1.7-1.7h-5.6c-1,0-1.7,0.8-1.7,1.7v5.8c0,0.8-0.6,1.5-1.5,1.7
	c-2.4,0.4-4.7,1-7,1.9c-0.8,0.3-1.7,0-2.1-0.8l-2.9-5c-0.5-0.8-1.5-1.1-2.4-0.6l-4.9,2.8c-0.8,0.5-1.1,1.5-0.6,2.4l2.9,5
	c0.4,0.7,0.3,1.7-0.4,2.2c-1.9,1.5-3.6,3.2-5.1,5.1c-0.5,0.7-1.5,0.8-2.2,0.4l-5-2.9c-0.8-0.5-1.9-0.2-2.4,0.6l-2.8,4.9
	c-0.5,0.8-0.2,1.9,0.6,2.4l5,2.9c0.7,0.4,1.1,1.3,0.8,2.1c-0.8,2.2-1.5,4.6-1.9,7c-0.1,0.8-0.8,1.5-1.7,1.5H7.6
	c-1,0-1.7,0.8-1.7,1.7v5.6c0,1,0.8,1.7,1.7,1.7h5.8c0.8,0,1.5,0.6,1.7,1.5c0.4,2.4,1,4.7,1.9,7c0.3,0.8,0,1.7-0.8,2.1l-5,2.9
	c-0.8,0.5-1.1,1.5-0.6,2.4l2.8,4.9c0.5,0.8,1.5,1.1,2.4,0.6l5-2.9c0.7-0.4,1.7-0.3,2.2,0.4c1.5,1.9,3.2,3.6,5.1,5.1
	c0.7,0.5,0.8,1.5,0.4,2.2l-2.9,5c-0.5,0.8-0.2,1.9,0.6,2.4l4.9,2.8c0.8,0.5,1.9,0.2,2.4-0.6l2.9-5c0.4-0.7,1.3-1.1,2.1-0.8
	c2.2,0.8,4.6,1.5,7,1.9c0.8,0.1,1.5,0.8,1.5,1.7v5.8c0,1,0.8,1.7,1.7,1.7h5.6c1,0,1.7-0.8,1.7-1.7v-5.8c0-0.8,0.6-1.5,1.5-1.7
	c2.4-0.4,4.7-1,7-1.9c0.8-0.3,1.7,0,2.1,0.8l2.9,5c0.5,0.8,1.5,1.1,2.4,0.6l4.9-2.8c0.8-0.5,1.1-1.5,0.6-2.4l-2.9-5
	c-0.4-0.7-0.3-1.7,0.4-2.2c1.9-1.5,3.6-3.2,5.1-5.1c0.5-0.7,1.5-0.8,2.2-0.4l5,2.9c0.8,0.5,1.9,0.2,2.4-0.6l2.8-4.9
	c0.5-0.8,0.2-1.9-0.6-2.4l-5-2.9c-0.7-0.4-1.1-1.3-0.8-2.1c0.8-2.2,1.5-4.6,1.9-7c0.1-0.8,0.8-1.5,1.7-1.5H95c1,0,1.7-0.8,1.7-1.7
	v-5.6C96.7,150.2,95.9,149.4,95,149.4z M51.3,179.9c-14.3,0-26-11.6-26-26c0-14.3,11.6-26,26-26s26,11.6,26,26
	C77.2,168.3,65.6,179.9,51.3,179.9z"/>
<path class="st1" d="M58.3,157.7l-1.3,0.7c-0.5,0.3-0.7,0.3-1.1,0c-0.4-0.3-0.6-0.8-0.7-1.2c-0.1-0.5,0.1-0.7,0.5-0.8l1.5-0.7
	c-0.1-0.1-0.2-0.2-0.3-0.2c-0.8-0.1-2.3,0.1-2.9,0.9c-0.7,0.8-0.6,2.4-1.9,3.7l-10.7,10.3c-0.5,0.4-1.1,0.8-1.8,1.2
	c0.5,0,1,0.1,1.4,0.5c0.4,0.4,0.5,0.9,0.5,1.4c0.4-0.7,0.8-1.3,1.3-1.8l10.7-10.3c0.8-0.7,1.5-1.1,2.5-1.2c0,0-0.1,0-0.1,0
	c0.3,0,0.5,0,0.8-0.1c0.9-0.3,1.7-1.3,1.9-2C58.4,158,58.4,157.9,58.3,157.7L58.3,157.7z M40.9,172.2c-0.7-0.7-1.8-0.7-2.5,0
	c-0.7,0.7-0.7,1.8,0,2.5c0.7,0.7,1.8,0.7,2.5,0C41.5,174,41.5,172.9,40.9,172.2L40.9,172.2z M40.3,174.6L40.3,174.6
	c-0.2-0.2-0.6-0.1-0.7,0.2c-0.1-0.3-0.5-0.3-0.7-0.2c0-0.3-0.2-0.5-0.5-0.5c0.2-0.2,0.1-0.6-0.2-0.7c0.3-0.1,0.4-0.5,0.2-0.7
	c0.3,0,0.5-0.2,0.5-0.5c0.2,0.2,0.6,0.1,0.7-0.2c0.1,0.3,0.5,0.3,0.7,0.2c0,0.3,0.2,0.5,0.5,0.5c-0.2,0.2-0.1,0.6,0.2,0.7
	c-0.2,0.1-0.3,0.5-0.2,0.7C40.5,174.1,40.2,174.3,40.3,174.6L40.3,174.6z M42,171.9L42,171.9l-0.8-0.8l0.7-0.6l0.8,0.8L42,171.9z"/>
<path class="st0" d="M47.8,155.7c-0.1-0.1-0.4-0.1-0.5-0.1c-0.2,0-1.2-0.2-1.9-0.2c-0.8,0-1.1,0-1.8,0.2c-0.7,0.2-1.4,0.5-2,1
	c-0.4,0.3-1.3,1.2-1.5,1.4c-0.2,0.2-0.2,0.5-0.3,0.7c-0.1,0.2-0.2,0.5-0.4,0.7c-0.1,0.1-0.4,0.4-0.5,0.4c-0.1,0-0.3,0.1-0.5,0.2
	c0,0-0.1,0.1-0.1,0.1l1.4,1.5c0.1-0.1,0.2-0.2,0.3-0.3c0.1-0.1,0.1-0.2,0.1-0.3c0-0.1,0.1-0.3,0.3-0.5c0.2-0.2,0.3-0.4,0.5-0.6
	c0.2-0.2,0.4-0.4,0.6-0.3c0.2,0.1,0.3,0.1,0.5,0.3c0.2,0.2,0.5,0.4,0.6,0.5c0.1,0.1,0.2,0,0.2,0s0.3,0.4,0.6,0.6
	c0.2,0.2,1,0.9,1.3,1.2c0.3,0.3,0.8,0.7,1.1,1.1c0.3,0.3,1.8,2,2.1,2.5c0,0-0.1,0.1,0,0.2c0.1,0.1,0.4,0.4,0.5,0.6
	c0.2,0.2,0.9,1.1,1.2,1.4c0.3,0.3,1.1,1.2,1.4,1.5c0.4,0.4,1.9,1.9,2.1,2.1c0.2,0.2,1.1,1.3,1.4,1.6c0.3,0.3,1.4,1.7,1.5,1.9
	c0.1,0.2,0.2,0.2,0.4,0.2c0.2,0,0.3-0.2,0.5-0.3c0.1-0.1,0.3-0.2,0.6-0.5c0.3-0.3,0.5-0.5,0.6-0.7c0.1-0.1,0.1-0.3,0.1-0.4
	c0-0.1,0-0.2-0.1-0.3c-0.1-0.1-1.6-1.4-1.8-1.6c-0.2-0.2-1.2-1.1-1.6-1.5c-0.4-0.5-1.6-1.8-1.9-2.2c-0.3-0.4-1.1-1.2-1.4-1.5
	c-0.4-0.4-1.2-1.1-1.4-1.3c-0.2-0.2-0.4-0.4-0.6-0.5c-0.1-0.1-0.2,0-0.2,0s-2-2-2.3-2.2c-0.2-0.3-0.8-0.8-1.1-1.2
	c-0.3-0.3-0.8-1.1-1-1.3c-0.2-0.2-0.5-0.5-0.6-0.7c0,0,0.1-0.1,0-0.3c-0.1-0.1-0.5-0.6-0.6-0.9c-0.2-0.3-0.3-0.6,0-0.9
	c0.2-0.2,0.7-0.3,0.9-0.4c0.2-0.1,0.6-0.2,1.1-0.2c0.6-0.1,1.4-0.1,1.5-0.1c0.2,0,0.4-0.1,0.5-0.1C47.9,155.8,48,155.8,47.8,155.7
	L47.8,155.7z M38.2,160.2c-0.1,0.1-0.3,0.3-0.3,0.4c-0.1,0.1,0,0.4,0.1,0.5c0.1,0.1,0.3,0.3,0.5,0.5c0.2,0.2,0.6,0.4,0.7,0.4
	c0.1,0,0.2,0,0.3,0c0,0,0.1-0.1,0.2-0.2L38.2,160.2z M56.4,174.3l-3.5-3.8l1.2-1.1l3.5,3.8L56.4,174.3z"/>
</svg>
