<?xml version="1.0" encoding="utf-8"?>
<!-- Generator: Adobe Illustrator 22.0.1, SVG Export Plug-In . SVG Version: 6.00 Build 0)  -->
<svg version="1.1" id="Layer_1" xmlns="http://www.w3.org/2000/svg" xmlns:xlink="http://www.w3.org/1999/xlink" x="0px" y="0px"
	 viewBox="0 0 200 200" style="enable-background:new 0 0 200 200;" xml:space="preserve">
<style type="text/css">
	.st0{fill:#40875E;}
	.st1{fill:#A8A240;}
	.st2{fill:#F0AB00;}
	.st3{fill:none;stroke:#000000;stroke-width:2;}
	.st4{fill:#F1AB1C;}
	.st5{fill:none;stroke:#000000;stroke-width:2;stroke-miterlimit:10;}
	.st6{fill:none;}
	.st7{fill:none;stroke:#EC1C24;stroke-width:0.25;}
	.st8{fill:#A69F3D;}
	.st9{fill:#EFAA1E;}
	.st10{fill-rule:evenodd;clip-rule:evenodd;fill:#F0AB00;}
	.st11{fill-rule:evenodd;clip-rule:evenodd;fill:#A69F3D;}
	.st12{fill:#A69F3D;stroke:#A69F3D;stroke-width:2;stroke-miterlimit:10;}
	.st13{fill:#EFAA1E;stroke:#EFAA1E;stroke-width:2;stroke-miterlimit:10;}
	.st14{fill:none;stroke:#A69F3D;stroke-width:2;stroke-miterlimit:10;}
</style>
<g>
	<path class="st2" d="M197.4,114.7l-4.5,0c-0.5,0-1-0.4-1.1-0.9c-0.5-1.6-1.1-3.2-1.9-4.7c-0.3-0.5-0.2-1.1,0.2-1.4l3.2-3.2
		c0.5-0.5,0.5-1.2,0-1.7l-5.6-5.6c-0.5-0.5-1.2-0.5-1.7,0l-3.2,3.2c-0.4,0.4-1,0.4-1.4,0.2c-1.5-0.8-3.1-1.5-4.7-1.9
		c-0.5-0.1-0.9-0.6-0.9-1.1l0-4.5c0-0.7-0.5-1.2-1.2-1.2h-7.9c-0.7,0-1.2,0.5-1.2,1.2l0,4.5c0,0.5-0.4,1-0.9,1.1
		c-0.9,0.3-1.8,0.6-2.7,0.9v12.7c0.2-0.2,0.4-0.4,0.6-0.6c4.5-4.5,11.7-4.5,16.2,0c4.5,4.5,4.5,11.7,0,16.2
		c-4.5,4.5-11.7,4.5-16.2,0c-0.2-0.2-0.4-0.4-0.6-0.6V140c0.9,0.4,1.8,0.7,2.7,0.9c0.5,0.1,0.9,0.6,0.9,1.1l0,4.5
		c0,0.7,0.5,1.2,1.2,1.2l7.9,0c0.7,0,1.2-0.5,1.2-1.2l0-4.6c0-0.5,0.4-1,0.9-1.1c1.6-0.5,3.2-1.1,4.7-1.9c0.5-0.3,1.1-0.2,1.4,0.2
		l3.2,3.2c0.5,0.5,1.2,0.5,1.7,0l5.6-5.6c0.5-0.5,0.5-1.2,0-1.7l-3.2-3.2c-0.4-0.4-0.4-1-0.2-1.4c0.8-1.5,1.5-3.1,1.9-4.7
		c0.1-0.5,0.6-0.9,1.1-0.9l4.5,0c0.7,0,1.2-0.5,1.2-1.2l0-7.9C198.6,115.2,198.1,114.7,197.4,114.7z"/>
	<path class="st5" d="M145.2,95.4c0.3-0.8,0.6-1.7,0.8-2.5c0.2-0.7,0.8-1.2,1.5-1.2l6,0c0.9,0,1.6-0.7,1.6-1.6l0-10.4
		c0-0.9-0.7-1.6-1.6-1.6l-6,0c-0.7,0-1.3-0.5-1.5-1.2c-0.6-2.1-1.5-4.2-2.6-6.2c-0.3-0.6-0.3-1.4,0.2-1.9l4.2-4.2
		c0.6-0.6,0.6-1.6,0-2.2l-7.3-7.3c-0.6-0.6-1.6-0.6-2.2,0l-4.2,4.2c-0.5,0.5-1.3,0.6-1.9,0.2c-2-1.1-4.1-2-6.2-2.6
		c-0.7-0.2-1.2-0.8-1.2-1.5l0-6c0-0.9-0.7-1.6-1.6-1.6l-10.4,0c-0.9,0-1.6,0.7-1.6,1.6l0,6c0,0.7-0.5,1.3-1.2,1.5
		c-2.1,0.6-4.2,1.5-6.2,2.6c-0.6,0.3-1.4,0.3-1.9-0.2l-4.2-4.2c-0.6-0.6-1.6-0.6-2.2,0l-4.6,4.6 M107.6,95.6
		c-5.9-5.9-5.9-15.4,0-21.3c5.9-5.9,15.4-5.9,21.3,0 M128.9,74.3c5.9,5.9,5.9,15.4,0,21.3"/>
	<path class="st1" d="M94.1,90.6v88.7h75.8V90.6H94.1z M127.5,167.4h-23v-17.2h23V167.4z M127.5,141.9h-23v-17.2h23V141.9z
		 M159.5,141.9h-23v-17.2h23V141.9z M159.5,116.4h-55V99.2h55V116.4z"/>
	<path class="st6" d="M164.9,126.3v-15C161.2,115.6,161.2,122,164.9,126.3z"/>
	<path class="st6" d="M165.5,126.9c4.5,4.5,11.7,4.5,16.2,0c4.5-4.5,4.5-11.7,0-16.2c-4.5-4.5-11.7-4.5-16.2,0
		c-0.2,0.2-0.4,0.4-0.6,0.6v15C165.1,126.5,165.3,126.7,165.5,126.9z"/>
	<path class="st0" d="M1.4,20.7v158.6h28v-31.6h38.8v31.6h26.6V20.7H1.4z M25.8,129H12.9v-17.8h12.9V129z M25.8,103H12.9V85.2h12.9
		V103z M25.8,76.9H12.9V59.1h12.9V76.9z M25.8,49.9H12.9V32.1h12.9V49.9z M41.6,32.1h12.9v17.8H41.6V32.1z M54.6,129H41.6v-17.8
		h12.9V129z M54.6,103H41.6V85.2h12.9V103z M54.6,76.9H41.6V59.1h12.9V76.9z M70.2,32.1h12.9v17.8H70.2V32.1z M83.3,129H70.4v-17.8
		h12.9V129z M83.3,103H70.4V85.2h12.9V103z M83.3,76.9H70.4V59.1h12.9V76.9z"/>
	<path class="st0" d="M194.1,64.6h-3.2c-0.4,0-0.7-0.3-0.8-0.6c-0.3-1.2-0.8-2.3-1.4-3.4c-0.2-0.3-0.1-0.8,0.1-1l2.3-2.3
		c0.3-0.3,0.3-0.9,0-1.2l-4-4c-0.3-0.3-0.9-0.3-1.2,0l-2.3,2.3c-0.3,0.3-0.7,0.3-1,0.1c-1-0.6-2.2-1.1-3.4-1.4
		c-0.4-0.1-0.6-0.4-0.6-0.8V49c0-0.5-0.4-0.8-0.8-0.8h-5.6c-0.5,0-0.8,0.4-0.8,0.8v3.2c0,0.4-0.3,0.7-0.6,0.8
		c-1.2,0.3-2.3,0.8-3.4,1.4c-0.3,0.2-0.8,0.1-1-0.1l-2.3-2.3c-0.3-0.3-0.9-0.3-1.2,0l-4,4c-0.3,0.3-0.3,0.9,0,1.2l2.3,2.3
		c0.3,0.3,0.3,0.7,0.1,1c-0.6,1.1-1.1,2.2-1.4,3.4c-0.1,0.4-0.4,0.6-0.8,0.6h-3.3c-0.5,0-0.8,0.4-0.8,0.8V71c0,0.5,0.4,0.8,0.8,0.8
		h3.3c0.4,0,0.7,0.3,0.8,0.6c0.3,1.2,0.8,2.3,1.4,3.4c0.2,0.3,0.1,0.8-0.1,1l-2.3,2.3c-0.3,0.3-0.3,0.9,0,1.2l4,4
		c0.3,0.3,0.9,0.3,1.2,0l2.3-2.3c0.3-0.3,0.7-0.3,1-0.1c1.1,0.6,2.2,1.1,3.4,1.4c0.4,0.1,0.6,0.4,0.6,0.8v3.2c0,0.5,0.4,0.8,0.8,0.8
		h5.6c0.5,0,0.8-0.4,0.8-0.8v-3.2c0-0.4,0.3-0.7,0.6-0.8c1.2-0.3,2.3-0.8,3.4-1.4c0.3-0.2,0.8-0.1,1,0.1l2.3,2.3
		c0.3,0.3,0.9,0.3,1.2,0l4-4c0.3-0.3,0.3-0.9,0-1.2l-2.3-2.3c-0.3-0.3-0.3-0.7-0.1-1c0.6-1.1,1.1-2.2,1.4-3.4
		c0.1-0.4,0.4-0.6,0.8-0.6h3.2c0.5,0,0.8-0.4,0.8-0.8v-5.6C195,64.9,194.6,64.6,194.1,64.6 M174.9,76.4c-4.5,0-8.2-3.7-8.2-8.2
		c0-4.5,3.7-8.2,8.2-8.2c4.5,0,8.2,3.7,8.2,8.2C183.1,72.8,179.5,76.4,174.9,76.4"/>
</g>
</svg>
