<?xml version="1.0" encoding="utf-8"?>
<!-- Generator: Adobe Illustrator 22.0.1, SVG Export Plug-In . SVG Version: 6.00 Build 0)  -->
<svg version="1.1" id="Layer_1" xmlns="http://www.w3.org/2000/svg" xmlns:xlink="http://www.w3.org/1999/xlink" x="0px" y="0px"
	 viewBox="0 0 200 200" style="enable-background:new 0 0 200 200;" xml:space="preserve">
<style type="text/css">
	.st0{fill:#40875E;}
	.st1{fill:#A8A240;}
	.st2{fill:#F0AB00;}
	.st3{fill:none;stroke:#000000;stroke-width:2;}
	.st4{fill:#F1AB1C;}
	.st5{fill:none;stroke:#000000;stroke-width:2;stroke-miterlimit:10;}
	.st6{fill:none;}
	.st7{fill:none;stroke:#EC1C24;stroke-width:0.25;}
	.st8{fill:#A69F3D;}
	.st9{fill:#EFAA1E;}
	.st10{fill-rule:evenodd;clip-rule:evenodd;fill:#F0AB00;}
	.st11{fill-rule:evenodd;clip-rule:evenodd;fill:#A69F3D;}
	.st12{fill:#A69F3D;stroke:#A69F3D;stroke-width:2;stroke-miterlimit:10;}
	.st13{fill:#EFAA1E;stroke:#EFAA1E;stroke-width:2;stroke-miterlimit:10;}
	.st14{fill:none;stroke:#A69F3D;stroke-width:2;stroke-miterlimit:10;}
	.st15{font-family:'Nunito-Regular';}
	.st16{font-size:8px;}
</style>
<path class="st0" d="M78.1,148.5c-23.3,0-42.2-18.9-42.2-42.2c0-23.3,18.9-42.2,42.2-42.2c12.2,0,23.2,5.2,30.9,13.5h33.5l0.8-0.4
	c1.3-0.8,1.8-2.5,1-3.8l-4.6-7.9c-0.8-1.3-2.5-1.8-3.8-1l-8.1,4.7c-1.2,0.7-2.7,0.4-3.6-0.6c-2.5-3-5.3-5.8-8.3-8.3
	c-1.1-0.9-1.3-2.4-0.6-3.6l4.7-8.1c0.8-1.3,0.3-3.1-1-3.8l-7.9-4.6c-1.3-0.8-3.1-0.3-3.8,1l-4.7,8.1c-0.7,1.2-2.1,1.7-3.4,1.2
	c-3.6-1.4-7.4-2.4-11.3-3c-1.4-0.2-2.4-1.4-2.4-2.7v-9.4c0-1.6-1.3-2.8-2.8-2.8h-9.1c-1.6,0-2.8,1.3-2.8,2.8v9.4
	c0,1.4-1,2.5-2.4,2.7c-3.9,0.6-7.7,1.7-11.3,3c-1.3,0.5-2.7-0.1-3.4-1.2L49,41.2c-0.8-1.3-2.5-1.8-3.8-1l-7.9,4.6
	c-1.3,0.8-1.8,2.5-1,3.8l4.7,8.1c0.7,1.2,0.4,2.7-0.6,3.6c-3,2.5-5.8,5.3-8.3,8.3c-0.9,1.1-2.4,1.3-3.6,0.6l-8.1-4.7
	c-1.3-0.8-3.1-0.3-3.8,1l-4.6,7.9c-0.8,1.3-0.3,3.1,1,3.8l8.1,4.7c1.2,0.7,1.7,2.1,1.2,3.4c-1.4,3.6-2.4,7.4-3,11.3
	c-0.2,1.4-1.4,2.4-2.7,2.4H7.1c-1.6,0-2.8,1.3-2.8,2.8v9.1c0,1.6,1.3,2.8,2.8,2.8h9.4c1.4,0,2.5,1,2.7,2.4c0.6,3.9,1.7,7.7,3,11.3
	c0.5,1.3-0.1,2.7-1.2,3.4l-8.1,4.7c-1.3,0.8-1.8,2.5-1,3.8l4.6,7.9c0.8,1.3,2.5,1.8,3.8,1l8.1-4.7c1.2-0.7,2.7-0.4,3.6,0.6
	c2.5,3,5.3,5.8,8.3,8.3c1.1,0.9,1.3,2.4,0.6,3.6l-4.7,8.1c-0.8,1.3-0.3,3.1,1,3.8l7.9,4.6c1.3,0.8,3.1,0.3,3.8-1l4.7-8.1
	c0.7-1.2,2.1-1.7,3.4-1.2c3.6,1.4,7.4,2.4,11.3,3c1.4,0.2,2.4,1.4,2.4,2.7v9.4c0,1.6,1.3,2.8,2.8,2.8h9.1c1.6,0,2.8-1.3,2.8-2.8
	v-9.4c0-1.4,1-2.5,2.4-2.7c3.9-0.6,7.7-1.7,11.3-3c1.3-0.5,2.7,0.1,3.4,1.2l4.7,8.1c0.8,1.3,2.5,1.8,3.8,1l7.9-4.6
	c1.3-0.8,1.8-2.5,1-3.8l-4.7-8.1c-0.7-1.2-0.4-2.7,0.6-3.6c3-2.5,5.8-5.3,8.3-8.3c0.9-1.1,2.4-1.3,3.6-0.6l8.1,4.7
	c1.3,0.8,3.1,0.3,3.8-1l4.6-7.9c0.8-1.3,0.3-3.1-1-3.8l-2.4-1.4h-30.9C102.1,142.9,90.8,148.5,78.1,148.5z"/>
<polyline class="st5" points="112.5,83.3 158.5,83.3 158.5,45.8 "/>
<polyline class="st5" points="112.5,128.7 158.5,128.7 158.5,170.2 "/>
<polyline class="st5" points="116.2,95 166.2,95 187.2,72 "/>
<polyline class="st5" points="116.2,118 166.2,118 187.2,141 "/>
<line class="st5" x1="120.5" y1="106.5" x2="190.5" y2="106.5"/>
<circle class="st9" cx="158.5" cy="47" r="5"/>
<circle class="st9" cx="158.5" cy="168" r="5"/>
<circle class="st9" cx="186.5" cy="140" r="5"/>
<circle class="st9" cx="186.5" cy="105.5" r="5"/>
<circle class="st9" cx="186.5" cy="73" r="5"/>
<text transform="matrix(1 0 0 1 114.1053 92.333)" class="st15 st16">101001010</text>
<text transform="matrix(1 0 0 1 114.1053 126.333)" class="st15 st16">101001010</text>
<text transform="matrix(1 0 0 1 119.6053 104.333)" class="st15 st16">101001011</text>
<text transform="matrix(1 0 0 1 119.6053 115.833)" class="st15 st16">101001011</text>
<path class="st0" d="M77.4,77.2c-14,0-25.4,3.9-25.4,8.7V93c0,4.8,11.4,8.7,25.4,8.7c14,0,25.4-3.9,25.4-8.7v-7.1
	C102.8,81.1,91.5,77.2,77.4,77.2L77.4,77.2z"/>
<path class="st8" d="M77.5,105.9c-13.4,0-24.4-3.6-25.4-8.1c0,0.2,0,11.8,0,11.8c0,4.8,11.4,8.7,25.4,8.7c14,0,25.4-3.9,25.4-8.7
	c0,0,0-11.6,0-11.8C101.9,102.3,90.8,105.9,77.5,105.9L77.5,105.9z"/>
<path class="st9" d="M102.8,114.6c-1,4.5-12,8.1-25.4,8.1c-13.4,0-24.4-3.6-25.4-8.1v11.8c0,4.8,11.4,8.7,25.4,8.7
	c14,0,25.4-3.9,25.4-8.7L102.8,114.6z"/>
</svg>
