<?xml version="1.0" encoding="utf-8"?>
<!-- Generator: Adobe Illustrator 22.0.1, SVG Export Plug-In . SVG Version: 6.00 Build 0)  -->
<svg version="1.1" id="Layer_1" xmlns="http://www.w3.org/2000/svg" xmlns:xlink="http://www.w3.org/1999/xlink" x="0px" y="0px"
	 viewBox="0 0 200 200" style="enable-background:new 0 0 200 200;" xml:space="preserve">
<style type="text/css">
	.st0{fill:#40875E;}
	.st1{fill:#A8A240;}
	.st2{fill:#F0AB00;}
	.st3{fill:none;stroke:#000000;stroke-width:2;}
	.st4{fill:#F1AB1C;}
	.st5{fill:none;stroke:#000000;stroke-width:2;stroke-miterlimit:10;}
	.st6{fill:none;}
	.st7{fill:none;stroke:#EC1C24;stroke-width:0.25;}
	.st8{fill:#A69F3D;}
	.st9{fill:#EFAA1E;}
	.st10{fill-rule:evenodd;clip-rule:evenodd;fill:#F0AB00;}
	.st11{fill-rule:evenodd;clip-rule:evenodd;fill:#A69F3D;}
	.st12{fill:#A69F3D;stroke:#A69F3D;stroke-width:2;stroke-miterlimit:10;}
	.st13{fill:#EFAA1E;stroke:#EFAA1E;stroke-width:2;stroke-miterlimit:10;}
	.st14{fill:none;stroke:#A69F3D;stroke-width:2;stroke-miterlimit:10;}
</style>
<g>
	<path class="st0" d="M78.1,1.4c-30.7,0-55.5,9.8-55.5,22v32.1c0,12.1,24.8,21.9,55.5,21.9c30.6,0,55.4-9.8,55.4-21.9V23.4
		C133.6,11.2,108.8,1.4,78.1,1.4z M78.1,47.6c-24.5,0-44.4-7.8-44.4-17.5c0-9.7,19.9-17.5,44.4-17.5c24.5,0,44.3,7.8,44.3,17.5
		C122.5,39.8,102.6,47.6,78.1,47.6z"/>
	<path d="M177.4,196.5l-37.5-37.9c6.8-7.1,11-16.8,11-27.4c0-21.9-17.8-39.8-39.8-39.8c-21.9,0-39.8,17.8-39.8,39.8
		c0,21.9,17.8,39.8,39.8,39.8c10.3,0,19.6-3.9,26.7-10.3l37.5,37.9L177.4,196.5z M74.2,131.2c0-20.3,16.5-36.8,36.8-36.8
		c20.3,0,36.8,16.5,36.8,36.8c0,20.3-16.5,36.8-36.8,36.8C90.7,168,74.2,151.5,74.2,131.2z"/>
	<path class="st2" d="M66.3,131.4c-14-1.3-23.4-4.2-23.4-4.2c-11.3-3.7-18.9-9.2-20-15.3c-0.1,0.5-0.2,1-0.2,1.6v32.1
		c0,12.1,24.8,21.9,55.5,21.9c2.4,0,4.7-0.1,7-0.2C73.8,159.4,66.4,146.3,66.3,131.4z"/>
	<path class="st1" d="M110.7,86.5c8.4,0,16.2,2.3,22.9,6.3V68.1c0-0.5-0.1-1-0.2-1.6c-2,11.4-26,20.4-55.3,20.4
		c-29.3,0-53.2-9-55.3-20.4c-0.1,0.5-0.2,1-0.2,1.6v32.2c0,6.9,8,13.1,20.6,17.1c0,0,9.5,3,24,4.2C71.6,101.5,89.4,86.5,110.7,86.5z
		"/>
	<rect x="110.4" y="142.7" class="st2" width="7.4" height="8"/>
	<rect x="119.9" y="134.4" class="st8" width="7.4" height="16.3"/>
	<rect x="129.4" y="126.9" class="st0" width="7.2" height="23.8"/>
	<path class="st0" d="M134.1,106.2c-1.3,0-2.4,1.1-2.4,2.4c0,0.5,0.2,1,0.4,1.4l-12.6,12.2c-0.4-0.4-1-0.6-1.6-0.6
		c-0.5,0-1,0.2-1.4,0.4l-1.3-1.3c0.2-0.4,0.4-0.8,0.4-1.3c0-1.3-1.1-2.4-2.4-2.4s-2.4,1.1-2.4,2.4c0,0.5,0.1,0.9,0.4,1.3l-12.9,11.7
		c-0.4-0.2-0.8-0.4-1.2-0.4c-1.3,0-2.4,1.1-2.4,2.4c0,1.3,1.1,2.4,2.4,2.4s2.4-1.1,2.4-2.4c0-0.5-0.1-0.9-0.4-1.3l12.9-11.7
		c0.4,0.2,0.8,0.4,1.3,0.4c0.5,0,0.9-0.1,1.3-0.4l1.3,1.3c-0.2,0.4-0.3,0.8-0.3,1.2c0,1.3,1.1,2.4,2.4,2.4c1.3,0,2.4-1.1,2.4-2.4
		c0-0.3-0.1-0.6-0.2-0.9l0,0l12.8-12.4c0.3,0.2,0.7,0.3,1.2,0.3c1.3,0,2.4-1.1,2.4-2.4S135.5,106.2,134.1,106.2z M96.9,135.8
		c-0.7,0-1.3-0.6-1.3-1.3c0-0.7,0.6-1.3,1.3-1.3s1.3,0.6,1.3,1.3C98.3,135.2,97.7,135.8,96.9,135.8z M111.8,119.4
		c0-0.7,0.6-1.3,1.3-1.3c0.7,0,1.3,0.6,1.3,1.3c0,0.7-0.6,1.3-1.3,1.3C112.4,120.7,111.8,120.1,111.8,119.4z M117.9,125.3
		c-0.7,0-1.3-0.6-1.3-1.3c0-0.7,0.6-1.3,1.3-1.3c0.7,0,1.3,0.6,1.3,1.3C119.2,124.7,118.6,125.3,117.9,125.3z M134.1,110
		c-0.7,0-1.3-0.6-1.3-1.3s0.6-1.3,1.3-1.3c0.7,0,1.3,0.6,1.3,1.3S134.9,110,134.1,110z"/>
	<rect x="82" y="142.1" class="st9" width="4" height="4"/>
	<rect x="87.9" y="142.7" class="st9" width="17.5" height="0.8"/>
	<rect x="87.9" y="144.6" class="st9" width="17.5" height="0.8"/>
	<rect x="82" y="147.4" class="st9" width="4" height="4"/>
	<rect x="87.9" y="148" class="st9" width="17.5" height="0.8"/>
	<rect x="87.9" y="149.9" class="st9" width="17.5" height="0.8"/>
</g>
</svg>
