<?xml version="1.0" encoding="utf-8"?>
<!-- Generator: Adobe Illustrator 22.0.1, SVG Export Plug-In . SVG Version: 6.00 Build 0)  -->
<svg version="1.1" id="Layer_1" xmlns="http://www.w3.org/2000/svg" xmlns:xlink="http://www.w3.org/1999/xlink" x="0px" y="0px"
	 viewBox="0 0 200 200" style="enable-background:new 0 0 200 200;" xml:space="preserve">
<style type="text/css">
	.st0{fill:#40875E;}
	.st1{fill:#A8A240;}
	.st2{fill:#F0AB00;}
	.st3{fill:none;stroke:#000000;stroke-width:2;}
	.st4{fill:#F1AB1C;}
	.st5{fill:none;stroke:#000000;stroke-width:2;stroke-miterlimit:10;}
	.st6{fill:none;}
	.st7{fill:none;stroke:#EC1C24;stroke-width:0.25;}
	.st8{fill:#A69F3D;}
	.st9{fill:#EFAA1E;}
	.st10{fill-rule:evenodd;clip-rule:evenodd;fill:#F0AB00;}
	.st11{fill-rule:evenodd;clip-rule:evenodd;fill:#A69F3D;}
	.st12{fill:#A69F3D;stroke:#A69F3D;stroke-width:2;stroke-miterlimit:10;}
	.st13{fill:#EFAA1E;stroke:#EFAA1E;stroke-width:2;stroke-miterlimit:10;}
	.st14{fill:none;stroke:#A69F3D;stroke-width:2;stroke-miterlimit:10;}
</style>
<g>
	<path class="st0" d="M146.2,159.8l7.2-7.2v38.7c0,4.6-3.8,8.4-8.4,8.4H17c-4.7,0-8.5-3.8-8.5-8.4V22.1c0-4.7,3.8-8.5,8.5-8.5h27.1
		l-1,4.4C43,18.4,43,18.7,43,19v19.3c0,2.7,2.2,4.8,4.8,4.8h66.4c2.6,0,4.8-2.2,4.8-4.8V19c0-0.3,0-0.6-0.1-1l-1-4.4H145
		c4.6,0,8.4,3.8,8.4,8.5v57.4l-7.2,7.2V22.1c0-0.7-0.5-1.2-1.2-1.2h-18.7v17.5c0,6.6-5.4,12.1-12.1,12.1H47.8
		c-6.7,0-12.1-5.4-12.1-12.1V20.8H17c-0.7,0-1.2,0.5-1.2,1.2v169.2c0,0.7,0.6,1.2,1.2,1.2h128c0.7,0,1.2-0.5,1.2-1.2V159.8z"/>
	<path class="st1" d="M51.8,38.6h58.4c2.3,0,4.2-1.9,4.2-4.2v-17c0-2.4-1.9-4.3-4.2-4.3H94.3c0-7.1-6-12.8-13.3-12.8
		c-7.4,0-13.4,5.7-13.4,12.8H51.8c-2.4,0-4.3,1.9-4.3,4.3v17C47.5,36.7,49.4,38.6,51.8,38.6L51.8,38.6z"/>
	<path class="st5" d="M189.9,95l-16.5-16.4c-2.4-2.4-6.7-2.1-9.6,0.8l-9.1,9.1l25.2,25.2l9.1-9.1C191.9,101.7,192.3,97.4,189.9,95
		L189.9,95z M150.6,92.6l25.2,25.2L115.6,178c-0.3,0.3-1,1.1-2.1,1.3c-0.1,0-0.3,0.1-0.4,0.2l-31.4,10c-0.9,0.3-1.8,0.1-2.4-0.5
		c-0.5-0.6-0.7-1.5-0.4-2.3l10-31.4c0-0.1,0.1-0.2,0.2-0.4c0.3-1.1,1-1.9,1.3-2.1L150.6,92.6z M107.9,176.1l-15.5-15.5l-4.2,13.1
		l6.6,6.6L107.9,176.1z M149.6,102.6c-0.9-0.9-2.3-0.9-3.2,0l-46.9,46.9c-0.9,0.9-0.9,2.3,0,3.2c0.9,0.9,2.3,0.9,3.2,0l46.9-46.9
		C150.5,105,150.5,103.5,149.6,102.6L149.6,102.6z"/>
	<path class="st2" d="M68.5,159.5c0,2.9-2.4,5.3-5.3,5.3H39.5c-3,0-5.3-2.4-5.3-5.3v-23.6c0-3,2.4-5.3,5.3-5.3h23.6
		c2.9,0,5.3,2.4,5.3,5.3V159.5z M71.4,133.8c0-3.5-2.8-6.3-6.3-6.3H37.4c-3.4,0-6.3,2.8-6.3,6.3v27.7c0,3.4,2.8,6.3,6.3,6.3h27.7
		c3.5,0,6.3-2.8,6.3-6.3V133.8z"/>
	<path class="st2" d="M118,112.5c0,2.4-1.7,4.3-3.8,4.3H34.9c-2.1,0-3.8-1.9-3.8-4.3l0,0c0-2.4,1.7-4.3,3.8-4.3h79.3
		C116.3,108.2,118,110.1,118,112.5L118,112.5z"/>
	<path class="st2" d="M83.5,104.8c-1,0.8-2.1,1.6-3.6,1.3c-2.4-0.5-3.5-3.1-1.9-5c1.1-1.4,2.3-2.7,3.5-4.1c0.2-0.2,0.5-0.4,0.5-0.6
		c0-0.5,0-1.1-0.3-1.3c-0.2-0.2-1-0.1-1.2,0.2c-0.7,0.6-1.2,1.3-1.8,2c-1.4,1.6-2.9,3.3-4.3,4.9c-0.9,1.1-2,1.5-3.4,1.1
		c-1.5-0.4-2.6-1.4-3-2.9c-0.1-0.5,0-1.2,0.3-1.8c0.3-0.6,0.7-1.1,1.1-1.6c1.7-1.9,3.4-3.9,5.1-5.8c0.1-0.1,0.3-0.3,0.4-0.4
		c0.4-0.4,0.6-0.9,0-1.4c-0.5-0.5-1-0.3-1.4,0.2c-2.4,2.6-4.8,5.2-7.2,7.8c-1.1,1.2-2.6,1.3-3.8,0.3c-0.5-0.4-1-0.9-1.3-1.4
		c-0.8-1.1-0.8-2.1,0-3.1c1.1-1.4,2.2-2.7,3.4-4c1.9-2.2,3.8-4.4,5.7-6.5c0.1-0.1,0.2-0.2,0.3-0.4c0.4-0.5,0.4-0.9-0.1-1.4
		c-0.5-0.5-0.9-0.2-1.3,0.2c-2.4,2.7-4.7,5.4-7.1,8c-1.1,1.3-2.2,2.5-3.4,3.8c-1,1.1-1.8,1.3-3.2,0.7c-1.4-0.5-2.2-1.6-2.5-3
		c-0.2-0.8-0.1-1.6,0.6-2.3c5.3-6,10.6-12,15.9-18c0.4-0.5,1-0.9,1.6-1.3c1.9-1.1,3.8-2.1,5.7-3.2c1-0.6,2-0.9,3.1-0.8
		c1.1,0.1,2.3-0.3,3.1,0.2c0.8,0.5,1,1.8,1.5,2.6c0.7,1.2,1.4,2.5,2.3,3.6c0.8,1,2,1.5,3.3,1.4c1.3-0.1,2.7-0.2,4-0.6
		c1-0.3,1.8-1.1,2.5-1.9c0.8-0.8,0.9-1.8,0.2-2.8c-0.6-1-1.2-2.1-1.9-3.2c3,0.1,5.6-0.7,8-2.2c3.3,7.4,7.2,14.4,12,20.9
		c-0.4,0.4-0.9,0.9-1.3,1.3c-0.4,0.4-0.9,0.8-1.3,1.2c-1.1-0.7-2.1-1.4-3.2-1.9c-3.2-1.5-5.5-0.5-6.6,2.9c-0.2,0.6-0.3,1.1-0.5,1.8
		c-3.4-0.9-6,0.1-7.2,3.6c-0.5-0.2-1-0.4-1.4-0.5c-3.3-1.1-5.7,0.2-6.3,3.7c-0.2,0.8-0.4,1.2-1.3,1.3c-0.7,0-1.4,0.3-2,0.6
		c-1.8,0.8-2.5,2.3-2,4.2C82.4,102.4,83,103.5,83.5,104.8z"/>
	<path class="st0" d="M41.7,52.5c0.8,0.5,1.6,1,2.4,1.5c3.6,2.2,7.2,4.5,10.9,6.7c0.4,0.2,0.8,0.4,0.6,1c-3,9-7.4,17.2-14,24.1
		c-0.6,0.7-1.2,0.8-2,0.4c-3.6-1.5-7.2-2.9-10.8-4.4c-0.4-0.1-0.7-0.3-1-0.5C32.4,71.7,37.1,62.1,41.7,52.5z"/>
	<path class="st1" d="M56.6,63.8c3.8,1.1,6.8-0.5,9.8-2.4c2.3-1.5,4.7-3.1,7-4.6c1-0.7,2.1-1.1,3.4-1.1c3.3,0,6.6,0,9.9,0
		c1.4,0,2.5,0.6,3.1,1.8c1.9,3.5,3.7,6.9,5.5,10.4c0.5,1,0.3,2-0.7,2.6c-2.5,1.8-6.3,0.9-7.7-1.8c-0.8-1.5-1.6-3.1-2.5-4.6
		c-0.2-0.3-0.6-0.6-0.9-0.6c-1.9-0.1-3.7,0-5.6,0c-0.4,0-0.8,0.1-1.1,0.3c-2.6,1.5-5.2,3-7.8,4.7c-0.9,0.6-1.6,1.4-2.3,2.2
		c-4.6,5.2-9.1,10.5-13.7,15.8c-0.3,0.3-0.5,0.6-0.8,0.9c-2.1-1.2-4.1-2.5-6.2-3.7C50.8,77.7,54,71,56.6,63.8z"/>
	<path class="st0" d="M104.1,59.7c4.5-2.9,8.9-5.7,13.3-8.4c4.5,9.3,9,18.6,13.6,28c-1.1,0.5-2.3,0.9-3.4,1.4
		c-2.7,1.1-5.4,2.1-8,3.2c-0.6,0.3-1,0.2-1.4-0.3c-2.6-2.8-4.8-6-6.8-9.3C108.6,69.6,106.2,64.7,104.1,59.7z"/>
	<path class="st1" d="M99.1,99.4c-0.2,2.4-2.5,4.2-4.6,3.5c-0.4-0.1-0.8-0.4-1.1-0.7c-1.4-1.6-2.7-3.3-4-4.9c-1-1.3-0.8-2.8,0.6-4
		c1.3-1.2,2.9-1.2,4,0c1.4,1.5,2.9,3,4.2,4.6C98.6,98.2,98.8,98.8,99.1,99.4z"/>
	<path class="st1" d="M106.3,94.6c-0.2,1.9-2.2,3.9-4,3.7c-0.6-0.1-1.3-0.4-1.8-0.8c-1.1-1-2.1-2.1-3.1-3.2c-0.9-0.9-0.9-1.9-0.2-3
		c1.4-2,3.1-2.3,5-0.7c1,0.8,2.1,1.6,3.1,2.5C105.7,93.4,106,94,106.3,94.6z"/>
	<path class="st1" d="M107.2,84.6c2.6,0,4.8,2.4,4.3,4.7c-0.5,2.3-2.7,3.4-4.8,2.3c-1.4-0.7-2.4-1.9-2.7-3.5
		C103.8,86,105,84.6,107.2,84.6z"/>
	<path class="st1" d="M87.4,105.8c-0.5-0.4-1.1-0.6-1.5-1.1c-0.8-0.9-1.4-2-2.1-3c-0.6-0.9-0.6-1.9,0-2.7c0.9-1,2.5-1.6,3.3-1
		c1.3,1.1,2.6,2.3,3.4,3.7C91.7,103.6,89.9,105.6,87.4,105.8z"/>
	<g>
		<path class="st0" d="M62.1,136.3c-0.6,0-1.3,0.1-2.2,0.2c-0.9,0.1-1.5,0.3-1.9,0.5c-0.4,0.2-1,0.7-1.7,1.5
			c-0.8,0.8-1.8,2.1-2.9,3.8c-1.2,1.7-2.2,3.3-3.1,4.9c-0.8,1.4-1.6,2.9-2.4,4.6c-0.6-0.7-1.1-1.3-1.7-1.7c-0.8-0.5-1.5-0.8-2.2-0.8
			c-0.7,0-1.5,0.3-2.3,0.9c-0.8,0.6-1.3,1.3-1.3,2.1c0,0.6,0.4,1.3,1.1,2.1c1.1,1.2,2,2.3,2.6,3.3c0.5,0.7,0.8,1.2,1,1.4
			c0.2,0.2,0.5,0.4,0.8,0.6c0.3,0.1,0.9,0.2,1.6,0.2c1.1,0,1.8-0.1,2.2-0.3c0.4-0.2,0.8-0.6,1-1c0.2-0.4,0.6-1.1,1-2.3
			c1.2-3,2.8-6.1,4.8-9.3c2-3.2,4-5.6,5.8-7.4c0.5-0.4,0.7-0.7,0.9-0.9c0.2-0.2,0.2-0.5,0.2-0.9c0-0.4-0.1-0.8-0.4-1
			C62.9,136.5,62.6,136.3,62.1,136.3z"/>
	</g>
</g>
</svg>
