<?xml version="1.0" encoding="utf-8"?>
<!-- Generator: Adobe Illustrator 22.0.1, SVG Export Plug-In . SVG Version: 6.00 Build 0)  -->
<svg version="1.1" id="Layer_1" xmlns="http://www.w3.org/2000/svg" xmlns:xlink="http://www.w3.org/1999/xlink" x="0px" y="0px"
	 viewBox="0 0 1119.1 513.1" style="enable-background:new 0 0 1119.1 513.1;" xml:space="preserve">
<style type="text/css">
	.st0{fill:none;stroke:#000000;stroke-width:2;stroke-miterlimit:10;}
	.st1{fill:#2171B8;}
	.st2{fill-rule:evenodd;clip-rule:evenodd;fill:#2171B8;}
	.st3{fill:#40875E;}
	.st4{fill:#06A24A;}
	.st5{fill:#BD2025;}
	.st6{fill:#1C61AD;}
	.st7{fill:#F0AB00;}
	.st8{fill:#A8A240;}
	.st9{fill:#A9A34C;}
	.st10{fill:#F5AC30;}
	.st11{fill:none;stroke:#CC0000;stroke-width:0.7848;stroke-linejoin:round;stroke-miterlimit:10;}
	.st12{fill:#2271B8;}
	.st13{fill:#224075;}
	.st14{fill-rule:evenodd;clip-rule:evenodd;fill:#2271B8;}
	.st15{fill:#224075;enable-background:new    ;}
	.st16{fill:#000102;}
	.st17{fill:none;}
	.st18{enable-background:new    ;}
	.st19{fill:#609A7F;enable-background:new    ;}
	.st20{fill:#FFFFFF;}
	.st21{fill:#F0AB00;enable-background:new    ;}
	.st22{fill:#40875E;enable-background:new    ;}
	.st23{fill:none;stroke:#40875E;stroke-width:2.5;stroke-miterlimit:10;}
	.st24{fill-rule:evenodd;clip-rule:evenodd;fill:#40875E;}
	.st25{fill-rule:evenodd;clip-rule:evenodd;fill:#F0AB00;}
	.st26{fill:#0B4A99;}
	.st27{fill-rule:evenodd;clip-rule:evenodd;fill:#A8A240;}
	.st28{fill:none;stroke:#000000;stroke-width:2.5;stroke-miterlimit:10;}
	.st29{fill:none;stroke:#0B4A99;stroke-width:2;stroke-miterlimit:10;}
	.st30{fill:#231F20;}
	.st31{fill:#000100;fill-opacity:0.1;}
	.st32{fill:url(#SVGID_1_);enable-background:new    ;}
	.st33{fill:url(#SVGID_2_);}
	.st34{fill:url(#SVGID_3_);}
	.st35{fill:url(#SVGID_4_);}
	.st36{fill:url(#SVGID_5_);}
	.st37{opacity:7.500000e-02;fill:#000100;enable-background:new    ;}
	.st38{opacity:5.000000e-02;fill:#000100;enable-background:new    ;}
	.st39{fill:#272369;}
	.st40{fill:url(#ellipse33_3_);}
	.st41{fill:url(#path42_3_);}
	.st42{fill:url(#path53_3_);}
	.st43{fill:url(#path62_3_);}
	.st44{fill:url(#path73_3_);}
	.st45{fill:url(#path82_3_);}
	.st46{fill:url(#path91_3_);}
	.st47{clip-path:url(#SVGID_7_);fill:url(#path108_3_);}
	.st48{clip-path:url(#SVGID_9_);fill:url(#path117_3_);}
	.st49{opacity:0.5;fill:url(#ellipse132_3_);enable-background:new    ;}
	.st50{fill:url(#path159_3_);}
	.st51{fill:url(#path166_3_);}
	.st52{fill:url(#path179_3_);}
	.st53{fill:url(#path186_3_);}
	.st54{fill:url(#path193_3_);}
	.st55{fill:url(#path200_3_);}
	.st56{fill:url(#path207_3_);}
	.st57{fill:url(#path214_3_);}
	.st58{fill:url(#path221_3_);}
	.st59{fill:#A11D21;}
	.st60{fill:url(#path232_3_);}
	.st61{fill:url(#path241_3_);}
	.st62{fill:url(#path250_3_);}
	.st63{fill:url(#path265_3_);}
	.st64{fill:url(#path274_3_);}
	.st65{fill:url(#path281_3_);}
	.st66{fill:url(#path288_3_);}
	.st67{fill:url(#path307_3_);}
	.st68{fill:url(#path314_3_);}
	.st69{fill:url(#path321_3_);}
	.st70{fill:url(#path328_3_);}
	.st71{fill:url(#path335_3_);}
	.st72{fill:url(#path342_3_);}
	.st73{fill:url(#path349_3_);}
	.st74{fill:url(#path356_3_);}
	.st75{fill:url(#path363_3_);}
	.st76{fill:url(#path370_3_);}
	.st77{fill:url(#path377_3_);}
	.st78{fill:url(#path384_3_);}
	.st79{fill:url(#path391_3_);}
	.st80{fill:url(#path398_3_);}
	.st81{fill:url(#path405_3_);}
	.st82{fill:url(#path412_3_);}
	.st83{fill:url(#path419_3_);}
	.st84{fill:url(#path426_3_);}
	.st85{fill:url(#path433_3_);}
	.st86{fill:url(#path440_3_);}
	.st87{fill:url(#path458_3_);}
	.st88{fill:url(#path475_3_);}
	.st89{fill:url(#path492_3_);}
	.st90{fill:url(#path509_3_);}
	.st91{fill:url(#path526_3_);}
	.st92{fill:url(#path543_3_);}
	.st93{fill:url(#path560_3_);}
	.st94{fill:url(#path577_3_);}
	.st95{fill:url(#path608_3_);}
	.st96{fill:url(#path616_3_);}
	.st97{fill:url(#path623_3_);}
	.st98{fill:url(#path630_3_);}
	.st99{opacity:1.000000e-02;fill:#FFFFFF;enable-background:new    ;}
	.st100{fill:url(#SVGID_10_);}
	.st101{opacity:0.8;fill:url(#SVGID_11_);enable-background:new    ;}
	.st102{fill:url(#SVGID_12_);}
	.st103{opacity:0.8;fill:url(#SVGID_13_);enable-background:new    ;}
	.st104{opacity:0.65;fill:url(#SVGID_14_);enable-background:new    ;}
	.st105{fill:url(#SVGID_15_);}
	.st106{fill:#2265A9;}
	.st107{fill:url(#SVGID_16_);fill-opacity:0.95;}
	.st108{fill:#FCB614;fill-opacity:0.95;}
	.st109{fill:#FAF4A8;}
	.st110{fill:url(#SVGID_17_);fill-opacity:0.95;}
	.st111{fill:#3277BC;}
	.st112{fill:url(#SVGID_18_);enable-background:new    ;}
	.st113{fill:url(#SVGID_19_);}
	.st114{fill:url(#SVGID_20_);}
	.st115{fill:url(#SVGID_21_);}
	.st116{fill:url(#SVGID_22_);}
	.st117{fill:url(#ellipse33_5_);}
	.st118{fill:url(#path42_5_);}
	.st119{fill:url(#path53_5_);}
	.st120{fill:url(#path62_5_);}
	.st121{fill:url(#path73_5_);}
	.st122{fill:url(#path82_5_);}
	.st123{fill:url(#path91_5_);}
	.st124{clip-path:url(#SVGID_24_);fill:url(#path108_5_);}
	.st125{clip-path:url(#SVGID_26_);fill:url(#path117_5_);}
	.st126{opacity:0.5;fill:url(#ellipse132_5_);enable-background:new    ;}
	.st127{fill:url(#path159_5_);}
	.st128{fill:url(#path166_5_);}
	.st129{fill:url(#path179_5_);}
	.st130{fill:url(#path186_5_);}
	.st131{fill:url(#path193_5_);}
	.st132{fill:url(#path200_5_);}
	.st133{fill:url(#path207_5_);}
	.st134{fill:url(#path214_5_);}
	.st135{fill:url(#path221_5_);}
	.st136{fill:url(#path232_5_);}
	.st137{fill:url(#path241_5_);}
	.st138{fill:url(#path250_5_);}
	.st139{fill:url(#path265_5_);}
	.st140{fill:url(#path274_5_);}
	.st141{fill:url(#path281_5_);}
	.st142{fill:url(#path288_5_);}
	.st143{fill:url(#path307_5_);}
	.st144{fill:url(#path314_5_);}
	.st145{fill:url(#path321_5_);}
	.st146{fill:url(#path328_5_);}
	.st147{fill:url(#path335_5_);}
	.st148{fill:url(#path342_5_);}
	.st149{fill:url(#path349_5_);}
	.st150{fill:url(#path356_5_);}
	.st151{fill:url(#path363_5_);}
	.st152{fill:url(#path370_5_);}
	.st153{fill:url(#path377_5_);}
	.st154{fill:url(#path384_5_);}
	.st155{fill:url(#path391_5_);}
	.st156{fill:url(#path398_5_);}
	.st157{fill:url(#path405_5_);}
	.st158{fill:url(#path412_5_);}
	.st159{fill:url(#path419_5_);}
	.st160{fill:url(#path426_5_);}
	.st161{fill:url(#path433_5_);}
	.st162{fill:url(#path440_5_);}
	.st163{fill:url(#path458_5_);}
	.st164{fill:url(#path475_5_);}
	.st165{fill:url(#path492_5_);}
	.st166{fill:url(#path509_5_);}
	.st167{fill:url(#path526_5_);}
	.st168{fill:url(#path543_5_);}
	.st169{fill:url(#path560_5_);}
	.st170{fill:url(#path577_5_);}
	.st171{fill:url(#path608_5_);}
	.st172{fill:url(#path616_5_);}
	.st173{fill:url(#path623_5_);}
	.st174{fill:url(#path630_5_);}
	.st175{fill:url(#SVGID_27_);}
	.st176{opacity:0.8;fill:url(#SVGID_28_);enable-background:new    ;}
	.st177{fill:url(#SVGID_29_);}
	.st178{opacity:0.8;fill:url(#SVGID_30_);enable-background:new    ;}
	.st179{opacity:0.65;fill:url(#SVGID_31_);enable-background:new    ;}
	.st180{fill:url(#SVGID_32_);}
	.st181{fill:url(#SVGID_33_);fill-opacity:0.95;}
	.st182{fill:url(#SVGID_34_);fill-opacity:0.95;}
	.st183{fill:#348761;}
	.st184{fill:url(#SVGID_35_);enable-background:new    ;}
	.st185{fill:url(#SVGID_36_);}
	.st186{fill:url(#SVGID_37_);}
	.st187{fill:url(#SVGID_38_);}
	.st188{fill:url(#SVGID_39_);}
	.st189{fill:url(#ellipse33_6_);}
	.st190{fill:url(#path42_6_);}
	.st191{fill:url(#path53_6_);}
	.st192{fill:url(#path62_6_);}
	.st193{fill:url(#path73_6_);}
	.st194{fill:url(#path82_6_);}
	.st195{fill:url(#path91_6_);}
	.st196{clip-path:url(#SVGID_41_);fill:url(#path108_6_);}
	.st197{clip-path:url(#SVGID_43_);fill:url(#path117_6_);}
	.st198{opacity:0.5;fill:url(#ellipse132_6_);enable-background:new    ;}
	.st199{fill:url(#path159_6_);}
	.st200{fill:url(#path166_6_);}
	.st201{fill:url(#path179_6_);}
	.st202{fill:url(#path186_6_);}
	.st203{fill:url(#path193_6_);}
	.st204{fill:url(#path200_6_);}
	.st205{fill:url(#path207_6_);}
	.st206{fill:url(#path214_6_);}
	.st207{fill:url(#path221_6_);}
	.st208{fill:url(#path232_6_);}
	.st209{fill:url(#path241_6_);}
	.st210{fill:url(#path250_6_);}
	.st211{fill:url(#path265_6_);}
	.st212{fill:url(#path274_6_);}
	.st213{fill:url(#path281_6_);}
	.st214{fill:url(#path288_6_);}
	.st215{fill:url(#path307_6_);}
	.st216{fill:url(#path314_6_);}
	.st217{fill:url(#path321_6_);}
	.st218{fill:url(#path328_6_);}
	.st219{fill:url(#path335_6_);}
	.st220{fill:url(#path342_6_);}
	.st221{fill:url(#path349_6_);}
	.st222{fill:url(#path356_6_);}
	.st223{fill:url(#path363_6_);}
	.st224{fill:url(#path370_6_);}
	.st225{fill:url(#path377_6_);}
	.st226{fill:url(#path384_6_);}
	.st227{fill:url(#path391_6_);}
	.st228{fill:url(#path398_6_);}
	.st229{fill:url(#path405_6_);}
	.st230{fill:url(#path412_6_);}
	.st231{fill:url(#path419_6_);}
	.st232{fill:url(#path426_6_);}
	.st233{fill:url(#path433_6_);}
	.st234{fill:url(#path440_6_);}
	.st235{fill:url(#path458_6_);}
	.st236{fill:url(#path475_6_);}
	.st237{fill:url(#path492_6_);}
	.st238{fill:url(#path509_6_);}
	.st239{fill:url(#path526_6_);}
	.st240{fill:url(#path543_6_);}
	.st241{fill:url(#path560_6_);}
	.st242{fill:url(#path577_6_);}
	.st243{fill:url(#path608_6_);}
	.st244{fill:url(#path616_6_);}
	.st245{fill:url(#path623_6_);}
	.st246{fill:url(#path630_6_);}
	.st247{fill:url(#SVGID_44_);}
	.st248{opacity:0.8;fill:url(#SVGID_45_);enable-background:new    ;}
	.st249{fill:url(#SVGID_46_);}
	.st250{opacity:0.8;fill:url(#SVGID_47_);enable-background:new    ;}
	.st251{opacity:0.65;fill:url(#SVGID_48_);enable-background:new    ;}
	.st252{fill:url(#SVGID_49_);}
	.st253{fill:url(#SVGID_50_);fill-opacity:0.95;}
	.st254{fill:url(#SVGID_51_);fill-opacity:0.95;}
	.st255{fill:#3F865E;}
	.st256{fill:#A6A03C;}
	.st257{fill:#EEAA1F;}
	.st258{fill-rule:evenodd;clip-rule:evenodd;fill:#A6A03C;}
	.st259{fill-rule:evenodd;clip-rule:evenodd;fill:#EEAA1F;}
	.st260{fill-rule:evenodd;clip-rule:evenodd;fill:#3F865E;}
	.st261{fill:#158ECE;}
	.st262{fill:none;stroke:#000000;stroke-miterlimit:10;}
	.st263{fill-rule:evenodd;clip-rule:evenodd;fill:#0B4A99;}
</style>
<rect x="249.3" y="52.1" class="st17" width="34.2" height="5.8"/>
<rect x="249.3" y="64" class="st17" width="34.2" height="5.8"/>
<path class="st255" d="M294.7,52.1c0-4.1-3.3-7.4-7.4-7.4h-40.4c-4.1,0-7.4,3.3-7.4,7.4v9.7h55.3V52.1z M283.5,57.8h-34.2v-5.8h34.2
	V57.8z"/>
<path class="st256" d="M644.5,293.6c0,3.2-2.6,5.8-5.8,5.8H500.2c-3.2,0-5.8-2.6-5.8-5.8V183.4c0-3.2,2.6-5.8,5.8-5.8h138.5
	c3.2,0,5.8,2.6,5.8,5.8V293.6z M531.7,186.8c0-1.5-1.2-2.7-2.7-2.7h-27c-1.5,0-2.7,1.2-2.7,2.7l0,0c0,1.5,1.2,2.7,2.7,2.7h27
	C530.5,189.5,531.7,188.2,531.7,186.8L531.7,186.8z M627.6,207.5H511.2c-1.5,0-2.7,1.2-2.7,2.7c0,1.5,1.2,2.7,2.7,2.7h116.4
	c1.5,0,2.7-1.2,2.7-2.7C630.3,208.7,629.1,207.5,627.6,207.5z M627.6,220.8H511.2c-1.5,0-2.7,1.2-2.7,2.7c0,1.5,1.2,2.7,2.7,2.7
	h116.4c1.5,0,2.7-1.2,2.7-2.7C630.3,222,629.1,220.8,627.6,220.8z M639.6,186.6c0-2-1.6-3.6-3.6-3.6h-5.8c-2,0-3.6,1.6-3.6,3.6l0,0
	c0,2,1.6,3.6,3.6,3.6h5.8C638,190.2,639.6,188.6,639.6,186.6L639.6,186.6z M639.6,195.9H499.3v98h140.3V195.9z"/>
<path class="st255" d="M695.3,150.6h-288c-3.8,0-6.9,3.1-6.9,6.9v115.2h11.6V164.3c0-1.5,2.5-2.1,4-2.1h270.7c1.5,0,2.6,0.6,2.6,2.1
	V317c0,1.5-1.1,3.1-2.6,3.1H494.9l0,11.6h29v11.6c-18.8,1.2-28.2,3.6-28.2,3.6v11.7H607v-11.7c-10.6-1.4-20.3-2.3-29.4-3v-12.2
	h117.7c3.8,0,6.9-3.1,6.9-6.9V157.5C702.2,153.7,699.1,150.6,695.3,150.6z"/>
<path class="st257" d="M763.1,207h-44.7c-4.5,0-8.2,3.7-8.2,8.2v99.2c0,4.5,3.7,8.2,8.2,8.2h44.7c4.5,0,8.2-3.7,8.2-8.2v-99.2
	C771.3,210.6,767.6,207,763.1,207 M733.5,216.4h15.1c1.2,0,2.2,1,2.2,2.1c0,1.2-1,2.1-2.2,2.1h-15.1c-1.2,0-2.1-1-2.1-2.1
	C731.4,217.3,732.3,216.4,733.5,216.4 M740.9,318.2c-3.4,0-6.1-2.7-6.1-6.1c0-3.4,2.7-6.1,6.1-6.1c3.4,0,6.1,2.7,6.1,6.1
	C747,315.5,744.3,318.2,740.9,318.2 M767.2,304.3h-52.4v-79h52.4V304.3z"/>
<path class="st255" d="M628.5,437.8c-4.1,0-7.7-4.1-7.7-8.1v-81.3c0-4,3.6-6.9,7.7-6.9h124.1c4.1,0,7.1,2.9,7.1,6.9v81.3
	c0,4-3,8.1-7.1,8.1H628.5z M747.2,426.4c0.9,0,1,0.4,1,0v-74c0-0.4-0.1-0.5-1-0.5H636.4c-0.9,0-0.1,0.1-0.1,0.5v74
	c0,0.4-0.8,0,0.1,0H747.2z M628.6,391.2c1.4,0,2.6-1.2,2.6-2.6c0-1.4-1.2-2.6-2.6-2.6c-1.4,0-2.6,1.2-2.6,2.6
	C626,390.1,627.2,391.2,628.6,391.2"/>
<g>
	<g>
		<path class="st256" d="M310.6,395.8h174.9c2.5,0,4.6-2.1,4.6-4.6V283.8c0-2.5-2.1-4.6-4.6-4.6H310.6c-2.5,0-4.6,2.1-4.6,4.6v107.4
			C306.1,393.8,308.1,395.8,310.6,395.8L310.6,395.8z M318.8,292h158.6v91.1H318.8V292z M322.1,292"/>
		<path class="st256" d="M496.8,404h-77c-0.8,0-1.5,0.7-1.5,1.5v0.1c0,3.1-2.5,2.3-5.6,2.3h-29.2c-3.1,0-5.6,0.8-5.6-2.3v-0.1
			c0-0.8-0.7-1.5-1.5-1.5h-77c-3.1,0-5.6,2.5-5.6,5.6v5.5c0,3.1,2.5,5.6,5.6,5.6h197.5c3.1,0,5.6-2.5,5.6-5.6v-5.5
			C502.4,406.5,499.9,404,496.8,404L496.8,404z M485,413.7c0,1.5-1.2,2.8-2.8,2.8h-12c-1.5,0-2.8-1.2-2.8-2.8v-0.1
			c0-1.5,1.2-2.8,2.8-2.8h12C483.7,410.8,485,412.1,485,413.7L485,413.7z"/>
	</g>
</g>
<g>
	<g>
		<path d="M687.8,425.7c-13,0-23.2-4.2-23.2-9.5v-13.2c0-0.2,0-0.4,0.1-0.6l0-0.1l0.9,0c0.8,4.5,10.6,7.9,22.2,7.9
			c11.6,0,21.4-3.5,22.2-7.9h0.9l0,0c0,0.2,0.1,0.4,0.1,0.7l0,13.1C711,421.6,700.8,425.7,687.8,425.7z M665.5,404.5v11.7
			c0,4.6,10.2,8.5,22.3,8.5c12.1,0,22.2-3.9,22.2-8.5v-11.7c-2.8,3.9-11.7,6.7-22.2,6.7C677.2,411.3,668.3,408.5,665.5,404.5z
			 M687.8,407.2c-13,0-23.2-4.2-23.2-9.5v-13.2c0-0.2,0-0.4,0.1-0.6l0-0.1l0.9,0c0.8,4.5,10.6,8,22.2,8c11.6,0,21.4-3.5,22.2-8
			l0.9,0l0,0.1c0,0.2,0.1,0.4,0.1,0.7l0,13.1C711,403,700.8,407.2,687.8,407.2z M665.5,385.9v11.7c0,4.6,10.2,8.5,22.3,8.5
			c12.1,0,22.2-3.9,22.2-8.5V386c-2.8,4-11.7,6.7-22.2,6.7C677.2,392.7,668.3,389.9,665.5,385.9z M687.8,388.8
			c-13,0-23.2-4.2-23.2-9.5v-13.2c0-5.3,10.2-9.5,23.2-9.5c9.5,0,17.9,2.3,21.5,5.8c1.1,1.1,1.7,2.4,1.7,3.6v13.2
			C711,384.7,700.8,388.8,687.8,388.8z M687.8,357.7c-12.1,0-22.3,3.9-22.3,8.5v13.2c0,4.6,10.2,8.5,22.3,8.5
			c12.1,0,22.2-3.9,22.2-8.5v-13.2c0-1-0.5-2-1.4-3C705.3,359.9,696.9,357.7,687.8,357.7z M687.8,376.6c-10.5,0-18.7-3.4-18.7-7.7
			c0-4.3,8.2-7.7,18.7-7.7c10.5,0,18.6,3.4,18.6,7.7C706.4,373.2,698.2,376.6,687.8,376.6z M687.8,362.2c-9.6,0-17.7,3.1-17.7,6.7
			c0,3.6,8.1,6.7,17.7,6.7c9.6,0,17.7-3.1,17.7-6.7C705.4,365.3,697.3,362.2,687.8,362.2z"/>
	</g>
</g>
<path class="st257" d="M629.2,268.5c0.6-0.1,1.1-0.7,1.1-1.3V262c0-0.6-0.5-1.2-1.1-1.3l-3.9-0.6c-0.6-0.1-1.2-0.6-1.4-1.2l-1.3-3.1
	c-0.3-0.5-0.2-1.4,0.1-1.9l2.3-3.2c0.4-0.5,0.3-1.2-0.1-1.7l-3.7-3.7c-0.4-0.4-1.2-0.5-1.7-0.1l-3.2,2.3c-0.5,0.4-1.3,0.4-1.9,0.1
	l-3.1-1.3c-0.6-0.2-1.1-0.8-1.2-1.4l-0.6-3.9c-0.1-0.6-0.7-1.1-1.3-1.1h-5.3c-0.6,0-1.2,0.5-1.3,1.1l-0.6,3.9
	c-0.1,0.6-0.7,1.2-1.2,1.4l-3.1,1.3c-0.5,0.3-1.4,0.2-1.9-0.1l-3.2-2.3c-0.5-0.3-1.2-0.3-1.7,0.1l-3.8,3.7c-0.4,0.4-0.5,1.2-0.1,1.7
	l2.3,3.2c0.3,0.5,0.4,1.3,0.1,1.9l-1.3,3.1c-0.2,0.6-0.8,1.1-1.4,1.2l-3.9,0.6c-0.6,0.1-1.1,0.7-1.1,1.3v5.3c0,0.6,0.5,1.2,1.1,1.3
	l3.9,0.7c0.6,0.1,1.2,0.6,1.4,1.2l1.3,3.1c0.3,0.5,0.2,1.4-0.1,1.9l-2.3,3.2c-0.4,0.5-0.3,1.2,0.1,1.7l3.7,3.7
	c0.4,0.4,1.2,0.5,1.7,0.1l3.2-2.3c0.5-0.4,1.3-0.4,1.9-0.1l3.1,1.3c0.6,0.2,1.1,0.8,1.2,1.4l0.6,3.9c0.1,0.6,0.7,1.1,1.3,1.1h5.3
	c0.6,0,1.2-0.5,1.3-1.1l0.6-3.9c0.1-0.6,0.7-1.2,1.2-1.4l3.1-1.3c0.5-0.3,1.4-0.2,1.9,0.1l3.2,2.3c0.5,0.4,1.2,0.3,1.7-0.1l3.7-3.7
	c0.4-0.4,0.5-1.2,0.1-1.7l-2.3-3.2c-0.4-0.5-0.4-1.3-0.1-1.9l1.3-3.1c0.2-0.6,0.8-1.1,1.4-1.2L629.2,268.5z M591.7,264.6
	c0-7.6,6.2-13.7,13.7-13.7c7.6,0,13.7,6.2,13.7,13.7c0,7.6-6.2,13.7-13.7,13.7C597.8,278.4,591.7,272.2,591.7,264.6z"/>
<g>
	<path d="M565,276.1c-0.3,0-0.6-0.2-0.7-0.4c-1.3-2.6-2-5.4-2-8.3v-11.8c-0.2,0.6-0.4,1.3-0.8,1.8c-0.1,0.2-0.4,0.4-0.7,0.4
		c-0.1,0-0.3,0-0.4-0.1c-0.4-0.2-0.5-0.7-0.3-1.1c0.5-1,0.8-2,0.8-3.1l-0.5-11.9c0-0.7,0.2-1.4,0.7-1.9c0.5-0.5,1.2-0.8,1.9-0.8h0.2
		v-2.2c0-0.4,0.4-0.8,0.8-0.8h1.9c0.4,0,0.8,0.4,0.8,0.8v2.2h0.2c0.4,0,0.8,0.4,0.8,0.8v27.7c0,2.9-0.7,5.8-2,8.3
		C565.6,276,565.3,276.1,565,276.1z M562.9,239.8v27.6c0,2.8,0.7,5.6,1.9,8c0.1,0.1,0.2,0.1,0.3,0c1.3-2.5,1.9-5.3,1.9-8v-27.7
		c0-0.1-0.1-0.2-0.2-0.2h-0.8v-2.8c0-0.1-0.1-0.2-0.2-0.2H564c-0.1,0-0.2,0.1-0.2,0.2v2.8h-0.8c-0.5,0-1.1,0.2-1.4,0.6
		c-0.4,0.4-0.6,0.9-0.6,1.4l0.5,11.9c0,1.2-0.2,2.4-0.9,3.5c0,0.1,0,0.2,0.1,0.2c0,0,0.1,0,0.1,0c0,0,0.1,0,0.1-0.1
		c0.6-1.1,1-2.4,0.9-3.7l-0.5-11.9c0-0.4,0.1-0.9,0.4-1.2c0.2-0.2,0.4-0.3,0.6-0.4L562.9,239.8z M562.3,240.9
		c-0.2,0.2-0.2,0.4-0.2,0.7l0.2,6V240.9z M565,275l-0.3-0.6c-1-2.2-1.5-4.6-1.5-7v-0.8h3.5v0.8c0,2.4-0.5,4.8-1.5,7L565,275z
		 M563.9,267.2v0.2c0,2,0.4,4.1,1.1,6c0.7-1.9,1.1-4,1.1-6v-0.2H563.9z"/>
</g>
<g>
	<g>
		<path d="M555.9,283.6h-44.2c-0.4,0-0.8-0.3-1-0.7c-0.2-0.4-0.1-0.9,0.2-1.2l8.3-8.3l5.1-5.1l30.8-30.8c0.3-0.3,0.8-0.4,1.2-0.2
			l0,0c0.4,0.2,0.7,0.6,0.7,1v44.3C557,283.1,556.5,283.6,555.9,283.6z M519.4,274.1l-8.1,8.1c-0.1,0.1-0.2,0.3-0.1,0.5
			c0.1,0.2,0.2,0.3,0.4,0.3h44.2c0.3,0,0.5-0.2,0.5-0.5v-44.3c0-0.2-0.1-0.4-0.3-0.4l0,0c-0.2-0.1-0.4,0-0.5,0.1l-30.8,30.8
			L519.4,274.1z M555.4,282.1h-42.7l5.4-5.4l0.8,0.8c0.2,0.2,0.5,0.2,0.7,0c0.2-0.2,0.2-0.5,0-0.7l-0.8-0.8l1.1-1.1l1.4,1.4
			c0.2,0.2,0.5,0.2,0.7,0c0.1-0.1,0.1-0.2,0.1-0.3c0-0.1,0-0.2-0.1-0.3l-1.4-1.4l1.1-1.1l0.8,0.8c0.2,0.2,0.5,0.2,0.7,0
			c0.2-0.2,0.2-0.5,0-0.7l-0.8-0.8l1.1-1.1l0.8,0.8c0.2,0.2,0.5,0.2,0.7,0c0.1-0.1,0.1-0.2,0.1-0.3c0-0.1,0-0.2-0.1-0.3l-0.8-0.8
			l1.1-1.1l0.8,0.8c0.2,0.2,0.5,0.2,0.7,0c0.1-0.1,0.1-0.2,0.1-0.3c0-0.1,0-0.2-0.1-0.3l-0.8-0.8l1.1-1.1l1.4,1.4
			c0.2,0.2,0.5,0.2,0.7,0c0.2-0.2,0.2-0.5,0-0.7l-1.4-1.4l1.1-1.1l0.8,0.8c0.2,0.2,0.5,0.2,0.7,0c0.2-0.2,0.2-0.5,0-0.7l-0.8-0.8
			l1.1-1.1l0.8,0.8c0.2,0.2,0.5,0.2,0.7,0c0.2-0.2,0.2-0.5,0-0.7l-0.8-0.8l1.1-1.1l0.8,0.8c0.2,0.2,0.5,0.2,0.7,0
			c0.1-0.1,0.1-0.2,0.1-0.3c0-0.1,0-0.2-0.1-0.3l-0.8-0.8l1.1-1.1l1.4,1.4c0.2,0.2,0.5,0.2,0.6,0c0.1-0.1,0.1-0.2,0.1-0.3
			c0-0.1,0-0.2-0.1-0.3l-1.4-1.4l1.1-1.1l0.8,0.8c0.2,0.2,0.5,0.2,0.7,0c0.2-0.2,0.2-0.5,0-0.7l-0.8-0.8l1.1-1.1l0.8,0.8
			c0.2,0.2,0.5,0.2,0.7,0c0.2-0.2,0.2-0.5,0-0.7l-0.8-0.8l1.1-1.1l0.8,0.8c0.2,0.2,0.5,0.2,0.7,0c0.2-0.2,0.2-0.5,0-0.7l-0.8-0.8
			l1.1-1.1l1.4,1.4c0.2,0.2,0.5,0.2,0.7,0c0.2-0.2,0.2-0.5,0-0.7l-1.4-1.4l1.1-1.1l0.8,0.8c0.2,0.2,0.5,0.2,0.7,0
			c0.2-0.2,0.2-0.5,0-0.7l-0.8-0.8l1.1-1.1l0.8,0.8c0.2,0.2,0.5,0.2,0.7,0c0.1-0.1,0.1-0.2,0.1-0.3c0-0.1,0-0.2-0.1-0.3l-0.8-0.8
			l1.1-1.1l0.8,0.8c0.2,0.2,0.5,0.2,0.7,0c0.1-0.1,0.1-0.2,0.1-0.3c0-0.1,0-0.2-0.1-0.3l-0.8-0.8l1.1-1.1l1.4,1.4
			c0.2,0.2,0.5,0.2,0.6,0c0.1-0.1,0.1-0.2,0.1-0.3c0-0.1,0-0.2-0.1-0.3l-1.4-1.4l1.1-1.1l0.8,0.8c0.2,0.2,0.5,0.2,0.7,0
			c0.2-0.2,0.2-0.5,0-0.7l-0.8-0.8l5.4-5.4V282.1z M514.2,281.5h40.6v-40.6l-3.9,3.9l0.4,0.4c0.4,0.4,0.4,1.1,0,1.5
			c-0.2,0.2-0.5,0.3-0.8,0.3s-0.6-0.1-0.8-0.3l-0.4-0.4l-0.2,0.2l1,1c0.2,0.2,0.3,0.5,0.3,0.8c0,0.3-0.1,0.6-0.3,0.8
			c-0.2,0.2-0.5,0.3-0.8,0.3c-0.3,0-0.6-0.1-0.8-0.3l-1-1l-0.2,0.2l0.4,0.4c0.2,0.2,0.3,0.5,0.3,0.8c0,0.3-0.1,0.6-0.3,0.8
			c-0.2,0.2-0.5,0.3-0.8,0.3c-0.3,0-0.6-0.1-0.8-0.3l-0.4-0.4l-0.2,0.2l0.4,0.4c0.2,0.2,0.3,0.5,0.3,0.8c0,0.3-0.1,0.6-0.3,0.8
			c-0.4,0.4-1.1,0.4-1.5,0l-0.4-0.4l-0.2,0.2l0.4,0.4c0.4,0.4,0.4,1.1,0,1.5c-0.2,0.2-0.5,0.3-0.8,0.3c-0.3,0-0.6-0.1-0.8-0.3
			l-0.4-0.4l-0.2,0.2l1,1c0.4,0.4,0.4,1.1,0,1.5c-0.2,0.2-0.5,0.3-0.8,0.3c-0.3,0-0.6-0.1-0.8-0.3l-1-1l-0.2,0.2l0.4,0.4
			c0.4,0.4,0.4,1.1,0,1.5c-0.2,0.2-0.5,0.3-0.8,0.3c-0.3,0-0.6-0.1-0.8-0.3l-0.4-0.4l-0.2,0.2l0.4,0.4c0.4,0.4,0.4,1.1,0,1.5
			c-0.2,0.2-0.5,0.3-0.8,0.3c-0.3,0-0.6-0.1-0.8-0.3l-0.4-0.4l-0.2,0.2l0.4,0.4c0.4,0.4,0.4,1.1,0,1.5c-0.2,0.2-0.5,0.3-0.8,0.3
			c-0.3,0-0.6-0.1-0.8-0.3l-0.4-0.4l-0.2,0.2l1,1c0.2,0.2,0.3,0.5,0.3,0.8c0,0.3-0.1,0.6-0.3,0.8c-0.2,0.2-0.5,0.3-0.8,0.3
			c-0.3,0-0.6-0.1-0.8-0.3l-1-1l-0.2,0.2l0.4,0.4c0.2,0.2,0.3,0.5,0.3,0.8c0,0.3-0.1,0.6-0.3,0.8c-0.2,0.2-0.5,0.3-0.8,0.3
			c-0.3,0-0.6-0.1-0.8-0.3l-0.4-0.4l-0.2,0.2l0.4,0.4c0.4,0.4,0.4,1.1,0,1.5c-0.2,0.2-0.5,0.3-0.8,0.3c-0.3,0-0.6-0.1-0.8-0.3
			l-0.4-0.4l-0.2,0.2l0.4,0.4c0.4,0.4,0.4,1.1,0,1.5c-0.2,0.2-0.5,0.3-0.8,0.3c-0.3,0-0.6-0.1-0.8-0.3l-0.4-0.4l-0.2,0.2l1,1
			c0.4,0.4,0.4,1.1,0,1.5c-0.2,0.2-0.5,0.3-0.8,0.3s-0.6-0.1-0.8-0.3l-1-1l-0.2,0.2l0.4,0.4c0.2,0.2,0.3,0.5,0.3,0.8
			c0,0.3-0.1,0.6-0.3,0.8c-0.2,0.2-0.5,0.3-0.8,0.3c-0.3,0-0.6-0.1-0.8-0.3l-0.4-0.4l-0.2,0.2l0.4,0.4c0.2,0.2,0.3,0.5,0.3,0.7
			c0,0.3-0.1,0.6-0.3,0.8c-0.2,0.2-0.5,0.3-0.8,0.3c-0.3,0-0.6-0.1-0.8-0.3l-0.4-0.4l-0.2,0.2l0.4,0.4c0.4,0.4,0.4,1.1,0,1.5
			c-0.2,0.2-0.5,0.3-0.8,0.3c-0.3,0-0.6-0.1-0.8-0.3l-0.4-0.4l-0.2,0.2l1,1c0.2,0.2,0.3,0.5,0.3,0.8c0,0.3-0.1,0.6-0.3,0.8
			c-0.2,0.2-0.5,0.3-0.8,0.3c-0.3,0-0.6-0.1-0.8-0.3l-1-1l-0.2,0.2l0.4,0.4c0.4,0.4,0.4,1.1,0,1.5c-0.2,0.2-0.5,0.3-0.8,0.3
			c-0.3,0-0.6-0.1-0.8-0.3l-0.4-0.4L514.2,281.5z"/>
	</g>
	<g>
		<path d="M549.3,277.1h-21.9c-0.4,0-0.8-0.3-1-0.7c-0.2-0.4-0.1-0.9,0.2-1.2l21.9-21.9c0.3-0.3,0.8-0.4,1.2-0.2l0,0
			c0.4,0.2,0.7,0.6,0.7,1V276C550.4,276.6,549.9,277.1,549.3,277.1z M549.3,253.6c-0.1,0-0.2,0-0.3,0.1l-21.9,21.9
			c-0.1,0.1-0.2,0.3-0.1,0.5c0.1,0.2,0.2,0.3,0.4,0.3h21.9c0.3,0,0.5-0.2,0.5-0.5v-21.9c0-0.2-0.1-0.4-0.3-0.4
			C549.5,253.7,549.4,253.6,549.3,253.6z"/>
	</g>
</g>
<g>
	<path d="M507.8,274.7c-0.2,0-0.4-0.1-0.6-0.2c-0.3-0.3-0.3-0.6-0.2-1l2.2-5.7c0-0.1,0.1-0.2,0.2-0.3l27.8-29.6
		c0.7-0.8,2-0.8,2.7-0.1l1.9,1.8c0.8,0.7,0.8,2,0.1,2.7l-27.8,29.6c-0.1,0.1-0.2,0.1-0.3,0.2l-5.6,2.6
		C508.1,274.6,508,274.7,507.8,274.7z M538.6,237.9c-0.4,0-0.7,0.1-1,0.4l-27.8,29.6c0,0,0,0.1-0.1,0.1l-2.2,5.7
		c0,0.1,0,0.2,0.1,0.3c0.1,0.1,0.2,0.1,0.3,0l5.6-2.6c0,0,0.1,0,0.1-0.1l27.8-29.5c0.5-0.5,0.5-1.4-0.1-1.9l-1.9-1.8
		C539.3,238,538.9,237.9,538.6,237.9z M539.8,242.8l-3-2.8l1.3-1.3c0.3-0.3,0.8-0.3,1.1,0l0,0l1.9,1.8c0.2,0.1,0.2,0.3,0.2,0.6
		c0,0.2-0.1,0.4-0.2,0.5L539.8,242.8z M537.6,240l2.1,2l0.8-0.9c0,0,0-0.1,0-0.1c0,0,0-0.1,0-0.1l-1.9-1.8c-0.1-0.1-0.2-0.1-0.2,0
		L537.6,240z"/>
</g>
<g>
	<path d="M815,485.6H342.7v-0.6c-75.5-5.4-134.5-70.7-134.5-149.5c0-81.7,63.7-148.6,142.2-149.9c4.4-41.6,23.3-80,53.3-108.3
		c30.6-28.9,70.1-44.8,111.5-44.8c31.8,0,62.8,9.4,89.4,27.3c25.4,17,45.9,40.9,59.2,69.1c13-6.1,26.8-9.1,41-9.1
		c54.6,0,99.4,45.7,100.5,102.1c69.9,0.2,126.6,59.2,126.6,131.8c0,68.6-51.2,125.9-116.9,131.3V485.6z M346,482.3h465.7V482
		l1.5-0.1c64.7-4.4,115.4-60.7,115.4-128.1c0-70.8-55.5-128.5-123.7-128.5c-0.3,0-0.5,0-0.8,0l-2.1,0.1l0-1.7
		c-0.2-55.4-43.8-100.6-97.2-100.6c-14.2,0-28,3.2-41,9.5l-1.5,0.7l-0.7-1.5c-26.9-58.3-84.4-96-146.4-96
		c-83.7,0-153.1,65.2-161.6,151.6l-0.1,1.5l-1.5,0c-77.4,0.4-140.4,66.2-140.4,146.6c0,77.5,58.4,141.8,132.9,146.3l1.6,0.1V482.3z"
		/>
</g>
<path class="st256" d="M976,370.6v92.1c0,1,0.8,1.7,1.7,1.7h79.8c0.8,0,1.4-0.5,1.7-1.2l26.2-89.7c0.2-0.5,0.1-1.1-0.3-1.5
	c-0.3-0.4-0.8-0.7-1.4-0.7h-11.7l0.7-4.9c0.1-0.5-0.1-1-0.4-1.4c-0.3-0.4-0.8-0.6-1.3-0.6h-12.8v-6.9c0-0.9-0.8-1.7-1.7-1.7H992
	L976,370.6z M1068.9,367.8l-10.8,79.7v-79.7H1068.9z M1081.4,374.7l-18.5,63.4l8.6-63.4H1081.4z M996,361.3h56.7V459h-71.2v-84.7
	L996,361.3z"/>
<rect x="988.1" y="376.7" class="st255" width="23.3" height="26.1"/>
<rect x="1018.5" y="377.7" class="st255" width="28.6" height="2.9"/>
<rect x="1018.5" y="388.7" class="st255" width="28.6" height="2.9"/>
<rect x="1018.2" y="400" class="st255" width="28.6" height="2.9"/>
<rect x="988.1" y="415.3" class="st257" width="59" height="2.9"/>
<rect x="988.1" y="430.7" class="st257" width="59" height="2.9"/>
<rect x="988.1" y="445.8" class="st257" width="59" height="2.9"/>
<path d="M1094.2,447.7c-0.7,0-1.4-0.5-1.5-1.2l-0.5-2.7c-1-0.3-1.9-0.7-2.8-1.2l-2.2,1.6c-0.6,0.4-1.4,0.4-1.9-0.2l-2.1-2.1
	c-0.3-0.3-0.4-0.6-0.4-1.1c0-0.3,0.1-0.6,0.3-0.9l1.6-2.3c-0.5-0.9-0.9-1.8-1.2-2.8l-2.7-0.4c-0.7-0.1-1.3-0.7-1.3-1.5l0-3
	c0-0.7,0.5-1.4,1.2-1.5l2.7-0.5c0.3-1,0.7-2,1.2-2.8l-1.6-2.2c-0.2-0.3-0.3-0.6-0.3-0.9c0-0.4,0.1-0.8,0.4-1.1l2.1-2.1
	c0.5-0.5,1.3-0.6,1.9-0.2l2.2,1.6c0.9-0.5,1.8-0.9,2.8-1.2l0.4-2.7c0.1-0.7,0.7-1.3,1.5-1.3l3,0c0.7,0,1.3,0.6,1.5,1.3l0,0l0.5,2.7
	c1,0.3,2,0.7,2.8,1.2l2.2-1.6c0.6-0.4,1.4-0.4,1.9,0.2l2.1,2.1c0.3,0.3,0.4,0.6,0.4,1.1c0,0.3-0.1,0.6-0.3,0.9l-1.6,2.3
	c0.5,0.9,0.9,1.9,1.2,2.9l2.7,0.4c0.7,0.1,1.3,0.7,1.3,1.5l0,3c0,0.7-0.5,1.4-1.2,1.5l-2.7,0.5c-0.3,1-0.7,1.9-1.2,2.8l1.6,2.2
	c0.2,0.3,0.3,0.6,0.3,0.9c0,0.4-0.2,0.8-0.4,1.1l-2.1,2.1c-0.5,0.5-1.3,0.6-1.9,0.2l-2.3-1.6c-0.9,0.5-1.9,0.9-2.8,1.2l-0.4,2.7
	c-0.1,0.7-0.7,1.3-1.5,1.3L1094.2,447.7z M1089.3,441.7l0.2,0.1c1,0.6,2,1,3.1,1.3l0.2,0.1l0.6,3.2c0.1,0.4,0.4,0.6,0.8,0.6l2.9,0
	c0.4,0,0.7-0.3,0.8-0.6l0.5-3.2l0.2-0.1c1.1-0.3,2.1-0.7,3.1-1.3l0.2-0.1l2.7,1.9c0.3,0.2,0.7,0.2,1-0.1l2.1-2.1
	c0.1-0.1,0.2-0.3,0.2-0.5c0-0.2,0-0.3-0.1-0.4l-1.9-2.6l0.1-0.2c0.6-1,1-2,1.3-3.1l0.1-0.2l3.2-0.6c0.4-0.1,0.6-0.4,0.6-0.8l0-3
	c0-0.4-0.3-0.7-0.6-0.8l-3.2-0.5l-0.1-0.2c-0.3-1.1-0.7-2.2-1.3-3.1l-0.1-0.2l1.9-2.6c0.1-0.1,0.1-0.3,0.1-0.4
	c0-0.2-0.1-0.4-0.2-0.5l-2.1-2.1c-0.3-0.3-0.7-0.3-1-0.1l-2.6,1.9l-0.2-0.1c-1-0.6-2-1-3.1-1.3l-0.2-0.1l-0.5-3.2
	c-0.1-0.4-0.4-0.6-0.7-0.6l-2.9,0c-0.4,0-0.7,0.3-0.8,0.6l-0.5,3.2l-0.2,0.1c-1.1,0.3-2.2,0.7-3.1,1.3l-0.2,0.1l-2.6-1.9
	c-0.3-0.2-0.7-0.2-1,0.1l-2.1,2.1c-0.1,0.1-0.2,0.3-0.2,0.5c0,0.2,0,0.3,0.1,0.4l1.9,2.6l-0.1,0.2c-0.6,0.9-1,2-1.3,3.1l-0.1,0.2
	l-3.2,0.5c-0.4,0.1-0.6,0.4-0.6,0.7l0,3c0,0.4,0.3,0.7,0.6,0.8l3.2,0.5l0.1,0.2c0.3,1,0.7,2.1,1.3,3l0.1,0.2l-1.9,2.7
	c-0.1,0.1-0.1,0.3-0.1,0.4c0,0.2,0.1,0.4,0.2,0.5l2.1,2.1c0.3,0.3,0.7,0.3,1,0.1L1089.3,441.7z M1095.7,441.8
	c-0.8,0-1.5-0.1-2.3-0.3c-4.7-1.1-8-5.2-8-10c0-0.8,0.1-1.6,0.3-2.3l0,0c1.3-5.5,6.8-9,12.4-7.7c4.7,1.1,8,5.2,8,10
	c0,0.8-0.1,1.6-0.3,2.3C1104.6,438.6,1100.4,441.8,1095.7,441.8z M1086.3,429.4c-0.2,0.7-0.2,1.4-0.2,2.2c0,4.5,3.1,8.3,7.4,9.3
	c0.7,0.2,1.4,0.2,2.1,0.2c4.4,0,8.3-3,9.3-7.4c0.2-0.7,0.2-1.4,0.2-2.2c0-4.5-3.1-8.3-7.4-9.3C1092.7,421,1087.5,424.2,1086.3,429.4
	L1086.3,429.4z"/>
<path d="M1087.1,465.6c-0.1,0-0.1,0-0.2,0l-1.8-0.4c-0.5-0.1-0.9-0.6-0.9-1.1l0-1.6c-0.5-0.3-1-0.6-1.5-1l-1.5,0.7
	c-0.5,0.2-1,0-1.3-0.4l-1-1.5c-0.2-0.2-0.2-0.5-0.2-0.8c0-0.2,0.2-0.4,0.3-0.5l1.2-1.1c-0.2-0.6-0.3-1.1-0.3-1.7l-1.5-0.6
	c-0.5-0.2-0.8-0.7-0.7-1.2l0.4-1.8c0.1-0.5,0.6-0.9,1.1-0.9l1.6,0c0.3-0.5,0.6-1,1-1.5l-0.7-1.5c-0.1-0.2-0.1-0.4-0.1-0.6
	c0.1-0.3,0.2-0.5,0.5-0.7l0.8-0.5l0.8-0.5c0.4-0.3,1-0.2,1.4,0.2l1.1,1.2c0.6-0.2,1.1-0.3,1.7-0.3l0.6-1.5c0.2-0.5,0.7-0.8,1.2-0.7
	l1.8,0.4c0.5,0.1,0.9,0.6,0.8,1.1l0,1.6c0.5,0.3,1,0.6,1.5,1l1.5-0.7c0.5-0.2,1,0,1.3,0.4l1,1.5c0.2,0.3,0.2,0.6,0.1,0.8
	c0,0.2-0.1,0.4-0.3,0.5l-1.2,1.1c0.2,0.6,0.3,1.2,0.3,1.8l1.5,0.6c0.5,0.2,0.8,0.7,0.7,1.2l-0.4,1.8c-0.1,0.5-0.6,0.9-1.1,0.9
	l-1.6,0c-0.3,0.5-0.6,1-1,1.5l0.7,1.5c0.1,0.2,0.1,0.4,0.1,0.6c-0.1,0.3-0.2,0.5-0.5,0.7l-1.5,1c-0.4,0.3-1,0.2-1.4-0.2l-1.1-1.2
	c-0.6,0.2-1.1,0.3-1.7,0.3l-0.6,1.5C1087.9,465.3,1087.5,465.6,1087.1,465.6z M1082.9,460.6l0.2,0.2c0.5,0.5,1.1,0.9,1.7,1.1
	l0.2,0.1l-0.1,2.1c0,0.2,0.1,0.3,0.3,0.3l1.8,0.4c0.2,0,0.3-0.1,0.4-0.2l0.7-1.9l0.2,0c0.7,0,1.4-0.2,2-0.4l0.2-0.1l1.4,1.5
	c0.1,0.1,0.3,0.1,0.4,0.1l1.5-1c0.1,0,0.1-0.1,0.1-0.2c0-0.1,0-0.1,0-0.2l-0.9-1.9l0.2-0.2c0.5-0.6,0.9-1.1,1.1-1.7l0.1-0.2l2.1,0.1
	c0.2,0,0.3-0.1,0.3-0.3l0.4-1.8c0-0.2-0.1-0.3-0.2-0.4l-1.9-0.7l0-0.2c0-0.7-0.2-1.4-0.4-2.1l-0.1-0.2l1.5-1.4c0,0,0.1-0.1,0.1-0.2
	c0-0.1,0-0.2,0-0.2l-1-1.5c-0.1-0.1-0.3-0.2-0.4-0.1l-1.9,0.9l-0.2-0.2c-0.5-0.4-1.1-0.8-1.7-1.1l-0.2-0.1l0.1-2.1
	c0-0.2-0.1-0.3-0.3-0.4l-1.8-0.4c-0.2,0-0.3,0.1-0.4,0.2l-0.7,2l-0.2,0c-0.7,0-1.4,0.2-2,0.4l-0.2,0.1l-1.4-1.5
	c-0.1-0.1-0.3-0.1-0.4-0.1l-0.8,0.5l-0.8,0.5c-0.1,0-0.1,0.1-0.1,0.2c0,0.1,0,0.1,0,0.2l0.9,1.9l-0.2,0.2c-0.5,0.5-0.8,1.1-1.1,1.7
	l-0.1,0.2l-2.1-0.1c-0.2,0-0.3,0.1-0.3,0.3l-0.4,1.8c0,0.2,0.1,0.3,0.2,0.4l2,0.7l0,0.2c0,0.7,0.2,1.3,0.4,2l0.1,0.2l-1.5,1.4
	c0,0-0.1,0.1-0.1,0.2c0,0.1,0,0.2,0,0.2l1,1.5c0.1,0.1,0.3,0.2,0.4,0.1L1082.9,460.6z M1088,459.7c-0.4,0-0.8-0.1-1.2-0.2
	c-2.3-0.7-3.7-3.1-3-5.5c0.7-2.3,3.1-3.7,5.5-3c2.3,0.7,3.7,3.1,3,5.5c-0.3,1.1-1.1,2.1-2.1,2.6
	C1089.5,459.6,1088.8,459.7,1088,459.7z M1088,451.7c-1.6,0-3,1-3.5,2.6c-0.6,1.9,0.6,4,2.5,4.5c0.9,0.3,1.9,0.2,2.8-0.3
	c0.9-0.5,1.5-1.2,1.8-2.2c0.6-1.9-0.6-4-2.5-4.5l0,0C1088.7,451.7,1088.4,451.7,1088,451.7z"/>
<path d="M1075.7,450c-0.1,0-0.1,0-0.2,0l-1.3-0.3c-0.4-0.1-0.7-0.5-0.7-0.9l0-1.1c-0.3-0.2-0.7-0.4-1-0.7l-1,0.4
	c-0.4,0.2-0.9,0-1.1-0.3l-0.7-1.1c-0.2-0.4-0.2-0.9,0.2-1.1l0.8-0.8c-0.1-0.4-0.2-0.8-0.2-1.2l-1-0.4c-0.4-0.2-0.6-0.6-0.5-1
	l0.3-1.3c0-0.2,0.2-0.4,0.4-0.6c0.2-0.1,0.3-0.1,0.5-0.1l1.2,0.1c0.2-0.3,0.4-0.7,0.7-0.9l-0.4-1c-0.2-0.4,0-0.9,0.3-1.1l1.1-0.7
	c0.4-0.2,0.8-0.2,1.1,0.1l0.8,0.8c0.4-0.1,0.8-0.2,1.2-0.2l0.4-1c0.1-0.2,0.2-0.3,0.3-0.4c0.2-0.1,0.4-0.2,0.7-0.1l1.3,0.3
	c0.4,0.1,0.7,0.5,0.7,0.9v0l0,1.1c0.3,0.2,0.7,0.4,1,0.7l1-0.4c0.4-0.2,0.9,0,1.1,0.3l0.7,1.1c0.2,0.4,0.2,0.8-0.2,1.1l-0.8,0.8
	c0.1,0.4,0.2,0.8,0.2,1.2l1,0.4c0.4,0.2,0.6,0.6,0.5,1l-0.3,1.3c-0.1,0.2-0.2,0.4-0.4,0.6c-0.2,0.1-0.3,0.1-0.5,0.1l-1.1,0
	c-0.2,0.4-0.4,0.7-0.7,1l0.4,1c0.2,0.4,0,0.9-0.3,1.1l-1.1,0.7c-0.4,0.2-0.8,0.2-1.1-0.1l-0.8-0.8c-0.4,0.1-0.8,0.2-1.2,0.2l-0.4,1
	c-0.1,0.2-0.2,0.3-0.3,0.4C1076,449.9,1075.8,450,1075.7,450z M1072.7,446.1l0.2,0.2c0.4,0.3,0.8,0.6,1.2,0.8l0.2,0.1l-0.1,1.6
	c0,0.1,0,0.1,0.1,0.2l1.3,0.3c0,0,0.1,0,0.1,0c0,0,0.1-0.1,0.1-0.1l0.6-1.5l0.2,0c0.5,0,1-0.1,1.4-0.3l0.2-0.1l1.1,1.2
	c0,0.1,0.1,0.1,0.2,0l1.1-0.7c0.1,0,0.1-0.1,0.1-0.2l-0.6-1.5l0.2-0.2c0.3-0.4,0.6-0.8,0.8-1.2l0.1-0.2l1.6,0.1c0,0,0.1,0,0.1,0
	c0,0,0.1-0.1,0.1-0.1l0.3-1.3c0-0.1,0-0.1-0.1-0.2l-1.5-0.6l0-0.2c0-0.5-0.1-1-0.3-1.4l-0.1-0.2l1.2-1.1c0,0,0.1-0.1,0-0.2l-0.7-1.1
	c0-0.1-0.1-0.1-0.2-0.1l-1.5,0.6l-0.2-0.2c-0.4-0.3-0.8-0.6-1.2-0.8l-0.2-0.1l0.1-1.6c0-0.1-0.1-0.2-0.1-0.2l-1.3-0.3
	c0,0-0.1,0-0.1,0c0,0,0,0-0.1,0.1l-0.6,1.5l-0.2,0c-0.5,0-1,0.1-1.4,0.3l-0.2,0.1l-1.1-1.2c0,0-0.1-0.1-0.2,0l-1.1,0.7
	c-0.1,0-0.1,0.1-0.1,0.2l0.6,1.5l-0.2,0.2c-0.3,0.3-0.6,0.7-0.8,1.2l-0.1,0.2l-1.6-0.1c0,0-0.1,0-0.1,0c0,0,0,0,0,0.1l-0.3,1.3
	c0,0.1,0,0.1,0.1,0.2l1.5,0.6l0,0.2c0,0.5,0.1,1,0.3,1.4l0.1,0.2l-1.2,1.1c-0.1,0.1-0.1,0.1,0,0.2l0.7,1.1c0,0.1,0.1,0.1,0.2,0.1
	L1072.7,446.1z M1076.4,445.7c-1.2,0-2.3-0.6-2.9-1.7c-0.9-1.6-0.2-3.6,1.4-4.5l0,0c1.6-0.9,3.6-0.2,4.5,1.4
	c0.4,0.8,0.5,1.7,0.2,2.5c-0.3,0.8-0.8,1.5-1.6,2C1077.5,445.6,1077,445.7,1076.4,445.7z M1075.2,440.1c-1.2,0.7-1.7,2.2-1.1,3.5
	c0.7,1.2,2.2,1.7,3.5,1.1c0.6-0.3,1.1-0.9,1.3-1.5c0.2-0.7,0.1-1.4-0.2-2C1078,440,1076.5,439.5,1075.2,440.1z"/>
<g>
	<path d="M1100.4,436l-3.6-4.8h2.2c-0.2-1.7-1.6-3-3.4-3c-0.6,0-1.2,0.2-1.7,0.5l-0.3,0.2l-1.6-2.1l0.3-0.2c1-0.6,2.1-1,3.3-1
		c3.2,0,5.8,2.5,6,5.7h2.3L1100.4,436z M1098.3,432l2.1,2.8l2.1-2.8h-1.5v-0.4c0-2.9-2.4-5.3-5.3-5.3c-0.9,0-1.8,0.2-2.5,0.6
		l0.7,0.9c0.6-0.3,1.2-0.4,1.8-0.4c2.3,0,4.1,1.9,4.1,4.1v0.4H1098.3z"/>
	<path d="M1095.7,437.6c-3.2,0-5.8-2.5-6-5.7h-2.3l3.6-4.8l3.6,4.8h-2.2c0.2,1.7,1.6,3,3.4,3c0.6,0,1.2-0.2,1.7-0.5l0.3-0.2l1.6,2.1
		l-0.3,0.2C1098,437.3,1096.9,437.6,1095.7,437.6z M1088.9,431.2h1.5v0.4c0,2.9,2.4,5.3,5.3,5.3c0.9,0,1.8-0.2,2.5-0.7l-0.7-0.9
		c-0.6,0.3-1.2,0.4-1.8,0.4c-2.3,0-4.1-1.9-4.1-4.1v-0.4h1.5l-2.1-2.8L1088.9,431.2z"/>
</g>
<path class="st257" d="M998.7,220.1h-19.2c-3.2,0-3.2,5.1,0,5.1h19.2V220.1z"/>
<path class="st257" d="M989.3,267.5h-9.8c-3.2,0-3.2,5,0,5h9.8V267.5z"/>
<path class="st257" d="M1015.5,236h14c3.2,0,3.2-5.1,0-5.1h-14V236z"/>
<path class="st257" d="M1008.9,247.3h20.7c3.2,0,3.2-5.1,0-5.1h-20.7V247.3z"/>
<path class="st257" d="M991.4,280.5h-11.9c-3.2,0-3.2,5.1,0,5.1h11.9V280.5z"/>
<path class="st255" d="M966.9,207.5v94.1h76.7v-81l-13.5-13H966.9z M1037.4,295.3h-64.2v-81.5h53.8v9.9h10.4V295.3z M1037.4,295.3"
	/>
<path class="st256" d="M983.5,193.1V204h6.3v-4.6h49.5v9.9h10.4v71.6h-2.8v6.3h9v-81l-13.5-13H983.5z"/>
<g>
	<g>
		<g>
			<path d="M1022,270c0,3.6-2.9,6.5-6.5,6.5c-3.6,0-6.5-2.9-6.5-6.5c0-3.6,2.9-6.5,6.5-6.5C1019.1,263.5,1022,266.4,1022,270z
				 M1015.5,266.9c-1.7,0-3.1,1.4-3.1,3.1c0,1.7,1.4,3.1,3.1,3.1c1.7,0,3.1-1.4,3.1-3.1C1018.7,268.3,1017.3,266.9,1015.5,266.9z
				 M1017.1,265.4c0-0.4-0.3-0.7-0.7-0.7h-2c-0.4,0-0.7,0.3-0.7,0.7l0,0c0,0.4,0.3,0.7,0.7,0.7h2
				C1016.7,266.2,1017.1,265.8,1017.1,265.4L1017.1,265.4z M1016.8,265.4c0,0.3-0.3,0.5-0.6,0.5h-1.7c-0.3,0-0.6-0.2-0.6-0.5l0,0
				c0-0.3,0.3-0.5,0.6-0.5h1.7C1016.5,264.9,1016.8,265.2,1016.8,265.4L1016.8,265.4z M1017.1,274.5c0-0.4-0.3-0.7-0.7-0.7h-2
				c-0.4,0-0.7,0.3-0.7,0.7l0,0c0,0.4,0.3,0.7,0.7,0.7h2C1016.7,275.3,1017.1,274.9,1017.1,274.5L1017.1,274.5z M1016.8,274.5
				c0,0.3-0.3,0.5-0.6,0.5h-1.7c-0.3,0-0.6-0.2-0.6-0.5l0,0c0-0.3,0.3-0.5,0.6-0.5h1.7C1016.5,274,1016.8,274.3,1016.8,274.5
				L1016.8,274.5z M1020.3,269.2c0.3-0.2,0.5-0.7,0.3-1l-1-1.7c-0.2-0.3-0.7-0.5-1-0.3l0,0c-0.3,0.2-0.5,0.7-0.3,1l1,1.7
				C1019.5,269.3,1020,269.4,1020.3,269.2L1020.3,269.2z M1020.2,269c-0.2,0.1-0.6,0-0.7-0.3l-0.8-1.4c-0.2-0.3-0.1-0.6,0.1-0.8l0,0
				c0.2-0.1,0.6,0,0.7,0.3l0.8,1.4C1020.5,268.5,1020.4,268.8,1020.2,269L1020.2,269z M1010.6,269.2c0.3,0.2,0.8,0.1,1-0.3l1-1.7
				c0.2-0.3,0.1-0.8-0.3-1l0,0c-0.3-0.2-0.8-0.1-1,0.3l-1,1.7C1010.1,268.6,1010.2,269,1010.6,269.2L1010.6,269.2z M1010.7,269
				c-0.2-0.1-0.3-0.5-0.1-0.8l0.8-1.4c0.2-0.3,0.5-0.4,0.7-0.3l0,0c0.2,0.1,0.3,0.5,0.1,0.8l-0.8,1.4
				C1011.3,269,1011,269.1,1010.7,269L1010.7,269z M1020.3,270.8c-0.3-0.2-0.8-0.1-1,0.3l-1,1.7c-0.2,0.3-0.1,0.8,0.3,1l0,0
				c0.3,0.2,0.8,0.1,1-0.3l1-1.7C1020.8,271.5,1020.7,271,1020.3,270.8L1020.3,270.8z M1020.2,271c0.2,0.1,0.3,0.5,0.1,0.8l-0.8,1.4
				c-0.2,0.3-0.5,0.4-0.7,0.3l0,0c-0.2-0.1-0.3-0.5-0.1-0.8l0.8-1.4C1019.6,271,1019.9,270.9,1020.2,271L1020.2,271z M1010.6,270.8
				c-0.3,0.2-0.5,0.7-0.3,1l1,1.7c0.2,0.3,0.7,0.5,1,0.3l0,0c0.3-0.2,0.5-0.7,0.3-1l-1-1.7C1011.4,270.7,1010.9,270.6,1010.6,270.8
				L1010.6,270.8z M1010.7,271c0.2-0.1,0.6,0,0.7,0.3l0.8,1.4c0.2,0.3,0.1,0.6-0.1,0.8l0,0c-0.2,0.1-0.6,0-0.7-0.3l-0.8-1.4
				C1010.4,271.5,1010.5,271.2,1010.7,271L1010.7,271z"/>
		</g>
	</g>
</g>
<g>
	<g>
		<g>
			<path d="M1015.5,272.3c-1.3,0-2.3-1-2.3-2.3c0-1.3,1-2.3,2.3-2.3c1.3,0,2.3,1,2.3,2.3C1017.8,271.3,1016.8,272.3,1015.5,272.3z
				 M1015.5,268.1c-1,0-1.9,0.9-1.9,1.9c0,1,0.9,1.9,1.9,1.9c1,0,1.9-0.9,1.9-1.9C1017.4,268.9,1016.6,268.1,1015.5,268.1z"/>
		</g>
	</g>
</g>
<g>
	<g>
		<g>
			<g>
				<g>
					<path d="M1015.5,284c-7.7,0-14-6.3-14-14c0-7.7,6.3-14,14-14c7.7,0,14,6.3,14,14C1029.6,277.7,1023.3,284,1015.5,284z
						 M1015.5,256.4c-7.5,0-13.5,6.1-13.5,13.5c0,7.5,6.1,13.5,13.5,13.5c7.5,0,13.5-6.1,13.5-13.5
						C1029.1,262.5,1023,256.4,1015.5,256.4z M1014.6,283.1c-0.1,0-0.2,0-0.3,0c-0.4-0.1-0.5-0.6-0.4-0.9l1.3-3.3
						c0.1-0.2,0.2-0.3,0.4-0.4c0.2-0.1,0.4-0.1,0.5,0c0.2,0.1,0.3,0.2,0.4,0.4c0.1,0.2,0.1,0.4,0,0.5l-1.3,3.3
						C1015.2,282.9,1014.9,283.1,1014.6,283.1z M1016,278.8C1015.9,278.8,1015.9,278.8,1016,278.8c-0.1,0-0.2,0.1-0.2,0.1l-1.3,3.3
						c0,0.1,0,0.2,0.1,0.3c0.1,0,0.2,0,0.3-0.1l1.3-3.3c0-0.1,0-0.1,0-0.2C1016.1,278.9,1016.1,278.9,1016,278.8
						C1016,278.8,1016,278.8,1016,278.8z M1018.9,282.6c-0.4,0-0.7-0.3-0.7-0.7v-3.6c0-0.4,0.3-0.7,0.7-0.7c0.4,0,0.7,0.3,0.7,0.7
						v3.6C1019.6,282.3,1019.3,282.6,1018.9,282.6z M1018.9,278.1c-0.1,0-0.2,0.1-0.2,0.2v3.6c0,0.1,0.1,0.2,0.2,0.2
						c0.1,0,0.2-0.1,0.2-0.2v-3.6C1019.1,278.2,1019,278.1,1018.9,278.1z M1010.6,282c-0.2,0-0.3-0.1-0.5-0.2
						c-0.3-0.3-0.3-0.7-0.1-1l0,0l2.4-2.7c0.3-0.3,0.7-0.3,1-0.1c0.3,0.3,0.3,0.7,0,1l-2.4,2.7C1011,281.9,1010.8,282,1010.6,282z
						 M1010.5,281.2c-0.1,0.1-0.1,0.2,0,0.3c0.1,0.1,0.2,0.1,0.3,0l2.4-2.7c0.1-0.1,0.1-0.2,0-0.3c-0.1-0.1-0.2-0.1-0.3,0
						L1010.5,281.2z M1022.7,280.6c-0.1,0-0.2,0-0.4-0.1c-0.2-0.1-0.3-0.2-0.3-0.4l-0.9-3.5c-0.1-0.4,0.1-0.8,0.5-0.9
						c0.4-0.1,0.8,0.1,0.9,0.5l0.9,3.5c0,0.2,0,0.4-0.1,0.5c-0.1,0.2-0.2,0.3-0.4,0.3C1022.8,280.6,1022.8,280.6,1022.7,280.6z
						 M1021.7,276.3C1021.7,276.3,1021.7,276.3,1021.7,276.3c-0.2,0-0.2,0.1-0.2,0.3l0.9,3.5c0,0.1,0,0.1,0.1,0.1c0,0,0.1,0,0.2,0
						c0.1,0,0.1,0,0.1-0.1c0,0,0-0.1,0-0.2l-0.9-3.5C1021.9,276.3,1021.8,276.3,1021.7,276.3z M1007,280c-0.2,0-0.5-0.1-0.6-0.3
						c-0.2-0.3-0.1-0.8,0.2-1l0,0l3-2c0.3-0.2,0.8-0.1,1,0.2c0.2,0.3,0.1,0.8-0.2,1l-3,2C1007.3,279.9,1007.2,280,1007,280z
						 M1006.9,279.1c-0.1,0.1-0.1,0.2-0.1,0.3c0.1,0.1,0.2,0.1,0.3,0.1l3-2c0.1-0.1,0.1-0.2,0.1-0.3c-0.1-0.1-0.2-0.1-0.3-0.1
						L1006.9,279.1z M1015.5,278.3c-4.6,0-8.3-3.7-8.3-8.3c0-4.3,3.3-7.9,7.5-8.2c-0.1,0-0.1,0-0.2,0c-0.4-0.1-0.6-0.5-0.4-0.9
						l1.2-3.4c0.1-0.4,0.5-0.6,0.9-0.4c0.2,0.1,0.3,0.2,0.4,0.4c0.1,0.2,0.1,0.4,0,0.5l-1.2,3.4c-0.1,0.2-0.2,0.3-0.4,0.4
						c-0.1,0-0.1,0-0.2,0.1c0.2,0,0.4,0,0.6,0c4.6,0,8.3,3.7,8.3,8.3c0,0.2,0,0.4,0,0.6c0,0,0,0,0,0c0.1-0.2,0.3-0.3,0.4-0.3
						c0.2,0,0.4,0,0.5,0.1l3.1,1.8c0.2,0.1,0.3,0.3,0.3,0.4c0,0.2,0,0.4-0.1,0.5c-0.1,0.2-0.2,0.3-0.4,0.3c-0.2,0-0.4,0-0.5-0.1
						l-3.1-1.8c-0.2-0.1-0.3-0.3-0.3-0.4c-0.1,0.9-0.4,1.7-0.7,2.5c0,0,0,0,0,0c0.3-0.3,0.7-0.2,1,0.1l2.4,2.7
						c0.1,0.1,0.2,0.3,0.2,0.5c0,0.2-0.1,0.4-0.2,0.5c-0.1,0.1-0.3,0.2-0.5,0.2c-0.2,0-0.4-0.1-0.5-0.2l-2.4-2.7
						c-0.1-0.2-0.2-0.4-0.2-0.6C1021.4,276.5,1018.7,278.3,1015.5,278.3z M1015.5,262.2c-4.3,0-7.8,3.5-7.8,7.8
						c0,4.3,3.5,7.8,7.8,7.8c4.3,0,7.8-3.5,7.8-7.8C1023.3,265.7,1019.8,262.2,1015.5,262.2z M1023.5,273.8c0,0-0.1,0-0.1,0.1
						c-0.1,0.1-0.1,0.2,0,0.3l2.4,2.7c0,0,0.1,0.1,0.1,0.1c0.1,0,0.1,0,0.1-0.1c0,0,0.1-0.1,0.1-0.1c0-0.1,0-0.1-0.1-0.1l-2.4-2.7
						C1023.6,273.9,1023.6,273.8,1023.5,273.8z M1024.4,270.7C1024.4,270.7,1024.4,270.7,1024.4,270.7c-0.1,0-0.1,0.1-0.2,0.1
						c-0.1,0.1,0,0.2,0.1,0.3l3.1,1.8c0,0,0.1,0,0.2,0c0.1,0,0.1,0,0.1-0.1c0,0,0-0.1,0-0.2c0-0.1,0-0.1-0.1-0.1l-3.1-1.8
						C1024.5,270.7,1024.5,270.7,1024.4,270.7z M1016,257.4c-0.1,0-0.2,0.1-0.2,0.1l-1.2,3.4c0,0.1,0,0.2,0.1,0.3c0.1,0,0.1,0,0.2,0
						c0,0,0.1-0.1,0.1-0.1l1.2-3.4c0-0.1,0-0.1,0-0.2C1016.2,257.5,1016.1,257.5,1016,257.4C1016,257.4,1016,257.4,1016,257.4z
						 M1004.5,276.1c-0.4,0-0.7-0.3-0.7-0.7c0-0.4,0.3-0.7,0.7-0.7h0l3.6-0.1c0.4,0,0.7,0.3,0.7,0.7c0,0.4-0.3,0.7-0.7,0.7
						L1004.5,276.1C1004.5,276.1,1004.5,276.1,1004.5,276.1z M1004.4,275.2c-0.1,0-0.2,0.1-0.2,0.2c0,0.1,0.1,0.2,0.2,0.2l3.6-0.1
						c0.1,0,0.2-0.1,0.2-0.2c0-0.1-0.1-0.2-0.2-0.2L1004.4,275.2z M1006.6,272.8c-0.1,0-0.1,0-0.2,0l-3.5-0.8
						c-0.4-0.1-0.6-0.5-0.5-0.8c0.1-0.4,0.5-0.6,0.8-0.5l3.5,0.8c0.2,0,0.3,0.2,0.4,0.3c0.1,0.2,0.1,0.4,0.1,0.5
						c0,0.2-0.2,0.3-0.3,0.4C1006.9,272.8,1006.7,272.8,1006.6,272.8z M1003.1,271.1c-0.1,0-0.2,0.1-0.2,0.2c0,0.1,0,0.2,0.2,0.2
						l3.5,0.8c0.1,0,0.1,0,0.2,0c0,0,0.1-0.1,0.1-0.1c0-0.1,0-0.1,0-0.2c0,0-0.1-0.1-0.1-0.1L1003.1,271.1
						C1003.1,271.1,1003.1,271.1,1003.1,271.1z M1006.5,269.8c-0.1,0-0.2,0-0.4-0.1l-3.1-1.8c-0.3-0.2-0.4-0.6-0.3-1
						c0.1-0.2,0.3-0.3,0.4-0.3c0.2,0,0.4,0,0.5,0.1l3.1,1.8c0.3,0.2,0.4,0.6,0.3,1c-0.1,0.2-0.2,0.3-0.4,0.3
						C1006.6,269.8,1006.5,269.8,1006.5,269.8z M1003.4,267C1003.4,267,1003.3,267,1003.4,267c-0.1,0-0.2,0.1-0.2,0.1
						c-0.1,0.1,0,0.2,0.1,0.3l3.1,1.8c0,0,0.1,0,0.2,0c0.1,0,0.1,0,0.1-0.1c0.1-0.1,0-0.2-0.1-0.3L1003.4,267
						C1003.4,267,1003.4,267,1003.4,267z M1027.8,269.3c-0.1,0-0.1,0-0.2,0l-3.5-0.8c-0.4-0.1-0.6-0.5-0.5-0.8
						c0.1-0.4,0.5-0.6,0.8-0.5l3.5,0.8c0.4,0.1,0.6,0.5,0.5,0.8c0,0.2-0.2,0.3-0.3,0.4C1028.1,269.3,1027.9,269.3,1027.8,269.3z
						 M1024.3,267.6c-0.1,0-0.2,0.1-0.2,0.2c0,0.1,0,0.2,0.2,0.2l3.5,0.8c0.1,0,0.1,0,0.2,0c0,0,0.1-0.1,0.1-0.1
						c0-0.1,0-0.2-0.2-0.2L1024.3,267.6C1024.3,267.6,1024.3,267.6,1024.3,267.6z M1007.4,266.6c-0.2,0-0.4-0.1-0.5-0.2l-2.4-2.7
						c-0.3-0.3-0.2-0.7,0.1-1c0.1-0.1,0.3-0.2,0.5-0.2c0.2,0,0.4,0.1,0.5,0.2l2.4,2.7c0.3,0.3,0.2,0.7-0.1,1
						C1007.7,266.5,1007.6,266.6,1007.4,266.6z M1005,263c-0.1,0-0.1,0-0.1,0.1c-0.1,0.1-0.1,0.2,0,0.3l2.4,2.7
						c0.1,0.1,0.2,0.1,0.3,0c0.1-0.1,0.1-0.2,0-0.3l-2.4-2.7C1005.1,263,1005.1,263,1005,263C1005,263,1005,263,1005,263z
						 M1022.8,265.4c-0.2,0-0.3-0.1-0.5-0.2c-0.1-0.1-0.2-0.3-0.2-0.5c0-0.4,0.3-0.7,0.7-0.7l3.6-0.1c0.4,0,0.7,0.3,0.7,0.7
						c0,0.4-0.3,0.7-0.7,0.7h0L1022.8,265.4C1022.9,265.4,1022.9,265.4,1022.8,265.4z M1026.4,264.3
						C1026.4,264.3,1026.4,264.3,1026.4,264.3l-3.6,0.1c-0.1,0-0.2,0.1-0.2,0.2c0,0.1,0,0.1,0.1,0.1c0,0,0.1,0.1,0.1,0.1l3.6-0.1
						c0.1,0,0.2-0.1,0.2-0.2C1026.6,264.4,1026.5,264.3,1026.4,264.3z M1009.1,264.2c-0.3,0-0.6-0.2-0.7-0.5l-0.9-3.5
						c-0.1-0.4,0.1-0.8,0.5-0.9c0.2,0,0.4,0,0.5,0.1c0.2,0.1,0.3,0.2,0.3,0.4l0.9,3.5c0.1,0.4-0.1,0.8-0.5,0.9
						C1009.3,264.2,1009.2,264.2,1009.1,264.2z M1008.2,259.8C1008.2,259.8,1008.2,259.8,1008.2,259.8c-0.2,0-0.2,0.1-0.2,0.3
						l0.9,3.5c0,0.1,0.1,0.2,0.3,0.1c0.1,0,0.2-0.1,0.1-0.3l-0.9-3.5C1008.4,259.8,1008.3,259.8,1008.2,259.8z M1020.9,263.4
						c-0.2,0-0.5-0.1-0.6-0.3c-0.2-0.3-0.1-0.8,0.2-1l3-2c0.3-0.2,0.8-0.1,1,0.2c0.1,0.2,0.1,0.3,0.1,0.5c0,0.2-0.1,0.3-0.3,0.4
						l-3,2C1021.1,263.3,1021,263.4,1020.9,263.4z M1023.9,260.5c0,0-0.1,0-0.1,0l-3,2c-0.1,0.1-0.1,0.2-0.1,0.3
						c0.1,0.1,0.2,0.1,0.3,0.1l3-2c0,0,0.1-0.1,0.1-0.1c0-0.1,0-0.1,0-0.2C1024,260.5,1023.9,260.5,1023.9,260.5z M1011.9,262.4
						c-0.4,0-0.7-0.3-0.7-0.7v-3.6c0-0.4,0.3-0.7,0.7-0.7c0.4,0,0.7,0.3,0.7,0.7v3.6C1012.6,262.1,1012.3,262.4,1011.9,262.4z
						 M1011.9,257.9c-0.1,0-0.2,0.1-0.2,0.2v3.6c0,0.1,0.1,0.2,0.2,0.2s0.2-0.1,0.2-0.2v-3.6C1012.1,258,1012,257.9,1011.9,257.9z
						 M1017.8,262c-0.2,0-0.3-0.1-0.5-0.2c-0.3-0.3-0.3-0.7-0.1-1l2.4-2.7c0.3-0.3,0.7-0.3,1-0.1c0.3,0.3,0.3,0.7,0.1,1l0,0
						l-2.4,2.7C1018.2,261.9,1018,262,1017.8,262z M1020.3,258.4c-0.1,0-0.1,0-0.2,0.1l-2.4,2.7c-0.1,0.1-0.1,0.2,0,0.3
						c0.1,0.1,0.2,0.1,0.3,0l2.4-2.7c0.1-0.1,0.1-0.2,0-0.3C1020.3,258.4,1020.3,258.4,1020.3,258.4z"/>
				</g>
			</g>
		</g>
	</g>
</g>
<g>
	<g>
		<path d="M980.6,257.1h-1.1v-2.3l1.1,1.1V257.1z M979.8,256.8h0.4v-0.7l-0.4-0.4V256.8z"/>
	</g>
	<g>
		<path d="M980.5,259.5c-0.5,0-0.8-0.2-0.8-0.2l0,0l-1.7-1.8l0.8-0.8l1.4,1.6c0.1,0.1,0.2,0.1,0.2,0.1c0.1,0,0.2-0.1,0.2-0.1l0,0
			l0.7-0.9l0.7,0.8l-0.9,1.2l0,0C981,259.4,980.8,259.5,980.5,259.5z M979.9,259c0.1,0,0.5,0.3,1.2,0.1l0.6-0.9l-0.3-0.3l-0.5,0.6
			c0,0-0.2,0.2-0.4,0.2c-0.2,0-0.4-0.1-0.5-0.2l-1.2-1.3l-0.4,0.3L979.9,259z"/>
	</g>
	<g>
		<path d="M983.4,258.8c-0.2,0-0.4-0.1-0.5-0.2l-5.2-5c-0.3-0.3-0.3-0.8,0-1.1l5.1-5.2c0.1-0.2,0.3-0.2,0.6-0.2c0,0,0,0,0,0
			c0.2,0,0.4,0.1,0.5,0.2l5.2,5c0.1,0.1,0.2,0.3,0.2,0.5c0,0.2-0.1,0.4-0.2,0.5l-5.1,5.2C983.8,258.7,983.7,258.8,983.4,258.8
			C983.4,258.8,983.4,258.8,983.4,258.8z M983.4,247.4C983.4,247.4,983.4,247.4,983.4,247.4c-0.1,0-0.2,0.1-0.3,0.1l-5.1,5.2
			c-0.2,0.2-0.2,0.4,0,0.6l5.2,5c0.1,0.1,0.2,0.1,0.3,0.1c0,0,0,0,0,0c0.1,0,0.2-0.1,0.3-0.1l5.1-5.2c0.1-0.1,0.1-0.2,0.1-0.3
			c0-0.1,0-0.2-0.1-0.3l-5.2-5C983.6,247.4,983.5,247.4,983.4,247.4z"/>
	</g>
	<g>
		<path d="M991,253.7c-0.3,0-0.7-0.4-0.8-0.5l-7.3-7.1c-0.2-0.2-0.7-0.7-0.4-1l1.9-2c0.3-0.3,0.8,0.2,1,0.4l7.3,7.1
			c0.2,0.2,0.7,0.7,0.4,1l-1.9,2C991.2,253.7,991.1,253.7,991,253.7C991,253.7,991,253.7,991,253.7z M990.9,253.4
			C990.9,253.4,990.9,253.4,990.9,253.4L990.9,253.4z M982.8,245.4c0,0.1,0.1,0.3,0.4,0.5l7.3,7.1c0.2,0.2,0.4,0.3,0.5,0.4l1.8-1.9
			c0-0.1-0.1-0.3-0.4-0.5l0,0l-7.3-7.1c-0.2-0.2-0.4-0.3-0.5-0.4L982.8,245.4z"/>
	</g>
	<g>
		<path d="M986.9,244.5c-0.2,0-0.4-0.1-0.6-0.3l-2.7-2.5c-0.3-0.3-0.4-0.7-0.2-1l1.9-2c0.1-0.1,0.2-0.1,0.4-0.2
			c0.2,0,0.4,0.1,0.6,0.3l2.7,2.5c0.2,0.2,0.3,0.4,0.3,0.6c0,0.1,0,0.3-0.1,0.4l-1.9,2C987.2,244.4,987.1,244.5,986.9,244.5
			C986.9,244.5,986.9,244.5,986.9,244.5z M985.7,238.9C985.7,238.9,985.7,238.9,985.7,238.9c-0.1,0-0.1,0-0.1,0l-1.9,2
			c-0.1,0.1,0,0.3,0.1,0.5l2.7,2.5c0.1,0.1,0.2,0.2,0.4,0.2c0,0,0.1,0,0.1,0l1.9-2c0,0,0-0.1,0-0.1c0-0.1-0.1-0.2-0.2-0.4l-2.7-2.5
			C986,239,985.8,238.9,985.7,238.9z"/>
	</g>
	<g>
		<path d="M991.1,248.5c-0.2,0-0.4-0.1-0.6-0.3l-2.7-2.5c-0.2-0.2-0.3-0.4-0.3-0.6c0-0.1,0-0.3,0.1-0.4l1.9-2
			c0.1-0.1,0.2-0.1,0.4-0.2c0.2,0,0.4,0.1,0.6,0.3l2.7,2.5c0.2,0.2,0.3,0.4,0.3,0.6c0,0.1,0,0.3-0.1,0.4l-1.9,2
			C991.3,248.4,991.2,248.5,991.1,248.5C991.1,248.5,991.1,248.5,991.1,248.5z M989.9,242.9C989.9,242.9,989.9,242.9,989.9,242.9
			c0,0-0.1,0-0.1,0l-1.9,2c0,0,0,0.1,0,0.1c0,0.1,0.1,0.2,0.2,0.4l2.7,2.5c0.1,0.1,0.2,0.2,0.4,0.2c0.1,0,0.1,0,0.1,0l1.9-2
			c0,0,0-0.1,0-0.1c0-0.1-0.1-0.2-0.2-0.4l-2.7-2.5C990.1,243,990,242.9,989.9,242.9z"/>
	</g>
	<g>
		<path d="M995.2,252.6c-0.2,0-0.4-0.1-0.6-0.3l-2.7-2.5c-0.3-0.3-0.4-0.7-0.2-1l1.9-2c0.1-0.1,0.2-0.2,0.4-0.2
			c0.2,0,0.4,0.1,0.6,0.3l2.7,2.5c0.2,0.2,0.3,0.4,0.3,0.6c0,0.1,0,0.3-0.1,0.4l-1.9,2C995.5,252.6,995.4,252.6,995.2,252.6
			C995.2,252.6,995.2,252.6,995.2,252.6z M994,247.1C994,247.1,994,247.1,994,247.1c0,0-0.1,0-0.1,0l-1.9,2c-0.1,0.1,0,0.3,0.1,0.5
			l2.7,2.5c0.1,0.1,0.2,0.2,0.4,0.2c0,0,0,0,0,0c0,0,0.1,0,0.1,0l1.9-2c0,0,0-0.1,0-0.1c0-0.1-0.1-0.2-0.2-0.4l-2.7-2.5
			C994.3,247.2,994.1,247.1,994,247.1z"/>
	</g>
	<g>
		<path d="M997,248.8c-0.2,0-0.4-0.1-0.5-0.2l-9.2-9.1c-0.1-0.1-0.2-0.3-0.2-0.6c0-0.2,0.1-0.4,0.3-0.6l0.1-0.1
			c0.2-0.2,0.4-0.3,0.7-0.3c0.2,0,0.4,0.1,0.5,0.2l9.2,9.1l0,0c0.3,0.3,0.3,0.8-0.1,1.1l-0.1,0.1C997.5,248.7,997.2,248.8,997,248.8
			C997,248.8,997,248.8,997,248.8z M988.2,238.3C988.2,238.3,988.2,238.3,988.2,238.3c-0.1,0-0.3,0.1-0.4,0.2l-0.1,0.1
			c-0.1,0.1-0.2,0.2-0.2,0.4c0,0.1,0,0.2,0.1,0.3l9.2,9.1c0.1,0.1,0.2,0.1,0.2,0.1c0.1,0,0.3-0.1,0.4-0.2l0.1-0.1
			c0.2-0.2,0.2-0.5,0.1-0.7l0,0l-9.2-9.1C988.3,238.3,988.2,238.3,988.2,238.3z"/>
	</g>
	<g>
		<path d="M1006.9,233.4c-0.1,0-0.2,0-0.3-0.1l-3.9-3.9c-0.2-0.2-0.1-0.4,0-0.6l0.1-0.1c0.1-0.1,0.2-0.2,0.3-0.2c0,0,0,0,0,0
			c0.1,0,0.2,0,0.3,0.1l3.9,3.9c0.1,0.1,0.1,0.2,0.1,0.3c0,0.1-0.1,0.3-0.1,0.4l-0.1,0.1C1007.2,233.3,1007.1,233.4,1006.9,233.4
			C1006.9,233.4,1006.9,233.4,1006.9,233.4z M1003.2,228.9C1003.2,228.9,1003.2,228.9,1003.2,228.9c0,0-0.1,0-0.1,0.1l-0.1,0.1
			c-0.1,0.1-0.1,0.1,0,0.1l3.9,3.9c0,0,0,0,0,0c0,0,0.1,0,0.1-0.1l0.1-0.1c0,0,0-0.1,0-0.1c0,0,0,0,0,0l0,0L1003.2,228.9
			C1003.2,228.9,1003.2,228.9,1003.2,228.9z"/>
	</g>
	<g>
		<path d="M1006.1,230.8c-0.2,0-0.4-0.2-0.5-0.3l-0.1-0.1c-0.1-0.1-0.2-0.2-0.2-0.3c-0.1-0.2-0.1-0.3,0-0.4l1.8-1.8
			c0.2-0.2,0.5,0.1,0.6,0.2l0.1,0.1c0.1,0.1,0.3,0.3,0.3,0.5c0,0.1,0,0.1-0.1,0.2l-1.8,1.8C1006.2,230.8,1006.2,230.8,1006.1,230.8
			C1006.1,230.8,1006.1,230.8,1006.1,230.8z M1006,230.5C1006,230.5,1006,230.5,1006,230.5L1006,230.5z M1005.6,230
			c0,0,0.1,0.1,0.2,0.2l0.1,0.1c0.1,0.1,0.2,0.1,0.2,0.2l1.6-1.7c0,0-0.1-0.1-0.2-0.2l-0.1-0.1c-0.1-0.1-0.2-0.1-0.2-0.2L1005.6,230
			z M1005.6,230.1L1005.6,230.1C1005.6,230.1,1005.6,230.1,1005.6,230.1z M1007.8,228.7C1007.8,228.7,1007.8,228.7,1007.8,228.7
			L1007.8,228.7z"/>
	</g>
	<g>
		<path d="M997.2,246.3l-3-3l-1.1-1.1l-3-3l2.1-0.5l0.5-1.6l2.2-0.4l0.5-1.6l1.8-0.3l0.4-1.5l2-0.5l0.3-1.5l1.9-0.6l0.4-1.1l2.5,2
			l0.2,0.2l2,2.5l-1.1,0.4l-0.6,1.9l-1.5,0.3l-0.5,2l-1.5,0.4l-0.3,1.8l-1.6,0.5l-0.4,2.2l-1.6,0.5L997.2,246.3z M990.7,239.2
			l2.6,2.6l1.1,1.1l2.6,2.6l0.4-1.7l1.6-0.5l0.4-2.2l1.6-0.5l0.3-1.9l1.5-0.4l0.5-2.1l1.5-0.3l0.6-1.8l0.8-0.3l-1.7-2.1l-0.2-0.2
			l-2.1-1.7l-0.3,0.8l-1.8,0.6l-0.3,1.5l-2.1,0.5l-0.4,1.5l-1.9,0.3l-0.5,1.6l-2.2,0.4l-0.5,1.6L990.7,239.2z"/>
	</g>
</g>
<path class="st258" d="M888.2,103.1c-5.1,0-9.6,3.9-9.6,10.2c0,5.5,4.4,10.2,9.6,10.2c5.2,0,9.6-4.7,9.6-10.2
	C897.8,107,893.4,103.1,888.2,103.1 M888.2,118c-0.7,0.8-2.2,0.8-2.9,0c-5.2-5.5-5.2-5.5-5.2-5.5c3.7,0,3.7,0,3.7,0
	c2.9,3.9,2.9,3.9,2.9,3.9c5.9-6.2,5.9-6.2,5.9-6.2c2.9,0,2.9,0,2.9,0L888.2,118L888.2,118z"/>
<path class="st259" d="M893.3,127.5L893.3,127.5c-0.7-0.8-0.7-0.8-0.7-0.8V126c1.5-0.8,2.9-1.5,4.4-2.3l0,0c2.2-2.3,4.4-6.1,4.4-9.9
	c0-7.6-5.8-13.7-13.1-13.7c-7.3,0-13.1,6.1-13.1,13.7c0,6.8,5.9,12.9,13.1,12.9c0.7,0,0.7,0,1.5,0c2.2,6.8,2.2,6.8,2.2,6.8
	c8.8,3,8.8,3,8.8,3c-3.7-11.4-3.7-11.4-3.7-11.4C896.3,126,894.8,126.7,893.3,127.5 M888.2,124.4c-5.8,0-10.2-5.3-10.2-10.6
	c0-6.1,4.4-10.6,10.2-10.6c5.9,0,10.2,4.6,10.2,10.6C898.4,119.1,894.1,124.4,888.2,124.4"/>
<path class="st260" d="M879.7,125.2c-3.4,11.4-3.4,11.4-3.4,11.4c8.2-3,8.2-3,8.2-3c1.3-5.3,1.3-5.3,1.3-5.3c-1.3,0-2.7-0.8-4.1-1.5
	C881,126,880.4,126,879.7,125.2"/>
<path class="st258" d="M888.2,144.5c-5.1,0-9.6,3.9-9.6,10.2c0,5.5,4.4,10.2,9.6,10.2c5.2,0,9.6-4.7,9.6-10.2
	C897.8,148.4,893.4,144.5,888.2,144.5 M888.2,159.3c-0.7,0.8-2.2,0.8-2.9,0c-5.2-5.5-5.2-5.5-5.2-5.5c3.7,0,3.7,0,3.7,0
	c2.9,3.9,2.9,3.9,2.9,3.9c5.9-6.2,5.9-6.2,5.9-6.2c2.9,0,2.9,0,2.9,0L888.2,159.3L888.2,159.3z"/>
<path class="st259" d="M893.3,168.8L893.3,168.8c-0.7-0.7-0.7-0.7-0.7-0.7v-0.7c1.5-0.8,2.9-1.5,4.4-2.3l0,0
	c2.2-2.3,4.4-6.1,4.4-9.9c0-7.6-5.8-13.7-13.1-13.7c-7.3,0-13.1,6.1-13.1,13.7c0,6.8,5.9,12.9,13.1,12.9c0.7,0,0.7,0,1.5,0
	c2.2,6.8,2.2,6.8,2.2,6.8c8.8,3,8.8,3,8.8,3c-3.7-11.4-3.7-11.4-3.7-11.4C896.3,167.3,894.8,168.1,893.3,168.8 M888.2,165.8
	c-5.8,0-10.2-5.3-10.2-10.6c0-6.1,4.4-10.6,10.2-10.6c5.9,0,10.2,4.6,10.2,10.6C898.4,160.5,894.1,165.8,888.2,165.8"/>
<path class="st260" d="M879.7,166.6c-3.4,11.4-3.4,11.4-3.4,11.4c8.2-3,8.2-3,8.2-3c1.3-5.3,1.3-5.3,1.3-5.3c-1.3,0-2.7-0.8-4.1-1.5
	C881,167.4,880.4,167.4,879.7,166.6"/>
<path class="st260" d="M860.3,128.5h-27.8v-19.7h27.8V128.5L860.3,128.5z M863.1,106.1h-33.5v25.1h33.5V106.1L863.1,106.1z"/>
<path class="st258" d="M857.1,119.5c0-1.8-1.5-3.3-3.4-3.3c-2.2,0-3.8,1.5-3.8,3.3c0,1.2,0.6,2.1,1.3,3c-0.9,3.9-0.9,3.9-0.9,3.9
	c2.2-0.9,2.2-0.9,2.2-0.9c0.9-2.4,0.9-2.4,0.9-2.4c0.3,0,0.3,0,0.3,0l0,0c0.9,2.4,0.9,2.4,0.9,2.4c2.5,0.9,2.5,0.9,2.5,0.9
	c-1.2-3.9-1.2-3.9-1.2-3.9C856.8,121.6,857.1,120.7,857.1,119.5"/>
<path class="st260" d="M944,128.5h-27.8v-19.7H944V128.5L944,128.5z M946.8,106.1h-33.5v25.1h33.5V106.1L946.8,106.1z"/>
<path class="st258" d="M940.8,119.5c0-1.8-1.5-3.3-3.4-3.3c-2.2,0-3.8,1.5-3.8,3.3c0,1.2,0.6,2.1,1.3,3c-0.9,3.9-0.9,3.9-0.9,3.9
	c2.2-0.9,2.2-0.9,2.2-0.9c0.9-2.4,0.9-2.4,0.9-2.4c0.3,0,0.3,0,0.3,0l0,0c0.9,2.4,0.9,2.4,0.9,2.4c2.5,0.9,2.5,0.9,2.5,0.9
	c-1.2-3.9-1.2-3.9-1.2-3.9C940.5,121.6,940.8,120.7,940.8,119.5"/>
<path class="st260" d="M860.3,169.7h-27.8v-19.7h27.8V169.7L860.3,169.7z M863.1,147.3h-33.5v25.1h33.5V147.3L863.1,147.3z"/>
<path class="st258" d="M857.1,160.8c0-1.8-1.5-3.3-3.4-3.3c-2.2,0-3.8,1.5-3.8,3.3c0,1.2,0.6,2.1,1.3,3c-0.9,3.9-0.9,3.9-0.9,3.9
	c2.2-0.9,2.2-0.9,2.2-0.9c0.9-2.4,0.9-2.4,0.9-2.4c0.3,0,0.3,0,0.3,0l0,0c0.9,2.4,0.9,2.4,0.9,2.4c2.5,0.9,2.5,0.9,2.5,0.9
	c-1.2-3.9-1.2-3.9-1.2-3.9C856.8,162.9,857.1,162,857.1,160.8"/>
<path class="st260" d="M944,169.7h-27.8v-19.7H944V169.7L944,169.7z M946.8,147.3h-33.5v25.1h33.5V147.3L946.8,147.3z"/>
<path class="st258" d="M940.8,160.8c0-1.8-1.5-3.3-3.4-3.3c-2.2,0-3.8,1.5-3.8,3.3c0,1.2,0.6,2.1,1.3,3c-0.9,3.9-0.9,3.9-0.9,3.9
	c2.2-0.9,2.2-0.9,2.2-0.9c0.9-2.4,0.9-2.4,0.9-2.4c0.3,0,0.3,0,0.3,0l0,0c0.9,2.4,0.9,2.4,0.9,2.4c2.5,0.9,2.5,0.9,2.5,0.9
	c-1.2-3.9-1.2-3.9-1.2-3.9C940.5,162.9,940.8,162,940.8,160.8"/>
<path class="st256" d="M108.9,220.9c0,0-0.1-1.5-0.2-2.3c0.4-0.2,0.7-0.4,1-0.7c0.6,0.3,1.7,1,1.7,1l1.9-0.5l2.2-3.8l-0.5-1.9
	c0,0-1.5-0.9-2.2-1.3c0-0.4-0.1-0.8-0.2-1.2c0.6-0.5,1.7-1.5,1.7-1.5v-2l-2.9-3.3h-2c0,0-0.9,0.8-1.4,1.2c-0.5-0.2-1.1-0.5-1.6-0.6
	c0-0.6-0.1-1.7-0.1-1.7l-1.4-1.4l-4.4,0.4l-1.4,1.4c0,0,0.1,1.5,0.2,2.2c-0.4,0.2-0.8,0.5-1.2,0.8c-0.6-0.3-1.8-0.9-1.8-0.9
	l-1.9,0.5l-1.8,4l-0.1,0.3l0.6,1.7c0,0,1.4,0.7,2.1,1c0,0.5,0.1,0.9,0.2,1.4c-0.5,0.5-1.6,1.4-1.6,1.4v2l2.8,3.4
	c0,0,1.7,0.2,1.7,0.1c0.1,0,0.3-0.1,0.3-0.1s1-0.9,1.6-1.3c0.4,0.2,0.9,0.4,1.4,0.5c0.1,0.6,0.2,1.8,0.2,1.8l1.4,1.4l4.4-0.4
	L108.9,220.9z M103.8,216.2c-2.4,0-4.4-2-4.4-4.4c0-2.4,2-4.4,4.4-4.4c2.4,0,4.4,2,4.4,4.4C108.2,214.2,106.2,216.2,103.8,216.2
	L103.8,216.2z"/>
<path class="st256" d="M121.1,235.2c0,0-0.1-1.1-0.2-1.7c0.3-0.2,0.5-0.3,0.8-0.5c0.4,0.2,1.3,0.7,1.3,0.7l1.5-0.4l1.7-2.9l-0.4-1.5
	c0,0-1.1-0.6-1.7-1c0-0.3,0-0.6-0.1-0.9c0.4-0.4,1.3-1.1,1.3-1.1v-1.5l-2.2-2.5h-1.5c0,0-0.7,0.6-1.1,0.9c-0.4-0.2-0.8-0.3-1.2-0.5
	c0-0.4-0.1-1.3-0.1-1.3l-1.1-1.1l-3.3,0.3l-1.1,1.1c0,0,0.1,1.1,0.1,1.7c-0.3,0.2-0.6,0.4-0.9,0.6c-0.5-0.2-1.4-0.6-1.4-0.6
	l-1.5,0.4l-1.4,3l-0.1,0.2l0.4,1.3c0,0,1.1,0.5,1.6,0.7c0,0.4,0.1,0.7,0.2,1c-0.4,0.3-1.2,1-1.2,1v1.5l2.1,2.5c0,0,1.2,0.1,1.3,0.1
	c0.1,0,0.2-0.1,0.2-0.1s0.8-0.7,1.2-1c0.3,0.2,0.7,0.3,1,0.4c0,0.4,0.1,1.3,0.1,1.3l1.1,1.1l3.3-0.3L121.1,235.2z M117.2,231.7
	c-1.8,0-3.3-1.5-3.3-3.3c0-1.8,1.5-3.3,3.3-3.3c1.8,0,3.3,1.5,3.3,3.3C120.5,230.2,119,231.7,117.2,231.7L117.2,231.7z"/>
<path class="st257" d="M144.6,193.6h-35.1c-3.5,0-3.5,5.5,0,5.5h35.1C148.1,199,148.1,193.6,144.6,193.6L144.6,193.6z"/>
<path class="st257" d="M144.6,206.5h-13.3c-3.5,0-3.5,5.5,0,5.5h13.3C148.1,212,148.1,206.5,144.6,206.5L144.6,206.5z"/>
<path class="st255" d="M95.9,186.8h56.5v34.7h6.6v-41.2H89.3v21.4h6.6V186.8z"/>
<g>
	<g>
		<path d="M92.2,235.2c0.6,0,1.2-0.2,1.6-0.5c0.4-0.3,0.7-0.8,1-1.5c0.2-0.6,0.3-1.5,0.3-2.5c0-0.9-0.1-1.6-0.2-2.1
			c-0.1-0.5-0.3-0.9-0.5-1.3c-0.2-0.4-0.5-0.6-0.9-0.8c-0.4-0.2-0.8-0.3-1.2-0.3c-0.7,0-1.2,0.2-1.6,0.5c-0.4,0.3-0.8,0.8-1,1.5
			c-0.2,0.6-0.3,1.5-0.3,2.5c0,1.7,0.3,2.9,0.9,3.6C90.7,234.9,91.4,235.2,92.2,235.2L92.2,235.2z M91,227.8
			c0.3-0.4,0.7-0.6,1.2-0.6c0.5,0,0.9,0.2,1.3,0.7c0.3,0.5,0.5,1.4,0.5,2.9c0,1.4-0.2,2.4-0.5,2.9c-0.3,0.5-0.8,0.7-1.3,0.7
			c-0.5,0-0.9-0.2-1.3-0.7c-0.3-0.5-0.5-1.4-0.5-2.9C90.5,229.3,90.7,228.3,91,227.8L91,227.8z"/>
		<path d="M98.7,227.4c-0.4,0.4-1,0.8-1.6,1v1c0.3-0.1,0.7-0.3,1.1-0.6c0.4-0.2,0.8-0.5,1-0.7v6.9h1.1v-8.8h-0.7
			C99.4,226.6,99.1,227,98.7,227.4L98.7,227.4z"/>
		<path d="M129.9,235.2c0.6,0,1.2-0.2,1.6-0.5c0.4-0.3,0.7-0.8,1-1.5c0.2-0.6,0.3-1.5,0.3-2.5c0-0.9-0.1-1.6-0.2-2.1
			c-0.1-0.5-0.3-0.9-0.5-1.3c-0.2-0.4-0.5-0.6-0.9-0.8c-0.4-0.2-0.8-0.3-1.2-0.3c-0.6,0-1.2,0.2-1.6,0.5c-0.4,0.3-0.8,0.8-1,1.5
			c-0.2,0.6-0.3,1.5-0.3,2.5c0,1.7,0.3,2.9,0.9,3.6C128.3,234.9,129,235.2,129.9,235.2L129.9,235.2z M128.7,227.8
			c0.3-0.4,0.7-0.6,1.2-0.6c0.5,0,0.9,0.2,1.3,0.7c0.3,0.5,0.5,1.4,0.5,2.9c0,1.4-0.2,2.4-0.5,2.9c-0.3,0.5-0.8,0.7-1.3,0.7
			c-0.5,0-0.9-0.2-1.3-0.7c-0.3-0.5-0.5-1.4-0.5-2.9C128.1,229.3,128.3,228.3,128.7,227.8L128.7,227.8z"/>
		<path d="M156.1,235.2c0.6,0,1.2-0.2,1.6-0.5c0.4-0.3,0.7-0.8,1-1.5c0.2-0.6,0.3-1.5,0.3-2.5c0-0.9-0.1-1.6-0.2-2.1
			c-0.1-0.5-0.3-0.9-0.5-1.3c-0.2-0.4-0.5-0.6-0.9-0.8c-0.3-0.2-0.8-0.3-1.2-0.3c-0.6,0-1.2,0.2-1.6,0.5c-0.4,0.3-0.8,0.8-1,1.5
			c-0.2,0.6-0.3,1.5-0.3,2.5c0,1.7,0.3,2.9,0.9,3.6C154.5,234.9,155.2,235.2,156.1,235.2L156.1,235.2z M154.9,227.8
			c0.3-0.4,0.7-0.6,1.2-0.6c0.5,0,0.9,0.2,1.3,0.7c0.3,0.5,0.5,1.4,0.5,2.9c0,1.4-0.2,2.4-0.5,2.9c-0.3,0.5-0.8,0.7-1.3,0.7
			c-0.5,0-0.9-0.2-1.3-0.7c-0.3-0.5-0.5-1.4-0.5-2.9C154.3,229.3,154.5,228.3,154.9,227.8L154.9,227.8z"/>
		<path d="M135.6,227.4c-0.4,0.4-1,0.8-1.6,1v1c0.3-0.1,0.7-0.3,1.2-0.6c0.4-0.2,0.8-0.5,1-0.7v6.9h1.1v-8.8h-0.7
			C136.4,226.6,136.1,227,135.6,227.4L135.6,227.4z"/>
		<path d="M142.9,235.2c0.6,0,1.2-0.2,1.6-0.5c0.4-0.3,0.7-0.8,1-1.5c0.2-0.6,0.3-1.5,0.3-2.5c0-0.9-0.1-1.6-0.2-2.1
			c-0.1-0.5-0.3-0.9-0.5-1.3c-0.2-0.4-0.5-0.6-0.9-0.8c-0.4-0.2-0.8-0.3-1.2-0.3c-0.6,0-1.2,0.2-1.6,0.5c-0.4,0.3-0.8,0.8-1,1.5
			c-0.2,0.6-0.3,1.5-0.3,2.5c0,1.7,0.3,2.9,0.9,3.6C141.4,234.9,142.1,235.2,142.9,235.2L142.9,235.2z M141.7,227.8
			c0.3-0.4,0.7-0.6,1.2-0.6c0.5,0,0.9,0.2,1.3,0.7c0.3,0.5,0.5,1.4,0.5,2.9c0,1.4-0.2,2.4-0.5,2.9c-0.3,0.5-0.8,0.7-1.3,0.7
			c-0.5,0-0.9-0.2-1.3-0.7c-0.3-0.5-0.5-1.4-0.5-2.9C141.2,229.3,141.4,228.3,141.7,227.8L141.7,227.8z"/>
		<path d="M149.4,227.4c-0.4,0.4-1,0.8-1.6,1v1c0.3-0.1,0.7-0.3,1.2-0.6c0.4-0.2,0.8-0.5,1-0.7v6.9h1.1v-8.8h-0.7
			C150.2,226.6,149.8,227,149.4,227.4L149.4,227.4z"/>
	</g>
</g>
<g>
	<g>
		<path d="M94.4,240.5c-0.2-0.4-0.5-0.6-0.9-0.8c-0.4-0.2-0.8-0.3-1.3-0.3c-0.6,0-1.2,0.2-1.6,0.5c-0.4,0.3-0.7,0.8-1,1.5
			c-0.2,0.6-0.3,1.5-0.3,2.5c0,1.7,0.3,2.8,0.9,3.6c0.5,0.6,1.2,0.9,2,0.9c0.7,0,1.2-0.2,1.6-0.5c0.4-0.3,0.8-0.8,1-1.5
			c0.2-0.6,0.3-1.5,0.3-2.5c0-0.9-0.1-1.6-0.2-2.1C94.8,241.3,94.6,240.8,94.4,240.5L94.4,240.5z M93.5,246.7
			c-0.3,0.5-0.8,0.7-1.3,0.7c-0.5,0-0.9-0.2-1.3-0.7c-0.3-0.5-0.5-1.4-0.5-2.9c0-1.4,0.2-2.4,0.6-3c0.3-0.4,0.7-0.6,1.2-0.6
			c0.5,0,0.9,0.2,1.3,0.7c0.3,0.5,0.5,1.4,0.5,2.9C94,245.3,93.9,246.3,93.5,246.7L93.5,246.7z"/>
		<path d="M100.4,248.2v-8.8h-0.7c-0.2,0.4-0.5,0.8-1,1.2c-0.5,0.4-1,0.7-1.6,1v1c0.3-0.1,0.7-0.3,1.2-0.5c0.4-0.2,0.8-0.5,1-0.7
			v6.9H100.4z"/>
		<path d="M106.4,248.2v-8.8h-0.7c-0.2,0.4-0.5,0.8-1,1.2c-0.5,0.4-1,0.7-1.6,1v1c0.3-0.1,0.7-0.3,1.2-0.5c0.4-0.2,0.8-0.5,1-0.7
			v6.9H106.4z"/>
		<path d="M114.3,240.5c-0.2-0.4-0.5-0.6-0.9-0.8c-0.4-0.2-0.8-0.3-1.3-0.3c-0.6,0-1.2,0.2-1.6,0.5c-0.4,0.3-0.7,0.8-1,1.5
			c-0.2,0.6-0.3,1.5-0.3,2.5c0,1.7,0.3,2.9,0.9,3.6c0.5,0.6,1.2,0.9,2,0.9c0.7,0,1.2-0.2,1.6-0.5c0.4-0.3,0.8-0.8,1-1.5
			c0.2-0.6,0.3-1.5,0.3-2.5c0-0.9-0.1-1.6-0.2-2.1C114.7,241.3,114.5,240.8,114.3,240.5L114.3,240.5z M113.4,246.7
			c-0.3,0.5-0.8,0.7-1.3,0.7c-0.5,0-0.9-0.2-1.3-0.7c-0.3-0.5-0.5-1.4-0.5-2.9c0-1.4,0.2-2.4,0.6-3c0.3-0.4,0.7-0.6,1.2-0.6
			c0.5,0,0.9,0.2,1.3,0.7c0.4,0.5,0.5,1.4,0.5,2.9C113.9,245.3,113.7,246.3,113.4,246.7L113.4,246.7z"/>
		<path d="M124.3,240.5c-0.2-0.4-0.5-0.6-0.9-0.8c-0.4-0.2-0.8-0.3-1.3-0.3c-0.6,0-1.2,0.2-1.6,0.5c-0.4,0.3-0.7,0.8-1,1.5
			c-0.2,0.6-0.3,1.5-0.3,2.5c0,1.7,0.3,2.8,0.9,3.6c0.5,0.6,1.2,0.9,2,0.9c0.7,0,1.2-0.2,1.6-0.5c0.4-0.3,0.8-0.8,1-1.5
			c0.2-0.6,0.3-1.5,0.3-2.5c0-0.9-0.1-1.6-0.2-2.1C124.7,241.3,124.6,240.8,124.3,240.5L124.3,240.5z M123.4,246.7
			c-0.3,0.5-0.8,0.7-1.3,0.7c-0.5,0-0.9-0.2-1.3-0.7c-0.4-0.5-0.5-1.4-0.5-2.9c0-1.4,0.2-2.4,0.6-3c0.3-0.4,0.7-0.6,1.2-0.6
			c0.5,0,0.9,0.2,1.3,0.7c0.3,0.5,0.5,1.4,0.5,2.9C124,245.3,123.8,246.3,123.4,246.7L123.4,246.7z"/>
		<path d="M130.3,248.2v-8.8h-0.7c-0.2,0.4-0.5,0.8-1,1.2c-0.5,0.4-1,0.7-1.6,1v1c0.3-0.1,0.7-0.3,1.2-0.5c0.4-0.2,0.8-0.5,1-0.7
			v6.9H130.3z"/>
		<path d="M136.3,248.2v-8.8h-0.7c-0.2,0.4-0.5,0.8-1,1.2c-0.5,0.4-1,0.7-1.6,1v1c0.3-0.1,0.7-0.3,1.2-0.5c0.4-0.2,0.8-0.5,1-0.7
			v6.9H136.3z"/>
		<path d="M144.2,240.5c-0.2-0.4-0.5-0.6-0.9-0.8c-0.4-0.2-0.8-0.3-1.3-0.3c-0.7,0-1.2,0.2-1.6,0.5c-0.4,0.3-0.8,0.8-1,1.5
			c-0.2,0.6-0.3,1.5-0.3,2.5c0,1.7,0.3,2.9,0.9,3.6c0.5,0.6,1.2,0.9,2,0.9c0.7,0,1.2-0.2,1.6-0.5c0.4-0.3,0.7-0.8,1-1.5
			c0.2-0.6,0.3-1.5,0.3-2.5c0-0.9-0.1-1.6-0.2-2.1C144.6,241.3,144.4,240.8,144.2,240.5L144.2,240.5z M143.3,246.7
			c-0.3,0.5-0.8,0.7-1.3,0.7c-0.5,0-0.9-0.2-1.3-0.7c-0.3-0.5-0.5-1.4-0.5-2.9c0-1.4,0.2-2.4,0.6-3c0.3-0.4,0.7-0.6,1.2-0.6
			c0.5,0,0.9,0.2,1.3,0.7c0.3,0.5,0.5,1.4,0.5,2.9C143.8,245.3,143.7,246.3,143.3,246.7L143.3,246.7z"/>
		<path d="M150.3,248.2v-8.8h-0.7c-0.2,0.4-0.5,0.8-1,1.2c-0.5,0.4-1,0.7-1.6,1v1c0.3-0.1,0.7-0.3,1.2-0.5c0.4-0.2,0.8-0.5,1-0.7
			v6.9H150.3z"/>
		<path d="M158.2,240.5c-0.2-0.4-0.5-0.6-0.9-0.8c-0.4-0.2-0.8-0.3-1.3-0.3c-0.7,0-1.2,0.2-1.6,0.5c-0.4,0.3-0.8,0.8-1,1.5
			c-0.2,0.6-0.3,1.5-0.3,2.5c0,1.7,0.3,2.9,0.9,3.6c0.5,0.6,1.2,0.9,2,0.9c0.7,0,1.2-0.2,1.6-0.5c0.4-0.3,0.8-0.8,1-1.5
			c0.2-0.6,0.3-1.5,0.3-2.5c0-0.9-0.1-1.6-0.2-2.1C158.6,241.3,158.4,240.8,158.2,240.5L158.2,240.5z M157.3,246.7
			c-0.3,0.5-0.8,0.7-1.3,0.7c-0.5,0-0.9-0.2-1.3-0.7c-0.3-0.5-0.5-1.4-0.5-2.9c0-1.4,0.2-2.4,0.6-3c0.3-0.4,0.7-0.6,1.2-0.6
			c0.5,0,0.9,0.2,1.3,0.7c0.3,0.5,0.5,1.4,0.5,2.9C157.8,245.3,157.7,246.3,157.3,246.7L157.3,246.7z"/>
	</g>
</g>
<g>
	<g>
		<path d="M94.4,255.2c-0.2-0.3-0.5-0.6-0.9-0.8c-0.4-0.2-0.8-0.3-1.3-0.3c-0.6,0-1.2,0.2-1.6,0.5c-0.4,0.3-0.8,0.8-1,1.5
			c-0.2,0.6-0.3,1.5-0.3,2.5c0,1.7,0.3,2.8,0.9,3.6c0.5,0.6,1.2,0.9,2,0.9c0.7,0,1.2-0.2,1.6-0.5c0.4-0.3,0.8-0.8,1-1.5
			c0.2-0.6,0.3-1.5,0.3-2.5c0-0.9-0.1-1.6-0.2-2.1C94.8,256,94.7,255.6,94.4,255.2L94.4,255.2z M93.5,261.5
			c-0.3,0.5-0.8,0.7-1.3,0.7c-0.5,0-0.9-0.2-1.3-0.7c-0.3-0.5-0.5-1.4-0.5-2.9c0-1.4,0.2-2.4,0.6-2.9c0.3-0.4,0.7-0.7,1.2-0.7
			c0.5,0,0.9,0.2,1.3,0.7c0.3,0.5,0.5,1.4,0.5,2.9S93.9,261,93.5,261.5L93.5,261.5z"/>
		<path d="M101.4,255.2c-0.2-0.3-0.5-0.6-0.9-0.8c-0.4-0.2-0.8-0.3-1.3-0.3c-0.7,0-1.2,0.2-1.6,0.5c-0.4,0.3-0.8,0.8-1,1.5
			c-0.2,0.6-0.3,1.5-0.3,2.5c0,1.7,0.3,2.8,0.9,3.6c0.5,0.6,1.2,0.9,2,0.9c0.7,0,1.2-0.2,1.6-0.5c0.4-0.3,0.7-0.8,1-1.5
			c0.2-0.6,0.3-1.5,0.3-2.5c0-0.9-0.1-1.6-0.2-2.1C101.8,256,101.6,255.6,101.4,255.2L101.4,255.2z M100.5,261.5
			c-0.3,0.5-0.8,0.7-1.3,0.7c-0.5,0-0.9-0.2-1.3-0.7c-0.3-0.5-0.5-1.4-0.5-2.9c0-1.4,0.2-2.4,0.6-2.9c0.3-0.4,0.7-0.7,1.2-0.7
			c0.5,0,0.9,0.2,1.3,0.7c0.3,0.5,0.5,1.4,0.5,2.9S100.8,261,100.5,261.5L100.5,261.5z"/>
		<path d="M108.3,255.2c-0.2-0.3-0.5-0.6-0.9-0.8c-0.4-0.2-0.8-0.3-1.3-0.3c-0.7,0-1.2,0.2-1.6,0.5c-0.4,0.3-0.8,0.8-1,1.5
			c-0.2,0.6-0.3,1.5-0.3,2.5c0,1.7,0.3,2.8,0.9,3.6c0.5,0.6,1.2,0.9,2,0.9c0.7,0,1.2-0.2,1.6-0.5c0.4-0.3,0.8-0.8,1-1.5
			c0.2-0.6,0.3-1.5,0.3-2.5c0-0.9-0.1-1.6-0.2-2.1C108.8,256,108.6,255.6,108.3,255.2L108.3,255.2z M107.5,261.5
			c-0.3,0.5-0.8,0.7-1.3,0.7c-0.5,0-0.9-0.2-1.3-0.7c-0.3-0.5-0.5-1.4-0.5-2.9c0-1.4,0.2-2.4,0.6-2.9c0.3-0.4,0.7-0.7,1.2-0.7
			c0.5,0,0.9,0.2,1.3,0.7c0.3,0.5,0.5,1.4,0.5,2.9C108,260,107.8,261,107.5,261.5L107.5,261.5z"/>
		<path d="M114.4,262.9v-8.8h-0.7c-0.2,0.4-0.5,0.8-1,1.2c-0.5,0.4-1,0.7-1.6,1v1c0.3-0.1,0.7-0.3,1.2-0.6c0.4-0.2,0.8-0.5,1-0.7
			v6.9H114.4z"/>
		<path d="M123.2,255.2c-0.2-0.3-0.5-0.6-0.9-0.8c-0.4-0.2-0.8-0.3-1.3-0.3c-0.6,0-1.2,0.2-1.6,0.5c-0.4,0.3-0.7,0.8-1,1.5
			c-0.2,0.6-0.3,1.5-0.3,2.5c0,1.7,0.3,2.8,0.9,3.6c0.5,0.6,1.2,0.9,2,0.9c0.7,0,1.2-0.2,1.6-0.5c0.4-0.3,0.8-0.8,1-1.5
			c0.2-0.6,0.3-1.5,0.3-2.5c0-0.9-0.1-1.6-0.2-2.1C123.6,256,123.4,255.6,123.2,255.2L123.2,255.2z M122.3,261.5
			c-0.3,0.5-0.8,0.7-1.3,0.7c-0.5,0-0.9-0.2-1.3-0.7c-0.3-0.5-0.5-1.4-0.5-2.9c0-1.4,0.2-2.4,0.6-2.9c0.3-0.4,0.7-0.7,1.2-0.7
			c0.5,0,0.9,0.2,1.3,0.7c0.3,0.5,0.5,1.4,0.5,2.9S122.7,261,122.3,261.5L122.3,261.5z"/>
		<path d="M130.2,255.2c-0.2-0.3-0.5-0.6-0.9-0.8c-0.4-0.2-0.8-0.3-1.3-0.3c-0.7,0-1.2,0.2-1.6,0.5c-0.4,0.3-0.7,0.8-1,1.5
			c-0.2,0.6-0.3,1.5-0.3,2.5c0,1.7,0.3,2.8,0.9,3.6c0.5,0.6,1.2,0.9,2,0.9c0.6,0,1.2-0.2,1.6-0.5c0.4-0.3,0.8-0.8,1-1.5
			c0.2-0.6,0.3-1.5,0.3-2.5c0-0.9-0.1-1.6-0.2-2.1C130.6,256,130.4,255.6,130.2,255.2L130.2,255.2z M129.3,261.5
			c-0.3,0.5-0.8,0.7-1.3,0.7c-0.5,0-0.9-0.2-1.3-0.7c-0.3-0.5-0.5-1.4-0.5-2.9c0-1.4,0.2-2.4,0.6-2.9c0.3-0.4,0.7-0.7,1.2-0.7
			c0.5,0,0.9,0.2,1.3,0.7c0.3,0.5,0.5,1.4,0.5,2.9S129.6,261,129.3,261.5L129.3,261.5z"/>
		<path d="M151.2,255.2c-0.2-0.3-0.5-0.6-0.9-0.8c-0.4-0.2-0.8-0.3-1.3-0.3c-0.6,0-1.2,0.2-1.6,0.5c-0.4,0.3-0.7,0.8-1,1.5
			c-0.2,0.6-0.3,1.5-0.3,2.5c0,1.7,0.3,2.8,0.9,3.6c0.5,0.6,1.2,0.9,2,0.9c0.7,0,1.2-0.2,1.6-0.5c0.4-0.3,0.8-0.8,1-1.5
			c0.2-0.6,0.3-1.5,0.3-2.5c0-0.9-0.1-1.6-0.2-2.1C151.7,256,151.5,255.6,151.2,255.2L151.2,255.2z M150.4,261.5
			c-0.3,0.5-0.8,0.7-1.3,0.7c-0.5,0-0.9-0.2-1.3-0.7c-0.4-0.5-0.5-1.4-0.5-2.9c0-1.4,0.2-2.4,0.6-2.9c0.3-0.4,0.7-0.7,1.2-0.7
			c0.5,0,0.9,0.2,1.3,0.7c0.3,0.5,0.5,1.4,0.5,2.9S150.7,261,150.4,261.5L150.4,261.5z"/>
		<path d="M158.2,255.2c-0.2-0.3-0.5-0.6-0.9-0.8c-0.4-0.2-0.8-0.3-1.3-0.3c-0.7,0-1.2,0.2-1.6,0.5c-0.4,0.3-0.7,0.8-1,1.5
			c-0.2,0.6-0.3,1.5-0.3,2.5c0,1.7,0.3,2.8,0.9,3.6c0.5,0.6,1.2,0.9,2,0.9c0.6,0,1.2-0.2,1.6-0.5c0.4-0.3,0.8-0.8,1-1.5
			c0.2-0.6,0.3-1.5,0.3-2.5c0-0.9-0.1-1.6-0.2-2.1C158.6,256,158.4,255.6,158.2,255.2L158.2,255.2z M157.3,261.5
			c-0.3,0.5-0.8,0.7-1.3,0.7c-0.5,0-0.9-0.2-1.3-0.7c-0.3-0.5-0.5-1.4-0.5-2.9c0-1.4,0.2-2.4,0.6-2.9c0.3-0.4,0.7-0.7,1.2-0.7
			c0.5,0,0.9,0.2,1.3,0.7c0.3,0.5,0.5,1.4,0.5,2.9S157.7,261,157.3,261.5L157.3,261.5z"/>
		<path d="M138.1,255.2c-0.2-0.3-0.5-0.6-0.9-0.8c-0.4-0.2-0.8-0.3-1.3-0.3c-0.7,0-1.2,0.2-1.6,0.5c-0.4,0.3-0.8,0.8-1,1.5
			c-0.2,0.6-0.3,1.5-0.3,2.5c0,1.7,0.3,2.8,0.9,3.6c0.5,0.6,1.2,0.9,2,0.9c0.7,0,1.2-0.2,1.6-0.5c0.4-0.3,0.8-0.8,1-1.5
			c0.2-0.6,0.3-1.5,0.3-2.5c0-0.9-0.1-1.6-0.2-2.1C138.5,256,138.3,255.6,138.1,255.2L138.1,255.2z M137.2,261.5
			c-0.4,0.5-0.8,0.7-1.3,0.7c-0.5,0-0.9-0.2-1.3-0.7c-0.3-0.5-0.5-1.4-0.5-2.9c0-1.4,0.2-2.4,0.6-2.9c0.3-0.4,0.7-0.7,1.2-0.7
			c0.5,0,0.9,0.2,1.3,0.7c0.3,0.5,0.5,1.4,0.5,2.9C137.7,260,137.5,261,137.2,261.5L137.2,261.5z"/>
		<path d="M144.1,262.9v-8.8h-0.7c-0.2,0.4-0.5,0.8-1,1.2c-0.5,0.4-1,0.7-1.6,1v1c0.3-0.1,0.7-0.3,1.2-0.6c0.4-0.2,0.8-0.5,1-0.7
			v6.9H144.1z"/>
	</g>
</g>
<g>
	<g>
		<path d="M120.4,269.6c-0.5,0.4-1,0.7-1.6,1v1c0.3-0.1,0.7-0.3,1.2-0.6c0.4-0.2,0.8-0.5,1-0.7v6.9h1.1v-8.8h-0.7
			C121.2,268.8,120.8,269.2,120.4,269.6L120.4,269.6z"/>
		<path d="M94.4,270c-0.2-0.4-0.5-0.6-0.9-0.8c-0.4-0.2-0.8-0.3-1.3-0.3c-0.6,0-1.2,0.2-1.6,0.5c-0.4,0.3-0.8,0.8-1,1.5
			c-0.2,0.6-0.3,1.5-0.3,2.5c0,1.7,0.3,2.8,0.9,3.6c0.5,0.6,1.2,0.9,2,0.9c0.7,0,1.2-0.2,1.6-0.5c0.4-0.4,0.8-0.8,1-1.5
			c0.2-0.6,0.3-1.5,0.3-2.5c0-0.9-0.1-1.6-0.2-2.1C94.9,270.7,94.7,270.3,94.4,270L94.4,270z M93.5,276.2c-0.3,0.5-0.8,0.7-1.3,0.7
			c-0.5,0-0.9-0.2-1.3-0.7c-0.3-0.5-0.5-1.4-0.5-2.9c0-1.4,0.2-2.4,0.6-3c0.3-0.4,0.7-0.6,1.2-0.6c0.5,0,0.9,0.2,1.3,0.7
			c0.3,0.5,0.5,1.4,0.5,2.9C94.1,274.8,93.9,275.7,93.5,276.2L93.5,276.2z"/>
		<path d="M98.8,270c-0.5,0.4-1,0.8-1.6,1v1c0.3-0.1,0.7-0.3,1.2-0.6c0.4-0.2,0.8-0.5,1-0.7v6.9h1.1v-8.8h-0.7
			C99.6,269.2,99.2,269.6,98.8,270L98.8,270z"/>
		<path d="M104.8,270c-0.5,0.4-1,0.8-1.6,1v1c0.3-0.1,0.7-0.3,1.2-0.6c0.4-0.2,0.8-0.5,1-0.7v6.9h1.1v-8.8h-0.7
			C105.6,269.2,105.3,269.6,104.8,270L104.8,270z"/>
		<path d="M114.4,270c-0.2-0.4-0.5-0.6-0.9-0.8c-0.4-0.2-0.8-0.3-1.3-0.3c-0.7,0-1.2,0.2-1.6,0.5c-0.4,0.3-0.8,0.8-1,1.5
			c-0.2,0.6-0.3,1.5-0.3,2.5c0,1.7,0.3,2.8,0.9,3.6c0.5,0.6,1.2,0.9,2,0.9c0.7,0,1.2-0.2,1.6-0.5c0.4-0.4,0.8-0.8,1-1.5
			c0.2-0.6,0.3-1.5,0.3-2.5c0-0.9-0.1-1.6-0.2-2.1C114.9,270.7,114.7,270.3,114.4,270L114.4,270z M113.5,276.2
			c-0.3,0.5-0.8,0.7-1.3,0.7c-0.5,0-0.9-0.2-1.3-0.7c-0.3-0.5-0.5-1.4-0.5-2.9c0-1.4,0.2-2.4,0.6-3c0.3-0.4,0.7-0.6,1.2-0.6
			c0.5,0,0.9,0.2,1.3,0.7c0.4,0.5,0.5,1.4,0.5,2.9C114.1,274.8,113.9,275.7,113.5,276.2L113.5,276.2z"/>
		<path d="M157.3,269.6c-0.5,0.4-1,0.7-1.6,1v1c0.3-0.1,0.7-0.3,1.2-0.6c0.4-0.2,0.8-0.5,1-0.7v6.9h1.1v-8.8h-0.7
			C158.1,268.8,157.7,269.2,157.3,269.6L157.3,269.6z"/>
		<path d="M131.3,270c-0.2-0.4-0.5-0.6-0.9-0.8c-0.4-0.2-0.8-0.3-1.3-0.3c-0.6,0-1.2,0.2-1.6,0.5c-0.4,0.3-0.8,0.8-1,1.5
			c-0.2,0.6-0.3,1.5-0.3,2.5c0,1.7,0.3,2.8,0.9,3.6c0.5,0.6,1.2,0.9,2,0.9c0.7,0,1.2-0.2,1.6-0.5c0.4-0.4,0.8-0.8,1-1.5
			c0.2-0.6,0.3-1.5,0.3-2.5c0-0.9-0.1-1.6-0.2-2.1C131.8,270.7,131.6,270.3,131.3,270L131.3,270z M130.4,276.2
			c-0.3,0.5-0.8,0.7-1.3,0.7c-0.5,0-0.9-0.2-1.3-0.7c-0.4-0.5-0.5-1.4-0.5-2.9c0-1.4,0.2-2.4,0.6-3c0.3-0.4,0.7-0.6,1.2-0.6
			c0.5,0,0.9,0.2,1.3,0.7c0.3,0.5,0.5,1.4,0.5,2.9C131,274.8,130.8,275.7,130.4,276.2L130.4,276.2z"/>
		<path d="M135.7,270c-0.5,0.4-1,0.8-1.6,1v1c0.3-0.1,0.7-0.3,1.2-0.6c0.4-0.2,0.8-0.5,1-0.7v6.9h1.1v-8.8h-0.7
			C136.5,269.2,136.1,269.6,135.7,270L135.7,270z"/>
		<path d="M141.7,270c-0.5,0.4-1,0.8-1.6,1v1c0.3-0.1,0.7-0.3,1.2-0.6c0.4-0.2,0.8-0.5,1-0.7v6.9h1.1v-8.8h-0.7
			C142.5,269.2,142.2,269.6,141.7,270L141.7,270z"/>
		<path d="M151.3,270c-0.2-0.4-0.5-0.6-0.9-0.8c-0.4-0.2-0.8-0.3-1.3-0.3c-0.7,0-1.2,0.2-1.6,0.5c-0.4,0.3-0.8,0.8-1,1.5
			c-0.2,0.6-0.3,1.5-0.3,2.5c0,1.7,0.3,2.8,0.9,3.6c0.5,0.6,1.2,0.9,2,0.9c0.7,0,1.2-0.2,1.6-0.5c0.4-0.4,0.8-0.8,1-1.5
			c0.2-0.6,0.3-1.5,0.3-2.5c0-0.9-0.1-1.6-0.2-2.1C151.8,270.7,151.6,270.3,151.3,270L151.3,270z M150.4,276.2
			c-0.3,0.5-0.8,0.7-1.3,0.7c-0.5,0-0.9-0.2-1.3-0.7c-0.3-0.5-0.5-1.4-0.5-2.9c0-1.4,0.2-2.4,0.6-3c0.3-0.4,0.7-0.6,1.2-0.6
			c0.5,0,0.9,0.2,1.3,0.7c0.3,0.5,0.5,1.4,0.5,2.9C151,274.8,150.8,275.7,150.4,276.2L150.4,276.2z"/>
	</g>
</g>
<path class="st255" d="M95.8,324.3c-20.4,0-36.9,6.5-36.9,14.6v21.4c0,8.1,16.5,14.6,36.9,14.6c20.4,0,36.9-6.5,36.9-14.6v-21.4
	C132.7,330.8,116.1,324.3,95.8,324.3L95.8,324.3z M95.8,355c-16.3,0-29.5-5.2-29.5-11.7c0-6.5,13.2-11.7,29.5-11.7
	c16.3,0,29.5,5.2,29.5,11.7C125.3,349.8,112.1,355,95.8,355L95.8,355z M95.8,350.5 M95.8,381.1"/>
<path class="st257" d="M95.8,441c19.5,0,35.4-6,36.8-13.6c0.1,0.4,0.1,0.7,0.1,1v21.4c0,8.1-16.5,14.6-36.9,14.6
	c-20.4,0-36.9-6.5-36.9-14.6v-21.4c0-0.3,0.1-0.7,0.1-1C60.4,435,76.3,441,95.8,441L95.8,441z"/>
<g>
	<g>
		<g>
			<path d="M137.2,400.7h-0.8v-5.3c-0.2,0.2-0.5,0.4-0.8,0.6c-0.3,0.2-0.6,0.3-0.9,0.4v-0.8c0.5-0.2,0.9-0.5,1.2-0.8
				c0.3-0.3,0.6-0.6,0.7-0.9h0.5V400.7z"/>
			<path d="M139.3,397.4c0-0.8,0.1-1.4,0.2-1.9c0.2-0.5,0.4-0.9,0.7-1.1c0.3-0.3,0.7-0.4,1.2-0.4c0.4,0,0.7,0.1,1,0.2
				c0.3,0.1,0.5,0.4,0.7,0.6c0.2,0.3,0.3,0.6,0.4,1c0.1,0.4,0.2,0.9,0.2,1.6c0,0.8-0.1,1.4-0.2,1.9c-0.2,0.5-0.4,0.9-0.7,1.1
				c-0.3,0.3-0.7,0.4-1.2,0.4c-0.6,0-1.2-0.2-1.5-0.7C139.5,399.6,139.3,398.7,139.3,397.4z M140.1,397.4c0,1.1,0.1,1.8,0.4,2.2
				c0.3,0.4,0.6,0.5,1,0.5c0.4,0,0.7-0.2,1-0.5c0.3-0.4,0.4-1.1,0.4-2.2c0-1.1-0.1-1.8-0.4-2.2c-0.3-0.4-0.6-0.5-1-0.5
				c-0.4,0-0.7,0.2-0.9,0.5C140.3,395.6,140.1,396.3,140.1,397.4z"/>
			<path d="M147.6,400.7h-0.8v-5.3c-0.2,0.2-0.5,0.4-0.8,0.6c-0.3,0.2-0.6,0.3-0.9,0.4v-0.8c0.5-0.2,0.9-0.5,1.2-0.8
				c0.3-0.3,0.6-0.6,0.7-0.9h0.5V400.7z"/>
			<path d="M152.1,400.7h-0.8v-5.3c-0.2,0.2-0.5,0.4-0.8,0.6c-0.3,0.2-0.6,0.3-0.9,0.4v-0.8c0.5-0.2,0.9-0.5,1.2-0.8
				c0.3-0.3,0.6-0.6,0.7-0.9h0.5V400.7z"/>
			<path d="M154.2,397.4c0-0.8,0.1-1.4,0.2-1.9c0.2-0.5,0.4-0.9,0.7-1.1c0.3-0.3,0.7-0.4,1.2-0.4c0.4,0,0.7,0.1,1,0.2
				c0.3,0.1,0.5,0.4,0.7,0.6c0.2,0.3,0.3,0.6,0.4,1c0.1,0.4,0.1,0.9,0.1,1.6c0,0.8-0.1,1.4-0.2,1.9c-0.2,0.5-0.4,0.9-0.7,1.1
				c-0.3,0.3-0.7,0.4-1.2,0.4c-0.6,0-1.2-0.2-1.5-0.7C154.5,399.6,154.2,398.7,154.2,397.4z M155.1,397.4c0,1.1,0.1,1.8,0.4,2.2
				c0.3,0.4,0.6,0.5,1,0.5s0.7-0.2,1-0.5c0.3-0.4,0.4-1.1,0.4-2.2c0-1.1-0.1-1.8-0.4-2.2c-0.3-0.4-0.6-0.5-1-0.5
				c-0.4,0-0.7,0.2-0.9,0.5C155.2,395.6,155.1,396.3,155.1,397.4z"/>
			<path d="M162.6,400.7h-0.8v-5.3c-0.2,0.2-0.5,0.4-0.8,0.6c-0.3,0.2-0.6,0.3-0.9,0.4v-0.8c0.5-0.2,0.9-0.5,1.2-0.8
				c0.3-0.3,0.6-0.6,0.7-0.9h0.5V400.7z"/>
			<path d="M167.1,400.7h-0.8v-5.3c-0.2,0.2-0.5,0.4-0.8,0.6c-0.3,0.2-0.6,0.3-0.9,0.4v-0.8c0.5-0.2,0.9-0.5,1.2-0.8
				c0.3-0.3,0.6-0.6,0.7-0.9h0.5V400.7z"/>
		</g>
		<g>
			<path d="M137,410.8h-0.8v-5.3c-0.2,0.2-0.4,0.4-0.7,0.6c-0.3,0.2-0.6,0.3-0.8,0.4v-0.8c0.4-0.2,0.8-0.5,1.1-0.8
				c0.3-0.3,0.6-0.6,0.7-0.9h0.5V410.8z"/>
			<path d="M141.3,410.8h-0.8v-5.3c-0.2,0.2-0.4,0.4-0.7,0.6c-0.3,0.2-0.6,0.3-0.8,0.4v-0.8c0.4-0.2,0.8-0.5,1.1-0.8
				c0.3-0.3,0.6-0.6,0.7-0.9h0.5V410.8z"/>
			<path d="M143.3,407.5c0-0.8,0.1-1.4,0.2-1.9c0.2-0.5,0.4-0.9,0.7-1.1c0.3-0.3,0.7-0.4,1.1-0.4c0.3,0,0.6,0.1,0.9,0.2
				c0.3,0.1,0.5,0.4,0.6,0.6c0.2,0.3,0.3,0.6,0.4,1c0.1,0.4,0.1,0.9,0.1,1.6c0,0.8-0.1,1.4-0.2,1.9c-0.2,0.5-0.4,0.9-0.7,1.1
				c-0.3,0.3-0.7,0.4-1.2,0.4c-0.6,0-1.1-0.2-1.4-0.7C143.5,409.7,143.3,408.8,143.3,407.5z M144.1,407.5c0,1.1,0.1,1.8,0.4,2.2
				c0.2,0.4,0.5,0.5,0.9,0.5c0.4,0,0.7-0.2,0.9-0.5c0.2-0.4,0.4-1.1,0.4-2.2c0-1.1-0.1-1.8-0.4-2.2c-0.2-0.4-0.5-0.5-0.9-0.5
				c-0.4,0-0.6,0.2-0.9,0.5C144.2,405.6,144.1,406.4,144.1,407.5z"/>
			<path d="M148.2,407.5c0-0.8,0.1-1.4,0.2-1.9c0.2-0.5,0.4-0.9,0.7-1.1c0.3-0.3,0.7-0.4,1.1-0.4c0.3,0,0.6,0.1,0.9,0.2
				c0.3,0.1,0.5,0.4,0.6,0.6c0.2,0.3,0.3,0.6,0.4,1c0.1,0.4,0.1,0.9,0.1,1.6c0,0.8-0.1,1.4-0.2,1.9c-0.2,0.5-0.4,0.9-0.7,1.1
				c-0.3,0.3-0.7,0.4-1.2,0.4c-0.6,0-1.1-0.2-1.4-0.7C148.4,409.7,148.2,408.8,148.2,407.5z M149,407.5c0,1.1,0.1,1.8,0.4,2.2
				c0.2,0.4,0.5,0.5,0.9,0.5c0.4,0,0.7-0.2,0.9-0.5c0.2-0.4,0.4-1.1,0.4-2.2c0-1.1-0.1-1.8-0.4-2.2c-0.2-0.4-0.5-0.5-0.9-0.5
				c-0.4,0-0.6,0.2-0.9,0.5C149.1,405.6,149,406.4,149,407.5z"/>
			<path d="M156,410.8h-0.8v-5.3c-0.2,0.2-0.4,0.4-0.7,0.6c-0.3,0.2-0.6,0.3-0.8,0.4v-0.8c0.4-0.2,0.8-0.5,1.1-0.8
				c0.3-0.3,0.6-0.6,0.7-0.9h0.5V410.8z"/>
			<path d="M158,407.5c0-0.8,0.1-1.4,0.2-1.9c0.2-0.5,0.4-0.9,0.7-1.1s0.7-0.4,1.1-0.4c0.3,0,0.6,0.1,0.9,0.2
				c0.3,0.1,0.5,0.4,0.6,0.6c0.2,0.3,0.3,0.6,0.4,1c0.1,0.4,0.1,0.9,0.1,1.6c0,0.8-0.1,1.4-0.2,1.9c-0.1,0.5-0.4,0.9-0.7,1.1
				c-0.3,0.3-0.7,0.4-1.1,0.4c-0.6,0-1.1-0.2-1.4-0.7C158.2,409.7,158,408.8,158,407.5z M158.8,407.5c0,1.1,0.1,1.8,0.4,2.2
				c0.2,0.4,0.5,0.5,0.9,0.5c0.4,0,0.7-0.2,0.9-0.5c0.2-0.4,0.4-1.1,0.4-2.2c0-1.1-0.1-1.8-0.4-2.2c-0.2-0.4-0.5-0.5-0.9-0.5
				c-0.4,0-0.6,0.2-0.9,0.5C159,405.6,158.8,406.4,158.8,407.5z"/>
			<path d="M163,407.5c0-0.8,0.1-1.4,0.2-1.9c0.2-0.5,0.4-0.9,0.7-1.1c0.3-0.3,0.7-0.4,1.1-0.4c0.3,0,0.6,0.1,0.9,0.2
				c0.3,0.1,0.5,0.4,0.6,0.6c0.2,0.3,0.3,0.6,0.4,1c0.1,0.4,0.1,0.9,0.1,1.6c0,0.8-0.1,1.4-0.2,1.9c-0.2,0.5-0.4,0.9-0.7,1.1
				c-0.3,0.3-0.7,0.4-1.2,0.4c-0.6,0-1.1-0.2-1.4-0.7C163.2,409.7,163,408.8,163,407.5z M163.7,407.5c0,1.1,0.1,1.8,0.4,2.2
				c0.2,0.4,0.5,0.5,0.9,0.5s0.7-0.2,0.9-0.5c0.2-0.4,0.4-1.1,0.4-2.2c0-1.1-0.1-1.8-0.4-2.2c-0.2-0.4-0.5-0.5-0.9-0.5
				c-0.4,0-0.6,0.2-0.9,0.5C163.9,405.6,163.7,406.4,163.7,407.5z"/>
		</g>
		<g>
			<path d="M137.2,420.7h-0.8v-5.3c-0.2,0.2-0.5,0.4-0.8,0.6c-0.3,0.2-0.6,0.3-0.9,0.4v-0.8c0.5-0.2,0.9-0.5,1.2-0.8
				c0.3-0.3,0.6-0.6,0.7-0.9h0.5V420.7z"/>
			<path d="M139.3,417.4c0-0.8,0.1-1.4,0.2-1.9c0.2-0.5,0.4-0.9,0.7-1.1c0.3-0.3,0.7-0.4,1.2-0.4c0.4,0,0.7,0.1,1,0.2
				c0.3,0.1,0.5,0.4,0.7,0.6c0.2,0.3,0.3,0.6,0.4,1c0.1,0.4,0.2,0.9,0.2,1.6c0,0.8-0.1,1.4-0.2,1.9c-0.2,0.5-0.4,0.9-0.7,1.1
				c-0.3,0.3-0.7,0.4-1.2,0.4c-0.6,0-1.2-0.2-1.5-0.7C139.5,419.6,139.3,418.6,139.3,417.4z M140.1,417.4c0,1.1,0.1,1.8,0.4,2.2
				c0.3,0.4,0.6,0.6,1,0.6c0.4,0,0.7-0.2,1-0.6c0.3-0.4,0.4-1.1,0.4-2.2c0-1.1-0.1-1.8-0.4-2.2c-0.3-0.4-0.6-0.5-1-0.5
				c-0.4,0-0.7,0.2-0.9,0.5C140.3,415.5,140.1,416.3,140.1,417.4z"/>
			<path d="M147.6,420.7h-0.8v-5.3c-0.2,0.2-0.5,0.4-0.8,0.6c-0.3,0.2-0.6,0.3-0.9,0.4v-0.8c0.5-0.2,0.9-0.5,1.2-0.8
				c0.3-0.3,0.6-0.6,0.7-0.9h0.5V420.7z"/>
			<path d="M152.1,420.7h-0.8v-5.3c-0.2,0.2-0.5,0.4-0.8,0.6c-0.3,0.2-0.6,0.3-0.9,0.4v-0.8c0.5-0.2,0.9-0.5,1.2-0.8
				c0.3-0.3,0.6-0.6,0.7-0.9h0.5V420.7z"/>
			<path d="M154.2,417.4c0-0.8,0.1-1.4,0.2-1.9c0.2-0.5,0.4-0.9,0.7-1.1c0.3-0.3,0.7-0.4,1.2-0.4c0.4,0,0.7,0.1,1,0.2
				c0.3,0.1,0.5,0.4,0.7,0.6c0.2,0.3,0.3,0.6,0.4,1c0.1,0.4,0.1,0.9,0.1,1.6c0,0.8-0.1,1.4-0.2,1.9c-0.2,0.5-0.4,0.9-0.7,1.1
				c-0.3,0.3-0.7,0.4-1.2,0.4c-0.6,0-1.2-0.2-1.5-0.7C154.5,419.6,154.2,418.6,154.2,417.4z M155.1,417.4c0,1.1,0.1,1.8,0.4,2.2
				c0.3,0.4,0.6,0.6,1,0.6s0.7-0.2,1-0.6c0.3-0.4,0.4-1.1,0.4-2.2c0-1.1-0.1-1.8-0.4-2.2c-0.3-0.4-0.6-0.5-1-0.5
				c-0.4,0-0.7,0.2-0.9,0.5C155.2,415.5,155.1,416.3,155.1,417.4z"/>
			<path d="M162.6,420.7h-0.8v-5.3c-0.2,0.2-0.5,0.4-0.8,0.6c-0.3,0.2-0.6,0.3-0.9,0.4v-0.8c0.5-0.2,0.9-0.5,1.2-0.8
				c0.3-0.3,0.6-0.6,0.7-0.9h0.5V420.7z"/>
			<path d="M167.1,420.7h-0.8v-5.3c-0.2,0.2-0.5,0.4-0.8,0.6c-0.3,0.2-0.6,0.3-0.9,0.4v-0.8c0.5-0.2,0.9-0.5,1.2-0.8
				c0.3-0.3,0.6-0.6,0.7-0.9h0.5V420.7z"/>
		</g>
	</g>
</g>
<g>
	<g>
		<rect x="22.7" y="390.6" transform="matrix(0.215 -0.9766 0.9766 0.215 -365.4768 331.6899)" width="1.7" height="5.2"/>
		<rect x="15.6" y="393.3" transform="matrix(0.2142 -0.9768 0.9768 0.2142 -373.7707 327.179)" width="1.7" height="5.2"/>
		<rect x="33.2" y="392.3" transform="matrix(0.5167 -0.8562 0.8562 0.5167 -321.6519 220.0635)" width="1.7" height="5.2"/>
		<rect x="42.6" y="394.9" transform="matrix(0.6221 -0.7829 0.7829 0.6221 -294.7688 184.189)" width="1.7" height="5.2"/>
		<rect x="35.3" y="398.4" transform="matrix(0.4153 -0.9097 0.9097 0.4153 -343.6416 267.3297)" width="1.7" height="5.2"/>
		<rect x="25.5" y="398" transform="matrix(0.9682 -0.2501 0.2501 0.9682 -98.8661 19.6947)" width="5.2" height="1.7"/>
		<rect x="42.9" y="401.4" transform="matrix(0.416 -0.9094 0.9094 0.416 -341.7687 275.6807)" width="1.7" height="5.2"/>
		<polygon points="42.2,408.1 42.6,409.7 37.6,411.1 37.2,409.4 		"/>
		<rect x="40.2" y="418.1" transform="matrix(0.8853 -0.465 0.465 0.8853 -189.8812 67.9245)" width="5.2" height="1.7"/>
		<rect x="28.5" y="417.6" transform="matrix(0.9117 -0.4108 0.4108 0.9117 -169.1372 49.6853)" width="5.2" height="1.7"/>
		<rect x="14.1" y="418.1" transform="matrix(0.5174 -0.8557 0.8557 0.5174 -352.7336 215.8365)" width="1.7" height="5.2"/>
		
			<rect x="34.4" y="419.9" transform="matrix(9.186990e-02 -0.9958 0.9958 9.186990e-02 -388.748 418.7932)" width="1.7" height="5.2"/>
		<rect x="49.5" y="416.6" transform="matrix(0.8902 -0.4556 0.4556 0.8902 -184.481 69.592)" width="5.2" height="1.7"/>
		
			<rect x="20.8" y="422.7" transform="matrix(0.9979 -6.527887e-02 6.527887e-02 0.9979 -27.6021 2.4277)" width="5.2" height="1.7"/>
		<rect x="43.2" y="411.3" transform="matrix(0.8776 -0.4794 0.4794 0.8776 -191.9738 72.4069)" width="5.2" height="1.7"/>
		
			<rect x="37.8" y="412.1" transform="matrix(9.927496e-02 -0.9951 0.9951 9.927496e-02 -377.808 412.0649)" width="1.7" height="5.2"/>
		<rect x="15.4" y="405.3" transform="matrix(0.9334 -0.3589 0.3589 0.9334 -144.5885 33.5066)" width="5.2" height="1.7"/>
		
			<rect x="24.1" y="413.3" transform="matrix(9.186990e-02 -0.9958 0.9958 9.186990e-02 -391.4601 402.4973)" width="1.7" height="5.2"/>
		<rect x="18.7" y="415.6" transform="matrix(0.4303 -0.9027 0.9027 0.4303 -366.3448 255.8673)" width="1.7" height="5.2"/>
		<rect x="23.3" y="408.6" transform="matrix(0.9517 -0.307 0.307 0.9517 -124.4535 27.7178)" width="5.2" height="1.7"/>
		<rect x="29.7" y="410.9" transform="matrix(0.8783 -0.4782 0.4782 0.8783 -192.9903 65.5727)" width="5.2" height="1.7"/>
		<rect x="25.7" y="401.2" transform="matrix(0.1766 -0.9843 0.9843 0.1766 -375.5689 358.6206)" width="1.7" height="5.2"/>
		
			<rect x="17.8" y="409.6" transform="matrix(2.403189e-02 -0.9997 0.9997 2.403189e-02 -393.7787 420.9159)" width="1.7" height="5.2"/>
		<rect x="10" y="411" transform="matrix(0.6919 -0.722 0.722 0.6919 -293.5219 135.9649)" width="5.2" height="1.7"/>
		
			<rect x="31.6" y="405.3" transform="matrix(0.9956 -9.408123e-02 9.408123e-02 0.9956 -38.0589 5.0157)" width="5.2" height="1.7"/>
		<rect x="17.8" y="399.1" transform="matrix(0.9933 -0.1159 0.1159 0.9933 -46.2196 5.0596)" width="5.2" height="1.7"/>
		<rect x="10.7" y="402.5" transform="matrix(0.9934 -0.1143 0.1143 0.9934 -46.0013 4.1584)" width="5.2" height="1.7"/>
		<rect x="52.7" y="400.4" transform="matrix(0.4159 -0.9094 0.9094 0.4159 -335.143 284.0841)" width="1.7" height="5.2"/>
		<rect x="51.7" y="405" transform="matrix(0.1683 -0.9857 0.9857 0.1683 -358.0424 390.7319)" width="1.7" height="5.2"/>
		<rect x="50.3" y="411.8" transform="matrix(0.9303 -0.3667 0.3667 0.9303 -147.6401 48.1525)" width="5.2" height="1.7"/>
	</g>
</g>
<path class="st255" d="M127.1,406.3c-0.1-0.2-3.3-5.5-8.7-10.7c-7.2-7-15-10.7-22.7-10.7c-7.6,0-15.5,3.7-22.7,10.7
	c-4.2,4.1-6.2,6.7-8.7,10.7l-1.1,1.9l1.1,1.9c0.1,0.2,3.3,5.5,8.7,10.7c7.2,7,15,10.7,22.7,10.7c7.6,0,15.5-3.7,22.7-10.7
	c5.4-5.3,8.5-10.5,8.7-10.7l1.1-1.9L127.1,406.3z M118,417c-5,4.8-12.9,10.6-22.2,10.6c-9.4,0-17.3-5.8-22.2-10.6
	c-3.4-3.3-6-6.7-7.4-8.8c1.5-2.1,4-5.4,7.4-8.8c5-4.8,12.9-10.6,22.2-10.6c9.4,0,17.3,5.8,22.2,10.6c3.4,3.3,6,6.7,7.4,8.8
	C124,410.3,121.4,413.7,118,417L118,417z"/>
<g>
	<g>
		<path d="M91.2,421.9H89c-0.3,0-0.6-0.3-0.7-0.6l-0.4-2c-0.3-0.1-0.7-0.3-1-0.4l-1.7,1.1c-0.3,0.2-0.7,0.1-0.9-0.1l-1.5-1.5
			c-0.2-0.2-0.3-0.6-0.1-0.9l1.1-1.7c-0.2-0.3-0.3-0.7-0.4-1l-2-0.4c-0.3-0.1-0.6-0.4-0.6-0.7v-2.2c0-0.3,0.3-0.6,0.6-0.7l2-0.4
			c0.1-0.3,0.2-0.7,0.4-1l-1.2-1.7c-0.2-0.3-0.2-0.7,0.1-0.9l1.5-1.5c0.2-0.2,0.6-0.3,0.9-0.1l1.7,1.2c0.3-0.2,0.7-0.3,1-0.4l0.4-2
			c0.1-0.3,0.4-0.6,0.7-0.6h2.2c0.3,0,0.6,0.3,0.7,0.6l0.4,2c0.4,0.1,0.7,0.3,1.1,0.4l1.7-1.2c0.3-0.2,0.7-0.2,0.9,0.1l1.6,1.6
			c0.2,0.2,0.3,0.6,0.1,0.9l-1.2,1.7c0.2,0.3,0.3,0.7,0.4,1l2,0.4c0.3,0.1,0.6,0.4,0.6,0.7v2.2c0,0.3-0.3,0.6-0.6,0.7l-2,0.4
			c-0.1,0.4-0.3,0.7-0.4,1l1.2,1.7c0.2,0.3,0.1,0.7-0.1,0.9l-1.6,1.5c-0.2,0.2-0.6,0.3-0.9,0.1l-1.7-1.2c-0.3,0.2-0.7,0.3-1,0.4
			l-0.4,2C91.8,421.6,91.5,421.9,91.2,421.9z M86.9,418.3l0.1,0.1c0.4,0.2,0.8,0.4,1.2,0.5l0.1,0l0.4,2.3c0,0.1,0.1,0.2,0.2,0.2h2.2
			c0.1,0,0.2-0.1,0.2-0.2l0.4-2.3l0.2,0c0.4-0.1,0.8-0.3,1.2-0.5l0.1-0.1l2,1.3c0.1,0,0.2,0,0.2,0l1.6-1.6c0.1-0.1,0.1-0.2,0-0.2
			l-1.3-1.9l0.1-0.1c0.2-0.4,0.4-0.8,0.5-1.2l0-0.2l2.3-0.4c0.1,0,0.2-0.1,0.2-0.2v-2.2c0-0.1-0.1-0.2-0.2-0.2l-2.3-0.4l0-0.1
			c-0.1-0.4-0.3-0.8-0.5-1.2l-0.1-0.1l1.3-2c0-0.1,0-0.2,0-0.2l-1.6-1.6c-0.1-0.1-0.2-0.1-0.2,0l-2,1.3l-0.1-0.1
			c-0.4-0.2-0.8-0.4-1.2-0.5l-0.2,0l-0.4-2.3c0-0.1-0.1-0.2-0.2-0.2H89c-0.1,0-0.2,0.1-0.2,0.2l-0.4,2.3l-0.2,0
			c-0.4,0.1-0.8,0.3-1.2,0.5l-0.1,0.1l-1.9-1.3c-0.1,0-0.2,0-0.2,0l-1.5,1.5c-0.1,0.1-0.1,0.2,0,0.2l1.3,2l-0.1,0.1
			c-0.2,0.4-0.4,0.8-0.5,1.2l0,0.1l-2.3,0.4c-0.1,0-0.2,0.1-0.2,0.2v2.2c0,0.1,0.1,0.2,0.2,0.2l2.3,0.4l0,0.1
			c0.1,0.4,0.3,0.8,0.5,1.2l0.1,0.1l-1.3,1.9c0,0.1,0,0.2,0,0.2l1.5,1.6c0.1,0.1,0.2,0.1,0.2,0L86.9,418.3z M90.1,416.6
			c-2.2,0-4-1.8-4-4s1.8-4,4-4c2.2,0,4,1.8,4,4S92.4,416.6,90.1,416.6z M90.1,409.1c-1.9,0-3.5,1.6-3.5,3.5s1.6,3.5,3.5,3.5
			c1.9,0,3.5-1.6,3.5-3.5S92.1,409.1,90.1,409.1z"/>
	</g>
</g>
<g>
	<g>
		<path d="M104.8,412.7c0,0-0.1,0-0.1,0l-1.5-0.3c-0.3,0-0.5-0.3-0.5-0.6l0-1.4c-0.2-0.1-0.4-0.2-0.5-0.4l-1.2,0.5
			c-0.2,0.1-0.5,0-0.7-0.2l-0.8-1.3c-0.1-0.2-0.1-0.5,0.1-0.7l1-0.9c-0.1-0.2-0.1-0.4-0.1-0.7l-1.3-0.5c-0.2-0.1-0.4-0.4-0.3-0.6
			l0.3-1.5c0-0.3,0.3-0.5,0.6-0.5l1.4,0c0.1-0.2,0.2-0.4,0.4-0.5l-0.5-1.3c-0.1-0.2,0-0.5,0.2-0.7l1.3-0.8c0.2-0.1,0.5-0.1,0.7,0.1
			l1,1c0.2-0.1,0.4-0.1,0.6-0.1l0.5-1.3c0.1-0.2,0.4-0.4,0.6-0.3l1.5,0.3c0.3,0,0.5,0.3,0.5,0.6l0,1.4c0.2,0.1,0.4,0.2,0.6,0.4
			l1.3-0.5c0.2-0.1,0.5,0,0.7,0.2l0.8,1.3c0.1,0.2,0.1,0.5-0.1,0.7l-1,1c0.1,0.2,0.1,0.4,0.1,0.7l1.3,0.5c0.2,0.1,0.4,0.4,0.3,0.6
			l-0.3,1.5c-0.1,0.3-0.3,0.4-0.6,0.5l-1.4,0c-0.1,0.2-0.2,0.4-0.4,0.6l0.5,1.3c0.1,0.2,0,0.6-0.2,0.7l-1.3,0.8
			c-0.2,0.1-0.5,0.1-0.7-0.1l-1-1c-0.2,0.1-0.4,0.1-0.7,0.1l-0.5,1.3C105.2,412.6,105,412.7,104.8,412.7z M102.3,409.5l0.1,0.1
			c0.2,0.2,0.5,0.3,0.7,0.5l0.1,0.1l0,1.7c0,0,0,0,0,0.1l1.5,0.3c0,0,0.1,0,0.1,0l0.6-1.5l0.2,0c0.3,0,0.6-0.1,0.9-0.2l0.1,0
			l1.2,1.2c0,0,0,0,0.1,0l1.3-0.8c0,0,0,0,0-0.1l-0.7-1.5l0.1-0.1c0.2-0.2,0.4-0.5,0.5-0.8l0.1-0.1l1.7,0c0,0,0,0,0.1,0l0.3-1.5
			c0,0,0,0,0-0.1l0,0l-1.6-0.6l0-0.2c0-0.3-0.1-0.6-0.2-0.9l0-0.1l1.2-1.2c0,0,0,0,0-0.1l-0.8-1.3c0,0,0,0-0.1,0l-1.6,0.7l-0.1-0.1
			c-0.2-0.2-0.5-0.4-0.8-0.5l-0.1-0.1l0-1.7c0,0,0,0,0,0l-1.5-0.3c0,0-0.1,0-0.1,0l-0.6,1.6l-0.2,0c-0.3,0-0.6,0.1-0.9,0.2l-0.1,0
			l-1.2-1.2c0,0-0.1,0-0.1,0l-1.3,0.8c0,0,0,0.1,0,0.1l0.7,1.5l-0.1,0.1c-0.2,0.2-0.3,0.5-0.5,0.7l-0.1,0.1l-1.7,0c0,0,0,0-0.1,0
			l-0.3,1.5c0,0,0,0,0,0.1l1.6,0.6l0,0.2c0,0.3,0.1,0.6,0.2,0.9l0,0.2l-1.2,1.2c0,0,0,0.1,0,0.1l0.8,1.3c0,0,0,0,0.1,0L102.3,409.5z
			 M105.2,409.1c-0.2,0-0.4,0-0.6-0.1l0,0c-1.5-0.3-2.5-1.8-2.2-3.4c0.1-0.7,0.6-1.4,1.2-1.8c0.6-0.4,1.4-0.6,2.1-0.4
			c0.7,0.1,1.4,0.6,1.8,1.2c0.4,0.6,0.6,1.4,0.4,2.1c-0.1,0.7-0.6,1.4-1.2,1.8C106.3,408.9,105.8,409.1,105.2,409.1z M105.2,403.9
			c-0.5,0-0.9,0.1-1.3,0.4c-0.5,0.3-0.9,0.9-1,1.5c-0.3,1.3,0.6,2.5,1.8,2.8h0c0.6,0.1,1.2,0,1.7-0.3c0.5-0.3,0.9-0.9,1-1.5
			c0.1-0.6,0-1.2-0.3-1.7c-0.3-0.5-0.9-0.9-1.5-1C105.5,403.9,105.4,403.9,105.2,403.9z"/>
	</g>
</g>
<g>
	<g>
		<path d="M95,403.7C95,403.7,94.9,403.7,95,403.7l-1.3-0.2c-0.2,0-0.4-0.2-0.4-0.5l-0.1-1.1c-0.1-0.1-0.3-0.2-0.4-0.2l-0.9,0.5
			c-0.2,0.1-0.5,0-0.6-0.1l-0.7-1c-0.1-0.2-0.1-0.5,0-0.6l0.7-0.8c-0.1-0.2-0.1-0.3-0.1-0.5l-1-0.3c-0.2-0.1-0.4-0.3-0.3-0.5
			l0.2-1.2c0-0.2,0.2-0.4,0.5-0.4l1.1-0.1c0.1-0.1,0.2-0.3,0.2-0.4l-0.5-1c-0.1-0.2,0-0.5,0.1-0.6l1-0.7c0.2-0.1,0.5-0.1,0.6,0
			l0.8,0.7c0.2,0,0.3-0.1,0.5-0.1l0.3-1c0.1-0.2,0.3-0.4,0.5-0.3l1.2,0.2c0.2,0,0.4,0.2,0.4,0.5l0.1,1.1c0.2,0.1,0.3,0.2,0.4,0.3
			l1-0.5c0.2-0.1,0.5,0,0.6,0.1l0.7,1c0.1,0.2,0.1,0.5,0,0.6l-0.7,0.8c0.1,0.2,0.1,0.3,0.1,0.5l1,0.3c0.2,0.1,0.4,0.3,0.3,0.5
			l-0.2,1.2c0,0.2-0.2,0.4-0.5,0.4l-1.1,0.1c-0.1,0.1-0.2,0.3-0.3,0.4l0.5,1c0.1,0.2,0,0.5-0.1,0.6l-1,0.7c-0.2,0.1-0.5,0.1-0.6,0
			l-0.8-0.7c-0.2,0.1-0.3,0.1-0.5,0.1l-0.3,1C95.4,403.6,95.2,403.7,95,403.7z M92.9,401.2l0.1,0.1c0.2,0.1,0.4,0.2,0.6,0.3l0.1,0.1
			l0.1,1.4l1.2,0.2l0.4-1.3l0.2,0c0.2,0,0.5-0.1,0.7-0.2l0.1-0.1l1,0.9l1-0.7l-0.6-1.2l0.1-0.1c0.1-0.2,0.3-0.4,0.4-0.6l0.1-0.1
			l1.4-0.1l0.2-1.2l-1.3-0.4l0-0.2c0-0.2-0.1-0.5-0.2-0.7l-0.1-0.1l0.9-1l-0.7-1l-1.2,0.6l-0.1-0.1c-0.2-0.1-0.4-0.3-0.6-0.4
			l-0.1-0.1l-0.1-1.4l-1.2-0.2l-0.4,1.3l-0.2,0c-0.2,0-0.5,0.1-0.7,0.2l-0.1,0.1l-1-0.9l-1,0.7l0.6,1.2l-0.1,0.1
			c-0.1,0.2-0.2,0.4-0.3,0.6l-0.1,0.1l-1.4,0.1l-0.2,1.2l1.3,0.4l0,0.2c0,0.2,0.1,0.5,0.2,0.7l0.1,0.1l-0.9,1l0.7,0.9L92.9,401.2z
			 M95,400.8c-0.1,0-0.2,0-0.3,0l0,0c-1.3-0.2-2.2-1.4-2-2.6c0.2-1.3,1.4-2.2,2.6-2c1.3,0.2,2.2,1.4,2,2.6
			C97.2,400,96.2,400.8,95,400.8z M94.8,400.3c1,0.1,1.9-0.6,2.1-1.6c0.1-1-0.6-1.9-1.6-2c-1-0.1-1.9,0.6-2.1,1.6
			C93.1,399.2,93.8,400.1,94.8,400.3z"/>
	</g>
</g>
<path class="st256" d="M123.8,399.5c-1.2-1.4-2.6-3-4.2-4.5c-7.6-7.4-15.8-11.3-23.8-11.3c-8,0-16.3,3.9-23.8,11.3
	c-1.7,1.7-3.1,3.1-4.3,4.5l-0.4-0.2c-5.2-2.5-8.4-5.8-8.4-9.3v-21.4c0-0.3,0.1-0.7,0.1-1c1.4,7.6,17.3,13.6,36.8,13.6l0,0
	c19.5,0,35.4-6,36.8-13.6c0.1,0.4,0.1,0.7,0.1,1V390c0,3.6-3.2,6.8-8.5,9.3L123.8,399.5z"/>
<path class="st256" d="M64.1,404.2c-0.4,0.7-0.9,1.3-1.3,2.1l-1.2,2l1.2,2c0.1,0.2,3.4,5.7,9.1,11.3c7.6,7.4,15.8,11.3,23.8,11.3
	c8,0,16.3-3.9,23.8-11.3c5.7-5.5,9-11,9.1-11.3l1.2-2l-1.2-2c0-0.1-0.5-0.8-1.3-2l0.3-0.2c2.7-1.9,4.5-4,4.9-6.3
	c0.1,0.3,0.1,0.7,0.1,1v21.4c0,8.1-16.5,14.6-36.9,14.6c-20.4,0-36.9-6.5-36.9-14.6v-21.4c0-0.4,0.1-0.7,0.1-1
	c0.4,2.3,2.1,4.4,4.8,6.2L64.1,404.2z"/>
<path d="M760.1,286l-13.5-13.6c2.4-2.6,3.9-6,3.9-9.8c0-7.9-6.4-14.3-14.3-14.3c-7.9,0-14.3,6.4-14.3,14.3c0,7.9,6.4,14.3,14.3,14.3
	c3.7,0,7.1-1.4,9.6-3.7l13.5,13.6L760.1,286z M723,262.5c0-7.3,5.9-13.2,13.2-13.2c7.3,0,13.2,5.9,13.2,13.2
	c0,7.3-5.9,13.2-13.2,13.2C729,275.7,723,269.8,723,262.5z"/>
<polygon class="st257" points="384.3,307.9 369.1,323 369.1,325.4 373,325.4 386.6,311.4 "/>
<path class="st256" d="M384.3,307.9h29.8c4.6,0.6,4,4.7,4,4.7v6.5l-3.7,2.6v-8.6c0,0,0.2-2-2.6-1.8h-21c0,0-2,0.5-2,2.1v9.9
	c0,0,0.4,3.8-4.6,4.1h-9.1c0,0-2.2-0.3-2.2,2.2v31.9c0,0-0.2,2,2.2,2.1h37.3c1.9,0.1,1.8-1.9,1.8-1.9v-11.4l3.9-3.5v16
	c-0.1,4.8-4.8,4.4-4.8,4.4H373c-3.7-0.3-3.8-4.4-3.8-4.4v-37.5h14.6c0,0,2.6-0.5,2.8-3.7v-9.9L384.3,307.9z"/>
<path d="M396.9,354.2l1.8-9l0.6,0.4c0.1,0.1,3.5,2.1,5.1,4.4l0.3,0.5L396.9,354.2z M399.4,346.9l-1.1,5.5l4.9-2.4
	C402.1,348.7,400.3,347.5,399.4,346.9z"/>
<path d="M409.4,350.4l-0.2-1c-1.2-7.3-8.4-8.1-8.5-8.1l-1.1-0.1l22.4-22.5l0.1,0c2-0.8,3.6,0.2,3.8,0.3c7.1,4.2,5.8,8.4,5.7,8.6
	l0,0.1L409.4,350.4z M401.9,340.5c2.1,0.5,6.8,2.2,8.2,7.8l20.7-21.1c0.1-0.6,0.5-3.9-5.3-7.3l0,0c0,0-1.2-0.8-2.7-0.2L401.9,340.5z
	"/>
<rect x="391.7" y="320.7" class="st257" width="18.5" height="3"/>
<polygon class="st257" points="407.5,330.1 391.7,330.1 391.7,327.1 410.3,327.1 "/>
<polygon class="st257" points="399.6,337 377.5,337 377.5,334 402.3,334 "/>
<polygon class="st257" points="393.5,343.5 377.5,343.5 377.5,340.6 396.2,340.6 "/>
<polygon class="st257" points="390.6,350.1 377.5,350.1 377.5,347.1 393.3,347.1 "/>
<rect x="377.5" y="353.6" class="st257" width="12.9" height="3"/>
<path class="st257" d="M244.4,133.7c0,2.6-2.1,4.6-4.6,4.6h-15.9c-2.6,0-4.6-2.1-4.6-4.6v-13.5c0-2.6,2.1-4.6,4.6-4.6h15.9
	c2.6,0,4.6,2.1,4.6,4.6V133.7z"/>
<path class="st257" d="M279.4,133.7c0,2.6-2.1,4.6-4.6,4.6h-15.9c-2.6,0-4.6-2.1-4.6-4.6v-13.5c0-2.6,2.1-4.6,4.6-4.6h15.9
	c2.6,0,4.6,2.1,4.6,4.6V133.7z"/>
<path class="st257" d="M313.2,133.7c0,2.6-2.1,4.6-4.6,4.6h-15.9c-2.6,0-4.6-2.1-4.6-4.6v-13.5c0-2.6,2.1-4.6,4.6-4.6h15.9
	c2.6,0,4.6,2.1,4.6,4.6V133.7z"/>
<g>
	<polygon points="239.2,106.9 236.7,104.7 251.8,88.2 282.9,88.2 296.8,104.7 294.3,106.9 281.3,91.5 253.3,91.5 	"/>
</g>
<g>
	<rect x="264.8" y="89.8" width="3.3" height="18.6"/>
</g>
<path class="st256" d="M239.4,61.8v9.7c0,4.1,3.3,7.4,7.4,7.4h40.4c4.1,0,7.4-3.3,7.4-7.4v-9.7H239.4z M283.5,69.8h-34.2V64h34.2
	V69.8z"/>
<g>
	<rect x="834.3" y="111.6" width="21.5" height="0.4"/>
</g>
<g>
	<rect x="834.3" y="117.8" width="14.4" height="0.4"/>
</g>
<g>
	<rect x="834.3" y="124" width="14.4" height="0.4"/>
</g>
<g>
	<rect x="834.3" y="154.1" width="21.5" height="0.4"/>
</g>
<g>
	<rect x="834.3" y="160.3" width="14.4" height="0.4"/>
</g>
<g>
	<rect x="834.3" y="166.4" width="14.4" height="0.4"/>
</g>
<g>
	<rect x="918.3" y="111.6" width="21.5" height="0.4"/>
</g>
<g>
	<rect x="918.3" y="117.8" width="14.4" height="0.4"/>
</g>
<g>
	<rect x="918.3" y="124" width="14.4" height="0.4"/>
</g>
<g>
	<rect x="918.3" y="154.1" width="21.5" height="0.4"/>
</g>
<g>
	<rect x="918.3" y="160.3" width="14.4" height="0.4"/>
</g>
<g>
	<rect x="918.3" y="166.4" width="14.4" height="0.4"/>
</g>
</svg>
