<?xml version="1.0" encoding="utf-8"?>
<!-- Generator: Adobe Illustrator 22.0.1, SVG Export Plug-In . SVG Version: 6.00 Build 0)  -->
<svg version="1.1" id="Layer_1" xmlns="http://www.w3.org/2000/svg" xmlns:xlink="http://www.w3.org/1999/xlink" x="0px" y="0px"
	 viewBox="0 0 126 116" style="enable-background:new 0 0 126 116;" xml:space="preserve">
<style type="text/css">
	.st0{fill:url(#SVGID_1_);}
	.st1{fill:none;stroke:#0459A2;stroke-miterlimit:10;}
	.st2{fill:#FF0013;}
	.st3{fill:#0B4A99;}
	.st4{fill:#CD1618;}
	.st5{fill:#DB9821;}
	.st6{fill:#40875E;}
	.st7{fill:#918831;}
	.st8{fill:#F0AB00;}
	.st9{fill:#A8A240;}
	.st10{fill:none;}
	.st11{fill:#0071C5;}
	.st12{fill:#EFAA1E;}
	.st13{fill:none;stroke:#000000;stroke-width:0.5;stroke-miterlimit:10;}
	.st14{fill:#A69F3D;}
	.st15{fill:#231F20;}
	.st16{fill-rule:evenodd;clip-rule:evenodd;fill:#A69F3D;}
	.st17{fill-rule:evenodd;clip-rule:evenodd;fill:#F0AB00;}
	.st18{fill-rule:evenodd;clip-rule:evenodd;fill:#A8A240;}
	.st19{fill-rule:evenodd;clip-rule:evenodd;fill:#40875E;}
	.st20{fill-rule:evenodd;clip-rule:evenodd;fill:#0B4A99;}
	.st21{fill:#FFFFFF;}
	.st22{fill:#0057A2;}
</style>
<g>
	<path class="st9" d="M25,51.6c-0.3,8,5.9,14.8,13.9,15.1c0.2,0,0.5,0,0.7,0v-4.4c-5.4,0.1-10-4.2-10.2-9.7
		c-0.3-5.6,4-10.4,9.6-10.6c0.2,0,0.4,0,0.6,0v-4.4C31.8,37.6,25.3,43.7,25,51.6z"/>
	<path class="st6" d="M16,49.6l2.1,1.1c0.5,0.3,0.9,0.9,0.9,1.5c0,0,0,0.3,0,0.9c0,0.2,0,0.2,0,0.2c0,0.2-0.4,0.7-0.8,1l-2.1,1.2
		c-0.5,0.3-0.8,1-0.7,1.5l1,3.7c0.2,0.5,0.8,0.9,1.3,0.9l2.4-0.1c0.6,0,1.2,0.3,1.4,0.7c0.2,0.4,0.7,1.9,0.4,2.4l-1.2,2.1
		c-0.3,0.5-0.2,1.2,0.2,1.6l2.8,2.7c0.4,0.4,1.2,0.4,1.6,0.1l2-1.3c0.5-0.3,1.2-0.3,1.6-0.1c0.4,0.2,1.5,1.3,1.5,1.9l0,2.4
		c0,0.6,0.4,1.2,1,1.3l3.7,0.9c0.5,0.1,1.2-0.2,1.5-0.7l1.1-2.1c0.3-0.5,0.9-0.9,1.5-0.9c0,0,0,0,0.1,0v-4c-0.3,0-0.5,0-0.8,0
		c-9.1-0.4-16.2-8.1-15.8-17.2c0.4-9,7.8-16,16.6-15.9v-4c-0.1,0-0.1,0-0.2,0c0,0-0.3,0-0.9,0c-0.2,0-0.2,0-0.2,0
		c-0.2,0-0.7-0.4-1-0.8l-1.2-2.1c-0.3-0.5-0.9-0.8-1.5-0.7l-3.7,1.1c-0.5,0.2-0.9,0.8-0.9,1.4l0.1,2.4c0,0.6-0.3,1.2-0.7,1.4
		c-0.4,0.2-1.9,0.7-2.4,0.4l-2.1-1.2c-0.5-0.3-1.2-0.2-1.6,0.2l-2.7,2.8c-0.4,0.4-0.4,1.2-0.1,1.6l1.3,2c0.3,0.5,0.3,1.2,0.1,1.6
		c-0.2,0.4-1.3,1.5-1.8,1.5l-2.4,0c-0.6,0-1.1,0.4-1.3,1l-0.9,3.8C15.2,48.6,15.5,49.3,16,49.6z"/>
	<g>
		<g>
			<path d="M77.2,107.7h-41v-1.1c0-1.3,0.9-2.4,2.1-2.4H40l2-8.3H4c-1.7,0-3.1-1.4-3.1-3.1V20.9c0-1.7,1.4-3.1,3.1-3.1h105.4
				c1.7,0,3.1,1.4,3.1,3.1v17.5l-0.4,0c-1.6-0.1-3.1-0.1-4.5-0.1l0-0.7c1.4,0,2.7,0,4.2,0V20.9c0-1.3-1.1-2.4-2.4-2.4H4
				c-1.3,0-2.4,1.1-2.4,2.4v71.9c0,1.3,1.1,2.4,2.4,2.4h39l-2.4,9.8h-2.4c-0.7,0-1.3,0.7-1.3,1.6v0.4h39.6v-0.4
				c0-0.9-0.6-1.6-1.3-1.6h-2.4l-2.4-9.8h13.6V80.3h0.7v15.6H71.3l2,8.3h1.8c1.1,0,2.1,1.1,2.1,2.4V107.7z"/>
		</g>
	</g>
	<rect x="43.4" y="31.3" class="st8" width="3.5" height="3.5"/>
	<rect x="44.4" y="39.3" class="st8" width="3.5" height="3.5"/>
	<rect x="51.4" y="38.1" class="st8" width="3.5" height="3.5"/>
	<rect x="50.6" y="47.3" class="st8" width="3.5" height="3.5"/>
	<rect x="58.6" y="43.6" class="st8" width="3.5" height="3.5"/>
	<rect x="75" y="44.9" class="st8" width="3.5" height="3.5"/>
	<rect x="69.2" y="31.2" class="st8" width="3.5" height="3.5"/>
	<rect x="57.6" y="33" class="st8" width="3.5" height="3.5"/>
	<rect x="77.4" y="51.6" class="st8" width="3.5" height="3.5"/>
	<rect x="66.8" y="48" class="st8" width="3.5" height="3.5"/>
	<rect x="59" y="51.6" class="st8" width="3.5" height="3.5"/>
	<rect x="69.4" y="55.1" class="st8" width="3.5" height="3.5"/>
	<rect x="68.2" y="39.1" class="st8" width="3.5" height="3.5"/>
	<rect x="56.7" y="58.8" class="st8" width="3.5" height="3.5"/>
	<rect x="61.9" y="60.7" class="st8" width="3.5" height="3.5"/>
	<rect x="49.2" y="55.9" class="st8" width="3.5" height="3.5"/>
	<rect x="41.6" y="49.4" class="st8" width="3.5" height="3.5"/>
	<rect x="41.6" y="60.2" class="st8" width="3.5" height="3.5"/>
	<rect x="43.4" y="69.2" class="st8" width="3.5" height="3.5"/>
	<rect x="50.2" y="66.2" class="st8" width="3.5" height="3.5"/>
	<path class="st10" d="M101.4,54.6c-0.5,0.1-1,0.1-1.4,0.2h1.4V54.6z"/>
	<path class="st8" d="M118.6,93.6c-12.1,3.7-24.2,0-24.2,0c-3.9-1.3-6.5-3.1-6.9-5.3c0,0.2-0.1,0.3-0.1,0.5v11
		c0,4.2,8.5,7.5,19.1,7.5c10.5,0,19-3.4,19-7.5v-11c0-0.2,0-0.4-0.1-0.5C125.1,90.5,122.5,92.3,118.6,93.6z"/>
	<path class="st11" d="M106.5,54.2c0.8,0,1.6,0,2.3,0.1v-3.8c-0.8,0-1.5-0.1-2.3-0.1c-0.8,0-1.5,0-2.3,0.1v3.8
		C105,54.3,105.8,54.2,106.5,54.2z"/>
	<path class="st6" d="M111.8,50.7v3.9c5.8,0.8,10,3.1,10,5.7c0,3.3-6.8,6-15.2,6c-8.4,0-15.2-2.7-15.2-6c0-2.3,3.2-4.3,7.9-5.3
		l-0.1-0.1h0.8c0.5-0.1,0.9-0.2,1.4-0.2v-3.9c-8,0.9-13.9,3.8-13.9,7.3v11c0,4.2,8.5,7.5,19.1,7.5c10.5,0,19-3.4,19-7.5v-11
		C125.6,54.5,119.8,51.6,111.8,50.7z"/>
	<path class="st9" d="M106.5,79.8c-10.1,0-18.3-3.1-19-7c0,0.2-0.1,0.4-0.1,0.5v11c0,2.4,2.8,4.5,7.1,5.9c0,0,12,3.8,25.1-0.4l0,0
		c3.6-1.4,5.9-3.3,5.9-5.4v-11c0-0.2,0-0.3-0.1-0.5C124.8,76.7,116.6,79.8,106.5,79.8z"/>
	<path class="st11" d="M99.2,54.8l0.1,0.1c0.2,0,0.5-0.1,0.7-0.1H99.2z"/>
	<polygon class="st6" points="104,43 101.7,43 101.7,57.1 99.9,57.1 102.8,62.2 105.8,57.1 104,57.1 	"/>
	<polygon class="st6" points="113.3,48.3 110.3,43.2 107.4,48.3 109.2,48.3 109.2,62.2 111.5,62.2 111.5,48.3 	"/>
</g>
</svg>
