<?xml version="1.0" encoding="utf-8"?>
<!-- Generator: Adobe Illustrator 22.0.1, SVG Export Plug-In . SVG Version: 6.00 Build 0)  -->
<svg version="1.1" id="Layer_1" xmlns="http://www.w3.org/2000/svg" xmlns:xlink="http://www.w3.org/1999/xlink" x="0px" y="0px"
	 viewBox="0 0 100 100" style="enable-background:new 0 0 100 100;" xml:space="preserve">
<style type="text/css">
	.st0{fill:#128ECE;}
	.st1{fill:#60987E;}
	.st2{fill:none;stroke:#A69F3D;stroke-width:3;stroke-miterlimit:10;}
	.st3{fill:none;stroke:#EFAA1E;stroke-width:3;stroke-miterlimit:10;}
	.st4{fill:#EFAA1E;}
	.st5{fill:#A69F3D;}
	.st6{fill:none;}
	.st7{fill:#0071C5;}
	.st8{fill:#FFFFFF;}
	.st9{fill:url(#path3060_2_);}
	.st10{fill:#2B6FB6;}
	.st11{fill:url(#path3060_3_);}
	.st12{fill:#0B4A99;}
	.st13{fill:#CD1618;}
</style>
<circle class="st0" cx="47.3" cy="69.2" r="18"/>
<polygon class="st0" points="87,70.2 10.3,70.2 17.3,0.2 80,0.2 "/>
<path class="st1" d="M64,69.2c-0.1,8.4-6.9,15.2-15.3,15.2c-8.4,0-15.2-6.8-15.3-15.2h-23v30.7H87V69.2H64z"/>
<path class="st2" d="M65.7,85.8L65.7,85.8c0,4-3.3,7.3-7.3,7.3H41.7c-4,0-7.3-3.3-7.3-7.3v0"/>
<line class="st3" x1="21" y1="53.5" x2="79.7" y2="53.5"/>
<line class="st3" x1="25" y1="35.5" x2="75.7" y2="35.5"/>
<line class="st3" x1="29" y1="17.5" x2="71.7" y2="17.5"/>
</svg>
