<?xml version="1.0" encoding="utf-8"?>
<!-- Generator: Adobe Illustrator 22.0.1, SVG Export Plug-In . SVG Version: 6.00 Build 0)  -->
<svg version="1.1" id="Layer_1" xmlns="http://www.w3.org/2000/svg" xmlns:xlink="http://www.w3.org/1999/xlink" x="0px" y="0px"
	 viewBox="0 0 126 116" style="enable-background:new 0 0 126 116;" xml:space="preserve">
<style type="text/css">
	.st0{fill:url(#SVGID_1_);}
	.st1{fill:none;stroke:#0459A2;stroke-miterlimit:10;}
	.st2{fill:#FF0013;}
	.st3{fill:#0B4A99;}
	.st4{fill:#CD1618;}
	.st5{fill:#DB9821;}
	.st6{fill:#40875E;}
	.st7{fill:#918831;}
	.st8{fill:#F0AB00;}
	.st9{fill:#A8A240;}
	.st10{fill:none;}
	.st11{fill:#0071C5;}
	.st12{fill:#EFAA1E;}
	.st13{fill:none;stroke:#000000;stroke-width:0.5;stroke-miterlimit:10;}
	.st14{fill:#A69F3D;}
	.st15{fill:#231F20;}
	.st16{fill-rule:evenodd;clip-rule:evenodd;fill:#A69F3D;}
	.st17{fill-rule:evenodd;clip-rule:evenodd;fill:#F0AB00;}
	.st18{fill-rule:evenodd;clip-rule:evenodd;fill:#A8A240;}
	.st19{fill-rule:evenodd;clip-rule:evenodd;fill:#40875E;}
	.st20{fill-rule:evenodd;clip-rule:evenodd;fill:#0B4A99;}
	.st21{fill:#FFFFFF;}
	.st22{fill:#0057A2;}
</style>
<path class="st6" d="M69.8,85.6v10.6c0,10.1,8.2,18.3,18.3,18.3c10.1,0,18.3-8.2,18.3-18.3l0-12.1c3.9-0.5,7.7-2.8,11.1-6.7
	c0.5-0.6,0.7-1.3,0.6-2c4.5-5.9,7.3-13.9,7.3-20.1c0-9.5-4.3-10.5-11.3-12.1l0,0c-0.5-0.9-1.3-1.5-2.4-1.5c-1.5,0-2.7,1.2-2.7,2.7
	c0,1.5,1.2,2.7,2.7,2.7c0.6,0,1.1-0.2,1.6-0.6l0,0c6.9,1.6,8.7,2,8.7,8.8c0,5.4-2.6,12.7-6.5,17.9c-0.6,0-1.3,0.3-1.8,0.9
	c-2,2.3-5.2,5.1-9,5.1c-3.8,0-7-2.8-9-5.1c-0.5-0.5-1.1-0.8-1.8-0.9c-3.9-5.2-6.5-12.5-6.5-17.9c0-6.8,1.8-7.3,8.7-8.8l0.1,0
	c0.4,0.3,1,0.6,1.6,0.6c1.5,0,2.7-1.2,2.7-2.7c0-1.5-1.2-2.7-2.7-2.7c-1.1,0-1.9,0.6-2.4,1.5l0,0c-7,1.6-11.3,2.6-11.3,12.1
	c0,6.2,2.8,14.2,7.2,20c-0.1,0.7,0.1,1.4,0.6,2c3.4,3.9,7.2,6.2,11.1,6.7l0,12.1c0,8.3-6.7,15-15,15c-8.3,0-15-6.7-15-15V85.6
	c4.8-0.8,8.4-4.9,8.4-9.9c0-5.6-4.5-10.1-10.1-10.1c-5.6,0-10.1,4.5-10.1,10.1C61.4,80.7,65.1,84.8,69.8,85.6z M64.8,75.7
	c0-3.7,3-6.7,6.7-6.7c3.7,0,6.7,3,6.7,6.7c0,3.7-3,6.7-6.7,6.7C67.8,82.4,64.8,79.4,64.8,75.7z"/>
<path class="st9" d="M71.5,70.7c2.8,0,5.1,2.3,5.1,5c0,2.8-2.3,5-5.1,5c-2.8,0-5-2.2-5-5C66.5,72.9,68.7,70.7,71.5,70.7z"/>
<path class="st10" d="M71.6,67c-4.7,0-8.6,3.9-8.6,8.6c0,4.8,3.9,8.6,8.6,8.6c4.8,0,8.6-3.8,8.6-8.6C80.2,70.9,76.3,67,71.6,67z"/>
<path class="st10" d="M28,75.5c0-0.3,0-0.6,0.1-0.9c-1.1,0.6-2.4,1.1-3.7,1.4v2c1.5,0.3,3,0.6,4.6,0.8l0.4-0.3
	C28.5,77.8,28,76.7,28,75.5z"/>
<path d="M10.5,51.5l-0.4-0.2C4.8,48.2,2,44.5,2,40.6V27.8h0.7c0,5.4,6,10.4,16,13.5l0.3,0.1l-0.1,0.3c-0.2,0.4-0.2,0.9-0.2,1.4v0.8
	l-0.3,0.1c-2.3,0.4-4.1,1.3-5.5,2.7c-1.2,1.2-2,2.7-2.3,4.4L10.5,51.5z M2.6,30.9v9.7c0,3.6,2.6,6.9,7.4,9.8
	c0.4-1.7,1.2-3.1,2.4-4.3c1.4-1.4,3.3-2.3,5.5-2.8v-0.2c0-0.5,0.1-0.9,0.2-1.3C10,39.2,4.5,35.3,2.6,30.9z"/>
<path d="M40.1,57.8c-4.9,0-9.7-0.4-14.3-1.2l0,0c-0.5-0.2-1-0.3-1.5-0.5L24,56v-3.5l0.6,1.2c0.7,1.4,1.9,2.1,3.5,2.1
	c1.1,0,2-0.4,2.8-1.1c0.7-0.7,1.1-1.7,1.1-2.7c0-0.8-0.2-1.6-0.6-2.5c-0.4-0.8-0.9-1.6-1.6-2.4c-0.9-1-1.9-1.8-3.1-2.3l0,0
	c-0.7-0.3-1.5-0.6-2.4-0.7L24,43.9v-1.2l0.4,0.1c5,1,10.2,1.5,15.7,1.5c20.7,0,37.5-7.4,37.5-16.5h0.7v12.9c0,2.5-1.2,5-3.6,7.3
	L74.6,48l-0.1,0c-0.1,0-0.1,0-0.2,0c0,0-0.1,0-0.1,0h-5.2c-3,0-5.7,2-6.4,5l-0.1,0.4L62,53.1c-1-0.6-2.2-0.9-3.4-0.9
	c-1.8,0-3.5,0.7-4.7,2L51,57.1l-0.1,0C47.4,57.6,43.8,57.8,40.1,57.8z M28.8,56.4c3.7,0.5,7.5,0.8,11.3,0.8c3.6,0,7.1-0.2,10.6-0.7
	l2.7-2.7c1.4-1.4,3.2-2.1,5.2-2.1c1.2,0,2.3,0.3,3.3,0.8c1-3,3.8-5.1,7-5.1h5.2c0.1,0,0.1,0,0.2,0c2.2-2.1,3.3-4.4,3.3-6.7V31
	c-1.4,3.4-5.1,6.5-10.6,9c-7.2,3.2-16.7,5-26.9,5c-4.9,0-9.6-0.4-14.1-1.2c0.3,0.1,0.6,0.2,0.9,0.4l0,0c1.3,0.6,2.4,1.4,3.4,2.5
	c0.7,0.8,1.3,1.6,1.7,2.5c0.4,1,0.7,1.9,0.7,2.8c0,1.2-0.5,2.3-1.3,3.2C30.6,55.8,29.7,56.2,28.8,56.4z M24.7,55.5
	c0.4,0.1,0.8,0.3,1.2,0.4c-0.5-0.2-0.9-0.6-1.2-1V55.5z"/>
<path class="st8" d="M96.3,78.6v-6.2l-7.3-1.2c-0.4-1.7-1.1-3.4-2-4.9l4.3-6.1l-4.4-4.4l-6,4.3c-1.5-0.9-3.1-1.6-4.9-2l-1.3-7.3
	h-6.2l-1.2,7.3c-1.8,0.4-3.4,1.1-4.9,2l-6-4.3L52,60.3l4.2,6c-0.9,1.5-1.6,3.2-2,4.9l-7.2,1.2v6.2l7.2,1.3c0.4,1.8,1.1,3.4,2,4.9
	l-4.3,6l4.4,4.4l6-4.2c1.5,0.9,3.2,1.6,4.9,2l1.2,7.3h6.2l1.3-7.3c1.7-0.4,3.4-1.1,4.9-2l6.1,4.3l4.4-4.4l-4.3-6
	c0.9-1.5,1.6-3.1,2-4.9L96.3,78.6z M71.6,84.2c-4.7,0-8.6-3.8-8.6-8.6c0-4.7,3.9-8.6,8.6-8.6c4.8,0,8.6,3.9,8.6,8.6
	C80.2,80.4,76.3,84.2,71.6,84.2z"/>
<path d="M23.1,84.7L20.9,83l0.8-0.1c0.9-0.1,1.6-0.6,2-1.4c0.2-0.5,0.3-1.3,0.3-2.2v-1.6l0.4,0.1c1.5,0.3,3.1,0.6,4.6,0.8l0.7,0.1
	L23.1,84.7z M22.5,83.4l0.6,0.4l5.1-4.8c-1.2-0.2-2.4-0.4-3.6-0.6v0.8c0,1.1-0.1,1.9-0.4,2.5C23.9,82.6,23.3,83.1,22.5,83.4z"/>
<path d="M40.1,92.8c-4.5,0-9-0.4-13.2-1.1l-0.7-0.1l8.8-8.2l0.2,0.3c0.7,1.1,1.8,1.7,3.1,1.7c2,0,3.6-1.6,3.6-3.6v-2.7l0.3,0
	c0.5,0,1,0,1.6-0.1l0.3,0l0.1,0.3c0.5,2.5,2.4,4.6,4.9,5.2l0.4,0.1l-0.2,0.4c-1.2,2-1.2,4.6,0,6.7l0.2,0.4l-0.5,0.1
	C45.9,92.6,43,92.8,40.1,92.8z M27.7,91.2c4,0.6,8.2,0.9,12.5,0.9c2.7,0,5.4-0.1,8.2-0.4c-1-2.1-1-4.5,0.1-6.5
	c-2.4-0.8-4.3-2.8-4.9-5.3c-0.3,0-0.6,0-1,0v2c0,2.3-1.9,4.2-4.2,4.2c-1.3,0-2.6-0.6-3.4-1.7L27.7,91.2z"/>
<path d="M7.6,84.6l-0.2-0.2C3.9,81.8,2,78.7,2,75.6V62.7h0.7c0,5.3,5.9,10.3,15.8,13.4l0.2,0.1v3.5c0,0.3,0,0.6,0.1,0.9l0.1,0.8
	L17,80.1c-1.4-1-3.3-0.9-4.6,0.2L7.6,84.6z M2.6,65.9v9.7c0,2.9,1.7,5.7,5,8.2l4.4-4c1.5-1.4,3.8-1.5,5.4-0.2L18,80
	c0-0.1,0-0.2,0-0.3v-3C9.9,74.1,4.4,70.2,2.6,65.9z"/>
<path d="M41.9,75.3l0-0.3c-0.3-1.7-1.8-3-3.5-3h-6.4c-0.1,0-0.3,0-0.5,0l-0.7,0.1l0.4-0.6c0.3-0.4,0.4-0.7,0.6-0.9l0,0
	c0.8-1.5,1.2-3.1,1.2-4.8c0-1.4-0.3-2.7-0.8-3.8l-0.2-0.5l0.6,0.1c5.1,0.5,10.5,0.5,15.5,0l0.4,0l-0.1,0.4c-0.2,1.5,0.1,2.9,0.9,4.2
	l0.2,0.4L49,66.5c-3,0.7-5,3.4-5,6.5v2.2l-0.3,0c-0.5,0-1,0-1.5,0L41.9,75.3z M32,71.3h6.3c2,0,3.7,1.4,4.1,3.3c0.3,0,0.6,0,0.9,0
	v-1.6c0-3.2,2.1-6,5.1-7c-0.6-1.2-0.9-2.5-0.8-3.9c-4.8,0.4-9.8,0.4-14.7,0c0.4,1.1,0.6,2.3,0.6,3.6c0,1.8-0.4,3.6-1.3,5.1l0,0
	C32.2,71,32.1,71.1,32,71.3z"/>
<path d="M9.9,68.6l-0.7-0.4C4.5,65.3,2,61.8,2,58.1V45.3h0.7c0,3.7,2.7,7.1,7.8,10.1l0.1,0.1l0,0.1c0.2,1,0.6,1.9,1.1,2.6
	c0.9,1.3,2,2.3,3.4,3c0.9,0.5,2.1,0.9,3.3,1.3l0.2,0.1v5.9L18,66.9c-0.2-0.5-0.4-1.1-0.7-1.9c-0.3-0.8-0.7-1.5-1.4-1.9
	c-0.6-0.4-1.4-0.7-2.3-0.7c-1.1,0-2.1,0.4-2.9,1.2l0,0c-0.7,0.8-1.1,1.7-1.1,2.7c0,0.5,0.1,1.1,0.2,1.6L9.9,68.6z M2.6,48.5v9.7
	c0,3.3,2.2,6.4,6.4,9.2c0-0.3-0.1-0.7-0.1-1c0-1.2,0.5-2.3,1.3-3.2l0,0c0.9-0.9,2-1.4,3.3-1.4c1,0,1.9,0.3,2.7,0.8
	c0.8,0.5,1.4,1.3,1.7,2.3c0,0,0,0.1,0,0.1V63c-1.2-0.4-2.3-0.8-3.2-1.3c-1.5-0.8-2.7-1.8-3.6-3.2c-0.5-0.8-0.9-1.7-1.1-2.7
	C6.2,53.6,3.7,51.1,2.6,48.5z"/>
<path class="st14" d="M24.4,65C24.4,65,24.4,65,24.4,65l-0.1,2.7c0.4-0.4,0.5-0.9,0.5-1.5C24.9,65.5,24.6,65.2,24.4,65z"/>
<path d="M40.1,40.3c-10.1,0-19.7-1.8-26.9-5C6,32.1,2,27.8,2,23.2s4-9,11.3-12.2C20.4,7.8,30,6,40.1,6S59.8,7.8,67,11
	c7.3,3.2,11.3,7.6,11.3,12.2s-4,9-11.3,12.2C59.8,38.6,50.3,40.3,40.1,40.3z M40.1,6.7c-20.7,0-37.5,7.4-37.5,16.5
	c0,9.1,16.8,16.5,37.5,16.5c20.7,0,37.5-7.4,37.5-16.5C77.6,14.1,60.8,6.7,40.1,6.7z"/>
<path class="st6" d="M38.3,73.6h-6.4c-1.2,0-2.1,1-2.1,2.1c0,1.2,1,2.1,2.1,2.1h1l-9.6,8.9l-7.1-5.3c-0.8-0.6-1.9-0.6-2.7,0.1
	L2.8,91.1c-0.9,0.8-0.9,2.1-0.2,3c0.8,0.9,2.1,0.9,3,0.2l9.3-8.4l7.1,5.3c0.8,0.6,2,0.6,2.7-0.1l11.3-10.5v1.5c0,1.2,1,2.1,2.1,2.1
	c1.2,0,2.1-1,2.1-2.1v-6.4C40.4,74.5,39.4,73.6,38.3,73.6z"/>
<path class="st9" d="M22.5,43.2v2.1c1.4,0.1,2.6,0.4,3.6,0.9c1,0.4,1.9,1.1,2.6,1.9c0.6,0.7,1,1.3,1.3,2c0.3,0.7,0.5,1.3,0.5,1.9
	c0,0.6-0.2,1.2-0.7,1.7c-0.5,0.5-1,0.7-1.7,0.7c-1.3,0-2.1-0.7-2.5-2.1c-0.4-1.6-1.5-2.7-3.1-3.2v8.1c1.6,0.4,2.9,0.8,3.8,1.2
	c1,0.4,1.8,0.9,2.6,1.6c0.8,0.7,1.4,1.6,1.9,2.6c0.4,1,0.7,2.1,0.7,3.3c0,1.5-0.3,2.9-1,4.1c-0.7,1.3-1.7,2.3-3.1,3.2
	c-1.3,0.8-2.9,1.3-4.8,1.5v4.8c0,0.8-0.1,1.3-0.2,1.7c-0.1,0.3-0.5,0.5-1,0.5c-0.5,0-0.8-0.1-1-0.4c-0.2-0.3-0.3-0.7-0.3-1.3v-5.2
	c-1.5-0.2-2.8-0.5-4-1.1c-1.1-0.5-2.1-1.2-2.8-2c-0.8-0.8-1.3-1.6-1.7-2.5c-0.4-0.9-0.5-1.7-0.5-2.6c0-0.6,0.2-1.2,0.7-1.7
	c0.5-0.5,1.1-0.7,1.8-0.7c0.6,0,1.1,0.1,1.5,0.4c0.4,0.3,0.7,0.7,0.8,1.1c0.3,1.1,0.7,1.9,0.9,2.4c0.3,0.6,0.7,1.1,1.2,1.5
	c0.5,0.5,1.2,0.8,2.1,1.1v-9c-1.7-0.5-3.2-1-4.3-1.6c-1.2-0.6-2.1-1.4-2.8-2.5c-0.7-1.1-1.1-2.5-1.1-4.2c0-2.2,0.7-4.1,2.1-5.5
	c1.4-1.4,3.5-2.3,6.1-2.5v-2.1c0-1.1,0.4-1.6,1.2-1.6C22.1,41.7,22.5,42.2,22.5,43.2z M20.1,56.6v-7.4c-1.1,0.3-1.9,0.8-2.5,1.3
	c-0.6,0.5-0.9,1.3-0.9,2.4c0,1,0.3,1.8,0.9,2.3C18.1,55.7,18.9,56.1,20.1,56.6z M22.5,62.3v8.5c1.3-0.3,2.3-0.8,3-1.6
	c0.7-0.8,1.1-1.7,1.1-2.8c0-1.1-0.3-2-1-2.6C24.9,63.3,23.9,62.8,22.5,62.3z"/>
</svg>
