<?xml version="1.0" encoding="utf-8"?>
<!-- Generator: Adobe Illustrator 22.0.1, SVG Export Plug-In . SVG Version: 6.00 Build 0)  -->
<svg version="1.1" id="Layer_1" xmlns="http://www.w3.org/2000/svg" xmlns:xlink="http://www.w3.org/1999/xlink" x="0px" y="0px"
	 viewBox="0 0 100 100" style="enable-background:new 0 0 100 100;" xml:space="preserve">
<style type="text/css">
	.st0{fill:#128ECE;}
	.st1{fill:#60987E;}
	.st2{fill:none;stroke:#A69F3D;stroke-width:3;stroke-miterlimit:10;}
	.st3{fill:none;stroke:#EFAA1E;stroke-width:3;stroke-miterlimit:10;}
	.st4{fill:#EFAA1E;}
	.st5{fill:#A69F3D;}
	.st6{fill:none;}
	.st7{fill:#0071C5;}
	.st8{fill:#FFFFFF;}
	.st9{fill:url(#path3060_2_);}
	.st10{fill:#2B6FB6;}
	.st11{fill:url(#path3060_3_);}
	.st12{fill:#0B4A99;}
	.st13{fill:#CD1618;}
</style>
<g>
	<path class="st4" d="M2.3,85.1v5.5c0,0.3,0.3,0.6,0.6,0.6h4.2c0.3,0,0.6-0.3,0.6-0.6V81L4.7,84C4,84.7,3.2,85.1,2.3,85.1"/>
	<path class="st4" d="M9.8,80.9v9.7c0,0.3,0.3,0.6,0.6,0.6h4.2c0.3,0,0.6-0.3,0.6-0.6v-5.7c-1,0-1.9-0.4-2.5-1.1L9.8,80.9z"/>
	<path class="st4" d="M17.4,84.3v6.3c0,0.3,0.3,0.6,0.6,0.6h4.2c0.3,0,0.6-0.3,0.6-0.6V79L18,83.8C17.8,84,17.6,84.1,17.4,84.3"/>
	<path class="st4" d="M29.9,71.8l-5,5v13.7c0,0.3,0.3,0.6,0.6,0.6h4.2c0.3,0,0.6-0.3,0.6-0.6V72.2C30.2,72.1,30.1,72,29.9,71.8
		L29.9,71.8z"/>
	<path class="st0" d="M33.4,62.9c-0.2-0.2-0.5-0.3-0.9-0.3h-0.1c-2,0.1-3.9,0.2-5.9,0.3c-0.3,0-0.6,0-0.9,0.3
		c-0.1,0.1-0.2,0.2-0.2,0.3c-0.3,0.6,0.1,1,0.3,1.2l0.5,0.5c0.3,0.3,0.7,0.7,1,1L15.3,78.1L10,72.8c-0.3-0.3-0.7-0.5-1.2-0.5
		c-0.5,0-0.9,0.2-1.2,0.5l-7.1,7.1c-0.7,0.7-0.7,1.7,0,2.4l0.3,0.3c0.3,0.3,0.7,0.5,1.2,0.5c0.5,0,0.9-0.2,1.2-0.5L8.8,77l5.3,5.3
		c0.3,0.3,0.7,0.5,1.2,0.5c0.5,0,0.9-0.2,1.2-0.5L29.9,69l1.5,1.5c0.2,0.2,0.4,0.4,0.8,0.4c0.2,0,0.3,0,0.5-0.1
		c0.1-0.1,0.2-0.1,0.3-0.2c0.3-0.3,0.4-0.7,0.4-1c0.1-1.3,0.1-2.5,0.2-3.8l0.1-1.9C33.7,63.4,33.6,63.1,33.4,62.9"/>
	<g>
		<g>
			<path class="st4" d="M35.9,49.5c0.4-2.8-0.4-5.6-2-7.7l-8.5,6.4L35.9,49.5z"/>
		</g>
	</g>
	<path class="st5" d="M31,41c-1.7-2.2-4.2-3.8-7.2-4.2c-2.3-0.3-4.5,0.2-6.3,1.2l5,9.4L31,41z"/>
	<path class="st1" d="M20.4,60.4c0.5,0.1,0.9,0.1,1.4,0.1c0.2,0,0.3,0,0.5,0c0.4,0,0.7-0.1,1.1-0.1c0.2,0,0.3-0.1,0.5-0.1
		c0.3-0.1,0.7-0.2,1-0.3c0.1,0,0.3-0.1,0.4-0.1c0.3-0.1,0.6-0.2,0.9-0.4c0.1-0.1,0.3-0.1,0.4-0.2c0.3-0.2,0.6-0.3,0.9-0.5
		c0.1-0.1,0.2-0.2,0.4-0.2c0.3-0.2,0.5-0.4,0.8-0.6c0.1-0.1,0.2-0.2,0.3-0.3c0.2-0.2,0.5-0.4,0.7-0.7c0.1-0.1,0.2-0.2,0.3-0.3
		c0.2-0.2,0.4-0.5,0.6-0.8c0.1-0.1,0.2-0.2,0.2-0.4c0.2-0.3,0.4-0.6,0.6-1c0.1-0.1,0.1-0.3,0.2-0.4c0.2-0.3,0.3-0.7,0.4-1
		c0.1-0.2,0.1-0.3,0.2-0.5c0.1-0.4,0.2-0.8,0.3-1.2c0-0.1,0-0.3,0.1-0.4c0-0.1-0.1-0.2-0.2-0.2l-0.4-0.1l-1.3-0.2L30,50.5l-1.3-0.2
		L28,50.2L26.6,50L26,50l-1.3-0.2L24,49.7l-1.3-0.2l-0.6-0.1l-0.2,0l-0.4-0.8l-1.2-2.2l-2.7-5L17,40.2c0,0-0.1-0.1-0.1-0.1
		c-0.1,0-0.1,0-0.2,0c0,0,0,0-0.1,0c-0.3,0.2-0.6,0.3-0.8,0.5c-0.1,0.1-0.2,0.2-0.3,0.2c-0.3,0.2-0.5,0.4-0.7,0.6
		c-0.1,0.1-0.2,0.2-0.3,0.3c-0.3,0.2-0.5,0.5-0.7,0.8c-0.1,0.1-0.2,0.2-0.3,0.3c-0.2,0.3-0.4,0.5-0.6,0.8c-0.1,0.1-0.2,0.2-0.2,0.4
		c-0.2,0.3-0.3,0.6-0.5,0.9c-0.1,0.1-0.1,0.3-0.2,0.4c-0.1,0.3-0.3,0.7-0.4,1c-0.1,0.2-0.1,0.3-0.1,0.5c-0.1,0.4-0.2,0.9-0.3,1.4
		c0,0,0,0,0,0c0,0.2,0,0.4-0.1,0.6c0,0.5,0,1,0,1.5c0,0.3,0.1,0.5,0.1,0.8c0.1,0.8,0.3,1.6,0.6,2.3c0.3,0.8,0.7,1.5,1.1,2.2
		c0.3,0.4,0.5,0.7,0.8,1.1c0.5,0.6,1.1,1.2,1.8,1.6c0.7,0.5,1.4,0.9,2.1,1.2c0.2,0.1,0.5,0.2,0.8,0.3c0.5,0.2,1,0.3,1.5,0.4
		C20,60.3,20.2,60.4,20.4,60.4C20.4,60.4,20.4,60.4,20.4,60.4z"/>
	<path class="st4" d="M82.9,70.5c-1.8,0-3.3,1.5-3.3,3.3c0,1.8,1.5,3.3,3.3,3.3c1.8,0,3.3-1.5,3.3-3.3C86.2,72,84.7,70.5,82.9,70.5
		L82.9,70.5z"/>
	<path class="st5" d="M93.4,69.1c0-0.3,0.1-0.5,0.1-0.8c0-1.1-0.4-2.1-1.2-2.8l-1.7-1.7c-0.9-0.9-2.3-1.3-3.6-1.1
		c-0.5-0.8-1.4-1.4-2.3-1.6V55c0-0.2,0-0.3-0.1-0.5c-0.7,3.7-9.1,6.6-19.4,6.6c-10.3,0-18.6-2.9-19.4-6.6c0,0.2-0.1,0.3-0.1,0.5V64
		c0,3.9,8.7,7.1,19.4,7.1c1.7,0,3.4-0.1,5-0.2c-0.2,0.5-0.3,1-0.3,1.5v2.1c-1.5,0.1-3.1,0.2-4.7,0.2c-10.3,0-18.6-2.9-19.4-6.6
		c0,0.2-0.1,0.4-0.1,0.5v9.1c0,3.9,8.7,7.1,19.4,7.1c3.6,0,7-0.4,9.9-1c0.8,0.5,1.9,0.8,2.9,0.6c0.7,1.1,1.9,1.8,3.3,1.8h2.4
		c1.4,0,2.6-0.7,3.3-1.8c1.3,0.2,2.6-0.2,3.6-1.1l1.7-1.7c1-1,1.3-2.3,1.1-3.6c1.1-0.7,1.7-1.9,1.7-3.3v-2.4
		C95.1,71.1,94.4,69.8,93.4,69.1L93.4,69.1z M92.4,75c0,0.5-0.4,0.9-0.9,0.9H90c-0.2,0.5-0.4,1-0.6,1.5l1,1c0.4,0.3,0.4,0.9,0,1.3
		l-1.7,1.7c-0.3,0.3-0.9,0.3-1.3,0l-1-1c-0.5,0.3-1,0.5-1.5,0.6v1.4c0,0.5-0.4,0.9-0.9,0.9h-2.4c-0.5,0-0.9-0.4-0.9-0.9V81
		c-0.5-0.1-1-0.4-1.5-0.6l-1,1c-0.3,0.3-0.9,0.3-1.3,0l-1.7-1.7C75.1,79.5,75,79.3,75,79c0-0.2,0.1-0.5,0.3-0.6l1-1
		c-0.3-0.5-0.5-1-0.6-1.5h-1.4c-0.5,0-0.9-0.4-0.9-0.9v-2.4c0-0.5,0.4-0.9,0.9-0.9h1.4c0.2-0.5,0.4-1,0.6-1.5l-1-1
		c-0.4-0.4-0.4-0.9,0-1.3l1.7-1.7c0.3-0.3,0.9-0.3,1.3,0l1,1c0.5-0.3,1-0.5,1.5-0.6v-1.4c0-0.5,0.4-0.9,0.9-0.9h2.4
		c0.5,0,0.9,0.4,0.9,0.9v1.4c0.5,0.1,1,0.4,1.5,0.6l1-1c0.3-0.3,1-0.3,1.3,0l1.7,1.7c0.2,0.2,0.3,0.4,0.3,0.6c0,0.2-0.1,0.5-0.3,0.6
		l-1,1c0.3,0.5,0.5,1,0.6,1.5h1.4c0.5,0,0.9,0.4,0.9,0.9V75z M92.4,75"/>
	<path class="st1" d="M65.3,57.6c10.7,0,19.4-3.2,19.4-7.1v-5.8c0-3.9-8.7-7.1-19.4-7.1c-10.7,0-19.4,3.2-19.4,7.1v5.8
		C45.8,54.4,54.5,57.6,65.3,57.6L65.3,57.6z"/>
	<path class="st4" d="M92.8,36.8c0.1-0.4,0.1-0.9,0.1-1.3c0-4.3-3.5-7.7-7.7-7.7c-0.9,0-1.8,0.2-2.6,0.5c-2.5-3.9-6.9-6.5-11.9-6.5
		c-7.8,0-14.1,6.3-14.1,14.1c0,0.1,0,0.1,0,0.2c2.7-0.5,5.7-0.7,8.7-0.7c10.7,0,21.6,3.2,21.6,9.2v5.8c0,1.4-0.6,2.6-1.5,3.7h6
		c4.8,0,8.7-3.9,8.7-8.7C100,41,96.9,37.5,92.8,36.8z"/>
	<polygon class="st6" points="48.2,16 48.2,22.5 54.2,22.5 	"/>
	<path class="st0" d="M36.4,18.7H13.3c-0.6,0-1,0.7-1,1.5c0,0.8,0.5,1.5,1,1.5h23.1c0.6,0,1-0.7,1-1.5C37.4,19.4,37,18.7,36.4,18.7z
		"/>
	<path class="st0" d="M49.6,31c0-0.8-0.7-1.5-1.5-1.5H13.8c-0.8,0-1.5,0.7-1.5,1.5c0,0.8,0.7,1.5,1.5,1.5h34.2
		C48.9,32.5,49.6,31.8,49.6,31z"/>
	<polygon class="st6" points="48.2,22.5 54.2,22.5 48.2,16 	"/>
	<rect x="32.1" y="75.6" class="st7" width="9.7" height="4"/>
	<polygon class="st6" points="48.2,22.5 54.2,22.5 48.2,16 	"/>
	<path class="st0" d="M60.8,24.5v-0.9L47.1,8.8H7.7c-2.6,0-4.8,2.2-4.8,4.8v61.2c0,0.1,0,0.1,0,0.1l4-3.9V13.6
		c0-0.4,0.3-0.8,0.8-0.8h36.5v11.7c0,1.1,0.9,2,2,2h10.5v2.7C57.8,27.7,59.2,26,60.8,24.5z M48.2,22.5V16l6,6.5H48.2z"/>
</g>
</svg>
