<?xml version="1.0" encoding="utf-8"?>
<!-- Generator: Adobe Illustrator 22.0.1, SVG Export Plug-In . SVG Version: 6.00 Build 0)  -->
<svg version="1.1" id="Layer_1" xmlns="http://www.w3.org/2000/svg" xmlns:xlink="http://www.w3.org/1999/xlink" x="0px" y="0px"
	 viewBox="0 0 126 116" style="enable-background:new 0 0 126 116;" xml:space="preserve">
<style type="text/css">
	.st0{fill:url(#SVGID_1_);}
	.st1{fill:none;stroke:#0459A2;stroke-miterlimit:10;}
	.st2{fill:#FF0013;}
	.st3{fill:#0B4A99;}
	.st4{fill:#CD1618;}
	.st5{fill:#DB9821;}
	.st6{fill:#40875E;}
	.st7{fill:#918831;}
	.st8{fill:#F0AB00;}
	.st9{fill:#A8A240;}
	.st10{fill:none;}
	.st11{fill:#0071C5;}
	.st12{fill:#EFAA1E;}
	.st13{fill:none;stroke:#000000;stroke-width:0.5;stroke-miterlimit:10;}
	.st14{fill:#A69F3D;}
	.st15{fill:#231F20;}
	.st16{fill-rule:evenodd;clip-rule:evenodd;fill:#A69F3D;}
	.st17{fill-rule:evenodd;clip-rule:evenodd;fill:#F0AB00;}
	.st18{fill-rule:evenodd;clip-rule:evenodd;fill:#A8A240;}
	.st19{fill-rule:evenodd;clip-rule:evenodd;fill:#40875E;}
	.st20{fill-rule:evenodd;clip-rule:evenodd;fill:#0B4A99;}
	.st21{fill:#FFFFFF;}
	.st22{fill:#0057A2;}
</style>
<g>
	<path class="st5" d="M26.3,38.1c-10,3.1-20.1,0-20.1,0c-3.2-1.1-5.4-2.6-5.7-4.4c0,0.1-0.1,0.3-0.1,0.4v9.2c0,3.5,7.1,6.2,15.8,6.2
		c8.7,0,15.8-2.8,15.8-6.2v-9.2c0-0.2,0-0.3,0-0.4C31.7,35.5,29.6,37.1,26.3,38.1z"/>
	<path class="st6" d="M16.3,2.3C7.6,2.3,0.5,5.1,0.5,8.5v9.2c0,3.5,7.1,6.2,15.8,6.2c8.7,0,15.8-2.8,15.8-6.2V8.5
		C32.1,5.1,25,2.3,16.3,2.3z M16.3,15.4c-7,0-12.6-2.2-12.6-5c0-2.8,5.7-5,12.6-5c7,0,12.6,2.2,12.6,5
		C28.9,13.2,23.3,15.4,16.3,15.4z"/>
	<path class="st7" d="M16.3,26.6c-8.3,0-15.2-2.6-15.8-5.8c0,0.1-0.1,0.3-0.1,0.4v9.2c0,2,2.3,3.7,5.9,4.9c0,0,9.9,3.2,20.9-0.4l0,0
		c3-1.1,4.9-2.7,4.9-4.5v-9.2c0-0.1,0-0.3,0-0.4C31.5,24.1,24.7,26.6,16.3,26.6z"/>
	<path class="st5" d="M26.3,102.3c-10,3.1-20.1,0-20.1,0c-3.2-1.1-5.4-2.6-5.7-4.4c0,0.1-0.1,0.3-0.1,0.4v9.2
		c0,3.5,7.1,6.2,15.8,6.2c8.7,0,15.8-2.8,15.8-6.2v-9.2c0-0.2,0-0.3,0-0.4C31.7,99.6,29.6,101.2,26.3,102.3z"/>
	<path class="st6" d="M16.3,66.4c-8.7,0-15.8,2.8-15.8,6.3v9.2c0,3.5,7.1,6.2,15.8,6.2c8.7,0,15.8-2.8,15.8-6.2v-9.2
		C32.1,69.2,25,66.4,16.3,66.4z M16.3,79.6c-7,0-12.6-2.2-12.6-5c0-2.8,5.7-5,12.6-5c7,0,12.6,2.2,12.6,5
		C28.9,77.3,23.3,79.6,16.3,79.6z"/>
	<path class="st7" d="M16.3,90.7c-8.3,0-15.2-2.6-15.8-5.8c0,0.1-0.1,0.3-0.1,0.4v9.2c0,2,2.3,3.7,5.9,4.9c0,0,9.9,3.2,20.9-0.4l0,0
		c3-1.1,4.9-2.7,4.9-4.5v-9.2c0-0.1,0-0.3,0-0.4C31.5,88.2,24.7,90.7,16.3,90.7z"/>
	<path class="st6" d="M102.5,27.9c-12.7,0-23,3.4-23,7.6v11.2c0,4.2,10.3,7.6,23,7.6c12.7,0,23-3.4,23-7.6V35.5
		C125.5,31.3,115.2,27.9,102.5,27.9z M101.9,49.8c-2.2,0-4-1.8-4-4c0-2.2,1.8-4,4-4c2.2,0,4,1.8,4,4C105.9,48,104.1,49.8,101.9,49.8
		z"/>
	<path class="st7" d="M102.5,57.5c-12.2,0-22.1-3.1-22.9-7.1c0,0.2-0.1,0.4-0.1,0.5v11.2c0,4.2,10.3,7.6,23,7.6
		c12.7,0,23-3.4,23-7.6V51c0-0.2,0-0.4-0.1-0.5C124.6,54.4,114.6,57.5,102.5,57.5z"/>
	<path class="st5" d="M102.5,73.3c-12.2,0-22.1-3.1-22.9-7.1c0,0.2-0.1,0.3-0.1,0.5v11.2c0,4.2,10.3,7.6,23,7.6
		c12.7,0,23-3.4,23-7.6V66.8c0-0.2,0-0.4-0.1-0.5C124.6,70.2,114.6,73.3,102.5,73.3z"/>
	<path d="M71,51.9c-3,0-5.5,2.3-5.9,5.2H55.1V25h-9c-0.4-2.9-2.9-5.2-5.9-5.2c-3.3,0-6,2.7-6,6c0,3.3,2.7,6,6,6c3,0,5.5-2.3,5.9-5.2
		h7.4V90h-7.4c-0.4-2.9-2.9-5.2-5.9-5.2c-3.3,0-6,2.7-6,6c0,3.3,2.7,6,6,6c3,0,5.5-2.3,5.9-5.2h9V58.7h10.1c0.4,2.9,2.9,5.2,5.9,5.2
		c3.3,0,6-2.7,6-6C77,54.6,74.3,51.9,71,51.9z M40.2,30.2c-2.4,0-4.4-2-4.4-4.4c0-2.4,2-4.4,4.4-4.4c2.4,0,4.4,2,4.4,4.4
		C44.6,28.3,42.6,30.2,40.2,30.2z M40.2,95.2c-2.4,0-4.4-2-4.4-4.4c0-2.4,2-4.4,4.4-4.4c2.4,0,4.4,2,4.4,4.4
		C44.6,93.2,42.6,95.2,40.2,95.2z M71,62.3c-2.4,0-4.4-2-4.4-4.4c0-2.4,2-4.4,4.4-4.4c2.4,0,4.4,2,4.4,4.4
		C75.4,60.3,73.5,62.3,71,62.3z"/>
</g>
</svg>
