<?xml version="1.0" encoding="utf-8"?>
<!-- Generator: Adobe Illustrator 22.0.1, SVG Export Plug-In . SVG Version: 6.00 Build 0)  -->
<svg version="1.1" id="Layer_1" xmlns="http://www.w3.org/2000/svg" xmlns:xlink="http://www.w3.org/1999/xlink" x="0px" y="0px"
	 viewBox="0 0 126 116" style="enable-background:new 0 0 126 116;" xml:space="preserve">
<style type="text/css">
	.st0{fill:url(#SVGID_1_);}
	.st1{fill:none;stroke:#0459A2;stroke-miterlimit:10;}
	.st2{fill:#FF0013;}
	.st3{fill:#0B4A99;}
	.st4{fill:#CD1618;}
	.st5{fill:#DB9821;}
	.st6{fill:#40875E;}
	.st7{fill:#918831;}
	.st8{fill:#F0AB00;}
	.st9{fill:#A8A240;}
	.st10{fill:none;}
	.st11{fill:#0071C5;}
	.st12{fill:#EFAA1E;}
	.st13{fill:none;stroke:#000000;stroke-width:0.5;stroke-miterlimit:10;}
	.st14{fill:#A69F3D;}
	.st15{fill:#231F20;}
	.st16{fill-rule:evenodd;clip-rule:evenodd;fill:#A69F3D;}
	.st17{fill-rule:evenodd;clip-rule:evenodd;fill:#F0AB00;}
	.st18{fill-rule:evenodd;clip-rule:evenodd;fill:#A8A240;}
	.st19{fill-rule:evenodd;clip-rule:evenodd;fill:#40875E;}
	.st20{fill-rule:evenodd;clip-rule:evenodd;fill:#0B4A99;}
	.st21{fill:#FFFFFF;}
	.st22{fill:#0057A2;}
</style>
<g>
	<g>
		<path d="M77.8,58.3c-2.3,0-4.3-1.9-4.3-4.3c0-2.4,1.9-4.3,4.3-4.3c2.3,0,4.3,1.9,4.3,4.3C82.1,56.4,80.2,58.3,77.8,58.3z
			 M77.8,50.3c-2.1,0-3.7,1.7-3.7,3.7c0,2.1,1.7,3.7,3.7,3.7s3.7-1.7,3.7-3.7C81.6,52,79.9,50.3,77.8,50.3z"/>
	</g>
	<g>
		<g>
			<path d="M78.9,69.4H76c-1.6,0-3.2-0.8-4.1-2.1c-1.2,0.2-2.4-0.1-3.4-0.7c-3.6,0.8-7.7,1.2-11.9,1.2c-6.3,0-12.3-0.9-16.7-2.5
				c-4.6-1.7-7.1-3.9-7.1-6.4V47.8c0-0.2,0-0.4,0.1-0.6l0.3-1.4l0.3,1.3c0.9,4.4,11.1,7.8,23.2,7.8c1.8,0,3.6-0.1,5.5-0.2v-2.3
				c0-0.5,0.1-1,0.2-1.5c-1.8,0.2-3.8,0.3-5.7,0.3c-6.3,0-12.3-0.9-16.7-2.5c-4.6-1.7-7.1-3.9-7.1-6.4V31.1c0-0.2,0-0.4,0.1-0.6
				l0.3-1.4l0.3,1.4c0.9,4.4,11.1,7.8,23.2,7.8c12.1,0,22.3-3.4,23.2-7.8l0.3-1.3l0.3,1.4c0,0.2,0.1,0.4,0.1,0.6v7.3
				c1.1,0.3,2,1,2.7,1.9c1.6-0.2,3.3,0.3,4.4,1.4l2,2c1,1,1.5,2.2,1.5,3.6c0,0.3,0,0.5-0.1,0.8c1.3,1,2.1,2.5,2.1,4.1v2.9
				c0,1.6-0.8,3.2-2.1,4.1c0.3,1.6-0.3,3.3-1.4,4.4l-2,2.1c-1.1,1.1-2.8,1.7-4.4,1.4C82.1,68.6,80.5,69.4,78.9,69.4z M72.2,66.6
				l0.1,0.1c0.8,1.3,2.3,2,3.8,2h2.9c1.5,0,2.9-0.8,3.8-2l0.1-0.1l0.2,0c1.4,0.3,3-0.2,4.1-1.2l2-2.1c1.1-1.1,1.5-2.6,1.2-4.1l0-0.2
				l0.1-0.1c1.3-0.8,2-2.3,2-3.8v-2.9c0-1.5-0.7-2.9-2-3.8l-0.1-0.1l0-0.2c0.1-0.3,0.1-0.6,0.1-0.9c0-1.2-0.5-2.4-1.3-3.2l-2-2
				c-1-1-2.6-1.5-4.1-1.2l-0.2,0l-0.1-0.1c-0.6-0.9-1.6-1.6-2.7-1.9l-0.2-0.1v-7.2c-2.3,4.1-11.8,7-23.3,7c-11.5,0-21-2.9-23.3-7
				v10.5c0,4.6,10.4,8.4,23.3,8.4c2.1,0,4.1-0.1,6.1-0.3l0.4,0l-0.2,0.4c-0.2,0.6-0.4,1.2-0.4,1.8v2.8l-0.2,0
				c-1.9,0.2-3.9,0.3-5.7,0.3c-11.5,0-21-2.9-23.3-7v10.5c0,4.6,10.4,8.4,23.3,8.4c4.2,0,8.3-0.4,11.9-1.2l0.1,0l0.1,0.1
				c1,0.6,2.2,0.9,3.3,0.7L72.2,66.6z M79.3,65.9h-2.9c-0.8,0-1.4-0.6-1.4-1.4v-1.5c-0.5-0.2-1-0.4-1.5-0.6l-1.1,1.1
				c-0.2,0.2-0.6,0.4-1,0.4c0,0,0,0,0,0c-0.4,0-0.7-0.1-1-0.4l-2-2c-0.3-0.3-0.4-0.6-0.4-1c0-0.4,0.1-0.7,0.4-1l1.1-1.1
				c-0.2-0.5-0.5-1-0.6-1.5h-1.5c-0.8,0-1.4-0.6-1.4-1.4v-2.9c0-0.8,0.6-1.4,1.4-1.4H69c0.2-0.5,0.4-1,0.6-1.5l-1.1-1.1
				c-0.3-0.3-0.4-0.6-0.4-1c0-0.4,0.1-0.7,0.4-1l2-2c0.5-0.5,1.4-0.5,1.9,0l1.1,1.1c0.5-0.2,1-0.5,1.5-0.6v-1.5
				c0-0.8,0.6-1.4,1.4-1.4h2.9c0.8,0,1.4,0.6,1.4,1.4v1.5c0.5,0.2,1,0.4,1.5,0.6l1.1-1.1c0.2-0.2,0.6-0.4,1-0.4c0,0,0,0,0,0
				c0.4,0,0.7,0.1,1,0.4l2,2c0.3,0.3,0.4,0.6,0.4,1c0,0.4-0.1,0.7-0.4,1l-1.1,1.1c0.3,0.5,0.5,1,0.6,1.5h1.5c0.7,0,1.4,0.6,1.4,1.4
				v2.9c0,0.8-0.6,1.4-1.4,1.4h-1.5c-0.2,0.5-0.4,1-0.6,1.5l1.1,1.1c0.3,0.3,0.4,0.6,0.4,1c0,0.4-0.1,0.7-0.4,1l-2,2
				c-0.2,0.2-0.6,0.4-1,0.4c0,0,0,0,0,0c-0.4,0-0.7-0.1-1-0.4l-1.1-1.1c-0.5,0.3-1,0.5-1.5,0.6v1.5C80.6,65.2,80,65.9,79.3,65.9z
				 M73.4,61.7l0.2,0.1c0.6,0.3,1.2,0.6,1.7,0.7l0.2,0.1v2c0,0.5,0.4,0.8,0.8,0.8h2.9c0.5,0,0.8-0.4,0.8-0.8v-2l0.2-0.1
				c0.6-0.2,1.2-0.4,1.8-0.7l0.2-0.1l1.4,1.4c0.1,0.1,0.4,0.2,0.6,0.2c0,0,0,0,0,0c0.2,0,0.4-0.1,0.6-0.2l2-2
				c0.2-0.2,0.2-0.4,0.2-0.6c0-0.2-0.1-0.4-0.2-0.6l-1.4-1.4l0.1-0.2c0.3-0.6,0.6-1.2,0.7-1.8l0.1-0.2h1.9c0.5,0,0.8-0.4,0.8-0.8
				v-2.9c0-0.5-0.4-0.8-0.8-0.8h-1.9l-0.1-0.2c-0.2-0.6-0.4-1.2-0.7-1.8l-0.1-0.2l1.4-1.4c0.2-0.2,0.2-0.4,0.2-0.6
				c0-0.2-0.1-0.4-0.2-0.6l-2-2c-0.1-0.1-0.4-0.2-0.6-0.2c0,0,0,0,0,0c-0.2,0-0.4,0.1-0.6,0.2l-1.4,1.4L82,46.3
				c-0.5-0.3-1.1-0.5-1.8-0.7l-0.2-0.1v-2c0-0.5-0.4-0.8-0.8-0.8h-2.9c-0.5,0-0.8,0.4-0.8,0.8v1.9l-0.2,0.1
				c-0.6,0.2-1.2,0.4-1.7,0.7l-0.2,0.1L72.1,45c-0.3-0.3-0.9-0.3-1.2,0l-2,2c-0.2,0.2-0.2,0.4-0.2,0.6c0,0.2,0.1,0.4,0.2,0.6
				l1.4,1.4l-0.1,0.2c-0.3,0.6-0.5,1.2-0.7,1.8l-0.1,0.2h-1.9c-0.5,0-0.8,0.4-0.8,0.8v2.9c0,0.5,0.4,0.8,0.8,0.8h1.9l0.1,0.2
				c0.2,0.6,0.4,1.2,0.7,1.8l0.1,0.2l-1.4,1.4c-0.2,0.2-0.2,0.4-0.2,0.6c0,0.2,0.1,0.4,0.2,0.6l2,2c0.1,0.1,0.4,0.2,0.6,0.2
				c0,0,0,0,0,0c0.2,0,0.4-0.1,0.6-0.2L73.4,61.7z"/>
		</g>
	</g>
	<path class="st6" d="M56.4,34.1c13.2,0,24-3.9,24-8.8v-7.2c0-4.9-10.7-8.8-24-8.8c-13.2,0-24,3.9-24,8.8v7.2
		C32.4,30.1,43.2,34.1,56.4,34.1L56.4,34.1z"/>
	<path class="st8" d="M47.1,78.5h-2.6c-0.3,0-0.3-0.4-0.3-0.4v-1.3c0-1.7-1.4-3.2-3.1-3.2H19.6c-0.1,0-0.3-0.3-0.6-0.9
		c0-0.1-0.1-0.2-0.1-0.3c-1.1-2.1-2.5-2.5-3.5-2.5H9.7c-1.4,0-2.3,0.8-3.3,2.5c-0.1,0.1-0.1,0.2-0.2,0.3c-0.3,0.5-0.6,0.9-0.7,0.9
		H3.8c-1.7,0-3.1,1.4-3.1,3.2V103c0,1.5,1.1,2.8,2.6,3.1c0.2,0.1,0.4,0.1,0.6,0.1h38.4c1,0,2-0.8,2.2-1.9l4.2-24
		C48.9,79.3,48.2,78.5,47.1,78.5L47.1,78.5z M3.8,76h1.6c1.6,0,2.4-1.3,2.9-2.2c0.1-0.1,0.1-0.2,0.2-0.3c0.5-0.8,0.9-1.3,1.4-1.3
		h5.3c0.2,0,0.7,0,1.3,1.2c0,0.1,0.1,0.2,0.1,0.2c0.5,0.9,1.2,2.3,2.9,2.3h21.5c0.3,0,0.6,0.3,0.6,0.6v1.3c0,0,0,0.5-0.3,0.5H8.8
		c-1,0-2,0.8-2.2,1.9L3.4,98.1c0,0-0.2,0.6-0.2-0.5v-21C3.2,76.3,3.5,76,3.8,76L3.8,76z M3.8,76"/>
	<path class="st9" d="M117.4,68.3H94.7c-1.5,0-2.8,1.3-2.8,2.8v32.9c0,1.5,1.2,2.8,2.8,2.8h27.8c1.5,0,2.8-1.2,2.8-2.8v-27
		L117.4,68.3z M118.1,72.5l3.5,3.8h-3.5V72.5z M123,103.9c0,0.2-0.2,0.4-0.4,0.4H94.7c-0.2,0-0.4-0.2-0.4-0.4V71.1
		c0-0.2,0.2-0.4,0.4-0.4h21.1v6.8c0,0.6,0.5,1.2,1.2,1.2h6.1V103.9z M98.3,80.7h19.8c0.5,0,0.9,0.4,0.9,0.9c0,0.5-0.4,0.9-0.9,0.9
		H98.3c-0.5,0-0.9-0.4-0.9-0.9C97.5,81.1,97.9,80.7,98.3,80.7 M119,87.5c0,0.5-0.4,0.9-0.9,0.9H98.3c-0.5,0-0.9-0.4-0.9-0.9
		c0-0.5,0.4-0.9,0.9-0.9h19.8C118.6,86.6,119,87,119,87.5 M119,93.2c0,0.5-0.4,0.9-0.9,0.9H98.3c-0.5,0-0.9-0.4-0.9-0.9
		c0-0.5,0.4-0.9,0.9-0.9h19.8C118.6,92.3,119,92.7,119,93.2 M119,99c0,0.5-0.4,0.9-0.9,0.9H98.3c-0.5,0-0.9-0.4-0.9-0.9
		c0-0.5,0.4-0.9,0.9-0.9h19.8C118.6,98.1,119,98.5,119,99"/>
	<g>
		<polygon points="13,61.5 10.6,61.5 13.3,66.2 16,61.5 13.6,61.5 13.6,52.9 29,52.9 29,52.3 13,52.3 		"/>
		<polygon points="111,61 111,51.9 95,51.9 95,52.4 110.5,52.4 110.5,61 108,61 110.7,65.8 113.5,61 		"/>
	</g>
</g>
</svg>
