<?xml version="1.0" encoding="utf-8"?>
<!-- Generator: Adobe Illustrator 22.0.1, SVG Export Plug-In . SVG Version: 6.00 Build 0)  -->
<svg version="1.1" id="Layer_1" xmlns="http://www.w3.org/2000/svg" xmlns:xlink="http://www.w3.org/1999/xlink" x="0px" y="0px"
	 viewBox="0 0 126 116" style="enable-background:new 0 0 126 116;" xml:space="preserve">
<style type="text/css">
	.st0{fill:url(#SVGID_1_);}
	.st1{fill:none;stroke:#0459A2;stroke-miterlimit:10;}
	.st2{fill:#FF0013;}
	.st3{fill:#0B4A99;}
	.st4{fill:#CD1618;}
	.st5{fill:#DB9821;}
	.st6{fill:#40875E;}
	.st7{fill:#918831;}
	.st8{fill:#F0AB00;}
	.st9{fill:#A8A240;}
	.st10{fill:none;}
	.st11{fill:#0071C5;}
	.st12{fill:#EFAA1E;}
	.st13{fill:none;stroke:#000000;stroke-width:0.5;stroke-miterlimit:10;}
	.st14{fill:#A69F3D;}
	.st15{fill:#231F20;}
	.st16{fill-rule:evenodd;clip-rule:evenodd;fill:#A69F3D;}
	.st17{fill-rule:evenodd;clip-rule:evenodd;fill:#F0AB00;}
	.st18{fill-rule:evenodd;clip-rule:evenodd;fill:#A8A240;}
	.st19{fill-rule:evenodd;clip-rule:evenodd;fill:#40875E;}
	.st20{fill-rule:evenodd;clip-rule:evenodd;fill:#0B4A99;}
	.st21{fill:#FFFFFF;}
	.st22{fill:#0057A2;}
</style>
<g>
	<path class="st8" d="M79.5,105.8H51c-0.6,0-1.1,0.5-1.1,1.1v7.6c0,0.6,0.5,1.1,1.1,1.1h28.5c0.6,0,1.1-0.5,1.1-1.1v-7.6
		C80.6,106.3,80.1,105.8,79.5,105.8z M56.3,110.7c0,0.5-0.4,0.9-0.9,0.9H53c-0.5,0-0.9-0.4-0.9-0.9v-0.2c0-0.5,0.4-0.9,0.9-0.9h2.5
		c0.5,0,0.9,0.4,0.9,0.9V110.7z M60.9,110.7c0,0.5-0.4,0.9-0.9,0.9h-2.5c-0.5,0-0.9-0.4-0.9-0.9v-0.2c0-0.5,0.4-0.9,0.9-0.9h2.5
		c0.5,0,0.9,0.4,0.9,0.9V110.7z M65.5,110.7c0,0.5-0.4,0.9-0.9,0.9h-2.5c-0.5,0-0.9-0.4-0.9-0.9v-0.2c0-0.5,0.4-0.9,0.9-0.9h2.5
		c0.5,0,0.9,0.4,0.9,0.9V110.7z"/>
	<path class="st6" d="M57.1,84.7V68.4c0-0.6-0.5-1.1-1.1-1.1c-0.6,0-1.1,0.5-1.1,1.1c0,0,0,13.3,0,15.2H42.1v-3
		c0-0.6-0.5-1.1-1.1-1.1H12.5c-0.6,0-1.1,0.5-1.1,1.1v7.6c0,0.6,0.5,1.1,1.1,1.1H41c0.6,0,1.1-0.5,1.1-1.1v-2.3H56
		C56.6,85.8,57.1,85.3,57.1,84.7z M18.5,84.8c0,0.5-0.4,0.9-0.9,0.9h-2.5c-0.5,0-0.9-0.4-0.9-0.9v-0.2c0-0.5,0.4-0.9,0.9-0.9h2.5
		c0.5,0,0.9,0.4,0.9,0.9V84.8z M23.1,84.8c0,0.5-0.4,0.9-0.9,0.9h-2.5c-0.5,0-0.9-0.4-0.9-0.9v-0.2c0-0.5,0.4-0.9,0.9-0.9h2.5
		c0.5,0,0.9,0.4,0.9,0.9V84.8z M27.6,84.8c0,0.5-0.4,0.9-0.9,0.9h-2.5c-0.5,0-0.9-0.4-0.9-0.9v-0.2c0-0.5,0.4-0.9,0.9-0.9h2.5
		c0.5,0,0.9,0.4,0.9,0.9V84.8z"/>
	<path class="st6" d="M119,79.4H90.5c-0.6,0-1.1,0.5-1.1,1.1v3H75.8c0-1.9,0-15.2,0-15.2c0-0.6-0.5-1.1-1.1-1.1
		c-0.6,0-1.1,0.5-1.1,1.1v16.3c0,0.6,0.5,1.1,1.1,1.1h14.7v2.3c0,0.6,0.5,1.1,1.1,1.1H119c0.6,0,1.1-0.5,1.1-1.1v-7.6
		C120.1,79.9,119.6,79.4,119,79.4z M96.4,84.4c0,0.5-0.4,0.9-0.9,0.9h-2.5c-0.5,0-0.9-0.4-0.9-0.9v-0.2c0-0.5,0.4-0.9,0.9-0.9h2.5
		c0.5,0,0.9,0.4,0.9,0.9V84.4z M101,84.4c0,0.5-0.4,0.9-0.9,0.9h-2.5c-0.5,0-0.9-0.4-0.9-0.9v-0.2c0-0.5,0.4-0.9,0.9-0.9h2.5
		c0.5,0,0.9,0.4,0.9,0.9V84.4z M105.6,84.4c0,0.5-0.4,0.9-0.9,0.9h-2.5c-0.5,0-0.9-0.4-0.9-0.9v-0.2c0-0.5,0.4-0.9,0.9-0.9h2.5
		c0.5,0,0.9,0.4,0.9,0.9V84.4z"/>
	<g>
		<path d="M86.6,67.9v-0.7c5.4,0,9.8-4.4,9.8-9.8c0-4.6-3.1-8.5-7.6-9.5c-0.7-0.2-1.1-0.7-1.2-1.4c0-1.6-0.2-3.2-0.7-4.8H87l0-0.4
			c-2.4-8.2-9.9-13.9-18.4-13.9c-7,0-13.4,3.8-16.8,9.9c-0.4,0.7-1.2,1-1.9,0.6c-0.9-0.4-1.9-0.6-2.9-0.6c-3.7,0-6.8,2.7-7.3,6.4
			c-0.1,0.6-0.6,1.1-1.2,1.3c-5.2,1-9,5.7-9,11c0,6.2,5,11.2,11.2,11.2h3.8v0.7h-3.8c-6.6,0-11.9-5.3-11.9-11.9
			c0-5.7,4-10.6,9.6-11.7c0.3-0.1,0.6-0.3,0.7-0.7c0.5-4,3.9-6.9,7.9-6.9c1.1,0,2.2,0.2,3.2,0.7c0.4,0.2,0.8,0,1-0.4
			c3.5-6.3,10.2-10.3,17.4-10.3c8.8,0,16.7,5.9,19.1,14.4l0,0.1c0.5,1.7,0.7,3.5,0.7,5.2c0,0.4,0.3,0.7,0.6,0.8
			c4.8,1.1,8.1,5.3,8.1,10.2C97.1,63.2,92.4,67.9,86.6,67.9z"/>
	</g>
	<path class="st9" d="M79.5,94.8H66.2V68.4c0-0.6-0.5-1.1-1.1-1.1S64,67.7,64,68.4v26.5H51c-0.6,0-1.1,0.5-1.1,1.1v7.6
		c0,0.6,0.5,1.1,1.1,1.1h28.5c0.6,0,1.1-0.5,1.1-1.1v-7.6C80.6,95.3,80.1,94.8,79.5,94.8z M56.3,100.1c0,0.5-0.4,0.9-0.9,0.9H53
		c-0.5,0-0.9-0.4-0.9-0.9v-0.2c0-0.5,0.4-0.9,0.9-0.9h2.5c0.5,0,0.9,0.4,0.9,0.9V100.1z M60.9,100.1c0,0.5-0.4,0.9-0.9,0.9h-2.5
		c-0.5,0-0.9-0.4-0.9-0.9v-0.2c0-0.5,0.4-0.9,0.9-0.9h2.5c0.5,0,0.9,0.4,0.9,0.9V100.1z M65.5,100.1c0,0.5-0.4,0.9-0.9,0.9h-2.5
		c-0.5,0-0.9-0.4-0.9-0.9v-0.2c0-0.5,0.4-0.9,0.9-0.9h2.5c0.5,0,0.9,0.4,0.9,0.9V100.1z"/>
	<g>
		<rect x="63.7" y="9.7" width="0.7" height="18"/>
	</g>
	<g>
		<polygon points="55.3,32.6 54.6,32.6 54.6,23 36.4,23 36.4,22.3 55.3,22.3 		"/>
	</g>
	<g>
		<polygon points="73.3,27.8 72.7,27.8 72.7,17.3 91.6,17.3 91.6,17.9 73.3,17.9 		"/>
	</g>
	<g>
		<rect x="23.1" y="39.7" width="17.8" height="0.7"/>
	</g>
	<g>
		<rect x="12" y="58.1" width="17.4" height="0.7"/>
	</g>
	<g>
		<rect x="96.8" y="58.1" width="17.4" height="0.7"/>
	</g>
	<g>
		<rect x="86.8" y="39.7" width="17.2" height="0.7"/>
	</g>
	<g>
		<path d="M31.9,27.5c-2.6,0-4.8-2.2-4.8-4.8s2.2-4.8,4.8-4.8c2.6,0,4.8,2.2,4.8,4.8S34.6,27.5,31.9,27.5z M31.9,18.6
			c-2.3,0-4.1,1.9-4.1,4.1s1.9,4.1,4.1,4.1S36,25,36,22.7S34.2,18.6,31.9,18.6z"/>
	</g>
	<g>
		<path d="M64,10c-2.6,0-4.8-2.2-4.8-4.8c0-2.6,2.2-4.8,4.8-4.8c2.6,0,4.8,2.2,4.8,4.8C68.8,7.8,66.6,10,64,10z M64,1.1
			c-2.3,0-4.1,1.9-4.1,4.1s1.9,4.1,4.1,4.1c2.3,0,4.1-1.9,4.1-4.1S66.3,1.1,64,1.1z"/>
	</g>
	<g>
		<path d="M95.8,22.4c-2.6,0-4.8-2.2-4.8-4.8s2.2-4.8,4.8-4.8s4.8,2.2,4.8,4.8S98.5,22.4,95.8,22.4z M95.8,13.5
			c-2.3,0-4.1,1.9-4.1,4.1s1.9,4.1,4.1,4.1s4.1-1.9,4.1-4.1S98.1,13.5,95.8,13.5z"/>
	</g>
	<g>
		<path d="M108.5,44.8c-2.6,0-4.8-2.2-4.8-4.8c0-2.6,2.2-4.8,4.8-4.8s4.8,2.2,4.8,4.8C113.3,42.6,111.2,44.8,108.5,44.8z
			 M108.5,35.9c-2.3,0-4.1,1.9-4.1,4.1c0,2.3,1.9,4.1,4.1,4.1s4.1-1.9,4.1-4.1C112.7,37.7,110.8,35.9,108.5,35.9z"/>
	</g>
	<g>
		<path d="M118.5,63.3c-2.6,0-4.8-2.2-4.8-4.8c0-2.6,2.2-4.8,4.8-4.8s4.8,2.2,4.8,4.8C123.3,61.1,121.1,63.3,118.5,63.3z
			 M118.5,54.3c-2.3,0-4.1,1.9-4.1,4.1c0,2.3,1.9,4.1,4.1,4.1c2.3,0,4.1-1.9,4.1-4.1C122.6,56.2,120.7,54.3,118.5,54.3z"/>
	</g>
	<g>
		<path d="M7.5,63.3c-2.6,0-4.8-2.2-4.8-4.8c0-2.6,2.2-4.8,4.8-4.8c2.6,0,4.8,2.2,4.8,4.8C12.3,61.1,10.2,63.3,7.5,63.3z M7.5,54.3
			c-2.3,0-4.1,1.9-4.1,4.1c0,2.3,1.9,4.1,4.1,4.1s4.1-1.9,4.1-4.1C11.7,56.2,9.8,54.3,7.5,54.3z"/>
	</g>
	<g>
		<path d="M18.8,44.8c-2.6,0-4.8-2.2-4.8-4.8c0-2.6,2.2-4.8,4.8-4.8s4.8,2.2,4.8,4.8C23.6,42.6,21.5,44.8,18.8,44.8z M18.8,35.9
			c-2.3,0-4.1,1.9-4.1,4.1c0,2.3,1.9,4.1,4.1,4.1S23,42.3,23,40C23,37.7,21.1,35.9,18.8,35.9z"/>
	</g>
</g>
</svg>
