<?xml version="1.0" encoding="utf-8"?>
<!-- Generator: Adobe Illustrator 22.0.1, SVG Export Plug-In . SVG Version: 6.00 Build 0)  -->
<svg version="1.1" id="Layer_1" xmlns="http://www.w3.org/2000/svg" xmlns:xlink="http://www.w3.org/1999/xlink" x="0px" y="0px"
	 viewBox="0 0 126 116" style="enable-background:new 0 0 126 116;" xml:space="preserve">
<style type="text/css">
	.st0{fill:url(#SVGID_1_);}
	.st1{fill:none;stroke:#0459A2;stroke-miterlimit:10;}
	.st2{fill:#FF0013;}
	.st3{fill:#0B4A99;}
	.st4{fill:#CD1618;}
	.st5{fill:#DB9821;}
	.st6{fill:#40875E;}
	.st7{fill:#918831;}
	.st8{fill:#F0AB00;}
	.st9{fill:#A8A240;}
	.st10{fill:none;}
	.st11{fill:#0071C5;}
	.st12{fill:#EFAA1E;}
	.st13{fill:none;stroke:#000000;stroke-width:0.5;stroke-miterlimit:10;}
	.st14{fill:#A69F3D;}
	.st15{fill:#231F20;}
	.st16{fill-rule:evenodd;clip-rule:evenodd;fill:#A69F3D;}
	.st17{font-family:'Optima-Bold';}
	.st18{font-size:10.5658px;}
	.st19{fill-rule:evenodd;clip-rule:evenodd;fill:#F0AB00;}
	.st20{fill-rule:evenodd;clip-rule:evenodd;fill:#A8A240;}
	.st21{fill-rule:evenodd;clip-rule:evenodd;fill:#40875E;}
	.st22{fill-rule:evenodd;clip-rule:evenodd;fill:#0B4A99;}
	.st23{fill:#FFFFFF;}
	.st24{fill:#0057A2;}
</style>
<g>
	<g>
		<path class="st6" d="M86.7,85.1H36.9c-3.8,0-6.9-3.1-6.9-6.9V64.9h2v13.4c0,2.7,2.2,4.9,4.9,4.9h47.9v-3.3h2V85.1z"/>
	</g>
	<g>
		<path class="st6" d="M32,39.3h-2V25.5c0-3.8,3.1-6.9,6.9-6.9h49.8v4.6h-2v-2.6H36.9c-2.7,0-4.9,2.2-4.9,4.9V39.3z"/>
	</g>
	<g>
		<path class="st6" d="M96.5,36.2H75.3c-1.3,0-2.4-1.1-2.4-2.4v-9.4c0-1.3,1.1-2.4,2.4-2.4h21.1c1.3,0,2.4,1.1,2.4,2.4v9.4
			C98.8,35.2,97.8,36.2,96.5,36.2z M75.3,24.1c-0.2,0-0.4,0.2-0.4,0.4v9.4c0,0.2,0.2,0.4,0.4,0.4h21.1c0.2,0,0.4-0.2,0.4-0.4v-9.4
			c0-0.2-0.2-0.4-0.4-0.4H75.3z"/>
	</g>
	<text transform="matrix(1 0 0 1 22.3213 55.584)" class="st12 st17 st18">EIM</text>
	<g>
		<g>
			<polygon class="st6" points="85.9,43.8 88.2,39.8 86.8,39.8 86.8,35.3 85,35.3 85,39.8 83.6,39.8 			"/>
		</g>
		<g>
			<polygon class="st6" points="86.8,57.9 85,57.9 85,62.4 83.6,62.4 85.9,66.4 88.2,62.4 86.8,62.4 			"/>
		</g>
	</g>
	<path d="M96.2,109H29.8c-1.5,0-2.7-1.2-2.7-2.7c0-1.5,1.2-2.7,2.7-2.7h18.7v-9.2H3.7c-1.5,0-2.7-1.2-2.7-2.7V9.7C1,8.2,2.2,7,3.7,7
		h118.7c1.5,0,2.7,1.2,2.7,2.7v81.9c0,1.5-1.2,2.7-2.7,2.7H77.6v9.2h18.7c1.5,0,2.7,1.2,2.7,2.7C98.9,107.8,97.7,109,96.2,109z
		 M29.8,104.2c-1.1,0-2.1,0.9-2.1,2.1c0,1.2,0.9,2.1,2.1,2.1h66.5c1.1,0,2.1-0.9,2.1-2.1c0-1.2-0.9-2.1-2.1-2.1H76.9V93.7h45.4
		c1.1,0,2.1-0.9,2.1-2.1V9.7c0-1.2-0.9-2.1-2.1-2.1H3.7c-1.1,0-2.1,0.9-2.1,2.1v81.9c0,1.2,0.9,2.1,2.1,2.1h45.4v10.5H29.8z"/>
	<g>
		<path class="st6" d="M30.9,65.7c-7.5,0-13.6-6.1-13.6-13.6s6.1-13.6,13.6-13.6s13.6,6.1,13.6,13.6S38.5,65.7,30.9,65.7z
			 M30.9,40.4c-6.5,0-11.7,5.2-11.7,11.7s5.2,11.7,11.7,11.7s11.7-5.2,11.7-11.7S37.4,40.4,30.9,40.4z"/>
	</g>
	<g>
		<g>
			<path class="st14" d="M96.5,58.5H75.3c-1.3,0-2.4-1.1-2.4-2.4v-9.4c0-1.3,1.1-2.4,2.4-2.4h21.1c1.3,0,2.4,1.1,2.4,2.4v9.4
				C98.8,57.5,97.8,58.5,96.5,58.5z M75.3,46.4c-0.2,0-0.4,0.2-0.4,0.4v9.4c0,0.2,0.2,0.4,0.4,0.4h21.1c0.2,0,0.4-0.2,0.4-0.4v-9.4
				c0-0.2-0.2-0.4-0.4-0.4H75.3z"/>
		</g>
	</g>
	<g>
		<g>
			<path class="st12" d="M96.5,79.9H75.3c-1.3,0-2.4-1.1-2.4-2.4v-9.4c0-1.3,1.1-2.4,2.4-2.4h21.1c1.3,0,2.4,1.1,2.4,2.4v9.4
				C98.8,78.8,97.8,79.9,96.5,79.9z M75.3,67.8c-0.2,0-0.4,0.2-0.4,0.4v9.4c0,0.2,0.2,0.4,0.4,0.4h21.1c0.2,0,0.4-0.2,0.4-0.4v-9.4
				c0-0.2-0.2-0.4-0.4-0.4H75.3z"/>
		</g>
	</g>
</g>
</svg>
