<?xml version="1.0" encoding="utf-8"?>
<!-- Generator: Adobe Illustrator 22.0.1, SVG Export Plug-In . SVG Version: 6.00 Build 0)  -->
<svg version="1.1" id="Layer_1" xmlns="http://www.w3.org/2000/svg" xmlns:xlink="http://www.w3.org/1999/xlink" x="0px" y="0px"
	 viewBox="0 0 100 100" style="enable-background:new 0 0 100 100;" xml:space="preserve">
<style type="text/css">
	.st0{fill:#0B4A99;}
	.st1{fill:#F0AB00;}
	.st2{fill:#A8A240;}
	.st3{fill:#40875E;}
	.st4{fill:none;}
</style>
<g>
	<g>
		<path class="st1" d="M36.1,27.8c0-1.6,0.8-3.1,2.1-4l0.3-0.2l-0.9-1.3l-0.3,0.2c-1.7,1.2-2.7,3.2-2.7,5.3c0,3.6,2.9,6.5,6.5,6.5
			h0.3v-1.6H41C38.3,32.7,36.1,30.5,36.1,27.8z"/>
		<path class="st1" d="M50.1,15.9c-0.5-0.5-1.4-0.5-1.9,0l-1.5,1.5c-0.7-0.4-1.5-0.7-2.3-0.9v-2.1c0-0.8-0.6-1.4-1.4-1.4h-3.9
			c-0.8,0-1.4,0.6-1.4,1.4v2.1c-0.8,0.2-1.6,0.6-2.3,0.9l-1.5-1.5c-0.5-0.5-1.4-0.5-1.9,0l-2.8,2.8c-0.5,0.5-0.5,1.4,0,1.9l1.5,1.5
			c-0.4,0.7-0.7,1.5-0.9,2.3h-2.1c-0.8,0-1.4,0.6-1.4,1.4v3.9c0,0.8,0.6,1.4,1.4,1.4h2.1c0.2,0.8,0.6,1.6,0.9,2.3l-1.5,1.5
			c-0.5,0.5-0.5,1.4,0,1.9l2.8,2.8c0.3,0.3,0.6,0.4,1,0.4h0h0c0.4,0,0.7-0.1,1-0.4l1.8-1.8l-1.1-1.1l-1.7,1.7l-2.5-2.5l1.5-1.5
			c0.4-0.4,0.5-1.1,0.2-1.6c-0.4-0.7-0.7-1.4-0.9-2.2c-0.2-0.6-0.7-1-1.3-1h-2.1V26h2.1c0.6,0,1.2-0.4,1.3-1
			c0.2-0.8,0.5-1.5,0.9-2.2c0.3-0.5,0.2-1.2-0.2-1.7l-1.5-1.5l2.5-2.5l1.5,1.5c0.4,0.4,1.1,0.5,1.6,0.2c0.7-0.4,1.4-0.7,2.2-0.9
			c0.6-0.2,1-0.7,1-1.3v-2.1h3.6v2.1c0,0.6,0.4,1.2,1,1.3c0.8,0.2,1.5,0.5,2.2,0.9c0.5,0.3,1.2,0.2,1.6-0.2l1.5-1.5l1.3,1.3l1.1-1.1
			L50.1,15.9z"/>
	</g>
	<path class="st2" d="M42.6,32.5c-0.7,0-1.4,0-2,0c-0.8,0-1.2-0.4-1.2-1.2c0-3.3,0-6.6,0-9.9c0-0.8,0.4-1.2,1.2-1.2c3,0,6,0,9.1,0
		c0.5,0,0.9-0.1,1.4-0.2c5.4-1.8,10.9-3.6,16.3-5.4c0.3-0.1,0.6-0.1,0.8-0.1c0.5,0.1,0.8,0.5,0.8,1c0,4.2,0,8.3,0,12.5
		c0,0.2,0.1,0.4,0.3,0.5c1.4,0.6,2,1.8,1.9,3.4c-0.2,1.4-1.2,2.4-2.5,2.7c-1.8,0.3-3.5-0.7-3.8-2.4c-0.1-0.3-0.1-0.6-0.1-0.9
		c0.1-0.6,0.6-0.9,1.1-0.9c0.6,0,1,0.4,1,1c0.1,0.9,0.5,1.3,1.3,1.1c0.6-0.1,0.9-0.5,0.9-1.1c0-0.6-0.3-1-0.9-1.1
		c-1-0.1-1.2-0.4-1.2-1.4c0-3.6,0-7.2,0-10.8c0-0.1,0-0.2,0-0.3c-0.1,0.1-0.2,0.1-0.3,0.2c-3.6,2.9-7.3,5.8-10.9,8.6
		c-0.2,0.2-0.3,0.3-0.3,0.6c0,1.3,0,2.6,0,3.9c0,0.9-0.4,1.3-1.3,1.3c-0.5,0-1,0-1.5,0c0,0.7,0,1.4,0,2.2c0.1,0,0.2,0,0.4,0
		c1.3,0,2.6,0,4,0c2.8,0,4.9,2.1,4.9,4.9c0,0.9,0,1.9-0.3,2.8c-0.7,1.9-2.5,3.1-4.5,3.1c-4.7,0-9.3,0-14,0c-2.6,0-4.8-2.1-4.8-4.8
		c0-0.9-0.1-1.8,0.2-2.6c0.7-2,2-3.1,4.1-3.4c0.3,0,0.4-0.1,0.4-0.4C42.6,33.7,42.6,33.2,42.6,32.5z M49.8,36.8
		C49.8,36.8,49.8,36.9,49.8,36.8c-2.3,0-4.7,0-7,0c-1.3,0-2.4,0.8-2.6,2.1c-0.1,0.6-0.1,1.2-0.1,1.9c0.1,1.4,1.2,2.6,2.7,2.6
		c4.7,0,9.3,0,14,0c1.3,0,2.4-0.9,2.6-2.2c0.1-0.5,0.1-1.1,0.1-1.6c0-1.5-1.2-2.7-2.7-2.7C54.4,36.8,52.1,36.8,49.8,36.8z
		 M41.6,30.3c3.9,0,7.7,0,11.5,0c0-0.7,0-1.4,0-2.2c-0.2,0-0.4,0-0.5,0c-2,0-4.1,0-6.1,0c-0.9,0-1.3-0.4-1.3-1.3c0-1.4,0-2.7,0-4.1
		c0-0.1,0-0.3,0-0.4c-1.2,0-2.4,0-3.6,0C41.6,25.1,41.6,27.7,41.6,30.3z M54.3,24.9c2.7-2.1,5.3-4.2,7.9-6.3c0,0,0,0,0-0.1
		c-3.4,1.1-6.9,2.3-10.4,3.5C52.7,23,53.5,23.9,54.3,24.9z M47.3,26c1.7,0,3.4,0,5.1,0c-1-1.2-2-2.3-3-3.5c0,0-0.1-0.1-0.2-0.1
		c-0.6,0-1.3,0-2,0C47.3,23.6,47.3,24.8,47.3,26z M50.2,32.5c-1.8,0-3.6,0-5.4,0c0,0.7,0,1.4,0,2.1c1.8,0,3.6,0,5.4,0
		C50.2,34,50.2,33.3,50.2,32.5z"/>
	<path class="st3" d="M52.4,41.1c-0.6,0-1.1-0.5-1.1-1.1c0-0.6,0.5-1.1,1.1-1.1c0.6,0,1.1,0.5,1.1,1.1C53.5,40.7,53,41.1,52.4,41.1z
		"/>
	<path class="st3" d="M56.7,41.1c-0.6,0-1.1-0.5-1.1-1.1c0-0.6,0.5-1.1,1.1-1.1c0.6,0,1.1,0.5,1.1,1.1
		C57.8,40.6,57.3,41.1,56.7,41.1z"/>
	<path class="st3" d="M43.7,41.1c-0.6,0-1.1-0.5-1.1-1.1c0-0.6,0.5-1.1,1.1-1.1c0.6,0,1.1,0.5,1.1,1.1
		C44.8,40.7,44.3,41.1,43.7,41.1z"/>
	<path class="st3" d="M48,41.1c-0.6,0-1.1-0.5-1.1-1.1c0-0.6,0.5-1.1,1.1-1.1c0.6,0,1.1,0.5,1.1,1.1C49.1,40.7,48.6,41.1,48,41.1z"
		/>
	<g>
		<g>
			<path class="st4" d="M83,85.5c0.5,0.2,0.9,0.5,1.3,0.8c1.1,1.1,2.2,2.2,3.3,3.3c1.5,1.5,3,3,4.4,4.5c0.8,0.8,0.9,1.7,0.4,2.2
				c-0.5,0.5-1.4,0.3-2.1-0.4c-2.7-2.7-5.4-5.3-8-8c-0.4-0.4-0.5-0.9-0.8-1.3C81.7,85.7,82.3,85.3,83,85.5z"/>
			<path class="st2" d="M75.5,81.4c1,1,2,2,3,3c0.3,0.3,0.5,0.6,0.4,1.2c-0.3,1.6,0.2,3.1,1.3,4.2c2.7,2.8,5.5,5.5,8.3,8.3
				c0.9,0.9,2.1,1.4,3.4,1.4c2.8,0,4.6-2.6,3.6-5.3c-0.3-0.8-0.7-1.5-1.3-2.1c-2.6-2.7-5.3-5.3-7.9-8c-1.3-1.3-2.8-1.9-4.7-1.4
				c-0.3,0.1-0.7-0.1-1-0.3c-1-1-1.9-2-2.9-3c-0.8-0.8-1.7-1-2.3-0.4C74.7,79.6,74.7,80.6,75.5,81.4z M81.6,86.6
				c0.1-0.8,0.7-1.3,1.4-1c0.5,0.2,0.9,0.5,1.3,0.8c1.1,1.1,2.2,2.2,3.3,3.3c1.5,1.5,3,3,4.4,4.5c0.8,0.8,0.9,1.7,0.4,2.2
				c-0.5,0.5-1.4,0.3-2.1-0.4c-2.7-2.7-5.4-5.3-8-8C82,87.5,81.9,87,81.6,86.6z"/>
		</g>
	</g>
	<g>
		<polygon points="43.3,78.6 31.9,54 20.3,71.3 8.5,67.6 7.8,67.6 7.8,66.3 8.7,66.3 19.7,69.8 32.2,51.2 43.5,75.8 55.3,58.3 
			66.4,73.3 70,61.9 77.9,66.1 81.9,62 89.2,66.1 98.2,66.1 98.2,67.3 88.8,67.3 82.2,63.7 78.2,67.7 70.8,63.8 66.9,76.3 
			55.3,60.6 		"/>
	</g>
	<polygon class="st3" points="17.7,85.9 46.5,85.9 46.5,80.2 23.4,80.2 23.4,71.3 17.7,79.3 	"/>
	<polygon class="st3" points="75.1,0.5 17.7,0.5 17.7,57.7 23.4,49.7 23.4,6.2 72.2,6.2 72.2,15.2 81.6,15.2 81.6,46.9 87.3,46.9 
		87.3,12.3 	"/>
	<line class="st4" x1="51.4" y1="65.2" x2="45.8" y2="73.2"/>
	<line class="st4" x1="47.6" y1="57.6" x2="57.4" y2="53"/>
	<path class="st3" d="M63.3,48.2c-9.2,0-16.8,7.4-17,16.6l3.5-1c0.7-6.8,6.5-12.2,13.5-12.2c7.5,0,13.6,6.1,13.6,13.6
		c0,7.5-6.1,13.6-13.6,13.6c-4.9,0-9.1-2.6-11.5-6.4l-3.4,1c2.9,5.3,8.5,8.9,14.9,8.9c9.4,0,17-7.6,17-17
		C80.3,55.8,72.7,48.2,63.3,48.2z"/>
</g>
</svg>
