<?xml version="1.0" encoding="utf-8"?>
<!-- Generator: Adobe Illustrator 22.0.1, SVG Export Plug-In . SVG Version: 6.00 Build 0)  -->
<svg version="1.1" id="Layer_1" xmlns="http://www.w3.org/2000/svg" xmlns:xlink="http://www.w3.org/1999/xlink" x="0px" y="0px"
	 viewBox="0 0 126 116" style="enable-background:new 0 0 126 116;" xml:space="preserve">
<style type="text/css">
	.st0{fill:url(#SVGID_1_);}
	.st1{fill:none;stroke:#0459A2;stroke-miterlimit:10;}
	.st2{fill:#FF0013;}
	.st3{fill:#0B4A99;}
	.st4{fill:#CD1618;}
	.st5{fill:#DB9821;}
	.st6{fill:#40875E;}
	.st7{fill:#918831;}
	.st8{fill:#F0AB00;}
	.st9{fill:#A8A240;}
	.st10{fill:none;}
	.st11{fill:#0071C5;}
	.st12{fill:#EFAA1E;}
	.st13{fill:none;stroke:#000000;stroke-width:0.5;stroke-miterlimit:10;}
	.st14{fill:#A69F3D;}
	.st15{fill:#231F20;}
	.st16{fill-rule:evenodd;clip-rule:evenodd;fill:#A69F3D;}
	.st17{fill-rule:evenodd;clip-rule:evenodd;fill:#F0AB00;}
	.st18{fill-rule:evenodd;clip-rule:evenodd;fill:#A8A240;}
	.st19{fill-rule:evenodd;clip-rule:evenodd;fill:#40875E;}
	.st20{fill-rule:evenodd;clip-rule:evenodd;fill:#0B4A99;}
	.st21{fill:#FFFFFF;}
	.st22{fill:#0057A2;}
</style>
<g>
	<polygon class="st8" points="81.7,49.4 85,52.7 80.1,54.3 	"/>
	<polygon class="st6" points="82.8,48.3 99.4,32.3 102.5,35.6 86,51.5 	"/>
	<path class="st9" d="M89.7,51.7v10c0,0.7-0.6,1.3-1.3,1.3H67.6c-0.7,0-1.3-0.6-1.3-1.3V33.3c0-0.7,0.6-1.3,1.3-1.3h20.7
		c0.7,0,1.3,0.6,1.3,1.3v4.5l2.7-2.4v-2.6c0-1.9-1.6-3.5-3.5-3.5H67.2c-1.9,0-3.5,1.6-3.5,3.5v29.4c0,1.9,1.6,3.5,3.5,3.5h21.7
		c1.9,0,3.5-1.6,3.5-3.5V49.1L89.7,51.7z"/>
	<g>
		<path d="M51.2,67.9l-0.4-0.1c-0.4-0.2-0.8-0.3-1-0.5c-0.3-0.2-0.4-0.6-0.4-1c0-0.5,0.1-0.8,0.4-1c0.2-0.2,0.6-0.4,1-0.5l0.4-0.1
			V67.9z M50.6,65.4c-0.2,0.1-0.3,0.2-0.4,0.2c-0.1,0.1-0.2,0.3-0.2,0.6c0,0.3,0.1,0.5,0.2,0.6c0.1,0.1,0.2,0.2,0.4,0.3V65.4z"/>
		<path d="M51.5,72.8v-3.7l0.4,0.1c0.5,0.2,0.9,0.4,1.2,0.6c0.3,0.3,0.5,0.6,0.5,1.1c0,0.4-0.1,0.8-0.4,1.1
			c-0.3,0.3-0.7,0.5-1.2,0.6L51.5,72.8z M52.1,69.9v2.2c0.2-0.1,0.4-0.2,0.5-0.4c0.2-0.2,0.3-0.5,0.3-0.8c0-0.3-0.1-0.5-0.3-0.7
			C52.5,70.1,52.3,70,52.1,69.9z"/>
		<path d="M51.3,77.6c-4.6,0-8.4-3.7-8.4-8.4c0-4.6,3.7-8.4,8.4-8.4c4.6,0,8.4,3.7,8.4,8.4C59.7,73.9,55.9,77.6,51.3,77.6z
			 M51.3,61.5c-4.3,0-7.8,3.5-7.8,7.8c0,4.3,3.5,7.8,7.8,7.8c4.3,0,7.8-3.5,7.8-7.8C59.1,65,55.6,61.5,51.3,61.5z M51.4,76.5
			c-0.3,0-0.5-0.2-0.6-0.3c-0.1-0.1-0.1-0.3-0.1-0.6V74c-0.5-0.1-0.9-0.2-1.2-0.4c-0.4-0.2-0.8-0.5-1.1-0.8c-0.3-0.3-0.5-0.6-0.6-1
			c-0.1-0.3-0.2-0.7-0.2-1c0-0.3,0.1-0.6,0.3-0.8c0.2-0.2,0.5-0.3,0.8-0.3l0,0c0.3,0,0.5,0.1,0.7,0.2c0.2,0.1,0.3,0.3,0.4,0.5
			c0.1,0.4,0.2,0.6,0.3,0.8c0.1,0.2,0.2,0.3,0.3,0.4c0.1,0.1,0.2,0.1,0.2,0.2v-2.5c-0.5-0.2-1-0.3-1.3-0.5c-0.4-0.2-0.8-0.6-1.1-1
			c-0.3-0.4-0.4-1-0.4-1.6c0-0.8,0.3-1.5,0.8-2.1c0.5-0.5,1.2-0.8,2-0.9V63c0-0.8,0.5-0.8,0.7-0.8c0.2,0,0.7,0.1,0.7,0.8v0.5
			c0.4,0.1,0.8,0.2,1.1,0.3c0.4,0.2,0.7,0.4,1,0.7c0.2,0.2,0.4,0.5,0.5,0.8c0.1,0.3,0.2,0.5,0.2,0.8c0,0.3-0.1,0.6-0.3,0.8
			c-0.2,0.2-0.5,0.3-0.8,0.3c-0.6,0-1-0.3-1.1-0.9c-0.1-0.3-0.3-0.6-0.5-0.7v2.1c0.5,0.1,0.9,0.3,1.1,0.4c0.4,0.1,0.7,0.3,1,0.6
			c0.3,0.3,0.5,0.6,0.7,1c0.2,0.4,0.2,0.8,0.2,1.2c0,0.6-0.1,1.1-0.4,1.6c-0.3,0.5-0.7,0.9-1.2,1.2c-0.4,0.3-0.9,0.4-1.5,0.5v1.4
			c0,0.3,0,0.5-0.1,0.7C51.9,76.2,51.7,76.5,51.4,76.5z M48.7,70.4c-0.2,0-0.3,0.1-0.4,0.2c-0.1,0.1-0.2,0.2-0.2,0.4
			c0,0.3,0.1,0.5,0.2,0.8c0.1,0.3,0.3,0.5,0.5,0.8c0.2,0.3,0.5,0.5,0.9,0.6c0.4,0.2,0.8,0.3,1.3,0.3l0.3,0v2.1c0,0.2,0,0.3,0.1,0.3
			c0,0,0,0,0.1,0c0.1,0,0.1,0,0.1,0c0,0,0-0.2,0-0.5v-1.9l0.3,0c0.6-0.1,1.1-0.2,1.5-0.5c0.4-0.3,0.7-0.6,1-1v0
			c0.2-0.4,0.3-0.8,0.3-1.3c0-0.4-0.1-0.7-0.2-1c-0.1-0.3-0.3-0.6-0.6-0.8c-0.2-0.2-0.5-0.4-0.8-0.5c-0.3-0.1-0.7-0.3-1.3-0.4
			L51.5,68v-3.4l0.4,0.1c0.7,0.2,1.1,0.7,1.3,1.3c0.1,0.4,0.4,0.5,0.6,0.5c0.2,0,0.3-0.1,0.4-0.2c0.1-0.1,0.2-0.2,0.2-0.4
			c0-0.2,0-0.3-0.1-0.5c-0.1-0.2-0.2-0.4-0.4-0.6c-0.2-0.3-0.5-0.5-0.8-0.6c-0.3-0.1-0.7-0.2-1.1-0.3l-0.3,0v-1
			c0-0.3-0.1-0.3-0.1-0.3c-0.1,0-0.1,0-0.1,0.3v1l-0.3,0c-0.9,0.1-1.5,0.3-1.9,0.8c-0.4,0.4-0.7,1-0.7,1.7c0,0.5,0.1,1,0.3,1.3
			c0.2,0.3,0.5,0.6,0.9,0.8c0.4,0.2,0.9,0.4,1.4,0.5l0.2,0.1v3.7l-0.4-0.1c-0.3-0.1-0.6-0.2-0.8-0.4c-0.2-0.2-0.4-0.4-0.5-0.6
			c-0.1-0.2-0.2-0.5-0.3-0.9c0-0.1-0.1-0.2-0.2-0.2C48.9,70.4,48.8,70.4,48.7,70.4z"/>
	</g>
	<path class="st6" d="M37.4,58.6c7.7,0,13.9-2.5,13.9-5.6v-5.6c0-3.1-6.2-5.6-13.9-5.6c-7.7,0-13.9,2.5-13.9,5.6V53
		C23.5,56.1,29.7,58.6,37.4,58.6z M37.4,43.3c7.7,0,12.5,2.5,12.5,4.2c0,1.7-4.9,4.2-12.5,4.2c-7.7,0-12.5-2.5-12.5-4.2
		C24.9,45.7,29.7,43.3,37.4,43.3z"/>
	<path class="st9" d="M37.4,66.9c1.7,0,3.2-0.1,4.7-0.3c1.2-4,4.9-6.8,9.2-6.8v-4c0,3.1-6.2,5.6-13.9,5.6c-7.7,0-13.9-2.5-13.9-5.6
		v5.6C23.5,64.4,29.7,66.9,37.4,66.9z"/>
	<path class="st8" d="M37.4,69.7c-7.7,0-13.9-2.5-13.9-5.6v5.6c0,3.1,6.2,5.6,13.9,5.6c2.1,0,4.2-0.2,6-0.5c-1-1.5-1.6-3.3-1.6-5.3
		C40.4,69.6,38.9,69.7,37.4,69.7z"/>
	<g>
		<g>
			<path d="M112,85.6H14c-1.7,0-3.1-1.4-3.1-3.1V23.7c0-1.7,1.4-3.1,3.1-3.1h98c1.7,0,3.2,1.4,3.2,3.1v58.8
				C115.1,84.2,113.7,85.6,112,85.6z M14,21.1c-1.4,0-2.6,1.2-2.6,2.6v58.8c0,1.4,1.2,2.6,2.6,2.6h98c1.4,0,2.6-1.2,2.6-2.6V23.7
				c0-1.4-1.2-2.6-2.6-2.6H14z"/>
		</g>
	</g>
	<g>
		<path class="st6" d="M122.3,93.4c-1.5,2-4.6,2-6.2,2H9.9c-1.6,0-3.7,0.3-6.2-2l-3.3-3.9c-0.8-0.9-0.8-2,2.9-2h119.4
			c3.7,0,3.7,1.1,2.9,2L122.3,93.4z"/>
	</g>
	<rect x="68.7" y="35.4" width="18.7" height="0.6"/>
	<rect x="68.7" y="58.9" width="18.7" height="0.6"/>
	<rect x="68.7" y="41.3" width="16.9" height="0.6"/>
	<rect x="68.7" y="47.1" width="9.3" height="0.6"/>
	<rect x="68.7" y="53" width="9.3" height="0.6"/>
</g>
</svg>
