<?xml version="1.0" encoding="utf-8"?>
<!-- Generator: Adobe Illustrator 22.0.1, SVG Export Plug-In . SVG Version: 6.00 Build 0)  -->
<svg version="1.1" id="Layer_1" xmlns="http://www.w3.org/2000/svg" xmlns:xlink="http://www.w3.org/1999/xlink" x="0px" y="0px"
	 viewBox="0 0 720 400" style="enable-background:new 0 0 720 400;" xml:space="preserve">
<style type="text/css">
	.st0{fill:#40875E;}
	.st1{fill:#F0AB00;}
	.st2{fill:#A8A240;}
	.st3{fill:none;stroke:#000000;stroke-miterlimit:10;}
	.st4{fill:#FFFFFF;stroke:#FFFFFF;stroke-miterlimit:10;}
	.st5{fill:none;stroke:#939598;stroke-width:0.5;stroke-miterlimit:10;}
	.st6{fill:none;stroke:#939598;stroke-miterlimit:10;}
	.st7{fill:none;stroke:#231F20;stroke-width:2;stroke-miterlimit:10;}
	.st8{fill:#231F20;}
	.st9{opacity:0.9;fill:#40875E;stroke:#000000;stroke-width:2;stroke-miterlimit:10;}
	.st10{opacity:0.9;fill:#A8A240;stroke:#000000;stroke-width:2;stroke-miterlimit:10;}
	.st11{opacity:0.9;fill:#F0AB00;stroke:#000000;stroke-width:2;stroke-miterlimit:10;}
	.st12{fill:#414042;}
	.st13{fill:#E6E7E8;stroke:#000000;stroke-miterlimit:10;}
	.st14{fill:#00AEEF;}
	.st15{opacity:0.3;fill:none;stroke:#414042;stroke-miterlimit:10;}
	.st16{fill:none;stroke:#414042;stroke-miterlimit:10;}
	.st17{font-family:'Nunito-SemiBold';}
	.st18{font-size:17.8363px;}
	.st19{font-size:25.6559px;}
	.st20{fill:#FFFFFF;}
	.st21{font-size:11.3676px;}
</style>
<rect class="st3" width="720" height="400"/>
<rect x="452.2" y="208" class="st0" width="14" height="14"/>
<rect x="452.2" y="237" class="st2" width="14" height="14"/>
<rect x="452.2" y="266" class="st1" width="14" height="14"/>
<text transform="matrix(0.9935 0 0 1 480.1612 219.307)"><tspan x="0" y="0" class="st17 st18">L -  High </tspan><tspan x="0" y="30" class="st17 st18">M-  Medium </tspan><tspan x="0" y="60" class="st17 st18">H -  Low </tspan></text>
<text transform="matrix(1 0 0 1 180.668 56.0025)" class="st17 st19">Inventory Consumption in HMLA</text>
<g>
	<path class="st0" d="M326,199.8l-135.8,21.1V100c-77.9,0.3-140.9,63.5-140.9,141.4c0,0.4,0,0.9,0,1.3
		C50,320,112.8,382.6,190.2,382.9c0.2,0,0.4,0,0.6,0c78.1,0,141.4-63.3,141.4-141.4C332.2,226.9,330,212.9,326,199.8z"/>
	<path class="st1" d="M190.8,100c-0.2,0-0.4,0-0.6,0v120.9l2.4-0.4L257,116.4C237.3,105.9,214.7,100,190.8,100z"/>
	<path class="st2" d="M257,116.4l-64.4,104.1L326,199.8C314.9,163.7,289.8,133.8,257,116.4z"/>
	<rect x="113.9" y="255.3" class="st8" width="64.7" height="30.1"/>
	<text transform="matrix(1 0 0 1 125.8543 268.3877)"><tspan x="0" y="0" class="st20 st17 st21">H: 85%</tspan><tspan x="-6.8" y="13.6" class="st20 st17 st21">5.5 MSAR</tspan></text>
	<rect x="158.8" y="115.7" class="st8" width="64.7" height="30.1"/>
	<text transform="matrix(1 0 0 1 175.4456 128.7653)"><tspan x="0" y="0" class="st20 st17 st21">L: 5%</tspan><tspan x="-11.4" y="13.6" class="st20 st17 st21">2.2 MSAR</tspan></text>
	<rect x="232.9" y="164.5" class="st8" width="70.4" height="30.1"/>
	<text transform="matrix(1 0 0 1 247.6529 177.6085)"><tspan x="0" y="0" class="st20 st17 st21">M: 10%</tspan><tspan x="-9.7" y="13.6" class="st20 st17 st21">16.2 MSAR</tspan></text>
</g>
</svg>
