<?xml version="1.0" encoding="utf-8"?>
<!-- Generator: Adobe Illustrator 22.0.1, SVG Export Plug-In . SVG Version: 6.00 Build 0)  -->
<svg version="1.1" id="Layer_1" xmlns="http://www.w3.org/2000/svg" xmlns:xlink="http://www.w3.org/1999/xlink" x="0px" y="0px"
	 viewBox="0 0 126 116" style="enable-background:new 0 0 126 116;" xml:space="preserve">
<style type="text/css">
	.st0{fill:url(#SVGID_1_);}
	.st1{fill:none;stroke:#0459A2;stroke-miterlimit:10;}
	.st2{fill:#FF0013;}
	.st3{fill:#0B4A99;}
	.st4{fill:#CD1618;}
	.st5{fill:#DB9821;}
	.st6{fill:#40875E;}
	.st7{fill:#918831;}
	.st8{fill:#F0AB00;}
	.st9{fill:#A8A240;}
	.st10{fill:none;}
	.st11{fill:#0071C5;}
	.st12{fill:#EFAA1E;}
	.st13{fill:none;stroke:#000000;stroke-width:0.5;stroke-miterlimit:10;}
	.st14{fill:#A69F3D;}
	.st15{fill:#231F20;}
	.st16{fill-rule:evenodd;clip-rule:evenodd;fill:#A69F3D;}
	.st17{fill-rule:evenodd;clip-rule:evenodd;fill:#F0AB00;}
	.st18{fill-rule:evenodd;clip-rule:evenodd;fill:#A8A240;}
	.st19{fill-rule:evenodd;clip-rule:evenodd;fill:#40875E;}
	.st20{fill-rule:evenodd;clip-rule:evenodd;fill:#0B4A99;}
	.st21{fill:#FFFFFF;}
	.st22{fill:#0057A2;}
</style>
<g>
	<path class="st9" d="M88.1,61.4h-4c-0.8,0-1.4,0.6-1.4,1.4v25.7c0,0.8,0.6,1.4,1.4,1.4h5.1H92H109c0.8,0,1.4-0.6,1.4-1.4V68.9V66
		v-3.2c0-0.8-0.6-1.4-1.4-1.4h-3.6l0.3,1.1h3.6v26.2H83.8V62.5h4L88.1,61.4z"/>
	<path class="st6" d="M92.4,59.2c-2,0-3.6,1.6-3.6,3.6c0,2,1.6,3.6,3.6,3.6c2,0,3.6-1.6,3.6-3.6C96,60.9,94.4,59.2,92.4,59.2
		L92.4,59.2z M94.4,63.4h-1.5V65c0,0.3-0.2,0.5-0.5,0.5S92,65.2,92,65v-1.5h-1.5c-0.3,0-0.5-0.2-0.5-0.5c0-0.3,0.2-0.5,0.5-0.5H92
		v-1.5c0-0.3,0.2-0.5,0.5-0.5s0.5,0.2,0.5,0.5v1.5h1.5c0.3,0,0.5,0.2,0.5,0.5C94.9,63.2,94.7,63.4,94.4,63.4L94.4,63.4z"/>
	<path class="st8" d="M101.1,59.2c-2,0-3.6,1.6-3.6,3.6c0,2,1.6,3.6,3.6,3.6c2,0,3.6-1.6,3.6-3.6C104.7,60.8,103.1,59.2,101.1,59.2
		L101.1,59.2z M101.6,62.4h1.5c0.3,0,0.5,0.2,0.5,0.5c0,0.3-0.2,0.5-0.5,0.5l0,0h-1.5h-1h-1.5c-0.3,0-0.5-0.2-0.5-0.5
		c0-0.3,0.2-0.5,0.5-0.5h1.5H101.6z"/>
	<g>
		<g>
			<path d="M93.6,87h0.8l-1.2-2c0.1,0,0.4,0,0.6-0.2c0.2-0.1,0.3-0.2,0.4-0.3c0.1-0.2,0.2-0.4,0.2-0.6c0-0.4-0.1-0.7-0.4-0.9
				c-0.3-0.2-0.6-0.3-1-0.3h-0.8v0.6H93c0.3,0,0.5,0.1,0.6,0.2c0.1,0.1,0.2,0.3,0.2,0.5c0,0.2-0.1,0.3-0.2,0.4
				c-0.1,0.1-0.3,0.2-0.5,0.2h-0.9L93.6,87z"/>
			<rect x="91.7" y="82.7" width="0.6" height="4.3"/>
			<rect x="92" y="84.5" width="1.3" height="0.5"/>
		</g>
	</g>
	<g>
		<g>
			<g>
				<rect x="102.8" y="84.1" width="5.4" height="0.3"/>
			</g>
			<g>
				<rect x="102.8" y="84.8" width="5.4" height="0.3"/>
			</g>
			<g>
				<path d="M103.9,86.7L103,83h0.5l0.4,1.9c0.1,0.5,0.2,0.9,0.3,1.3h0c0.1-0.4,0.2-0.8,0.3-1.3L105,83h0.5l0.5,1.9
					c0.1,0.4,0.2,0.9,0.3,1.3h0c0.1-0.4,0.2-0.8,0.3-1.3L107,83h0.5l-1,3.7h-0.5l-0.5-1.9c-0.1-0.5-0.2-0.8-0.2-1.2h0
					c-0.1,0.4-0.1,0.7-0.3,1.2l-0.5,1.9H103.9z"/>
			</g>
		</g>
	</g>
	<path d="M87,71.3v1.3c0.4,0,0.8-0.2,0.8-0.6C87.8,71.5,87.4,71.4,87,71.3L87,71.3z M85.9,69.8c0,0.3,0.2,0.5,0.7,0.6v-1.2
		C86.2,69.3,85.9,69.5,85.9,69.8L85.9,69.8z M87,73.3v0.4c0,0.1-0.1,0.2-0.2,0.2c-0.1,0-0.2-0.1-0.2-0.2v-0.4
		c-1.1,0-1.6-0.7-1.6-1.2c0-0.3,0.2-0.4,0.4-0.4c0.7,0,0.2,0.9,1.2,0.9v-1.4c-1-0.2-1.5-0.6-1.5-1.3c0-0.9,0.7-1.3,1.5-1.4v-0.3
		c0-0.1,0.1-0.2,0.2-0.2c0.1,0,0.2,0.1,0.2,0.2v0.3c0.5,0,1.5,0.3,1.5,1c0,0.3-0.2,0.4-0.4,0.4c-0.4,0-0.4-0.7-1.1-0.7v1.2
		c0.9,0.2,1.6,0.4,1.6,1.4C88.6,72.8,88,73.2,87,73.3L87,73.3z"/>
	<g>
		<g>
			<path d="M93.7,68.6h-1.9v2.6h1.9c0.7,0,1.2-0.6,1.2-1.3C94.9,69.2,94.4,68.6,93.7,68.6 M93.6,70.6h-1.1v-1.5h1.1
				c0.4,0,0.7,0.3,0.7,0.7C94.3,70.3,94,70.6,93.6,70.6"/>
			<rect x="91.8" y="70.8" width="0.6" height="2.5"/>
			<rect x="91.5" y="70.6" width="1.3" height="0.5"/>
			<rect x="91.5" y="71.8" width="2.6" height="0.5"/>
		</g>
	</g>
	<g>
		<g>
			<rect x="104.8" y="68.7" width="3.3" height="0.5"/>
			<rect x="104.8" y="69.7" width="3.3" height="0.4"/>
			<polygon points="107,73.5 106.3,73.5 104.7,71.1 105.5,71.1 			"/>
			<path d="M105.9,68.7c0.6,0,1.1,0.5,1.1,1.2c0,0.7-0.5,1.2-1.1,1.2h-1.1v-0.5h1c0.4,0,0.6-0.3,0.6-0.7c0-0.4-0.3-0.7-0.6-0.7h-1
				v-0.5H105.9l-5.3,3.8c-0.7,0-1.1-0.3-1.3-0.8h1.5v-0.5h-1.7c0-0.1,0-0.2,0-0.2c0,0,0-0.1,0-0.1h1.7v-0.5h-1.6
				c0.2-0.6,0.7-0.9,1.4-0.9c0.4,0,0.6,0.1,0.8,0.2l0.2-0.6c-0.2-0.1-0.5-0.2-1-0.2c-1.1,0-1.9,0.6-2.2,1.6h-1.1v0.5h1
				c0,0.1,0,0.1,0,0.2c0,0.1,0,0.1,0,0.2h-1v0.5h1.1c0.3,0.9,1,1.4,2.1,1.4c0.5,0,0.9-0.1,1.1-0.2l-0.1-0.6
				c-0.2,0.1-0.5,0.2-0.8,0.2"/>
		</g>
	</g>
	<path d="M100.2,84.5c0-0.1-0.1-0.1-0.2-0.1c-0.1,0-0.1,0-0.2,0.1c0,0,0,0.1,0,0.2c0.1,0.4-0.1,0.8-0.4,1.2
		c-0.2,0.2-0.5,0.4-0.7,0.6l-0.1,0.1V85l0.8-0.8c0.1-0.1,0.1-0.2,0-0.3c-0.1-0.1-0.2-0.1-0.3,0l-0.6,0.5v-0.4l0.8-0.7
		c0.1-0.1,0.1-0.2,0-0.3c-0.1-0.1-0.2-0.1-0.3,0l-0.6,0.5V83c0-0.1-0.1-0.2-0.2-0.2c-0.1,0-0.2,0.1-0.2,0.2v1l-0.7,0.6
		c-0.1,0.1-0.1,0.2,0,0.3c0,0,0.1,0.1,0.1,0.1c0,0,0.1,0,0.1,0l0.4-0.4v0.4l-0.6,0.6c-0.1,0.1-0.1,0.2,0,0.3c0,0,0.1,0.1,0.1,0.1
		c0,0,0.1,0,0.1,0l0.4-0.4v1.3c0,0.1,0.1,0.1,0.1,0.2l0,0c0,0,0.1,0,0.1,0c0,0,0,0,0.1,0c0.4-0.1,0.9-0.4,1.3-0.9
		C100,85.8,100.4,85.2,100.2,84.5L100.2,84.5z"/>
	<g>
		<g>
			<path d="M85.2,83c0-0.1,0.1-0.2,0.2-0.2h3.2c0.1,0,0.3,0.1,0.3,0.2c0,0.1-0.1,0.3-0.3,0.3h-3.2C85.3,83.2,85.2,83.1,85.2,83
				L85.2,83z"/>
			<path d="M88.9,86.2c-0.1-0.1-0.3-0.1-0.4,0c-0.3,0.3-0.5,0.4-0.5,0.4c0,0,0-0.1,0-0.1v-2.2h0.6c0.1,0,0.2-0.1,0.2-0.2
				c0-0.1-0.1-0.3-0.2-0.3h-3.2c-0.1,0-0.2,0.1-0.2,0.3c0,0.1,0.1,0.2,0.2,0.2h0.8c0.1,1.8-1,2.1-1,2.1c-0.1,0-0.2,0.2-0.2,0.3
				c0,0.1,0.1,0.2,0.2,0.2c0,0,0,0,0.1,0c0.1,0,1.5-0.4,1.4-2.6h0.8v2.2c0,0,0,0.5,0.3,0.6c0.1,0,0.1,0,0.2,0c0.3,0,0.6-0.3,0.9-0.5
				C89,86.4,89,86.3,88.9,86.2L88.9,86.2z"/>
		</g>
	</g>
	<g>
		<g>
			<g>
				<rect x="103.6" y="77.3" width="4.4" height="0.3"/>
			</g>
			<g>
				<rect x="103.6" y="78.1" width="4.4" height="0.3"/>
			</g>
			<g>
				<path d="M104,79.9V76h0.6l1.3,2c0.3,0.5,0.5,0.9,0.7,1.3l0,0c0-0.5-0.1-1-0.1-1.6V76h0.5v3.9h-0.5l-1.2-2
					c-0.3-0.4-0.5-0.9-0.7-1.3l0,0c0,0.5,0,1,0,1.6v1.7H104z"/>
			</g>
		</g>
	</g>
	<g>
		<g>
			<g>
				<path d="M98.1,75.9c0.2-0.1,0.6-0.1,1-0.1c0.6,0,0.9,0.1,1.2,0.3c0.2,0.2,0.4,0.4,0.4,0.8c0,0.4-0.3,0.8-0.7,1v0
					c0.4,0.1,0.9,0.5,0.9,1.1c0,0.4-0.2,0.7-0.4,0.9c-0.3,0.3-0.8,0.4-1.5,0.4c-0.4,0-0.7,0-0.9-0.1V75.9z M98.7,77.7h0.5
					c0.6,0,1-0.3,1-0.7c0-0.5-0.4-0.7-1-0.7c-0.3,0-0.4,0-0.5,0V77.7z M98.7,79.9c0.1,0,0.3,0,0.5,0c0.6,0,1.1-0.2,1.1-0.9
					c0-0.6-0.5-0.9-1.1-0.9h-0.5V79.9z"/>
			</g>
			<g>
				<rect x="99.2" y="75.2" width="0.4" height="5.6"/>
			</g>
		</g>
	</g>
	<g>
		<g>
			<g>
				<rect x="91.2" y="77.6" transform="matrix(0.8728 -0.4881 0.4881 0.8728 -26.1337 55.2707)" width="3.4" height="0.4"/>
			</g>
			<g>
				<rect x="91.7" y="78.4" transform="matrix(0.8736 -0.4866 0.4866 0.8736 -26.4593 55.4117)" width="3.4" height="0.4"/>
			</g>
			<g>
				<path d="M92.6,76.1H91v-0.6h3.8v0.6h-1.6v4.6h-0.7V76.1z"/>
			</g>
		</g>
	</g>
	<path d="M88.5,79.5L88.5,79.5L88.5,79.5C88.5,79.5,88.5,79.5,88.5,79.5L88.5,79.5c-0.3,0.1-0.5,0.2-0.8,0.2c0,0-0.1,0-0.2,0
		c-0.1,0-0.2,0-0.4-0.1c-0.1,0-0.3,0-0.4-0.1c-0.1,0-0.2,0-0.3,0c-0.1,0-0.1,0-0.2,0l-0.2,0l0.2-0.2c0,0,0,0,0,0
		c0.1-0.1,0.1-0.2,0.2-0.3c0-0.1,0.1-0.2,0.1-0.3c0-0.1,0-0.2,0-0.3c0-0.1,0-0.1,0-0.2l0-0.1l0.9,0c0,0,0,0,0,0
		c0.1,0,0.2-0.1,0.2-0.2c0-0.1-0.1-0.2-0.2-0.2c0,0,0,0,0,0h0c0,0,0,0,0,0l0,0h-0.9l0-0.1c-0.1-0.3-0.1-0.6-0.1-0.8
		c0-0.1,0-0.2,0.1-0.3c0-0.1,0.1-0.2,0.2-0.2c0.1-0.1,0.1-0.1,0.2-0.2c0.1,0,0.2-0.1,0.3-0.1c0.5,0,0.7,0.2,0.8,0.7c0,0,0,0,0,0l0,0
		l0,0c0,0,0,0,0,0c0,0.1,0.1,0.3,0.3,0.3c0.1,0,0.3-0.1,0.3-0.3l0,0c0,0,0,0,0,0v0c0-0.2-0.1-0.4-0.1-0.5c-0.1-0.1-0.2-0.3-0.3-0.4
		c-0.1-0.1-0.3-0.2-0.4-0.2c-0.2,0-0.3-0.1-0.5-0.1c-0.2,0-0.4,0-0.6,0.1c-0.2,0.1-0.3,0.1-0.4,0.3c-0.1,0.1-0.2,0.2-0.3,0.4
		c-0.1,0.2-0.1,0.3-0.1,0.5c0,0.1,0,0.2,0,0.3c0,0.1,0,0.2,0.1,0.4l0,0.1l-0.5,0c-0.1,0-0.2,0.1-0.2,0.2c0,0.1,0.1,0.2,0.2,0.2l0,0
		H86l0,0.1c0,0.1,0,0.2,0,0.3c0,0.2,0,0.3,0,0.4c0,0.1-0.1,0.2-0.1,0.3c-0.1,0.1-0.1,0.2-0.2,0.2c-0.1,0.1-0.2,0.1-0.3,0.2
		c-0.2,0.1-0.3,0.2-0.3,0.3c0,0.1,0.2,0.2,0.3,0.2c0,0,0,0,0,0c0.4-0.2,0.8-0.3,1.1-0.3c0,0,0.1,0,0.2,0c0.1,0,0.2,0,0.2,0
		c0.1,0,0.2,0,0.3,0.1c0.1,0,0.2,0,0.3,0.1c0.1,0,0.2,0,0.2,0.1c0.1,0,0.1,0,0.2,0h0c0.3,0,0.7-0.1,0.7-0.1c0,0,0.1,0,0.1,0
		c0.2,0,0.2-0.2,0.2-0.3C88.8,79.6,88.7,79.5,88.5,79.5L88.5,79.5z"/>
	<path class="st9" d="M43.3,64.8c-0.5-0.5-1-0.7-1.7-0.7H17.5c-0.7,0-1.2,0.2-1.7,0.7c-0.5,0.5-0.7,1-0.7,1.7v18.3
		c0,0.7,0.2,1.2,0.7,1.7c0.5,0.5,1,0.7,1.7,0.7h24.1c0.7,0,1.2-0.2,1.7-0.7c0.5-0.5,0.7-1,0.7-1.7V66.5
		C44.1,65.8,43.8,65.2,43.3,64.8z M42.1,84.8c0,0.1,0,0.2-0.1,0.3c-0.1,0.1-0.2,0.1-0.3,0.1H17.5c-0.1,0-0.2,0-0.3-0.1
		C17.1,85,17,84.9,17,84.8V66.5c0-0.1,0-0.2,0.1-0.3c0.1-0.1,0.2-0.1,0.3-0.1h24.1c0.1,0,0.2,0,0.3,0.1c0.1,0.1,0.1,0.2,0.1,0.3
		V84.8L42.1,84.8z"/>
	<path class="st8" d="M21.9,73.7c0.8,0,1.5-0.3,2-0.8c0.6-0.6,0.8-1.2,0.8-2c0-0.8-0.3-1.5-0.8-2c-0.6-0.6-1.2-0.8-2-0.8
		c-0.8,0-1.5,0.3-2,0.8c-0.6,0.6-0.8,1.2-0.8,2c0,0.8,0.3,1.5,0.8,2C20.4,73.4,21.1,73.7,21.9,73.7z"/>
	<polygon class="st6" points="26.2,78 23.8,75.6 19,80.4 19,83.3 40.2,83.3 40.2,76.6 33.9,70.3 	"/>
	<g>
		<path class="st8" d="M70.3,27.6l-5.1-3.7c-0.8-0.6-2.1-0.6-2.9,0l-5.1,3.7c-0.8,0.6-1.5,1.9-1.5,2.9v25.3c0,1,0.8,1.8,1.8,1.8H70
			c1,0,1.8-0.8,1.8-1.8V30.5C71.8,29.5,71.1,28.2,70.3,27.6z M63.8,26.6c0.7,0,1.3,0.6,1.3,1.3c0,0.7-0.6,1.3-1.3,1.3
			c-0.7,0-1.3-0.6-1.3-1.3C62.5,27.2,63.1,26.6,63.8,26.6z M70.2,54c0,1-0.8,1.8-1.8,1.8h-9c-1,0-1.8-0.8-1.8-1.8V33.2
			c0-1,0.8-1.8,1.8-1.8h9c1,0,1.8,0.8,1.8,1.8V54z"/>
		<path class="st8" d="M54,21.9l0.2,0.4c1.5-0.7,3-0.8,4.4-0.2c1,0.4,1.9,1.1,2.6,1.9c-0.2,0.4-0.3,0.9-0.5,1.5l0.4,0.1
			c0.1-0.5,0.2-0.8,0.4-1.2c1.1,1.3,1.7,2.7,1.7,2.7c0.1,0.2,0.4,0.9,1,0.8c0.6-0.1,0.9-1,1.2-3l0-0.1l0-0.1
			c-0.1-0.1-1.4-2.4-2.8-2.2c-0.5,0.1-0.9,0.4-1.2,1c-0.7-0.7-1.6-1.4-2.7-1.9C57.3,21.1,55.7,21.2,54,21.9z M62.8,22.9
			c0.9-0.1,1.9,1.3,2.3,1.9c-0.3,2.4-0.8,2.5-0.8,2.6c-0.2,0-0.4-0.3-0.5-0.6c0-0.1-0.7-1.6-1.9-3C62.1,23.3,62.4,23,62.8,22.9z"/>
	</g>
	<g>
		<g>
			<path d="M29.6,104.8c-2,0-3.8-0.8-5.2-2.2L2.8,81c-1.4-1.4-2.2-3.2-2.2-5.2c0-2,0.8-3.8,2.2-5.2l21.6-21.6
				c1.4-1.4,3.2-2.2,5.2-2.2c2,0,3.8,0.8,5.2,2.2l21.6,21.6c1.4,1.4,2.2,3.2,2.2,5.2s-0.8,3.8-2.2,5.2l-21.6,21.6
				C33.4,104,31.5,104.8,29.6,104.8z M29.6,47.4c-1.8,0-3.5,0.7-4.8,2L3.2,71c-1.3,1.3-2,3-2,4.8s0.7,3.5,2,4.8l21.6,21.6
				c1.3,1.3,3,2,4.8,2c1.8,0,3.5-0.7,4.8-2L56,80.6c1.3-1.3,2-3,2-4.8s-0.7-3.5-2-4.8L34.4,49.4C33.1,48.1,31.4,47.4,29.6,47.4z"/>
		</g>
		<g>
			<path d="M96.4,104.8c-2,0-3.8-0.8-5.2-2.2L69.6,81c-2.9-2.9-2.9-7.5,0-10.4l21.6-21.6c1.4-1.4,3.2-2.2,5.2-2.2
				c2,0,3.8,0.8,5.2,2.2l21.6,21.6c1.4,1.4,2.2,3.2,2.2,5.2s-0.8,3.8-2.2,5.2l-21.6,21.6C100.2,104,98.4,104.8,96.4,104.8z
				 M96.4,47.4c-1.8,0-3.5,0.7-4.8,2L70,71c-2.6,2.6-2.6,6.9,0,9.6l21.6,21.6c1.3,1.3,3,2,4.8,2c1.8,0,3.5-0.7,4.8-2l21.6-21.6
				c1.3-1.3,2-3,2-4.8s-0.7-3.5-2-4.8l-21.6-21.6C99.9,48.1,98.2,47.4,96.4,47.4z"/>
		</g>
	</g>
	<g>
		<path d="M63,69.2c-2,0-3.8-0.8-5.2-2.1L36.2,45.4C34.8,44,34,42.2,34,40.2s0.8-3.8,2.2-5.2l21.6-21.6c1.4-1.4,3.2-2.1,5.2-2.1
			c2,0,3.8,0.8,5.2,2.1L89.8,35c2.9,2.9,2.9,7.5,0,10.4L68.2,67.1C66.8,68.4,65,69.2,63,69.2z M63,11.8c-1.8,0-3.5,0.7-4.8,2
			L36.6,35.4c-1.3,1.3-2,3-2,4.8s0.7,3.5,2,4.8l21.6,21.6c1.3,1.3,3,2,4.8,2c1.8,0,3.5-0.7,4.8-2L89.4,45c2.6-2.6,2.6-6.9,0-9.6
			L67.8,13.8C66.5,12.5,64.8,11.8,63,11.8z"/>
	</g>
</g>
</svg>
