<svg id="Layer_1" data-name="Layer 1" xmlns="http://www.w3.org/2000/svg" viewBox="0 0 60 60"><defs><style>.cls-1{fill:#a69f3d;}.cls-2{fill:#60987e;}.cls-3{fill:#128ece;}.cls-4{fill:#efaa1e;}.cls-5{font-size:4.81px;font-family:Optima-Bold, Optima;font-weight:700;}.cls-5,.cls-6{fill:#000100;}</style></defs><title>Services all Icon</title><path class="cls-1" d="M48.43,43.89H44.81a.48.48,0,0,0,0,1h3.62Z"/><path class="cls-1" d="M46.66,52.84H44.81a.48.48,0,0,0,0,1h1.85Z"/><path class="cls-1" d="M51.62,46.9h2.65a.48.48,0,0,0,0-1H51.62Z"/><path class="cls-1" d="M50.37,49h3.9a.48.48,0,0,0,0-1h-3.9Z"/><path class="cls-1" d="M47.06,55.3H44.81a.48.48,0,0,0,0,1h2.25Z"/><path class="cls-2" d="M42.44,41.52V59.29H56.93V44l-2.54-2.47ZM55.75,58.11H43.62V42.7H53.78v1.88h2Zm0,0"/><path class="cls-3" d="M45.56,38.8v2.06h1.18V40h9.35v1.88h2V55.38h-.52v1.18h1.7V41.26L56.7,38.8Z"/><path class="cls-3" d="M53.25,53.66a1.9,1.9,0,1,1-1.9-1.9A1.9,1.9,0,0,1,53.25,53.66Zm-1.9-.91a.91.91,0,1,0,.91.91A.91.91,0,0,0,51.36,52.75Zm.45-.42a.21.21,0,0,0-.21-.21H51a.21.21,0,0,0-.21.21h0a.21.21,0,0,0,.21.21h.58a.21.21,0,0,0,.21-.21Zm-.08,0a.17.17,0,0,1-.18.15h-.49a.17.17,0,0,1-.18-.15h0a.17.17,0,0,1,.18-.15h.49a.17.17,0,0,1,.18.15ZM51.8,55a.21.21,0,0,0-.21-.21H51a.21.21,0,0,0-.21.21h0a.21.21,0,0,0,.21.21h.58A.21.21,0,0,0,51.8,55Zm-.08,0a.17.17,0,0,1-.18.15h-.49a.17.17,0,0,1-.18-.15h0a.17.17,0,0,1,.18-.15h.49a.17.17,0,0,1,.18.15Zm1-1.56a.21.21,0,0,0,.08-.29l-.29-.5a.21.21,0,0,0-.29-.08h0a.21.21,0,0,0-.08.29l.29.5a.21.21,0,0,0,.29.08Zm0-.07a.16.16,0,0,1-.22-.08l-.25-.42a.17.17,0,0,1,0-.23h0a.17.17,0,0,1,.22.08l.25.42a.16.16,0,0,1,0,.23Zm-2.81.07a.21.21,0,0,0,.29-.08l.29-.5a.21.21,0,0,0-.08-.29h0a.21.21,0,0,0-.29.08l-.29.5a.21.21,0,0,0,.08.29Zm0-.07a.17.17,0,0,1,0-.23l.25-.42a.17.17,0,0,1,.22-.08h0a.17.17,0,0,1,0,.23l-.25.42a.17.17,0,0,1-.22.08Zm2.81.53a.21.21,0,0,0-.29.08l-.29.5a.21.21,0,0,0,.08.29h0a.21.21,0,0,0,.29-.08l.29-.5a.21.21,0,0,0-.08-.29Zm0,.07a.17.17,0,0,1,0,.23l-.25.42a.17.17,0,0,1-.22.08h0a.17.17,0,0,1,0-.23l.25-.42a.17.17,0,0,1,.22-.08Zm-2.81-.07a.21.21,0,0,0-.08.29l.29.5a.21.21,0,0,0,.29.08h0a.21.21,0,0,0,.08-.29L50.2,54a.21.21,0,0,0-.29-.08Zm0,.07a.17.17,0,0,1,.22.08l.25.42a.17.17,0,0,1,0,.23h0a.17.17,0,0,1-.22-.08l-.25-.42a.17.17,0,0,1,0-.23Z"/><circle class="cls-3" cx="51.36" cy="53.66" r="0.62"/><path class="cls-3" d="M51.67,52.33c0,.06-.07.11-.16.11h-.43c-.09,0-.16-.05-.16-.11h0c0-.06.07-.11.16-.11h.43c.09,0,.16.05.16.11Z"/><path class="cls-3" d="M51.67,55c0,.06-.07.11-.16.11h-.43c-.09,0-.16-.05-.16-.11h0c0-.06.07-.11.16-.11h.43c.09,0,.16.05.16.11Z"/><path class="cls-3" d="M52.69,53.33c-.05,0-.13,0-.18-.08l-.22-.37a.14.14,0,0,1,0-.19h0c.05,0,.13,0,.18.08l.22.37a.14.14,0,0,1,0,.19Z"/><path class="cls-3" d="M50,53.33c.05,0,.13,0,.18-.08l.22-.37a.14.14,0,0,0,0-.19h0c-.05,0-.13,0-.18.08l-.22.37a.14.14,0,0,0,0,.19Z"/><path class="cls-3" d="M52.69,54c-.05,0-.13,0-.18.08l-.22.37a.14.14,0,0,0,0,.19h0c.05,0,.13,0,.18-.08l.22-.37a.14.14,0,0,0,0-.19Z"/><path class="cls-3" d="M50,54c.05,0,.13,0,.18.08l.22.37a.14.14,0,0,1,0,.19h0c-.05,0-.13,0-.18-.08L50,54.21A.14.14,0,0,1,50,54Z"/><path class="cls-3" d="M55.39,53.66a4,4,0,1,1-4-4A4,4,0,0,1,55.39,53.66Zm-4-2.35a2.35,2.35,0,1,0,2.35,2.35A2.35,2.35,0,0,0,51.36,51.31Zm-.94-1.11a.13.13,0,0,0-.13-.13h0a.13.13,0,0,0-.13.13v1a.13.13,0,0,0,.13.13h0a.13.13,0,0,0,.13-.13Zm2.06,5.9a.13.13,0,0,0-.13-.13h0a.13.13,0,0,0-.13.13v1a.13.13,0,0,0,.13.13h0a.13.13,0,0,0,.13-.13Zm-.88.26a.13.13,0,0,0-.08-.17h0a.13.13,0,0,0-.17.08l-.38,1a.13.13,0,0,0,.08.17h0a.13.13,0,0,0,.17-.08Zm0-6.26a.13.13,0,0,0-.08-.17h0a.13.13,0,0,0-.17.08L51,51a.13.13,0,0,0,.08.17h0a.13.13,0,0,0,.17-.08Zm1.22.33a.13.13,0,0,0,0-.19h0a.13.13,0,0,0-.19,0l-.7.78a.13.13,0,0,0,0,.19h0a.13.13,0,0,0,.19,0Zm1,.63a.13.13,0,0,0,0-.19h0a.13.13,0,0,0-.19,0l-.87.58a.13.13,0,0,0,0,.19h0a.13.13,0,0,0,.19,0Zm.69,1.14a.13.13,0,0,0,.13-.14h0a.13.13,0,0,0-.14-.13l-1,0a.13.13,0,0,0-.13.14h0a.13.13,0,0,0,.14.13Zm.36,1.19a.13.13,0,0,0,.16-.1h0a.13.13,0,0,0-.1-.16l-1-.23a.13.13,0,0,0-.16.1h0a.13.13,0,0,0,.1.16Zm-.12,1.18a.13.13,0,0,0,.18,0h0a.13.13,0,0,0,0-.18l-.9-.53a.13.13,0,0,0-.18,0h0a.13.13,0,0,0,0,.18Zm-.51,1.15a.13.13,0,0,0,.19,0h0a.13.13,0,0,0,0-.19l-.69-.79a.13.13,0,0,0-.19,0h0a.13.13,0,0,0,0,.19Zm-1,.89a.13.13,0,0,0,.16.09h0a.13.13,0,0,0,.09-.16l-.27-1a.13.13,0,0,0-.16-.09h0a.13.13,0,0,0-.09.16Zm-3.5.28a.13.13,0,0,0,0,.19h0a.13.13,0,0,0,.19,0l.7-.78a.13.13,0,0,0,0-.19h0a.13.13,0,0,0-.19,0Zm-1-.63a.13.13,0,0,0,0,.19h0a.13.13,0,0,0,.19,0l.87-.58a.13.13,0,0,0,0-.19h0a.13.13,0,0,0-.19,0Zm-.69-1.14a.13.13,0,0,0-.13.14h0a.13.13,0,0,0,.14.13l1,0a.13.13,0,0,0,.13-.14h0a.13.13,0,0,0-.14-.13Zm-.36-1.19a.13.13,0,0,0-.16.1h0a.13.13,0,0,0,.1.16l1,.23a.13.13,0,0,0,.16-.1h0a.13.13,0,0,0-.1-.16Zm.12-1.18a.13.13,0,0,0-.18,0h0a.13.13,0,0,0,0,.18l.9.53a.13.13,0,0,0,.18,0h0a.13.13,0,0,0,0-.18Zm.51-1.15a.13.13,0,0,0-.19,0h0a.13.13,0,0,0,0,.19l.69.79a.13.13,0,0,0,.19,0h0a.13.13,0,0,0,0-.19Zm1-.89a.13.13,0,0,0-.16-.09h0a.13.13,0,0,0-.09.16l.27,1a.13.13,0,0,0,.16.09h0a.13.13,0,0,0,.09-.16Z"/><polygon class="cls-4" points="45.17 50.78 44.97 50.78 44.97 50.33 45.17 50.53 45.17 50.78"/><path class="cls-4" d="M44.76,50.76l-.16.15.4.43a.38.38,0,0,0,.36,0l.2-.28-.13-.14-.16.2s-.07.11-.18,0Z"/><rect class="cls-4" x="44.84" y="48.66" width="2.2" height="2.17" rx="0.15" ry="0.15" transform="translate(-21.75 48.1) rotate(-45.88)"/><path class="cls-4" d="M48.31,49.19c.08.08.13.17.11.19l-.49.51s-.11,0-.19-.1L45.84,48c-.08-.08-.13-.16-.11-.19l.49-.51s.11,0,.19.1Z"/><path class="cls-4" d="M47.36,46.77c.06.06.08.14,0,.19l-.49.52s-.13,0-.19,0L46,46.79c-.06-.06-.08-.14,0-.19l.49-.51s.13,0,.19,0Z"/><path class="cls-4" d="M48.44,47.81c.06.06.08.14,0,.19l-.49.52s-.13,0-.19,0l-.69-.65c-.06-.06-.08-.14,0-.19l.49-.52s.13,0,.19,0Z"/><path class="cls-4" d="M49.52,48.89c.06.06.08.14,0,.19l-.49.52s-.13,0-.19,0l-.7-.65c-.06-.06-.08-.14,0-.19l.48-.51s.13,0,.19,0Z"/><path class="cls-4" d="M49.66,48.29a.17.17,0,0,1,0,.23l0,0a.17.17,0,0,1-.23,0L47,46.23A.17.17,0,0,1,47,46l0,0a.17.17,0,0,1,.23,0Z"/><path class="cls-4" d="M52.13,44.48a.07.07,0,0,1,0,.1h0a.07.07,0,0,1-.1,0l-1-1a.07.07,0,0,1,0-.1h0a.07.07,0,0,1,.1,0Z"/><path class="cls-4" d="M51.83,44s-.06,0-.1-.06l0,0s-.07-.09-.06-.1l.46-.47s.06,0,.1.06l0,0s.07.09.06.1Z"/><polygon class="cls-4" points="48.47 46.89 47.74 46.16 48.24 46.05 48.36 45.63 48.93 45.52 49.07 45.11 49.55 45.02 49.66 44.63 50.19 44.51 50.26 44.12 50.74 43.96 50.83 43.71 51.42 44.19 51.47 44.23 51.95 44.82 51.7 44.91 51.54 45.39 51.15 45.46 51.02 46 50.63 46.1 50.54 46.58 50.13 46.73 50.02 47.29 49.6 47.42 49.49 47.92 48.76 47.19 48.47 46.89"/><ellipse class="cls-3" cx="9.81" cy="42.41" rx="9.06" ry="4.03"/><path class="cls-4" d="M11.91,57.22a1.67,1.67,0,0,1-1.23-1.31l-.87,0c-5,0-9.06-1.8-9.06-4V55c0,2.23,4.05,4,9.06,4a19.75,19.75,0,0,0,2.09-.11A1.67,1.67,0,0,1,11.91,57.22Z"/><path class="cls-1" d="M9.81,54.82l.84,0v-.46a1.67,1.67,0,0,1,1.27-1.62,1.67,1.67,0,0,1-.22-1.07q-.91.09-1.89.09c-5,0-9.06-1.8-9.06-4v3.08C.75,53,4.81,54.82,9.81,54.82Z"/><path class="cls-2" d="M9.81,50.63a19.61,19.61,0,0,0,2.57-.17l.68-.68a1.67,1.67,0,0,1,2-.26,1.67,1.67,0,0,1,1.62-1.25H18a2.37,2.37,0,0,0,.83-1.68V43.52c0,2.23-4.05,4-9.06,4s-9.06-1.8-9.06-4V46.6C.75,48.83,4.81,50.63,9.81,50.63Z"/><path class="cls-3" d="M22.38,55.59V54.34l-1.5-.24a3.66,3.66,0,0,0-.41-1l.87-1.24L20.45,51l-1.23.88a3.56,3.56,0,0,0-1-.42L18,49.95H16.71l-.24,1.48a3.64,3.64,0,0,0-1,.41L14.25,51l-.89.89.86,1.23a3.58,3.58,0,0,0-.42,1l-1.48.25v1.26l1.48.26a3.56,3.56,0,0,0,.42,1l-.87,1.22.89.89,1.23-.86a3.61,3.61,0,0,0,1,.41L16.71,60H18l.26-1.49a3.59,3.59,0,0,0,1-.42l1.24.87.89-.89-.89-1.23a3.62,3.62,0,0,0,.41-1Zm-5,1.13A1.75,1.75,0,1,1,19.1,55,1.75,1.75,0,0,1,17.35,56.73Z"/><rect class="cls-3" x="30.58" y="27.07" width="1.29" height="6.55"/><path class="cls-3" d="M51.44,37.67H50.15v-3.2a.28.28,0,0,0-.28-.28H12.59a.28.28,0,0,0-.28.28v3.2H11v-3.2a1.58,1.58,0,0,1,1.58-1.58H49.87a1.58,1.58,0,0,1,1.58,1.58Z"/><rect class="cls-2" x="27.01" y="9.65" width="2.96" height="1.24"/><rect class="cls-2" x="27.01" y="12.48" width="2.96" height="1.24"/><polygon class="cls-1" points="33.13 13.71 30.17 13.71 30.17 12.48 33.13 12.48 33.13 13.71 33.13 13.71"/><text class="cls-5" transform="translate(37.33 21.61)">eSPIR</text><path class="cls-4" d="M35.71,9.21A.39.39,0,0,0,35.62,9L31.88,4.69h0l-.07-.06h0l-.07,0H22.39a.76.76,0,0,0-.76.76V23.21a.76.76,0,0,0,.76.76H35a.76.76,0,0,0,.76-.76v-14s0,0,0,0ZM24.83,22.55l-.33-.66c-.14-.25-.22-.45-.33-.66h0c-.08.21-.17.4-.28.66l-.3.66h-.95l1.06-1.85-1-1.81h.95l.32.67c.11.22.19.4.28.61h0c.09-.24.16-.4.25-.61l.31-.67h.94l-1,1.78,1.09,1.87Zm3.68,0H26.23V18.89h.83v3h1.45Zm1.39.05a2.41,2.41,0,0,1-1-.22L29,21.7a2.15,2.15,0,0,0,.92.23c.38,0,.58-.15.58-.4s-.17-.36-.61-.52c-.61-.21-1-.54-1-1.08s.52-1.1,1.38-1.1a2.19,2.19,0,0,1,.93.18l-.18.67a1.74,1.74,0,0,0-.77-.18c-.36,0-.53.16-.53.35s.21.34.68.52c.65.24,1,.57,1,1.09S30.9,22.6,29.9,22.6Zm4-.05-.33-.66c-.14-.25-.22-.45-.33-.66h0c-.08.21-.17.4-.28.66l-.31.66h-.94l1.06-1.85-1-1.81h.95l.32.67c.11.22.19.4.28.61h0c.09-.24.16-.4.25-.61l.31-.67h.95l-1,1.78,1.08,1.87ZM22.39,17.48V5.32h8.82v3.9a.38.38,0,0,0,.39.38H35v7.89Z"/><path class="cls-6" d="M23.57,9.35v6.08h9.84V9.35Zm9.65.18v5.71H23.76V9.54Z"/><path class="cls-6" d="M26.92,11v1.42h3.15V11Zm3,.19v1.05H27.1V11.16Z"/><path class="cls-6" d="M23.76,9.54V11h3.15V9.54Zm3,.19v1.05H23.95V9.73Z"/><path class="cls-6" d="M23.76,11v1.42h3.15V11Zm3,.19v1.05H23.95V11.16Z"/><path class="cls-6" d="M23.76,12.4v1.42h3.15V12.4Zm3,.18v1.05H23.95V12.58Z"/><path class="cls-6" d="M23.76,13.83v1.42h3.15V13.83Zm3,.19v1H23.95V14Z"/><path class="cls-6" d="M26.92,13.83v1.42h3.15V13.83Zm3,.19v1H27.1V14Z"/><path class="cls-6" d="M30.07,13.83v1.42h3.15V13.83ZM33,14v1H30.26V14Z"/><path class="cls-6" d="M30.07,11v1.42h3.15V11Zm3,.19v1.05H30.26V11.16Z"/><path class="cls-6" d="M30.07,9.54V11h3.15V9.54Zm3,.19v1.05H30.26V9.73Z"/><path class="cls-3" d="M16.13,12.12l0,.45a7.68,7.68,0,0,0,2.37,15H45A7.69,7.69,0,0,0,46.94,12.4c0-.21,0-.41,0-.6a6.92,6.92,0,0,0-6.91-6.91,6.84,6.84,0,0,0-1.9.3,12.1,12.1,0,0,0-22,6.93Zm-4.06,7.74a6.44,6.44,0,0,1,4.88-6.25l.5-.13-.07-1.36a10.86,10.86,0,0,1,20-5.88l.27.42.47-.17a5.65,5.65,0,0,1,7.6,5.31,5.74,5.74,0,0,1-.09,1l-.11.62.62.1A6.45,6.45,0,0,1,45,26.31H18.52A6.46,6.46,0,0,1,12.07,19.86Z"/></svg>