<?xml version="1.0" encoding="utf-8"?>
<!-- Generator: Adobe Illustrator 22.0.1, SVG Export Plug-In . SVG Version: 6.00 Build 0)  -->
<svg version="1.1" id="Layer_1" xmlns="http://www.w3.org/2000/svg" xmlns:xlink="http://www.w3.org/1999/xlink" x="0px" y="0px"
	 viewBox="0 0 126 116" style="enable-background:new 0 0 126 116;" xml:space="preserve">
<style type="text/css">
	.st0{fill:url(#SVGID_1_);}
	.st1{fill:none;stroke:#0459A2;stroke-miterlimit:10;}
	.st2{fill:#FF0013;}
	.st3{fill:#0B4A99;}
	.st4{fill:#CD1618;}
	.st5{fill:#DB9821;}
	.st6{fill:#40875E;}
	.st7{fill:#918831;}
	.st8{fill:#F0AB00;}
	.st9{fill:#A8A240;}
	.st10{fill:none;}
	.st11{fill:#0071C5;}
	.st12{fill:#EFAA1E;}
	.st13{fill:none;stroke:#000000;stroke-width:0.5;stroke-miterlimit:10;}
	.st14{fill:#A69F3D;}
	.st15{fill:#231F20;}
	.st16{fill-rule:evenodd;clip-rule:evenodd;fill:#A69F3D;}
	.st17{fill-rule:evenodd;clip-rule:evenodd;fill:#F0AB00;}
	.st18{fill-rule:evenodd;clip-rule:evenodd;fill:#A8A240;}
	.st19{fill-rule:evenodd;clip-rule:evenodd;fill:#40875E;}
	.st20{fill-rule:evenodd;clip-rule:evenodd;fill:#0B4A99;}
	.st21{fill:#FFFFFF;}
	.st22{fill:#0057A2;}
</style>
<g>
	<g>
		<path class="st15" d="M62.9,115.2l-0.3,0c-1.8,0-3.7-0.1-5.5-0.3c-1.8-0.2-3.6-0.5-5.4-0.8l-0.3-0.1l-0.8-5.5
			c-0.4-2.7-2.1-4.9-4.6-5.8c-2.5-1-5.2-0.5-7.3,1.2l-4.3,3.6l-0.2-0.1c-3.2-1.9-6.1-4-8.9-6.5l-0.2-0.2l2.1-5.2
			c1-2.5,0.6-5.3-1.1-7.4c-1.7-2.1-4.3-3.1-6.9-2.6l-5.5,1l-0.1-0.2c-1.8-3.2-3.3-6.6-4.5-10l-0.1-0.3l4.4-3.5
			c2.1-1.7,3.1-4.3,2.7-6.9c-0.4-2.7-2.2-4.8-4.7-5.7L6,57.9l0-0.3c0-1.8,0.1-3.7,0.3-5.5c0.2-1.8,0.5-3.6,0.8-5.5l0.1-0.3l5.5-0.8
			c2.7-0.4,4.8-2.1,5.8-4.6c1-2.5,0.5-5.3-1.2-7.4l-3.6-4.3l0.1-0.2c1.9-3.2,4-6.2,6.5-8.9l0.2-0.2l5.2,2.1c2.5,1,5.2,0.6,7.3-1.1
			c2.1-1.7,3.1-4.3,2.6-7l-1-5.5l0.2-0.1c3.2-1.8,6.6-3.3,10-4.5l0.3-0.1l3.5,4.4c1.7,2.1,4.2,3.1,6.9,2.7c2.7-0.4,4.8-2.2,5.7-4.7
			l1.9-5.3l0.3,0c1.8,0,3.7,0.1,5.5,0.3c1.8,0.2,3.6,0.5,5.4,0.8L74.6,2l0.8,5.5c0.4,2.7,2.1,4.9,4.6,5.8c2.5,1,5.2,0.5,7.3-1.2
			l4.3-3.6l0.2,0.1c3.1,1.9,6.1,4,8.9,6.5l0.2,0.2l-2.1,5.2c-1,2.5-0.6,5.3,1.1,7.4c1.7,2.1,4.3,3.1,6.9,2.6l5.5-1l0.1,0.2
			c1.8,3.2,3.3,6.6,4.5,10l0.1,0.3l-4.4,3.5c-2.1,1.7-3.1,4.3-2.7,6.9c0.4,2.7,2.2,4.8,4.7,5.7l5.2,1.9l0,0.3c0,1.8-0.1,3.7-0.3,5.5
			c-0.2,1.8-0.5,3.6-0.8,5.5l-0.1,0.3l-5.5,0.8c-2.7,0.4-4.8,2.1-5.8,4.6c-1,2.5-0.5,5.3,1.2,7.4l3.6,4.3l-0.1,0.2
			c-1.9,3.2-4,6.2-6.5,8.9l-0.2,0.2l-5.2-2.1c-2.5-1-5.2-0.6-7.3,1.1c-2.1,1.7-3.1,4.3-2.6,7l1,5.5l-0.2,0.1
			c-3.2,1.8-6.6,3.3-10,4.5l-0.3,0.1l-3.5-4.4c-1.7-2.1-4.2-3.1-6.9-2.7c-2.7,0.4-4.8,2.2-5.7,4.7L62.9,115.2z M52.1,113.3
			c1.7,0.3,3.4,0.6,5.1,0.8c1.7,0.2,3.4,0.3,5.1,0.3l1.7-4.8c1-2.8,3.4-4.8,6.3-5.2c2.9-0.5,5.8,0.7,7.6,3l3.1,4
			c3.2-1.1,6.4-2.5,9.4-4.2l-0.9-5c-0.5-2.9,0.6-5.8,2.9-7.7c2.3-1.9,5.3-2.3,8.1-1.2l4.7,1.9c2.3-2.6,4.3-5.4,6.1-8.4l-3.3-3.9
			c-1.9-2.3-2.4-5.3-1.4-8.1c1.1-2.8,3.5-4.7,6.4-5.1l5-0.7c0.3-1.7,0.6-3.4,0.8-5.1c0.2-1.7,0.3-3.4,0.3-5.2l-4.7-1.7
			c-2.8-1-4.7-3.4-5.2-6.3c-0.5-3,0.6-5.8,3-7.7l4-3.1c-1.1-3.3-2.5-6.4-4.2-9.4l-5,0.9c-2.9,0.5-5.8-0.5-7.7-2.9
			c-1.9-2.3-2.3-5.4-1.2-8.1l1.9-4.7c-2.6-2.3-5.4-4.3-8.3-6.1l-3.9,3.3c-2.3,1.9-5.3,2.4-8.1,1.4c-2.8-1.1-4.7-3.5-5.1-6.4l-0.7-5
			c-1.7-0.3-3.4-0.6-5.1-0.8c-1.7-0.2-3.4-0.3-5.1-0.3L62,6.4c-1,2.8-3.4,4.8-6.3,5.2c-2.9,0.5-5.8-0.7-7.6-3l-3.1-4
			c-3.2,1.1-6.4,2.5-9.4,4.2l0.9,5c0.5,2.9-0.6,5.8-2.9,7.7c-2.3,1.9-5.3,2.3-8.1,1.2l-4.7-1.9c-2.3,2.6-4.3,5.4-6.1,8.4l3.3,3.9
			c1.9,2.3,2.4,5.3,1.4,8.1c-1.1,2.8-3.5,4.7-6.4,5.1l-5,0.7c-0.3,1.7-0.6,3.4-0.8,5.1c-0.2,1.7-0.3,3.4-0.3,5.2l4.7,1.7
			c2.8,1,4.7,3.4,5.2,6.3c0.5,3-0.6,5.8-3,7.7l-4,3.1c1.1,3.3,2.5,6.4,4.2,9.4l5-0.9c2.9-0.5,5.8,0.5,7.7,2.9
			c1.9,2.3,2.3,5.4,1.2,8.1l-1.9,4.7c2.6,2.3,5.4,4.3,8.3,6.1l3.9-3.3c2.3-1.9,5.3-2.4,8.1-1.4c2.8,1.1,4.7,3.5,5.1,6.4L52.1,113.3z
			 M63.1,99.2c-1.4,0-2.9-0.1-4.3-0.2C47.8,97.8,38,92.5,31.1,84c-6.9-8.5-10.1-19.3-8.9-30.2c2.3-22.6,22.6-39,45.1-36.7
			c10.9,1.1,20.7,6.5,27.6,15c6.9,8.5,10.1,19.3,8.9,30.2l-0.4,0l0.4,0c-1.1,10.9-6.5,20.8-15,27.7C81.5,96,72.4,99.2,63.1,99.2z
			 M63,17.6c-20.4,0-37.9,15.5-40.1,36.2c-1.1,10.7,2,21.3,8.8,29.6c6.8,8.4,16.4,13.6,27.1,14.7c10.7,1.1,21.2-2,29.6-8.8
			c8.4-6.8,13.6-16.5,14.7-27.2c1.1-10.7-2-21.3-8.8-29.6c-6.8-8.4-16.4-13.6-27.1-14.7C65.8,17.7,64.4,17.6,63,17.6z"/>
	</g>
	<path class="st17" d="M39.3,38.2c1.2-0.3,2.4,0.6,3.8,1.3c1,0.5,2.7,0.9,2.7,2.1c0.1,0.8-0.7,2.1-1.2,3.2
		c-2.8,5.9-5.5,11.3-8.4,17.5c-0.5,1-1.1,2.4-1.7,2.6c-1.3,0.3-2.4-0.8-3.6-1.3c-1.1-0.5-2.8-0.9-3-2.2c-0.1-0.7,0.7-2,1.2-3.1
		c2.9-5.9,5.5-11.6,8.3-17.4C37.9,40,38.4,38.5,39.3,38.2z"/>
	<path class="st18" d="M85.7,38.2c1.7-0.7,2.3,1.5,2.8,2.7c2.9,6.2,5.4,11.4,8.3,17.5c0.4,0.9,1.4,2.1,1.2,3
		c-0.1,1.1-1.9,1.6-2.9,2.1c-1.1,0.5-2.4,1.6-3.7,1.3c-0.8-0.2-1.3-1.8-1.7-2.7c-2.7-5.7-5.5-11.8-8.4-17.6
		c-0.4-0.8-1.4-2.1-1.2-3.1C80.4,39.9,84.6,39.1,85.7,38.2z"/>
	<path class="st19" d="M78.6,45.4c3.2,6.4,6.3,13,9.4,19.5c-0.1,1-1.4,2.1-1.4,3.2c0,0.5,0.7,1.1,1,1.7c1.6,3.3-0.6,7.3-4.6,7.2
		c0,3.4-2.4,5.2-5.5,5c-0.8,1.9-1.8,4-4.3,4.1c-1.3,0-2.4-0.6-3.5-1.2c-1,1.5-2.3,3.1-4.8,2.8c-1.4-0.2-2.3-1-3.3-1.6
		c-0.8,0.4-0.9,1.2-1.6,1.5c-2.2,0.8-4.5-1.5-4.1-3.7c-1.8,2.9-7.3,0.6-6.1-3.3c-2.6,1.9-7.1-1-5.6-4.4c-2.8,2.2-7.3-0.5-6-4.1
		c0.5-1.4,1.9-2.1,2.7-3.4c-0.8-1.2-1.8-2.2-2.7-3.3c0.4-0.9,0.8-1.7,1.2-2.6c1.1,1.3,2.2,2.5,3.2,3.8c3.2-2.2,7.4,1.7,5.2,5.1
		c3.1-1.4,6.4,1.3,5.3,4.6c2.8-1.6,6.4,0.8,5.5,4.2c2.2-1.1,5.4,1.1,4.3,3.8c0.6,0.4,1.3,1,2.3,1c0.8,0,2.1-0.8,2.1-1.6
		c0-0.6-1.1-1.1-1.6-1.5c-1.3-1-2.1-1.6-3.5-2.7c-0.6-0.5-1.5-0.8-1.6-1.5c-0.1-1,0.6-1.4,1-1.4c0.7-0.1,1.9,1.1,2.7,1.7
		c1.7,1.2,3.4,2.3,5.2,3.6c1.1,0.8,2,2,3.5,1.7c1.3-0.2,2-1.8,1.5-2.9c-0.4-0.9-1.6-1.4-2.7-2.2c-1.8-1.3-3.6-2.6-5.6-4.1
		c-1.1-0.8-3.3-1.9-2.5-3.2c0.9-1.5,3.3,0.7,4.5,1.5c2.4,1.6,4.1,3,6.4,4.6c1.2,0.8,2.5,2.4,4.1,2.1c0.3-0.1,1.9-0.7,1.5-2.6
		c-0.2-1.2-2.4-2.1-3.5-2.9c-2.7-1.9-4.6-3.4-7.4-5.4c-1.2-0.9-3.3-1.9-3.2-3.2c0.3-2.4,4.1,0.7,4.6,1.1c3.1,2.2,6.2,4.5,9.2,6.6
		c0.7,0.5,1.3,1.1,1.9,1.2c2.2,0.6,4.1-1.3,3.3-3.3c-0.3-0.7-1.6-1.7-2.4-2.4c-5.2-4.5-10.1-8.8-15.3-13.4c-0.9-0.8-1.6-1.9-2.4-2.3
		c-2.4-1.3-5.2,0.2-5.8,1.6c-0.2,0.6-0.2,1.2-0.3,1.7c-0.7,2.7-3.1,5.5-6.9,5.6c-1.7,0-3.3-0.6-3.4-2.2c-0.1-1.2,0.9-2.4,1.2-3.9
		c0.3-1.4,0.1-3.2,0.5-4.5c0.3-1.1,1.2-1.7,1.6-2.9c-1.6-0.2-3.6,0-5.4-0.1c0.4-1.2,1-2.1,1.5-3.2c1.5,0,3,0,4.5,0
		c1.4,0,3.1,0.3,4.5,0c0.5-0.1,1-0.5,1.5-0.7c1.5-0.7,3.3-1.3,5.4-1.4C69.3,42.7,72.9,45.5,78.6,45.4z"/>
</g>
</svg>
