<?xml version="1.0" encoding="utf-8"?>
<!-- Generator: Adobe Illustrator 22.0.1, SVG Export Plug-In . SVG Version: 6.00 Build 0)  -->
<svg version="1.1" id="Layer_1" xmlns="http://www.w3.org/2000/svg" xmlns:xlink="http://www.w3.org/1999/xlink" x="0px" y="0px"
	 viewBox="0 0 126 116" style="enable-background:new 0 0 126 116;" xml:space="preserve">
<style type="text/css">
	.st0{fill:url(#SVGID_1_);}
	.st1{fill:none;stroke:#0459A2;stroke-miterlimit:10;}
	.st2{fill:#FF0013;}
	.st3{fill:#0B4A99;}
	.st4{fill:#CD1618;}
	.st5{fill:#DB9821;}
	.st6{fill:#40875E;}
	.st7{fill:#918831;}
	.st8{fill:#F0AB00;}
	.st9{fill:#A8A240;}
	.st10{fill:none;}
	.st11{fill:#0071C5;}
	.st12{fill:#EFAA1E;}
	.st13{fill:none;stroke:#000000;stroke-width:0.5;stroke-miterlimit:10;}
	.st14{fill:#A69F3D;}
	.st15{fill:#231F20;}
	.st16{fill-rule:evenodd;clip-rule:evenodd;fill:#A69F3D;}
	.st17{fill-rule:evenodd;clip-rule:evenodd;fill:#F0AB00;}
	.st18{fill-rule:evenodd;clip-rule:evenodd;fill:#A8A240;}
	.st19{fill-rule:evenodd;clip-rule:evenodd;fill:#40875E;}
	.st20{fill-rule:evenodd;clip-rule:evenodd;fill:#0B4A99;}
	.st21{fill:#FFFFFF;}
	.st22{fill:#0057A2;}
</style>
<g>
	<g>
		<path class="st8" d="M45.8,61.9c0,0,1.3-0.7,2-1.9c0.3-0.5,0.1-1.2-0.4-1.6c-1.4-0.8-3.6-2.2-3.6-2.2l-2.1,1.3L45.8,61.9z"/>
		<path class="st8" d="M53.3,64.8c1.1,0.7,1.3,2.2,0.4,3.1l-3.3,3.1c-0.8,0.7-1.9,1.2-3,1.1c-1.3,0-2.4-0.6-3.2-1.6L38,61.5
			c-0.2-0.2-0.1-0.6,0.1-0.8l4.2-4c0.2-0.2,0.5-0.2,0.7,0.1l5.9,8.5l0.8-0.8c0.7-0.6,1.7-0.7,2.5-0.3L53.3,64.8 M41.5,57.9l-0.7,0.6
			l3.7,5.9c0.9,1.3,1.3,2.8,2.5,1.7l0,0L41.5,57.9z"/>
		<rect x="55.7" y="36" transform="matrix(0.7293 -0.6841 0.6841 0.7293 -10.3028 48.3932)" class="st8" width="0.7" height="2.5"/>
		<polygon class="st8" points="57.1,38.4 56.7,40.7 52.6,36.3 54.9,36.1 		"/>
		<path class="st8" d="M57.1,40.8l-3.7,3.4l-4.5-4.8l3.7-3.4L57.1,40.8z M53.1,36.4l-3.7,3.4l0.4,0.5l3.7-3.4L53.1,36.4z M54.1,37.5
			L50.4,41l0.4,0.5l3.7-3.4L54.1,37.5z M55.1,38.6L51.4,42l0.4,0.5l3.7-3.4L55.1,38.6z M56.1,39.7l-3.7,3.4l0.4,0.5l3.7-3.4
			L56.1,39.7z"/>
		<rect x="45.5" y="41.5" transform="matrix(0.7293 -0.6841 0.6841 0.7293 -18.1969 44.9585)" class="st8" width="4.5" height="8"/>
		<polygon class="st8" points="55.3,43.1 52.4,48.2 44.8,40.1 50.1,37.5 		"/>
		<path class="st8" d="M51.3,49.4L37.9,62c-1,1-2.6,0.9-3.6-0.1l-4.3-4.6c-1-1-0.9-2.6,0.1-3.6l13.4-12.6L51.3,49.4z M46.4,50.2
			c0.4-0.4,0.5-1.1,0-1.5l-1.1-1.1c-0.8-0.9-2.2-0.9-3.1-0.1l-5.3,5c-0.9,0.8-0.9,2.2-0.1,3.1l1.1,1.1c0.4,0.4,1.1,0.5,1.5,0
			L46.4,50.2"/>
		<path class="st8" d="M61.1,33l-5.6,5.2l-0.7-0.7l5.6-5.2c0.2-0.2,0.5-0.2,0.7,0S61.3,32.8,61.1,33 M59.4,33.7
			c0,0.2,0.1,0.3,0.3,0.3l0.3,0l0.6-0.6l-1,0C59.5,33.4,59.4,33.5,59.4,33.7 M60.7,32.7c0-0.2-0.1-0.3-0.3-0.3l-0.1,0L59.7,33l0.7,0
			C60.5,33,60.7,32.9,60.7,32.7"/>
		<path class="st8" d="M57.9,51.9l-1.5-1.6l0,0c0.2-0.1,0.2-0.4,0-0.5L55,48.3c-0.1-0.2-0.4-0.2-0.5,0l0,0L52.3,46l-2,1.9l5.9,6.3
			c0.8,0.9,2.1,1,3.1,0.3c0.1,0,0.1-0.1,0.2-0.1l0.3-0.3c0.4-0.4,0.4-1,0-1.4L59.2,52C58.8,51.7,58.3,51.6,57.9,51.9z"/>
	</g>
	<g>
		<path class="st16" d="M74.4,60.7L79.9,73c0.1,0.2,0,0.5-0.2,0.6l-1.1,0.5c-0.3,0.1-0.5,0-0.6-0.2l-5.5-12.3
			c-0.1-0.3,0-0.5,0.2-0.6l1.1-0.5C74,60.3,74.3,60.4,74.4,60.7L74.4,60.7z"/>
		<path class="st16" d="M51.7,80.4c1.1-0.5,1.6-1.7,1.1-2.8c-0.5-1.1-1.7-1.5-2.7-1.1C49,77,48.5,78.3,49,79.4
			C49.4,80.4,50.7,80.9,51.7,80.4L51.7,80.4z M46.8,77.5c-0.2-0.4,0-0.9,0.4-1.1l4.7-2.1c0.4-0.2,0.9,0,1.1,0.4l0.4,0.9l9.2-4.1
			l1.3,3l-9.2,4l0.4,0.9c0.2,0.4,0,0.9-0.4,1.1l-4.7,2.1c-0.4,0.1-0.9,0-1.1-0.4L46.8,77.5z"/>
		<path class="st16" d="M68.8,71.9c0.6-0.3,0.9-1,0.6-1.6c-0.3-0.6-1-0.9-1.6-0.6c-0.6,0.3-0.9,1-0.6,1.6
			C67.5,71.9,68.2,72.2,68.8,71.9L68.8,71.9z M60.9,66.2l7.1-3.1c0.2-0.1,0.5,0,0.6,0.2L74,75.6c0.1,0.1,0.1,0.2,0,0.4
			c0,0.1-0.1,0.2-0.2,0.3l-7.2,3.2L60.9,66.2z"/>
		<path class="st16" d="M69.6,62.7c-0.1-0.2,0-0.4,0.2-0.6l1.1-0.4c0.2-0.1,0.5,0,0.6,0.2L77,74.3c0.1,0.2,0,0.5-0.2,0.6l-1.1,0.5
			c-0.3,0.1-0.5,0-0.6-0.2L69.6,62.7z"/>
	</g>
	<path class="st14" d="M124.8,32.6H98.9V6.7C113.2,6.7,124.8,18.3,124.8,32.6"/>
	<path class="st6" d="M120,36.7c0,14.1-11.4,25.4-25.4,25.4c-14,0-25.4-11.4-25.4-25.4c0-14.1,11.4-25.4,25.4-25.4v25.4H120z"/>
	<g>
		<path d="M59.6,113h-6.8c-1.3,0-2.4-1.1-2.4-2.4v-7c0-0.9-0.6-1.6-1.5-1.7c-2.9-0.5-5.7-1.2-8.4-2.2c-0.8-0.3-1.7,0-2.1,0.8l-3.5,6
			c-0.7,1.1-2.1,1.5-3.3,0.9l-5.9-3.4c-1.1-0.7-1.5-2.1-0.9-3.2l3.5-6c0.4-0.8,0.3-1.7-0.4-2.3c-2.3-1.8-4.3-3.9-6.2-6.2
			c-0.5-0.7-1.5-0.8-2.3-0.4l-6,3.5c-1.1,0.7-2.6,0.3-3.2-0.9l-3.4-5.9c-0.7-1.1-0.3-2.6,0.9-3.2l6-3.5c0.8-0.4,1.1-1.4,0.8-2.1
			c-1-2.7-1.8-5.6-2.2-8.4c-0.1-0.9-0.9-1.5-1.7-1.5h-7c-1.3,0-2.4-1.1-2.4-2.4v-6.8c0-1.3,1.1-2.4,2.4-2.4h7c0.9,0,1.6-0.6,1.7-1.5
			c0.5-2.9,1.2-5.7,2.2-8.4c0.3-0.8,0-1.7-0.8-2.1l-6-3.5c-1.1-0.7-1.5-2.1-0.9-3.2l3.4-5.9c0.7-1.1,2.1-1.5,3.2-0.9l6,3.5
			c0.8,0.4,1.7,0.3,2.3-0.4c1.8-2.2,3.9-4.3,6.2-6.2c0.7-0.5,0.8-1.5,0.4-2.3l-3.5-6c-0.7-1.1-0.3-2.6,0.9-3.2l5.9-3.4
			c1.1-0.7,2.6-0.3,3.3,0.9l3.5,6c0.4,0.8,1.4,1.1,2.2,0.8c2.7-1,5.5-1.8,8.4-2.2c0.9-0.1,1.5-0.9,1.5-1.7v-7c0-1.3,1.1-2.4,2.4-2.4
			h6.8C60.9,3,62,4.1,62,5.4v7c0,0.9,0.6,1.6,1.5,1.7c2.4,0.4,4.9,1,7.3,1.9l-0.2,0.5c-2.4-0.8-4.8-1.4-7.2-1.8
			c-1.2-0.2-2-1.2-2-2.3v-7c0-1-0.8-1.8-1.8-1.8h-6.8c-1,0-1.8,0.8-1.8,1.8v7c0,1.1-0.8,2.1-2,2.3c-2.9,0.5-5.7,1.2-8.3,2.2
			c-1.1,0.4-2.3,0-2.9-1.1l-3.5-6C33.9,9,32.8,8.7,32,9.2l-5.9,3.4c-0.9,0.5-1.2,1.6-0.7,2.5l3.5,6c0.6,1,0.4,2.3-0.5,3
			c-2.2,1.8-4.3,3.9-6.1,6.1c-0.7,0.9-2,1.1-3,0.5l-6-3.5c-0.9-0.5-2-0.2-2.5,0.7l-3.4,5.9c-0.5,0.9-0.2,2,0.7,2.5l6,3.5
			c1,0.6,1.5,1.8,1.1,2.9c-1,2.7-1.8,5.5-2.2,8.3c-0.2,1.2-1.2,2-2.3,2h-7c-1,0-1.8,0.8-1.8,1.8v6.8c0,1,0.8,1.8,1.8,1.8h7
			c1.1,0,2.1,0.8,2.3,2c0.5,2.9,1.2,5.7,2.2,8.3c0.4,1.1,0,2.3-1.1,2.9l-6,3.5c-0.9,0.5-1.2,1.6-0.7,2.5l3.4,5.9
			c0.5,0.9,1.6,1.2,2.5,0.7l6-3.5c1-0.6,2.3-0.4,3,0.5c1.8,2.2,3.9,4.3,6.1,6.1c0.9,0.7,1.1,2,0.5,3l-3.5,6c-0.5,0.9-0.2,2,0.7,2.5
			l5.9,3.4c0.9,0.5,2,0.2,2.5-0.7l3.5-6c0.6-1,1.8-1.5,2.9-1.1c2.7,1,5.5,1.8,8.3,2.2c1.2,0.2,2,1.2,2,2.3v7c0,1,0.8,1.8,1.8,1.8
			h6.8c1,0,1.8-0.8,1.8-1.8v-7c0-1.1,0.8-2.1,2-2.3c2.8-0.5,5.6-1.2,8.3-2.2c1.1-0.4,2.3,0,2.9,1.1l3.5,6c0.2,0.4,0.6,0.7,1.1,0.8
			c0.5,0.1,0.9,0.1,1.4-0.2l5.9-3.4c0.9-0.5,1.2-1.6,0.7-2.5l-3.5-6c-0.6-1-0.4-2.3,0.5-3c2.2-1.8,4.3-3.9,6.1-6.1
			c0.7-0.9,2-1.1,3-0.5l6,3.5c0.9,0.5,2,0.2,2.5-0.7l3.4-5.9c0.2-0.4,0.3-0.9,0.2-1.4c-0.1-0.5-0.4-0.9-0.8-1.1l-6-3.5
			c-1-0.6-1.5-1.8-1.1-2.9c0.7-1.8,1.2-3.6,1.7-5.6l0.6,0.1c-0.5,2-1,3.9-1.7,5.6c-0.3,0.8,0,1.7,0.8,2.1l6,3.5
			c0.6,0.3,0.9,0.8,1.1,1.4c0.2,0.6,0.1,1.3-0.2,1.8l-3.4,5.9c-0.7,1.1-2.1,1.5-3.2,0.9l-6-3.5c-0.8-0.4-1.7-0.3-2.3,0.4
			c-1.8,2.3-3.9,4.3-6.2,6.2c-0.7,0.5-0.8,1.5-0.4,2.3l3.5,6c0.7,1.1,0.3,2.6-0.9,3.2l-5.9,3.4c-0.5,0.3-1.2,0.4-1.8,0.2
			c-0.6-0.2-1.1-0.6-1.4-1.1l-3.5-6c-0.4-0.8-1.4-1.1-2.1-0.8c-2.7,1-5.6,1.8-8.4,2.2c-0.9,0.1-1.5,0.9-1.5,1.7v7
			C62,111.9,60.9,113,59.6,113z"/>
	</g>
</g>
</svg>
