<?xml version="1.0" encoding="utf-8"?>
<!-- Generator: Adobe Illustrator 22.0.1, SVG Export Plug-In . SVG Version: 6.00 Build 0)  -->
<svg version="1.1" id="Layer_1" xmlns="http://www.w3.org/2000/svg" xmlns:xlink="http://www.w3.org/1999/xlink" x="0px" y="0px"
	 viewBox="0 0 126 116" style="enable-background:new 0 0 126 116;" xml:space="preserve">
<style type="text/css">
	.st0{fill:url(#SVGID_1_);}
	.st1{fill:none;stroke:#0459A2;stroke-miterlimit:10;}
	.st2{fill:#FF0013;}
	.st3{fill:#0B4A99;}
	.st4{fill:#CD1618;}
	.st5{fill:#DB9821;}
	.st6{fill:#40875E;}
	.st7{fill:#918831;}
	.st8{fill:#F0AB00;}
	.st9{fill:#A8A240;}
	.st10{fill:none;}
	.st11{fill:#0071C5;}
	.st12{fill:#EFAA1E;}
	.st13{fill:none;stroke:#000000;stroke-width:0.5;stroke-miterlimit:10;}
	.st14{fill:#A69F3D;}
	.st15{fill:#231F20;}
	.st16{fill-rule:evenodd;clip-rule:evenodd;fill:#A69F3D;}
	.st17{fill-rule:evenodd;clip-rule:evenodd;fill:#F0AB00;}
	.st18{fill-rule:evenodd;clip-rule:evenodd;fill:#A8A240;}
	.st19{fill-rule:evenodd;clip-rule:evenodd;fill:#40875E;}
	.st20{fill-rule:evenodd;clip-rule:evenodd;fill:#0B4A99;}
	.st21{fill:#FFFFFF;}
	.st22{fill:#0057A2;}
</style>
<g>
	<g>
		<path class="st15" d="M72.8,93.7H47c-1.5,0-2.7-1.2-2.7-2.7V79.6h0.9V91c0,1,0.8,1.8,1.8,1.8h25.7V93.7z"/>
	</g>
	<g>
		<path class="st15" d="M95.2,55.4h-0.9V29.7c0-1-0.8-1.8-1.8-1.8H81.1V27h11.4c1.5,0,2.7,1.2,2.7,2.7V55.4z"/>
	</g>
	<g>
		<path class="st15" d="M76.1,51.3H0.5V9.8c0-2.5,2.1-4.6,4.6-4.6h66.4c2.5,0,4.6,2.1,4.6,4.6V51.3z M1.4,50.4h73.8V9.8
			c0-2.1-1.7-3.7-3.7-3.7H5.1C3.1,6,1.4,7.7,1.4,9.8V50.4z"/>
	</g>
	<path class="st6" d="M0.5,56.3c0,2.3,1.9,4.2,4.2,4.2h23.7h0.2c0.1,1.3,0.1,3.2-0.4,5.2c-0.7,3.2-2.3,5.8-4.6,7.5
		c-0.4,0.3-0.5,0.8-0.4,1.3c0.2,0.5,0.6,0.8,1.1,0.8h27.5c0,0,0,0,0,0c0.6,0,1.1-0.5,1.1-1.1c0-0.4-0.2-0.7-0.5-0.9
		c-2.3-1.8-3.8-4.3-4.5-7.5c-0.4-2-0.5-3.9-0.4-5.2h0.2h23.7c2.3,0,4.2-1.9,4.2-4.2v-3.8H0.5V56.3z M38.1,53.6
		c1.3,0,2.4,1.1,2.4,2.4c0,1.3-1.1,2.4-2.4,2.4c-1.3,0-2.4-1.1-2.4-2.4C35.7,54.7,36.7,53.6,38.1,53.6z"/>
	<path class="st8" d="M102.9,66.6c0,1.4-1.1,2.5-2.5,2.5c-1.4,0-2.5-1.1-2.5-2.5c0-1.4,1.1-2.5,2.5-2.5
		C101.8,64.1,102.9,65.2,102.9,66.6z"/>
	<path class="st8" d="M119.7,66.6c0,1.3-1.1,2.4-2.4,2.4c-1.3,0-2.4-1.1-2.4-2.4c0-1.3,1.1-2.4,2.4-2.4
		C118.6,64.2,119.7,65.3,119.7,66.6z"/>
	<path class="st8" d="M119.6,84.6c0,1.3-1,2.3-2.3,2.3c-1.3,0-2.3-1-2.3-2.3c0-1.3,1-2.3,2.3-2.3C118.6,82.4,119.6,83.4,119.6,84.6z
		"/>
	<g>
		<g>
			<g>
				<path class="st9" d="M82.4,74.8c-4.5,0-8.2-3.7-8.2-8.2s3.7-8.2,8.2-8.2c4.5,0,8.2,3.7,8.2,8.2S86.9,74.8,82.4,74.8z M82.4,60.6
					c-3.3,0-6,2.7-6,6s2.7,6,6,6c3.3,0,6-2.7,6-6S85.7,60.6,82.4,60.6z"/>
			</g>
			<g>
				<path class="st9" d="M100.4,74.8c-4.5,0-8.2-3.7-8.2-8.2s3.7-8.2,8.2-8.2c4.5,0,8.2,3.7,8.2,8.2S104.9,74.8,100.4,74.8z
					 M100.4,60.6c-3.3,0-6,2.7-6,6s2.7,6,6,6c3.3,0,6-2.7,6-6S103.7,60.6,100.4,60.6z"/>
			</g>
			<g>
				<path class="st9" d="M117.3,74.8c-4.5,0-8.2-3.7-8.2-8.2s3.7-8.2,8.2-8.2s8.2,3.7,8.2,8.2S121.8,74.8,117.3,74.8z M117.3,60.6
					c-3.3,0-6,2.7-6,6s2.7,6,6,6c3.3,0,6-2.7,6-6S120.6,60.6,117.3,60.6z"/>
			</g>
			<g>
				<path class="st9" d="M82.4,92.8c-4.5,0-8.2-3.7-8.2-8.2c0-4.5,3.7-8.2,8.2-8.2c4.5,0,8.2,3.7,8.2,8.2
					C90.6,89.2,86.9,92.8,82.4,92.8z M82.4,78.6c-3.3,0-6,2.7-6,6c0,3.3,2.7,6,6,6c3.3,0,6-2.7,6-6C88.4,81.3,85.7,78.6,82.4,78.6z"
					/>
			</g>
			<g>
				<path class="st9" d="M100.4,92.8c-4.5,0-8.2-3.7-8.2-8.2c0-4.5,3.7-8.2,8.2-8.2c4.5,0,8.2,3.7,8.2,8.2
					C108.6,89.2,104.9,92.8,100.4,92.8z M100.4,78.6c-3.3,0-6,2.7-6,6c0,3.3,2.7,6,6,6c3.3,0,6-2.7,6-6
					C106.5,81.3,103.7,78.6,100.4,78.6z"/>
			</g>
			<g>
				<path class="st9" d="M117.3,92.8c-4.5,0-8.2-3.7-8.2-8.2c0-4.5,3.7-8.2,8.2-8.2s8.2,3.7,8.2,8.2
					C125.5,89.2,121.8,92.8,117.3,92.8z M117.3,78.6c-3.3,0-6,2.7-6,6c0,3.3,2.7,6,6,6c3.3,0,6-2.7,6-6
					C123.4,81.3,120.6,78.6,117.3,78.6z"/>
			</g>
			<g>
				<path class="st9" d="M82.4,110.9c-4.5,0-8.2-3.7-8.2-8.2c0-4.5,3.7-8.2,8.2-8.2c4.5,0,8.2,3.7,8.2,8.2
					C90.6,107.2,86.9,110.9,82.4,110.9z M82.4,96.6c-3.3,0-6,2.7-6,6c0,3.3,2.7,6,6,6c3.3,0,6-2.7,6-6
					C88.4,99.3,85.7,96.6,82.4,96.6z"/>
			</g>
			<g>
				<path class="st9" d="M100.4,110.9c-4.5,0-8.2-3.7-8.2-8.2c0-4.5,3.7-8.2,8.2-8.2c4.5,0,8.2,3.7,8.2,8.2
					C108.6,107.2,104.9,110.9,100.4,110.9z M100.4,96.6c-3.3,0-6,2.7-6,6c0,3.3,2.7,6,6,6c3.3,0,6-2.7,6-6
					C106.5,99.3,103.7,96.6,100.4,96.6z"/>
			</g>
			<g>
				<path class="st9" d="M117.3,110.9c-4.5,0-8.2-3.7-8.2-8.2c0-4.5,3.7-8.2,8.2-8.2s8.2,3.7,8.2,8.2
					C125.5,107.2,121.8,110.9,117.3,110.9z M117.3,96.6c-3.3,0-6,2.7-6,6c0,3.3,2.7,6,6,6c3.3,0,6-2.7,6-6
					C123.4,99.3,120.6,96.6,117.3,96.6z"/>
			</g>
		</g>
	</g>
	<g>
		<path class="st8" d="M18.2,33.1c-0.3,0-0.6-0.2-0.7-0.5c-0.8-1.9-1.2-4-1.2-6.1c0-0.4,0.3-0.7,0.7-0.7c0.4,0,0.7,0.3,0.7,0.7
			c0,1.9,0.4,3.8,1.1,5.6c0.2,0.4,0,0.8-0.4,1C18.4,33.1,18.3,33.1,18.2,33.1z"/>
		<path class="st8" d="M45.4,34.8c-0.1,0-0.2,0-0.3-0.1c-0.4-0.2-0.5-0.6-0.4-1c0.6-1.4,1.1-2.8,1.2-4.3c0.1-0.4,0.4-0.7,0.8-0.6
			c0.4,0.1,0.7,0.4,0.6,0.8c-0.2,1.6-0.7,3.2-1.4,4.7C45.9,34.7,45.7,34.8,45.4,34.8z"/>
		<path class="st8" d="M47,27.2c-0.4,0-0.7-0.3-0.7-0.7c0-5.8-3.4-10.9-8.7-13.2c-0.4-0.2-0.6-0.6-0.4-1c0.2-0.4,0.6-0.6,1-0.4
			c5.8,2.5,9.6,8.2,9.6,14.5C47.8,26.9,47.4,27.2,47,27.2z"/>
		<path class="st8" d="M17.8,22.3c-0.1,0-0.2,0-0.2,0c-0.4-0.1-0.6-0.6-0.5-0.9C19.3,15,25.3,10.7,32,10.7c0.4,0,0.7,0.3,0.7,0.7
			c0,0.4-0.3,0.7-0.7,0.7c-6.1,0-11.5,3.9-13.5,9.6C18.4,22.1,18.1,22.3,17.8,22.3z"/>
		<path class="st8" d="M20.1,28.7c-0.4,0-0.7-0.3-0.7-0.7c-0.1-0.5-0.1-1-0.1-1.6c0-4.5,2.4-8.8,6.3-11c0.4-0.2,0.8-0.1,1,0.3
			c0.2,0.4,0.1,0.8-0.3,1c-3.5,2-5.6,5.7-5.6,9.7c0,0.5,0,0.9,0.1,1.4C20.9,28.3,20.6,28.6,20.1,28.7C20.1,28.7,20.1,28.7,20.1,28.7
			z"/>
		<path class="st8" d="M39.4,17.7c-0.2,0-0.3-0.1-0.5-0.2c-2-1.6-4.4-2.4-6.9-2.4c-0.5,0-1.1,0-1.6,0.1c-0.4,0.1-0.8-0.2-0.8-0.6
			c-0.1-0.4,0.2-0.8,0.6-0.8c0.6-0.1,1.2-0.1,1.8-0.1c2.9,0,5.6,0.9,7.8,2.7c0.3,0.3,0.4,0.7,0.1,1C39.8,17.7,39.6,17.7,39.4,17.7z"
			/>
		<path class="st8" d="M39.9,40c-0.2,0-0.3-0.1-0.5-0.2c-0.3-0.3-0.4-0.7-0.1-1c3.9-4.7,5.7-12.9,2.1-18.4c-0.2-0.3-0.1-0.8,0.2-1
			c0.3-0.2,0.8-0.1,1,0.2c1.8,2.8,2.5,6.5,2,10.4c-0.5,3.6-2,7.1-4.2,9.8C40.3,39.9,40.1,40,39.9,40z"/>
		<path class="st8" d="M32.8,31.8c-0.4,0-0.7-0.3-0.7-0.7c-0.1-1.4-0.3-2.8-0.6-4.1c-0.1-0.4,0.1-0.8,0.5-0.9
			c0.4-0.1,0.8,0.1,0.9,0.5c0.4,1.4,0.6,2.9,0.7,4.5C33.5,31.4,33.2,31.7,32.8,31.8C32.8,31.8,32.8,31.8,32.8,31.8z"/>
		<path class="st8" d="M31,42.2c-0.1,0-0.2,0-0.3-0.1c-0.4-0.2-0.6-0.6-0.4-1c1-2.5,1.6-5.1,1.8-7.7c0-0.4,0.4-0.7,0.8-0.7
			c0.4,0,0.7,0.4,0.7,0.8c-0.2,2.7-0.8,5.5-1.9,8.1C31.6,42.1,31.3,42.2,31,42.2z"/>
		<path class="st8" d="M20.2,36.6c-0.1,0-0.1,0-0.2,0c-0.4-0.1-0.6-0.5-0.5-0.9c0.4-1.4,0.5-3,0.3-4.5c-0.1-0.4,0.2-0.8,0.6-0.8
			c0.4,0,0.8,0.2,0.8,0.6c0.2,1.7,0.1,3.5-0.4,5.1C20.9,36.4,20.6,36.6,20.2,36.6z"/>
		<path class="st8" d="M41.1,27.2c-0.4,0-0.7-0.3-0.7-0.7c0-2.8-1.4-5.3-3.6-6.9c-0.3-0.2-0.4-0.7-0.2-1c0.2-0.3,0.7-0.4,1-0.2
			c2.7,1.8,4.3,4.9,4.3,8.1C41.8,26.9,41.5,27.2,41.1,27.2z"/>
		<path class="st8" d="M22.9,27.2c-0.4,0-0.7-0.3-0.7-0.7c0-5.4,4.4-9.8,9.8-9.8c0.3,0,0.7,0,1,0.1c0.4,0,0.7,0.4,0.7,0.8
			c0,0.4-0.4,0.7-0.8,0.7c-0.3,0-0.6,0-0.9,0c-4.6,0-8.4,3.7-8.4,8.4C23.6,26.9,23.3,27.2,22.9,27.2z"/>
		<path class="st8" d="M22.7,39c-0.1,0-0.2,0-0.3,0c-0.4-0.1-0.6-0.6-0.4-1c0.6-1.6,0.9-3.3,0.9-5c0-1.1-0.1-2.3-0.4-3.4
			c-0.1-0.4,0.2-0.8,0.6-0.9c0.4-0.1,0.8,0.2,0.9,0.6c0.3,1.2,0.4,2.5,0.4,3.7c0,1.9-0.3,3.8-1,5.6C23.2,38.8,23,39,22.7,39z"/>
		<path class="st8" d="M34,42.3c-0.2,0-0.5-0.1-0.6-0.3c-0.2-0.3-0.1-0.8,0.2-1c3.8-2.6,6.2-6.5,6.8-11.1c0.1-0.4,0.4-0.7,0.8-0.6
			c0.4,0.1,0.7,0.4,0.6,0.8c-0.7,5-3.3,9.3-7.4,12.2C34.3,42.3,34.1,42.3,34,42.3z"/>
		<path class="st8" d="M26.6,24.4c-0.1,0-0.2,0-0.3-0.1c-0.4-0.2-0.5-0.6-0.3-1c1.2-2.2,3.5-3.6,6-3.6c1.7,0,3.3,0.6,4.6,1.8
			c0.3,0.3,0.3,0.7,0,1.1c-0.3,0.3-0.7,0.3-1.1,0c-1-0.9-2.2-1.4-3.6-1.4c-2,0-3.8,1.1-4.7,2.8C27.2,24.3,26.9,24.4,26.6,24.4z"/>
		<path class="st8" d="M26.9,34.4c-0.4,0-0.7-0.3-0.7-0.7c0-2.1-0.3-4.2-0.9-6.3c-0.1-0.4,0.1-0.8,0.5-0.9c0.4-0.1,0.8,0.1,0.9,0.5
			c0.6,2.2,0.9,4.4,0.9,6.7C27.7,34.1,27.3,34.4,26.9,34.4C26.9,34.4,26.9,34.4,26.9,34.4z"/>
		<path class="st8" d="M25.5,40.8c-0.1,0-0.2,0-0.3-0.1c-0.4-0.2-0.5-0.6-0.4-1c0.5-1.1,0.8-2.2,1-3.4c0.1-0.4,0.4-0.7,0.9-0.6
			c0.4,0.1,0.7,0.4,0.6,0.9c-0.2,1.3-0.6,2.5-1.1,3.7C26,40.6,25.8,40.8,25.5,40.8z"/>
		<path class="st8" d="M38.7,31.1C38.6,31.1,38.6,31.1,38.7,31.1c-0.5,0-0.8-0.4-0.7-0.8c0.1-1.8-0.1-3.5-0.7-5.1
			c-0.1-0.4,0.1-0.8,0.5-0.9c0.4-0.1,0.8,0.1,0.9,0.5c0.6,1.8,0.9,3.7,0.8,5.7C39.4,30.8,39.1,31.1,38.7,31.1z"/>
		<path class="st8" d="M28.1,41.7c-0.1,0-0.2,0-0.3-0.1c-0.4-0.2-0.5-0.6-0.4-1c0.4-0.8,0.6-1.6,0.9-2.4c0.1-0.4,0.5-0.6,0.9-0.5
			c0.4,0.1,0.6,0.5,0.5,0.9c-0.3,0.9-0.6,1.8-1,2.6C28.7,41.6,28.4,41.7,28.1,41.7z"/>
		<path class="st8" d="M29.5,36.9c0,0-0.1,0-0.1,0c-0.4-0.1-0.7-0.4-0.6-0.8c0.2-1.2,0.2-2.4,0.2-3.5c0-0.6-0.1-1.1-0.2-1.7
			c-0.1-0.4,0.2-0.8,0.6-0.9c0.4-0.1,0.8,0.2,0.9,0.6c0.1,0.6,0.2,1.2,0.2,1.8c0.1,1.3,0,2.6-0.2,3.9C30.2,36.6,29.9,36.9,29.5,36.9
			z"/>
		<path class="st8" d="M36.1,32c-0.4,0-0.7-0.3-0.7-0.7c0-2.5-0.7-7.2-3.3-7.2c-1.3,0-2.4,1.1-2.4,2.4c0,0,0,0.1,0,0.1
			c0,0.4-0.3,0.8-0.7,0.8c-0.4,0-0.8-0.3-0.8-0.7c0-0.1,0-0.1,0-0.2c0-2.1,1.7-3.9,3.9-3.9c3.5,0,4.8,4.7,4.8,8.7
			C36.8,31.7,36.5,32,36.1,32z"/>
		<path class="st8" d="M34.6,38.7c-0.1,0-0.2,0-0.3-0.1c-0.4-0.2-0.5-0.6-0.4-1c0.6-1.3,1-2.6,1.2-4c0.1-0.4,0.4-0.7,0.8-0.6
			c0.4,0.1,0.7,0.4,0.6,0.8c-0.2,1.5-0.7,3-1.3,4.3C35.2,38.6,34.9,38.7,34.6,38.7z"/>
	</g>
	<path class="st9" d="M58.9,31.6l-8.6,8.6l-3.1-3.1c-0.9-0.9-2.3-0.9-3.2,0c-0.9,0.9-0.9,2.3,0,3.2l4.6,4.6c0.5,0.5,1,0.7,1.6,0.7
		c0.6,0,1.1-0.2,1.6-0.7l10.2-10.2c0.9-0.9,0.9-2.3,0-3.2C61.2,30.7,59.8,30.8,58.9,31.6z"/>
	<g>
		<polygon class="st8" points="118.2,103.6 100.4,103.6 100.4,101.8 116.4,101.8 116.4,67.5 100.4,67.5 100.4,65.7 118.2,65.7 		"/>
	</g>
</g>
</svg>
