<?xml version="1.0" encoding="utf-8"?>
<!-- Generator: Adobe Illustrator 22.0.1, SVG Export Plug-In . SVG Version: 6.00 Build 0)  -->
<svg version="1.1" id="Layer_1" xmlns="http://www.w3.org/2000/svg" xmlns:xlink="http://www.w3.org/1999/xlink" x="0px" y="0px"
	 viewBox="0 0 126 116" style="enable-background:new 0 0 126 116;" xml:space="preserve">
<style type="text/css">
	.st0{fill:url(#SVGID_1_);}
	.st1{fill:none;stroke:#0459A2;stroke-miterlimit:10;}
	.st2{fill:#FF0013;}
	.st3{fill:#0B4A99;}
	.st4{fill:#CD1618;}
	.st5{fill:#DB9821;}
	.st6{fill:#40875E;}
	.st7{fill:#918831;}
	.st8{fill:#F0AB00;}
	.st9{fill:#A8A240;}
	.st10{fill:none;}
	.st11{fill:#0071C5;}
	.st12{fill:#EFAA1E;}
	.st13{fill:none;stroke:#000000;stroke-width:0.5;stroke-miterlimit:10;}
	.st14{fill:#A69F3D;}
	.st15{fill:#231F20;}
	.st16{fill-rule:evenodd;clip-rule:evenodd;fill:#A69F3D;}
	.st17{fill-rule:evenodd;clip-rule:evenodd;fill:#F0AB00;}
	.st18{fill-rule:evenodd;clip-rule:evenodd;fill:#A8A240;}
	.st19{fill-rule:evenodd;clip-rule:evenodd;fill:#40875E;}
	.st20{fill-rule:evenodd;clip-rule:evenodd;fill:#0B4A99;}
	.st21{fill:#FFFFFF;}
	.st22{fill:#0057A2;}
</style>
<g>
	<path class="st9" d="M82.5,88.2c-7.4,0-13.4,6-13.4,13.4c0,7.4,6,13.4,13.4,13.4c7.4,0,13.4-6,13.4-13.4H82.5V88.2z"/>
	<path class="st8" d="M100,99.5H84.6V84.2h1c7.9,0,14.4,6.5,14.4,14.4V99.5z M86.5,97.6H98c-0.5-6.1-5.4-11-11.4-11.4V97.6z"/>
	<path class="st8" d="M115.9,63.2h-2.3c-0.3,0-0.5-0.2-0.6-0.5c-0.2-0.8-0.6-1.7-1-2.4c-0.1-0.2-0.1-0.5,0.1-0.7l1.6-1.6
		c0.2-0.2,0.2-0.6,0-0.9l-2.8-2.8c-0.2-0.2-0.6-0.2-0.9,0l-1.6,1.6c-0.2,0.2-0.5,0.2-0.7,0.1c-0.8-0.4-1.6-0.8-2.4-1
		c-0.3-0.1-0.5-0.3-0.5-0.6v-2.3c0-0.3-0.3-0.6-0.6-0.6h-4c-0.3,0-0.6,0.3-0.6,0.6v2.3c0,0.3-0.2,0.5-0.5,0.6
		c-0.8,0.2-1.7,0.6-2.4,1c-0.2,0.1-0.5,0.1-0.7-0.1l-1.6-1.6c-0.2-0.2-0.6-0.2-0.9,0l-2.8,2.8c-0.2,0.2-0.2,0.6,0,0.9l1.6,1.6
		c0.2,0.2,0.2,0.5,0.1,0.7c-0.4,0.8-0.8,1.6-1,2.4c-0.1,0.3-0.3,0.5-0.6,0.5h-2.3c-0.3,0-0.6,0.3-0.6,0.6v4c0,0.3,0.3,0.6,0.6,0.6
		h2.3c0.3,0,0.5,0.2,0.6,0.5c0.2,0.8,0.6,1.6,1,2.4c0.1,0.2,0.1,0.5-0.1,0.7l-1.6,1.6c-0.2,0.2-0.2,0.6,0,0.9l2.8,2.8
		c0.2,0.2,0.6,0.2,0.9,0l1.6-1.6c0.2-0.2,0.5-0.2,0.7-0.1c0.8,0.4,1.6,0.8,2.4,1c0.3,0.1,0.5,0.3,0.5,0.6v2.3c0,0.3,0.3,0.6,0.6,0.6
		h4c0.3,0,0.6-0.3,0.6-0.6v-2.3c0-0.3,0.2-0.5,0.5-0.6c0.8-0.2,1.7-0.6,2.4-1c0.2-0.1,0.5-0.1,0.7,0.1l1.6,1.6
		c0.2,0.2,0.6,0.2,0.9,0l2.8-2.8c0.2-0.2,0.2-0.6,0-0.9l-1.6-1.6c-0.2-0.2-0.2-0.5-0.1-0.7c0.4-0.8,0.8-1.6,1-2.4
		c0.1-0.3,0.3-0.5,0.6-0.5h2.3c0.3,0,0.6-0.3,0.6-0.6v-4C116.5,63.4,116.3,63.2,115.9,63.2 M102.2,71.6c-3.2,0-5.9-2.6-5.9-5.9
		c0-3.2,2.6-5.9,5.9-5.9c3.2,0,5.9,2.6,5.9,5.9C108.1,69,105.4,71.6,102.2,71.6"/>
	<path class="st9" d="M89.4,51.3H88c-0.2,0-0.3-0.1-0.3-0.3c-0.1-0.5-0.3-1-0.6-1.4c-0.1-0.1-0.1-0.3,0.1-0.4l1-1
		c0.1-0.1,0.1-0.4,0-0.5L86.4,46c-0.1-0.1-0.4-0.1-0.5,0l-1,1c-0.1,0.1-0.3,0.1-0.4,0.1c-0.4-0.2-0.9-0.4-1.4-0.6
		c-0.2,0-0.3-0.2-0.3-0.3v-1.4c0-0.2-0.2-0.4-0.4-0.4h-2.4c-0.2,0-0.4,0.2-0.4,0.4v1.4c0,0.2-0.1,0.3-0.3,0.3
		c-0.5,0.1-1,0.3-1.4,0.6c-0.1,0.1-0.3,0.1-0.4-0.1l-1-1c-0.1-0.1-0.4-0.1-0.5,0l-1.7,1.7c-0.1,0.1-0.1,0.4,0,0.5l1,1
		c0.1,0.1,0.1,0.3,0.1,0.4c-0.3,0.4-0.4,0.9-0.6,1.4c0,0.2-0.2,0.3-0.3,0.3h-1.4c-0.2,0-0.4,0.2-0.4,0.4v2.4c0,0.2,0.2,0.4,0.4,0.4
		h1.4c0.2,0,0.3,0.1,0.3,0.3c0.1,0.5,0.3,1,0.6,1.4c0.1,0.1,0.1,0.3-0.1,0.4l-1,1c-0.1,0.1-0.1,0.4,0,0.5l1.7,1.7
		c0.1,0.1,0.4,0.1,0.5,0l1-1c0.1-0.1,0.3-0.1,0.4-0.1c0.4,0.2,0.9,0.4,1.4,0.6c0.2,0,0.3,0.2,0.3,0.3V61c0,0.2,0.2,0.4,0.4,0.4h2.4
		c0.2,0,0.4-0.2,0.4-0.4v-1.4c0-0.2,0.1-0.3,0.3-0.3c0.5-0.1,1-0.3,1.4-0.6c0.1-0.1,0.3-0.1,0.4,0.1l1,1c0.1,0.1,0.4,0.1,0.5,0
		l1.7-1.7c0.1-0.1,0.1-0.4,0-0.5l-1-1c-0.1-0.1-0.1-0.3-0.1-0.4c0.2-0.4,0.4-0.9,0.6-1.4c0-0.2,0.2-0.3,0.3-0.3h1.4
		c0.2,0,0.4-0.2,0.4-0.4v-2.4C89.8,51.5,89.6,51.3,89.4,51.3 M81.3,56.3c-1.9,0-3.5-1.6-3.5-3.5c0-1.9,1.6-3.5,3.5-3.5
		c1.9,0,3.5,1.6,3.5,3.5C84.8,54.8,83.2,56.3,81.3,56.3"/>
	<path class="st6" d="M87.4,70.6h-1.8c-0.2,0-0.4-0.1-0.4-0.3c-0.2-0.6-0.4-1.3-0.8-1.8c-0.1-0.2-0.1-0.4,0.1-0.6l1.2-1.2
		c0.2-0.2,0.2-0.5,0-0.7l-2.2-2.2c-0.2-0.2-0.5-0.2-0.7,0L81.7,65c-0.1,0.1-0.4,0.2-0.6,0.1c-0.6-0.3-1.2-0.6-1.8-0.8
		c-0.2-0.1-0.3-0.2-0.3-0.4v-1.8c0-0.3-0.2-0.5-0.5-0.5h-3.1c-0.3,0-0.5,0.2-0.5,0.5v1.8c0,0.2-0.1,0.4-0.3,0.4
		c-0.6,0.2-1.3,0.4-1.8,0.8c-0.2,0.1-0.4,0.1-0.6-0.1l-1.2-1.2c-0.2-0.2-0.5-0.2-0.7,0l-2.2,2.2c-0.2,0.2-0.2,0.5,0,0.7l1.3,1.3
		c0.1,0.1,0.2,0.4,0.1,0.6c-0.3,0.6-0.6,1.2-0.8,1.8c-0.1,0.2-0.2,0.3-0.4,0.3h-1.8c-0.3,0-0.5,0.2-0.5,0.5v3.1
		c0,0.3,0.2,0.5,0.5,0.5h1.8c0.2,0,0.4,0.1,0.4,0.3c0.2,0.6,0.4,1.3,0.8,1.8c0.1,0.2,0.1,0.4-0.1,0.6l-1.2,1.2
		c-0.2,0.2-0.2,0.5,0,0.7l2.2,2.2c0.2,0.2,0.5,0.2,0.7,0l1.2-1.2c0.1-0.1,0.4-0.2,0.6-0.1c0.6,0.3,1.2,0.6,1.8,0.8
		c0.2,0.1,0.3,0.2,0.3,0.4V83c0,0.3,0.2,0.5,0.5,0.5h3.1c0.3,0,0.5-0.2,0.5-0.5v-1.8c0-0.2,0.1-0.4,0.3-0.4c0.6-0.2,1.3-0.4,1.8-0.8
		c0.2-0.1,0.4-0.1,0.6,0.1l1.2,1.2c0.2,0.2,0.5,0.2,0.7,0l2.2-2.2c0.2-0.2,0.2-0.5,0-0.7l-1.2-1.2c-0.1-0.1-0.2-0.4-0.1-0.6
		c0.3-0.6,0.6-1.2,0.8-1.8c0.1-0.2,0.2-0.3,0.4-0.3h1.8c0.3,0,0.5-0.2,0.5-0.5V71C87.9,70.8,87.7,70.6,87.4,70.6 M77,77
		c-2.5,0-4.5-2-4.5-4.5c0-2.5,2-4.5,4.5-4.5c2.5,0,4.5,2,4.5,4.5C81.5,75,79.5,77,77,77"/>
	<polygon points="106.4,48.1 105.3,48.1 105.3,2.2 23.4,2.2 23.4,32.7 22.3,32.7 22.3,1 106.4,1 	"/>
	<path class="st6" d="M38.9,37c13.4,0,24.2,4.2,24.2,9.5v13.9c0,5.2-10.8,9.5-24.2,9.5c-13.4,0-24.2-4.2-24.2-9.5V46.5
		C14.7,41.3,25.5,37,38.9,37z"/>
	<path class="st9" d="M38.9,74c12.8,0,23.2-3.9,24.1-8.8c0,0.2,0.1,0.5,0.1,0.7v13.9c0,5.2-10.8,9.5-24.2,9.5
		c-13.4,0-24.2-4.3-24.2-9.5V65.8c0-0.2,0-0.4,0.1-0.7C15.7,70.1,26.1,74,38.9,74z"/>
	<path class="st8" d="M38.9,93.6c12.8,0,23.2-3.9,24.1-8.8c0,0.2,0.1,0.4,0.1,0.7v13.9c0,5.2-10.8,9.5-24.2,9.5
		c-13.4,0-24.2-4.2-24.2-9.5V85.5c0-0.2,0-0.4,0.1-0.7C15.7,89.7,26.1,93.6,38.9,93.6z"/>
	<path d="M91,17.5H38.9c-0.3,0-0.6-0.2-0.6-0.6s0.2-0.6,0.6-0.6H91c0.3,0,0.6,0.2,0.6,0.6S91.3,17.5,91,17.5z"/>
	<path d="M91,29.2H53.6c-0.3,0-0.6-0.2-0.6-0.6s0.2-0.6,0.6-0.6H91c0.3,0,0.6,0.2,0.6,0.6S91.3,29.2,91,29.2z"/>
</g>
</svg>
