<?xml version="1.0" encoding="utf-8"?>
<!-- Generator: Adobe Illustrator 22.0.1, SVG Export Plug-In . SVG Version: 6.00 Build 0)  -->
<svg version="1.1" id="Layer_1" xmlns="http://www.w3.org/2000/svg" xmlns:xlink="http://www.w3.org/1999/xlink" x="0px" y="0px"
	 viewBox="0 0 720 400" style="enable-background:new 0 0 720 400;" xml:space="preserve">
<style type="text/css">
	.st0{fill:#40875E;}
	.st1{fill:#F0AB00;}
	.st2{fill:#A8A240;}
	.st3{fill:none;stroke:#000000;stroke-miterlimit:10;}
	.st4{fill:#FFFFFF;stroke:#FFFFFF;stroke-miterlimit:10;}
	.st5{fill:none;stroke:#939598;stroke-width:0.5;stroke-miterlimit:10;}
	.st6{fill:none;stroke:#939598;stroke-miterlimit:10;}
	.st7{fill:none;stroke:#231F20;stroke-width:2;stroke-miterlimit:10;}
	.st8{fill:#231F20;}
	.st9{opacity:0.9;fill:#40875E;stroke:#000000;stroke-width:2;stroke-miterlimit:10;}
	.st10{opacity:0.9;fill:#A8A240;stroke:#000000;stroke-width:2;stroke-miterlimit:10;}
	.st11{opacity:0.9;fill:#F0AB00;stroke:#000000;stroke-width:2;stroke-miterlimit:10;}
	.st12{fill:#414042;}
	.st13{fill:#E6E7E8;stroke:#000000;stroke-miterlimit:10;}
	.st14{fill:#00AEEF;}
	.st15{opacity:0.3;fill:none;stroke:#414042;stroke-miterlimit:10;}
	.st16{font-family:'Nunito-SemiBold';}
	.st17{font-size:17.8363px;}
	.st18{fill:none;stroke:#414042;stroke-miterlimit:10;}
	.st19{fill:#FFFFFF;}
	.st20{font-size:11.3676px;}
	.st21{font-size:25.6559px;}
</style>
<path class="st0" d="M187.2,92.1C110.9,94.4,49.7,157,49.7,233.9c0,20.9,4.5,40.7,12.6,58.6l127.9-39.8L187.2,92.1z"/>
<path class="st1" d="M323.1,181.1c-20.9-52.2-72-89-131.6-89c-1.4,0-2.8,0-4.2,0.1l4,163.5L323.1,181.1z"/>
<path class="st2" d="M323.1,181.1l-132.9,71.5L62.3,292.4c21.7,47.9,69.3,81.5,124.9,83.1c1.4,0,2.8,0.1,4.2,0.1
	c78.3,0,141.8-63.5,141.8-141.8C333.2,215.2,329.6,197.4,323.1,181.1z"/>
<rect class="st3" width="720" height="400"/>
<rect x="452.2" y="208" class="st0" width="14" height="14"/>
<rect x="452.2" y="237" class="st2" width="14" height="14"/>
<rect x="452.2" y="266" class="st1" width="14" height="14"/>
<text transform="matrix(0.9935 0 0 1 480.1612 219.307)"><tspan x="0" y="0" class="st16 st17">S -  High </tspan><tspan x="0" y="30" class="st16 st17">D-  Medium </tspan><tspan x="0" y="60" class="st16 st17">E -  Low </tspan></text>
<rect x="86" y="185.5" class="st8" width="64.7" height="30.1"/>
<text transform="matrix(1 0 0 1 98.7467 198.5472)"><tspan x="0" y="0" class="st19 st16 st20">S: 25%</tspan><tspan x="-7.5" y="13.6" class="st19 st16 st20">3.5 MSAR</tspan></text>
<rect x="208.3" y="144.5" class="st8" width="64.7" height="30.1"/>
<text transform="matrix(1 0 0 1 221.2764 157.5869)"><tspan x="0" y="0" class="st19 st16 st20">E: 15%</tspan><tspan x="-7.8" y="13.6" class="st19 st16 st20">1.6 MSAR</tspan></text>
<rect x="173.7" y="283" class="st8" width="70.4" height="30.1"/>
<text transform="matrix(1 0 0 1 188.9918 296.0953)"><tspan x="0" y="0" class="st19 st16 st20">D: 60%</tspan><tspan x="-2.1" y="13.6" class="st19 st16 st20">9 MSAR</tspan></text>
<text transform="matrix(1 0 0 1 180.668 55.0025)" class="st16 st21">Inventory Consumption in SDE</text>
</svg>
