<?xml version="1.0" encoding="utf-8"?>
<!-- Generator: Adobe Illustrator 22.0.1, SVG Export Plug-In . SVG Version: 6.00 Build 0)  -->
<svg version="1.1" id="Layer_1" xmlns="http://www.w3.org/2000/svg" xmlns:xlink="http://www.w3.org/1999/xlink" x="0px" y="0px"
	 viewBox="0 0 126 116" style="enable-background:new 0 0 126 116;" xml:space="preserve">
<style type="text/css">
	.st0{fill:url(#SVGID_1_);}
	.st1{fill:none;stroke:#0459A2;stroke-miterlimit:10;}
	.st2{fill:#FF0013;}
	.st3{fill:#0B4A99;}
	.st4{fill:#CD1618;}
	.st5{fill:#DB9821;}
	.st6{fill:#40875E;}
	.st7{fill:#918831;}
	.st8{fill:#F0AB00;}
	.st9{fill:#A8A240;}
	.st10{fill:none;}
	.st11{fill:#0071C5;}
	.st12{fill:#EFAA1E;}
	.st13{fill:none;stroke:#000000;stroke-width:0.5;stroke-miterlimit:10;}
	.st14{fill:#A69F3D;}
	.st15{fill:#231F20;}
	.st16{fill-rule:evenodd;clip-rule:evenodd;fill:#A69F3D;}
	.st17{fill-rule:evenodd;clip-rule:evenodd;fill:#F0AB00;}
	.st18{fill-rule:evenodd;clip-rule:evenodd;fill:#A8A240;}
	.st19{fill-rule:evenodd;clip-rule:evenodd;fill:#40875E;}
	.st20{fill-rule:evenodd;clip-rule:evenodd;fill:#0B4A99;}
	.st21{fill:#FFFFFF;}
	.st22{fill:#0057A2;}
</style>
<g>
	<g>
		<path class="st14" d="M37.2,10.2v3.5c1.2,0.1,2.3,0.4,3.2,0.8c0.9,0.4,1.7,1,2.3,1.8c0.5,0.6,0.9,1.2,1.2,1.8
			c0.3,0.6,0.4,1.2,0.4,1.7c0,0.6-0.2,1.1-0.6,1.5c-0.4,0.4-0.9,0.6-1.6,0.6c-1.1,0-1.9-0.6-2.2-1.9c-0.4-1.5-1.3-2.4-2.8-2.9v7.3
			c1.4,0.4,2.6,0.8,3.5,1.1c0.9,0.3,1.6,0.8,2.3,1.4c0.7,0.6,1.3,1.4,1.7,2.3c0.4,0.9,0.6,1.9,0.6,2.9c0,1.3-0.3,2.6-0.9,3.7
			c-0.6,1.2-1.5,2.1-2.8,2.8c-1.2,0.7-2.7,1.2-4.3,1.3v2.8c0,0.7-0.1,1.2-0.2,1.5c-0.1,0.3-0.4,0.5-0.9,0.5c-0.4,0-0.7-0.1-0.9-0.4
			C35,44.2,35,43.8,35,43.3v-3.1c-1.4-0.1-2.6-0.5-3.6-1c-1-0.5-1.9-1.1-2.6-1.8c-0.7-0.7-1.2-1.5-1.5-2.3c-0.3-0.8-0.5-1.6-0.5-2.3
			c0-0.6,0.2-1.1,0.7-1.5c0.4-0.4,1-0.7,1.6-0.7c0.5,0,1,0.1,1.3,0.4c0.4,0.2,0.6,0.6,0.8,1c0.3,1,0.6,1.7,0.8,2.2
			c0.2,0.5,0.6,1,1.1,1.4c0.5,0.4,1.1,0.7,1.9,1v-8.1c-1.6-0.4-2.9-0.9-3.9-1.4c-1.1-0.5-1.9-1.3-2.6-2.3c-0.7-1-1-2.2-1-3.8
			c0-2,0.6-3.7,1.9-4.9c1.3-1.3,3.1-2,5.5-2.2v-3.4c0-1,0.4-1.5,1.1-1.5C36.8,8.8,37.2,9.3,37.2,10.2z M34.9,23.8v-6.7
			c-1,0.3-1.7,0.7-2.3,1.2c-0.5,0.5-0.8,1.2-0.8,2.2c0,0.9,0.3,1.6,0.8,2.1C33.1,23,33.9,23.5,34.9,23.8z M37.2,29v7.7
			c1.2-0.2,2.1-0.7,2.7-1.4c0.6-0.7,1-1.5,1-2.5c0-1-0.3-1.8-0.9-2.4C39.3,29.9,38.4,29.4,37.2,29z"/>
	</g>
	<polygon class="st8" points="52.5,82.4 59.8,75.1 64.6,79.9 64.6,102.2 52.5,102.2 	"/>
	<polygon class="st8" points="36,96.6 48.1,85.3 48.1,102.2 36,102.2 	"/>
	<polygon class="st8" points="68.5,81.8 81.5,69.9 81.5,102.2 68.5,102.2 	"/>
	<polygon class="st8" points="85.1,66.3 97.7,54.5 97.7,102.2 85.1,102.2 	"/>
	<path class="st14" d="M94.5,45.4c-1.7,0-3.1,1.4-3.1,3.1c0,0.8,0.3,1.5,0.7,2L70.4,71.5c-0.6-0.7-1.4-1.1-2.3-1.1
		c-0.7,0-1.4,0.3-1.9,0.7l-3.3-3.3c0.4-0.5,0.6-1.1,0.6-1.8c0-1.7-1.4-3.1-3.1-3.1c-1.7,0-3.1,1.4-3.1,3.1c0,0.7,0.2,1.3,0.6,1.8
		L35.6,88c-0.5-0.3-1.1-0.5-1.7-0.5c-1.7,0-3.1,1.4-3.1,3.1c0,1.7,1.4,3.1,3.1,3.1c1.7,0,3.1-1.4,3.1-3.1c0-0.7-0.3-1.4-0.7-1.9
		l22.3-20.2c0.5,0.4,1.1,0.6,1.8,0.6c0.7,0,1.3-0.2,1.8-0.6l3.3,3.3c-0.3,0.5-0.5,1.1-0.5,1.7c0,1.7,1.4,3.1,3.1,3.1
		c1.7,0,3.1-1.4,3.1-3.1c0-0.4-0.1-0.8-0.2-1.2l22-21.2c0.5,0.3,1,0.5,1.6,0.5c1.7,0,3.1-1.4,3.1-3.1C97.6,46.8,96.2,45.4,94.5,45.4
		z"/>
	<path class="st6" d="M110,107.7L87.8,89.9c2.1-2.9,3.3-6.4,3.3-10.3c0-9.8-7.9-17.7-17.7-17.7c-9.8,0-17.7,7.9-17.7,17.7
		c0,9.8,7.9,17.7,17.7,17.7c4,0,7.8-1.4,10.7-3.6l19.5,20.8c1.5,1.6,4.3,1.4,6.2-0.6C111.7,111.9,111.7,109.1,110,107.7z M73.4,93.1
		c-7.5,0-13.5-6.1-13.5-13.5c0-7.5,6.1-13.5,13.5-13.5C80.9,66,87,72.1,87,79.6C87,87,80.9,93.1,73.4,93.1z"/>
	<path d="M21.3,88.5h-6.5v-88h39.2c0.9,0,1.8,0.3,2.5,0.8l19.1,14.8c1,0.8,1.6,2,1.6,3.3v29.1h-0.7V19.4c0-1.1-0.5-2.1-1.4-2.8
		L55.9,1.9c-0.6-0.4-1.3-0.7-2-0.7H15.5v86.5h5.8V88.5z"/>
	<rect x="27.2" y="51.5" width="38.5" height="0.7"/>
	<rect x="27.2" y="65.7" width="24" height="0.7"/>
</g>
</svg>
