<?xml version="1.0" encoding="utf-8"?>
<!-- Generator: Adobe Illustrator 22.0.1, SVG Export Plug-In . SVG Version: 6.00 Build 0)  -->
<svg version="1.1" id="Layer_1" xmlns="http://www.w3.org/2000/svg" xmlns:xlink="http://www.w3.org/1999/xlink" x="0px" y="0px"
	 viewBox="0 0 750 400" style="enable-background:new 0 0 750 400;" xml:space="preserve">
<style type="text/css">
	.st0{fill:none;stroke:#FFFFFF;stroke-width:2;stroke-miterlimit:10;}
	.st1{fill:#40875E;}
	.st2{fill:#A8A240;}
	.st3{fill:#F0AB00;}
	.st4{fill:#939598;}
	.st5{fill:#C2C3C9;}
	.st6{fill:#FFFFFF;}
	.st7{fill:none;stroke:#000000;stroke-miterlimit:10;}
	.st8{fill-rule:evenodd;clip-rule:evenodd;fill:#0B4A99;}
	.st9{fill:#0B4A99;}
	.st10{fill-rule:evenodd;clip-rule:evenodd;fill:#A8A240;}
	.st11{fill-rule:evenodd;clip-rule:evenodd;fill:#40875E;}
	.st12{fill-rule:evenodd;clip-rule:evenodd;fill:#F0AB00;}
	.st13{fill:none;}
	.st14{fill:#3F865E;}
	.st15{fill:#A6A03C;}
	.st16{fill:#EEAA1F;}
	.st17{fill:#158ECE;}
</style>
<circle class="st0" cx="71.9" cy="248.3" r="60.3"/>
<circle class="st0" cx="205.4" cy="333.3" r="50.4"/>
<circle class="st0" cx="443.6" cy="129.6" r="46.5"/>
<circle class="st0" cx="665.1" cy="248.3" r="59.3"/>
<circle class="st0" cx="433.8" cy="281.9" r="65.3"/>
<circle class="st0" cx="276.5" cy="160.3" r="76.1"/>
<circle class="st1" cx="366.5" cy="29.8" r="19.8"/>
<circle class="st2" cx="172.7" cy="243.3" r="13.8"/>
<circle class="st1" cx="133.2" cy="151.4" r="6.9"/>
<circle class="st3" cx="320" cy="277" r="9.9"/>
<circle class="st2" cx="391.2" cy="186" r="6.9"/>
<circle class="st0" cx="541.5" cy="189" r="30.7"/>
<circle class="st3" cx="600.8" cy="166.2" r="8.9"/>
<circle class="st1" cx="579.1" cy="275" r="4"/>
<circle class="st2" cx="343.8" cy="383.7" r="4"/>
<circle class="st3" cx="146" cy="386.7" r="4"/>
<path class="st1" d="M436.5,313.3c-5.3,0-10.4,0-15.5,0c-5.5,0-11.1,0-16.6,0c-5.7,0-8.8-3.2-8.8-8.8c0-15.7,0-31.5,0-47.2
	c0-5.6,3.1-8.7,8.7-8.8c2.4,0,4.8,0,7.4,0c0-0.9,0-1.5,0-2.1c0-2,1-3.3,2.6-3.3c1.6,0,2.6,1.2,2.7,3.2c0,2.3,0,4.7,0,7
	c0,1.4-0.4,2.7-2,3c-1.6,0.3-2.5-0.4-3.2-2.2c-0.1-0.1-0.1-0.3-0.3-0.5c-2.7,0-5.3-0.1-8,0c-1.5,0-2.5,1-2.6,2.6
	c-0.1,1.9,0,3.8,0,5.8c19.9,0,39.8,0,59.8,0c0-2,0.1-4,0-5.9c-0.1-1.5-1.1-2.4-2.7-2.5c-1.3-0.1-2.5,0-3.9,0c0-1.8,0-3.3,0-4.8
	c6.9-1.2,12,1.8,11.9,8.9c-0.1,8.4,0,16.7,0,25.3c-1.8-0.4-3.4-0.8-5.2-1.2c0-5,0-10,0-15.2c-20,0-39.8,0-59.8,0
	c0,0.6-0.1,1.1-0.1,1.7c0,12,0,24,0,36c0,3.1,0.9,4,4,4c9.5,0,19,0,28.5,0c1.3,0,2.1,0.3,2.2,1.7C435.6,310.9,436.1,312,436.5,313.3
	z"/>
<path class="st3" d="M478.8,296.6c-0.8,2.2-1.6,4.3-2.5,6.8c-2.2-1.4-4.2-2.7-6.5-4.2c0.9-0.4,1.7-0.8,2.6-1.2
	c-0.4-0.7-0.6-1.4-1-2.1c-3.3-5.4-10.4-8.5-16.7-7.2c-6.6,1.4-11.7,6.8-12.8,13.2c-1.3,7.3,3.1,15.5,10.9,18.1
	c7.7,2.5,15.8-0.9,19.6-8.2c0.1-0.2,0.2-0.4,0.3-0.6c0.5-1.1,1.4-1.5,2.5-1c1.1,0.5,1.2,1.5,0.7,2.5c-2.2,4.7-5.6,8.2-10.5,10.1
	c-12,4.8-25-2.4-26.9-15.2c-1.7-11.1,5.4-20.4,16-22.3c8.1-1.5,16.2,2.2,20.4,9.4c0.9,1.6,1.7,2.8,3.8,1.4
	C478.7,296.2,478.8,296.4,478.8,296.6z"/>
<path class="st1" d="M444.4,253.5c-7.6,0-15.2,0-22.8,0c0-1.6,0-3.2,0-5c7.6,0,15.2,0,23,0c0-1.2,0-2.1,0-2.9c0.1-1.5,1-2.4,2.4-2.6
	c1.2-0.2,2.6,0.8,2.7,2.2c0.2,2.9,0.2,5.9,0,8.9c-0.1,1.4-1.1,2.2-2.5,2.2C445.5,256.3,444.8,255.2,444.4,253.5z"/>
<path class="st2" d="M430.7,276.5c1.3,0,2.6,0,3.8,0c1.4-0.1,2.1,0.7,2.1,2c0.1,1.5,0.1,3,0,4.5c0,1.3-0.7,2.1-2.1,2.1
	c-2.5,0-5,0-7.5,0c-1.5,0-2.1-0.7-2.1-2.2c0-1.5,0-3,0-4.5c0-1.3,0.6-2,1.9-1.9C428.1,276.5,429.4,276.5,430.7,276.5
	C430.7,276.5,430.7,276.5,430.7,276.5z"/>
<path class="st2" d="M412.8,276.5c1.3,0,2.6,0,3.8,0c1.2,0,1.9,0.5,1.9,1.8c0,1.7,0,3.3,0,5c0,1.2-0.6,1.8-1.7,1.8c-2.7,0-5.4,0-8,0
	c-1.1,0-1.7-0.5-1.7-1.6c0-1.8,0-3.6,0-5.4c0-1.1,0.7-1.6,1.7-1.6C410.2,276.5,411.5,276.5,412.8,276.5
	C412.8,276.5,412.8,276.5,412.8,276.5z"/>
<path class="st2" d="M412.9,292.6c1.3,0,2.7,0,4,0c1.1,0,1.6,0.6,1.6,1.7c0,1.7,0,3.5,0,5.2c0,1.1-0.6,1.7-1.7,1.7
	c-2.7,0-5.5,0.1-8.2-0.1c-0.6,0-1.5-0.9-1.5-1.5c-0.2-1.8-0.1-3.6-0.1-5.3c0-1.2,0.7-1.7,1.8-1.7
	C410.3,292.5,411.6,292.5,412.9,292.6C412.9,292.5,412.9,292.6,412.9,292.6z"/>
<path class="st2" d="M454.4,305c0.1-0.2,0.1-0.7,0.3-1c1.9-2.3,1.6-5.1,1.7-7.8c0-0.7-0.1-1.4,0.2-2c0.3-0.5,1-1.4,1.3-1.3
	c0.6,0.2,1.3,0.9,1.4,1.4c0.3,1.9,0.2,3.9,0.5,5.8c0.1,1,0.6,1.9,1,2.9c0.1,0.3,0.4,0.5,0.4,0.7c0.2,2.9,2.5,4.3,4,6.4
	c0.4,0.5,0.7,1.2,0.6,1.8c-0.2,1-1.1,1.3-1.9,0.7c-0.9-0.6-1.7-1.3-2.5-1.9c-1.1-0.9-2.2-1.8-3.8-1.9
	C455.7,308.7,454.4,307,454.4,305z"/>
<path class="st2" d="M430.8,292.6c1.2,0,2.5,0,3.7,0c1.7,0.1,2.5,1.1,2.1,2.8c-0.4,1.5-0.8,3.1-1.4,4.6c-0.2,0.5-1,1.1-1.5,1.1
	c-2.2,0.1-4.5,0.1-6.7,0.1c-1.4,0-2.1-0.7-2-2.1c0-1.6,0-3.1,0-4.7c0-1.2,0.6-1.9,1.9-1.9C428.1,292.6,429.5,292.6,430.8,292.6z"/>
<path class="st2" d="M448.8,276.5c1.3,0,2.7,0,4,0c1.1,0,1.7,0.5,1.6,1.7c0,0.1,0,0.1,0,0.2c0.2,3.2,0.1,3.1-2.9,4
	c-1.8,0.6-3.5,1.4-5.2,2.2c-2.3,1.1-3.4,0.5-3.4-2c0-1.3,0-2.6,0-3.8c0-1.5,0.6-2.3,2.2-2.2C446.3,276.5,447.6,276.5,448.8,276.5
	C448.8,276.5,448.8,276.5,448.8,276.5z"/>
<polygon class="st1" points="274.4,110.1 229.4,131.6 250,141.9 250,141.6 289.2,119.6 299.7,124.7 260.1,146.9 276.4,155.2 
	276.4,155.2 260,147 259.5,147.2 258.9,162.2 250,157.9 250,141.9 229.4,131.6 229.4,190 276.4,217.5 321.7,191.8 321.7,132.9 "/>
<rect x="672.2" y="239.2" class="st1" width="17.3" height="39.7"/>
<rect x="651.9" y="250.5" class="st2" width="17.3" height="28.4"/>
<rect x="631.5" y="260" class="st3" width="17.3" height="18.9"/>
<path class="st1" d="M665.6,215.3l5.6,2.7c-12,28.4-42.9,25.9-42.9,25.9c30,6.5,41.8-9.1,49.3-21.8l5.5,3.3l-2.8-16.4L665.6,215.3z"
	/>
<polygon class="st1" points="695.1,224.6 695.1,278.6 624.3,278.6 624.3,281.7 695.1,281.7 697.9,281.7 698.2,281.7 698.2,224.6 "/>
<rect x="47" y="255.5" class="st3" width="18.5" height="8.6"/>
<rect x="47" y="238.5" class="st3" width="18.5" height="8.6"/>
<path class="st1" d="M92.2,281.7c0,1.2-1,2.2-1.9,2.2H42.6c-1.3-0.2-1.9-1.2-1.9-2.2v-63.9c0-0.2,0-0.4,0-0.5c0.1-1,1.2-1.8,1.9-1.7
	h47.5c1.4,0.1,2,1.2,2,2.2v11c0.5-0.4,0.9-0.9,1.4-1.3l4.5-4.4v-6c0-0.1-0.1-0.5-0.1-0.8c-0.2-1.4-0.8-2.8-2-4
	c-1.2-1.3-2.6-2-3.9-2.4c-0.6-0.2-1.2-0.2-1.8-0.2H42.5c-0.3,0-0.6,0-0.8,0.1c-0.4,0.1-0.8,0.2-1.2,0.2c-0.3,0.1-0.6,0.2-0.8,0.3
	c-0.3,0.1-0.6,0.3-0.8,0.4c-2.1,1-3.6,3.5-3.9,5.2c-0.1,0.4-0.1,0.8-0.2,1.2v65.3c0,0.1,0.1,0.8,0.2,1.2c0.1,0.4,0.2,0.8,0.4,1.2
	c0.1,0.2,0.2,0.4,0.3,0.6c1,2.2,3.7,3.9,5.5,4.2c0.4,0.1,0.9,0.2,1.3,0.2h48c0.1,0,0.8-0.1,1.2-0.2c0.4-0.1,0.9-0.2,1.3-0.4
	c1-0.4,2.1-1,3.1-2.1c1-1.1,1.6-2.4,1.8-3.4c0.1-0.5,0.2-0.9,0.2-1.4v-29.1l-5.9,5.7V281.7z"/>
<polygon class="st2" points="116.9,220 113.4,216.4 93,236 76.8,251.7 83.9,258.9 92.2,250.9 92.2,250.9 98.1,245.2 98.1,245.2 
	100,243.3 120.4,223.6 "/>
<rect x="47" y="222.9" class="st3" width="37.1" height="8.6"/>
<rect x="47" y="269.9" class="st3" width="37.1" height="8.6"/>
<polygon class="st3" points="70.8,264.9 81.7,261.3 81.8,261.1 74.6,254 "/>
<path class="st1" d="M247.9,331.9h-3.8c-0.4,0-0.8-0.3-1-0.7c-0.4-1.4-0.9-2.7-1.6-3.9c-0.2-0.4-0.2-0.9,0.2-1.2l2.7-2.7
	c0.4-0.4,0.4-1,0-1.4l-4.6-4.6c-0.4-0.4-1-0.4-1.4,0l-2.7,2.7c-0.3,0.3-0.8,0.4-1.2,0.2c-1.2-0.7-2.5-1.2-3.9-1.6
	c-0.4-0.1-0.7-0.5-0.7-1v-3.8c0-0.5-0.4-1-1-1h-6.6c-0.5,0-1,0.4-1,1v3.8c0,0.4-0.3,0.8-0.7,1c-1.4,0.4-2.7,0.9-3.9,1.6
	c-0.4,0.2-0.9,0.2-1.2-0.2l-2.7-2.7c-0.4-0.4-1-0.4-1.4,0l-4.6,4.6c-0.4,0.4-0.4,1,0,1.4l2.7,2.7c0.3,0.3,0.4,0.8,0.2,1.2
	c-0.7,1.2-1.2,2.5-1.6,3.9c-0.1,0.4-0.5,0.7-1,0.7h-3.8c-0.5,0-1,0.4-1,1v6.6c0,0.5,0.4,1,1,1h3.8c0.4,0,0.8,0.3,1,0.7
	c0.4,1.4,0.9,2.7,1.6,3.9c0.2,0.4,0.2,0.9-0.2,1.2l-2.7,2.7c-0.4,0.4-0.4,1,0,1.4l4.6,4.6c0.4,0.4,1,0.4,1.4,0l2.7-2.7
	c0.3-0.3,0.8-0.4,1.2-0.2c1.2,0.7,2.5,1.2,3.9,1.6c0.4,0.1,0.7,0.5,0.7,1v3.8c0,0.5,0.4,1,1,1h6.6c0.5,0,1-0.4,1-1v-3.8
	c0-0.4,0.3-0.8,0.7-1c1.4-0.4,2.7-0.9,3.9-1.6c0.4-0.2,0.9-0.2,1.2,0.2l2.7,2.7c0.4,0.4,1,0.4,1.4,0l4.6-4.6c0.4-0.4,0.4-1,0-1.4
	l-2.7-2.7c-0.3-0.3-0.4-0.8-0.2-1.2c0.7-1.2,1.2-2.5,1.6-3.9c0.1-0.4,0.5-0.7,1-0.7h3.8c0.5,0,1-0.4,1-1v-6.6
	C248.9,332.4,248.4,331.9,247.9,331.9 M225.5,345.7c-5.3,0-9.5-4.3-9.5-9.5c0-5.3,4.3-9.6,9.5-9.6c5.3,0,9.6,4.3,9.6,9.6
	C235.1,341.5,230.8,345.7,225.5,345.7"/>
<path class="st3" d="M204.7,312.6h-2.2c-0.3,0-0.5-0.2-0.6-0.4c-0.2-0.8-0.6-1.6-1-2.3c-0.1-0.2-0.1-0.5,0.1-0.7l1.6-1.6
	c0.2-0.2,0.2-0.6,0-0.8l-2.8-2.7c-0.2-0.2-0.6-0.2-0.8,0l-1.6,1.6c-0.2,0.2-0.5,0.2-0.7,0.1c-0.7-0.4-1.5-0.7-2.3-1
	c-0.3-0.1-0.4-0.3-0.4-0.6v-2.2c0-0.3-0.3-0.6-0.6-0.6h-3.9c-0.3,0-0.6,0.3-0.6,0.6v2.2c0,0.3-0.2,0.5-0.4,0.6
	c-0.8,0.2-1.6,0.6-2.3,1c-0.2,0.1-0.5,0.1-0.7-0.1l-1.6-1.6c-0.2-0.2-0.6-0.2-0.8,0l-2.7,2.7c-0.2,0.2-0.2,0.6,0,0.8l1.6,1.6
	c0.2,0.2,0.2,0.5,0.1,0.7c-0.4,0.7-0.7,1.5-1,2.3c-0.1,0.3-0.3,0.4-0.6,0.4h-2.2c-0.3,0-0.6,0.3-0.6,0.6v3.9c0,0.3,0.3,0.6,0.6,0.6
	h2.2c0.3,0,0.5,0.2,0.6,0.4c0.2,0.8,0.6,1.6,1,2.3c0.1,0.2,0.1,0.5-0.1,0.7l-1.6,1.6c-0.2,0.2-0.2,0.6,0,0.8l2.7,2.8
	c0.2,0.2,0.6,0.2,0.8,0l1.6-1.6c0.2-0.2,0.5-0.2,0.7-0.1c0.7,0.4,1.5,0.7,2.3,1c0.3,0.1,0.4,0.3,0.4,0.6v2.2c0,0.3,0.3,0.6,0.6,0.6
	h3.9c0.3,0,0.6-0.3,0.6-0.6v-2.2c0-0.3,0.2-0.5,0.4-0.6c0.8-0.2,1.6-0.6,2.3-1c0.2-0.1,0.5-0.1,0.7,0.1l1.6,1.6
	c0.2,0.2,0.6,0.2,0.8,0l2.8-2.8c0.2-0.2,0.2-0.6,0-0.8l-1.6-1.6c-0.2-0.2-0.2-0.5-0.1-0.7c0.4-0.7,0.7-1.5,1-2.3
	c0.1-0.3,0.3-0.4,0.6-0.4h2.2c0.3,0,0.6-0.3,0.6-0.6v-3.9C205.3,312.9,205,312.6,204.7,312.6 M191.4,320.8c-3.1,0-5.7-2.5-5.7-5.7
	c0-3.1,2.5-5.7,5.7-5.7c3.1,0,5.7,2.5,5.7,5.7C197.1,318.3,194.6,320.8,191.4,320.8"/>
<path class="st2" d="M201.5,344h-2.9c-0.3,0-0.6-0.2-0.7-0.6c-0.3-1-0.7-2-1.2-3c-0.2-0.3-0.1-0.7,0.1-0.9l2-2
	c0.3-0.3,0.3-0.8,0-1.1l-3.5-3.5c-0.3-0.3-0.8-0.3-1.1,0l-2,2c-0.2,0.2-0.6,0.3-0.9,0.1c-0.9-0.5-1.9-0.9-3-1.2
	c-0.3-0.1-0.6-0.4-0.6-0.7v-2.9c0-0.4-0.3-0.8-0.8-0.8h-5c-0.4,0-0.8,0.3-0.8,0.8v2.9c0,0.3-0.2,0.6-0.6,0.7c-1,0.3-2,0.7-3,1.2
	c-0.3,0.2-0.7,0.1-0.9-0.1l-2-2c-0.3-0.3-0.8-0.3-1.1,0l-3.5,3.5c-0.3,0.3-0.3,0.8,0,1.1l2,2c0.2,0.2,0.3,0.6,0.1,0.9
	c-0.5,0.9-0.9,1.9-1.2,3c-0.1,0.3-0.4,0.6-0.7,0.6h-2.9c-0.4,0-0.8,0.3-0.8,0.8v5c0,0.4,0.3,0.8,0.8,0.8h2.9c0.3,0,0.6,0.2,0.7,0.6
	c0.3,1,0.7,2,1.2,3c0.2,0.3,0.1,0.7-0.1,0.9l-2,2c-0.3,0.3-0.3,0.8,0,1.1l3.5,3.5c0.3,0.3,0.8,0.3,1.1,0l2-2
	c0.2-0.2,0.6-0.3,0.9-0.1c0.9,0.5,1.9,0.9,3,1.2c0.3,0.1,0.6,0.4,0.6,0.7v2.9c0,0.4,0.3,0.8,0.8,0.8h5c0.4,0,0.8-0.3,0.8-0.8v-2.9
	c0-0.3,0.2-0.6,0.6-0.7c1-0.3,2-0.7,3-1.2c0.3-0.2,0.7-0.1,0.9,0.1l2,2c0.3,0.3,0.8,0.3,1.1,0l3.5-3.5c0.3-0.3,0.3-0.8,0-1.1l-2-2
	c-0.2-0.2-0.3-0.6-0.1-0.9c0.5-0.9,0.9-1.9,1.2-3c0.1-0.3,0.4-0.6,0.7-0.6h2.9c0.4,0,0.8-0.3,0.8-0.8v-5
	C202.2,344.3,201.9,344,201.5,344 M184.5,354.5c-4,0-7.3-3.2-7.3-7.3c0-4,3.3-7.3,7.3-7.3c4,0,7.3,3.3,7.3,7.3
	C191.8,351.2,188.5,354.5,184.5,354.5"/>
<path class="st2" d="M545.7,187.7c-0.4-0.1-0.8-0.3-1.2-0.4v-12.7c1,0.1,2,0.6,3,1.4c1.2,1,2,2.1,2.5,3.3h0.7c0.4-1.8,1-3.5,1.7-5.2
	c-0.7-0.4-1.9-0.9-3.4-1.3c-1.4-0.4-2.9-0.6-4.5-0.6v-3.8H542v4c-2.5,0.3-4.6,1.2-6.4,2.7c-2.2,1.9-3.3,4.5-3.3,7.9
	c0,4.5,2.9,7.5,8.6,9.2c0.4,0.1,0.8,0.2,1.2,0.4v13.2c-1.5-0.1-3-0.5-4.4-1.5c-1.5-1-2.7-2.3-3.6-3.9h-0.6c-0.1,0.9-0.4,1.8-0.7,2.7
	c-0.3,0.9-0.6,1.8-0.9,2.7c1.2,0.7,2.7,1.3,4.3,1.7c1.7,0.4,3.3,0.6,4.8,0.6c0.4,0,0.7,0,1.1,0v4.6h2.5v-5c2.1-0.4,3.9-1.3,5.5-2.5
	c2.9-2.1,4.3-5,4.3-8.7C554.3,192.5,551.5,189.5,545.7,187.7z M537.2,180.5c0-1.9,0.6-3.4,1.9-4.4c0.8-0.7,1.8-1.2,3-1.4v11.5
	C538.8,184.6,537.2,182.7,537.2,180.5z M547.3,203.9c-0.9,0.7-1.8,1.2-2.8,1.5v-11.9c3.3,1.5,5,3.4,5,5.7
	C549.4,201,548.7,202.6,547.3,203.9z"/>
<path class="st3" d="M439.8,128.2c-1.7,0-1.7,2.7,0,2.7h20.6c1.8,0,1.8-2.7,0-2.7H439.8z"/>
<path class="st3" d="M439.8,134.5c-1.7,0-1.7,2.7,0,2.7h20.6c1.8,0,1.8-2.7,0-2.7H439.8L439.8,134.5z"/>
<path class="st3" d="M439.8,140.4c-1.7,0-1.7,2.7,0,2.7h20.6c1.8,0,1.8-2.7,0-2.7H439.8L439.8,140.4z"/>
<path class="st3" d="M439.8,146.7c-1.7,0-1.7,2.7,0,2.7h20.6c1.8,0,1.8-2.7,0-2.7H439.8L439.8,146.7z"/>
<path class="st3" d="M440.2,152.7c-1.7,0-1.7,2.7,0,2.7h20.7c1.7,0,1.7-2.7,0-2.7H440.2L440.2,152.7z"/>
<path class="st1" d="M438,114.4l-7.2,6.9v43.1h38.6v-50.1H438z M434.1,123h5.5v-5.3H466v43.4h-31.9V123z"/>
<polygon class="st2" points="431.5,106.7 424.3,113.7 424.3,156.8 429.1,156.8 429.1,153.5 427.6,153.5 427.6,115.4 433.2,115.4 
	433.2,110.1 459.5,110.1 459.5,112.5 462.8,112.5 462.8,106.7 "/>
<polygon class="st2" points="417.4,106.7 417.4,149.9 422.2,149.9 422.2,146.5 420.8,146.5 420.8,108.4 426.3,108.4 426.3,103.1 
	452.7,103.1 452.7,105.5 456,105.5 456,99.7 424.6,99.7 "/>
</svg>
