<?xml version="1.0" encoding="utf-8"?>
<!-- Generator: Adobe Illustrator 22.0.1, SVG Export Plug-In . SVG Version: 6.00 Build 0)  -->
<svg version="1.1" id="Layer_1" xmlns="http://www.w3.org/2000/svg" xmlns:xlink="http://www.w3.org/1999/xlink" x="0px" y="0px"
	 viewBox="0 0 750 400" style="enable-background:new 0 0 750 400;" xml:space="preserve">
<style type="text/css">
	.st0{fill:none;stroke:#FFFFFF;stroke-width:2;stroke-miterlimit:10;}
	.st1{fill:#40875E;}
	.st2{fill:#A8A240;}
	.st3{fill:#F0AB00;}
	.st4{fill:#939598;}
	.st5{fill:#C2C3C9;}
	.st6{fill:#FFFFFF;}
	.st7{fill:none;stroke:#000000;stroke-miterlimit:10;}
	.st8{fill-rule:evenodd;clip-rule:evenodd;fill:#0B4A99;}
	.st9{fill:#0B4A99;}
	.st10{fill-rule:evenodd;clip-rule:evenodd;fill:#A8A240;}
	.st11{fill-rule:evenodd;clip-rule:evenodd;fill:#40875E;}
	.st12{fill-rule:evenodd;clip-rule:evenodd;fill:#F0AB00;}
	.st13{fill:none;}
	.st14{fill:#3F865E;}
	.st15{fill:#A6A03C;}
	.st16{fill:#EEAA1F;}
	.st17{fill:#158ECE;}
</style>
<path class="st14" d="M66.7,223.4H7.1c-2.1,0-3.7,1.7-3.7,3.7v34.9h67v-34.9C70.4,225.1,68.7,223.4,66.7,223.4z M66.3,258H7.5v-30.5
	h58.9V258L66.3,258z"/>
<path class="st15" d="M3.4,268.1c0,2.1,1.7,3.7,3.7,3.7h21.2h0.2c0.1,1.2,0,2.9-0.3,4.7c-0.6,2.9-2,5.2-4.1,6.8
	c-0.3,0.3-0.5,0.7-0.3,1.1c0.1,0.4,0.5,0.7,1,0.7h24.5c0,0,0,0,0,0c0.6,0,1-0.5,1-1c0-0.4-0.2-0.7-0.5-0.8c-2.1-1.6-3.4-3.9-4-6.7
	c-0.4-1.8-0.4-3.5-0.3-4.7h0.1h21.2c2.1,0,3.7-1.7,3.7-3.7v-4h-67V268.1z M36.9,265.7c1.2,0,2.1,1,2.1,2.1c0,1.2-1,2.1-2.1,2.1
	c-1.2,0-2.1-1-2.1-2.1C34.8,266.7,35.7,265.7,36.9,265.7z"/>
<path class="st16" d="M89.6,321.2c-11.1,0-20.1-3-20.1-6.7c0-2,0-4.2,0-6.7c0-0.6,0.3-1.1,0.7-1.7c2.2,2.9,10,5,19.3,5
	c9.3,0,17.1-2.1,19.3-5c0.4,0.5,0.7,1.1,0.7,1.7c0,1.9,0,4,0,6.7C109.6,318.3,100.6,321.2,89.6,321.2z M89.6,307.9
	c-11.1,0-20.1-3-20.1-6.7c0-2,0-4.2,0-6.7c0-0.4,0.1-0.7,0.3-1l0,0c0.1-0.2,0.2-0.4,0.4-0.6c2.2,2.9,10,5,19.3,5
	c9.3,0,17.1-2.1,19.3-5c0.2,0.2,0.3,0.4,0.4,0.6l0,0c0.2,0.3,0.3,0.7,0.3,1c0,1.9,0,4,0,6.7C109.6,304.9,100.6,307.9,89.6,307.9z
	 M89.6,294.5c-11.1,0-20.1-3-20.1-6.7c0-1.1,0-2.2,0-3.3c0-1.1,0-2.2,0-3.3c0-3.7,9-6.7,20.1-6.7c11.1,0,20.1,3,20.1,6.7
	c0,1,0,2.1,0,3.3c0,1,0,2.1,0,3.3C109.6,291.5,100.6,294.5,89.6,294.5z M89.6,277.8c-7.4,0-13.4,1.5-13.4,3.3c0,1.8,6,3.3,13.4,3.3
	c7.4,0,13.4-1.5,13.4-3.3C102.9,279.3,96.9,277.8,89.6,277.8z"/>
<path class="st14" d="M609.4,82.7c17.6,0,31.8,6.3,31.8,14.2c0,7.8-14.2,14.2-31.8,14.2c-17.6,0-31.8-6.3-31.8-14.2
	C577.6,89,591.8,82.7,609.4,82.7z"/>
<path class="st16" d="M616.8,148.8c-2.2-0.6-3.9-2.4-4.3-4.6c-1,0-2,0.1-3.1,0.1c-17.6,0-31.8-6.3-31.8-14.2c0,3.3,0,5.4,0,10.8
	c0,7.8,14.2,14.2,31.8,14.2c2.5,0,5-0.1,7.3-0.4C615.7,152.9,615.7,150.7,616.8,148.8z"/>
<path class="st15" d="M609.4,140.4c1,0,2,0,2.9-0.1v-1.6c0-2.7,1.9-5.1,4.5-5.7c-0.7-1.2-0.9-2.5-0.8-3.7c-2.1,0.2-4.4,0.3-6.6,0.3
	c-17.6,0-31.8-6.3-31.8-14.2c0,3.3,0,5.4,0,10.8C577.6,134.1,591.8,140.4,609.4,140.4z"/>
<path class="st14" d="M609.4,125.7c3.1,0,6.2-0.2,9-0.6l2.4-2.4c1.1-1.1,2.6-1.7,4.2-1.7c1,0,2,0.3,3,0.8c0.7-2.6,3-4.4,5.7-4.4h4.4
	c0.1,0,0.2,0,0.2,0c1.9-1.8,2.9-3.8,2.9-5.9c0-2.9,0-5.9,0-10.8c0,7.8-14.2,14.2-31.8,14.2c-17.6,0-31.8-6.3-31.8-14.2
	c0,3.3,0,5.5,0,10.8C577.6,119.4,591.8,125.7,609.4,125.7z"/>
<path class="st15" d="M154.4,79.8h-4.9v-4.9c0-2.7-2.2-4.9-4.9-4.9H95.2c-2.7,0-4.9,2.2-4.9,4.9v59.2c0,2.7,2.2,4.9,4.9,4.9h4.9v4.9
	c0,2.7,2.2,4.9,4.9,4.9h49.4c2.7,0,4.9-2.2,4.9-4.9V84.8C159.4,82,157.1,79.8,154.4,79.8z M95.2,134.1V74.9h49.4v59.2H95.2z
	 M154.4,144h-49.4v-4.9h39.5c2.7,0,4.9-2.2,4.9-4.9V84.8h4.9V144L154.4,144z"/>
<path class="st15" d="M315.2,176.8H312c-0.4,0-0.3-0.5-0.3-0.5v-1.6c0-2.1-1.7-3.7-3.7-3.7h-25.7c-0.2,0-0.4-0.3-0.8-1.1
	c-0.1-0.1-0.1-0.2-0.2-0.3c-1.3-2.5-3-3-4.2-3h-6.7c-1.7,0-2.7,1-3.9,2.9c-0.1,0.1-0.2,0.3-0.2,0.4c-0.4,0.6-0.7,1.1-0.9,1.1h-2
	c-2.1,0-3.7,1.7-3.7,3.7v31.2c0,1.8,1.3,3.4,3.1,3.7c0.2,0.1,0.4,0.1,0.7,0.1h45.7c1.2,0,2.4-1,2.6-2.2L317,179
	C317.2,177.8,316.4,176.8,315.2,176.8L315.2,176.8z M263.6,173.9h2c1.9,0,2.9-1.5,3.5-2.6c0.1-0.1,0.1-0.2,0.2-0.3
	c0.6-1,1.1-1.5,1.7-1.5h6.3c0.2,0,0.8,0,1.5,1.4c0.1,0.1,0.1,0.2,0.2,0.3c0.6,1.1,1.4,2.7,3.4,2.7H308c0.4,0,0.7,0.3,0.7,0.7v1.5
	c0,0,0,0.6-0.3,0.6h-39c-1.2,0-2.4,1-2.6,2.2l-3.8,21.1c0,0-0.2,0.7-0.2-0.6v-24.9C262.8,174.3,263.2,173.9,263.6,173.9L263.6,173.9
	z M263.6,173.9"/>
<path class="st14" d="M359.8,105.5c-20.9,0-37.9,6.7-37.9,15v21.9c0,8.3,17,15,37.9,15c20.9,0,37.9-6.7,37.9-15v-21.9
	C397.7,112.2,380.7,105.5,359.8,105.5L359.8,105.5z M359.8,137c-16.7,0-30.3-5.4-30.3-12c0-6.6,13.6-12,30.3-12
	c16.7,0,30.3,5.4,30.3,12C390,131.7,376.5,137,359.8,137L359.8,137z M383.8,191.4c7.8-2.5,13-6.3,13.8-10.5c0.1,0.4,0.1,0.7,0.1,1.1
	v21.9c0,8.3-16.9,15-37.9,15c-20.9,0-37.9-6.7-37.9-15V182c0-0.4,0.1-0.7,0.1-1.1c0.8,4.2,5.9,7.9,13.6,10.5l1.3,0.2
	c0.8,12,10.7,21.4,22.9,21.4c12.2,0,22.1-9.5,22.9-21.4L383.8,191.4z M382.2,184.9c-2.4-10.2-11.5-17.7-22.4-17.7
	c-10.9,0-20,7.6-22.3,17.7l-1.5-0.2c-8.6-2.8-14.1-7-14.1-11.7v-22c0-0.4,0.1-0.7,0.1-1.1c1.4,7.8,17.8,13.9,37.8,13.9l0,0
	c20,0,36.4-6.1,37.8-13.9c0.1,0.4,0.1,0.7,0.1,1.1v22c0,4.8-5.6,9-14.3,11.8L382.2,184.9z"/>
<path class="st14" d="M564.4,256.6h-58.6c-2.5,0-4.5,2-4.5,4.5V273c0,2.5,2,4.5,4.5,4.5h58.6c2.5,0,4.5-2,4.5-4.5v-11.9
	C569,258.6,567,256.6,564.4,256.6z M507,274.5c-0.6,0-1-0.5-1-1c0-0.6,0.5-1,1-1c0.6,0,1,0.5,1,1C508,274.1,507.5,274.5,507,274.5z
	 M510.3,274.5c-0.6,0-1-0.5-1-1c0-0.6,0.5-1,1-1c0.6,0,1,0.5,1,1C511.3,274.1,510.9,274.5,510.3,274.5z M508.7,267.6
	c-1.7,0-3.2-1.4-3.2-3.2c0-1.7,1.4-3.2,3.2-3.2c1.8,0,3.2,1.4,3.2,3.2C511.8,266.2,510.4,267.6,508.7,267.6z M513.7,274.5
	c-0.6,0-1-0.5-1-1c0-0.6,0.5-1,1-1c0.6,0,1,0.5,1,1C514.8,274.1,514.3,274.5,513.7,274.5z M561,273.7h-22.8v-2.6H561V273.7z
	 M561,268.3h-22.8v-2.6H561V268.3z M561,263h-22.8v-2.6H561V263z"/>
<path class="st15" d="M564.4,279.1h-58.6c-2.5,0-4.5,2-4.5,4.5v11.9c0,2.5,2,4.5,4.5,4.5h58.6c2.5,0,4.5-2,4.5-4.5v-11.9
	C569,281.1,567,279.1,564.4,279.1z M507,297.1c-0.6,0-1-0.5-1-1c0-0.6,0.5-1,1-1c0.6,0,1,0.5,1,1C508,296.6,507.5,297.1,507,297.1z
	 M510.3,297.1c-0.6,0-1-0.5-1-1c0-0.6,0.5-1,1-1c0.6,0,1,0.5,1,1C511.3,296.6,510.9,297.1,510.3,297.1z M508.7,290.2
	c-1.7,0-3.2-1.4-3.2-3.2c0-1.8,1.4-3.2,3.2-3.2c1.8,0,3.2,1.4,3.2,3.2C511.8,288.7,510.4,290.2,508.7,290.2z M513.7,297.1
	c-0.6,0-1-0.5-1-1c0-0.6,0.5-1,1-1c0.6,0,1,0.5,1,1C514.8,296.6,514.3,297.1,513.7,297.1z M561,296.2h-22.8v-2.6H561V296.2z
	 M561,290.9h-22.8v-2.6H561V290.9z M561,285.5h-22.8V283H561V285.5z"/>
<path class="st16" d="M564.4,301.6h-58.6c-2.5,0-4.5,2-4.5,4.5v11.9c0,2.5,2,4.5,4.5,4.5h58.6c2.5,0,4.5-2,4.5-4.5v-11.9
	C569,303.7,567,301.6,564.4,301.6z M507,319.6c-0.6,0-1-0.5-1-1c0-0.6,0.5-1,1-1c0.6,0,1,0.5,1,1C508,319.1,507.5,319.6,507,319.6z
	 M510.3,319.6c-0.6,0-1-0.5-1-1c0-0.6,0.5-1,1-1c0.6,0,1,0.5,1,1C511.3,319.1,510.9,319.6,510.3,319.6z M508.7,312.7
	c-1.7,0-3.2-1.4-3.2-3.2c0-1.8,1.4-3.2,3.2-3.2c1.8,0,3.2,1.4,3.2,3.2C511.8,311.3,510.4,312.7,508.7,312.7z M513.7,319.6
	c-0.6,0-1-0.5-1-1c0-0.6,0.5-1,1-1c0.6,0,1,0.5,1,1C514.8,319.1,514.3,319.6,513.7,319.6z M561,318.7h-22.8v-2.6H561V318.7z
	 M561,313.4h-22.8v-2.6H561V313.4z M561,308.1h-22.8v-2.6H561V308.1z"/>
<path class="st14" d="M186.4,321.1h47.1v-57.6h-47.1V321.1z M187.8,264.8h44.3v54.9h-44.3V264.8z"/>
<rect x="191.4" y="270.7" class="st2" width="37.1" height="1.4"/>
<rect x="191.4" y="313" class="st2" width="37.1" height="1.4"/>
<rect x="191.4" y="275.4" class="st2" width="37.1" height="1.4"/>
<rect x="191.4" y="280.1" class="st2" width="37.1" height="1.4"/>
<rect x="191.4" y="298.9" class="st2" width="37.1" height="1.4"/>
<rect x="191.4" y="303.6" class="st2" width="37.1" height="1.4"/>
<rect x="191.4" y="308.3" class="st2" width="37.1" height="1.4"/>
<rect x="191.4" y="284.8" class="st2" width="37.1" height="1.4"/>
<rect x="191.4" y="289.5" class="st2" width="37.1" height="1.4"/>
<rect x="191.4" y="294.2" class="st2" width="37.1" height="1.4"/>
<polygon class="st14" points="203.5,253.9 203.5,262.8 204.8,262.8 204.8,255.3 249.2,255.3 249.2,310.2 234.2,310.2 234.2,311.5 
	250.5,311.5 250.5,253.9 "/>
<rect x="208.4" y="261.1" class="st16" width="37.1" height="1.4"/>
<rect x="234.2" y="303.4" class="st16" width="11.3" height="1.4"/>
<rect x="234.2" y="265.8" class="st16" width="11.3" height="1.4"/>
<rect x="234.2" y="270.5" class="st16" width="11.3" height="1.4"/>
<rect x="234.2" y="289.3" class="st16" width="11.3" height="1.4"/>
<rect x="234.2" y="294" class="st16" width="11.3" height="1.4"/>
<rect x="234.2" y="298.7" class="st16" width="11.3" height="1.4"/>
<rect x="234.2" y="275.2" class="st16" width="11.3" height="1.4"/>
<rect x="234.2" y="279.9" class="st16" width="11.3" height="1.4"/>
<rect x="234.2" y="284.6" class="st16" width="11.3" height="1.4"/>
<g>
	<g>
		<path class="st15" d="M327.3,270.6h58.9c0-1.8-1.5-3.3-3.3-3.3h-43.3l-1.1-1.7c-0.6-1-1.6-1.6-2.8-1.6h-12.2
			c-1.8,0-3.3,1.5-3.3,3.3v16.5v21.2l3.8-31.4C324.3,271.8,325.7,270.6,327.3,270.6z"/>
		<path class="st15" d="M390,273.9h-59.3c-1.6,0-3,1.2-3.3,2.9l-4.1,34.6c-0.2,2,1.3,3.7,3.3,3.7h59.3c1.6,0,3-1.2,3.3-2.9l4.1-34.6
			C393.4,275.6,392,273.9,390,273.9z"/>
	</g>
</g>
<g>
	<path class="st15" d="M359.1,334.2c0,1.2-0.9,2.1-2.1,2.1l0,0c-1.2,0-2.1-0.9-2.1-2.1v-25.3c0-1.2,0.9-2.1,2.1-2.1l0,0
		c1.2,0,2.1,0.9,2.1,2.1V334.2z"/>
	<path class="st15" d="M338.3,332.6c-1.2,0-2.1-0.9-2.1-2.1l0,0c0-1.2,0.9-2.1,2.1-2.1h37.3c1.2,0,2.1,0.9,2.1,2.1l0,0
		c0,1.2-0.9,2.1-2.1,2.1H338.3z"/>
	<path class="st15" d="M362.2,330.7c0,2.9-2.4,5.3-5.3,5.3c-2.9,0-5.3-2.4-5.3-5.3c0-2.9,2.4-5.3,5.3-5.3
		C359.9,325.5,362.2,327.8,362.2,330.7z"/>
</g>
<path class="st15" d="M671.3,230.2h71.5v78.1h-71.5V230.2z M689.5,311.6H742c2.2,0,4-1.8,4-4v-68.3v0.7v-9.1c0-2.2-1.8-4-4-4h-70.1
	c-2.2,0-4,1.8-4,4v76.7c0,2.2,1.8,4,4,4h9.5H689.5z"/>
<path class="st14" d="M688.3,296.6h26.9l1.3,1.3h-29.8l0.2-0.8c1.5-7.1,7.9-12.2,15.1-12.2c0.6,0,1.1,0,1.7,0.1l1.5,1.5
	c-1.1-0.3-2.1-0.4-3.2-0.4C695.6,286.2,689.9,290.5,688.3,296.6L688.3,296.6z M721,302.9h-1.3v-1.6c0-0.1,0-0.2-0.1-0.2l0,0
	c-0.2,0-0.3,0.1-0.3,0.3v1.5h-1.2v-1.6c0-0.1-0.1-0.2-0.2-0.2c-0.1,0-0.2,0.1-0.2,0.2v1.6h-1.1v-3.5c0-0.1-0.1-0.2-0.2-0.2
	c-0.1,0-0.2,0.1-0.2,0.2v3.5h-1v-1.6c0-0.1-0.1-0.2-0.2-0.2c-0.1,0-0.2,0.1-0.2,0.2v1.6h-1.3v-1.6c0-0.1-0.1-0.2-0.2-0.2
	c-0.1,0-0.2,0.1-0.2,0.2v1.6h-1.2v-1.6c0-0.1-0.1-0.2-0.2-0.2c-0.1,0-0.2,0.1-0.2,0.2v1.6h-1.2v-3.5c0-0.1-0.1-0.2-0.2-0.2
	c-0.1,0-0.2,0.1-0.2,0.2v3.5h-1.2v-1.6c0-0.1-0.1-0.2-0.2-0.2c-0.1,0-0.2,0.1-0.2,0.2v1.6h-1.3v-1.6c0-0.1-0.1-0.2-0.2-0.2
	c-0.1,0-0.2,0.1-0.2,0.2v1.6h-1.2v-1.6c0-0.1-0.1-0.2-0.2-0.2c-0.1,0-0.2,0.1-0.2,0.2v1.6h-1.2v-3.5c0-0.1-0.1-0.2-0.2-0.2
	c-0.1,0-0.2,0.1-0.2,0.2v3.5h-1.1v-1.6c0-0.1-0.1-0.2-0.2-0.2c-0.1,0-0.2,0.1-0.2,0.2v1.6h-1.3v-1.6c0-0.1-0.1-0.2-0.2-0.2
	c-0.1,0-0.2,0.1-0.2,0.2v1.6h-1.2v-1.6c0-0.1-0.1-0.2-0.2-0.2c-0.1,0-0.2,0.1-0.2,0.2v1.6H697v-3.5c0-0.1-0.1-0.2-0.2-0.2
	c-0.1,0-0.1,0-0.2,0.1c0,0-0.1,0.1-0.1,0.2v3.5h-1v-1.6c0-0.1-0.1-0.2-0.2-0.2c-0.1,0-0.2,0.1-0.2,0.2v1.6h-1.3v-1.6
	c0-0.1-0.1-0.2-0.2-0.2c-0.1,0-0.2,0.1-0.2,0.2v1.6h-1.2v-1.6c0-0.1-0.1-0.2-0.2-0.2c-0.1,0-0.2,0.1-0.2,0.2v1.6h-1.2v-3.5
	c0-0.1,0-0.1-0.1-0.2c0,0-0.1-0.1-0.2-0.1c-0.1,0-0.2,0.1-0.2,0.2l0,3.5h-1.2v-1.6c0-0.1-0.1-0.2-0.2-0.2c-0.1,0-0.2,0.1-0.2,0.2
	v1.6h-1.3V301h-0.1c-0.2,0-0.3,0.1-0.3,0.3v1.5h-1.2v-1.6c0-0.1-0.1-0.2-0.2-0.2s-0.2,0.1-0.2,0.2v1.6h-1.2v-3.5
	c0-0.1-0.1-0.2-0.2-0.2c-0.1,0-0.2,0.1-0.2,0.2v3.5h-2v-2.5c0-10.2,7.5-18.7,17.3-20.2l-1.1-1.1c-9.9,2-17.5,10.8-17.5,21.3v3.8
	h42.4l-1.6-1.7V302.9z M711.8,273.6c0,0,0.1-0.1,0.1-0.1c0-0.1,0-0.1-0.1-0.1l-1.6-1.6l0.6-0.6l0.8,0.8c0,0,0.1,0,0.1,0
	c0,0,0.1,0,0.1,0c0,0,0-0.1,0-0.1c0,0,0-0.1,0-0.1l-0.8-0.8l0.6-0.6l0.8,0.8c0,0,0.1,0,0.1,0c0,0,0.1,0,0.1,0c0.1-0.1,0.1-0.1,0-0.2
	l-0.8-0.8l0.6-0.6l0.8,0.8c0,0,0.1,0,0.1,0c0,0,0.1,0,0.1,0c0,0,0-0.1,0-0.1c0,0,0-0.1,0-0.1l-0.8-0.8l0.6-0.6l1.7,1.7
	c0.1,0.1,0.2,0.1,0.2,0c0,0,0-0.1,0-0.1c0,0,0-0.1,0-0.1l-1.7-1.7l0.4-0.4l0.8,0.8c0.1,0.1,0.2,0.1,0.2,0c0,0,0-0.1,0-0.1
	c0,0,0-0.1,0-0.1l-0.8-0.8l0.6-0.6l0.8,0.8c0,0,0.1,0,0.1,0c0,0,0.1,0,0.1,0c0.1-0.1,0.1-0.1,0-0.2l-0.8-0.8l0.6-0.6l0.8,0.8
	c0,0,0.1,0,0.1,0c0,0,0.1,0,0.1,0c0.1-0.1,0.1-0.2,0-0.2l-0.8-0.8l0.5-0.5l1.7,1.7c0.1,0.1,0.2,0.1,0.2,0c0,0,0-0.1,0-0.1
	c0,0,0-0.1,0-0.1l-1.7-1.7l0.5-0.5l0.8,0.8c0.1,0.1,0.2,0.1,0.2,0c0,0,0-0.1,0-0.1c0,0,0-0.1,0-0.1l-0.8-0.8l0.6-0.6l0.8,0.8
	c0,0,0.1,0,0.1,0c0,0,0.1,0,0.1,0c0.1-0.1,0.1-0.2,0-0.2l-0.8-0.8l0.6-0.6l0.8,0.8c0.1,0.1,0.1,0.1,0.2,0c0,0,0-0.1,0-0.1
	c0,0,0-0.1,0-0.1l-0.8-0.8l0.6-0.6l1.7,1.7c0.1,0.1,0.2,0.1,0.2,0c0,0,0-0.1,0-0.1c0,0,0-0.1,0-0.1l-1.7-1.7l0.6-0.6l0.8,0.8
	c0,0,0.1,0,0.1,0s0.1,0,0.1,0c0.1-0.1,0.1-0.2,0-0.2l-0.8-0.8l0.6-0.6l0.8,0.8c0,0,0.1,0,0.1,0c0,0,0.1,0,0.1,0
	c0.1-0.1,0.1-0.2,0-0.2l-0.8-0.8l0.6-0.6l0.8,0.8c0,0,0.1,0,0.1,0c0,0,0.1,0,0.1,0c0.1-0.1,0.1-0.2,0-0.2l-0.8-0.8l0.6-0.6l1.7,1.7
	c0.1,0.1,0.2,0.1,0.2,0c0,0,0-0.1,0-0.1s0-0.1,0-0.1l-1.7-1.7l2-2v29l1.2,1.1V256c0-0.2-0.1-0.5-0.4-0.5c-0.2-0.1-0.5,0-0.6,0.1
	L709.2,271L711.8,273.6z M721,282.9v-15.8c0-0.2-0.1-0.4-0.4-0.5c-0.2-0.1-0.5,0-0.6,0.1l-7.6,7.6l0.8,0.8l6.6-6.6v13.2L721,282.9z
	 M732.6,297l-7,7c-0.4,0.4-1.1,0.4-1.5,0l-29.7-29.7c-0.4-0.4-0.4-1.1,0-1.5l7-7c0.4-0.4,1.1-0.4,1.5,0l29.7,29.7
	C733,295.9,733,296.6,732.6,297L732.6,297z M731.9,296.2l-29.7-29.7l-7.1,7.1l1.9,1.9l5-5c0.2-0.2,0.4-0.2,0.6,0
	c0.1,0.1,0.1,0.2,0.1,0.3c0,0.1,0,0.2-0.1,0.3l-5,5l1.7,1.7l2.4-2.4c0.2-0.2,0.4-0.2,0.6,0c0.1,0.1,0.1,0.2,0.1,0.3
	c0,0.1,0,0.2-0.1,0.3l-2.4,2.4l1.7,1.7l2.3-2.3c0.1-0.1,0.2-0.1,0.3-0.1c0.1,0,0.2,0,0.3,0.1c0.2,0.2,0.2,0.5,0,0.6l-2.3,2.3
	l1.8,1.9l2.4-2.4c0.1-0.1,0.2-0.1,0.3-0.1c0.1,0,0.2,0,0.3,0.1c0.2,0.2,0.2,0.4,0,0.6l-2.4,2.4l1.7,1.7l5-5c0.2-0.2,0.4-0.2,0.6,0
	c0.2,0.2,0.2,0.4,0,0.6l-5,5l1.7,1.7l2.3-2.4c0.1-0.1,0.2-0.1,0.3-0.1c0.1,0,0.2,0.1,0.3,0.1c0.2,0.2,0.2,0.4,0,0.6l-2.4,2.4
	l1.7,1.7l2.4-2.4c0.1-0.1,0.2-0.1,0.3-0.1c0.1,0,0.2,0,0.3,0.1c0.2,0.2,0.2,0.4,0,0.6l-2.4,2.3l1.8,1.8l2.4-2.3
	c0.1-0.1,0.2-0.1,0.3-0.1c0.1,0,0.2,0,0.3,0.1c0.2,0.2,0.2,0.4,0,0.6l-2.3,2.4l1.4,1.4l5-5c0.1-0.1,0.2-0.1,0.3-0.1
	c0.1,0,0.2,0,0.3,0.1c0.2,0.2,0.2,0.4,0,0.6l-5,5l1.6,1.6l2.3-2.4c0.1-0.1,0.2-0.1,0.3-0.1c0.1,0,0.2,0.1,0.3,0.1
	c0.2,0.2,0.2,0.4,0,0.6l-2.4,2.4l1.7,1.7l2.4-2.4c0.1-0.1,0.2-0.1,0.3-0.1c0.1,0,0.2,0,0.3,0.1c0.2,0.2,0.2,0.5,0,0.6l-2.4,2.3
	l1.8,1.9l2.4-2.4c0.2-0.2,0.4-0.2,0.6,0c0.2,0.2,0.2,0.4,0,0.6l-2.4,2.4l1.8,1.8L731.9,296.2z M731.9,296.2"/>
<path class="st15" d="M721.5,237.2c0.6,0,1-0.5,1-1c0-0.6-0.5-1-1-1h-10.8c-0.6,0-1,0.5-1,1c0,0.6,0.5,1,1,1h7.7v0.7h0
	c-0.2,0-0.3,0.1-0.3,0.3v0.4h-8c-3.1,0-5.5,2.5-5.5,5.5v6.3c0,3,2.5,5.5,5.5,5.5h5.6c3.1,0,5.5-2.5,5.5-5.5v-0.2l0.9-0.9
	c0.1-0.1,0.1-0.2,0.1-0.4c-0.1-0.1-0.2-0.2-0.3-0.2h-4.2c-0.1,0-0.3,0.1-0.3,0.2c-0.1,0.1,0,0.3,0.1,0.4l0.9,0.9v0.2
	c0,1.5-1.3,2.8-2.8,2.8H710c-1.5,0-2.8-1.3-2.8-2.8v-6.3c0-1.5,1.3-2.8,2.8-2.8h8v0.4c0,0.2,0.1,0.3,0.3,0.3h0v3.7l-0.9,0.9
	c-0.1,0.1-0.1,0.2-0.1,0.4c0,0.1,0.2,0.2,0.3,0.2h4.2c0.1,0,0.2-0.1,0.3-0.2c0-0.1,0-0.3-0.1-0.4l-0.9-0.9V242h0
	c0.2,0,0.3-0.1,0.3-0.3v-3.5c0-0.2-0.1-0.3-0.3-0.3h0v-0.7H721.5z M710.4,236.1c0-0.2,0.2-0.4,0.4-0.4h10.8c0.2,0,0.4,0.2,0.4,0.4
	c0,0.2-0.2,0.4-0.4,0.4h-10.8C710.5,236.5,710.4,236.3,710.4,236.1L710.4,236.1z M710,240.7c-1.9,0-3.5,1.5-3.5,3.5v6.3
	c0,1.9,1.5,3.5,3.5,3.5h5.6c1.9,0,3.4-1.5,3.4-3.5v0h0.7c0.2,0,0.3-0.1,0.3-0.3c0-0.2-0.1-0.3-0.3-0.3h-0.9l-0.4-0.4h2.6l-0.5,0.5
	c-0.1,0.1-0.1,0.1-0.1,0.2v0.3c0,2.7-2.2,4.9-4.9,4.9H710c-2.7,0-4.9-2.2-4.9-4.9v-6.3c0-2.7,2.2-4.9,4.9-4.9h8.3
	c0.2,0,0.3-0.1,0.3-0.3v-0.4h2.1v2.8h-2.1V241c0-0.2-0.1-0.3-0.3-0.3H710z M720.5,245.9C720.5,245.9,720.5,245.9,720.5,245.9
	C720.5,245.9,720.5,245.9,720.5,245.9C720.5,245.9,720.5,245.9,720.5,245.9C720.5,245.9,720.5,245.9,720.5,245.9
	C720.5,245.9,720.5,245.9,720.5,245.9c0,0.1,0,0.1,0,0.1c0,0,0,0,0,0c0,0,0,0,0,0c0,0,0,0,0,0c0,0,0,0,0,0c0,0,0,0,0,0c0,0,0,0,0,0
	c0,0,0,0,0,0c0,0,0,0,0,0l0.5,0.5h-2.6l0.4-0.4h0.9c0.2,0,0.3-0.1,0.3-0.3c0-0.2-0.1-0.3-0.3-0.3H719v-0.4h0.7
	c0.2,0,0.3-0.1,0.3-0.3c0-0.2-0.1-0.3-0.3-0.3H719v-0.4h0.7c0.2,0,0.3-0.1,0.3-0.3c0-0.2-0.1-0.3-0.3-0.3H719v-0.4h0.7
	c0.2,0,0.3-0.1,0.3-0.3c0-0.2-0.1-0.3-0.3-0.3H719V242h1.4V245.9z M720.5,237.9H719v-0.7h1.4V237.9z"/>
<path class="st14" d="M683.5,241.9c-0.3,0-0.6,0.3-0.6,0.6v4.4h-0.6c-0.3,0-0.6,0.3-0.6,0.6c0,0.3,0.3,0.6,0.6,0.6c0,0,0,0,0,0h2.5
	c0.3,0,0.6-0.3,0.6-0.6c0-0.3-0.3-0.6-0.6-0.6c0,0,0,0,0,0h-0.6v-4.4C684.2,242.2,683.9,241.9,683.5,241.9L683.5,241.9z
	 M683.6,249.4c-2.4,0-4.4,2-4.4,4.4c0,1.3,0.5,2.4,1.4,3.2l-1.2,6.2h-1.5v-0.6c0-0.3-0.3-0.6-0.6-0.6c0,0,0,0,0,0
	c-0.3,0-0.6,0.3-0.6,0.6v2.5c0,0.3,0.3,0.6,0.6,0.6c0.3,0,0.6-0.3,0.6-0.6c0,0,0,0,0,0v-0.6h1.2l-2.5,13c-0.2,0.8,1,1.1,1.2,0.3
	l3.3-13.3h4.6l3.3,13.3c0.2,0.8,1.4,0.5,1.2-0.3l-2.5-13h1.2v0.6c0,0.3,0.3,0.6,0.6,0.6c0.3,0,0.6-0.3,0.6-0.6c0,0,0,0,0,0v-2.5
	c0-0.3-0.3-0.6-0.6-0.6c0,0,0,0,0,0c-0.3,0-0.6,0.3-0.6,0.6v0.6h-1.5l-1.2-6.2c0.9-0.8,1.4-1.9,1.4-3.2
	C687.9,251.4,686,249.4,683.6,249.4L683.6,249.4z M683.6,250.7c1.7,0,3.1,1.4,3.1,3.1c0,1.7-1.4,3.1-3.1,3.1c-1.7,0-3.1-1.4-3.1-3.1
	C680.4,252.1,681.8,250.7,683.6,250.7L683.6,250.7z M683.6,251.9c-1,0-1.9,0.8-1.9,1.9c0,1,0.8,1.9,1.9,1.9c1,0,1.9-0.8,1.9-1.9
	C685.4,252.8,684.6,251.9,683.6,251.9L683.6,251.9z M683.6,253.2c0.4,0,0.6,0.3,0.6,0.6c0,0.4-0.3,0.6-0.6,0.6
	c-0.4,0-0.6-0.3-0.6-0.6C682.9,253.5,683.2,253.2,683.6,253.2L683.6,253.2z M684.3,258.1l1.3,5.1h-4l1.3-5.1c0.2,0,0.5,0.1,0.7,0.1
	C683.8,258.2,684.1,258.2,684.3,258.1L684.3,258.1z"/>
<path class="st16" d="M698.4,236.5H698v-2c0-0.2-0.2-0.4-0.4-0.4h-1.5c-0.2,0-0.4,0.2-0.4,0.4v2h-0.4c-0.5,0-1,0.2-1.3,0.6
	c-0.3,0.4-0.5,0.8-0.5,1.3l0.4,9.4c0,0.9-0.2,1.8-0.6,2.6c-0.1,0.2,0,0.4,0.1,0.5c0.1,0,0.1,0.1,0.2,0.1c0.1,0,0.3-0.1,0.3-0.2
	c0.5-0.9,0.8-2,0.7-3l-0.4-9.4c0-0.3,0.1-0.6,0.3-0.8c0.1-0.1,0.2-0.2,0.4-0.2v21.4c0,2.2,0.5,4.5,1.6,6.4c0.1,0.1,0.2,0.2,0.3,0.2
	c0.1,0,0.3-0.1,0.3-0.2c1-2,1.6-4.2,1.6-6.4v-21.8C698.8,236.7,698.6,236.5,698.4,236.5L698.4,236.5z M695.8,238.9h2.3v18.6h-2.3
	V238.9z M695.8,238.2v-0.9h2.3v0.9H695.8z M696.5,235h0.8v1.6h-0.8V235z M696.9,264.1c-0.7-1.7-1.1-3.5-1.1-5.4v-0.4h2.3v0.4
	C698,260.6,697.6,262.4,696.9,264.1L696.9,264.1z"/>
<path class="st16" d="M735.8,243.8h-2.4c-0.8,0-1.5,0.7-1.5,1.5v38c0,0.1,0,0.1,0,0.2l2.2,5.3c0.1,0.2,0.3,0.3,0.5,0.3
	c0.2,0,0.4-0.1,0.5-0.3l2.2-5.3c0-0.1,0-0.1,0-0.2v-38C737.3,244.5,736.6,243.8,735.8,243.8L735.8,243.8z M733.4,244.9h2.4
	c0.2,0,0.4,0.2,0.4,0.4v1.4h-3.3v-1.4C732.9,245.1,733.1,244.9,733.4,244.9L733.4,244.9z M734.1,286.2l-0.9-2.3h2.7l-0.9,2.3H734.1z
	 M732.9,282.8v-33.1h1.1v33.1H732.9z M735.1,282.8v-33.1h1.1v33.1H735.1z M732.9,248.6v-0.8h3.3v0.8H732.9z"/>
<path d="M560.5,358.3h-336v-0.4c-53.7-3.9-95.6-50.4-95.6-106.4c0-58.1,45.2-105.7,101.1-106.7c3.2-29.6,16.6-56.9,37.9-77
	C289.7,47.3,317.8,36,347.2,36c22.7,0,44.7,6.7,63.6,19.4c18.1,12.1,32.6,29,42.1,49c9.3-4.3,19-6.4,29-6.4
	c38.9,0,70.7,32.4,71.6,72.6c49.7,0.2,90,42.2,90,93.8c0,48.8-36.4,89.6-83.1,93.4V358.3z M227.1,355.6h330.7v-0.3l1.2-0.1
	c45.9-3.2,81.9-43.1,81.9-90.9c0-50.3-39.4-91.2-87.8-91.2c-0.2,0-0.4,0-0.6,0l-1.7,0.1l0-1.4c-0.2-39.3-31.1-71.3-68.9-71.3
	c-10.1,0-19.9,2.3-29.1,6.8l-1.2,0.6l-0.6-1.2C432,65.4,391.2,38.6,347.2,38.6c-59.4,0-108.7,46.3-114.7,107.6l-0.1,1.2l-1.2,0
	c-54.9,0.3-99.6,47-99.6,104c0,55,41.4,100.6,94.3,103.8l1.2,0.1V355.6z"/>
<g>
	<path d="M360.4,178.2c1.7,0,3.4,0.4,5,1l-5.9,2.1l0.5,1.3l7.9-2.9l-3.4-7.7l-1.3,0.6l2.3,5c-1.6-0.6-3.3-0.9-5.1-0.9
		c-7.8,0-14.2,6.3-14.2,14.2c0,1.5,0.2,2.9,0.7,4.3l1.3-0.4c-0.4-1.2-0.6-2.6-0.6-3.9C347.6,183.9,353.4,178.2,360.4,178.2z"/>
	<path d="M374.5,191c0-0.9-0.1-1.9-0.3-2.8l-1.4,0.3c0.2,0.8,0.2,1.7,0.2,2.5c0,7-5.7,12.8-12.8,12.8c-0.6,0-1.1,0-1.7-0.1l5.1-3.6
		l-0.8-1.1l-6.9,4.9l5.4,6.5l1.1-0.9L359,205c0.5,0,0.9,0.1,1.4,0.1C368.2,205.1,374.5,198.8,374.5,191z"/>
</g>
<path class="st15" d="M416.1,176.6c0,0-0.1-0.8-0.1-1.2c0.2-0.1,0.4-0.2,0.5-0.4c0.3,0.2,0.9,0.5,0.9,0.5l1-0.3l1.2-2l-0.3-1
	c0,0-0.8-0.5-1.2-0.7c0-0.2,0-0.4-0.1-0.7c0.3-0.3,0.9-0.8,0.9-0.8V169l-1.5-1.8h-1.1c0,0-0.5,0.4-0.8,0.7c-0.3-0.1-0.6-0.2-0.9-0.3
	c0-0.3-0.1-0.9-0.1-0.9l-0.8-0.8l-2.3,0.2l-0.8,0.8c0,0,0.1,0.8,0.1,1.2c-0.2,0.1-0.4,0.3-0.6,0.4c-0.3-0.2-1-0.5-1-0.5l-1,0.3
	l-1,2.1l0,0.1l0.3,0.9c0,0,0.8,0.3,1.1,0.5c0,0.2,0.1,0.5,0.1,0.7c-0.3,0.2-0.9,0.7-0.9,0.7v1.1l1.5,1.8c0,0,0.9,0.1,0.9,0.1
	c0.1,0,0.1-0.1,0.1-0.1s0.6-0.5,0.8-0.7c0.2,0.1,0.5,0.2,0.7,0.3c0,0.3,0.1,0.9,0.1,0.9l0.7,0.7l2.3-0.2L416.1,176.6z M413.4,174.1
	c-1.3,0-2.4-1-2.4-2.3c0-1.3,1.1-2.3,2.4-2.3c1.3,0,2.3,1.1,2.3,2.3C415.7,173,414.7,174.1,413.4,174.1L413.4,174.1z"/>
<path class="st15" d="M422.6,184.2c0,0-0.1-0.6-0.1-0.9c0.1-0.1,0.3-0.2,0.4-0.3c0.2,0.1,0.7,0.4,0.7,0.4l0.8-0.2l0.9-1.5l-0.2-0.8
	c0,0-0.6-0.3-0.9-0.5c0-0.2,0-0.3-0.1-0.5c0.2-0.2,0.7-0.6,0.7-0.6v-0.8l-1.2-1.3h-0.8c0,0-0.4,0.3-0.6,0.5
	c-0.2-0.1-0.4-0.2-0.7-0.2c0-0.2-0.1-0.7-0.1-0.7l-0.6-0.6l-1.8,0.1l-0.6,0.6c0,0,0.1,0.6,0.1,0.9c-0.2,0.1-0.3,0.2-0.5,0.3
	c-0.2-0.1-0.7-0.3-0.7-0.3l-0.8,0.2l-0.7,1.6l0,0.1l0.2,0.7c0,0,0.6,0.3,0.9,0.4c0,0.2,0,0.4,0.1,0.6c-0.2,0.2-0.7,0.6-0.7,0.6v0.8
	l1.1,1.3c0,0,0.7,0.1,0.7,0.1c0,0,0.1-0.1,0.1-0.1s0.4-0.4,0.6-0.5c0.2,0.1,0.4,0.1,0.6,0.2c0,0.2,0.1,0.7,0.1,0.7l0.6,0.6l1.8-0.2
	L422.6,184.2z M420.5,182.4c-1,0-1.8-0.8-1.8-1.8c0-1,0.8-1.8,1.8-1.8c1,0,1.8,0.8,1.8,1.8C422.3,181.6,421.5,182.4,420.5,182.4
	L420.5,182.4z"/>
<path class="st16" d="M435.1,162.1h-18.7c-1.9,0-1.9,2.9,0,2.9h18.7C436.9,165,436.9,162.1,435.1,162.1L435.1,162.1z"/>
<path class="st16" d="M435.1,169H428c-1.9,0-1.9,2.9,0,2.9h7.1C436.9,171.9,436.9,169,435.1,169L435.1,169z"/>
<path class="st14" d="M409.2,158.4h30.1v18.5h3.5V155h-37.1v11.4h3.5V158.4z"/>
<g>
	<g>
		<path d="M407.2,184.2c0.3,0,0.6-0.1,0.9-0.3c0.2-0.2,0.4-0.4,0.5-0.8c0.1-0.3,0.2-0.8,0.2-1.3c0-0.5,0-0.8-0.1-1.1
			c-0.1-0.3-0.2-0.5-0.3-0.7c-0.1-0.2-0.3-0.3-0.5-0.4c-0.2-0.1-0.4-0.1-0.7-0.1c-0.3,0-0.6,0.1-0.9,0.3c-0.2,0.2-0.4,0.4-0.5,0.8
			c-0.1,0.3-0.2,0.8-0.2,1.3c0,0.9,0.2,1.5,0.5,1.9C406.4,184.1,406.8,184.2,407.2,184.2L407.2,184.2z M406.6,180.3
			c0.2-0.2,0.4-0.3,0.6-0.3c0.3,0,0.5,0.1,0.7,0.4c0.2,0.3,0.3,0.8,0.3,1.5c0,0.8-0.1,1.3-0.3,1.5c-0.2,0.3-0.4,0.4-0.7,0.4
			c-0.3,0-0.5-0.1-0.7-0.4c-0.2-0.3-0.3-0.8-0.3-1.5C406.3,181.1,406.4,180.6,406.6,180.3L406.6,180.3z"/>
		<path d="M410.7,180.1c-0.2,0.2-0.5,0.4-0.8,0.5v0.6c0.2-0.1,0.4-0.2,0.6-0.3c0.2-0.1,0.4-0.3,0.5-0.4v3.7h0.6v-4.7h-0.4
			C411.1,179.7,410.9,179.9,410.7,180.1L410.7,180.1z"/>
		<path d="M427.3,184.2c0.3,0,0.6-0.1,0.9-0.3c0.2-0.2,0.4-0.4,0.5-0.8c0.1-0.3,0.2-0.8,0.2-1.3c0-0.5,0-0.8-0.1-1.1
			c-0.1-0.3-0.2-0.5-0.3-0.7c-0.1-0.2-0.3-0.3-0.5-0.4c-0.2-0.1-0.4-0.1-0.7-0.1c-0.3,0-0.6,0.1-0.9,0.3c-0.2,0.2-0.4,0.4-0.5,0.8
			c-0.1,0.3-0.2,0.8-0.2,1.3c0,0.9,0.2,1.5,0.5,1.9C426.4,184.1,426.8,184.2,427.3,184.2L427.3,184.2z M426.6,180.3
			c0.2-0.2,0.4-0.3,0.6-0.3c0.3,0,0.5,0.1,0.7,0.4c0.2,0.3,0.3,0.8,0.3,1.5c0,0.8-0.1,1.3-0.3,1.5c-0.2,0.3-0.4,0.4-0.7,0.4
			c-0.3,0-0.5-0.1-0.7-0.4c-0.2-0.3-0.3-0.8-0.3-1.5C426.3,181.1,426.4,180.6,426.6,180.3L426.6,180.3z"/>
		<path d="M441.2,184.2c0.3,0,0.6-0.1,0.9-0.3c0.2-0.2,0.4-0.4,0.5-0.8c0.1-0.3,0.2-0.8,0.2-1.3c0-0.5,0-0.8-0.1-1.1
			c-0.1-0.3-0.2-0.5-0.3-0.7c-0.1-0.2-0.3-0.3-0.5-0.4c-0.2-0.1-0.4-0.1-0.7-0.1c-0.3,0-0.6,0.1-0.9,0.3c-0.2,0.2-0.4,0.4-0.5,0.8
			c-0.1,0.3-0.2,0.8-0.2,1.3c0,0.9,0.2,1.5,0.5,1.9C440.4,184.1,440.7,184.2,441.2,184.2L441.2,184.2z M440.6,180.3
			c0.2-0.2,0.4-0.3,0.6-0.3c0.3,0,0.5,0.1,0.7,0.4c0.2,0.3,0.3,0.8,0.3,1.5c0,0.8-0.1,1.3-0.3,1.5c-0.2,0.3-0.4,0.4-0.7,0.4
			c-0.3,0-0.5-0.1-0.7-0.4c-0.2-0.3-0.3-0.8-0.3-1.5C440.3,181.1,440.4,180.6,440.6,180.3L440.6,180.3z"/>
		<path d="M430.3,180.1c-0.2,0.2-0.5,0.4-0.8,0.5v0.6c0.2-0.1,0.4-0.2,0.6-0.3c0.2-0.1,0.4-0.3,0.5-0.4v3.7h0.6v-4.7h-0.4
			C430.8,179.7,430.6,179.9,430.3,180.1L430.3,180.1z"/>
		<path d="M434.2,184.2c0.3,0,0.6-0.1,0.9-0.3c0.2-0.2,0.4-0.4,0.5-0.8c0.1-0.3,0.2-0.8,0.2-1.3c0-0.5,0-0.8-0.1-1.1
			c-0.1-0.3-0.2-0.5-0.3-0.7c-0.1-0.2-0.3-0.3-0.5-0.4c-0.2-0.1-0.4-0.1-0.7-0.1c-0.3,0-0.6,0.1-0.9,0.3c-0.2,0.2-0.4,0.4-0.5,0.8
			c-0.1,0.3-0.2,0.8-0.2,1.3c0,0.9,0.2,1.5,0.5,1.9C433.4,184.1,433.8,184.2,434.2,184.2L434.2,184.2z M433.6,180.3
			c0.2-0.2,0.4-0.3,0.6-0.3c0.3,0,0.5,0.1,0.7,0.4c0.2,0.3,0.3,0.8,0.3,1.5c0,0.8-0.1,1.3-0.3,1.5c-0.2,0.3-0.4,0.4-0.7,0.4
			c-0.3,0-0.5-0.1-0.7-0.4c-0.2-0.3-0.3-0.8-0.3-1.5C433.3,181.1,433.4,180.6,433.6,180.3L433.6,180.3z"/>
		<path d="M437.6,180.1c-0.2,0.2-0.5,0.4-0.8,0.5v0.6c0.2-0.1,0.4-0.2,0.6-0.3c0.2-0.1,0.4-0.3,0.5-0.4v3.7h0.6v-4.7h-0.4
			C438.1,179.7,437.9,179.9,437.6,180.1L437.6,180.1z"/>
	</g>
</g>
<g>
	<g>
		<path d="M408.4,187c-0.1-0.2-0.3-0.3-0.5-0.4c-0.2-0.1-0.4-0.2-0.7-0.2c-0.3,0-0.6,0.1-0.9,0.3c-0.2,0.2-0.4,0.4-0.5,0.8
			c-0.1,0.3-0.2,0.8-0.2,1.3c0,0.9,0.2,1.5,0.5,1.9c0.3,0.3,0.6,0.5,1.1,0.5c0.4,0,0.6-0.1,0.9-0.3c0.2-0.2,0.4-0.4,0.5-0.8
			c0.1-0.3,0.2-0.8,0.2-1.3c0-0.5,0-0.8-0.1-1.1C408.6,187.5,408.5,187.2,408.4,187L408.4,187z M407.9,190.4
			c-0.2,0.3-0.4,0.4-0.7,0.4c-0.3,0-0.5-0.1-0.7-0.4c-0.2-0.3-0.3-0.8-0.3-1.5c0-0.8,0.1-1.3,0.3-1.6c0.2-0.2,0.4-0.3,0.6-0.3
			c0.3,0,0.5,0.1,0.7,0.4c0.2,0.2,0.3,0.8,0.3,1.5C408.2,189.6,408.1,190.1,407.9,190.4L407.9,190.4z"/>
		<path d="M411.6,191.1v-4.7h-0.4c-0.1,0.2-0.3,0.4-0.5,0.6c-0.2,0.2-0.5,0.4-0.9,0.6v0.6c0.2-0.1,0.4-0.2,0.6-0.3
			c0.2-0.1,0.4-0.3,0.6-0.4v3.7H411.6z"/>
		<path d="M414.8,191.1v-4.7h-0.4c-0.1,0.2-0.3,0.4-0.5,0.6c-0.2,0.2-0.5,0.4-0.9,0.6v0.6c0.2-0.1,0.4-0.2,0.6-0.3
			c0.2-0.1,0.4-0.3,0.5-0.4v3.7H414.8z"/>
		<path d="M419,187c-0.1-0.2-0.3-0.3-0.5-0.4c-0.2-0.1-0.4-0.2-0.7-0.2c-0.3,0-0.6,0.1-0.9,0.3c-0.2,0.2-0.4,0.4-0.5,0.8
			c-0.1,0.3-0.2,0.8-0.2,1.3c0,0.9,0.2,1.5,0.5,1.9c0.3,0.3,0.6,0.5,1.1,0.5c0.3,0,0.6-0.1,0.9-0.3c0.2-0.2,0.4-0.4,0.5-0.8
			c0.1-0.3,0.2-0.8,0.2-1.3c0-0.5,0-0.8-0.1-1.1C419.2,187.5,419.1,187.2,419,187L419,187z M418.5,190.4c-0.2,0.3-0.4,0.4-0.7,0.4
			c-0.3,0-0.5-0.1-0.7-0.4c-0.2-0.3-0.3-0.8-0.3-1.5c0-0.8,0.1-1.3,0.3-1.6c0.2-0.2,0.4-0.3,0.6-0.3c0.3,0,0.5,0.1,0.7,0.4
			c0.2,0.2,0.3,0.8,0.3,1.5C418.8,189.6,418.7,190.1,418.5,190.4L418.5,190.4z"/>
		<path d="M424.3,187c-0.1-0.2-0.3-0.3-0.5-0.4c-0.2-0.1-0.4-0.2-0.7-0.2c-0.3,0-0.6,0.1-0.9,0.3c-0.2,0.2-0.4,0.4-0.5,0.8
			c-0.1,0.3-0.2,0.8-0.2,1.3c0,0.9,0.2,1.5,0.5,1.9c0.3,0.3,0.6,0.5,1.1,0.5c0.4,0,0.6-0.1,0.9-0.3c0.2-0.2,0.4-0.4,0.5-0.8
			c0.1-0.3,0.2-0.8,0.2-1.3c0-0.5,0-0.8-0.1-1.1C424.5,187.5,424.4,187.2,424.3,187L424.3,187z M423.8,190.4
			c-0.2,0.3-0.4,0.4-0.7,0.4c-0.3,0-0.5-0.1-0.7-0.4c-0.2-0.3-0.3-0.8-0.3-1.5c0-0.8,0.1-1.3,0.3-1.6c0.2-0.2,0.4-0.3,0.6-0.3
			c0.3,0,0.5,0.1,0.7,0.4c0.2,0.2,0.3,0.8,0.3,1.5C424.1,189.6,424,190.1,423.8,190.4L423.8,190.4z"/>
		<path d="M427.5,191.1v-4.7h-0.4c-0.1,0.2-0.3,0.4-0.5,0.6c-0.2,0.2-0.5,0.4-0.9,0.6v0.6c0.2-0.1,0.4-0.2,0.6-0.3
			c0.2-0.1,0.4-0.3,0.6-0.4v3.7H427.5z"/>
		<path d="M430.7,191.1v-4.7h-0.4c-0.1,0.2-0.3,0.4-0.5,0.6c-0.2,0.2-0.5,0.4-0.9,0.6v0.6c0.2-0.1,0.4-0.2,0.6-0.3
			c0.2-0.1,0.4-0.3,0.5-0.4v3.7H430.7z"/>
		<path d="M434.9,187c-0.1-0.2-0.3-0.3-0.5-0.4c-0.2-0.1-0.4-0.2-0.7-0.2c-0.3,0-0.6,0.1-0.9,0.3c-0.2,0.2-0.4,0.4-0.5,0.8
			c-0.1,0.3-0.2,0.8-0.2,1.3c0,0.9,0.2,1.5,0.5,1.9c0.3,0.3,0.6,0.5,1.1,0.5c0.3,0,0.6-0.1,0.9-0.3c0.2-0.2,0.4-0.4,0.5-0.8
			c0.1-0.3,0.2-0.8,0.2-1.3c0-0.5,0-0.8-0.1-1.1C435.1,187.5,435,187.2,434.9,187L434.9,187z M434.4,190.4c-0.2,0.3-0.4,0.4-0.7,0.4
			c-0.3,0-0.5-0.1-0.7-0.4c-0.2-0.3-0.3-0.8-0.3-1.5c0-0.8,0.1-1.3,0.3-1.6c0.2-0.2,0.4-0.3,0.6-0.3c0.3,0,0.5,0.1,0.7,0.4
			c0.2,0.2,0.3,0.8,0.3,1.5C434.7,189.6,434.6,190.1,434.4,190.4L434.4,190.4z"/>
		<path d="M438.1,191.1v-4.7h-0.4c-0.1,0.2-0.3,0.4-0.5,0.6c-0.2,0.2-0.5,0.4-0.9,0.6v0.6c0.2-0.1,0.4-0.2,0.6-0.3
			c0.2-0.1,0.4-0.3,0.5-0.4v3.7H438.1z"/>
		<path d="M442.3,187c-0.1-0.2-0.3-0.3-0.5-0.4c-0.2-0.1-0.4-0.2-0.7-0.2c-0.3,0-0.6,0.1-0.9,0.3c-0.2,0.2-0.4,0.4-0.5,0.8
			c-0.1,0.3-0.2,0.8-0.2,1.3c0,0.9,0.2,1.5,0.5,1.9c0.3,0.3,0.6,0.5,1.1,0.5c0.3,0,0.6-0.1,0.9-0.3c0.2-0.2,0.4-0.4,0.5-0.8
			c0.1-0.3,0.2-0.8,0.2-1.3c0-0.5,0-0.8-0.1-1.1C442.6,187.5,442.5,187.2,442.3,187L442.3,187z M441.9,190.4
			c-0.2,0.3-0.4,0.4-0.7,0.4c-0.3,0-0.5-0.1-0.7-0.4c-0.2-0.3-0.3-0.8-0.3-1.5c0-0.8,0.1-1.3,0.3-1.6c0.2-0.2,0.4-0.3,0.6-0.3
			c0.3,0,0.5,0.1,0.7,0.4c0.2,0.2,0.3,0.8,0.3,1.5C442.1,189.6,442.1,190.1,441.9,190.4L441.9,190.4z"/>
	</g>
</g>
<g>
	<g>
		<path d="M408.4,194.9c-0.1-0.2-0.3-0.3-0.5-0.4c-0.2-0.1-0.4-0.2-0.7-0.2c-0.3,0-0.6,0.1-0.9,0.3c-0.2,0.2-0.4,0.4-0.5,0.8
			c-0.1,0.3-0.2,0.8-0.2,1.3c0,0.9,0.2,1.5,0.5,1.9c0.3,0.3,0.6,0.5,1.1,0.5c0.4,0,0.6-0.1,0.9-0.3c0.2-0.2,0.4-0.4,0.5-0.8
			c0.1-0.3,0.2-0.8,0.2-1.3c0-0.5,0-0.8-0.1-1.1C408.6,195.3,408.5,195.1,408.4,194.9L408.4,194.9z M407.9,198.2
			c-0.2,0.3-0.4,0.4-0.7,0.4c-0.3,0-0.5-0.1-0.7-0.4c-0.2-0.3-0.3-0.8-0.3-1.5c0-0.8,0.1-1.3,0.3-1.6c0.2-0.2,0.4-0.3,0.6-0.3
			c0.3,0,0.5,0.1,0.7,0.4c0.2,0.3,0.3,0.8,0.3,1.5C408.2,197.4,408.1,198,407.9,198.2L407.9,198.2z"/>
		<path d="M412.1,194.9c-0.1-0.2-0.3-0.3-0.5-0.4c-0.2-0.1-0.4-0.2-0.7-0.2c-0.3,0-0.6,0.1-0.9,0.3c-0.2,0.2-0.4,0.4-0.5,0.8
			c-0.1,0.3-0.2,0.8-0.2,1.3c0,0.9,0.2,1.5,0.5,1.9c0.3,0.3,0.6,0.5,1.1,0.5c0.3,0,0.6-0.1,0.9-0.3c0.2-0.2,0.4-0.4,0.5-0.8
			c0.1-0.3,0.2-0.8,0.2-1.3c0-0.5,0-0.8-0.1-1.1C412.3,195.3,412.2,195.1,412.1,194.9L412.1,194.9z M411.6,198.2
			c-0.2,0.3-0.4,0.4-0.7,0.4c-0.3,0-0.5-0.1-0.7-0.4c-0.2-0.3-0.3-0.8-0.3-1.5c0-0.8,0.1-1.3,0.3-1.6c0.2-0.2,0.4-0.3,0.6-0.3
			c0.3,0,0.5,0.1,0.7,0.4c0.2,0.3,0.3,0.8,0.3,1.5C411.9,197.4,411.8,198,411.6,198.2L411.6,198.2z"/>
		<path d="M415.8,194.9c-0.1-0.2-0.3-0.3-0.5-0.4c-0.2-0.1-0.4-0.2-0.7-0.2c-0.3,0-0.6,0.1-0.9,0.3c-0.2,0.2-0.4,0.4-0.5,0.8
			c-0.1,0.3-0.2,0.8-0.2,1.3c0,0.9,0.2,1.5,0.5,1.9c0.3,0.3,0.6,0.5,1.1,0.5c0.3,0,0.6-0.1,0.9-0.3c0.2-0.2,0.4-0.4,0.5-0.8
			c0.1-0.3,0.2-0.8,0.2-1.3c0-0.5,0-0.8-0.1-1.1C416,195.3,415.9,195.1,415.8,194.9L415.8,194.9z M415.3,198.2
			c-0.2,0.3-0.4,0.4-0.7,0.4c-0.3,0-0.5-0.1-0.7-0.4c-0.2-0.3-0.3-0.8-0.3-1.5c0-0.8,0.1-1.3,0.3-1.6c0.2-0.2,0.4-0.3,0.6-0.3
			c0.3,0,0.5,0.1,0.7,0.4c0.2,0.3,0.3,0.8,0.3,1.5C415.6,197.4,415.5,198,415.3,198.2L415.3,198.2z"/>
		<path d="M419,199v-4.7h-0.4c-0.1,0.2-0.3,0.4-0.5,0.6c-0.2,0.2-0.5,0.4-0.9,0.6v0.6c0.2-0.1,0.4-0.2,0.6-0.3
			c0.2-0.1,0.4-0.3,0.6-0.4v3.7H419z"/>
		<path d="M423.7,194.9c-0.1-0.2-0.3-0.3-0.5-0.4c-0.2-0.1-0.4-0.2-0.7-0.2c-0.3,0-0.6,0.1-0.9,0.3c-0.2,0.2-0.4,0.4-0.5,0.8
			c-0.1,0.3-0.2,0.8-0.2,1.3c0,0.9,0.2,1.5,0.5,1.9c0.3,0.3,0.6,0.5,1.1,0.5c0.4,0,0.6-0.1,0.9-0.3c0.2-0.2,0.4-0.4,0.5-0.8
			c0.1-0.3,0.2-0.8,0.2-1.3c0-0.5,0-0.8-0.1-1.1C423.9,195.3,423.8,195.1,423.7,194.9L423.7,194.9z M423.2,198.2
			c-0.2,0.3-0.4,0.4-0.7,0.4c-0.3,0-0.5-0.1-0.7-0.4c-0.2-0.3-0.3-0.8-0.3-1.5c0-0.8,0.1-1.3,0.3-1.6c0.2-0.2,0.4-0.3,0.6-0.3
			c0.3,0,0.5,0.1,0.7,0.4c0.2,0.3,0.3,0.8,0.3,1.5C423.5,197.4,423.4,198,423.2,198.2L423.2,198.2z"/>
		<path d="M427.4,194.9c-0.1-0.2-0.3-0.3-0.5-0.4c-0.2-0.1-0.4-0.2-0.7-0.2c-0.3,0-0.6,0.1-0.9,0.3c-0.2,0.2-0.4,0.4-0.5,0.8
			c-0.1,0.3-0.2,0.8-0.2,1.3c0,0.9,0.2,1.5,0.5,1.9c0.3,0.3,0.6,0.5,1.1,0.5c0.3,0,0.6-0.1,0.9-0.3c0.2-0.2,0.4-0.4,0.5-0.8
			c0.1-0.3,0.2-0.8,0.2-1.3c0-0.5,0-0.8-0.1-1.1C427.6,195.3,427.5,195.1,427.4,194.9L427.4,194.9z M426.9,198.2
			c-0.2,0.3-0.4,0.4-0.7,0.4c-0.3,0-0.5-0.1-0.7-0.4c-0.2-0.3-0.3-0.8-0.3-1.5c0-0.8,0.1-1.3,0.3-1.6c0.2-0.2,0.4-0.3,0.6-0.3
			c0.3,0,0.5,0.1,0.7,0.4c0.2,0.3,0.3,0.8,0.3,1.5C427.2,197.4,427.1,198,426.9,198.2L426.9,198.2z"/>
		<path d="M438.6,194.9c-0.1-0.2-0.3-0.3-0.5-0.4c-0.2-0.1-0.4-0.2-0.7-0.2c-0.3,0-0.6,0.1-0.9,0.3c-0.2,0.2-0.4,0.4-0.5,0.8
			c-0.1,0.3-0.2,0.8-0.2,1.3c0,0.9,0.2,1.5,0.5,1.9c0.3,0.3,0.6,0.5,1.1,0.5c0.4,0,0.6-0.1,0.9-0.3c0.2-0.2,0.4-0.4,0.5-0.8
			c0.1-0.3,0.2-0.8,0.2-1.3c0-0.5,0-0.8-0.1-1.1C438.9,195.3,438.8,195.1,438.6,194.9L438.6,194.9z M438.2,198.2
			c-0.2,0.3-0.4,0.4-0.7,0.4c-0.3,0-0.5-0.1-0.7-0.4c-0.2-0.3-0.3-0.8-0.3-1.5c0-0.8,0.1-1.3,0.3-1.6c0.2-0.2,0.4-0.3,0.6-0.3
			c0.3,0,0.5,0.1,0.7,0.4c0.2,0.3,0.3,0.8,0.3,1.5C438.4,197.4,438.3,198,438.2,198.2L438.2,198.2z"/>
		<path d="M442.3,194.9c-0.1-0.2-0.3-0.3-0.5-0.4c-0.2-0.1-0.4-0.2-0.7-0.2c-0.3,0-0.6,0.1-0.9,0.3c-0.2,0.2-0.4,0.4-0.5,0.8
			c-0.1,0.3-0.2,0.8-0.2,1.3c0,0.9,0.2,1.5,0.5,1.9c0.3,0.3,0.6,0.5,1.1,0.5c0.3,0,0.6-0.1,0.9-0.3c0.2-0.2,0.4-0.4,0.5-0.8
			c0.1-0.3,0.2-0.8,0.2-1.3c0-0.5,0-0.8-0.1-1.1C442.6,195.3,442.5,195.1,442.3,194.9L442.3,194.9z M441.9,198.2
			c-0.2,0.3-0.4,0.4-0.7,0.4c-0.3,0-0.5-0.1-0.7-0.4c-0.2-0.3-0.3-0.8-0.3-1.5c0-0.8,0.1-1.3,0.3-1.6c0.2-0.2,0.4-0.3,0.6-0.3
			c0.3,0,0.5,0.1,0.7,0.4c0.2,0.3,0.3,0.8,0.3,1.5C442.1,197.4,442,198,441.9,198.2L441.9,198.2z"/>
		<path d="M431.6,194.9c-0.1-0.2-0.3-0.3-0.5-0.4c-0.2-0.1-0.4-0.2-0.7-0.2c-0.3,0-0.6,0.1-0.9,0.3c-0.2,0.2-0.4,0.4-0.5,0.8
			c-0.1,0.3-0.2,0.8-0.2,1.3c0,0.9,0.2,1.5,0.5,1.9c0.3,0.3,0.6,0.5,1.1,0.5c0.3,0,0.6-0.1,0.9-0.3c0.2-0.2,0.4-0.4,0.5-0.8
			c0.1-0.3,0.2-0.8,0.2-1.3c0-0.5,0-0.8-0.1-1.1C431.9,195.3,431.8,195.1,431.6,194.9L431.6,194.9z M431.2,198.2
			c-0.2,0.3-0.4,0.4-0.7,0.4c-0.3,0-0.5-0.1-0.7-0.4c-0.2-0.3-0.3-0.8-0.3-1.5c0-0.8,0.1-1.3,0.3-1.6c0.2-0.2,0.4-0.3,0.6-0.3
			c0.3,0,0.5,0.1,0.7,0.4c0.2,0.3,0.3,0.8,0.3,1.5C431.4,197.4,431.3,198,431.2,198.2L431.2,198.2z"/>
		<path d="M434.8,199v-4.7h-0.4c-0.1,0.2-0.3,0.4-0.5,0.6c-0.2,0.2-0.5,0.4-0.9,0.6v0.6c0.2-0.1,0.4-0.2,0.6-0.3
			c0.2-0.1,0.4-0.3,0.6-0.4v3.7H434.8z"/>
	</g>
</g>
<g>
	<g>
		<path d="M422.2,202.5c-0.3,0.2-0.5,0.4-0.9,0.5v0.6c0.2-0.1,0.4-0.2,0.6-0.3c0.2-0.1,0.4-0.3,0.6-0.4v3.7h0.6v-4.7h-0.4
			C422.6,202.1,422.5,202.3,422.2,202.5L422.2,202.5z"/>
		<path d="M408.4,202.7c-0.1-0.2-0.3-0.3-0.5-0.4c-0.2-0.1-0.4-0.2-0.7-0.2c-0.3,0-0.6,0.1-0.9,0.3c-0.2,0.2-0.4,0.4-0.5,0.8
			c-0.1,0.3-0.2,0.8-0.2,1.3c0,0.9,0.2,1.5,0.5,1.9c0.3,0.3,0.6,0.5,1.1,0.5c0.4,0,0.6-0.1,0.9-0.3c0.2-0.2,0.4-0.4,0.5-0.8
			c0.1-0.3,0.2-0.8,0.2-1.3c0-0.5,0-0.8-0.1-1.1C408.6,203.1,408.5,202.9,408.4,202.7L408.4,202.7z M407.9,206.1
			c-0.2,0.3-0.4,0.4-0.7,0.4c-0.3,0-0.5-0.1-0.7-0.4c-0.2-0.3-0.3-0.8-0.3-1.5c0-0.8,0.1-1.3,0.3-1.6c0.2-0.2,0.4-0.3,0.6-0.3
			c0.3,0,0.5,0.1,0.7,0.4c0.2,0.3,0.3,0.8,0.3,1.5C408.2,205.3,408.1,205.8,407.9,206.1L407.9,206.1z"/>
		<path d="M410.7,202.8c-0.2,0.2-0.5,0.4-0.9,0.6v0.6c0.2-0.1,0.4-0.2,0.6-0.3c0.2-0.1,0.4-0.3,0.6-0.4v3.7h0.6v-4.7h-0.4
			C411.1,202.3,411,202.5,410.7,202.8L410.7,202.8z"/>
		<path d="M413.9,202.8c-0.2,0.2-0.5,0.4-0.9,0.6v0.6c0.2-0.1,0.4-0.2,0.6-0.3c0.2-0.1,0.4-0.3,0.6-0.4v3.7h0.6v-4.7h-0.4
			C414.4,202.3,414.2,202.5,413.9,202.8L413.9,202.8z"/>
		<path d="M419,202.7c-0.1-0.2-0.3-0.3-0.5-0.4c-0.2-0.1-0.4-0.2-0.7-0.2c-0.3,0-0.6,0.1-0.9,0.3c-0.2,0.2-0.4,0.4-0.5,0.8
			c-0.1,0.3-0.2,0.8-0.2,1.3c0,0.9,0.2,1.5,0.5,1.9c0.3,0.3,0.6,0.5,1.1,0.5c0.3,0,0.6-0.1,0.9-0.3c0.2-0.2,0.4-0.4,0.5-0.8
			c0.1-0.3,0.2-0.8,0.2-1.3c0-0.5,0-0.8-0.1-1.1C419.3,203.1,419.2,202.9,419,202.7L419,202.7z M418.6,206.1
			c-0.2,0.3-0.4,0.4-0.7,0.4c-0.3,0-0.5-0.1-0.7-0.4c-0.2-0.3-0.3-0.8-0.3-1.5c0-0.8,0.1-1.3,0.3-1.6c0.2-0.2,0.4-0.3,0.6-0.3
			c0.3,0,0.5,0.1,0.7,0.4c0.2,0.3,0.3,0.8,0.3,1.5C418.8,205.3,418.8,205.8,418.6,206.1L418.6,206.1z"/>
		<path d="M441.8,202.5c-0.3,0.2-0.5,0.4-0.9,0.5v0.6c0.2-0.1,0.4-0.2,0.6-0.3c0.2-0.1,0.4-0.3,0.6-0.4v3.7h0.6v-4.7h-0.4
			C442.3,202.1,442.1,202.3,441.8,202.5L441.8,202.5z"/>
		<path d="M428,202.7c-0.1-0.2-0.3-0.3-0.5-0.4c-0.2-0.1-0.4-0.2-0.7-0.2c-0.3,0-0.6,0.1-0.9,0.3c-0.2,0.2-0.4,0.4-0.5,0.8
			c-0.1,0.3-0.2,0.8-0.2,1.3c0,0.9,0.2,1.5,0.5,1.9c0.3,0.3,0.6,0.5,1.1,0.5c0.4,0,0.6-0.1,0.9-0.3c0.2-0.2,0.4-0.4,0.5-0.8
			c0.1-0.3,0.2-0.8,0.2-1.3c0-0.5,0-0.8-0.1-1.1C428.3,203.1,428.2,202.9,428,202.7L428,202.7z M427.6,206.1
			c-0.2,0.3-0.4,0.4-0.7,0.4c-0.3,0-0.5-0.1-0.7-0.4c-0.2-0.3-0.3-0.8-0.3-1.5c0-0.8,0.1-1.3,0.3-1.6c0.2-0.2,0.4-0.3,0.6-0.3
			c0.3,0,0.5,0.1,0.7,0.4c0.2,0.3,0.3,0.8,0.3,1.5C427.8,205.3,427.8,205.8,427.6,206.1L427.6,206.1z"/>
		<path d="M430.4,202.8c-0.2,0.2-0.5,0.4-0.9,0.6v0.6c0.2-0.1,0.4-0.2,0.6-0.3c0.2-0.1,0.4-0.3,0.6-0.4v3.7h0.6v-4.7h-0.4
			C430.8,202.3,430.6,202.5,430.4,202.8L430.4,202.8z"/>
		<path d="M433.6,202.8c-0.2,0.2-0.5,0.4-0.9,0.6v0.6c0.2-0.1,0.4-0.2,0.6-0.3c0.2-0.1,0.4-0.3,0.6-0.4v3.7h0.6v-4.7h-0.4
			C434,202.3,433.8,202.5,433.6,202.8L433.6,202.8z"/>
		<path d="M438.7,202.7c-0.1-0.2-0.3-0.3-0.5-0.4c-0.2-0.1-0.4-0.2-0.7-0.2c-0.3,0-0.6,0.1-0.9,0.3c-0.2,0.2-0.4,0.4-0.5,0.8
			c-0.1,0.3-0.2,0.8-0.2,1.3c0,0.9,0.2,1.5,0.5,1.9c0.3,0.3,0.6,0.5,1.1,0.5c0.3,0,0.6-0.1,0.9-0.3c0.2-0.2,0.4-0.4,0.5-0.8
			c0.1-0.3,0.2-0.8,0.2-1.3c0-0.5,0-0.8-0.1-1.1C438.9,203.1,438.8,202.9,438.7,202.7L438.7,202.7z M438.2,206.1
			c-0.2,0.3-0.4,0.4-0.7,0.4c-0.3,0-0.5-0.1-0.7-0.4c-0.2-0.3-0.3-0.8-0.3-1.5c0-0.8,0.1-1.3,0.3-1.6c0.2-0.2,0.4-0.3,0.6-0.3
			c0.3,0,0.5,0.1,0.7,0.4c0.2,0.3,0.3,0.8,0.3,1.5C438.5,205.3,438.4,205.8,438.2,206.1L438.2,206.1z"/>
	</g>
</g>
<g>
	<g>
		<rect x="110" y="85.9" class="st1" width="29.6" height="2.6"/>
	</g>
</g>
<g>
	<g>
		<rect x="100.1" y="100.7" class="st1" width="39.5" height="2.6"/>
	</g>
</g>
<g>
	<g>
		<rect x="100.1" y="110.6" class="st1" width="39.5" height="2.6"/>
	</g>
</g>
<g>
	<g>
		<rect x="100.1" y="120.5" class="st1" width="39.5" height="2.6"/>
	</g>
</g>
<g>
	<polygon points="66.5,304.8 37.7,304.8 37.7,289.2 40.8,289.2 40.8,301.8 66.5,301.8 	"/>
</g>
<g>
	<polygon points="101.6,268.8 98.5,268.8 98.5,256.2 72.8,256.2 72.8,253.1 101.6,253.1 	"/>
</g>
<g>
	<path d="M636.5,156H632c-0.6,0-1.2-0.5-1.2-1.2v-2.6c0-0.1-0.1-0.2-0.2-0.2c-1-0.3-1.9-0.7-2.8-1.2c-0.1-0.1-0.2,0-0.3,0l-1.9,1.9
		c-0.4,0.4-1.2,0.4-1.6,0l-3.2-3.2c-0.5-0.5-0.5-1.2,0-1.6l1.9-1.9c0.1-0.1,0.1-0.2,0-0.3c-0.5-0.9-0.9-1.8-1.2-2.8
		c0-0.1-0.1-0.2-0.2-0.2h-2.6c-0.6,0-1.2-0.5-1.2-1.2v-4.6c0-0.6,0.5-1.2,1.2-1.2h2.6c0.1,0,0.2-0.1,0.2-0.2c0.3-1,0.7-1.9,1.2-2.8
		c0.1-0.1,0-0.2,0-0.3l-1.9-1.9c-0.2-0.2-0.3-0.5-0.3-0.8c0-0.3,0.1-0.6,0.3-0.8l3.2-3.2c0.5-0.4,1.2-0.4,1.6,0l1.9,1.9
		c0.1,0.1,0.2,0.1,0.3,0c0.9-0.5,1.8-0.9,2.8-1.2c0.1,0,0.2-0.1,0.2-0.2v-2.6c0-0.6,0.5-1.2,1.2-1.2h4.5c0.6,0,1.2,0.5,1.2,1.2v2.6
		c0,0.1,0.1,0.2,0.2,0.2c1,0.3,1.9,0.7,2.8,1.2c0.1,0.1,0.2,0,0.3,0l1.9-1.9c0.5-0.4,1.2-0.5,1.6,0l3.2,3.2c0.2,0.2,0.3,0.5,0.3,0.8
		c0,0.3-0.1,0.6-0.3,0.8l-1.9,1.9c-0.1,0.1-0.1,0.2,0,0.3c0.5,0.9,0.9,1.8,1.2,2.8c0,0.1,0.1,0.2,0.2,0.2h2.6c0.6,0,1.2,0.5,1.2,1.2
		v4.6c0,0.6-0.5,1.2-1.2,1.2h-2.6c-0.1,0-0.2,0.1-0.2,0.2c-0.3,1-0.7,1.9-1.2,2.8c-0.1,0.1,0,0.2,0,0.3l1.9,1.9
		c0.5,0.5,0.5,1.2,0,1.6l-3.2,3.2c-0.4,0.5-1.2,0.5-1.6,0l-1.9-1.9c-0.1-0.1-0.2-0.1-0.3,0c-0.9,0.5-1.8,0.9-2.8,1.2
		c-0.1,0-0.2,0.1-0.2,0.2v2.6C637.7,155.5,637.2,156,636.5,156z M627.7,149.9c0.2,0,0.4,0,0.6,0.2c0.8,0.5,1.7,0.8,2.6,1.1
		c0.5,0.1,0.9,0.6,0.9,1.1v2.6c0,0.1,0.1,0.2,0.2,0.2h4.5c0.1,0,0.2-0.1,0.2-0.2v-2.6c0-0.5,0.4-1,0.9-1.1c0.9-0.3,1.8-0.6,2.6-1.1
		c0.5-0.3,1-0.2,1.4,0.2l1.9,1.9c0.1,0.1,0.2,0.1,0.3,0l3.2-3.2c0.1-0.1,0.1-0.2,0-0.3l-1.9-1.9c-0.4-0.4-0.4-0.9-0.2-1.4
		c0.5-0.8,0.8-1.7,1.1-2.6c0.1-0.5,0.6-0.9,1.1-0.9h2.6c0.1,0,0.2-0.1,0.2-0.2v-4.6c0-0.1-0.1-0.2-0.2-0.2h-2.6
		c-0.5,0-1-0.4-1.1-0.9c-0.3-0.9-0.6-1.8-1.1-2.6c-0.3-0.5-0.2-1,0.2-1.4l1.9-1.9c0.1-0.1,0.1-0.1,0.1-0.2c0,0,0-0.1-0.1-0.2
		l-3.2-3.2c-0.1-0.1-0.2-0.1-0.3,0l-1.9,1.9c-0.4,0.4-0.9,0.4-1.4,0.2c-0.8-0.5-1.7-0.8-2.6-1.1c-0.5-0.1-0.9-0.6-0.9-1.1v-2.6
		c0-0.1-0.1-0.2-0.2-0.2H632c-0.1,0-0.2,0.1-0.2,0.2v2.6c0,0.5-0.4,1-0.9,1.1c-0.9,0.3-1.8,0.6-2.6,1.1c-0.5,0.3-1,0.2-1.4-0.2
		l-1.9-1.9c-0.1-0.1-0.2-0.1-0.3,0l-3.2,3.2c-0.1,0.1-0.1,0.1-0.1,0.2c0,0,0,0.1,0.1,0.2l1.9,1.9c0.4,0.4,0.4,0.9,0.2,1.4
		c-0.5,0.8-0.8,1.7-1.1,2.6c-0.1,0.5-0.6,0.9-1.1,0.9h-2.6c-0.1,0-0.2,0.1-0.2,0.2v4.6c0,0.1,0.1,0.2,0.2,0.2h2.6
		c0.5,0,1,0.3,1.1,0.9c0.3,0.9,0.6,1.8,1.1,2.6c0.3,0.5,0.2,1-0.2,1.4l-1.9,1.9c-0.1,0.1-0.1,0.2,0,0.3l3.2,3.2
		c0.1,0.1,0.1,0.1,0.2,0.1s0.1,0,0.2-0.1l1.9-1.9C627.1,150,627.4,149.9,627.7,149.9z M634.3,146.5c-3.9,0-7.1-3.2-7.1-7.1
		c0-3.9,3.2-7.1,7.1-7.1c3.9,0,7.1,3.2,7.1,7.1C641.4,143.3,638.2,146.5,634.3,146.5z M634.3,133.2c-3.4,0-6.2,2.8-6.2,6.2
		c0,3.4,2.8,6.2,6.2,6.2c3.4,0,6.2-2.8,6.2-6.2C640.4,136,637.7,133.2,634.3,133.2z"/>
</g>
<polyline class="st7" points="221.9,249.2 221.9,234.6 544.8,234.6 544.8,249.2 "/>
<line class="st7" x1="359.8" y1="218.9" x2="359.8" y2="266.5"/>
</svg>
