<?xml version="1.0" encoding="utf-8"?>
<!-- Generator: Adobe Illustrator 22.0.1, SVG Export Plug-In . SVG Version: 6.00 Build 0)  -->
<svg version="1.1" id="Layer_1" xmlns="http://www.w3.org/2000/svg" xmlns:xlink="http://www.w3.org/1999/xlink" x="0px" y="0px"
	 viewBox="0 0 750 400" style="enable-background:new 0 0 750 400;" xml:space="preserve">
<style type="text/css">
	.st0{fill:none;stroke:#FFFFFF;stroke-width:2;stroke-miterlimit:10;}
	.st1{fill:#40875E;}
	.st2{fill:#A8A240;}
	.st3{fill:#F0AB00;}
	.st4{fill:#939598;}
	.st5{fill:#C2C3C9;}
	.st6{fill:#FFFFFF;}
	.st7{fill:none;stroke:#000000;stroke-miterlimit:10;}
	.st8{fill-rule:evenodd;clip-rule:evenodd;fill:#0B4A99;}
	.st9{fill:#0B4A99;}
	.st10{fill-rule:evenodd;clip-rule:evenodd;fill:#40875E;}
	.st11{fill-rule:evenodd;clip-rule:evenodd;fill:#A8A240;}
	.st12{fill-rule:evenodd;clip-rule:evenodd;fill:#F0AB00;}
	.st13{fill:none;}
	.st14{fill:#3F865E;}
	.st15{fill:#A6A03C;}
	.st16{fill:#EEAA1F;}
	.st17{fill:#158ECE;}
	.st18{fill:none;stroke:#FFFFFF;stroke-miterlimit:10;}
	.st19{fill:#EBEBEB;}
	.st20{fill:#FCBB3C;}
	.st21{fill:#3F3F3F;}
	.st22{fill:#FDBC38;}
</style>
<path class="st1" d="M618,296.5c0,14.6-11.8,26.5-26.5,26.5c-14.6,0-26.5-11.8-26.5-26.5c0-14.6,11.8-26.5,26.5-26.5
	C606.2,270.1,618,281.9,618,296.5z M591.5,267.4c-16.1,0-29.1,13-29.1,29.1c0,16.1,13,29.1,29.1,29.1c16.1,0,29.1-13,29.1-29.1
	C620.7,280.4,607.6,267.4,591.5,267.4z"/>
<path class="st3" d="M571.4,260.5c0,0-0.1-0.7,0.1-1.4c0,0-1.2,1.3-0.9,3c0,0,0.4,2.3,2.8,3.1c0,0-1.3-1-1.4-1.9
	c0,0,0.1,0.1,0.4,0.2c0,0,0.4,0.2,0.9,0v-0.4c0,0-0.4-0.6-0.4-1.3v-0.9c0,0,0-0.5,0.1-0.5c0,0,0.1-0.1,0.1,0.2c0,0,0.1,0.8,0.2,1
	c0,0,0.1,0.1,0.1-0.2V261c0,0,0.1-0.2,0.2-0.4c0,0,0.6-0.7,0.7-1.2v-0.7c0,0,0.1-0.4,0.3,0v1c0,0,0,0.9-0.2,1.3c0,0-0.2,0.2-0.1,0.4
	v0.9c0,0,0.1,0.7,0.8,0.8c0,0,0.8,0.1,1.2-0.7h0.5v0.7c0,0,0.1,0.9-1.2,1.8l-0.3,0.2c0,0,4.1-1.4,1.3-5.8v1.3c0,0-0.8,1.5-1,0.3
	v-0.6l0.2-0.3c0,0,1.1-2.8-3.1-3.7c0,0,0.8,0.4,0.9,0.9v1.1l-0.8-0.7v0.8c-0.1,1-0.9,2.1-0.9,2.1s-0.2,0.3-0.4,0.3
	C571.5,260.8,571.4,260.7,571.4,260.5z"/>
<path class="st3" d="M581.5,277.1c0,0,0.1-0.5-0.1-1c0,0,1,0.9,0.7,2.2c0,0-0.3,1.7-2.3,2.3c0,0,1.1-0.7,1.2-1.4
	c0,0-0.1,0.1-0.3,0.2c0,0-0.3,0.1-0.7,0V279c0,0,0.3-0.5,0.3-0.9v-0.7c0,0,0-0.4-0.1-0.4c0,0-0.1-0.1-0.1,0.2c0,0,0,0.6-0.2,0.7
	c0,0-0.1,0.1-0.1-0.2v-0.3c0,0-0.1-0.2-0.2-0.3c0,0-0.5-0.5-0.5-0.9v-0.5c0,0-0.1-0.3-0.3,0v0.7c0,0,0,0.7,0.1,0.9
	c0,0,0.1,0.2,0.1,0.3v0.7c0,0-0.1,0.5-0.6,0.6c0,0-0.6,0.1-1-0.5h-0.4v0.5c0,0,0,0.7,1,1.3l0.2,0.1c0,0-3.3-1-1-4.2v0.9
	c0,0,0.7,1.1,0.8,0.2v-0.5l-0.2-0.2c0,0-0.9-2,2.5-2.7c0,0-0.6,0.3-0.8,0.7v0.8l0.6-0.5v0.6c0,0.7,0.8,1.5,0.8,1.5s0.2,0.2,0.3,0.2
	C581.4,277.3,581.5,277.2,581.5,277.1z"/>
<rect x="571.8" y="265.8" class="st2" width="4.3" height="38.6"/>
<rect x="576.8" y="280.9" class="st2" width="4.3" height="23.4"/>
<path class="st2" d="M565.4,304H583v18C583,322,570.6,319.5,565.4,304z"/>
<path class="st2" d="M588.5,323.4v-24.5h-5.5c0,0-1,0.1-1-1v-10.8c0,0-0.2-1.2,1.1-1.1h6.2v-0.4c0,0,0-0.4,0.4-0.4h1.4v-3.6
	c0,0,0.5-3.8,5-4.4v-5c0,0,0.6-1,1.4-0.1v5.1c0,0,3.9,1.1,4.3,4.6v41.5h-10.8v-34.6h-1.4c0,0-0.3,0-0.3-0.4v-1h-6v10.3h6.9v25.8
	L588.5,323.4z"/>
<path class="st2" d="M607.8,258.4v10.5c0,0-3.8,0.9-3.8,4.5v47.5c0,0,8-2.5,10.9-11.8v-35.6c0,0,0.3-3.4-3.7-4.5V264
	c0,0-0.7-1.1-1.4,0v4.7h-0.6v-10.4C609.2,258.4,608.5,257.5,607.8,258.4z"/>
<path class="st3" d="M604.1,283.2c-0.8,0-1.5-0.6-1.5-1.4l0,0c0-0.8,0.7-1.4,1.5-1.4V283.2z"/>
<path class="st3" d="M604.1,292.3c-0.8,0-1.5-0.6-1.5-1.4l0,0c0-0.8,0.7-1.4,1.5-1.4V292.3z"/>
<path class="st3" d="M604.1,301.6c-0.8,0-1.5-0.6-1.5-1.4l0,0c0-0.8,0.7-1.4,1.5-1.4V301.6z"/>
<path class="st3" d="M614.7,292.3c0.8,0,1.5-0.6,1.5-1.4l0,0c0-0.8-0.7-1.4-1.5-1.4V292.3z"/>
<path class="st3" d="M614.7,301.6c0.8,0,1.5-0.6,1.5-1.4l0,0c0-0.8-0.7-1.4-1.5-1.4V301.6z"/>
<path class="st3" d="M604.1,311.6c-0.8,0-1.5-0.6-1.5-1.4l0,0c0-0.8,0.7-1.4,1.5-1.4V311.6z"/>
<g>
	<path class="st3" d="M97,129.1c0,0,2-5.9,4.4-0.2v6.7l5.9,1l7.4,1.2v1.9h-14.4v7.2l2.5,2v1.1h-7.3v-1.2l2.2-2v-7H83.9v-2l13.1-2.3
		L97,129.1z"/>
	<path class="st1" d="M91.9,148.6c-0.9-2-1.5-4.1-1.8-6.4l3.7-0.7l1.6,5.7L91.9,148.6z"/>
	<path class="st1" d="M98.8,152.5c3.6-0.2,5.5-1.9,5.5-1.9c1.7,5.8,8.6,7.1,8.6,7.1c12.1,2.5,22.4-6.6,22.4-6.6
		c5.8-5.5,2.9-0.1,2.9-0.1c-4.4,7.9-12.8,13.2-22.5,13.2c-9.4,0-17.7-5.1-22.2-12.7C93.4,151.5,96.7,152.6,98.8,152.5z"/>
	<path class="st1" d="M94.3,132.8c2.3-9.2,10.8-16.1,20.9-16.1c11.9,0,21.5,9.5,21.5,21.2c0,4.4-1.3,8.4-3.6,11.8l-0.2,0.8
		c6.8-3.5,7.6-5.8,7.6-5.8c0.5-2,0.8-4.1,0.8-6.3c0-14.2-11.5-25.7-25.7-25.7c-12,0-22.1,8.2-24.9,19.3L94.3,132.8z"/>
	<rect x="116.1" y="137.6" class="st1" width="21.3" height="2.4"/>
	<path class="st1" d="M121.9,117.3c0,0,7.3,7,9,14v11.4v2.8c0,0-1.5,8.7-9.3,12.7l-0.8-0.3c0,0,4.6-2.2,6.7-11.5v-9.6v-7.3
		c0,0-2.2-6.8-7.4-12.3C120.1,117.1,118.6,114.9,121.9,117.3z"/>
	<path class="st1" d="M105.3,125.4c0,0,0.2-2.8,5.4-8.3c0,0,1.5-2.2-1.8,0.2c0,0-3.4,2.7-6.1,7.9L105.3,125.4z"/>
	<path class="st1" d="M116,117.3c0,0,5.3,7,7,14v11.4v2.8c0,0-1.5,10.7-9.3,14.7l-0.7-0.6c0,0,4.5-3.9,6.5-13.3v-9.6v-7.3
		c0,0-1.4-7.4-6.6-12.8C112.9,116.6,112.7,114.9,116,117.3z"/>
	<path class="st1" d="M113.8,116.7c0,0-3.7,7.6-5.3,14.6v11.4v2.8c0,0,1.6,10.2,7.3,14.7l0.7-0.6c0,0-2.5-3.9-4.6-13.3v-9.6v-7.3
		c0,0,1.9-9.2,5.8-13C117.6,116.4,117.1,114.3,113.8,116.7z"/>
	<path class="st1" d="M130.4,122.4c-2.9,2.7-7.9,4.5-13.6,4.5c-5.3,0-9.9-1.5-12.8-3.9l-1.4,2.2c3.3,2.4,8.2,3.6,14.2,3.6
		c6.4,0,12.1-1.8,15.3-4.5L130.4,122.4z"/>
	<path class="st1" d="M104.8,153.3c2.9-2.7,8.5-4.9,14.2-4.9c5.3,0,9.9,1.5,14,2.2l1.4-2.2c-4.5-0.7-9.4-1.9-15.3-1.9
		c-6.4,0-12.6,2.3-15.8,5L104.8,153.3z"/>
	<path class="st2" d="M93.4,138c0,0.6-0.5,1.1-1.1,1.1h0c-0.6,0-1.1-0.5-1.1-1.1v-3c0-0.6,0.5-1.1,1.1-1.1h0c0.6,0,1.1,0.5,1.1,1.1
		V138z"/>
	<path class="st2" d="M106.8,138c0,0.6-0.5,1.1-1.1,1.1h0c-0.6,0-1.1-0.5-1.1-1.1v-3c0-0.6,0.5-1.1,1.1-1.1h0c0.6,0,1.1,0.5,1.1,1.1
		V138z"/>
</g>
<rect x="442.8" y="76.3" class="st10" width="5.4" height="3.5"/>
<g>
	<polygon class="st11" points="416.6,42.6 410.9,50.3 410.9,56.1 410.9,70.9 409.6,70.9 409.6,72 410.8,72 410.8,73.2 409.7,73.2 
		409.7,77.4 410.7,77.4 410.7,79.8 411.7,79.8 411.7,77.6 412.9,77.6 412.9,73.3 411.8,73.3 411.8,72 412.8,72 412.8,71 411.8,71 
		411.8,55.8 416.3,51.7 417.1,51.7 436.7,59.3 439.3,60.4 440.3,57.5 417.5,48.5 417.5,42.5 	"/>
	<rect x="436.9" y="58.9" class="st11" width="1" height="4.4"/>
	<rect x="437.2" y="63.3" class="st11" width="0.5" height="4.5"/>
	<rect x="424.9" y="54.6" class="st10" width="3.2" height="3.4"/>
	<polygon class="st10" points="423.2,75.2 421.7,76.5 425.1,54.4 426.5,54.8 	"/>
	<polygon class="st10" points="429.9,75.2 431.5,76.5 428.1,54.4 426.7,54.8 	"/>
	<polygon class="st10" points="429.7,67 429.2,67.5 424.5,61.8 425,61.3 	"/>
	<polygon class="st10" points="422.7,72.7 423.2,73.2 429.8,67.7 429.3,67.2 	"/>
	<rect x="422.8" y="72.2" class="st10" width="7.6" height="1"/>
	<rect x="423.5" y="66.7" class="st10" width="6.3" height="1"/>
	<path class="st12" d="M442.9,69.8c0,1-0.8,1.9-1.9,1.9c-1,0-1.9-0.8-1.9-1.9c0-1,0.8-1.9,1.9-1.9C442,67.9,442.9,68.7,442.9,69.8z
		 M441,67.4c-1.3,0-2.3,1.1-2.3,2.3c0,1.3,1.1,2.3,2.3,2.3c1.3,0,2.3-1.1,2.3-2.3C443.3,68.5,442.3,67.4,441,67.4z"/>
	<rect x="439" y="69.5" class="st12" width="4.1" height="0.5"/>
	
		<rect x="439" y="69.5" transform="matrix(0.4888 -0.8724 0.8724 0.4888 164.5978 420.4264)" class="st12" width="4.1" height="0.5"/>
	
		<rect x="440.7" y="67.7" transform="matrix(0.8725 -0.4886 0.4886 0.8725 22.1302 224.3563)" class="st12" width="0.5" height="4.1"/>
	<path class="st12" d="M438.8,68.3v-1H436v5.1h2.8v-1.4C438.8,71.1,437.9,70,438.8,68.3z"/>
	<path class="st10" d="M430.8,72.8h13.4c0,0,0.5,0,0.1,0.5c0,0-1,1.7-3.1,2.6h-0.7v-0.4H435v0.4h-0.7
		C434.3,75.9,432,74.9,430.8,72.8z"/>
	<rect x="432.4" y="79.4" class="st10" width="10.6" height="0.3"/>
	<path class="st12" d="M443.5,69.1l1.4,1.4l0.3-0.2l1.8,2.1l0.1,1.4l-2.6-0.4c0,0,0.4-0.7-0.1-0.9l-1,0L443,72l-0.9,0l0.2-0.1h0.7
		l1.8-1.4l-1.3-1.3V69.1z"/>
	<rect x="432.8" y="76.2" class="st10" width="1.9" height="3.3"/>
	<path class="st10" d="M449.6,74.4h-6.4v0.2h0.2c-1.2,1.1-2.2,1.5-2.2,1.5h8.4V74.4z"/>
	<rect x="435.3" y="75.8" class="st10" width="5" height="0.4"/>
	<rect x="436" y="76.1" class="st10" width="2.8" height="3.4"/>
	<path class="st10" d="M434.2,76.1h-1.7v3.6h-10.9V75h10.9C433.3,75.7,434.2,76.1,434.2,76.1z M432.1,75.3h-0.4v0.2h0.4V75.3z"/>
</g>
<g>
	<path class="st3" d="M92.1,284.7l-7.5-19.5v-8.2h0.7c0.3,0,0.6-0.3,0.6-0.7V255c0-0.4-0.3-0.7-0.6-0.7h-9c-0.3,0-0.6,0.3-0.6,0.7
		v1.4c0,0.4,0.3,0.7,0.6,0.7H77v8.2l-6.9,19.4c-1.8,3.2-0.5,5.7,2.7,5.7h16.6C92.7,290.4,93.9,287.9,92.1,284.7L92.1,284.7z
		 M79.1,266.4l0.2-0.6v-8.8h2.9v8.9l0.3,0.6l4.4,10.8l-10.1-4.2L79.1,266.4z M79.1,266.4"/>
	<path class="st10" d="M101.1,290.1v-48.6c-0.7,0-1.3-0.4-1.3-1l0,0c0-0.5,0.6-1,1.3-1h7.5c0.7,0,1.3,0.4,1.3,1l0,0
		c0,0.5-0.6,1-1.3,1v48.6H101.1z M107.9,245.8c0-0.4-0.4-0.8-0.8-0.8h-4.4c-0.4,0-0.8,0.4-0.8,0.8v3.6c0,0.5,0.4,0.8,0.8,0.8h4.4
		c0.4,0,0.8-0.4,0.8-0.8V245.8z M107.9,254.5c0-0.4-0.4-0.8-0.8-0.8h-4.4c-0.4,0-0.8,0.4-0.8,0.8v3.6c0,0.4,0.4,0.8,0.8,0.8h4.4
		c0.4,0,0.8-0.4,0.8-0.8V254.5z M107.9,262.9c0-0.5-0.4-0.8-0.8-0.8h-4.4c-0.4,0-0.8,0.4-0.8,0.8v3.6c0,0.4,0.4,0.8,0.8,0.8h4.4
		c0.4,0,0.8-0.4,0.8-0.8V262.9z M107.9,271.3c0-0.5-0.4-0.8-0.8-0.8h-4.4c-0.4,0-0.8,0.4-0.8,0.8v3.6c0,0.4,0.4,0.8,0.8,0.8h4.4
		c0.4,0,0.8-0.4,0.8-0.8V271.3z M107.9,280c0-0.4-0.4-0.8-0.8-0.8h-4.4c-0.4,0-0.8,0.4-0.8,0.8v3.6c0,0.4,0.4,0.8,0.8,0.8h4.4
		c0.4,0,0.8-0.4,0.8-0.8V280z M103.7,288H102v1.4h1.7V288z M107.8,288h-3.4v1.4h3.4V288z"/>
	<path class="st10" d="M123.1,290.1v-36.7c-0.5,0-1-0.3-1-0.8l0,0c0-0.4,0.4-0.8,1-0.8h5.7c0.5,0,1,0.3,1,0.8l0,0
		c0,0.4-0.4,0.8-1,0.8v36.7H123.1z"/>
	<rect x="100.6" y="267.5" class="st11" width="1" height="1.5"/>
	<rect x="97.4" y="268" class="st11" width="3.8" height="0.5"/>
	<rect x="97.4" y="268.1" class="st11" width="0.5" height="6.4"/>
	<rect x="93.9" y="287.4" class="st11" width="0.5" height="2.4"/>
	<rect x="133" y="287.4" class="st11" width="0.5" height="2.4"/>
	<rect x="152.4" y="287.4" class="st11" width="0.5" height="2.4"/>
	<path class="st10" d="M99,274.9V290h-2.6v-15.2C96.4,274.9,97.6,272.9,99,274.9z"/>
	<rect x="108.3" y="241.9" class="st11" width="3" height="0.4"/>
	<rect x="108.3" y="250.6" class="st11" width="3" height="0.4"/>
	<rect x="108.3" y="259.3" class="st11" width="3" height="0.4"/>
	<rect x="108.3" y="268" class="st11" width="3" height="0.4"/>
	<rect x="108.3" y="276.7" class="st11" width="3" height="0.4"/>
	<rect x="93.9" y="287.3" class="st11" width="59.1" height="0.4"/>
	<rect x="93.9" y="289.5" class="st11" width="59.1" height="0.6"/>
	<rect x="110.7" y="242.1" class="st11" width="0.6" height="48"/>
	<rect x="148" y="241.9" class="st11" width="3" height="0.4"/>
	<rect x="148" y="250.6" class="st11" width="3" height="0.4"/>
	<rect x="148" y="259.3" class="st11" width="3" height="0.4"/>
	<rect x="148" y="268" class="st11" width="3" height="0.4"/>
	<rect x="148" y="276.7" class="st11" width="3" height="0.4"/>
	<rect x="148" y="285.4" class="st11" width="3" height="0.4"/>
	<rect x="150.3" y="242.1" class="st11" width="0.6" height="48"/>
	<rect x="108.4" y="264.7" class="st11" width="35.4" height="1"/>
	<rect x="110.3" y="264.4" class="st11" width="1.4" height="1.6"/>
	<rect x="110.3" y="273.9" class="st11" width="1.4" height="1.6"/>
	<rect x="108.2" y="273.9" class="st11" width="1.4" height="1.9"/>
	<rect x="110.3" y="283.9" class="st11" width="1.4" height="2"/>
	<rect x="113.8" y="283.9" class="st11" width="1.9" height="2"/>
	<rect x="118.5" y="283.9" class="st8" width="2.8" height="2"/>
	<rect x="108.3" y="284.2" class="st11" width="39.9" height="1.7"/>
	<rect x="109.2" y="274.5" class="st11" width="6.1" height="0.8"/>
	<rect x="114.4" y="274.7" class="st11" width="0.9" height="15.4"/>
	<path class="st12" d="M125.4,242.5c0,0,1.9,2.7,1.2,4.4c-0.7,1.7-2.5,2.2,0.3,4.3c0,0-0.3-2.7,0.9-4.4
		C128.5,245.8,127.5,243.3,125.4,242.5z"/>
	<path class="st12" d="M136.8,254.7c0,0,1.3,1.8,0.8,2.9c-0.5,1.1-1.6,1.5,0.2,2.8c0,0-0.2-1.8,0.6-2.9
		C138.9,256.9,138.2,255.3,136.8,254.7z"/>
	<path class="st12" d="M136.8,254.7c0,0,1.3,1.8,0.8,2.9c-0.5,1.1-1.6,1.5,0.2,2.8c0,0-0.2-1.8,0.6-2.9
		C138.9,256.9,138.2,255.3,136.8,254.7z"/>
	<path class="st11" d="M132,259.3h-12.1v-3.2H132V259.3z M121.6,257.1h-1.1v1.5h1.1V257.1z M122.9,257.1h-0.8v1.5h0.8V257.1z
		 M130.2,258.6h1.1v-1.5h-1.1V258.6z M128.9,258.6h0.8v-1.5h-0.8V258.6z"/>
	<path class="st11" d="M129.9,262.5c0,0.4-0.4,0.8-0.8,0.8h-6.2c-0.4,0-0.8-0.4-0.8-0.8l0,0c0-0.4,0.4-0.8,0.8-0.8h6.2
		C129.6,261.7,129.9,262.1,129.9,262.5L129.9,262.5z"/>
	<path class="st11" d="M129.9,272.3c0,0.4-0.4,0.8-0.8,0.8h-6.2c-0.4,0-0.8-0.4-0.8-0.8l0,0c0-0.4,0.4-0.8,0.8-0.8h6.2
		C129.6,271.5,129.9,271.8,129.9,272.3L129.9,272.3z"/>
	<path class="st11" d="M129.9,282.1c0,0.4-0.4,0.8-0.8,0.8h-6.2c-0.4,0-0.8-0.4-0.8-0.8l0,0c0-0.4,0.4-0.8,0.8-0.8h6.2
		C129.6,281.3,129.9,281.6,129.9,282.1L129.9,282.1z"/>
	<path class="st10" d="M134.7,290.1v-27.9c-0.4,0-0.7-0.3-0.7-0.6l0,0c0-0.3,0.3-0.6,0.7-0.6h4.4c0.4,0,0.7,0.3,0.7,0.6l0,0
		c0,0.3-0.3,0.6-0.7,0.6v27.9H134.7z"/>
	<path class="st11" d="M139.9,269.1c0,0.3-0.3,0.6-0.6,0.6h-4.7c-0.3,0-0.6-0.3-0.6-0.6l0,0c0-0.3,0.3-0.6,0.6-0.6h4.7
		C139.6,268.5,139.9,268.7,139.9,269.1L139.9,269.1z"/>
	<path class="st11" d="M139.9,276.5c0,0.3-0.3,0.6-0.6,0.6h-4.7c-0.3,0-0.6-0.3-0.6-0.6l0,0c0-0.3,0.3-0.6,0.6-0.6h4.7
		C139.6,275.9,139.9,276.2,139.9,276.5L139.9,276.5z"/>
	<path class="st11" d="M139.9,284c0,0.3-0.3,0.6-0.6,0.6h-4.7c-0.3,0-0.6-0.3-0.6-0.6l0,0c0-0.3,0.3-0.6,0.6-0.6h4.7
		C139.6,283.3,139.9,283.6,139.9,284L139.9,284z"/>
	<path class="st10" d="M143.1,290.1v-50.8c-0.4,0-0.7-0.3-0.7-0.6l0,0c0-0.3,0.3-0.6,0.7-0.6h5.5c0.4,0,0.7,0.3,0.7,0.6l0,0
		c0,0.3-0.3,0.6-0.7,0.6v50.8H143.1z"/>
	<rect x="111" y="269.6" class="st11" width="8.8" height="0.7"/>
	<rect x="122.6" y="267.5" class="st11" width="1" height="1.5"/>
	<rect x="119.4" y="268" class="st11" width="3.8" height="0.5"/>
	<rect x="119.4" y="268.1" class="st11" width="0.5" height="6.4"/>
	<path class="st10" d="M121,274.9V290h-2.6v-15.2C118.4,274.9,119.7,272.9,121,274.9z"/>
	<rect x="64.5" y="292.5" class="st10" width="93.1" height="2.9"/>
</g>
<g>
	<rect x="210.2" y="185.1" class="st13" width="4.1" height="3.7"/>
	<rect x="210.2" y="179.1" class="st13" width="4.1" height="3.7"/>
	<rect x="223.8" y="184.7" class="st13" width="3.4" height="3.7"/>
	<rect x="204.1" y="179.1" class="st13" width="4.1" height="3.7"/>
	<rect x="198.1" y="185.1" class="st13" width="4.1" height="3.7"/>
	<rect x="198.1" y="179.1" class="st13" width="4.1" height="3.7"/>
	<rect x="204.1" y="185.1" class="st13" width="4.1" height="3.7"/>
	<rect x="229.1" y="184.7" class="st13" width="3.4" height="3.7"/>
	<rect x="252.5" y="178.9" class="st13" width="4.3" height="3.7"/>
	<rect x="252.5" y="184.9" class="st13" width="4.3" height="3.7"/>
	<rect x="246.8" y="178.9" class="st13" width="3.4" height="3.7"/>
	<rect x="241" y="184.9" class="st13" width="3.4" height="3.7"/>
	<rect x="241" y="178.9" class="st13" width="3.4" height="3.7"/>
	<rect x="246.8" y="184.9" class="st13" width="3.4" height="3.7"/>
	<path class="st1" d="M254.9,172.8h-8.6V169h-9.7v3.2H234v-17.7h-4v22h1.4l1.2-1.7h1.1l0.7,0.7l-3.6,3.7h-1.5v-1.8H227l-5.2,3.1
		v11.2h41.7v-12.4L254.9,172.8z M227.2,188.4h-3.4v-3.7h3.4V188.4z M232.5,188.4h-3.4v-3.7h3.4V188.4z M244.5,188.6H241v-3.7h3.4
		V188.6z M244.5,182.6H241v-3.7h3.4V182.6z M250.2,188.6h-3.4v-3.7h3.4V188.6z M250.2,182.6h-3.4v-3.7h3.4V182.6z M256.8,188.6h-4.3
		v-3.7h4.3V188.6z M256.8,182.6h-4.3v-3.7h4.3V182.6z"/>
	<path class="st2" d="M217.9,169.3h-10v3.4H200l-9.1,6.8v12.4h29.6v-19.1h-2.6V169.3z M202.2,188.8h-4.1v-3.7h4.1V188.8z
		 M202.2,182.8h-4.1v-3.7h4.1V182.8z M208.2,188.8h-4.1v-3.7h4.1V188.8z M208.2,182.8h-4.1v-3.7h4.1V182.8z M214.3,188.8h-4.1v-3.7
		h4.1V188.8z M214.3,182.8h-4.1v-3.7h4.1V182.8z"/>
</g>
<path class="st0" d="M602.3,121c10.1,23.8,15.6,49.9,15.6,77.3c0,17.5-2.3,34.4-6.5,50.5"/>
<path class="st0" d="M232.3,130.7C260,54.3,333.2-0.3,419.2-0.3c54.9,0,104.5,22.2,140.5,58.2"/>
<path class="st0" d="M569.1,328.7C532.6,370.6,479,397,419.2,397c-100,0-182.8-73.9-196.6-170.1"/>
<path class="st0" d="M547.1,226.6c-12.9,58.8-65.3,102.8-127.9,102.8c-4.9,0-9.7-0.3-14.4-0.8"/>
<path class="st0" d="M461.5,74.3c39.2,13.4,70,44.8,82.6,84.4"/>
<path class="st0" d="M330.5,294.7c-26-23.9-42.3-58.3-42.3-96.4c0-63.9,45.8-117.1,106.3-128.7"/>
<g>
	<path class="st6" d="M419.2,287.3c-6.9,0-13.3-0.9-20-2.5l-0.8-2.1c6.5,1.5,14,2.5,20.7,2.5c48,0,87-39,87-87s-39-87-87-87
		s-87,39-87,87c0,28.1,13.9,54.8,36.8,71.1l-2.1,0.9c-23.4-16.7-36.7-43.2-36.7-72c0-49.1,39.9-89,89-89s89,39.9,89,89
		S468.3,287.3,419.2,287.3z"/>
</g>
<circle class="st0" cx="419.2" cy="198.3" r="76.8"/>
<circle class="st18" cx="593" cy="290.5" r="45.3"/>
<circle class="st18" cx="585.7" cy="86.5" r="38.7"/>
<circle class="st18" cx="428.3" cy="64.5" r="34.3"/>
<circle class="st18" cx="548.3" cy="192.5" r="34.3"/>
<circle class="st18" cx="227.7" cy="179.2" r="48.3"/>
<circle class="st18" cx="117.7" cy="267.9" r="64.3"/>
<circle class="st18" cx="116.3" cy="138.5" r="40.7"/>
<circle class="st18" cx="368.3" cy="310.5" r="40.7"/>
<path class="st18" d="M471.3,79.2C472.7,76.5,503,18,503,18"/>
<line class="st18" x1="483" y1="156.2" x2="554.5" y2="110.5"/>
<line class="st18" x1="541.3" y1="151.2" x2="650.7" y2="113.9"/>
<line class="st18" x1="488.7" y1="231.5" x2="553.5" y2="267.5"/>
<line class="st18" x1="471" y1="255.2" x2="506.3" y2="296.5"/>
<line class="st18" x1="442.3" y1="271.2" x2="464.7" y2="346.5"/>
<line class="st18" x1="251.3" y1="303.2" x2="184.7" y2="347.2"/>
<line class="st18" x1="139.5" y1="328.5" x2="149.3" y2="349.9"/>
<line class="st18" x1="116" y1="179.2" x2="116" y2="203.5"/>
<line class="st18" x1="180" y1="254" x2="290.7" y2="226.5"/>
<line class="st18" x1="276.5" y1="184" x2="342.3" y2="189.9"/>
<line class="st18" x1="239.3" y1="113.9" x2="350.3" y2="163.2"/>
<line class="st18" x1="312" y1="125.9" x2="355.7" y2="154.9"/>
<line class="st18" x1="427.5" y1="100" x2="426.7" y2="122.2"/>
<g>
	<ellipse id="XMLID_1399_" class="st14" cx="417.8" cy="197.1" rx="50.9" ry="50.1"/>
	<path id="XMLID_1392_" class="st19" d="M419.4,147c-0.8,1.4-1.8,2.5-3.3,2.9c-3.4,0.9-6.1-0.3-7.7-2c-11.9,2.2-22.4,8.5-29.9,17.4
		c2.5-0.4,5.2-0.2,7.8,1.4c0,0-4.6,0.4-4.4,3.9c0.2,3.5,4.2,0.1,6.1,2.8c1.9,2.7,5.2-0.8,2.9-2.8c-2.3-2,0.3-4.8,2.4-3.4
		c2.1,1.3,2.4,3.9,1.2,6.6c-1.2,2.7,3.4,2.1,4.5,4.6c1.1,2.5-0.1,4.9-0.1,4.9l3.6-2.7c0.9-0.7,2.2-0.6,3,0.2l0.9,0.9
		c0,0-2.1,0.5-2.3,2.1c-0.2,1.6,3.6,1,3.7,3.2c0.1,2.2,3.4,2.5,3.7-0.5c0.3-3,2-3.3,2-3.3s-0.5-3-3.5-3c-3-0.1-2.1-3.1-2.1-3.1
		s-2.5-0.5-1.6-3.1c0.9-2.6-4.1-5.4,2.1-7.6c6.2-2.1,3.9-4.8,3.9-4.8l-3-0.8c0,0,4.7-1.3,4.7-4.1c0-2.8,5.1-4.5,6.2,0.1
		c1.1,4.6-1.6,6-1.6,6s3.4-0.2,3.4,1.7c0,1.9-2.8,3.1-2.8,3.1s0.3,3.8-1.5,4.2c-1.8,0.4-1.6-1.7-1.6-1.7s-3.3-0.2-2.5,2.1
		c0.8,2.3-0.1,6.8-0.1,6.8s3,1.7,2.5,4.4c-0.5,2.8-1.5,5.7,2.1,7.4c3.6,1.7,3.3,4.8,3.3,4.8l3.6,3.9c0,0-1.2,2.3,0.7,3.1
		c1.9,0.8,2.3-2.1,7.2-0.3c4.9,1.8,6.5,1.1,7.2,0.2c0,0,4,1.3,5.7-3.6c0,0,3.4-2.6,1.3-7.1c0,0,2.3-2.5,0.8-5.5
		c-1.5-2.9,0.4-5.7,2.1-5.8c0,0-0.6-3,1.8-2.9c2.4,0.1,1.9,2.8,1.9,2.8s3.5-3.7,7.4-1.2c0,0-0.3,4.6,2.4,4.3
		c1.2-0.1,2.6,0.4,3.7,1.1C461.8,163.6,442.6,147.7,419.4,147z"/>
	<path id="XMLID_1388_" class="st19" d="M467.7,185.3l-0.5-0.3c-1.4-0.8-2.6-1.1-3.6-1c-0.6,0.1-1.2-0.1-1.6-0.5
		c-1.1-1-1.1-3.3-1.1-4c-3.7-2.2-6.8,1.1-7,1.2l-0.6,0.7l0.2-0.9c0,0,0.2-1.2-0.3-1.9c-0.3-0.4-0.7-0.6-1.3-0.6
		c-0.5,0-0.9,0.1-1.2,0.4c-0.6,0.7-0.3,2.2-0.3,2.2l0.1,0.3l-0.3,0c-0.6,0-1.3,0.5-1.8,1.3c-0.7,1.2-0.8,2.8-0.1,4.2
		c1.3,2.7-0.3,5.1-0.8,5.6c1.9,4.2-1,6.8-1.4,7.2c-1.6,4.4-5,3.9-5.9,3.7c-1.1,1.3-3.4,1.2-7.4-0.3c-2.9-1.1-4.1-0.5-5.1,0
		c-0.7,0.3-1.3,0.6-2.1,0.3c-0.6-0.2-0.9-0.6-1.1-1.1c-0.3-0.8,0-1.8,0.2-2.2l-3.5-3.9l0-0.1c0-0.1,0.2-2.9-3.2-4.5
		c-3.4-1.7-2.9-4.5-2.4-7c0-0.2,0.1-0.5,0.1-0.7c0.5-2.5-2.4-4.1-2.4-4.2l-0.2-0.1l0-0.2c0,0,0.9-4.5,0.1-6.7
		c-0.2-0.6-0.2-1.2,0.1-1.6c0.7-0.9,2.5-0.8,2.6-0.8l0.3,0l0,0.3c0,0-0.1,0.9,0.3,1.3c0.2,0.2,0.5,0.2,0.9,0.2
		c1.3-0.3,1.4-2.9,1.3-3.9l0-0.2l0.2-0.1c0,0,2.6-1.1,2.6-2.9c0-0.3-0.1-0.6-0.3-0.8c-0.8-0.8-2.7-0.7-2.8-0.7l-1.2,0.1l1.1-0.6
		c0.1-0.1,2.5-1.4,1.5-5.7c-0.4-1.8-1.6-2.8-3.2-2.6c-1.2,0.1-2.5,1.1-2.5,2.5c0,0,0,0,0,0.1c0,2.2-2.7,3.5-4,4l2.3,0.6l0.1,0.1
		c0,0,0.7,0.8,0.4,1.9c-0.4,1.3-1.9,2.4-4.4,3.3c-1.6,0.5-2.5,1.2-2.8,1.9c-0.4,0.8,0,1.7,0.4,2.6c0.4,0.9,0.8,1.9,0.5,2.9
		c-0.2,0.7-0.2,1.3,0,1.8c0.4,0.8,1.4,0.9,1.4,0.9l0.3,0.1l-0.1,0.3c0,0-0.4,1.3,0.2,2.1c0.3,0.4,0.9,0.6,1.6,0.7
		c3.2,0.1,3.7,3.2,3.7,3.2l0,0.2l-0.2,0.1c-0.1,0-1.5,0.4-1.8,3.1c-0.2,1.7-1.3,2.4-2.3,2.4c-0.9,0-1.9-0.7-1.9-2c0-1-1-1.3-1.9-1.7
		c-0.9-0.3-1.8-0.6-1.7-1.6c0.1-1.3,1.4-2,2.1-2.2l-0.6-0.6c-0.7-0.7-1.9-0.8-2.7-0.2l-4.4,3.4l0.5-1c0,0,1.2-2.3,0.1-4.7
		c-0.5-1-1.5-1.5-2.6-1.9c-0.9-0.4-1.8-0.8-2.1-1.5c-0.2-0.4-0.1-0.9,0.1-1.4c1.2-2.7,0.8-5.1-1.1-6.3c-1-0.6-2-0.2-2.5,0.5
		c-0.5,0.6-0.6,1.6,0.4,2.5c0.8,0.6,1,1.5,0.8,2.4c-0.3,0.9-1,1.6-1.9,1.8c-0.5,0.1-1.4,0-2.2-1.1c-0.8-1.2-2.1-1.1-3.3-1
		c-0.9,0.1-1.7,0.1-2.3-0.4c-0.4-0.3-0.6-0.8-0.6-1.5c-0.2-2.8,2.6-3.8,3.9-4.1c-2-1.1-4.4-1.4-7-1l-0.7,0.1l0.4-0.5
		c7.6-9.1,18.3-15.4,30-17.5l0.1,0l0.1,0.1c0.9,0.9,3.4,3,7.5,2c1.3-0.3,2.3-1.3,3.1-2.7l0.1-0.1l0.2,0c22.8,0.7,42.6,16.3,48.1,38
		L467.7,185.3z M461.4,179.7c0,0.7,0,2.6,0.9,3.4c0.3,0.3,0.7,0.4,1.2,0.4c0.9-0.1,2.1,0.2,3.4,0.8c-5.7-21.2-25.1-36.3-47.3-37.1
		c-0.9,1.5-2,2.5-3.4,2.9c-2.9,0.8-5.9,0-7.9-2c-11.3,2.1-21.7,8.1-29.1,16.8c2.7-0.3,5.2,0.2,7.3,1.5l0.6,0.4l-0.8,0.1
		c-0.2,0-4.3,0.5-4.2,3.6c0,0.6,0.2,1,0.4,1.2c0.4,0.3,1.1,0.3,1.9,0.3c1.2-0.1,2.7-0.2,3.7,1.2c0.5,0.7,1,1,1.7,0.9
		c0.7-0.1,1.3-0.7,1.5-1.4c0.1-0.4,0.2-1.2-0.6-1.9c-1.3-1.1-1.1-2.5-0.5-3.2c0.7-0.9,2-1.4,3.3-0.6c2.1,1.4,2.6,4,1.3,6.9
		c-0.2,0.4-0.2,0.8-0.1,1c0.2,0.5,1,0.8,1.8,1.2c1.1,0.5,2.3,1,2.8,2.2c0.8,1.7,0.5,3.3,0.2,4.3l2.8-2.1c1-0.8,2.5-0.7,3.4,0.3
		l1.2,1.2l-0.4,0.1c0,0-2,0.5-2.1,1.9c0,0.5,0.5,0.7,1.4,1.1c1,0.3,2.2,0.8,2.3,2.1c0,1,0.8,1.4,1.4,1.5c0.7,0,1.6-0.5,1.7-1.9
		c0.3-2.4,1.4-3.2,1.9-3.5c-0.2-0.6-0.8-2.6-3.2-2.6c-0.9,0-1.6-0.3-2-0.9c-0.6-0.8-0.5-1.9-0.4-2.3c-0.4-0.1-1.1-0.4-1.5-1.1
		c-0.4-0.6-0.4-1.3-0.1-2.2c0.3-0.8-0.1-1.6-0.5-2.5c-0.4-1-0.9-2-0.4-3c0.4-0.9,1.4-1.6,3.1-2.2c3-1,3.9-2.2,4.1-2.9
		c0.2-0.7-0.1-1.2-0.2-1.4l-3.8-1.1l0.9-0.2c0,0,4.4-1.2,4.5-3.8c0,0,0-0.1,0-0.1c0-1.6,1.5-2.8,3-2.9c1.4-0.2,3.2,0.5,3.7,3
		c0.8,3.3-0.3,5-1.1,5.8c0.7,0,1.8,0.2,2.4,0.8c0.3,0.3,0.5,0.7,0.5,1.2c0,1.8-2.2,3-2.8,3.3c0,0.8,0.1,3.9-1.7,4.3
		c-0.6,0.1-1.1,0-1.4-0.3c-0.4-0.4-0.5-1-0.5-1.4c-0.6,0-1.5,0.1-1.9,0.6c-0.2,0.3-0.2,0.6-0.1,1.1c0.7,2.1,0.1,5.9-0.1,6.8
		c0.7,0.4,3,2,2.5,4.6c0,0.2-0.1,0.5-0.1,0.7c-0.5,2.5-1,4.9,2.1,6.4c3.3,1.6,3.5,4.3,3.5,4.9l3.6,4l-0.1,0.2c0,0-0.5,1.1-0.2,1.9
		c0.1,0.4,0.4,0.6,0.8,0.8c0.6,0.3,1.1,0.1,1.7-0.2c1-0.5,2.4-1.2,5.5-0.1c5,1.8,6.4,1,6.9,0.3l0.1-0.1l0.2,0.1
		c0.2,0,3.8,1.1,5.4-3.4l0-0.1l0.1,0c0.1-0.1,3.3-2.5,1.3-6.8l-0.1-0.2l0.1-0.1c0.1-0.1,2.2-2.4,0.8-5.2c-0.8-1.5-0.7-3.3,0.1-4.6
		c0.5-0.8,1.2-1.4,1.9-1.5c-0.1-0.5-0.1-1.6,0.5-2.3c0.4-0.4,0.9-0.6,1.6-0.6c0.7,0,1.3,0.3,1.7,0.8c0.4,0.5,0.5,1.1,0.5,1.6
		c1.1-0.9,4.1-2.8,7.3-0.8l0.1,0.1l0,0.2C461.4,179.4,461.4,179.5,461.4,179.7z"/>
	<path id="XMLID_1385_" class="st19" d="M442.7,227.3c0.5,5.3-7.4,6.9-7.4,6.9s-0.4,3.7-4.6,3.2c-4.2-0.5-6.8,2.8-6.8,2.8
		s-7.1-0.3-8.6,1.8c-1.5,2.1-4.9,1.9-4.9,1.9s-3.3-0.7-0.7,0.9c1.1,0.7,1.4,1.4,1.4,1.9c1.9,0.3,3.9,0.4,5.9,0.4
		c10.6,0.2,20.4-2.8,28.6-8.1c-0.5-1.3,0.3-3,2.9-4.1c5.1-2.3,3.1-5,3.1-5s-3.8-0.2-2.8-2.7c1-2.5-0.4-2.7-0.4-2.7
		C446.9,227.9,442.7,227.3,442.7,227.3z"/>
	<path id="XMLID_1378_" class="st19" d="M366.9,196.8c-0.1,17.2,8.7,32.5,22.2,41.6c-0.1-0.2-2.3-2.8,3.5-1.4c0,0-0.8-2.8-3.9-4.9
		c-3.1-2.1-4.4-4.5-2.6-5.2c0,0-2.9-1.3-1.6-3.5l1.8,0c0,0,1.4-2-0.8-3.8c0,0-1.3,1.8-2.9,0.7c-1.6-1.1-1.7-4.7,1-4.8
		c2.7-0.1,2.8,1.8,2.8,1.8s2.4-1.1,0.4-4.2s-5.2-0.8-5.2-0.8s-3.5,0.4-4.8-3.4l-0.5,1.3c-0.2,0.4-0.8,0.5-1,0
		c-0.4-0.7-0.9-1.5-1.8-1.4c-1.6,0.2-0.7,2.6,1.4,4.8s0.4,4.7,0.4,4.7s-0.2-2-3-3.9c-2.8-1.9-3-7.5,0.1-6.8l-0.9-2.2
		c-0.1-0.3,0.3-0.6,0.6-0.4l2.3,2c0,0,2.2-1-1.1-4.1c-3.3-3.1-3.2-5.1-2.8-6c0,0-1.3,0-1.6,2.7C368.5,201.2,367.7,199.2,366.9,196.8
		z"/>
	<path id="XMLID_1371_" class="st19" d="M370.8,193.6c0,0,2.8,2,4.8,6.8c1.9,4.8,5.8,3.1,5.9,0.1c0,0-2.8,1.1-3.2-4.1
		c-0.3-5.2-3.2-9.3-3.2-9.3l-3-0.7C372,186.4,372.4,190.6,370.8,193.6z"/>
	<path id="XMLID_1367_" class="st19" d="M381.7,200.1l0,0.4c-0.1,1.6-1.1,2.9-2.5,3.1c-1.6,0.3-3-0.9-3.9-3.1
		c-1.9-4.6-4.6-6.6-4.7-6.7l-0.2-0.1l0.1-0.2c1.6-2.9,1.2-7,1.2-7l0-0.3l3.5,0.8l0.1,0.1c0,0,2.9,4.3,3.3,9.5
		c0.1,1.9,0.6,3.2,1.4,3.7c0.7,0.4,1.3,0.2,1.4,0.2L381.7,200.1z M371.1,193.5c0.7,0.5,3,2.6,4.7,6.8c0.8,2,2.1,3,3.4,2.8
		c1-0.2,1.8-1.1,2-2.3c-0.4,0-0.9,0-1.4-0.3c-1-0.6-1.5-2-1.7-4.1c-0.3-4.6-2.7-8.5-3.1-9.1l-2.6-0.6
		C372.4,187.8,372.4,191,371.1,193.5z"/>
	<path id="XMLID_1364_" class="st19" d="M366.9,192.7c1.3-0.6,2.6-1.9,3.1-4.5c1.1-5.8,4.3-4.6,4.3-4.6l-0.4-3.1l-2-1.1
		c0,0,1-2.6,0.6-5.3C369.5,179.7,367.6,186,366.9,192.7z"/>
	<path id="XMLID_1360_" class="st19" d="M374.6,184l-0.4-0.1c0,0-0.8-0.3-1.7,0.2c-1.1,0.6-1.8,2.1-2.2,4.2
		c-0.4,2.3-1.5,3.9-3.2,4.7l-0.4,0.2l0-0.5c0.6-6.6,2.5-12.9,5.6-18.8l0.4-0.7l0.1,0.8c0.3,2.3-0.3,4.6-0.5,5.3l1.9,1L374.6,184z
		 M367.3,192.3c1.3-0.8,2.2-2.2,2.5-4.1c0.4-2.4,1.3-3.9,2.5-4.6c0.7-0.4,1.3-0.4,1.7-0.3l-0.3-2.6l-2.1-1.1l0.1-0.2
		c0,0,0.8-2.1,0.7-4.4C369.6,180.4,367.9,186.2,367.3,192.3z"/>
	<path id="XMLID_1357_" class="st19" d="M390,182.1c0.1,0.8,0.9,1.2,1.6,0.9c0.4-0.2,1-0.4,1.6-0.8c2.2-1.4,3.9,1.3,3.9,1.3
		s1.6-4.7-1.6-5.4c-2.8-0.6-2.5,1.9-4.7,2.7c-0.5,0.2-0.9,0.7-0.8,1.2L390,182.1z"/>
	<path id="XMLID_1353_" class="st19" d="M397.8,181.2c0,1.2-0.4,2.3-0.4,2.4l-0.2,0.5l-0.3-0.5c0,0-0.8-1.3-1.9-1.5
		c-0.5-0.1-1.1,0-1.6,0.3c-0.6,0.4-1.2,0.7-1.7,0.9c-0.4,0.2-0.9,0.1-1.3-0.1c-0.4-0.2-0.7-0.6-0.7-1.1l0-0.1
		c-0.1-0.7,0.3-1.3,1-1.5c0.9-0.3,1.3-0.9,1.8-1.4c0.6-0.8,1.3-1.7,3.1-1.3c0.8,0.2,1.4,0.6,1.7,1.2
		C397.7,179.7,397.8,180.5,397.8,181.2z M397,182.9c0.2-0.8,0.5-2.5-0.2-3.6c-0.3-0.5-0.8-0.8-1.4-1c-1.5-0.3-1.9,0.3-2.6,1.1
		c-0.5,0.6-1,1.3-2,1.6c-0.4,0.1-0.7,0.5-0.6,1l0,0.1c0,0.3,0.2,0.5,0.5,0.7c0.2,0.1,0.5,0.2,0.8,0c0.5-0.2,1-0.5,1.6-0.8
		c0.7-0.4,1.3-0.5,2-0.4C396,181.8,396.7,182.5,397,182.9z"/>
	<path id="XMLID_1350_" class="st19" d="M378.1,188.2c0.2,1.9,3.2,1.7,3-0.3c0,0,0,0,0-0.1c-0.2-2.3-2.6-2.1-2.9-0.5
		C378.1,187.7,378.1,188,378.1,188.2z"/>
	<path id="XMLID_1346_" class="st19" d="M381.4,188.1c0,1-0.8,1.6-1.6,1.7c-0.9,0.1-1.8-0.4-1.9-1.5v0c0-0.3,0-0.6,0.1-0.9
		c0.2-0.9,1-1.5,1.8-1.4c0.7,0,1.5,0.6,1.6,2l0,0.1C381.4,188,381.4,188.1,381.4,188.1z M378.4,188.2c0.1,0.8,0.7,1.1,1.3,1.1
		c0.6,0,1.2-0.5,1.2-1.3l0-0.1c-0.1-0.9-0.5-1.4-1.1-1.5c-0.5,0-1.1,0.3-1.3,1C378.4,187.7,378.3,188,378.4,188.2L378.4,188.2z"/>
	<path id="XMLID_1343_" class="st19" d="M401.5,241.4c0,0,1-1.8-2.6-1.8c-2.1,0-3.4,1.1-5.5,1.5c0.5,0.3,1.1,0.6,1.6,0.8
		C395,241.9,399,240.4,401.5,241.4z"/>
	<path id="XMLID_1336_" class="st19" d="M404.1,238.4c0.8,0,1.4,0.4,1.4,0.8c0,0.4-0.6,0.8-1.4,0.8c-0.8,0-1.4-0.4-1.4-0.8
		C402.7,238.7,403.3,238.3,404.1,238.4z"/>
	<path id="XMLID_1328_" class="st19" d="M394.1,184.1c0.7,0,1.3,0.5,1.3,1.2c0,0.6-0.6,1.1-1.4,1.1c-0.7,0-1.3-0.5-1.3-1.2
		C392.8,184.6,393.4,184.1,394.1,184.1z"/>
	<path id="XMLID_1324_" class="st19" d="M395.7,185.3c0,0.8-0.7,1.4-1.6,1.4c-0.9,0-1.6-0.7-1.6-1.4c0-0.8,0.7-1.4,1.6-1.4
		C395,183.9,395.7,184.5,395.7,185.3z M393,185.3c0,0.5,0.5,0.9,1.1,0.9c0.6,0,1.1-0.4,1.1-0.9c0-0.5-0.5-0.9-1.1-0.9
		C393.5,184.4,393,184.8,393,185.3z"/>
	<path id="XMLID_1321_" class="st19" d="M433.2,204.8c0.7,0,1.3,0.5,1.3,1.1c0,0.6-0.6,1.1-1.4,1.1c-0.7,0-1.3-0.5-1.3-1.1
		C431.8,205.2,432.4,204.7,433.2,204.8z"/>
	<path id="XMLID_1314_" class="st19" d="M430.4,206.5c0.5,0,0.9,0.4,0.9,0.9c0,0.5-0.4,0.9-0.9,0.9s-0.9-0.4-0.9-0.9
		C429.5,206.9,429.9,206.5,430.4,206.5z"/>
	<path id="XMLID_1307_" class="st19" d="M412.6,168.7c0.8-0.2,1.7-0.7,1.7-2.3l0,0c-0.6-0.5-1.5-0.4-1.9,0.3c-0.3,0.5-0.8,1-1.4,0.9
		l0.1,0.3C411.4,168.6,412,168.9,412.6,168.7z"/>
	<path id="XMLID_1300_" class="st19" d="M389.1,219.5c0.8-0.2,1.7-0.7,1.7-2.3l0,0c-0.6-0.5-1.5-0.4-1.9,0.3c-0.3,0.5-0.8,1-1.4,0.9
		l0.1,0.3C387.9,219.3,388.5,219.6,389.1,219.5z"/>
	<path id="XMLID_1293_" class="st19" d="M461.9,188.2c-0.3,0.2-0.1,0.7,0.2,0.7c1,0.1,2.5,0.4,3.7,1.6c1.3,1.5,0.5,2.5-0.1,2.9
		c-0.2,0.1-0.2,0.4,0,0.6c2,2,2.9,7.2,2.9,7.5c0.1-1.1,0.2-2.3,0.2-3.5c0.1-3.2-0.2-6.4-0.7-9.5C465.4,186,463,187.3,461.9,188.2z"
		/>
	<path id="XMLID_1286_" class="st19" d="M375.1,169.9c1.2-0.9,2.6-1.6,4.1-1.4c0.2,0,0.4-0.3,0.2-0.4c-0.4-0.4-1.1-1-2-1.3
		C376.5,167.7,375.8,168.8,375.1,169.9z"/>
	<path id="XMLID_1279_" class="st19" d="M415.9,239.4c0,0,3.2-1.1,5.8-0.7c0,0-0.6-2.4-3.9-1.9C417.9,236.8,418.5,238,415.9,239.4z"
		/>
	<path id="XMLID_1271_" class="st14" d="M407.4,156.7c0,0,1.9,0.9,0.9,2.4c-1,1.5-4,0.8-5.9-0.4c0,0,2.7-1,1-3
		C401.8,153.7,407.8,153.3,407.4,156.7z"/>
	<path id="XMLID_1267_" class="st14" d="M408.9,158.3c0,0.3-0.1,0.6-0.3,0.9c-1.1,1.7-4.4,0.9-6.3-0.4l-0.4-0.3l0.5-0.2
		c0,0,1.2-0.4,1.4-1.2c0.1-0.4,0-0.9-0.4-1.3c-0.5-0.6-0.3-1.1-0.2-1.3c0.5-0.6,1.8-0.8,3-0.4c1.1,0.4,1.7,1.3,1.7,2.5
		c0.3,0.2,1,0.6,1.2,1.3C408.9,158,408.9,158.2,408.9,158.3z M403,158.7c1.9,1.1,4.4,1.4,5.2,0.3c0.2-0.3,0.3-0.6,0.2-0.9
		c-0.2-0.5-0.8-1-1-1.1l-0.2-0.1l0-0.2c0.2-1.3-0.8-1.9-1.3-2.1c-1-0.4-2.1-0.2-2.4,0.2c-0.1,0.2-0.1,0.4,0.2,0.7
		c0.5,0.6,0.7,1.2,0.5,1.8C404,158,403.4,158.5,403,158.7z"/>
	<path id="XMLID_1264_" class="st14" d="M434.2,149.6c0,0-2.8,1.8-5.4,1.4c-2.7-0.3-8.8-0.5-4,3.5c0,0,7.4-4.1,14.2-3.1
		C437.4,150.7,435.8,150.1,434.2,149.6z"/>
	<path id="XMLID_1260_" class="st19" d="M440.7,152l-1.8-0.3c-6.6-1-14,3-14,3l-0.2,0.1l-0.1-0.1c-1.5-1.3-2.1-2.2-1.8-3
		c0.6-1.5,4.8-1.1,6-1c2.5,0.3,5.2-1.3,5.3-1.4l0.1-0.1l0.1,0c1.6,0.5,3.2,1.2,4.8,1.9L440.7,152z M424.8,154.2
		c1-0.5,6.8-3.4,12.6-3.2c-1.1-0.4-2.1-0.8-3.1-1.2c-0.6,0.3-3,1.7-5.5,1.4c-2.4-0.3-5.1-0.2-5.4,0.6
		C423.1,152.2,423.2,152.9,424.8,154.2z"/>
	<path id="XMLID_1257_" class="st19" d="M445.1,243c-1.4,0.8-2.9,1.6-4.5,2.3l-0.2-0.5c1.5-0.7,3-1.5,4.4-2.3L445.1,243z"/>
	<path id="XMLID_1254_" class="st19" d="M438.5,246.3c-10.3,4.2-19.2,3.9-19.3,3.9l0-0.5c0.1,0,8.9,0.3,19.1-3.9L438.5,246.3z"/>
	<path id="XMLID_1250_" class="st19" d="M438.5,148.1l-0.3,0.5c-0.1-0.1-10.2-5.4-24.1-4.2c-3.4,0.3-6.8,0.9-10.1,1.8l-0.1-0.5
		c3.3-0.9,6.7-1.5,10.2-1.8C428.2,142.7,438.4,148.1,438.5,148.1z"/>
	<path id="XMLID_1247_" class="st19" d="M400.4,147.3c-5.6,2-8.8,4.2-8.9,4.3l-0.3-0.4c0,0,3.3-2.3,9-4.3L400.4,147.3z"/>
	<g id="XMLID_72_">
		<g id="XMLID_75_">
			<path id="XMLID_1234_" class="st19" d="M378.4,252c-2.4,0-4.4-0.6-6-1.9c-5-4-4.5-13.8,1.4-27.6l0.5,0.2
				c-5.7,13.3-6.3,23.1-1.6,27c9.4,7.6,36.4-9.6,60.4-38.3c18.9-22.6,30.8-46.4,29.5-59c-0.3-3-1.3-5.2-3.1-6.6
				c-4.3-3.5-12.5-1.8-23.1,4.6l-0.3-0.5c10.9-6.5,19.3-8.2,23.8-4.5c1.9,1.5,3,3.9,3.3,7c1.3,12.8-10.7,36.7-29.6,59.4
				C413.3,236,390.8,252,378.4,252z"/>
		</g>
		<g id="XMLID_74_">
			<path id="XMLID_1233_" class="st19" d="M445.9,222.7c-10.2,0-21.8-1-33.9-3.3c-29.6-5.4-54.4-16.2-61.7-26.8
				c-1.8-2.6-2.4-5-2-7.3c1.1-6.1,9.8-10.4,24.3-12l0.1,0.5c-14.1,1.6-22.7,5.8-23.8,11.6c-0.4,2.2,0.2,4.5,1.9,6.9
				c7.2,10.5,31.9,21.2,61.3,26.6c37.1,6.8,69,2.7,71.2-9c1-5.3-4.3-11.5-15-17.5l0.3-0.5c10.9,6.1,16.3,12.6,15.3,18.1
				C482.4,218.2,467.2,222.7,445.9,222.7z"/>
		</g>
		<g id="XMLID_73_">
			<path id="XMLID_1232_" class="st19" d="M439.2,261c-5.4,0-12.3-4.7-19.8-13.6l0.4-0.4c8.9,10.5,16.8,15.1,22.3,12.9
				c2.1-0.9,3.8-2.7,5-5.5c4.9-11.8,0.7-37.9-10.6-64.9c-14.3-34.3-35-58.6-46.2-54.1c-5.4,2.2-7.9,11.2-6.7,24.8l-0.5,0
				c-1.2-14,1.3-23.1,7-25.4c11.5-4.6,32.5,19.8,47,54.4c11.3,27.2,15.6,53.4,10.6,65.3c-1.2,3-3,4.9-5.3,5.8
				C441.3,260.8,440.3,261,439.2,261z"/>
		</g>
	</g>
	<g id="XMLID_1268_">
		<path id="XMLID_1273_" class="st20" d="M349.4,185.5c0,0.3-0.3,0.6-0.6,0.6c-0.3,0-0.6-0.3-0.6-0.6c0-0.3,0.3-0.6,0.6-0.6
			C349.1,184.9,349.4,185.2,349.4,185.5z"/>
		<path id="XMLID_1269_" class="st21" d="M348.8,186.4c-0.5,0-0.9-0.4-0.9-0.9c0-0.5,0.4-0.9,0.9-0.9c0.5,0,0.9,0.4,0.9,0.9
			C349.6,186,349.2,186.4,348.8,186.4z M348.8,185.2c-0.2,0-0.3,0.2-0.3,0.3c0,0.2,0.2,0.3,0.3,0.3c0.2,0,0.3-0.2,0.3-0.3
			C349.1,185.3,349,185.2,348.8,185.2z"/>
	</g>
	<g id="XMLID_1274_">
		<path id="XMLID_1280_" class="st20" d="M401.9,137.7c0,0.3-0.3,0.6-0.6,0.6s-0.6-0.3-0.6-0.6c0-0.3,0.3-0.6,0.6-0.6
			S401.9,137.3,401.9,137.7z"/>
		<path id="XMLID_1276_" class="st21" d="M401.3,138.5c-0.5,0-0.9-0.4-0.9-0.9c0-0.5,0.4-0.9,0.9-0.9c0.5,0,0.9,0.4,0.9,0.9
			C402.2,138.1,401.8,138.5,401.3,138.5z M401.3,137.3c-0.2,0-0.3,0.2-0.3,0.3c0,0.2,0.2,0.3,0.3,0.3c0.2,0,0.3-0.2,0.3-0.3
			C401.7,137.5,401.5,137.3,401.3,137.3z"/>
	</g>
	<g id="XMLID_1356_">
		<path id="XMLID_1362_" class="st20" d="M366.2,174.6c0,0.3-0.3,0.6-0.6,0.6c-0.3,0-0.6-0.3-0.6-0.6c0-0.3,0.3-0.6,0.6-0.6
			C365.9,174,366.2,174.3,366.2,174.6z"/>
		<path id="XMLID_1358_" class="st21" d="M365.6,175.5c-0.5,0-0.9-0.4-0.9-0.9c0-0.5,0.4-0.9,0.9-0.9c0.5,0,0.9,0.4,0.9,0.9
			C366.4,175.1,366,175.5,365.6,175.5z M365.6,174.3c-0.2,0-0.3,0.2-0.3,0.3c0,0.2,0.2,0.3,0.3,0.3c0.2,0,0.3-0.2,0.3-0.3
			C365.9,174.4,365.8,174.3,365.6,174.3z"/>
	</g>
	<g id="XMLID_1202_">
		<circle id="XMLID_1206_" class="st22" cx="409.3" cy="218.6" r="1.4"/>
		<path id="XMLID_1203_" class="st21" d="M409.3,220.3c-0.9,0-1.7-0.7-1.7-1.7c0-0.9,0.7-1.7,1.7-1.7c0.9,0,1.7,0.7,1.7,1.7
			C411,219.5,410.2,220.3,409.3,220.3z M409.3,217.4c-0.6,0-1.2,0.5-1.2,1.2c0,0.6,0.5,1.2,1.2,1.2c0.6,0,1.2-0.5,1.2-1.2
			C410.5,218,410,217.4,409.3,217.4z"/>
	</g>
	<g id="XMLID_1327_">
		<path id="XMLID_1334_" class="st22" d="M370.4,241.6c0,0.8-0.6,1.4-1.4,1.4c-0.8,0-1.4-0.6-1.4-1.4s0.6-1.4,1.4-1.4
			C369.8,240.2,370.4,240.9,370.4,241.6z"/>
		<path id="XMLID_1329_" class="st21" d="M369,243.3c-0.9,0-1.7-0.7-1.7-1.7c0-0.9,0.7-1.7,1.7-1.7c0.9,0,1.7,0.7,1.7,1.7
			C370.7,242.5,369.9,243.3,369,243.3z M369,240.5c-0.6,0-1.2,0.5-1.2,1.2c0,0.6,0.5,1.2,1.2,1.2c0.6,0,1.2-0.5,1.2-1.2
			C370.2,241,369.6,240.5,369,240.5z"/>
	</g>
	<g id="XMLID_1335_">
		<circle id="XMLID_1341_" class="st22" cx="461.7" cy="161.5" r="1.4"/>
		<path id="XMLID_1337_" class="st21" d="M461.7,163.2c-0.9,0-1.7-0.7-1.7-1.7c0-0.9,0.7-1.7,1.7-1.7c0.9,0,1.7,0.7,1.7,1.7
			C463.4,162.5,462.6,163.2,461.7,163.2z M461.7,160.4c-0.6,0-1.2,0.5-1.2,1.2c0,0.6,0.5,1.2,1.2,1.2c0.6,0,1.2-0.5,1.2-1.2
			C462.9,160.9,462.4,160.4,461.7,160.4z"/>
	</g>
	<g id="XMLID_1306_">
		<path id="XMLID_1312_" class="st22" d="M433.5,179.4c0,0.8-0.6,1.4-1.4,1.4s-1.4-0.6-1.4-1.4c0-0.8,0.6-1.4,1.4-1.4
			S433.5,178.6,433.5,179.4z"/>
		<path id="XMLID_1308_" class="st21" d="M432.1,181.1c-0.9,0-1.7-0.7-1.7-1.7c0-0.9,0.7-1.7,1.7-1.7c0.9,0,1.7,0.7,1.7,1.7
			C433.8,180.3,433,181.1,432.1,181.1z M432.1,178.3c-0.6,0-1.2,0.5-1.2,1.2c0,0.6,0.5,1.2,1.2,1.2s1.2-0.5,1.2-1.2
			C433.2,178.8,432.7,178.3,432.1,178.3z"/>
	</g>
	<path id="XMLID_1319_" class="st15" d="M406.1,139.9c0,0.8-0.6,1.4-1.4,1.4c-0.8,0-1.4-0.6-1.4-1.4s0.6-1.4,1.4-1.4
		C405.5,138.5,406.1,139.2,406.1,139.9z"/>
	<path id="XMLID_1315_" class="st21" d="M404.7,141.6c-0.9,0-1.7-0.7-1.7-1.7c0-0.9,0.7-1.7,1.7-1.7c0.9,0,1.7,0.7,1.7,1.7
		C406.4,140.9,405.6,141.6,404.7,141.6z M404.7,138.8c-0.6,0-1.2,0.5-1.2,1.2c0,0.6,0.5,1.2,1.2,1.2c0.6,0,1.2-0.5,1.2-1.2
		C405.9,139.3,405.4,138.8,404.7,138.8z"/>
	<circle id="XMLID_1326_" class="st15" cx="449.6" cy="241.1" r="1.4"/>
	<path id="XMLID_1322_" class="st21" d="M449.6,242.8c-0.9,0-1.7-0.7-1.7-1.7c0-0.9,0.7-1.7,1.7-1.7c0.9,0,1.7,0.7,1.7,1.7
		C451.3,242.1,450.5,242.8,449.6,242.8z M449.6,240c-0.6,0-1.2,0.5-1.2,1.2c0,0.6,0.5,1.2,1.2,1.2c0.6,0,1.2-0.5,1.2-1.2
		C450.8,240.5,450.3,240,449.6,240z"/>
	<g id="XMLID_1288_">
		<circle id="XMLID_1294_" class="st22" cx="471.6" cy="219.5" r="1.1"/>
		<path id="XMLID_1290_" class="st21" d="M471.6,220.9c-0.8,0-1.4-0.6-1.4-1.4c0-0.8,0.6-1.4,1.4-1.4c0.8,0,1.4,0.6,1.4,1.4
			C473,220.3,472.3,220.9,471.6,220.9z M471.6,218.7c-0.5,0-0.9,0.4-0.9,0.9c0,0.5,0.4,0.9,0.9,0.9s0.9-0.4,0.9-0.9
			C472.4,219.1,472.1,218.7,471.6,218.7z"/>
	</g>
	<g id="XMLID_1363_">
		<circle id="XMLID_1369_" class="st22" cx="355.7" cy="198" r="1.1"/>
		<path id="XMLID_1365_" class="st21" d="M355.7,199.4c-0.8,0-1.4-0.6-1.4-1.4c0-0.8,0.6-1.4,1.4-1.4c0.8,0,1.4,0.6,1.4,1.4
			C357,198.8,356.4,199.4,355.7,199.4z M355.7,197.2c-0.5,0-0.9,0.4-0.9,0.9s0.4,0.9,0.9,0.9c0.5,0,0.9-0.4,0.9-0.9
			S356.1,197.2,355.7,197.2z"/>
	</g>
	<g id="XMLID_1370_">
		<circle id="XMLID_1376_" class="st22" cx="447.4" cy="192.3" r="1.1"/>
		<path id="XMLID_1372_" class="st21" d="M447.4,193.7c-0.8,0-1.4-0.6-1.4-1.4c0-0.8,0.6-1.4,1.4-1.4c0.8,0,1.4,0.6,1.4,1.4
			C448.8,193,448.2,193.7,447.4,193.7z M447.4,191.4c-0.5,0-0.9,0.4-0.9,0.9s0.4,0.9,0.9,0.9c0.5,0,0.9-0.4,0.9-0.9
			S447.9,191.4,447.4,191.4z"/>
	</g>
	<path id="XMLID_1266_" class="st15" d="M350.2,189.9c0,0.6-0.5,1.1-1.1,1.1c-0.6,0-1.1-0.5-1.1-1.1c0-0.6,0.5-1.1,1.1-1.1
		C349.7,188.8,350.2,189.3,350.2,189.9z"/>
	<path id="XMLID_1262_" class="st21" d="M349.1,191.3c-0.8,0-1.4-0.6-1.4-1.4c0-0.8,0.6-1.4,1.4-1.4c0.8,0,1.4,0.6,1.4,1.4
		C350.5,190.7,349.9,191.3,349.1,191.3z M349.1,189.1c-0.5,0-0.9,0.4-0.9,0.9s0.4,0.9,0.9,0.9c0.5,0,0.9-0.4,0.9-0.9
		S349.6,189.1,349.1,189.1z"/>
	<path id="XMLID_1196_" class="st15" d="M403.7,218.9c-0.9,0.5-2,0.1-2.4-0.8c-0.5-0.9-0.1-2,0.8-2.4s2-0.1,2.4,0.8
		C405,217.3,404.6,218.4,403.7,218.9z"/>
	<path id="XMLID_919_" class="st21" d="M401.5,218.8c-0.2-0.2-0.3-0.3-0.4-0.5c-0.5-1-0.1-2.3,0.9-2.8c1-0.5,2.3-0.1,2.8,0.9
		c0.5,1,0.1,2.3-0.9,2.8l0,0C403.1,219.5,402.1,219.4,401.5,218.8z M404,216.2c-0.5-0.4-1.2-0.6-1.8-0.3c-0.8,0.4-1.1,1.3-0.7,2.1
		c0.4,0.8,1.3,1.1,2.1,0.7l0,0c0.8-0.4,1.1-1.3,0.7-2.1C404.2,216.4,404.1,216.3,404,216.2z"/>
	<path id="XMLID_1305_" class="st15" d="M430.7,172.4c0.1,1-0.7,1.9-1.7,1.9c-1,0.1-1.9-0.7-1.9-1.7c-0.1-1,0.7-1.9,1.7-1.9
		C429.8,170.7,430.6,171.5,430.7,172.4z"/>
	<path id="XMLID_1301_" class="st21" d="M429.7,174.5c-0.2,0.1-0.4,0.1-0.7,0.2c-1.1,0.1-2.1-0.8-2.2-1.9c-0.1-1.1,0.8-2.1,1.9-2.2
		c1.1-0.1,2.1,0.8,2.2,1.9l0,0C431,173.3,430.5,174.1,429.7,174.5z M428.3,171.1c-0.6,0.2-1,0.9-0.9,1.5c0.1,0.9,0.8,1.5,1.7,1.4
		c0.9-0.1,1.5-0.8,1.4-1.7l0,0c-0.1-0.9-0.8-1.5-1.7-1.4C428.6,171,428.4,171.1,428.3,171.1z"/>
	<path id="XMLID_1242_" class="st15" d="M462.7,146.3c0.2,1-0.5,1.9-1.5,2.1c-1,0.2-1.9-0.5-2.1-1.5c-0.2-1,0.5-1.9,1.5-2.1
		C461.6,144.6,462.6,145.3,462.7,146.3z"/>
	<path id="XMLID_1239_" class="st21" d="M461.9,148.4c-0.2,0.1-0.4,0.2-0.6,0.2c-1.1,0.2-2.2-0.6-2.4-1.7c-0.2-1.1,0.6-2.2,1.7-2.4
		c1.1-0.2,2.2,0.6,2.4,1.7l0,0C463.1,147.1,462.7,148,461.9,148.4z M460.2,145.2c-0.6,0.3-0.9,1-0.8,1.6c0.1,0.8,0.9,1.4,1.8,1.3
		c0.8-0.1,1.4-0.9,1.3-1.8l0,0c-0.1-0.8-0.9-1.4-1.8-1.3C460.5,145.1,460.4,145.1,460.2,145.2z"/>
	<path id="XMLID_1252_" class="st15" d="M371.6,235.7c-0.3,1-1.2,1.5-2.2,1.3c-1-0.3-1.5-1.2-1.3-2.2c0.3-1,1.2-1.5,2.2-1.3
		C371.3,233.8,371.9,234.8,371.6,235.7z"/>
	<path id="XMLID_1248_" class="st21" d="M370,237.3c-0.2,0-0.4,0-0.7-0.1c-1.1-0.3-1.8-1.4-1.5-2.5c0.3-1.1,1.4-1.8,2.5-1.5
		c1.1,0.3,1.8,1.4,1.5,2.5l0,0C371.6,236.7,370.9,237.3,370,237.3z M369.7,233.7c-0.6,0-1.2,0.5-1.4,1.2c-0.2,0.8,0.3,1.7,1.1,1.9
		c0.8,0.2,1.7-0.3,1.9-1.1l0,0c0.2-0.8-0.3-1.7-1.1-1.9C370.1,233.7,369.9,233.7,369.7,233.7z"/>
</g>
<path class="st10" d="M608,110.6c0,0.5-0.4,1-1,1h-42.5c-0.5,0-1-0.4-1-1l0,0c0-0.5,0.4-1,1-1H607C607.6,109.7,608,110.1,608,110.6
	L608,110.6z"/>
<g>
	<path class="st11" d="M607.8,106.2c0,1-0.8,1.9-1.9,1.9h-3.3c-1,0-1.9-0.8-1.9-1.9V90.3c0-1,0.8-1.9,1.9-1.9h3.3
		c1,0,1.9,0.8,1.9,1.9V106.2z"/>
	<path class="st11" d="M599.3,106.2c0,1,1.5,1.9,0.5,1.9h-1.9c-1,0-1.9-0.8-1.9-1.9V90.3c0-1,0.8-1.9,1.9-1.9h1.9
		c1,0-0.5,0.8-0.5,1.9V106.2z"/>
	<path class="st11" d="M594.7,106.2c0,1,1.5,1.9,0.5,1.9h-1.9c-1,0-1.9-0.8-1.9-1.9V90.3c0-1,0.8-1.9,1.9-1.9h1.9
		c1,0-0.5,0.8-0.5,1.9V106.2z"/>
	<path class="st11" d="M590.1,106.2c0,1,1.5,1.9,0.5,1.9h-1.9c-1,0-1.9-0.8-1.9-1.9V90.3c0-1,0.8-1.9,1.9-1.9h1.9
		c1,0-0.5,0.8-0.5,1.9V106.2z"/>
	<rect x="563.6" y="101.9" class="st10" width="21.7" height="6.6"/>
	<rect x="563.6" y="95.8" class="st10" width="9" height="5.3"/>
	<rect x="567.2" y="67.1" class="st11" width="1.8" height="15.5"/>
	<polygon class="st10" points="571.6,94.7 564.5,94.7 566.9,83.4 569.3,83.4 	"/>
	<path class="st11" d="M584,99.2c0,1.1-0.9,1.9-1.9,1.9h-6.2c-1.1,0-1.9-0.9-1.9-1.9v-4.7c0-1.1,0.9-1.9,1.9-1.9h6.2
		c1.1,0,1.9,0.9,1.9,1.9V99.2z"/>
	<path class="st12" d="M573.7,64.7c0,0-3.3,1.9-5.2,0c0,0-1.2-1.4,0.3-2.5c0,0,0.7-0.6,2.8-0.6c0,0,1,0,1.5-0.9
		c0.2-0.4,3.6-4.6,8.3-5.2c0,0,6.7-1.1,8.9,3c0,0,2.9,5.3-4.5,6.8h-9.5c0,0-1,0-1.4-0.7C574.8,64.6,573.9,64.5,573.7,64.7z"/>
	<path class="st11" d="M579.7,91.7v-5.6c0-1.6,1.3-2.8,2.8-2.8H601c1.6,0,2.8,1.3,2.8,2.8v1.4h1.1V86c0-2.1-1.7-3.8-3.8-3.8h-19.3
		c-2.1,0-3.8,1.7-3.8,3.8v5.8L579.7,91.7z"/>
	<path class="st11" d="M589.3,83.1c0,0,1.4,0.4,1.7,2.4v1.9h-1v-1.7c0,0,0-1.4-1.9-2.6H589.3z"/>
	<path class="st11" d="M593.6,83.1c0,0,1.4,0.4,1.7,2.4v1.9h-1v-1.7c0,0,0-1.4-1.9-2.6H593.6z"/>
	<path class="st11" d="M598.4,83.1c0,0,1.4,0.4,1.7,2.4v1.9h-1v-1.7c0,0,0-1.4-1.9-2.6H598.4z"/>
</g>
<g>
	<path class="st12" d="M554.8,194.8c2.7-2.2,4.2-5.5,4.2-9c0-3.5-1.5-6.8-4.2-9c-0.4-0.3-0.9-0.3-1.2,0.1c-0.1,0.2-0.2,0.3-0.2,0.5
		c0,0.2,0.1,0.5,0.3,0.6c2.3,1.9,3.6,4.7,3.6,7.7c0,3-1.3,5.8-3.6,7.7c-0.2,0.2-0.3,0.4-0.3,0.6c0,0.2,0.1,0.4,0.2,0.5
		C553.9,195,554.5,195.1,554.8,194.8L554.8,194.8z"/>
	<path class="st12" d="M555.7,185.8c0-2.5-1.1-4.8-3-6.4c-0.4-0.3-0.9-0.3-1.2,0.1c-0.1,0.2-0.2,0.4-0.2,0.5c0,0.2,0.1,0.5,0.3,0.6
		c1.5,1.3,2.4,3.2,2.4,5.1c0,2-0.9,3.9-2.4,5.1c-0.2,0.2-0.3,0.4-0.3,0.6c0,0.2,0.1,0.4,0.2,0.5c0.3,0.4,0.8,0.4,1.2,0.1
		C554.6,190.6,555.7,188.3,555.7,185.8L555.7,185.8z"/>
	<path class="st12" d="M552.3,185.8c0-1.5-0.7-2.9-1.8-3.9c-0.4-0.3-0.9-0.3-1.2,0.1c-0.1,0.2-0.2,0.3-0.2,0.5
		c0,0.2,0.1,0.5,0.3,0.6c0.8,0.6,1.2,1.6,1.2,2.6s-0.4,1.9-1.2,2.6c-0.2,0.2-0.3,0.4-0.3,0.6c0,0.2,0.1,0.4,0.2,0.5
		c0.3,0.4,0.8,0.4,1.2,0.1C551.6,188.7,552.3,187.3,552.3,185.8L552.3,185.8z"/>
	<path class="st12" d="M538.1,194.8c0.4,0.3,0.9,0.3,1.2-0.1c0.1-0.2,0.2-0.3,0.2-0.5c0-0.2-0.1-0.5-0.3-0.6
		c-2.3-1.9-3.6-4.7-3.6-7.7c0-3,1.3-5.8,3.6-7.7c0.2-0.2,0.3-0.4,0.3-0.6c0-0.2-0.1-0.4-0.2-0.5c-0.3-0.4-0.8-0.4-1.2-0.1
		c-2.7,2.2-4.2,5.5-4.2,9C533.9,189.3,535.4,192.5,538.1,194.8L538.1,194.8z"/>
	<path class="st12" d="M537.2,185.8c0,2.5,1.1,4.8,3,6.4c0.4,0.3,0.9,0.3,1.2-0.1c0.1-0.2,0.2-0.3,0.2-0.5c0-0.2-0.1-0.5-0.3-0.6
		c-1.5-1.3-2.4-3.2-2.4-5.1c0-2,0.9-3.9,2.4-5.1c0.2-0.2,0.3-0.4,0.3-0.6c0-0.2-0.1-0.4-0.2-0.5c-0.3-0.4-0.8-0.4-1.2-0.1
		C538.3,181,537.2,183.3,537.2,185.8L537.2,185.8z"/>
	<path class="st12" d="M540.6,185.8c0,1.5,0.7,2.9,1.8,3.9c0.4,0.3,0.9,0.3,1.2-0.1c0.1-0.2,0.2-0.3,0.2-0.5c0-0.2-0.1-0.5-0.3-0.6
		c-0.8-0.6-1.2-1.6-1.2-2.6s0.4-1.9,1.2-2.6c0.2-0.2,0.3-0.4,0.3-0.6c0-0.2-0.1-0.4-0.2-0.5c-0.3-0.4-0.8-0.4-1.2-0.1
		C541.2,182.9,540.6,184.3,540.6,185.8L540.6,185.8z"/>
	<path class="st11" d="M549.2,186c0,1.5-1.2,2.6-2.6,2.6s-2.6-1.2-2.6-2.6c0-1.5,1.2-2.6,2.6-2.6S549.2,184.5,549.2,186z"/>
	<path class="st10" d="M547.5,188.3c1.5,11.9,8.3,20.7,9.6,22.5c0,0,0.5,1.1-0.9,0.7l-5.6-3l-3.9,3.9l-4.2-3.8l-5.7,3
		c-1.4,0.3-0.8-0.8-0.8-0.8c1.4-1.7,8.1-10.6,9.6-22.5H547.5z M544.9,196.2l0.5,0.8l0.6-0.8v-3.3L544.9,196.2z M547.2,192.9v3.3
		l0.6,0.8l0.5-0.8L547.2,192.9z M543.7,200.3l0.7,1.1l1.4-1.3l-0.6-1.3L543.7,200.3z M548,198.9l-0.6,1.3l1.4,1.3l0.7-1.1L548,198.9
		z M542.2,203.3l1.3-1.2l-0.4-0.8L542.2,203.3z M550.1,201.3l-0.4,0.8l1.3,1.2L550.1,201.3z M547.2,201.5v2.2l1-1.4L547.2,201.5z
		 M545,202.4l1,1.4v-2.2L545,202.4z M547.3,205.8l2.9,1.5l1.8-1.6l-3-2.8L547.3,205.8z M544.2,202.9l-3,2.8l1.8,1.6l2.9-1.5
		L544.2,202.9z M547.2,206.9v3.6l2.3-2.3L547.2,206.9z M543.6,208.1l2.3,2.3v-3.6L543.6,208.1z M551.4,207.9l3.3,1.5l-1.9-3
		L551.4,207.9z M540.4,206.4l-1.9,3l3.3-1.5L540.4,206.4z"/>
</g>
<g>
	<polygon class="st13" points="381.2,293.9 380.2,295.9 382.3,295.7 	"/>
	<polygon class="st13" points="382.5,291.3 381.4,293.4 383.3,293.3 	"/>
	<polygon class="st13" points="383.9,288.5 382.7,290.9 384.7,290.3 	"/>
	<polygon class="st13" points="384.5,287.3 384.1,288.1 385.2,287.6 	"/>
	<polygon class="st13" points="380,296.3 379,298.4 381.1,298.3 	"/>
	<polygon class="st13" points="377.5,301.5 376.4,303.6 378.8,303.4 	"/>
	<polygon class="st13" points="378.8,303.8 376.4,304 377.9,305.9 	"/>
	<polygon class="st13" points="378.7,299 377.8,300.9 380,300.8 	"/>
	<polygon class="st13" points="381.4,298 382.2,296.1 380.5,296.3 	"/>
	<polygon class="st13" points="379.1,303.2 379.9,301.3 377.9,301.3 	"/>
	<polygon class="st13" points="384.9,289.8 385.8,287.8 384.3,288.5 	"/>
	<polygon class="st13" points="376.8,308.5 377.7,306.5 375.2,306.6 	"/>
	<polygon class="st13" points="383.6,292.8 384.5,290.8 383,291.3 	"/>
	<polygon class="st13" points="382.6,295.2 383.2,293.7 381.7,293.8 	"/>
	<polygon class="st13" points="380.3,300.5 381,298.8 379.2,298.8 	"/>
	<polygon class="st13" points="359.5,304.6 356.4,302.6 354.6,308.3 359.5,305 	"/>
	<polygon class="st13" points="359.5,305.6 354.4,309 359.5,312 	"/>
	<polygon class="st13" points="359.5,296.5 358.3,296.5 356.8,301.2 359.5,299.4 	"/>
	<polygon class="st13" points="359.5,300 356.6,301.9 356.5,302.2 359.5,304.1 	"/>
	<polygon class="st13" points="359.5,312.5 354.3,309.4 352.6,314.5 359.5,314.5 	"/>
	<polygon class="st13" points="376.1,304.3 375.2,306.2 377.5,306.1 	"/>
	<polygon class="st13" points="365.6,308.9 360.4,312.6 360.4,314.5 367.4,314.5 	"/>
	<polygon class="st13" points="365.3,307.8 363.7,302.8 360.6,304.8 	"/>
	<polygon class="st13" points="376.6,308.9 374.8,306.8 373.7,309.2 376.5,309.2 	"/>
	<polygon class="st13" points="361.7,296.5 360.4,296.5 360.4,299.5 363.2,301.3 	"/>
	<polygon class="st13" points="363.4,301.9 360.4,300 360.4,304.4 363.6,302.3 	"/>
	<polygon class="st13" points="365.5,308.4 360.4,305.2 360.4,312.1 365.5,308.5 	"/>
	<path class="st3" d="M386.6,281.7c0.6-1,0.5-2.6-0.7-3.8c0,0,0.8,1.5,0,2.6c-0.8,1-0.7,3.2,0.1,3.9
		C385.9,284.4,386,282.8,386.6,281.7z"/>
	<path class="st3" d="M385.5,286.9c1-0.2,2.2-2.1,2-3.4c-0.2-1.3,1.2-2.2,1.2-2.2c-1.7,0.5-2.5,1.8-2.4,3
		C386.3,285.5,385.5,286.9,385.5,286.9z"/>
	<path class="st2" d="M380.5,328.1c-6,0-6.7,2.7-13.4,2.9c-6.7-0.2-7.4-2.9-13.4-2.9c-6.2,0-4.9,4.1-11.3,2.3c0,0,0.2,2.2,3.8,2.5
		c2.7,0.2,5.1-2,7.9-1.9c1.8,0.1,3.7,0.9,6.3,1.6c0.9,0.3,3.8,1.2,7,1.1c3,0,6.2-1.1,7.2-1.4c2.2-0.7,3.9-1.3,5.6-1.4
		c2.8-0.1,5.1,2.1,7.9,1.9c3.6-0.3,3.8-2.5,3.8-2.5C385.4,332.3,386.7,328.2,380.5,328.1z"/>
	<path class="st1" d="M350.5,328c1-0.3,2.1-0.4,3.2-0.4c1,0,2,0.1,3,0.4v-6.2h20.2v6.3c1.1-0.3,2.2-0.5,3.3-0.5
		c1.1,0,2.1,0.1,3.1,0.4v-6.2h1.7v-7.2h-5.2v-5.4h-1.2l8.1-21.6l-0.6-0.1l-0.1,0.2l0-0.3l-1.4-0.6l-0.3,0.1l-10.9,22.3H372v5.4h-3.7
		l-5.7-18h1.1v-1.9h-1.2V293h-0.3v-0.2h-4.7v0.2h-0.2v1.6h-1.5v1.7v0.2h1.6l-5.7,18h-2.4v7.2h1.2V328z M376.8,308.5l-1.6-1.9
		l2.4-0.1L376.8,308.5z M379.1,303.2l-1.2-1.8l2.1-0.1L379.1,303.2z M380.3,300.5l-1.1-1.7l1.9-0.1L380.3,300.5z M381.4,298
		l-0.9-1.6l1.7-0.2L381.4,298z M382.6,295.2l-0.9-1.4l1.5-0.1L382.6,295.2z M383.6,292.8l-0.7-1.6l1.5-0.5L383.6,292.8z
		 M384.9,289.8l-0.6-1.3l1.5-0.6L384.9,289.8z M384.5,287.3l0.8,0.3l-1.2,0.5L384.5,287.3z M383.9,288.5l0.8,1.8l-2,0.6L383.9,288.5
		z M382.5,291.3l0.8,2l-1.9,0.2L382.5,291.3z M381.2,293.9l1.1,1.8l-2.1,0.3L381.2,293.9z M380,296.3l1.1,2l-2.1,0.1L380,296.3z
		 M378.7,299l1.2,1.9l-2.2,0.1L378.7,299z M377.5,301.5l1.3,1.9l-2.3,0.2L377.5,301.5z M378.8,303.8l-0.9,2.1l-1.5-1.9L378.8,303.8z
		 M376.1,304.3l1.4,1.7l-2.3,0.1L376.1,304.3z M374.8,306.8l1.8,2.1l-0.1,0.3h-2.8L374.8,306.8z M365.3,307.8l-4.6-3l3-2
		L365.3,307.8z M360.4,296.5h1.3l1.5,4.8l-2.8-1.8V296.5z M360.4,300l3,1.9l0.1,0.4l-3.2,2.1V300z M360.4,305.2l5.1,3.3l0,0.1
		l-5.1,3.6V305.2z M360.4,312.6l5.2-3.7l1.8,5.6h-7V312.6z M358.3,296.5h1.2v2.9l-2.7,1.8L358.3,296.5z M356.6,301.9l2.9-1.9v4.1
		l-3-1.9L356.6,301.9z M356.4,302.6l3.1,2v0.4l-4.9,3.3L356.4,302.6z M359.5,305.6v6.4l-5.1-3L359.5,305.6z M354.3,309.4l5.3,3.1v2
		h-6.9L354.3,309.4z"/>
</g>
</svg>
