<svg xmlns="http://www.w3.org/2000/svg" id="Layer_1" data-name="Layer 1" viewBox="0 0 100 100"><defs><style>.cls-1{fill:#60987e}</style></defs><path d="M65.53 80.83l1.11.1 1 .09a4.09 4.09 0 001.18.18h.27a3.9 3.9 0 00.45 0 4.18 4.18 0 001.79-.78l11.37-9A1.26 1.26 0 0083 71a3.28 3.28 0 00-.08-3.26c-.05-.09-.13-.15-.18-.23a3.32 3.32 0 00-1.41-1.11 3.23 3.23 0 00-1.23-.28 3.31 3.31 0 00-1 .15l-1.1.32-.21.08-.86.43-.77.39-6.46 3.28-.13.08a1.64 1.64 0 01-1.8 0l-1.4-1 10.53-9.77.17-.13a2.29 2.29 0 011.65-.49 1.72 1.72 0 011.75.19l2.64-2.43.17-.13a2.32 2.32 0 011.42-.51 1.72 1.72 0 012 .21l.17.16a1.67 1.67 0 01.28.39l3.09-2.85.2-.16a2.78 2.78 0 012.06-.6 1.85 1.85 0 012.24.2l.18.17a1.88 1.88 0 01.48 2 2.58 2.58 0 012.05-.3 1.84 1.84 0 011.76.4l.18.17A1.88 1.88 0 0199.5 59l-.16.17a2.66 2.66 0 01-.49.93L76 87.58a2.68 2.68 0 01-2.06 1H52.55a2.68 2.68 0 01-1.5-.46l-14.56-9.88 22.77 2z" class="cls-1"/><path d="M12.83 65.09l10.64-7.77a2.76 2.76 0 01.59-.31 2.85 2.85 0 01.54-.15h.29a4.7 4.7 0 01.55 0h19.8a2.85 2.85 0 011.67.54l18.5 13.28L67 71.84l.14.07a2.79 2.79 0 003.1 0l2.46-1.25 2.15-1.09 3.47-1.76 1.15-.35a2.09 2.09 0 01.61-.09 2 2 0 01.37.05 2 2 0 01.91.44 2.13 2.13 0 01.44.48 2 2 0 01.07 2.05l-1.31 1-9.87 7.81-.18.14a2.83 2.83 0 01-1.42.56h-.31a2.86 2.86 0 01-.93-.16l-1.35-.12h-.31L58.82 79l-22.91-2a2.84 2.84 0 00-.93-.16 2.79 2.79 0 00-.65.08 3 3 0 00-.54.18l-16 6.31-.12-.44-4.8-17.62z" class="cls-1"/><path fill="#a69f3d" d="M.43 65.41a3.23 3.23 0 012-1.52l5.05-1.38a3.3 3.3 0 01.86-.11 3.25 3.25 0 013.06 2.2c0 .07.05.13.07.2l.12.44.18.65.06.22 4.71 17.3.11.41v.08a3.6 3.6 0 01.09 1.23 3.25 3.25 0 01-2.37 2.75l-5.06 1.38a3.3 3.3 0 01-4-2.28L.12 67.87a3.23 3.23 0 01.31-2.47"/><path fill="#efaa1e" d="M60.33 30.21l-1-.36V19.29a4.93 4.93 0 012.5 1.16 6.8 6.8 0 012.06 2.79h.55a25.7 25.7 0 011.46-4.31 11.7 11.7 0 00-2.9-1.06 15.34 15.34 0 00-3.74-.51v-3.2h-2.03v3.31a10 10 0 00-5.33 2.25 8.2 8.2 0 00-2.79 6.61q0 5.58 7.16 7.64l1 .3v11A7 7 0 0153.54 44a10 10 0 01-3-3.21H50a15.36 15.36 0 01-.53 2.21q-.36 1.12-.73 2.21a13 13 0 003.61 1.43 16.66 16.66 0 004 .52c.31 0 .61 0 .91 0V51h2.06v-4.1a11.55 11.55 0 004.62-2.07 8.54 8.54 0 003.58-7.22q-.03-5.09-7.19-7.4zm-7.16-5.94a4.58 4.58 0 011.58-3.7 5.51 5.51 0 012.48-1.17V29q-4.05-2-4.06-4.73zm8.43 19.47A6.34 6.34 0 0159.29 45V35q4.13 1.88 4.14 4.73a5 5 0 01-1.82 4.01z"/><path fill="#128ece" d="M58.12 54.57a22 22 0 1122-22 22 22 0 01-22 22zm0-42.56a20.6 20.6 0 1020.6 20.6A20.62 20.62 0 0058.12 12z"/></svg>