<svg id="Layer_1" data-name="Layer 1" xmlns="http://www.w3.org/2000/svg" viewBox="0 0 100 100"><defs><style>.cls-1{fill:#a69f3d;}.cls-2{fill:#60987e;}</style></defs><title>optimize improve enable </title><path class="cls-1" d="M58.9,26.93c14,7.13,16.73,24.51,5.7,34.51a16.2,16.2,0,0,0-5.76,13.65c.26,6.65,0,13.32.07,20,0,1.86,0,3.73-2.12,4.41-2.43.79-4.57,1.16-4.48-2.81.2-8.43.08-16.87.05-25.31,0-2.18.4-5-2.8-5s-2.81,2.85-2.81,5.06c0,8.29,0,16.58-.05,24.86,0,1.45,1.15,3.78-2.07,3.74-2.91,0-4.42-1.14-4.4-4.19.05-6.51-.25-13,.09-19.53S39,64.79,34.29,60c-8.43-8.51-7.23-22.16,1.84-30,1-.85,2-2.29,3.32-1.86,1.65.54.7,2.3.76,3.5.14,3-.09,5.93.09,8.88.23,3.74,2.31,6,6.1,6.36a32.22,32.22,0,0,0,6.65,0c3.79-.46,5.73-2.88,5.83-6.61C59,36,58.9,31.7,58.9,26.93Z"/><path class="cls-2" d="M95.78,52.76l-4.1-2.25A3.53,3.53,0,0,1,90,47.57s0-.55,0-1.83V45.3c0-.48.71-1.31,1.66-1.85l4.09-2.3A2.89,2.89,0,0,0,97,38.25l-2-7.29a2.88,2.88,0,0,0-2.62-1.83l-4.7.1A3.35,3.35,0,0,1,85,27.75c-.45-.83-1.31-3.69-.76-4.63l2.39-4a2.88,2.88,0,0,0-.31-3.18L80.92,10.6a2.88,2.88,0,0,0-3.18-.29l-4,2.43a3.35,3.35,0,0,1-3.15.13c-.8-.49-3-2.55-3-3.64l.06-4.68A2.88,2.88,0,0,0,65.8,2L58.49,0a2.88,2.88,0,0,0-2.9,1.34L53.34,5.49A3.52,3.52,0,0,1,50.4,7.16s-.55,0-1.83,0l-.45,0c-.48,0-1.31-.71-1.84-1.66L44,1.44A2.88,2.88,0,0,0,41.08.12l-7.3,2A2.88,2.88,0,0,0,32,4.71l.1,4.7a3.35,3.35,0,0,1-1.47,2.8c-.83.45-3.69,1.32-4.62.76l-4-2.39a2.88,2.88,0,0,0-3.18.31l-5.32,5.37a2.88,2.88,0,0,0-.28,3.18l2.43,4a3.34,3.34,0,0,1,.13,3.15c-.5.8-2.55,3-3.64,3l-4.68-.06a2.88,2.88,0,0,0-2.6,1.86L2.87,38.69a2.88,2.88,0,0,0,1.35,2.9l4.11,2.25A3.52,3.52,0,0,1,10,46.77s0,.55,0,1.83L10,49c0,.48-.71,1.31-1.66,1.85l-4.09,2.3A2.88,2.88,0,0,0,3,56.09l2,7.29a2.88,2.88,0,0,0,2.62,1.83l4.7-.1A3.35,3.35,0,0,1,15,66.59c.45.83,1.32,3.69.76,4.63l-2.39,4a2.88,2.88,0,0,0,.31,3.18l5.37,5.32a2.89,2.89,0,0,0,3.18.28l4-2.43a3.32,3.32,0,0,1,3.15-.13,10.74,10.74,0,0,1,2.37,2.32,0,0,0,0,0,.07,0,18.45,18.45,0,0,1,1.44-13.07,28.85,28.85,0,1,1,33.38,0C68,73.22,69,82.36,69.42,82.14c.83-.45,3.69-1.31,4.62-.76l4,2.39a2.88,2.88,0,0,0,3.18-.31l5.32-5.37a2.88,2.88,0,0,0,.28-3.18l-2.43-4a3.33,3.33,0,0,1-.13-3.15c.49-.8,2.55-3,3.64-3l4.68.06A2.89,2.89,0,0,0,95.21,63l1.91-7.31A2.89,2.89,0,0,0,95.78,52.76Z"/></svg>