<?xml version="1.0" encoding="utf-8"?>
<!-- Generator: Adobe Illustrator 22.0.1, SVG Export Plug-In . SVG Version: 6.00 Build 0)  -->
<svg version="1.1" id="Layer_1" xmlns="http://www.w3.org/2000/svg" xmlns:xlink="http://www.w3.org/1999/xlink" x="0px" y="0px"
	 viewBox="0 0 126 116" style="enable-background:new 0 0 126 116;" xml:space="preserve">
<style type="text/css">
	.st0{fill:url(#SVGID_1_);}
	.st1{fill:none;stroke:#0459A2;stroke-miterlimit:10;}
	.st2{fill:#FF0013;}
	.st3{fill:#0B4A99;}
	.st4{fill:#CD1618;}
	.st5{fill:#DB9821;}
	.st6{fill:#40875E;}
	.st7{fill:#918831;}
	.st8{fill:#F0AB00;}
	.st9{fill:#A8A240;}
	.st10{fill:none;}
	.st11{fill:#0071C5;}
	.st12{fill:#EFAA1E;}
	.st13{fill:none;stroke:#000000;stroke-width:0.5;stroke-miterlimit:10;}
	.st14{fill:#A69F3D;}
	.st15{fill:#231F20;}
	.st16{fill-rule:evenodd;clip-rule:evenodd;fill:#A69F3D;}
	.st17{fill-rule:evenodd;clip-rule:evenodd;fill:#F0AB00;}
	.st18{fill-rule:evenodd;clip-rule:evenodd;fill:#A8A240;}
	.st19{fill-rule:evenodd;clip-rule:evenodd;fill:#40875E;}
	.st20{fill-rule:evenodd;clip-rule:evenodd;fill:#0B4A99;}
	.st21{fill:#FFFFFF;}
	.st22{fill:#0057A2;}
</style>
<g>
	<path class="st10" d="M71.6,74.7c4.4-1.3,9.3-2.1,14.5-2.3v-8.8H70C70.2,67.6,70.7,71.3,71.6,74.7z"/>
	<path class="st10" d="M103.2,47.6c-4.3,1.3-9.2,2.1-14.3,2.2v11h16C104.9,56.1,104.3,51.6,103.2,47.6z"/>
	<path class="st10" d="M88.9,29.5V47c4.9-0.1,9.5-0.8,13.5-2C99.6,36.4,94.7,30.4,88.9,29.5z"/>
	<path class="st10" d="M111.7,40.7c-3.8-4.5-8.7-7.9-14.4-9.7c3.2,3.1,5.9,7.6,7.7,13C107.6,43.1,109.8,42,111.7,40.7z"/>
	<path class="st10" d="M63.3,81.5c3.7,4.4,8.6,7.8,14.1,9.7c-3.2-3.1-5.8-7.5-7.6-12.9C67.4,79.1,65.2,80.2,63.3,81.5z"/>
	<path class="st10" d="M69,46.6c-2.7-1-5.2-2.3-7.4-3.7C58,48,55.9,54.1,55.8,60.8h11.3C67.1,55.7,67.8,50.9,69,46.6z"/>
	<path class="st10" d="M67.1,63.6H55.9c0.5,5.8,2.5,11.2,5.7,15.7c2.1-1.4,4.6-2.7,7.4-3.7C68,71.9,67.3,67.9,67.1,63.6z"/>
	<path class="st10" d="M71.6,47.5c-1.1,4-1.7,8.5-1.7,13.3h16.2v-11C80.9,49.7,76,48.9,71.6,47.5z"/>
	<path class="st10" d="M77.4,31.1C71.8,33,67,36.3,63.3,40.7c1.9,1.2,4.1,2.3,6.5,3.2C71.6,38.6,74.2,34.1,77.4,31.1z"/>
	<path class="st10" d="M86.1,47V29.5c-5.8,0.8-10.8,6.8-13.7,15.3C76.5,46.1,81.2,46.8,86.1,47z"/>
	<path class="st9" d="M86.1,92.7c-5.8-0.8-10.8-6.8-13.7-15.3c4.1-1.2,8.7-2,13.7-2.1v12.8c0.1-0.1,2.9-5.7,2.9-5.7
		c-0.1-0.1,0-7.2,0-7.2c4.9,0.1,8.4,0.6,12.5,1.8c0,0.1,0-1.5,1.2-2.6c-4.2-1.2-8.8-1.9-13.7-2l0-8.8h15.5l-0.2-0.2
		c-0.2-0.3-0.1-0.6,0.2-0.8l3.2-2c0-5-0.7-9.7-1.9-13.9c2.8-1,5.3-2.3,7.5-3.8c3.5,5,5.7,11.1,5.8,17.7c0.1,0.1,0.1,0.3,0.1,0.4
		c0,0,2.8,1.6,2.8,0.1c0-7.4-2.4-14.3-6.3-19.9c-0.5-0.7-1.1-1.5-1.7-2.2c-6.3-7.6-15.9-12.5-26.5-12.5c0,0,0,0-0.1,0c0,0,0,0,0,0
		c0,0-0.1,0-0.1,0C76.7,26.7,67.3,31.5,61,39c-0.6,0.7-1.1,1.4-1.7,2.2c-4,5.6-6.3,12.5-6.3,19.9c0,7.4,2.4,14.3,6.3,19.9
		c0.5,0.7,1.1,1.5,1.7,2.2c6.2,7.5,15.5,12.2,25.9,12.4L86.1,92.7z M111.7,40.7c-1.9,1.3-4.2,2.4-6.7,3.3c-1.8-5.4-4.5-10-7.7-13
		C103,32.8,108,36.3,111.7,40.7z M88.9,29.5c5.7,0.9,10.7,6.8,13.5,15.4c-4.1,1.2-8.6,1.9-13.5,2V29.5z M88.9,49.8
		c5.1-0.1,10-0.9,14.3-2.2c1.1,4,1.7,8.5,1.7,13.2h-16V49.8z M86.1,72.4c-5.2,0.1-10.1,0.9-14.5,2.3c-0.9-3.4-1.5-7.1-1.6-11h16.1
		V72.4z M86.1,60.8H69.9c0-4.8,0.6-9.3,1.7-13.3c4.4,1.3,9.3,2.1,14.5,2.3V60.8L86.1,60.8L86.1,60.8z M86.1,29.5V47
		c-4.9-0.1-9.6-0.9-13.7-2.1C75.3,36.3,80.3,30.3,86.1,29.5z M77.4,31.1c-3.2,3.1-5.8,7.5-7.6,12.9c-2.4-0.9-4.6-2-6.5-3.2
		C67,36.3,71.8,33,77.4,31.1z M61.6,42.9c2.1,1.4,4.6,2.7,7.4,3.7c-1.2,4.3-1.9,9.1-1.9,14.2H55.8C55.9,54.1,58,48,61.6,42.9z
		 M55.9,63.6h11.2c0.2,4.2,0.8,8.3,1.8,11.9c-2.7,1-5.2,2.3-7.4,3.7C58.4,74.8,56.4,69.4,55.9,63.6z M63.3,81.5
		c1.9-1.2,4.1-2.3,6.5-3.2c1.8,5.4,4.5,9.8,7.6,12.9C71.8,89.3,67,85.9,63.3,81.5z"/>
	<path class="st6" d="M122.2,64.2l-1.6,1.1c-0.2,0.1-0.4,0.1-0.6,0c-0.6-0.5-1.2-0.9-1.8-1.2c-0.2-0.1-0.3-0.3-0.3-0.6l0.4-1.9
		c0.1-0.3-0.1-0.5-0.4-0.6l-3.3-0.7c-0.3-0.1-0.5,0.1-0.6,0.4l-0.4,1.9c0,0.2-0.2,0.4-0.5,0.4c-0.7,0.1-1.4,0.2-2.1,0.4
		c-0.2,0.1-0.5,0-0.6-0.2l-1.1-1.6c-0.2-0.2-0.5-0.3-0.7-0.1l-2.8,1.9c-0.2,0.2-0.3,0.5-0.1,0.7l1.1,1.6c0.1,0.2,0.1,0.4,0,0.6
		c-0.5,0.6-0.9,1.2-1.2,1.8c-0.1,0.2-0.3,0.3-0.6,0.3L103,68c-0.3-0.1-0.5,0.1-0.6,0.4l-0.7,3.3c-0.1,0.3,0.1,0.5,0.4,0.6l1.9,0.4
		c0.2,0,0.4,0.2,0.4,0.5c0.1,0.7,0.2,1.4,0.4,2.1c0.1,0.2,0,0.5-0.2,0.6l-1.6,1.1c-0.2,0.2-0.3,0.5-0.1,0.7l1.9,2.8
		c0.2,0.2,0.5,0.3,0.7,0.1l1.6-1.1c0.2-0.1,0.4-0.1,0.6,0c0.6,0.5,1.2,0.9,1.8,1.2c0.2,0.1,0.3,0.3,0.3,0.6l-0.4,1.9
		c-0.1,0.3,0.1,0.5,0.4,0.6l3.3,0.7c0.3,0.1,0.5-0.1,0.6-0.4l0.4-1.9c0-0.2,0.2-0.4,0.5-0.4c0.7-0.1,1.4-0.2,2.1-0.4
		c0.2-0.1,0.5,0,0.6,0.2l1.1,1.6c0.2,0.2,0.5,0.3,0.7,0.1l2.8-1.9c0.2-0.2,0.3-0.5,0.1-0.7l-1.1-1.6c-0.1-0.2-0.1-0.4,0-0.6
		c0.5-0.6,0.9-1.2,1.2-1.8c0.1-0.2,0.3-0.3,0.6-0.3l1.9,0.4c0.3,0.1,0.5-0.1,0.6-0.4l0.7-3.3c0.1-0.3-0.1-0.5-0.4-0.6l-1.9-0.4
		c-0.2,0-0.4-0.2-0.4-0.5c-0.1-0.7-0.2-1.4-0.4-2.1c-0.1-0.2,0-0.5,0.2-0.6l1.6-1.1c0.2-0.2,0.3-0.5,0.1-0.7l-1.9-2.8
		C122.8,64.1,122.4,64,122.2,64.2 M116.6,76.5c-2.3,1.5-5.3,0.9-6.8-1.3c-1.5-2.3-0.9-5.3,1.3-6.8c2.3-1.5,5.3-0.9,6.8,1.3
		C119.5,71.9,118.9,75,116.6,76.5"/>
	<path class="st8" d="M105.2,82.3l-1.3,0.8c-0.2,0.1-0.4,0.1-0.5-0.1c-0.4-0.4-0.9-0.7-1.4-1c-0.2-0.1-0.3-0.3-0.2-0.5l0.4-1.5
		c0.1-0.2-0.1-0.4-0.3-0.5l-2.7-0.6c-0.2-0.1-0.4,0.1-0.5,0.3l-0.4,1.5c0,0.2-0.2,0.3-0.4,0.3c-0.6,0-1.2,0.1-1.7,0.3
		c-0.2,0.1-0.4,0-0.5-0.2l-0.8-1.3c-0.1-0.2-0.4-0.3-0.6-0.1l-2.3,1.4c-0.2,0.1-0.3,0.4-0.1,0.6l0.8,1.3c0.1,0.2,0.1,0.4-0.1,0.5
		c-0.4,0.4-0.7,0.9-1,1.4c-0.1,0.2-0.3,0.3-0.5,0.2l-1.5-0.4c-0.2-0.1-0.4,0.1-0.5,0.3l-0.6,2.7c-0.1,0.2,0.1,0.4,0.3,0.5l1.5,0.4
		c0.2,0,0.3,0.2,0.3,0.4c0,0.6,0.1,1.2,0.3,1.7c0.1,0.2,0,0.4-0.2,0.5l-1.3,0.8c-0.2,0.1-0.3,0.4-0.1,0.6l1.4,2.3
		c0.1,0.2,0.4,0.3,0.6,0.1l1.3-0.8c0.2-0.1,0.4-0.1,0.5,0.1c0.4,0.4,0.9,0.7,1.4,1c0.2,0.1,0.3,0.3,0.2,0.5l-0.4,1.5
		c-0.1,0.2,0.1,0.4,0.3,0.5l2.7,0.6c0.2,0.1,0.4-0.1,0.5-0.3l0.4-1.5c0-0.2,0.2-0.3,0.4-0.3c0.6,0,1.2-0.1,1.7-0.3
		c0.2-0.1,0.4,0,0.5,0.2l0.8,1.3c0.1,0.2,0.4,0.3,0.6,0.1l2.3-1.4c0.2-0.1,0.3-0.4,0.1-0.6l-0.8-1.3c-0.1-0.2-0.1-0.4,0.1-0.5
		c0.4-0.4,0.7-0.9,1-1.4c0.1-0.2,0.3-0.3,0.5-0.2l1.5,0.4c0.2,0.1,0.4-0.1,0.5-0.3l0.6-2.7c0.1-0.2-0.1-0.4-0.3-0.5l-1.5-0.4
		c-0.2,0-0.3-0.2-0.3-0.4c0-0.6-0.1-1.2-0.3-1.7c-0.1-0.2,0-0.4,0.2-0.5l1.3-0.8c0.2-0.1,0.3-0.4,0.1-0.6l-1.4-2.3
		C105.7,82.2,105.4,82.2,105.2,82.3 M100.3,92.1c-1.9,1.2-4.3,0.6-5.5-1.3c-1.2-1.9-0.6-4.3,1.3-5.5c1.9-1.2,4.3-0.6,5.5,1.3
		C102.8,88.5,102.2,90.9,100.3,92.1"/>
	<path class="st8" d="M20.1,51.4v5.4c0,0.3,0.3,0.6,0.6,0.6h4.2c0.3,0,0.6-0.3,0.6-0.6v-9.6l-3.1,3.1C21.8,51,21,51.4,20.1,51.4"/>
	<path class="st8" d="M27.6,47.2v9.6c0,0.3,0.3,0.6,0.6,0.6h4.2c0.3,0,0.6-0.3,0.6-0.6v-5.7c-1,0-1.9-0.4-2.5-1.1L27.6,47.2z"/>
	<path class="st8" d="M35.1,50.6v6.3c0,0.3,0.3,0.6,0.6,0.6h4.2c0.3,0,0.6-0.3,0.6-0.6V45.3l-4.8,4.8C35.5,50.3,35.3,50.5,35.1,50.6
		"/>
	<path class="st8" d="M47.6,38.2l-5,5v13.7c0,0.3,0.3,0.6,0.6,0.6h4.2c0.3,0,0.6-0.3,0.6-0.6V38.6C47.9,38.5,47.8,38.3,47.6,38.2
		L47.6,38.2z"/>
	<path class="st6" d="M51,29.3c-0.2-0.2-0.5-0.3-0.9-0.3H50c-2,0.1-3.9,0.2-5.9,0.3c-0.3,0-0.6,0-0.9,0.3c-0.1,0.1-0.2,0.2-0.2,0.3
		c-0.3,0.6,0.1,1,0.3,1.2l0.5,0.5c0.3,0.3,0.7,0.7,1,1L33.1,44.5l-5.3-5.3c-0.3-0.3-0.7-0.5-1.2-0.5c-0.5,0-0.9,0.2-1.2,0.5
		l-7.1,7.1c-0.7,0.7-0.7,1.7,0,2.4l0.3,0.3c0.3,0.3,0.7,0.5,1.2,0.5c0.5,0,0.9-0.2,1.2-0.5l5.6-5.6l5.3,5.3c0.3,0.3,0.7,0.5,1.2,0.5
		c0.5,0,0.9-0.2,1.2-0.5l13.3-13.3l1.5,1.5c0.2,0.2,0.4,0.4,0.8,0.4c0.2,0,0.3,0,0.5-0.1c0.1-0.1,0.2-0.1,0.3-0.2
		c0.3-0.3,0.3-0.7,0.4-1c0.1-1.3,0.1-2.5,0.2-3.8l0.1-1.9C51.3,29.8,51.2,29.5,51,29.3"/>
	<g>
		<path d="M50.3,69.3H11.9c-1.4,0-2.5-1.1-2.5-2.5V20c0-1.4,1.1-2.5,2.5-2.5h76c1.4,0,2.5,1.1,2.5,2.5v3.8H90V20c0-1.1-0.9-2-2-2
			h-76c-1.1,0-2,0.9-2,2v46.8c0,1.1,0.9,2,2,2h38.3V69.3z"/>
	</g>
	<g>
		<path d="M56.3,83H2.5c-1,0-1.9-0.6-2.3-1.7c-0.4-1-0.3-2.4,0.7-3.4l8-7.5c0.4-0.4,1-0.7,1.6-0.7h40.2l0,0.2
			c1,4.5,2.8,8.7,5.3,12.6L56.3,83z M10.5,70.3c-0.5,0-0.9,0.2-1.3,0.5l-8,7.5c-0.8,0.8-0.9,2-0.6,2.8c0.3,0.8,1,1.4,1.8,1.4h52.9
			c-2.4-3.7-4.1-7.8-5.1-12.2H10.5z"/>
	</g>
</g>
</svg>
